<svg xmlns="http://www.w3.org/2000/svg" xmlns:xlink="http://www.w3.org/1999/xlink" width="216.7" height="128" viewBox="0 0 216.7 128"><defs><style>.a,.b,.c,.g{fill:none;}.a,.c{stroke:#17b02c;}.a{stroke-linecap:round;stroke-width:2px;}.b{stroke:#fafad2;stroke-width:3px;}.c{stroke-width:4px;}.d,.e{fill:#fafad2;}.d{stroke:rgba(0,0,0,0);stroke-miterlimit:10;font-size:15px;font-family:Limelight-Regular, Limelight;}.f{stroke:none;}.h{filter:url(#k);}.i{filter:url(#i);}.j{filter:url(#g);}.k{filter:url(#e);}.l{filter:url(#c);}.m{filter:url(#a);}</style><filter id="a" x="58.7" y="11" width="106" height="106" filterUnits="userSpaceOnUse"><feOffset dy="1" input="SourceAlpha"/><feGaussianBlur stdDeviation="1" result="b"/><feFlood flood-opacity="0.749"/><feComposite operator="in" in2="b"/><feComposite in="SourceGraphic"/></filter><filter id="c" x="53.7" y="6" width="116" height="116" filterUnits="userSpaceOnUse"><feOffset dy="1" input="SourceAlpha"/><feGaussianBlur stdDeviation="1" result="d"/><feFlood flood-opacity="0.749"/><feComposite operator="in" in2="d"/><feComposite in="SourceGraphic"/></filter><filter id="e" x="48.7" y="1" width="126" height="126" filterUnits="userSpaceOnUse"><feOffset dy="1" input="SourceAlpha"/><feGaussianBlur stdDeviation="1" result="f"/><feFlood flood-opacity="0.749"/><feComposite operator="in" in2="f"/><feComposite in="SourceGraphic"/></filter><filter id="g" x="0" y="101" width="76" height="27" filterUnits="userSpaceOnUse"><feOffset dy="1" input="SourceAlpha"/><feGaussianBlur stdDeviation="1" result="h"/><feFlood flood-opacity="0.749"/><feComposite operator="in" in2="h"/><feComposite in="SourceGraphic"/></filter><filter id="i" x="150.7" y="0" width="66" height="27" filterUnits="userSpaceOnUse"><feOffset dy="1" input="SourceAlpha"/><feGaussianBlur stdDeviation="1" result="j"/><feFlood flood-opacity="0.749"/><feComposite operator="in" in2="j"/><feComposite in="SourceGraphic"/></filter><filter id="k" x="87.968" y="26" width="47.992" height="76" filterUnits="userSpaceOnUse"><feOffset dy="1" input="SourceAlpha"/><feGaussianBlur stdDeviation="1" result="l"/><feFlood flood-opacity="0.749"/><feComposite operator="in" in2="l"/><feComposite in="SourceGraphic"/></filter></defs><g transform="translate(-491.3 -6007)"><g class="m" transform="matrix(1, 0, 0, 1, 491.3, 6007)"><g class="a" transform="translate(111.65, 62.6)"><circle class="f" cx="50" cy="50" r="50"/><circle class="g" cx="0" cy="0" r="49" style="stroke-dasharray:290;"><animateTransform attributeType="xml" attributeName="transform" type="rotate" from="0" to="360" begin="0" dur="5000ms" repeatCount="indefinite" /></circle></g></g><g class="l" transform="matrix(1, 0, 0, 1, 491.3, 6007)"><g class="b" transform="translate(111.65, 62.6)"><circle class="f" cx="55" cy="55" r="55"/><circle class="g" cx="0" cy="0" r="53.5" style="stroke-dasharray:70, 20;"><animateTransform attributeType="xml" attributeName="transform" type="rotate" from="0" to="360" begin="0" dur="8090ms" repeatCount="indefinite" /></circle></g></g><g class="k" transform="matrix(1, 0, 0, 1, 491.3, 6007)"><g class="c" transform="translate(111.65, 62.6)"><circle class="f" cx="60" cy="60" r="60"/><circle class="g" cx="0" cy="0" r="58" style="stroke-dasharray:80, 20;"><animateTransform attributeType="xml" attributeName="transform" type="rotate" from="0" to="360" begin="0" dur="13090ms" repeatCount="indefinite" /></circle></g></g><g class="j" transform="matrix(1, 0, 0, 1, 491.3, 6007)"><text class="d" transform="translate(4 118)"><tspan x="0" y="0">Ukurasa</tspan></text></g><g class="i" transform="matrix(1, 0, 0, 1, 491.3, 6007)"><text class="d" transform="translate(154.7 17)"><tspan x="0" y="0">Mweu&apos;s</tspan></text></g><g class="h" transform="matrix(1, 0, 0, 1, 491.3, 6007)"><path class="e" d="M38.077,70h0l-.16-.08v-.2h-.282v-.161l-.161.081-.161-.081.04.121V69.8h-.121l-.161-.161-.08.08-.6-.08-.04-.161L36.1,69.8h-.121v-.121l-.121.04-.161-.08-.2.04-.04.121-.161-.242-.04.121.04.121-.242-.081-.121.04v-.2h-.282l-.2.081-.04.242-.121-.282.04-.121-.4-.081h-.282v.121l-.121-.04-.2-.121v-.121h-.2v.08h.121v.161l-.484-.2.161-.242-.121-.04-.2.081-.04.4-.081-.161-.121.04-.04-.2-.2.121-.121-.2h-.121v.121l.04.121h-.121v-.282l-.121.04-.242.08-.121-.322-.564.081.161-.282-.121-.2-.08.242-.363-.242v-.2l-.2-.2-.2-.121v-.161l-.2-.282-.524-.282v-.121h-.121l-.443-.685.08-.161-.121-.282-.08.08-.121-.121-.322-.484v-.363h-.161v-.161h-.2L27.6,64.64l-.161-.04.08-.081-.161-.161-.161-.242-.08-.363-.161-.04.161-.081-.161-.08.161-.161-.363-.363h-.121v-.121l-.121-.2.4-.161.04.322.484.363-.081.08.2.2.282.08.04-.242.121.282-.161.242H28l.081.161-.161.04v.161h.121l.2.04-.08.161.08.2.242.121.282.443.2-.121-.04-.121.2-.121v-.2h.121l.04-.2-.161-.322.121-.2.161.242.282-.121-.081-.161.121.04.161-.08.242.161.08-.081.161.161.121-.04-.08.282.2-.08.081.161.121-.242.2-.081.161.242.4.081.04-.161h.161v.242h.121l.121-.04v.2h.121l.161.242.282-.2.161.242.2-.121.121.121.04.121.161-.242.242.081.242-.081h.161l.2-.121-.08-.08.121-.121h.483l.04-.161h.2V64.4l-.363.282.121.04.322-.161.161.08v-.322l.121.04.04-.121.04.121-.2.363L34.773,65l.161.08-.04.121.2.121-.121-.04-.2.2.443.121.2-.081.121.242.04-.2-.161-.282.322.161v.2l.161.081-.081-.363.161.04-.04.121.363-.081.081-.4h.161v.242h.121l.363.08.081-.2-.363-.121-.443-.363.4-.161-.121-.2.2.081.04.161.08-.081.2.2.04.121.121-.242.161.04-.081.2-.161.04.242.04.121.4.08-.242.04.161.2-.081.04.121-.04.121.2.121v.121H38.4v-.161h.161V65.2h.282l.2-.081V64.8h.2l.121.121V65.2l.2.08.121-.04-.081.161.2.121.2-.121-.242-.08.121-.2h.121v.161h.2l.282-.121-.161-.04-.08-.363.121-.282.121.04.04-.121.04.363.121.121.443.08.04-.242.161.08.161-.242-.2-.04.322-.161-.161-.242.121-.04.242.081.363-.282v.2h.121l.322.242h.282l-.08-.282.2-.04.524.161.121.322.04-.161h.161V64.2l.242-.121.08-.2-.161-.04.04-.161.242.242.121-.121-.081-.322.121-.04.161.161.161-.161.2-.121-.08-.282h.161v-.242h.2l.2.08v.161H45.25l-.04-.161-.04.322.484-.2-.242-.4.2.121.121.04v.443h-.161v.121h-.161l.081.161-.242.081v.242l-.363.363L44.646,64l-.04.121.322.121-.322.6.242.121v.161h-.121l-.2-.121-.242.524h-.161v.121l-.081.2h-.322v.121l.08.282-.161.04.161.04-.121.322-.04-.161H43.4v.121l-.04.2h-.121v.242h-.121l-.121.121V67.5l-.2.2-.322-.081.04.121-.04.282-.161-.081-.443.282.161.524h-.161v-.2l-.121-.121H41.5v.161l-.2-.121.161-.081-.242-.04-.08.2.161.04v.242h-.363L40.7,68.67l-.242.242-.081-.081-.2.04.161.08-.121.121-.282-.04.08.242h-.161l-.04.121-.2-.121V69.4h-.121l-.363-.04-.04-.121-.2.363.04.121-.121-.242L38.52,69.4l-.08.242-.242-.081-.2.04.08.4Zm-5.642-1.007-.08.161.161.081Zm5.8-3.3-.08.161.242.081Zm-1.773-.242-.08.161-.161.08.484.081.242-.081-.08-.161-.4.081Zm3.708,0h0l-.161.161.161.08v-.242Zm-2.9,0h0l.08.161.161-.081-.242-.081Zm1.612-.161-.08.161h.242l-.161-.161Zm-5.561-.08v.161l.161.081V65.2ZM29.614,64.4l-.08.242-.081.242.161.08L29.7,64.8l-.081-.161.081-.08-.081-.161Zm5.158.322-.081.161h.161Zm8.382-.645h0l-.081.161.08.08-.241.161h.322l.322.4V64.56l-.161-.322-.242-.161Zm-6.529.564V64.8h.242Zm5.158-.322.08.161.161-.08-.242-.081Zm-14.427-.806-.08.242h.242Zm9.954-.483-.161-.242-.2.04-.04.121-.04-.242h-.161v-.161h-.121l-.322.242-.081-.161H36.3v-.161l-.6-.161-.322.08-.081-.161.121-.04-.524-.121-.322.08H34.41l-.322.081v-.161l-.322.161-.08-.161.08.08.2-.2-.04-.121-.2.081v-.282l-.242-.322h.161l.04-.121.08.242.121-.2-.04-.121.4.242.242-.08.564.161h.161l.242-.081.887.161H38.6l.242-.08.322.08.161-.161.2.2-.04.2-.322-.161.04.121v.121h.242v.121l.121-.04.121.04-.121.121h-.282l-.08.282.121.2-.121-.04v.121h-.121l-.242.242-.121-.04-.121.2-.887-.241-.443.121.04.121Zm1.492-.645h0l-.161.161.161.081h.08l-.08-.242Zm-4.755-.967v.242h.08V61.5h.161ZM24.5,59.4h0l-.363-.2-.08-.161.161-.322-.564-.4-.08-.242.08-.08-.121-.121h-.363v-.4h-.121l-.242-.161-.161.242-.161-.242-.121-.04.161-.04v-.242H22.4l-.282-.363L21.8,55.492l.08-.242-.484-.322.081-.161-.161-.242.363.282.282.081.08-.2-.242-.4.04-.121-.161.08-.121-.2.081-.08-.161-.161v-.121h-.161l.161.685h-.242l-.161-.443.161-.04-.483-.484v-.161l.242.161v.121h.121l-.04-.121-.161-.4.08-.2-.4-.2.121.04h.363V52.47l-.282.08-.04-.121.161-.242-.322-.4V51.5l-.161.04.04.121-.242-.08.081.161.121.04-.081.08.2.2.2.121-.121.121-.2-.2-.121-.2-.2-.121V51.5h.322v-.161h-.161v-.282l-.2.121-.121-.121v-.242l-.161-.161v-.322l-.161-.161.161-.04.04.161.2-.04-.2-.282-.121.04-.242-.4.081-.161-.242-.322.081-.2.282.08.161-.08.121.242h.242v.121l-.121-.04-.161-.081-.2.081.121.322.121-.04.121.282.161-.322.121.4.161.04-.161.04v.322h.161l.04-.242.04.2-.161.161.04.2h.121v.121l.04.121-.121-.04v.121h.2l.363.121-.161.161.08.081v.4l.242.363.242.04-.081.161.242.161-.161.322h.08l.04-.121.04.242-.161.04.2.363H21.8V53.4l-.081.242h.161l.121.282.161-.08-.04.121.161.524-.161.04.282.04.282-.081.04.242.363-.081-.121.242-.2-.121v.242l.161.242-.08.081.121.121.121-.04-.08.443.242.121.04.121.161-.081.282.121-.081.081.121.121.363.2-.04.121-.242-.081-.121.2.242.121v.2l.484.484.08.242-.08.08.2.2h.121v.121l.161.4-.081.161.04.121h-.2v-.161h-.161l.081.2-.04.121.242.161v.08l-.322.08Zm-.685-1.209.161.242v-.242Zm-.161-.726h0l-.242.161.08.161.725.322.081.081-.242-.484-.161.08-.242-.08.081-.161-.081-.081Zm-.564-.645.322.645.322-.08-.081-.08v-.242l.161.08-.08-.242-.081.161h-.08l-.161.081.08-.161-.564-.322v.161Zm-.967-1.209.161.484-.161.08.242.322.161-.081-.081-.242.161-.08-.08-.081-.161-.242-.242-.161Zm.564.564-.081.161.161.08Zm-.806-1.128v.161h.242Zm-.806-2.1v.161h.161v-.161Zm0-1.048h0l-.161.242h.242v.161h.161v-.161h-.161l-.08-.242ZM20.265,50.7v.242h.08V50.7Zm-.161,0-.08.242h.08ZM48.152,59.24h0l.08-.443.282-.363h.121v-.2l.483-.564v-.2l.4-.2.161-.242v-.242l.322-.322.161-.524.161-.04-.08-.161.443-.927.2-.121.081-.161-.04-.121h.121v-.2l.2-.2.524-.121-.4-.121.121-.322.121.242h.242v.2l.08.161-.4.322v.2h-.2l.121.2-.081.08.081.242-.121-.04h-.161l-.2.2.161.081-.484.161.121.121.081-.081.282.121-.725.282-.04.161-.08-.081-.121.121.2.282.2.04-.161.363.161.04-.484.2v.161h-.121l-.322.161-.121-.04v.161l.322.322-.2.121-.2-.08-.2.322-.121.04.161.04-.2.322-.484.08-.121.121v.363h-.121l-.2.08Zm-19.868-.806h0l-.161-.161-.08.081h-.121v-.161l.161-.04-.242-.04v.242H27.72l-.081-.242-.121.04.04.121-.161.081.04-.121-.04-.121-.161.242-.282-.2.322-.081-.121-.2-.121.04.08-.161-.121-.2-.081.161-.08-.161-.161.242-.161-.08-.2.121.081-.08-.161-.161.161-.161-.161-.161.161-.4-.242-.484.121-.363.08.242h.2V56.1h.161v-.121l.08-.363.161.04-.08.08.121.121.121-.2-.08-.081.121-.121.121-.04-.081-.08.121-.121.161.242.322-.4.121.04.04-.282.04.161.2-.08.04.121-.08.2.443.08.282-.161.2-.4.04.121-.242.484.242-.081v.121h.2l.121-.04-.242.161v.161l.08.4-.121-.04-.121.04.08.2.363-.081h.161l.161-.08.04.161.363.08.161-.08.121.121-.04.363-.161-.08v.161l-.242-.161-.242.161v-.161l-.322.242-.121-.04-.121.282h-.121v.161H28.97v.121l-.242.121-.08.2.04.121-.121.04.04.121-.282.04v.161l.08.161-.121.04Zm-1.975-1.29h0l.161.242h.242Zm.4-.242h0l-.161.161.4.081v-.081l-.242-.161Zm.564-.242h0l-.161.161v.08h.161v-.242Zm-.4-.645h0l-.161.161h.161v-.161Zm1.048-.242-.081.242h.081v-.242Zm17.53,2.176h-.363V57.83h.161l.121-.2h.2v-.161l-.2.081-.04-.161-.322.121-.04.282-.121-.121.081-.08-.04-.282-.2.08-.04-.242-.121.04v-.2h.121V56.9l-.322-.08h-.363v.121l-.2.04h-.322l-.121-.121-.121-.2h-.121V56.5l.524-.161.242.08.242-.08.4.161.121-.04.04.121h.161l.242.081.08-.242.081.161.121-.04-.04.121.161.08.121-.04.04.121.161-.081.282.121-.161.08.282.121V56.9H46.3v.2l.081.282h-.161v-.121l.04-.121h-.121v.121l-.121-.04-.121.04.242.161-.081.2H45.9v.161h-.2l-.121-.04-.121.2Zm.443-.564-.081.161h.161Zm-.887-.161v.161l.161-.08Zm-3.788-3.345h0l-.242-.444h-.242l-.161-.322h-.2l-.161.322-.161-.08-.2.08v-.161h-.121l-.282-.161v-.161h-.121l-.08-.242-.322.161-.04-.242-.443-.081-.161.081-.2-.081v.443l-.121.121-.242-.081-.121.322.242-.04-.161-.08.2-.04.121.282-.121-.04-.4.081-.161-.322-.04.161-.242-.121.04-.2.242.081-.04-.121-.121-.363-.04.161h-.161v-.2l-.242.161v.2h.121v.08h-.363V53.4l.04.2.161-.242.121.04-.161.161v.2l-.322-.2v-.121h-.2l-.2.121-.081-.685h-.242v.121l-.242.121-.121-.242-.121.04v-.2h-.121l-.443.282-.121.2h-.121v.121l-.121-.04-.4.4L33.6,53.6l-.04.161-.282-.161-.121.04-.04-.282-.04.161-.322.08-.04-.161-.2.081v.161h.161V53.8l-.282-.2-.161.081-.484-.161-.242.322-.121-.121.081-.081v-.121h-.121l-.282.161v-.161h-.121l.04-.121.2-.282.282-.081v-.242h.121l.161-.161.081.08h.121v-.121l.161-.282.4-.08.161-.282-.242-.161.161-.04V51.5h.121l.6-.322v.242h.322l.121-.242.121.04-.081-.242.242-.08-.161-.081.121-.04.161.081.161-.161.242.08.161-.08.242.4.2-.121-.081.08.121.121.161-.081.4.322.161-.08.242.08.4-.08.726.161.4-.08h.564l.484-.161.282.04v-.2h.524l.121.04-.161.08.887.484v.121h.121l.2.081-.081.2.2.282.121-.04-.04.121h.121v.2l.282.2.242-.08.2.121-.161.08.242.121.081.282-.161.04V53.2h-.121l-.645-.4-.04.121.2.2h.2l.322.725h-.161v-.121h-.08v.121h-.121l-.121.04ZM35.74,52.47l-.08.242h.161Zm-2.821-.725h0l-.161.161v.08h.161L33,51.825l-.081-.08ZM33.4,51.5v.242l.161-.081V51.5Zm-.322.081-.08.161h.161Zm1.37-.725.08.08.081.081v-.161Zm12.171-10.72h0v-.161h-.282l-.161.08-.363-.282-.04-.121h-.282v.121l.161.242-.161-.081v-.121h-.161v-.4h-.2v-.081l.161-.08.121.04v-.2h-.121l-.08.08h-.6l-.121-.242-.161.08-.363-.161-.121-.242-.443-.08-.04-.161-.121.04.08-.2-.322.04.161.081-.2.04-.121-.04-.081.161.081.161h-.081v-.121h-.161v-.2l-.161-.363-.161-.04v-.443h.161v-.2l-.121-.2.2-.04-.04-.121h.2v-.121H42.51l.121-.2-.161-.081-.08.242-.161.081-.04-.242-.443-.161h-.484l-.121-.04.322-.161-.242-.081.081-.161v-.322l-.081-.6.161-.04-.161-.242.242-.081-.161-.242v-.161l-.161-.242-.121.04H40.9v-.121l.242-.161-.161-.08.121-.04h.282v-.242l-.2.08-.322-.161-.081.081-.282-.121.242-.685.443-.08.121.04v-.2h.161v-.2l.363-.2.484-.322.161.242.322-.161.04.242h.242v.121l.121-.04.121-.04-.08-.2.161-.04-.161-.04v-.161h-.121l.08-.161.081.161.322-.242h.2l-.161.443.121.2.2-.121-.04-.121h.121v.121h.081l.121-.363.2.282-.04.121h.121V31.8l.121-.121h.4l.08-.08-.282.363v.121h-.121l-.161.242.242-.161.081.081.121-.121v-.2h.2l.4-.242.161.081.161-.242.08.322.6-.363.161-.242-.08-.08.121-.121h.242l.161-.161.04.121-.322.121-.242.484.524-.242.04.121-.04.121.4-.242.2.04.04.121.242-.322.081.242.322-.4h.363v.161H49l.161-.242.081.242.161-.4h.282v.161h.161v-.161h.2l.081-.08.04.161.645.161v.161h.121l.4.08.242-.242.121.121-.04.282-.242-.08-.443.08v.161h-.2l-.121-.04v.121h-.282l-.2.121.322.121-.04.161L50.369,32l-.121.121.484.121-.121.242-.4-.161V32.4l.2.121-.2.04-.121.04.4.081-.564.322v.2h.363l.282.081v.161h-.121l-.08-.081-.121.121.08.282h.524l.282.282-.04.121.161.08.081-.08.242.242.242.081.2-.081v.161h.2l.2.08-.04.161-.121-.04.2.282.322.08.443.443.08.242-.363.524-.242.161-.322-.161h-.363l-.04-.161-.04.242h-.322v.161H51.5l-.685.56v-.157h.161v-.121l.242-.322.121-1.007.04.066v-.067h-.161V35.3h-.2l-.242-.242H50.61l-.08.08-.161-.161-.242.081-.242-.081-.2.2-.322.967L49,36.592l-.725.322h-.806l-.483-.161-.6-.6-.322-.927v.121l-.121-.04h-.4l-.806.645h-.242l-.524.282v.121h.363l.121.121-.081.081-.04.121-.6-.2.121-.2-.363.2.121.2.282.04-.121.2H43.6l-.443-.121.04-.121h-.121v.121l-.081.242.444.282h.4l.242.161.081-.081h.483l.242.081.161-.161.161.161.363-.04-.242-.121v-.161h-.2v-.081h.322l1.088.524-.121.121-.081-.081-.887-.08-.161.08-.161-.08H43.84l-.081-.08-.04.161.6.081.242-.081.2.04.04.2.081-.161.967.484H46.3v.161h.2V38.2l.443.08.121.322.2-.04-.161-.04.04-.161h.161l.121.04-.161.081.282.04.2-.081v.242h.2l.121.242H47.91v.161l.2.08.081-.08.121.121-.242.161.282.2.08-.081.2.2-.121.04-.242-.161-.484-.081-.4-.322-.2.04.081.242-.121-.04h-.121v.242l.2-.08.121.2-.4.04-.04-.161-.08.242-.2-.121.081-.08-.121-.121-.242-.081-.282.081v-.161h-.121l-.04.2.2.282h.483l.2.2-.161.04Zm.08-.806v.161h.242v-.161l.161-.08-.161-.161v.241l-.4-.161v.161Zm-1.934-.484.242.242h.161v-.161l-.4-.081Zm2.579-.242h0l-.161.161.322.08.081.081.08-.081-.322-.242Zm-1.854.081.08.161h.161Zm-1.37,0v.161h.161v-.161Zm.806-.322h0l.322.322h.161l-.483-.322Zm-.4-.4-.08.161h.242l-.161-.161Zm-2.579-1.773h0v.242l.242-.081Zm2.58-.338-.363.194.242-.1Zm8.1.1L52.511,36l.035.023.121-.06Zm-8.02-.806h0l-.363.484-.3.134.335-.134.322-.322v-.161Zm-.967.282-.2.282.209-.278-.007,0Zm.4.121h0l-.07.106.151-.106h-.081Zm3.708-.322h0l-.161.161h.161v-.161Zm2.942-.484h0l.161.08h.161l.108.014-.188-.094h-.241Zm-6.972-.121-.121.2.132-.2-.011,0Zm.242-.242-.121.282.121-.121.03-.151-.03-.01Zm5.6-.121-.015.059.256.183Zm-7.536-.242-.161.242.081.161h.081Zm-.484.08.081.081.08-.081-.242-.161h0l-.081.161Zm3.1,0h0l.242.081.048-.016-.129-.064h-.161Zm.04-.322.081.242v-.161h.161Zm3.834-.1h0l-.133.089.006.009.161-.08Zm-3.451-.063h0l-.06.121.05.012.031-.093Zm3.728-.887h0l-.161.161H48.8v-.161Zm-3.345-.483-.282.282-.028.1Zm-.766.161-.161.161h.161Zm1.572-.081h0l-.1.1.225-.1h-.121Zm3.425-.04-.138.035.017.006.121-.04ZM46.532,32.1l-.153.1v.121Zm1.862.143h0ZM48.112,32l-.446.223.043.019.6-.242Zm.282.242h0l.072-.325-.072.043Zm-2.539-.161-.088.066.33-.066Zm3.023-.322h0l.08.08.081.081v-.161h-.161ZM48.8,31.6l-.034.017.034.1-.151.091.151-.05V31.6Zm1.451-.242h0l-.161.08-.242.322h.322v-.081l.161-.161Zm-1.612.08h0l-.161.081-.081.161.4-.161-.161-.081Zm-.645.081-.081.161.161-.08Zm1.693-.4v.242h.08v-.242ZM26.43,39.978h0l-.08-.242h-.161l-.322.081-.2-.04.363-.2.524-.081v-.242h-.121l-.161.161-.081-.081-.242.161-.04-.121.04-.121-.443-.04.121-.121.08.081h.121V39.05l.08-.161-.121.04-.4-.081.08.242h-.282v-.363H25.02l-.04-.121-.08.161-.161-.242h.282v-.2l.161.08.04.121.04-.161.443-.161.161.08.322-.08h.4l.161.161.564-.242.2.081v-.161h.363l.242-.081.4-.08.282.08V37.8h.363V37.64l.282.081-.2-.322-.161.081-.161-.081-.564.161-.242-.161-.08.161-.322-.08H27.4l-.161.08.081-.161h.4l.161-.161.887-.322.564-.08.282-.282V36.27h-.161v-.242H29.7v-.2h-.161v-.2h-.242v-.282l-.685-.524-.08.161-.031-.155-.05.074-.161-.4-.08.242-.04-.161-.161.04v.161l-.08.806-.6.846-.4.242-1.209.08-.483-.242-.363-.363-.322-.564v-.4l-.221-.262-.061-.02-.322-.081-.242.161h-.322v-.032l-.08.032h-.061l.02.081h-.2l-.2.2-.08.322.4.967.4.4-.2.04-1.048-.806h-.4l-.081-.08-.121.2.242.081-.282.04-.161.161-.161-.242-.08.161-.081-.161-.161.242-.04-.161h-.161v.161h-.2l-.2-.081V36.35h-.161v-.282H20.1l.483-.846.2-.081.081.081.242-.242.524-.242.081-.2v-.161l.121-.765.242.08.121-.04-.081-.161.121.04.161-.161.363-.08v-.161h-.2l-.121.04.2-.282.121-.04-.2-.121-.121.04v-.2h.2l.322.242.2-.2-.121-.121h-.363v-.121l.2-.04.282-.04-.4-.04v-.322h.282l.121-.04-.322-.242.121.04.161.081.161-.242.161.161.121-.121-.564-.242.04-.2.161.081v-.161h.121v.121l-.04.121h.242l.242.161.04-.2H23.65l.08-.242-.121-.2h.121v-.161l-.685.242-.121-.242.282.08.08-.242.322.08.161-.08.121.121-.08.08v.121h.121l.121-.04v.121h.2l.524-.121-.322-.242.282-.2H25.1v.161h-.161v.121l.121.2.161-.161h.322l.322.161.322-.242.121.242h.161v-.161h.121l.322.08h.161l.282.04-.04.121h.121v-.2l.4.161-.04.121h.161l.322.322.08-.242.081.08h.4l.524.242v.161h.121l.161-.081.121.242.322-.121-.04-.121.121-.04-.242-.04-.161-.282.2-.04.282.08.2.4.242-.161.2.121v.282h.161v.161h.161v-.161h.161l.121.322.161-.161.121.04v-.121H31.67v-.08l.2-.121.04-.121.242.242.121-.121.121-.2.04.363-.08.2.2-.08.121.282-.08.242.121.121.2-.2.04-.121.121.04v-.121H33.2l.161-.242.04.2-.161.4.08.08-.161.161.081.322h-.081v-.121H33.04l-.2.08.121.242h.4l.04.161h.121l.242.161.081-.161.282.363-.121-.04h-.161l-.282.282.161.08-.4.242.4.04v-.161h.121l.282.2-.242.04.04.242.08-.161.2.484.242.121-.242.161v-.121h-.161v.322h-.121l-.121-.04.08.161-.121.04-.08-.08-.121.121.161.322-.242.484v.4l-.2.282-.121.04.242.08-.161.04v.242H33.08l-.484-.161.08.161h.4v.121l.08.2-.282-.08-.161.161L32.6,38l-.121.2-.081-.161-.04.322h-.161v.161h-.161v.161h-.121l-.322.242-.081-.081-.161.161-.363.161.161-.564-.282.08-.081-.08-.121.121v.121h-.2l-.2.121.04-.121-.4.161-.04-.161-1.088.564h-.443v.121l.04.121-.161.08-.04-.121.08-.161-.2.121-.08-.081-.161.161-.2.04.04.121-.524-.242v.161h-.161l-.322-.08.08.161.242-.081v.121l-.121.121h-.282l-.04-.161-.08.161Zm1.088-.565h0l.081.161v-.161h-.081Zm1.37-.322h0l-.161.242.161-.08v-.161Zm-1.934,0h0l-.161.161h.322v-.161h-.161Zm2.1-.081v.161l.242-.08Zm1.773-.564h0v.161l.161-.08Zm0-.645h0l-.161.161.081.081.161-.081Zm-1.37.081h0l-.08.161.161-.081ZM33,37.72l-.081.161h.161Zm-2.539-.081-.3.15.058.012Zm1.384-.094h0l-.014.014-.443.074v.007l.484-.08Zm-1.384-.067-.178.113.338-.113Zm2.619-.161h0l.08.161v-.161h-.08ZM28.647,37.2h0l.363.121h.161l.4.057-.484-.138h-.161l-.282-.04Zm2.418.121v-.2l-.032.011.032.191Zm-.362-.081-.017.048.1.032h.282Zm1.128-.081h0l.121.121-.081-.121h-.04Zm-1.611,0-.1.1.182-.068-.085-.028Zm2.7-.161h0l-.081.161H33l-.08-.161Zm.484-.322-.161.242.08.161.081-.161Zm-3.843.183-.469.058h.322Zm.377-.667.08.161.161-.08Zm-7.335-.08h0v.16l.161-.081-.242-.161.161-.08.081-.161-.081-.242-.08.08H22.36v.161l-.242.161.242.08.161.161.08-.08Zm8.7-.2h0l.15.3.011-.058-.161-.241Zm.322-.04-.08.242.08.08.161-.08v-.242Zm-.887-.08h0l-.08.161H30.9l-.161-.161Zm-8.261-.269-.322.108-.242.242Zm7.006-.089h0l.087.115.4.322Zm1.87.019-.01.016.282.121-.273-.136ZM20.829,35.5h0l.181-.06-.06-.06-.12.12Zm2.093-.365-.158.123-.077.128.077-.048Zm-1.527.011-.324.153h.121Zm4.915-.089h0l-.161.161h.242v-.161h-.08ZM22.481,34.9l-.726.08-.132.062Zm.483-.161-.1.034.023.046h.161l.04-.02Zm1.052-.051-.192.077.228-.067-.036-.01Zm4.59-.03h0l-.06.09.181-.091h-.121Zm3.023-.08h0l.08.161v-.161h-.081Zm-8.02,0h0l-.161.121.213-.107Zm1.854-.322-.4.242.6-.242Zm5.319,0-.173.1.011.057.182-.109Zm-5.924-.242h0l-.161.161.161.08h.081l-.081-.242Zm1.236.045h0l-.349.029v.007h.4Zm-.551-.045h0l-.2.067.121.013.1-.034Zm8.1-.322-.08.161.161-.081ZM25.1,33.529l-.01.02.212.141.02-.014-.221-.148Zm4.634-.161h0l-.161.161.179-.107-.018-.054Zm3.023-.08h0l-.161.161h.161v-.161Zm-7.173,0,.081.161v-.161Zm-2.66-.081.081.242h.08v-.161Zm.4-.08v.161h.161v-.161Zm7.085-.355h0l-.072.072v.4l0,.012.076-.455-.008-.032Zm-.529.005h0l-.027.027.145.242h.016l-.134-.269Zm-6.153-.054.081.161.161-.08-.08-.161h-.725l.16.242Zm5.642-.081h0l-.161.161.08.08.242-.08v-.161Zm.967-.161h0l-.049.049.111.2-.062-.249Zm2.257,0-.08.161h.161Zm-6.649.128h0l-.2.034h.2v-.034Zm3.523-.58h0l.064.291.322.2-.08.081.027.027.054-.107-.2-.2h-.121v-.2Zm-5.9.211.08.161V32.24Zm5.481,0v.08h.242ZM29.937,32l-.08.161.161.081Zm-5.4-.322-.08.161H24.7Zm.161-.161v.121l.08.2Zm4.272-.081-.08.161.161.08Zm-2.781-.161h0l.564.4-.363-.282.08-.161-.121.04h-.161Zm2.337.161h0l-.161.081.282-.081h-.121Zm-1.975-.08.081.161v-.161Zm-2.119-.024h0l.144.185H24.7Zm.756-.031h0l.033.055.2.121-.234-.176Zm3.378-.106.081.161v-.161Zm-1.133-.055-.237.135.242-.121,0-.015Zm-2.174-.131h0l-.037.186.4.08-.08-.161-.282-.08Zm.285-.137h0l-.04.02.121.06.121-.06-.04-.02h-.161Zm25.067,6.447h0l.08-.16h.116l-.2.16ZM17,35.946h0l-.121-1.167.08-.242-.161-.4h.161v-.282h.121l.081-.081.04.282-.081.161.081.242h-.081l-.04-.2-.04.443H17.2v.2h-.161v.121l.121.2.08-.242.04.2L17,35.946Zm-.041-2.981h0l-.161-.04.081-.322-.161-.564v-.161l-.081-.4.081-.282.242.121.081.645-.081.08Zm.081-2.337h0l-.4-.081v-1.33l-.161-.4.161-.242-.08-.524.161-.04-.2-.443-.161.322-.121-.2.282-.2.061.04-.1-.08v-.121h-.161v-.2l-.161-.322.04-.282-.242-.161-.121.04.08-.443-.242-.121-.081-.161.161-.04-.121-.322H15.51v-.161h.161v-.2l-.242-.081.121-.2-.282-.2.242-.161-.161-.484.161-.322-.081-.08.2-.282H15.51v-.121h-.161l.08-.4-.08-.08.161-.161-.161-.322.161-.322-.081-.242-.161-.322.121.04.2-.2v-.121h-.121l.04-.121.08-.484-.161-.4.322-.161-.4-.2v-.282l.121-.121h.121v-.121l-.121.04-.2-.2.322-1.209V17.45l.161-.564-.161-.242.081-.161v-.161l-.081-.161.484-.726-.08-.161.242-.121-.08-.363.4-.725v-.685h.121l.4-.484H17.2v.121l.2.121.121-.242h-.242v-.2l-.242-.081v-.282h.282l.2-.121-.08-.2-.322-.04.2-.443.2.08v-.161h.121v-.08l-.2-.04.161-.04.08-.483.282-.081.04.161h.161v-.242l-.242-.04.08-.282.322-.2-.161-.161.121-.121h.2l.242.4-.322.242h.322l.161-.242h.08v-.08l-.483-.322V9.712l.161-.161V9.309l-.04-.121.524-.242V8.785h-.121l.2-.282V8.382h.121l.524-.6-.081-.161L19.9,7.5l.121.121v.121h.121l.242-.322.282-.2-.161-.04V7.012h.161V6.851h.121l.282-.121-.081-.161.121.04.161.08.121-.2-.121-.2.524-.081-.04-.161-.121.04V5.964h.121l.363-.08.08.2-.484.282v.242h.121l.121-.242.4-.282.242-.322-.08-.242.282-.2.282.081.121-.322L23.731,5V4.675h.121l.242.161.242-.081L24.456,5l.363.081L25.02,5l-.161.363.2-.121h.2V5.118l-.2-.363-.242.081-.483-.4-.242.081V4.433l.685-.2L24.7,4.151l.121-.121h.121V3.909l-.081-.2.4-.161.04.161.242-.161.121.121-.081.081v.121h-.2v.081l.322.242.282-.2-.322-.08.363-.04.121.04v-.2h-.4v-.2l.282-.443.238-.1.165-.22h.161l.564-.4.121.04V2.257h.282l.322-.242.322.161.322-.322h.161l.2.08V1.773h.121l.242-.08.242.161.242-.322L31.267.806l-.04.121.04.2.242-.242h.242l.242-.161.2.121.121-.282.161.081.161-.081.08.081L32.959.4l.161.081.121-.242.443.081L34.37.08V.242h.363l.725-.08.161.08L35.861.08l.161.081L36.183.08,36.3.2V.443l-.121.282-.121.04.4.04-.08-.282.08-.282.484-.08L37.07.4l.04-.161h.443L38.2,0l.04.121-.121.121-.363.04L37.876.4h.242l.6-.322V.242h.2l.282-.08.04.161.242-.161.282.08V.484h.2l.242-.161.524.2-.081.2L40.9.6V.484h.4V.725H41.18V.806l.161.08.242-.242.08.08.161.081.282-.161.121.242.322.161.161-.08.4.322.2-.08.121.322.4-.242.242.242.322.08.242-.08h.161l.121.04-.081.081.121.121.242-.08.322.322h.282v.161h-.2v.081h.322l.645.484h.282l.04.242.161-.08.6.443-.121.2h.322l.363.282.081.282h.242v.121l.645.483-.081.2h.322v.161h.2L49.724,5l.2.2V5.36l.2.2h.2v.2l.2.121.161-.081.242.4.2.121v.282h.121l.121.242.242.04-.242.08,1.129.806.322.645.363.363.2.121.242.524.072.045.09.036v.02l.161.1v.121h.121l.242.645h.2v.363l.4.484-.08.08.161.161v.322l.484.806v.2h-.04l-.121.2.161.161-.121.2h-.121v.161h.282l.121.121-.04.121-.081-.161-.2.121.322.161-.161.242.2.04.161-.081-.04.121v.121h.121l.121-.04v.242l.121.121.2.121-.4.121v.322h.161l.04-.242.2.2.242.645-.161.04.081.282-.081.2.242.04-.242.08.242.161.081.242-.322.4.161.08-.161.242.161.04.04-.161.2.443-.08.282h.161v.121l-.161.242.08.2.161.04-.161.04.081.282V19.3l-.081.242.242.08-.081.242.081.2-.2-.08-.04.161-.161.04.443.04.121.121v.242l-.4.564.242.081-.242.161.242.161-.161.322-.161.4.161.04.04-.161.121.121-.04.04-.04.04-.322.6.362-.644.041.2-.242.242.121.121h.2v.161l-.161.04.242.161-.242.121.081.2-.242.322.161.161-.08.08-.081.322.081.242.08.242-.161.04-.08.4.161.04-.161.04-.081.282.081.161-.121-.04h-.121v.121l.08.4-.242.363.161.04-.242.725.161.282-.282-.08-.2.121.161.04v.161h-.322l-.081-.2v-.4l.081-.081V26.074l-.2-1.088-.121.04V24.3l.08-.08-.161-.081.081-.2h-.161v-.282l-.081-.161v-.524h.2l-.04-.121-.08-.4.08-.161-.161-.242.161-.242V21.56l-.242-.483.161-.242-.242-.4.161-.4-.161-.322v-.161L55,19.384l.08-.161-.161-.242V18.82l-.08-.645-.161-.161-.161-.645.081-.322-.242-.322.081-.081-.161-.161-.242-.4-.242-1.128-.161-.161.161-.242-1.249-2.3h-.121V12.13l-.242-.4-.081-.4-.685-.846-.2-.121-.2-.282-.2-.121-.121-.2-.282-.121.04-.121-.564-.08-.363-.242.04-.161.242.161.2-.121-.121-.121H49.6V8.7h-.161l.081.2-.443.121-.282-.2.242-.081-.081-.2-.363.08V8.463l-.322-.08-.322.161V8.463l.282-.121-.282-.2-.685.161V7.979h-.121l-.322.4-.161-.322-.2.08-.2.322-.2-.04.161-.282-.322.2-.121.2-.242-.161-.161.08-.242-.08h-.242l-.121-.121.161-.322-.2.121-.4.242-.04-.161.161-.04-.322-.121V8.3h-.363l-.08-.08-.161.161-.242-.161L43.2,8.3l-.161-.161h-.363v.242h-.242l-.04-.161-.121.04-.121-.282h-.2v.4h-.121l-.161-.322-.121.04V7.979h-.161l-.121.242-.242-.242-.4-.08-.161.161h-.2l-.04.161-.242-.4-.282.08V8.06h.121l.161.242-.443-.2.026-.079L39.367,7.5l-.725-.363.242-.161-.4-.121-.161.4h.161v.161h-.161v.121l.161.161v.242H38.4l-.121-.2-.08.081-.2-.2-.121-.2-.161.081-.04-.121.04-.121-.161.081-.2-.081L37.07,6.77h-.2v.242h-.121l-.242-.081-.121.2.08.2h.161v.242h.161v.161h-.242V7.617l-.161-.081.08.161-.121-.04-.161.161h-.121V7.536l.242-.121V7.254h-.121l.04-.121V7.012H36.1l-.081.242-.282.2.242.161-.011.033.011.007-.071.211.151.151-.02.02.02.02-.08.08-.035-.006-.006.006-.484-.08-.04-.04-.08-.04.027-.013-.027-.027.322-.121v.161h.161L35.74,7.5l-.322-.04.121-.2.161.081.121-.2-.121.04h-.242L35.3,7.012l-.04.282-.161.161.161.242-.2.2h-.322l-.242-.08-.161-.081-.121.04.081-.484-.081-.161.081-.08-.121-.121-.081.08-.161-.161-.161-.08-.04.121.242.242-.08.081v.121h-.161l-.081-.322-.524.322V7.254l.121-.04-.2-.121-.443.121.242.121L32.8,7.5l-.081-.081-.2.121V7.173h-.161l.08.363-.161-.08V7.133l-.2-.2L31.75,7.5l-.121-.2.08-.08-.2-.2-.322.08-.081-.161-.242.4-.161.08-.161-.08-.08.161h.121v.121l.04.121h-.161L29.977,7.5l-.2.08-.04-.242-.2.121.08.161-.4.322-.121-.282-.322-.242h-.2l-.121-.322-.242.161L28,6.891l.081-.2-.4.161.161-.282-.161-.081.081-.2.322-.2-.04-.121-.282.121-.121.2-.443-.04.161-.08-.2-.04h-.363v.242h.242v.524l.322.161v.2l.4-.242.021.014.019-.014.2.121-.024.024L28,7.173l-.161.161-.02-.02-.141.141.08.081-.027.08.027.04h-.4l.058-.029-.058-.012.145-.072-.051-.1-.134-.188-.242.322-.483-.161-.322.161h-.484l-.161-.161h-.161l-.685.282.242.081-.282.121-.121-.04v.121H24.5l-.2.121.161.242-.121.043v.078l-.443.282v.121h-.121l-.2.121.161-.161L23.69,8.7l.121-.04-.2-.121-.161.322h-.121v.161h-.2l-.121.242-.484.282.04.121h-.2v.242H22.24l-1.33,1.572.161.242-.4.242-.08.161.121.2-.2.121v.282h-.121l-.121.242h.161v.161l-.564.282.08.161-.2.282H19.62v.121l.081.081-.2.2-.121.04.04.121-.081-.08-.121.121-.08.242.322.161-.483.282-.2,1.129-.04-.242-.484.363v.161l-.322.4v.322l-.161.322.242.484-.2.282-.2.04.161.081-.161.242.08.161-.08.4-.161.161.08.242-.161.322.081.08v.524l.161.04L17.363,21v.846h.121v.081h-.121v.484H17.2v.363l.161.4-.08.2-.161.04v.564l-.242.4.08.081v.564l-.08.161.08.161-.08.161.08.4-.08.322.08.322-.08.161.08.08v.887l-.018.054.018.027-.034.02-.007.02.121.04-.081.161.081.08v.564l-.081.161.081.081v1.733ZM16.96,29.9l-.08.242h.08Zm-.08-.483h0l-.161.242h.161v-.242Zm0-1.29-.081.161h.161Zm39.171-1.37h0l.161.242h.08v-.161l-.242-.081Zm-39.413,0h0l.081.161v-.161h-.081Zm39.834-.81-.018.045.08.322-.149.064.028.057.121-.121v-.242l-.063-.125h0Zm-.555.045-.027.08.054.161.027-.08Zm-39.168-.362h0l-.03.12.054.161.027-.08Zm39.977-.355h0l-.03.073.08.08-.161.161-.08.2.242-.363-.051-.153Zm-40.571.194-.081.161h.242Zm-.322-.322v.161l.161.081v-.161h.161l-.081-.161-.08.08Zm.725-.161h0l-.161.161h.161v-.161Zm-.484-.564h0l.161.322-.161.08.242.081.081.08-.081-.322H16.4v.08h.161v-.4l-.322-.4h-.242v-.08l.242-.161.08.08v-.161h-.161v-.161h-.161l-.081.4h-.08V23.7h-.161v.242h.161v.322l-.161.242h.242l.081.161.08-.241Zm40.7.161h0l.058.259.023-.058-.08-.2ZM55.728,24.3h0l.081.362v-.2l-.081-.161Zm.933-.426-.046.023.054.161.027-.081Zm-.449-.017.08.161v-.161Zm-39.735-.484h0l-.242.161H16.4l.08.081.161-.161-.161-.081Zm40.058-.08h0l-.161.161h.161v-.161Zm-.4-.4v.242h.161v-.081Zm-39.01-.04-.216.144.014.057Zm-.524.04v.035l.282-.035Zm-.524-.242h0l.08.161.081-.08-.161-.081Zm39.687-.3-.193.258.06.008.1-.169Zm-39.2-.1-.081.161.161-.081Zm39.105-.26-.015.059.143.215.018-.054Zm.066-.626h0v.362l-.04.161.121-.242Zm.483.242-.08.242h.08Zm.242-.081-.161.242.161-.081Zm-39.413-.242-.108.288.108-.086Zm.2-.033-.2.033h.2Zm38.486-.37.08.161v-.161Zm-38.768-.2.121.121.087.029-.006-.029Zm39.332-.121.08.161v-.161Zm-39.574-.08-.081.161h.242Zm39.171-.081-.081.161h.161Zm-39.332,0h0l-.161.161h.161v-.161Zm.564-.242.08.242.081-.161Zm38.2-.322h0v.2l.2.282-.2-.483Zm-39.574.322v.161h.161V20.15Zm40.622-.242-.08.322h.322Zm-39.655.161-.161.161h.161Zm-1.128-.08.08.242.081-.161Zm.725-.322h0l.242.4v-.242l-.242-.161Zm39.332.242-.08.161.161-.08Zm-39.574-.08h0l.08.161v-.161h-.08Zm-.081-.322h0v.242l.242-.081Zm40.38,0v.161l.161-.08Zm-39.01-.161-.121.194.121-.073Zm-1.128-.08h0l-.161.08.08.161.242-.08Zm39.493-.242V19.1h.161l.161.242.08-.242Zm-.564-.322h0v.12l.222.443.02-.04-.242-.524Zm-38.849.4v.161h.161V19.1Zm-.4-.322h0l-.161.161h.161V18.78Zm.806,0V18.9l.121-.04.6-.08H16.92l-.04-.161v.161Zm.081-.645v.242l.242.08V18.3Zm-1.209.081v.161l.161-.081Zm39.977,0h0l.322.08h.161v-.242l-.4-.081-.161.161h-.161V18.3l.241-.08Zm1.048-.242-.08.161H56.7Zm-1.668-.22-.025.1.161.242Zm1.184.059-.08.161.161-.08Zm-39.413-.4v.161l.161-.08Zm-.081-.08-.242.161h.242Zm-.4-.161-.08.322.161-.081Zm39.171,0v.161l.161-.081Zm-.726-.282h0l.242.4-.242-.4Zm-37.127-.038-.029.038.161.161-.08.081-.027.081h.027l.08-.161Zm-.673.158v.161h.242v-.161Zm.322,0v.161l.161-.081Zm38.446-.4-.081.242.081.161h.4l.08-.081-.242-.08-.161-.08.081-.081-.161-.08Zm-1.181-.184h0l.053.183v-.121l-.052-.063Zm-37.022-.46-.081.241-.08.081-.242.242.161.081.161-.161-.08-.16.161.08h.161l-.161-.08.161-.081.08-.161-.161.081ZM55,16.2v.161l.484.161-.081-.08.322-.081-.08-.161-.322.081v-.242l-.161.161Zm-36.784-.375-.05.012.08.08-.161.161v.161l.161-.322Zm36.22-.028h0l-.161.161v.08h.242V16.2h.161v-.242l-.242-.161ZM16.96,15.556h0l-.322.322v.081h.242V16.2l.242-.08v-.242h.484V15.8h-.161v-.161l-.484-.08Zm38.526.322v.161l.242-.08Zm-.564,0v.161h.161v-.161Zm-.242-.161h0l-.08.161h.161l-.081-.161Zm-.242-.484v.242l.645.242.081.08-.081-.242h-.322v-.242Zm-.35.309h0l-.054.054.161.161-.108-.215Zm-36.243-.47h0v.241l-.08.4.322-.081.08-.161-.08-.322v-.4h-.161v.242l-.081-.08-.322.08.081.161.241-.08Zm37.72.322-.08.161v.08h.161Zm-38.2,0h0l.161.242.161-.322-.322-.161L17.2,14.83l-.242.4h.161l.081.242.161-.08Zm37.8-.322h0l-.242.161.242.08.08-.161-.08-.08Zm-.725-.4-.161.322-.161.161.08.081v.08h.161l-.08-.161.725-.08v-.161h-.161v-.08h.08v-.161h.242l.161.161V14.75l-.161-.242h-.242L55,14.347l-.081-.081-.161.081-.161.161.08.08-.161.161Zm-.732-.518h0l.329,1.095v-.215l-.161-.564-.167-.316Zm-35.177.682-.12.118v.121h.121l.106-.035-.025-.045-.2.081Zm.365-.4h0v.2l.08.2-.307.068.025.013.282-.081Zm-1.532-.245.4.645h.081v-.4l.725-.242-.242-.081-.4.242-.08-.081h-.081Zm-.887.322v.242h.161v-.08Zm37.72-.242-.08.161.242.081Zm.725-.08.162.08v-.08l.081-.161L55,14.1h-.4l.081-.242.242.08.161-.08-.242-.242h-.161l-.081-.081h-.081l-.161-.161-.242.081-.161-.161h-.242v.242l.161.161-.08.242.242.081.081.161.08-.242h0l.241.242.322.08Zm-36.43-.4h0l-.322.08.08.161.322-.161Zm-.645,0v.161l-.161.081h.242l.081-.161Zm1.33,0h0l.322.161Zm-1.572,0h0l-.08.161.161-.08Zm-.645-.322v.161l-.081.161.242.161.08-.08-.161-.08.081-.242Zm1.773,0h0l.161.161h.161V13.46H19.3v-.322l.242-.242.161.081.08-.4h.161l-.08-.161-.161-.161.08-.081-.08-.161.161-.08v.08h.161l.08-.4h.161l.08-.08-.08-.161-.161.161v.08l-.4-.08v.161l-.322.242-.242-.161.08-.08-.161-.081v.242l.161.161-.484.242.081.161.242-.081.322.161.242-.08.081.08-.484.4v-.08l-.161-.08-.08.242.161.322.08.08-.564-.161-.081-.322.322-.161-.322-.242.081.242v.08h-.161v-.161l-.322.161v.08h.161l.161.322-.564-.08V13.3h.161l-.081.161.242.08h.4l.08-.08Zm-.806,0-.081.161h.161Zm-.564-.161h0v.241l.081-.08Zm37.156-.323v.161l-.161.161.161.08.242-.08.08-.161-.08-.242-.081.081Zm-1.365-.085h0l.076.487v-.363l-.075-.125Zm.277.407-.2.08.227-.065-.026-.016Zm-33.851,0-.161.08.2-.067ZM53.714,12.09h0l-.322.08.08.242-.08.242v.322l.242.242.484-.08v-.081h-.161v-.483h-.242v-.161h.322l.242-.161-.161-.081v-.242l-.161-.242-.081.161v.161l-.08.242-.08-.161Zm-35.947.967v.161l.161-.08Zm1.128-.161h0l-.161.161h.161V12.9Zm35.222-.08h0l.161.161.161-.081-.322-.08ZM55,12.372l-.034.011.034.271Zm-1.934.121v.161l.161-.08Zm-.45-.414h0l.128.413v-.2l-.127-.212Zm-32.072-.07h0l-.04.281-.029.066.11-.147-.04-.2-.2.067.04.014.161-.08Zm34.134-.2h0l.217.36.026-.038-.242-.322Zm-36.108-.121.161.322.08-.242Zm34.5-.242h0v.322l.4-.161.242.081h.081v-.242l-.161.081-.242-.161-.161-.081.08-.08v-.242h-.242V10.8h.161l.161-.161.08.08-.08-.322-.161.161v.081h-.161V10.8l-.242.08-.08-.161h.081v-.242l-.081.242-.081.242L52.5,10.72l.081-.161.08.161v-.242h-.242l.242-.161-.161-.081-.08-.242-.161-.161.08-.08L52.1,9.672v-.08h.081V9.349l-.322-.08-.081.08-.161-.08V8.947h-.161l.081-.242V8.463l-.242.322v.081h-.161v.242H51.3l-.161.322h.4l.161.08.08.322.161.08V9.753H52.1l.081.322.161.081-.161.242.08.161-.08.242.242.08-.081.161-.08.161H52.5v-.161l.161.08-.161.242h.161v.161l.4-.081Zm-34.738.161h0l-.161.161h.161v-.161Zm-.322,0,.08.161v-.161Zm34.819-.08h0l-.08.161h.242l-.161-.161Zm-32.105-.058-.054.018.161.161-.108-.179Zm-.215-.022-.08.161.161-.08Zm33.368-.322h0l.081.4v-.081l.08-.08-.161-.242Zm-34.819.161h0l-.161.161h.161v-.161Zm1.128,0h0l.242.081.08-.4.242-.242h.242v-.161l.322-.4h.08V9.833h-.161l.161-.08h.161l.564-.322V9.269h.161l.161-.322-.242-.08.08-.108v.108h.161V8.7H22.32l.121-.161V8.221l.242-.081L22.6,7.9h-.161V8.14l-.161.081h-.4l-.242-.161V7.979l-.322-.08.08.484.484.08.242.484-.161.161v.161h-.242l-.242-.161-.322.242V9.43h-.484l.081.161.242-.081-.08.161.08.242h-.242l-.081.081-.161-.161h-.161v.161l-.242.242-.4.081-.564.322v.242H19.3l.322-.4v.242l.322.081-.08-.081.08-.322h.242l.161.161h.161l-.161-.08.161-.081v-.08h-.161v-.161h.161v.161h.161v.161l.161-.081-.242.322H20.1v.242l-.161.081.322.08H20.1l-.161.242.242-.081Zm31.837-.2.2.2Zm-30.749-.2-.322.376.121-.094Zm32.683.161V11.2h.161v-.161Zm-34.416,0V11.2h.242Zm-.806,0V11.2l.161-.081Zm35.572-.036.012.036h.242Zm-.753-.125v.161h.161v-.161Zm-35.3,0,.081.161v-.161Zm3.267-.369-.124.248.161-.161Zm30.5-.2-.242.161h.161l.081.08Zm2.136,0-.258.129.1.032ZM19.378,9.994l-.242.242-.161.161h.161l.081.081-.081-.241.322.08v-.242H19.7Zm33.368.161h0v.161l.242.08v-.08Zm1.007.08h0l-.121.121.169-.073-.048-.048Zm.363-.282-.033.02.033.262Zm-.484-.2h0v.121l.121.282Zm-.564.161h0l-.161.242.242-.161-.08-.081ZM22.28,9.349l-.08.2v.161l-.282.363.282-.282.08-.161Zm28.864.578h0l.031.067.126.075-.045-.075-.112-.067ZM20.1,9.833v.161l.161-.081Zm32.4-.161h0l-.081.161.4.08V9.753h-.161l.161-.081h-.121l-.1.034-.019.047-.08-.081Zm-30.467-.08h0l-.161.161.081.08.161-.08V9.591h-.081Zm-1.693-.081-.08.242h.08Zm32.537.04.025.2v-.2ZM19.7,9.511v.161l.161-.08ZM50.852,9.35h0l-.2.121.22-.073ZM19.781,9.027l.081.161v.08H20.1l.322.161h.08l-.4-.242-.08-.161.161-.081-.242-.161v.242Zm2.7.242h0l-.2.08H22.4l.2-.081h-.121Zm-3.264,0V9.35h.564Zm1.612-.161.081.161V9.108Zm31.514-.081h0l-.161.161h.242V9.027h-.08Zm.685,0h0l-.2.081.207-.078Zm-32.6-.161h0l-.161.161h.322V8.866h-.161Zm30.386-.081v.161h.161V8.785Zm-27.8.075-.173.086h.121ZM20.91,8.7l-.081.161.242.08h.08ZM51.7,8.624v.161l.161-.08Zm-1.934.04.241.121-.04-.08Zm-28.532-.04v.161h.161V8.624Zm2.307-.292-.051.01V8.5l-.088.205.088-.044.081-.242-.03-.091Zm-1.985.212.081.161V8.544Zm-.645,0,.08.161V8.544Zm2.216-.161h0l.08.08.2.121-.121-.121-.161-.08Zm1.189.01-.423.151h.121Zm-1.471-.574h0l-.161.161.242.322-.242.161.242.081.08-.322.242-.161V7.979h-.322V7.818h-.081Zm1.234.533h0l-.186.031h.2l-.015-.031Zm-3.329-.372h0l-.322.322h.322l.08.081V8.14l-.08-.161Zm29.257-.4h0l-.161.161v.242l.322.081h.081V8.3l.242-.08-.08-.161-.161-.242h-.322l.161-.081-.081-.161Zm-29.016.4V8.14l-.08.161h.161l.08-.08-.08-.081V7.979ZM20.1,7.818h0l-.161.161v.242H20.1v-.4ZM51.3,7.9V8.14h.081V7.9Zm-3.063.04h0l.121.12.242.08Zm-5.36-.04-.282.2.333-.151Zm8.02,0V8.06l.242-.081Zm-30.547,0-.08.161.161-.081ZM51.94,7.737h0l-.161.242H52.1V7.818l-.161-.081Zm-3.677-.129-.03.089v.242l.081-.322Zm.534.129-.161.081V7.9h.242l.08-.08Zm-7.012.081h0l.322.08Zm4.03-.443v.4L45.76,7.8l.055.022.037-.443Zm-6.222.282.016.04v.056l.161.065V7.657ZM22.36,7.335h0l.08.08-.161.4H22.6l.081-.242-.161-.242H22.36Zm18.578.242-.2.04-.029.146.029.015V7.657h.121l.1-.032Zm10.828-.167.093.248.248.093-.046-.093h-.2v-.2Zm-3.373.167v.161h.322l.081-.08L48.636,7.5l-.081.08ZM41.261,7.5h0L41,7.682l.019.056.29-.218L41.261,7.5Zm-6.73-.322h0l.161.564h.242l.161-.161-.322-.4h-.242Zm-12.9.4-.081.161h.161Zm19.384-.242-.443.363.021.011.543-.373Zm.967.322h0ZM24.133,7.576h0l.161.081.161-.081-.161-.322-.081.161-.08-.08-.161.322.161-.081Zm-1.209-.242.081.161h.08v.161h.322L23.247,7.5V7.415Zm28.774.04-.08.242.032.032.048-.113.029-.146L51.7,7.375Zm-11.123,0-.145.2.236-.173Zm9.833-.04.08.242h.081V7.415Zm-1.451.08h0l-.08.161h.4V7.5H49.2l-.242-.081Zm-.927,0-.161.161.175-.1Zm-.524-.161v.121l.081.2-.08-.322.2.08.134-.081ZM45.9,7.5h0l.2.08-.081-.08Zm-1.451-.484-.081.161h.242l.161.322.08-.081-.08-.08V7.173h-.161Zm-1.451-.081h.161l-.08.242.322.08.08.242.081-.081V7.093l-.322-.08L43.4,6.69l-.081-.08-.242-.161V6.126l-.161.4v.081h.242V6.77l-.08-.081-.081.161-.242-.08h.161l-.161-.484-.08.161v.161h-.081l-.242-.081-.161.242h-.161l.242-.4.161.081.081-.161h-.242V6.126h.161l-.242-.161-.322.4.081.161h-.564l.081-.161.161.081.161-.242-.242.081.081-.161-.081-.242L41.22,5.8l-.242.4-.242-.08H40.5V5.964l.081-.242H40.9V5.561l-.161.08-.242-.08-.242.4h.161l-.081.242.242.081.08.4.242-.08h.08V6.448l.4.242-.08.161.242.08.161-.08-.242-.08L41.7,6.69l.242.242h.081v.081h.161l.08-.161v.161l.4-.242.161.322.161-.161Zm-.483.242v.161l.242.161h.161V7.335Zm-2.418,0h0l-.161.161V7.5h.161V7.173Zm-11.2,0,.081.322.242-.081h.08v-.08h.242V7.093h-.081l-.161-.08-.161.161Zm15.032.242-.081.037.2-.037ZM27.6,7.254v.161l.161-.08Zm-5.884-.08-.08.242H21.8Zm19.223-.081-.121.121-.086.144.086-.063Zm1.33.081.081.161.08-.081Zm-.4.08h0l.241.081h.081l-.322-.322-.08.161-.081.08.161.081v-.08h0Zm-2.257-.08-.08.161h.161Zm-12.9-.081h0l-.161.242.322-.081-.161-.161Zm-3.627-.08h0l.887.322V7.173h-.242V6.931h.161l-.081.161.242.081.08-.4-.242-.161-.161.08v.161l-.161.08-.161-.242-.4.161h-.161v.161h-.161v.08l.4-.08Zm25.469,0,.081.242.08-.161Zm-.573.08-.031.141.04.02V7.093Zm-1.28,0h0l-.161.161H46.7V7.093Zm-6.126-.161-.242.161H40.5l-.08.161h.242Zm-14.669.081.161.242.161-.08V7.012h-.161V6.851l-.161-.161.081.322Zm-1.37,0v.242l.161-.08V7.012Zm-1.451.08h0l-.161.161h.161V7.093Zm-1.29-.08h0l.161.241v-.08L21.8,7.012Zm27.726-.081h0l.161.241V7.093l-.161-.161Zm-3.143.081-.242.161h.322Zm-.806-.161-.161.322h.081V7.012h.161Zm-.564.161h0l-.161.161h.242V7.012h-.08ZM37.674,6.77l-.161.322.4.081v-.4Zm-2.66.161v.242h.161V6.931Zm-.4,0v.161h.161l.08.081.081-.081Zm-5.964.081v.161l.483-.081L28.97,6.77l-.081.242ZM26.39,6.851l.161.322.08-.161Zm-1.854-.322V6.69l.322.081-.08.4h.242l-.08-.081.242-.161-.08-.322-.081.161h-.08V6.448h-.081l-.08.08Zm7.254.4v.161l.161-.08ZM30.259,6.77l-.081.242v.08h.242V6.77Zm-3.385.08-.081.242h.242Zm23.051,0-.08.161.161-.081Zm-.806-.161h0l-.242.242.08.081.242-.081-.081-.242Zm-5.239-.4-.161.322-.081.161.322.242.08-.322-.161-.08h-.161l.161-.081Zm-.4.564h0l-.161.161h.161V6.851Zm-4.433,0,.08.161V6.851Zm-5.8,0v.161H33.4V6.851Zm-.564,0v.161h.161V6.851Zm-.4,0v.161l.161-.081Zm-2.418,0-.322.161h.4V6.851ZM45.9,6.69h0l-.161.242H45.9v-.08h.161V6.69H45.9Zm-5,0-.242.161H40.9l.08.08Zm-.726-.161h0l-.161.161.081.242h.161v-.4h-.081Zm-1.934,0-.161.4h.161V6.77H38.4V6.609h.322l.322.08h.08V6.528l-.161-.08-.322.08-.161-.08-.161.161Zm-.887.161h0l.161.241v-.08l-.161-.161Zm-12.9,0-.081.242h.161Zm25.55-.08.081.242.08-.161Zm-5.077,0-.242.08.081.161.322-.08-.161-.161Zm-9.592-.4h0l-.08.322v.322h.322l.161-.161-.08-.08.161-.242.081.242.081-.081-.081-.08V6.287H35.74l.081-.161-.161-.161H35.5V5.723h-.242L35.176,5.4l-.161.161V5.8l.242-.08v.161l.242.08v.161l-.081-.081-.161.081h-.161l-.242-.484-.08.242-.322.242.242.322.081.08-.081.081-.322-.242-.08-.483h.161L34.208,5.4l-.242.484v.08h.242v.161h-.08l-.161.161-.161.322.4.161.161-.242h.081V6.69h.242l-.08.161h.483l-.08-.161.161-.242h-.081l-.08-.081.322-.161ZM29.05,6.69v.161l.564-.08h.161l.081-.242-.161-.08-.161.08v-.08l-.322-.081V6.69Zm17.973-.08-.08.161H47.1Zm-2.74-.081h0l-.161.242.242-.161-.08-.081Zm-10.8.081-.08.161h.242Zm-.887,0V6.77h.161V6.609Zm-2.418,0h0l-.161.161h.161V6.609Zm16.281-.322v.161l-.08.161v.08h.161l.161-.242v-.4h.242V5.884H46.7v.161l-.161.161v.081Zm-8.624.161h0l-.161.161L38,6.69V6.528l-.161-.08Zm-.806-.081-.242.322.242-.161Zm13.541.081v.161l.242-.081ZM49.2,6.367v.242l.242-.081Zm-3.466.081h0l-.161.161h.161V6.448Zm-5.319-.081-.081.161.161.081Zm-9.672.081.08.161.322-.081Zm-4.272-.161.081.322h.242V6.528Zm-3.3.08v.242h.322l-.08-.081v-.08Zm21.52,0v.161h.242Zm-12.654-.08.161.242V6.287Zm-4.11,0,.08.242.081-.161Zm-4.352,0v.161l.322.08.08-.242-.161-.081-.08.081Zm27.242,0,.08.161V6.287Zm-2.74-.081-.161.161.161.081.242-.161Zm-9.188-.08h.081l-.081.161.484.161.484-.081-.081-.242.242-.081h.161v.161l.161-.08-.242-.242-.322.08V5.8l-.322.484-.322-.081.081-.161L38.964,5.8l-.081.161h-.161v.242h.161v-.08Zm-6.528.161.08.161.4-.161.08-.4-.242.161.161-.242-.081-.08-.242.08v.242l-.161.161.161.081Zm-3.949,0-.08.161h.161Zm-3.3,0v.161h.4l-.081-.161-.08.08Zm-2.74,0-.081.161.161-.081Zm26.195-.081v.161l.4-.08V6.126H48.8l-.081.08ZM37.029,6.127h0v.16h.322l.081.08V6.206h-.161V6.045h-.2l.04-.08-.081-.08-.242.242.161.161.08-.16Zm-1.047-.082.161.322.161-.08-.161-.081.161-.08.161-.242-.161.08v-.08L36.143,5.8l-.161.161.161.08Zm-2.338-.161h0l-.161.161.081.161.242.161-.161-.483Zm-2.257.322-.242.161h.242Zm-.645,0v.161l.161-.08Zm19.272-.239h0l.072.32v-.2l-.071-.118Zm-25.72.159h0l-.161.161h.242V6.126h-.081Zm26.412.044-.218.036h.242Zm-.494-.338h0l.115.374V6.085l-.115-.253ZM46.3,6.045h0l-.161.161h.242L46.3,6.045Zm-1.854,0h0l-.081.161.242-.08-.161-.081Zm-11.2,0h0l-.161.161h.161V6.045Zm-2.1-.4h0l-.242.242.08.161-.08.161h.161l.08-.161v-.4Zm-5,.4v.161h.242V6.045ZM47.91,5.723l-.161.4.322-.242V5.723Zm-5.158.161h0l-.161.161.161.081h.161l-.161-.081V5.884Zm-4.594-.161h0l.161.161-.242.161.4.081h.161V6.045L38.4,5.884V5.561l-.161.08v-.08l-.08-.081-.322.161-.08.242.242.08.161-.241Zm-8.946.242v.161l.161-.081Zm-.725-.322-.161.322-.161.08.242.081.081-.322Zm17.329.242v.161l.161-.08Zm-1.693-.242-.242.322v.08h.161l.081-.161L44.2,5.8ZM41.7,5.078l.081.161-.322.242.161.484.242.08-.08-.322.322.161V5.642l.242-.08.08.242.4.081.161-.322V5.319h-.161l-.161.081.08-.242-.161.081-.161-.081-.161.081V5.158l-.08-.08-.161.242-.161-.08V5.078Zm-.725.725-.08.242h.08Zm-.242,0h0l-.161.161.08.08.161-.08V5.8h-.08Zm-1.451-.08.081.322h.161V5.884Zm-7.173-.161h0l.081.161-.161.322.161-.08.242-.161-.242-.4.242.08V5.319l.242.081.242-.4v.242h.322L33,5.158l.161-.242V4.755H33l-.161-.322-.242.4h-.161V5l.161.081-.08.161-.161-.161-.081.161-.08-.081-.4.484.161.081.161-.161Zm-.242.161-.242.161-.081.161h.161l.161-.161Zm-1.934.08v.161l.161.08V5.8Zm-4.352.081h0l-.161.161h.161V5.884Zm24.18.081h.121l.108-.036-.027-.045-.2.08.1-.259-.1.057Zm-6.206-.242-.081.242h.081Zm-6.77-.081-.161.161.081.081v.08h.161Zm-3.466-.322-.242.322.08.161v.161H33.4l.161-.242L33.4,5.642l-.161.081V5.561H33.4ZM29.534,5.8v.161l.161-.08Zm20.185-.191h0l-.035.07v.2l.08-.242-.045-.03Zm-2.05-.131h0l-.242.161-.161.242.161-.081h.161V5.642h.161V5.481h-.08Zm-2.821,0h0l-.161.161.08.242.242-.081h.08v-.08l-.242-.242ZM43.8,5.723l-.081.161h.161Zm-3.949,0v.161l.161-.081ZM27.2,5.642l-.161.242H27.2Zm-1.289.081v.161h.161V5.723Zm-.967-.161h0l-.161.322h.242L24.939,5.8H25.1l.161-.161V5.481l-.161.161-.161-.08Zm12.654.08h0l-.161.161h.161V5.642Zm-.4-.161h0l-.242.322.322-.242-.081-.081Zm-1.209.081-.08.161.161.08Zm-.4-.081v.242l.242.08-.08-.161V5.481Zm-4.594,0h0l-.242.161.081.161.322-.242-.161-.081Zm-6.368.081h0l-.161.161.08.08.161-.08-.081-.161Zm-1.128.08h0l-.161.161h.161V5.642ZM49.28,5.561h0l-.094.188.094-.067V5.561Zm.685.081-.037.022.117.059.1-.034-.021-.047ZM47.1,5l-.161.081-.161.242-.4.161-.161.242h.242l.161-.161.161.08.242-.161H47.1V5.4h-.242V5.319l.161-.161.081.081.08-.161Zm-3.869.484v.242h.242V5.642Zm-3.466.081v.161l.161-.081Zm-.161-.081-.08.242h.08Zm-.645.081v.161l.161-.081Zm-2.66,0h0l-.161.161H36.3V5.561Zm-6.77.08v.081h.242Zm-3.385-.161h0l-.161.161.161.081.081-.161-.081-.081ZM48.313,5.36l-.121.282h.04l.081-.242h.121ZM45.17,5.4l.08.242.081-.161Zm-.645.08v.161l.161-.08ZM40.9,5.4v.08h.161v.161h.161l-.08-.161V5.319H41.3v-.08H41.14V5.078h-.161l.161-.242-.081-.161-.08.08-.161-.322v.806l.161.161Zm-3.547-.161.081.4h.08v-.4h-.161Zm-3.385.242h0v.161h.081V5.4h-.242v.161l.161-.08Zm-2.66-.161-.081.242.242.08h.242V5.4h.242l-.081-.161-.322.161Zm-2.418.161.081.161h.242Zm16.6-.08h0l-.161.161h.161V5.4Zm-6.206,0-.08.161h.242Zm-2.5-.242v.161l.08.081-.161.161h.161l.161-.242V5.158Zm-.081.161-.161.242.161-.081ZM34.45,5.4l.081.161V5.4Zm-1.37-.081L33,5.561h.081Zm-2.5-.08h0L30.42,5.4l.08.161V5.481l.242-.08V5.239h-.161Zm14.992.08.08.161V5.319Zm-6.045-.483h0L39.367,5h.322l-.08.242.161.242V5.158L39.85,5V4.836h-.322ZM36.626,5l-.242.081-.161.4h.161V5.4h.161l.161-.161L36.626,5Zm-3.063.242h0L33.4,5.4l.161.08V5.239Zm-4.191.08h0l-.161.161h.161V5.319Zm-1.773,0,.081.161V5.32L28,5.4l.08-.322V4.755L28,4.594l-.242.242-.08.483Zm-2.982-.08h0l-.161.242.322-.161-.161-.08Zm23.941,0h0l.158.04-.281.121h.04l.242-.081v-.08Zm-8.143-.4h0l-.242.242.081.08-.161.242h.322l-.08-.242L40.576,5l.081-.242V4.514H40.5v.322h-.081Zm-1.451.08-.161.322.242.161h.161l.08-.161-.322-.161Zm-.645.242-.081.242h.081ZM35.176,5h0l-.242.242.161.161.242-.322L35.176,5Zm-.484.242-.081.161h.161Zm-7.5-.161V5.4h.161V5.078Zm18.941.08v.161l.161-.08Zm-1.934,0v.161h.161V5.158Zm-.484-.08h0l-.161.161.242.08-.081-.242Zm-.645.08v.161h.161V5.158Zm-5.239-.564-.242.645.242.08H38l.161-.08-.242-.4L38,4.675Zm-2.1.484-.161.242.161-.08Zm-7.415-.161h0l.08.08.161.322.08-.161-.161-.242h-.161Zm-4.433.161-.242.161.322.08Zm24.865-.161h0l.239.4.043-.035-.282-.363Zm-3.183,0-.242.322h.161l.081-.161ZM38.722,5h0l-.161.161v.081h.161l.08-.161L38.722,5Zm8-.16-.02.039.08.2-.248.071.006.01.242-.08-.06-.241ZM37.11,5v.161l.161-.08Zm-2.176-.322L34.692,5l-.08.161h.322l.08-.08L34.934,5Zm-.645.242-.242.242h.161L34.531,5ZM31.468,5l-.242.161h.242ZM30.42,4.514,30.178,5l-.08.161.242-.08L30.259,5l.242-.242.242.081-.081-.081.081-.242h-.161v.161ZM47.991,5h0l.336.134.067-.013L47.991,5Zm-3.063-.08h0l-.161.161h.161V4.917Zm-2.1-.08h0l.161.241V5l-.161-.161Zm-2.821,0h0v.241L40.092,5Zm-2.9,0h0l-.161.242.242-.161-.08-.08Zm-.887,0h0l-.161.242.242-.161-.08-.08ZM35.5,4.755l.161.322.08-.161Zm-5.078.161.161.161h.161Zm-3.949-.242h0L26.31,5l.484.081-.322-.4Zm17.408,0h0L43.719,5h1.048l-.081-.242-.161-.08-.08.161-.161.08.08-.161-.483-.08-.242-.161-.08.242v.081h-.081v.08h.161l.241-.24Zm-2.5-.082-.08.161L41.7,5v-.4h-.161v.161Zm-4.191-.08-.08.161L37.594,5V4.836l-.081-.081.242-.242V4.352l-.161.161h-.242v.161Zm-3.466.242h0l-.161.161h.161l.08.08-.08-.242Zm-1.531-.08h0l-.161.161h.161L32.113,5h.242V4.675h-.161Zm-.242.161.08.161V4.836Zm-2.176,0V5l.161-.08Zm12.976-.484-.08.161-.242.08-.242.322.484-.161.08.081Zm-3.708.322v.242h.322Zm-3.949-.081-.08.242.161.08ZM34.047,4.03l-.242.4.081.484h.161v-.4l-.081-.081.161-.161.161.081V4.191l-.242-.161Zm-2.74.725.08.161V4.755Zm-5-.564-.161.161.081.08-.081.161-.242.161.4.161V4.755h-.161V4.594h.242v-.4ZM48.7,4.775l-.182.061h.161ZM46.25,4.8h0l-.032.032h.161L46.25,4.8Zm-.435-.21h0l-.161.242.242-.081V4.594h-.081Zm-2.579-.242-.322.08.08.4.242-.161.242.08-.08-.242V4.352Zm-4.352.242h0l-.161.161v.081h.242V4.594h-.081Zm-.322.081h0l-.161.161h.242V4.675h-.081Zm-.322,0h0l-.161.161h.161V4.675Zm-9.349-.484-.161.08-.322.4.161.161.161-.161V4.514h.081v.161l.322-.081Zm18.477.282.02.04.4.242Zm-.107,0h0l-.357.286.363-.282Zm-7.732.124.08.161V4.594Zm-5,0h0l.161.161V4.594h-.161Zm-.4-.161v.322l.161-.08V4.433Zm-2.418,0-.08.322.161-.08ZM29.7,4.594l-.081.161h.242Zm-2.9-.242v.4h.242V4.514h-.081Zm-1.451.161v.242H25.5V4.514Zm21.117-.081v.161l.161.081V4.433Zm-1.128.081h0l-.161.161h.161V4.514ZM27.68,4.272h0l-.161.322.322.081.081-.242-.242-.161ZM46.3,4.352l-.161.242.161-.08ZM41.14,4.272l-.242.081.161.242.161-.161Zm-1.854-.322v.322l.4.322.081-.242V4.191l-.242.08Zm-.161.483-.08.161h.242Zm-3.143-.08.08.161.242.08V4.433Zm-2.418-.161-.242.322v.08h.242Zm-1.693.242v.161l.161-.08Zm-.564,0v.161h.161V4.433Zm-1.289-.161-.081.161H30.1v.161h.161v-.08Zm-1.773,0-.08.242v.08l.161-.08Zm20.231,0h0l-.161.161.08.081.161-.081-.08-.161Zm-2.821.081h0l-.161.161h.242V4.352h-.08Zm-1.531.08v.081h.242ZM38,4.352l.08.161.081-.081Zm-3.3-.4-.08.322.08.161.161.081.081-.081-.081-.242.322-.161v-.08h-.161V3.788l.322-.081-.242-.08-.161.161v.161Zm12.2.3-.031.021.322.161.008,0ZM35.176,4.11v.161h.161l.08.161.081-.161-.081-.322-.08.161Zm-2.015.161v.161h.161V4.272Zm12.17,0h0l.161.081h.081l-.081-.161.322-.322h.322l.484.081-.161-.322-.161.08-.08-.08-.161.161H45.9V3.708l-.081-.161h-.242l-.161.161.161.242h-.161l-.242.322v.081l.161-.081ZM43.8,4.03l-.242.08.161.242.161-.081Zm-4.594.161h0l-.161.161h.161V4.191Zm-.4-.081-.08.242h.161Zm-1.531-.08-.242.08.484.242.161-.161.08.08.081-.161-.242-.161-.161.08Zm-.484-.08-.161.242.08.161.081-.161Zm-3.869.161h0l-.161.161v.081h.161V4.11ZM48.2,4.164h0l-.287.107.322-.08Zm-5.042-.376-.161.483h.161V4.11l.4-.161-.08-.564-.242.484Zm-.4.322h0l-.161.161h.242V4.11h-.08Zm-2.66,0h0l-.081.161.242-.08-.161-.081Zm-3.708-.4h0l-.161.161v.322l.161.08.242-.4-.242-.161Zm8.221.322v.161l.161-.081Zm-2.176-.08-.4.242h.322l.242-.081V3.949Zm-.564.08-.242.161h.242Zm-2.821,0h0l-.161.161h.161V4.03Zm-6.368,0h0l-.161.161h.161V4.03Zm-1.048,0v.161l.161-.081Zm-1.612,0h0l-.161.161H30.1V4.03h-.081Zm-2.74,0v.161h.161V4.03Zm-.242,0-.08.161.161-.081Zm-.645-.08V4.11l.161.081.081-.081V3.949Zm21.386.107h0l-.188.054h.242Zm-2.767-.349h0l-.161.322.322.08-.081-.161.242-.081-.322-.161ZM38.4,3.949V4.11h.161V3.949Zm-.161,0h0l-.08.161h.161l-.081-.161Zm-3.708,0h0l-.161.161h.161V3.949Zm-4.917,0V4.11h.161V3.949ZM28,3.708h0l-.161.4h.322v-.4Zm-2.74.242h0L25.1,4.11h.242V3.949h-.081Zm21.56-.081-.252.2.373-.2Zm.443.081h0l.161.08.081-.242.242.08.161-.08-.4-.161-.242.161h.161v.08H47.1V4.03l.161-.08Zm-6.206-.081h0L40.9,4.03h.161V3.869Zm-10.236,0h0l-.161.161h.161V3.869Zm-.645-.161h0l-.08.322h.161Zm-4.917,0-.242.322.242-.161Zm16.926-.08-.242.322.4-.242Zm-1.612.161v.161l.242-.081Zm-1.451-.081-.242.161.242.081.081-.081Zm-6.77-.08v.161l.242.161.08-.242-.08-.161.322-.161V3.3h-.242V3.143h-.161l.081.242-.081.242Zm-4.675.08v.242L28,3.708h0l-.081-.08-.08.08Zm10.236,0v.161h.161V3.708Zm-3.3-.08h0l-.161.242.242-.161-.081-.08Zm-3.3.08-.081.161h.322V3.708Zm-2.66,0-.08.161h.161Zm12.976-.08-.08.161.161-.081Zm-1.209-.161h0l-.161.161h.161v.161l.161-.081-.161-.08V3.466Zm-.887.161v.161l.161-.081Zm-.887-.242h0l-.161.242.322.08.081.081-.161-.242V3.385h-.081Zm-1.37.161h0l-.161.242.242-.081V3.546h-.08Zm-1.209.081v.161h.161V3.627Zm-2.66,0v.161h.161V3.627Zm-2.66-.161.081.322.242-.161-.08-.161Zm-3.627.08h0l-.161.161h.322l.242.081.08-.081-.161-.161h-.322Zm-.725.081v.161l.242-.081Zm17.571-.081.08.161.081-.08Zm-.887-.08v.242l.242-.161Zm-4.755,0-.161.242.161-.08ZM35.74,2.982v.161l-.322.08.161.081.242.4.081-.08-.161-.161V3.3h-.161l.08-.081.242.161.161-.161-.081-.08.322-.161.081-.161V2.66h-.161l-.161.322Zm11.284,0h0L46.7,3.3v.242l.322.081h.4l-.645-.242.242-.08.081-.242-.081-.08Zm-2.5.4h0v.241l.242-.081V3.224h.161v-.08l-.322.08-.242-.08v.322l.161-.08Zm-3.546-.242h0l-.242.161.242.08-.161.242h.161l.08-.242.4-.08V3.143h-.483Zm-2.1.322v.161h.242l.161-.322.4-.161-.242-.081-.08.081h-.161l.161-.484L39.125,2.5l-.161.161.242.484V3.3h-.161L38.8,3.143V3.3h.242v.161Zm-1.169-.081h0l-.161.241h.2L38,3.143l-.282.484.04-.121-.04-.121Zm-4.393.081h0l-.161.161h.161V3.466Zm-1.451,0h0l-.161.161h.161V3.466Zm-.564-.081h0l.242.242V3.385l-.4-.08v.161l.161-.081Zm-2.015.081.081.161V3.466ZM28.325,3.3l.161.322h.081V3.385Zm14.024.08h0l-.161.161h.161V3.385ZM36.3,3.224l-.242.161.4.161V3.385H36.3Zm-.887.161h0l-.161.161H35.5V3.385h-.08Zm-1.37-.242v.242h.161v.161h.161V3.385h-.161V3.143Zm-.725.08h0l-.161.161H33.4v.161l.161-.08L33.4,3.385V3.224h-.081Zm-2.982,0h0l-.161.242.4.08V3.224H30.34Zm-1.451-.161v.4l.161.08.08-.322Zm-2.1.322-.081.161.161-.08Zm10.477-.241-.121.241-.209.07.008.011.242-.081Zm6.771.16v.161H44.2V3.3Zm-3.627-.161h0l-.161.161.08.161.161-.242-.081-.08Zm-10.4.161h0l-.161.161h.161V3.3Zm-.725-.081.081.161.242.081.161-.081ZM27.6,3.231l.12.154L28,3.466Zm12.25-.008v.161l.242-.08Zm-7.979-.08-.322.161h.161l.081.08.161-.161Zm11.284-.081-.08.242.483-.081v-.4l-.322.161.08.161-.161-.081Zm-16.684-.08h0l-.242.242.08.081.161-.081V2.982Zm17.248-.241h0v.282l-.08.242.048.016.032-.1.081-.242ZM44,2.982l-.2.04.068.137Zm-5.36.08-.256.073.015.007Zm-.443,0h0l-.2.081.218-.072Zm-4.957-.08h0l-.161.161h.161V2.982Zm-6.65-.03v.03h.121V3.1h.03l-.03-.121Zm14.548.03h0l.242.08.08-.322-.322.08L40.979,2.5l-.242.161h-.322V2.9h-.08l-.08.161.4-.08V2.821H40.9v.161l.161.08.08-.08ZM31.065,2.821l.081.242.08-.161ZM30.34,2.9h0l-.08.161h.161L30.34,2.9Zm-.4-.081v.161l.161.08.08-.08Zm-.725,0h0l-.161.161h.161l.08.08-.08-.242ZM46.057,2.5V2.66l-.322.161h.322l.161.161h.161V2.66Zm-3.235.369-.19.114h.04l.161-.08ZM38.279,2.9h0l.161.08.006-.017L38.319,2.9ZM37.11,2.821h0l-.161.161h.242V2.821h-.08Zm-.635-.03-.01.03.161.161v-.04Zm-3.8-.05h0l-.161.161v.08h.161V2.74Zm-1.209.08-.08.161h.161Zm-5.037,0h0l-.121.121.282-.121h-.161Zm1.128-.08-.282.141.04.02.349-.14-.108-.021ZM45.492,2.5h0l-.161.161V2.9l.242-.161V2.5h-.08Zm-9.672.242L35.9,2.9l.161-.081Zm-.887.08V2.9h.242Zm-2.66-.4V2.74l-.08.161.322-.081-.161-.161.08-.08V2.418Zm-3.909-.162h0l-.282.121.161.04.081.484-.081-.524.121-.121.081.08h.2l-.282-.08Zm-.443.4V2.9l.242-.161Zm10.411-.094-.014.013.153.306.008-.024-.148-.3Zm4.742.175v.08h.242ZM39.931,2.66v.161h.161V2.66Zm-4.514,0h0l-.161.161h.161V2.66Zm-1.37-.08v.242l.242-.08Zm-3.869.08.081.161.161-.08Zm7.375-.04h0l.041.121.108.027-.108-.108-.04-.04Zm2.861-.282-.242.242.081.161.242-.161h.161V2.418Zm-5.964.242.081.161h.161ZM27.357,2.5,27.2,2.74l.242-.081Zm5.4-.161h0V2.7h.036Zm11.477.225-.194.1.242-.08-.048-.016Zm-.355-.145-.117.234.037.007Zm-.952.212h0l-.176.029h.242l-.066-.029Zm-3.319-.212h0l-.242.161.484.08.08-.242-.161.08-.161-.08ZM29.7,2.5l-.081.161h.161Zm-1.934-.08V2.66L28,2.5ZM44,2.5h0l-.1.151.06-.03.047-.094L44,2.5Zm-8.866,0-.2.121.4-.121Zm9.632-.242-.023.046.1.277Zm-2.9.08-.08.2.121.04.2-.081V2.378l.063-.1-.063.024-.04.121ZM35.5,2.3h0l-.081.282.1-.272Zm-1.612-.121h0l-.322.322v.081h.161l.242-.322-.08-.081Zm-3.949.242-.08.161h.161Zm-.568.036-.359.1.161.023Zm-.4-.116-.081.2.051.007.029-.088Zm9.511.081h0L38.4,2.5l.161-.08h-.08Zm-.437-.023h0l-.207.1.242-.08Zm-1.658-.3h0l.241.161.081.242.242-.08-.322-.242.081-.161V1.854h.322l.081-.322-.242.161-.242-.161v.322l-.4.161v.242l-.161.161h.161l.161-.161V2.1Zm0,.242V2.5l.161-.08Zm-1.773,0V2.5l.161-.08Zm-1.5.128-.271.034h.282Zm-2.528-.45-.242.4.161.08.161-.08-.08-.4Zm7.133.322h0l-.121.121.02.02.141-.141h-.04Zm2.3-.322-.08.161h.08v.242h.161l.081-.161Zm-8.463.242h0l-.08.161h.4V2.337h-.08l-.242-.08ZM40.818,2.1h.242v.242h.484l-.08-.322h-.4l.161-.08-.08-.08.08-.161-.242-.081-.484.322.081.08.4-.242.08.081-.4.242.081.161h.08V2.1Zm-5.723.08.081.161V2.176Zm-3.627-.242-.242.08-.242.322h.242v-.08l.322-.242-.08-.08Zm-1.975.322h0l-.2.08.239-.068-.037-.012Zm3.788-.081h0l-.2.081H33.2l.084-.063Zm4.675-.08h0l-.121.121.035.023.153-.077L37.956,2.1Zm5.078.08-.074.056.2-.056Zm-6.891-.363h0l-.18.4.019.006.161-.4Zm2.337.162-.081.2.081-.161Zm-9.753.04.081.161.08-.08Zm13.782-.08.081.161.161-.081Zm-2.821-.08-.161.242.161-.081Zm-1.974.08-.215.071.014.009.191-.064Zm6.448,0-.089.03.009.051.151-.05Zm-4.07-.08v.161h.322l-.081-.08.242-.322L40.5,1.451V1.29h-.08v.242l-.4-.081.242.4Zm-10.357-.08.161.161.149.025Zm6-.242h0l.148.33.014-.049-.161-.282Zm8.181.242-.121.06.04.02.2-.081Zm-2.055-.322.322.4.161-.081-.322-.564-.242.161.161.08Zm-3.949.322-.138.069.017.012h.161L38.1,1.82ZM33.6,1.693h0l-.161.161h.04l.141-.141-.02-.02Zm3.984-.116-.075.075.212.151Zm6.856.035v.161h.161V1.612ZM33.805,1.37h0l-.111.371.031.031.08-.242V1.37h-.08l-.054.054.134-.053Zm7.778.161-.282.161.313-.139Zm-8.544.08-.2.081h.121l.087-.062Zm-1.814-.08v.161h.242Zm11.2-.081.081.161h.322Zm-4.36.048-.113.113H38l.08-.08Zm-3.1-.1-.032.1v.121l.08-.2Zm-.838-.024h0v.241l.08-.08Zm-.888.121h0l-.08.12h.081V1.451l-.141.141.139-.1Zm5.8-.041h0l.322.121-.322-.121Zm.892-.15-.086.029v.2l.086-.23Zm-2.545.15-.161.08.148-.059ZM36.143,1.37l-.08.161h.161Zm4.643-.187-.009.026h.2v.282l.033-.017-.033-.266ZM30.46,1.37l.081.08.2.04Zm6.569-.242V1.29h.161v.161l.161-.08-.161-.081V1.128Zm-1.209,0L35.5,1.29l.161.161L35.9,1.29V1.128Zm-.927.242-.242.08.277-.069Zm-.6-.242-.081.242h.081Zm-.846.161-.161.054.08.027.2-.081Zm-.484,0h0l-.141.06.2-.04ZM41.382.967l.081.322.161-.08ZM35.095.887v.322l.161.08V1.128Zm-3.224,0h0l-.242.161h.161l.081.242.161-.322L31.871.887Zm5.771.3-.048.024.194.064.048-.024Zm1.967-.137v.161h.161V1.048Zm-.645,0v.161l.161-.081Zm-2.257,0-.242.161h.322ZM35.417.967l-.08.242h.08Zm5.4-.08L40.784.92l.034.168-.012.035.012.006V.887Zm-4.433,0-.322.081-.08.161.4-.08Zm-1.693,0h0l-.161.161v.08h.242L34.692.887Zm3.224.161-.121.06.2-.06ZM39.528.4l-.242.161h.161l.08.4L39.85.887l.081-.161h-.242V.564h-.161ZM38.8.887V.967l.322-.081.161-.242L39.125.564V.725h-.242V.887ZM37.513.564l-.322.242.242.161.161-.161ZM36.868.322h0l-.242.161.322.322h.08V.484L36.868.322ZM35.659.645h0l.161.161.161-.081-.322-.08ZM38.883.4,38.8.645h.161ZM34.934.322l.081.161L35.176.4Zm-.161,0-.242.161h.242ZM22.2,30.466h0v-.161l.161.08-.161.08Zm1.37-.081h0l-.08-.161.161-.08.08.161-.161.08Zm-1.451-.161H21.8l.081-.161.161.081h.08v.08Zm0-.242h0v-.161l.161.08-.161.08ZM36.788,8.221h0l-.08-.322.322.242-.241.081Zm2.257-.081h0l-.16-.08.081-.161.08.241Zm-7.657,0h-.161L31.065,7.9H30.9l.161-.161.161.081.161.322Zm5.8-.161h0l-.322-.08V7.737l.4.081-.081.161Zm-3.869,0h0l-.483-.242.4-.242v.161h.242V7.9l-.161.08Zm4.352-.08h0l-.564-.4.08-.161.242.242v.081h.322l-.08.161V7.9Zm-6.69-.242h0L30.9,7.5l.242-.081.08.081-.241.161Zm3.869-.081h-.161V7.415h.161v.161Zm-.887,0h0V7.415l.161.081-.161.08Zm-2.66-.242h0V7.173l.161.08-.161.08Zm-3.869-.161h0l.161-.241v.161l-.16.08ZM27.2,6.851h0l-.08-.241.161.08-.08.161Z" transform="translate(75.7 28)"/></g></g></svg>