<svg xmlns="http://www.w3.org/2000/svg" width="150" height="150" viewBox="0 0 150 150"><defs><style>.a{fill:#1b428c;}</style></defs><path class="a" d="M45.806,144.106a75.249,75.249,0,0,1-8.83-4.439,128.848,128.848,0,0,1,76.048,0,75.346,75.346,0,0,1-8.832,4.439,75.244,75.244,0,0,1-58.387,0ZM118.8,135.9a133.548,133.548,0,0,0-16.806-4.606,135.2,135.2,0,0,0-53.983,0A133.6,133.6,0,0,0,31.2,135.9a75.726,75.726,0,0,1-9.236-7.865A74.862,74.862,0,0,1,1.529,90.167,134.993,134.993,0,0,0,13.556,74.881,134.008,134.008,0,0,0,25.9,52.132a133.222,133.222,0,0,0,7.8-25.14,134.519,134.519,0,0,0,2.281-16.067,74.985,74.985,0,0,1,78.025,0,134.475,134.475,0,0,0,2.28,16.066,133.228,133.228,0,0,0,7.8,25.14,133.869,133.869,0,0,0,12.349,22.749A135.056,135.056,0,0,0,148.47,90.167a74.847,74.847,0,0,1-20.437,37.867A75.852,75.852,0,0,1,118.8,135.9ZM25,75A50,50,0,1,0,75,25,50.056,50.056,0,0,0,25,75ZM53.758,92.714a8.493,8.493,0,0,1-3.135-3.168,8.725,8.725,0,0,1-1.155-4.422V71.462a.962.962,0,0,1,.28-.71,1.051,1.051,0,0,1,.776-.28.98.98,0,0,1,.693.28.935.935,0,0,1,.3.71V85.124a6.748,6.748,0,0,0,3.316,5.857,6.577,6.577,0,0,0,6.666,0,6.8,6.8,0,0,0,2.442-2.459,6.607,6.607,0,0,0,.907-3.4V71.462a.994.994,0,0,1,.265-.71.909.909,0,0,1,.693-.28.959.959,0,0,1,.99.99V85.124a8.725,8.725,0,0,1-1.156,4.422,8.736,8.736,0,0,1-11.88,3.168Zm52.375.533A3.128,3.128,0,0,1,105,91.979a4.278,4.278,0,0,1,0-3.653,3.14,3.14,0,0,1,1.125-1.267,2.971,2.971,0,0,1,2.853-.169,2.643,2.643,0,0,1,.943.728v-.312a.641.641,0,0,1,.168-.455.577.577,0,0,1,.443-.183.607.607,0,0,1,.448.175.624.624,0,0,1,.175.462v5.642a.613.613,0,0,1-.175.442.6.6,0,0,1-.448.182.588.588,0,0,1-.443-.176.62.62,0,0,1-.168-.448V92.61a2.793,2.793,0,0,1-.923.773,2.593,2.593,0,0,1-1.261.319A2.95,2.95,0,0,1,106.132,93.246Zm.663-5.187a2.112,2.112,0,0,0-.742.858,3,3,0,0,0,0,2.47,2.112,2.112,0,0,0,.742.858,2.042,2.042,0,0,0,2.171,0,2.1,2.1,0,0,0,.741-.858,2.774,2.774,0,0,0,.266-1.235,2.741,2.741,0,0,0-.266-1.222,2.147,2.147,0,0,0-.741-.865,1.9,1.9,0,0,0-1.085-.319A1.93,1.93,0,0,0,106.8,88.06ZM99.49,93.416a2.826,2.826,0,0,1-1.176-.91.649.649,0,0,1-.117-.351.525.525,0,0,1,.273-.442.5.5,0,0,1,.3-.091.6.6,0,0,1,.429.194,2.738,2.738,0,0,0,.839.663,2.4,2.4,0,0,0,1.072.221,1.833,1.833,0,0,0,.871-.228.808.808,0,0,0-.006-1.372,4.393,4.393,0,0,0-1.125-.429,8.219,8.219,0,0,1-1.209-.41,2.176,2.176,0,0,1-.813-.624,1.829,1.829,0,0,1,0-2.1,2.206,2.206,0,0,1,.885-.689,2.909,2.909,0,0,1,1.2-.247,3.484,3.484,0,0,1,1.241.234,2.332,2.332,0,0,1,1.008.715.575.575,0,0,1,.156.377.557.557,0,0,1-.208.4.466.466,0,0,1-.325.117.485.485,0,0,1-.377-.156,1.824,1.824,0,0,0-.67-.481,2.2,2.2,0,0,0-.877-.169,1.628,1.628,0,0,0-.839.2.726.726,0,0,0-.345.682.757.757,0,0,0,.4.676,5.029,5.029,0,0,0,1.176.429,7.256,7.256,0,0,1,1.144.39,2.007,2.007,0,0,1,.768.617,1.725,1.725,0,0,1,.311,1.073,1.668,1.668,0,0,1-.351,1.059,2.271,2.271,0,0,1-.916.689,3.042,3.042,0,0,1-1.2.24A3.941,3.941,0,0,1,99.49,93.416Zm-7.644-.169a3.116,3.116,0,0,1-1.131-1.267,4.278,4.278,0,0,1,0-3.653,3.138,3.138,0,0,1,1.124-1.267,2.973,2.973,0,0,1,2.854-.169,2.648,2.648,0,0,1,.942.728v-.312a.642.642,0,0,1,.169-.455.575.575,0,0,1,.442-.183.607.607,0,0,1,.448.175.624.624,0,0,1,.176.462v5.642a.613.613,0,0,1-.176.442.6.6,0,0,1-.448.182A.586.586,0,0,1,95.8,93.4a.62.62,0,0,1-.169-.448V92.61a2.78,2.78,0,0,1-.923.773,2.6,2.6,0,0,1-1.261.319A2.948,2.948,0,0,1,91.846,93.246Zm.662-5.187a2.11,2.11,0,0,0-.741.858,3,3,0,0,0,0,2.47,2.11,2.11,0,0,0,.741.858,2.044,2.044,0,0,0,2.172,0,2.109,2.109,0,0,0,.741-.858,2.786,2.786,0,0,0,.266-1.235,2.753,2.753,0,0,0-.266-1.222,2.154,2.154,0,0,0-.741-.865,1.9,1.9,0,0,0-1.086-.319A1.934,1.934,0,0,0,92.508,88.06Zm-13.8,4.882a2.853,2.853,0,0,1-.742-2.1V87.384a.613.613,0,0,1,.175-.442.581.581,0,0,1,.436-.182.6.6,0,0,1,.448.182.613.613,0,0,1,.176.442v3.458q0,1.7,1.6,1.7a1.609,1.609,0,0,0,1.209-.428,1.76,1.76,0,0,0,.417-1.274V87.384a.613.613,0,0,1,.176-.442.579.579,0,0,1,.436-.182.6.6,0,0,1,.448.182.613.613,0,0,1,.175.442v3.458a2.98,2.98,0,0,1-4.953,2.1Zm6.968.454a.62.62,0,0,1-.169-.448V87.384a.613.613,0,0,1,.175-.442.579.579,0,0,1,.436-.182.6.6,0,0,1,.448.182.613.613,0,0,1,.175.442v.663a2.464,2.464,0,0,1,.859-1.034,2.3,2.3,0,0,1,1.3-.41.984.984,0,0,1,.585.175.519.519,0,0,1,.247.436.643.643,0,0,1-.162.474.537.537,0,0,1-.4.163,1.242,1.242,0,0,1-.351-.078,1.47,1.47,0,0,0-.428-.091,1.322,1.322,0,0,0-.787.28,2.055,2.055,0,0,0-.625.767,2.421,2.421,0,0,0-.24,1.085v3.133a.613.613,0,0,1-.175.442.6.6,0,0,1-.448.182A.586.586,0,0,1,85.677,93.4ZM71.1,93.389a.613.613,0,0,1-.176-.442V84.576a.613.613,0,0,1,.176-.442.6.6,0,0,1,.449-.182.581.581,0,0,1,.436.182.613.613,0,0,1,.175.442v5.278l3.184-2.925a.688.688,0,0,1,.455-.194.549.549,0,0,1,.4.188.568.568,0,0,1,.182.4.605.605,0,0,1-.247.468l-2.249,2,2.5,2.7a.654.654,0,0,1,.2.454.555.555,0,0,1-.2.436.637.637,0,0,1-.423.175.556.556,0,0,1-.455-.208l-2.561-2.717-.779.7v1.612a.613.613,0,0,1-.175.442.581.581,0,0,1-.436.182A.6.6,0,0,1,71.1,93.389ZM.441,83.206A76.5,76.5,0,0,1,0,75,74.765,74.765,0,0,1,21.967,21.967a75.839,75.839,0,0,1,8.255-7.146A127.5,127.5,0,0,1,20.24,51.645,128.76,128.76,0,0,1,.443,83.207l0,0Zm149.117,0a128.759,128.759,0,0,1-19.8-31.562,127.516,127.516,0,0,1-9.982-36.823,75.945,75.945,0,0,1,8.255,7.146A74.765,74.765,0,0,1,150,75a76.482,76.482,0,0,1-.441,8.205v0ZM78.509,67.44a2.386,2.386,0,0,1-1-.77.546.546,0,0,1-.1-.3.443.443,0,0,1,.23-.373.433.433,0,0,1,.253-.077.5.5,0,0,1,.364.166,2.326,2.326,0,0,0,.709.561,2.039,2.039,0,0,0,.907.187,1.561,1.561,0,0,0,.737-.193.626.626,0,0,0,.32-.589.632.632,0,0,0-.325-.572,3.707,3.707,0,0,0-.951-.363,7.069,7.069,0,0,1-1.023-.346,1.832,1.832,0,0,1-.688-.528,1.4,1.4,0,0,1-.28-.907,1.413,1.413,0,0,1,.28-.869,1.857,1.857,0,0,1,.749-.582,2.46,2.46,0,0,1,1.017-.21,2.957,2.957,0,0,1,1.05.2,1.979,1.979,0,0,1,.853.606.489.489,0,0,1,.131.319.474.474,0,0,1-.175.341.4.4,0,0,1-.275.1.41.41,0,0,1-.319-.132,1.551,1.551,0,0,0-.567-.407,1.87,1.87,0,0,0-.743-.143,1.377,1.377,0,0,0-.709.171.614.614,0,0,0-.292.577.64.64,0,0,0,.336.572,4.269,4.269,0,0,0,1,.363,6.051,6.051,0,0,1,.968.33,1.69,1.69,0,0,1,.65.522A1.462,1.462,0,0,1,81.88,66a1.411,1.411,0,0,1-.3.9,1.916,1.916,0,0,1-.776.583,2.581,2.581,0,0,1-1.017.2A3.34,3.34,0,0,1,78.509,67.44Zm-14.5-.132a2.607,2.607,0,0,1-1.045-1.045,3.1,3.1,0,0,1-.369-1.518,3.344,3.344,0,0,1,.38-1.622,2.748,2.748,0,0,1,1-1.073,2.576,2.576,0,0,1,2.657-.011,2.757,2.757,0,0,1,.99,1,2.855,2.855,0,0,1,.385,1.43.471.471,0,0,1-.166.336.529.529,0,0,1-.363.137H63.609a1.913,1.913,0,0,0,.61,1.287,1.867,1.867,0,0,0,1.3.484,2.045,2.045,0,0,0,.859-.154,2.174,2.174,0,0,0,.583-.4.622.622,0,0,1,.319-.1.414.414,0,0,1,.313.132.431.431,0,0,1,.127.308.543.543,0,0,1-.22.418,2.578,2.578,0,0,1-.847.539,2.776,2.776,0,0,1-1.077.22A3.188,3.188,0,0,1,64.011,67.307Zm.237-4.317a1.708,1.708,0,0,0-.594,1.073H66.9v-.088a1.341,1.341,0,0,0-.522-.957,1.652,1.652,0,0,0-1.062-.374A1.7,1.7,0,0,0,64.247,62.99Zm5.6,4.048a2.414,2.414,0,0,1-.627-1.777V62.336a.52.52,0,0,1,.148-.374.492.492,0,0,1,.369-.154.5.5,0,0,1,.379.154.52.52,0,0,1,.148.374v2.926q0,1.44,1.354,1.441a1.358,1.358,0,0,0,1.022-.363,1.491,1.491,0,0,0,.352-1.078V62.336a.52.52,0,0,1,.149-.374.492.492,0,0,1,.369-.154.5.5,0,0,1,.379.154.52.52,0,0,1,.149.374v2.926a2.521,2.521,0,0,1-4.19,1.777Zm-10.307.534a.538.538,0,0,1-.452-.33l-1.144-2.993-1.056,2.993a.529.529,0,0,1-.187.237.539.539,0,0,1-.264.094.5.5,0,0,1-.325-.072.463.463,0,0,1-.214-.258l-1.7-4.752a.642.642,0,0,1-.033-.209.53.53,0,0,1,.143-.374.486.486,0,0,1,.373-.154.459.459,0,0,1,.484.33l1.309,3.707,1.045-2.74A.481.481,0,0,1,58,62.721a.45.45,0,0,1,.452.329l1.067,2.7L60.8,62.083a.535.535,0,0,1,.864-.182.515.515,0,0,1,.148.38.726.726,0,0,1-.044.209l-1.683,4.752a.493.493,0,0,1-.221.264.52.52,0,0,1-.262.071A.554.554,0,0,1,59.54,67.572Zm-9.1-.27a.919.919,0,0,1-.28-.69v-9.26l-3.88,5.88a1.171,1.171,0,0,1-.35.3.718.718,0,0,1-.43.1.677.677,0,0,1-.41-.1,1.171,1.171,0,0,1-.35-.3l-3.9-6.06v9.44a.977.977,0,0,1-.25.69.87.87,0,0,1-.67.27.845.845,0,0,1-.65-.27.977.977,0,0,1-.25-.69v-12.1a.973.973,0,0,1,.98-.959,1,1,0,0,1,.47.12,1.012,1.012,0,0,1,.371.32l4.739,7.179,4.8-7.179a.957.957,0,0,1,.8-.44,1.02,1.02,0,0,1,.68.29.894.894,0,0,1,.28.67v12.1a.942.942,0,0,1-.98.96A1,1,0,0,1,50.437,67.3Zm24.844-4.395a.417.417,0,0,1-.044-.285l.22-2.321a.434.434,0,0,1,.473-.429h.341a.416.416,0,0,1,.274.083.278.278,0,0,1,.1.225.58.58,0,0,1-.033.187L75.885,62.7a.391.391,0,0,1-.4.308A.23.23,0,0,1,75.281,62.907Z"/></svg>