<svg xmlns="http://www.w3.org/2000/svg" xmlns:xlink="http://www.w3.org/1999/xlink" width="110.505" height="123.001" viewBox="0 0 110.505 123.001">
    <defs>
        <style>.a{fill:#4a235a;}.b{filter:url(#a);}</style>
        <filter id="a" x="0" y="0" width="110.505" height="123.001" filterUnits="userSpaceOnUse">
            <feOffset dy="1" input="SourceAlpha"/>
            <feGaussianBlur stdDeviation="0.5" result="b"/>
            <feFlood/><feComposite operator="in" in2="b"/>
            <feComposite in="SourceGraphic"/>
        </filter>
    </defs>
        <g class="b" transform="matrix(1, 0, 0, 1, 0, 0)">
            <path class="a" d="M72.94,119.411c-.95-.185-1.9-.415-2.831-.685v-2.608a29.412,29.412,0,0,0,8.9,1.384,29.251,29.251,0,1,0-8.9-57.11v-2.62c.773-.227,1.561-.425,2.34-.59a31.648,31.648,0,0,1,6.2-.679l.3,0A32.064,32.064,0,0,1,91.21,58.946,31.57,31.57,0,0,1,101.44,65.8a31.743,31.743,0,0,1-22.1,54.2l-.31,0A32.03,32.03,0,0,1,72.94,119.411ZM31.126,93.18a2.409,2.409,0,0,1-.641-1.984l.84-6.867h2.94L33.551,90.1a1.765,1.765,0,0,0,.2.977.936.936,0,0,0,.872.367,1.821,1.821,0,0,0,1.186-.441A3.383,3.383,0,0,0,36.7,89.8a5.489,5.489,0,0,0,.462-1.732l.462-3.738h2.94l-1.134,9.177H36.764L36.747,92.1a4.417,4.417,0,0,1-.876.923,4.238,4.238,0,0,1-1.249.682,4.569,4.569,0,0,1-1.512.242A2.641,2.641,0,0,1,31.126,93.18Zm45.685.535a3.2,3.2,0,0,1-1.764-.5,4.032,4.032,0,0,1-1.417-1.533,4.976,4.976,0,0,1-.556-2.436,5.349,5.349,0,0,1,.378-1.984,5.638,5.638,0,0,1,1.071-1.722,5.221,5.221,0,0,1,1.638-1.219,4.765,4.765,0,0,1,2.079-.451,4.458,4.458,0,0,1,1.5.21,2.794,2.794,0,0,1,.935.535,3.83,3.83,0,0,1,.577.658l.3-.941h2.73l-1.113,9.177H80.234l.133-1.151-.029.027a5.417,5.417,0,0,1-.725.557,5.132,5.132,0,0,1-1.175.556,4.541,4.541,0,0,1-1.479.222Zm.756-7.2a2.475,2.475,0,0,0-.829.651,2.641,2.641,0,0,0-.473.851,2.805,2.805,0,0,0-.148.871,2.774,2.774,0,0,0,.294,1.313,2.09,2.09,0,0,0,.83.86,2.435,2.435,0,0,0,1.229.305,2.143,2.143,0,0,0,.808-.158,2.722,2.722,0,0,0,.745-.463,2.979,2.979,0,0,0,.63-.766l.274-2.247a1.722,1.722,0,0,0-.4-.787,1.964,1.964,0,0,0-.734-.5,3.011,3.011,0,0,0-2.227.074Zm-23.142,7.2a3.2,3.2,0,0,1-1.764-.5,4.018,4.018,0,0,1-1.417-1.533,4.976,4.976,0,0,1-.556-2.436,5.349,5.349,0,0,1,.378-1.984,5.62,5.62,0,0,1,1.071-1.722,5.221,5.221,0,0,1,1.638-1.219,4.765,4.765,0,0,1,2.079-.451,4.466,4.466,0,0,1,1.5.21,2.781,2.781,0,0,1,.934.535,3.826,3.826,0,0,1,.578.657l.3-.941H61.9l-1.113,9.177h-2.94l.133-1.151-.028.027a5.477,5.477,0,0,1-.724.557,5.122,5.122,0,0,1-1.176.556,4.536,4.536,0,0,1-1.478.222Zm.756-7.2a2.487,2.487,0,0,0-.83.651,2.641,2.641,0,0,0-.472.851,2.83,2.83,0,0,0-.147.871,2.774,2.774,0,0,0,.294,1.313,2.093,2.093,0,0,0,.829.86,2.439,2.439,0,0,0,1.229.305,2.145,2.145,0,0,0,.809-.158,2.722,2.722,0,0,0,.745-.463,2.979,2.979,0,0,0,.63-.766l.273-2.247a1.712,1.712,0,0,0-.4-.787,1.967,1.967,0,0,0-.735-.5,3.009,3.009,0,0,0-2.226.074Zm10.794,7.066a5.271,5.271,0,0,1-1.459-.493,3.824,3.824,0,0,1-1.354-1.155L64.568,90.4a4.691,4.691,0,0,0,1.029.9,2.337,2.337,0,0,0,.83.325,4.414,4.414,0,0,0,.6.053q.651,0,.84-.274a.9.9,0,0,0,.189-.5.617.617,0,0,0-.262-.514,2.52,2.52,0,0,0-.672-.346q-.409-.147-.851-.315A3.218,3.218,0,0,1,64.7,88.612a2.628,2.628,0,0,1-.473-1.512,3.425,3.425,0,0,1,.158-.956,3.181,3.181,0,0,1,.545-1.039,2.959,2.959,0,0,1,1.093-.84,4.228,4.228,0,0,1,1.816-.336,8.7,8.7,0,0,1,1.271.094,5.167,5.167,0,0,1,1.26.356,4.605,4.605,0,0,1,1.186.746l-1.323,1.659a3.438,3.438,0,0,0-.913-.672,2.288,2.288,0,0,0-1.019-.23,1.424,1.424,0,0,0-.63.115.757.757,0,0,0-.336.3.809.809,0,0,0-.105.4.632.632,0,0,0,.315.545,3.129,3.129,0,0,0,.767.357q.452.147.893.336a3.816,3.816,0,0,1,1.071.63,2.221,2.221,0,0,1,.64.893,2.487,2.487,0,0,1,.116,1.208,3.181,3.181,0,0,1-.357,1.165,3.293,3.293,0,0,1-.787.977,3.5,3.5,0,0,1-1.208.651,5.316,5.316,0,0,1-1.638.231A6.977,6.977,0,0,1,65.975,93.578ZM5.757,92.928a4.852,4.852,0,0,1-2.005-2.058,5.1,5.1,0,0,1-.463-3.013l1.2-9.807h3.15l-1.2,9.744A2.513,2.513,0,0,0,6.682,89.2a2.665,2.665,0,0,0,.977,1.093,2.727,2.727,0,0,0,1.512.419,3.275,3.275,0,0,0,1.616-.419A4.068,4.068,0,0,0,12.057,89.2a2.824,2.824,0,0,0,.6-1.407l1.2-9.744H17l-1.2,9.807a6.075,6.075,0,0,1-1.218,3.013,7.072,7.072,0,0,1-2.52,2.058,7.265,7.265,0,0,1-3.255.745A6.159,6.159,0,0,1,5.757,92.928Zm36.718.578,1.113-9.177h2.646l-.084,2.037a5.222,5.222,0,0,1,1.207-1.375,5.618,5.618,0,0,1,1.428-.84,3.5,3.5,0,0,1,1.229-.284l-.5,2.939a2.811,2.811,0,0,0-1.806.337,3.685,3.685,0,0,0-1.281,1.218,3.791,3.791,0,0,0-.588,1.554L45.4,93.506Zm-17.744,0-1.779-3.822-.9.62-.39,3.2h-2.94l2.016-16.569h2.94L22.419,87.31,27.188,84.1l1.575,1.575L25.216,88.12l2.937,5.385Zm20.915-30.6a32,32,0,0,1-6.157-1.853A31.579,31.579,0,0,1,29.26,54.2a31.835,31.835,0,0,1-8.626-15.9,31.648,31.648,0,0,1-.679-6.2A32.05,32.05,0,0,1,22.4,19.535,31.549,31.549,0,0,1,29.252,9.3,31.837,31.837,0,0,1,45.156.68,31.579,31.579,0,0,1,51.358,0l.31,0A31.95,31.95,0,0,1,57.76.59c.95.185,1.9.415,2.831.685V3.883a29.242,29.242,0,0,0-37.6,22.286,29.282,29.282,0,0,0,23.13,34.291,29.406,29.406,0,0,0,5.591.54,29.042,29.042,0,0,0,8.879-1.39v2.62c-.774.226-1.561.424-2.341.589a31.572,31.572,0,0,1-6.2.68h-.3A32.034,32.034,0,0,1,45.646,62.908Zm41.8-26.6a2.409,2.409,0,0,1-.64-1.985l.84-6.867h2.94l-.715,5.775a1.772,1.772,0,0,0,.2.977.933.933,0,0,0,.871.367,1.821,1.821,0,0,0,1.187-.441,3.382,3.382,0,0,0,.892-1.208,5.472,5.472,0,0,0,.463-1.732l.462-3.738h2.94l-1.134,9.177H93.088l-.016-1.406a4.417,4.417,0,0,1-.876.923,4.243,4.243,0,0,1-1.25.682,4.561,4.561,0,0,1-1.512.242A2.643,2.643,0,0,1,87.449,36.312Zm-10.332.042a3.875,3.875,0,0,1-1.753-1.575,5.129,5.129,0,0,1-.63-2.657,5.308,5.308,0,0,1,1.249-3.35,4.765,4.765,0,0,1,1.68-1.249,5.917,5.917,0,0,1,2.509-.483,6.425,6.425,0,0,1,1.586.2,3.905,3.905,0,0,1,1.449.714,4.208,4.208,0,0,1,1.134,1.439A7.356,7.356,0,0,1,85,31.787l-6.881,1.7a1.968,1.968,0,0,0,.885.693,3.018,3.018,0,0,0,1.061.21,2.283,2.283,0,0,0,.808-.147,7.182,7.182,0,0,0,.787-.357l1.029,2.268a7.387,7.387,0,0,1-1.459.525,6.179,6.179,0,0,1-1.48.189A6.285,6.285,0,0,1,77.117,36.355Zm1.565-6.668a2.094,2.094,0,0,0-.767.924,2.968,2.968,0,0,0-.241,1.176q0,.027,0,.053l4.188-1.085a1.788,1.788,0,0,0-1.794-1.424A2.426,2.426,0,0,0,78.683,29.687Zm-9.555,7.161-2.142-5.922-3.318,5.9H63.5l-2.94-9.366h2.856l1.231,3.755,1.626-2.7-.357-1.05h2.5l1.247,3.92,1.987-3.92H74.5L69.3,36.848Zm31.815-.137a5.276,5.276,0,0,1-1.46-.493,3.839,3.839,0,0,1-1.354-1.155l1.408-1.534a4.691,4.691,0,0,0,1.029.9,2.324,2.324,0,0,0,.83.325,4.412,4.412,0,0,0,.6.053q.651,0,.84-.274a.9.9,0,0,0,.189-.5.616.616,0,0,0-.263-.514,2.474,2.474,0,0,0-.671-.347q-.41-.147-.851-.315a3.226,3.226,0,0,1-1.565-1.113,2.628,2.628,0,0,1-.472-1.512,3.458,3.458,0,0,1,.157-.956,3.184,3.184,0,0,1,.546-1.039,2.956,2.956,0,0,1,1.092-.84,4.23,4.23,0,0,1,1.817-.336,8.689,8.689,0,0,1,1.27.094,5.155,5.155,0,0,1,1.26.356,4.61,4.61,0,0,1,1.187.746l-1.323,1.659a3.438,3.438,0,0,0-.914-.672,2.291,2.291,0,0,0-1.019-.23,1.419,1.419,0,0,0-.63.115.748.748,0,0,0-.336.3.809.809,0,0,0-.105.4.633.633,0,0,0,.315.545,3.1,3.1,0,0,0,.767.357q.451.147.892.336a3.79,3.79,0,0,1,1.071.63,2.223,2.223,0,0,1,.641.893A2.477,2.477,0,0,1,106,33.8a3.179,3.179,0,0,1-.356,1.166,3.319,3.319,0,0,1-.787.977,3.5,3.5,0,0,1-1.208.651,5.324,5.324,0,0,1-1.638.231A6.966,6.966,0,0,1,100.942,36.711Zm-46.767-.073.906-7.37-5.926,7.159h-.042l-4.023-6.719-.848,6.93H41.3l1.975-16.087H43.3l6.482,11.123,9.373-11.123h.041L57.22,36.638Z" transform="translate(-1.74 0.5)"/>
        </g>
</svg>