<svg version="1" xmlns="http://www.w3.org/2000/svg" width="933.333" height="933.333" viewBox="0 0 700.000000 700.000000"><path d="M354.9.4c-.2.2-4.4.7-9.4 1-4.9.4-9.9.9-11 1.1-1.1.2-4.2.7-7 1-2.7.3-10.6 1.7-17.5 3.1-36.4 7.3-69.6 20.3-103 40.2-21.9 13.1-45.8 32.1-64 50.9-11 11.3-22.1 24-19 21.7 11.7-8.8 21-15.4 21.5-15.4.3 0 3.3-1.8 6.5-4s6.1-4 6.3-4c.3 0 3.4-1.7 6.8-3.8 19-11.5 51-24.5 76.1-31.1 9.9-2.5 14.2-3.5 24.8-5.6 1.4-.3 5.7-1 9.5-1.6 3.9-.6 8.1-1.2 9.5-1.5 16.1-2.6 63.2-2.6 81 .2 48 7.3 83.1 19.1 120 40.2 27.1 15.6 46.2 30.3 69.5 53.7 40.2 40.2 69.1 90.4 83.5 145 1.6 6 3.1 12.1 3.4 13.5.3 1.4.7 3.6 1 5 2 8.8 4.2 23.8 5.3 35.7 1.5 15 .6 66.3-1.1 69.2-.2.3-.7 3.3-1 6.6-.4 3.3-.9 6.7-1.1 7.5-.2.8-.7 3.1-1 5-.3 1.9-1.7 8.4-3.1 14.5-9.1 39.5-26.3 78.2-50.3 113-3 4.4-5.8 8.2-6.1 8.5-.3.3-1.9 2.3-3.6 4.5-2.9 4-2.8 3.9 3.6-1.5 50.4-42.7 87-100.6 104.1-164.7 1.7-6.2 3.2-12.3 3.4-13.6.3-1.2.9-4.5 1.5-7.2 1.5-7.7 2-10.6 2.6-16 .3-2.8.7-5.5.9-6.2 1.1-3.5 2-22.5 1.9-42.8 0-19.7-1-34.1-3-46.1-8.6-51.3-25.2-93.8-52.5-133.9-15.2-22.5-40.2-50-60.9-67.2-19.9-16.6-44.9-32.7-66.1-42.7-16.2-7.5-18.1-8.4-25.1-11C466.6 12.1 444 6.4 418.5 3c-3.8-.5-9-1.2-11.5-1.5-4.9-.7-51.5-1.6-52.1-1.1zM115 126.7c-11.5 9.8-36 35.3-44.9 46.8-20.7 26.6-36 53.2-47.5 82.4-4.8 12.1-10.5 29.6-12.1 37.1-.2.8-1.5 6.4-2.9 12.5-1.3 6-2.7 12.8-3.1 15-.3 2.2-1 6.7-1.5 10-3.1 20-3.4 65.9-.5 84.7.2 1.3.6 4.4.9 6.9 3.3 23.5 11.7 54.8 20.2 74.4.7 1.6 2.9 6.8 4.9 11.5 10.6 24.6 30.2 55.8 48.8 77.5 10 11.7 32.5 33.5 44.2 42.8 45.2 36.3 101.1 60.6 156.5 68.3 1.9.3 4.9.7 6.5.9 13.5 2 50.1 2.7 68.2 1.3 31.9-2.5 72-12.5 99.8-24.8 15.6-6.8 41.7-20.6 47.9-25.3.6-.4 5.4-3.7 10.6-7.4 16.2-11.2 27.9-21.2 43-36.3 13.9-13.9 25.2-26.4 22-24.5-.8.5-4.9 3.5-9 6.5-29 21.8-66.8 40.2-103.4 50.5-13.9 3.9-33.3 8.1-42.1 9-3.3.4-6.9.9-8 1.1-9.8 1.9-51.4 2.6-67.1 1.2-75.3-6.8-146-39.7-199.4-92.8-18.6-18.4-35.6-39.3-46.5-57.1C72 452.2 56.3 406.2 51.3 354c-1-10-1-47.3 0-58 5.7-62.7 29.2-121.6 69-172.8 1.7-2.1.3-1.3-5.3 3.5z"/><path d="M150.3 229.8c-2.5.4-2.8 1.2-4.9 12.7-.3 1.6-1.7 8.8-3.1 16-1.4 7.1-2.7 14.1-2.9 15.5-.3 1.4-1.9 9.9-3.7 19l-3.3 16.5 9.4.3c5.2.1 9.6.1 9.9-.1.2-.2.6-1.5.8-2.8.3-1.3.9-4.7 1.5-7.4.5-2.8 1.2-6.1 1.4-7.5.2-1.4 1.4-7.5 2.6-13.5 1.2-6.1 2.4-12.1 2.6-13.5 1.4-8.4 2.8-13.3 3.2-12 .3.8 2.8 10.5 5.6 21.5l5.1 20 5.4.1h5.4l8.1-12.5c4.5-7 10.6-16.5 13.6-21.3 3-4.8 5.6-8.6 5.7-8.4.2.1-.8 5.8-2.1 12.7-1.4 6.8-3.6 18.7-5.1 26.4-1.5 7.7-2.9 15-3.2 16.2-.5 2.3-.4 2.3 9.4 2.3h9.8l3.9-19.8c2.1-10.8 5.1-26.2 6.7-34.2 1.5-8 3-15.9 3.3-17.5.3-1.7.8-4.2 1.2-5.8.5-2.3.2-2.7-1.8-2.8-2.6-.1-12.9-.1-19.8.1h-4.5l-10 15.8c-5.4 8.6-11.5 18.2-13.4 21.2l-3.4 5.4-3.3-13.4c-4.1-16.6-3.8-15.2-5.4-22.8l-1.3-6.2-4.1-.1c-2.2 0-7-.1-10.6-.2-3.6-.1-7.5-.1-8.7.1zM507.5 230l-3 .5.1 14.5v14.5l6.2.1 6.2.2.1-3.7c.4-13 .3-26.1-.1-26.2-2.4-.3-7-.3-9.5.1zM375.5 249.5c-12.1 2.8-21.3 10.2-26.7 21.5-2.7 5.5-3.2 7.7-3.2 14.5-.2 13.8 5.5 21.4 18.4 24.7 9.2 2.3 26.5 1 35.5-2.8 3.4-1.4 3.7-2 5-10.3.3-1.9.8-3.8 1.1-4.3.7-1.1-1.9-1-3.1.1-1.1.9-9.6 3.8-13.6 4.6-16.2 3.2-24.9-.9-24-11.2.1-.9 2.2-1.2 6.9-1.2h22.4l15.7-.1.6-3.3c3.7-20.4-5.3-32.5-24.8-33.2-2.9-.1-7.4.4-10.2 1zm11.6 12.7c4.1 1.4 6.9 8.1 4.5 10.6-.9.9-23.6.8-23.6-.1 0-2 3.2-6.7 5.7-8.5 4.3-3 8.8-3.7 13.4-2zM554.4 249.5c-11.6 2.6-18.4 9.8-18.4 19.3 0 10.3 6.4 16.2 20 18.6 8.9 1.5 11 2.7 11 6.2 0 3.3-3.1 4.6-11.3 4.9-6.8.2-18.9-2.4-21.2-4.6-.9-.9-4.2-1.3-3.3-.4.3.3-.1 3.4-.8 6.8-.7 3.4-1.3 6.5-1.4 6.9 0 .6 1.3 1 8 2.3 10.5 2.2 21.9 2.4 30.3.6 11.5-2.5 18.9-11.3 18.3-21.7-.5-8.1-5.4-12.5-17.1-15.3-13.6-3.2-15.6-4.1-15.3-6.4.8-5.6 14.3-7.1 26.3-2.8 3.2 1.1 6.2 2.1 6.6 2.1.8 0 1.4-2.7 2.4-10.1l.7-4.5-7.1-1.3c-9.7-1.8-21.6-2-27.7-.6zM252.3 249.8l-3.2.3.4 5.7c.4 5.4.7 9.9 2.1 29.2.4 4.7.8 9.8.9 11.5.2 1.6.3 5.4.4 8.3l.1 5.3 10.2-.3 10.2-.3 8.5-19c4.6-10.5 8.6-19.2 8.8-19.4.9-1.2 1.2 1.7 1.8 16.4.4 8.8.8 17.3.9 19l.1 3 10.3.3 10.2.3 2.6-5.8c1.5-3.2 4.2-9.2 6.1-13.3 1.9-4.1 6.6-14.5 10.5-23 3.9-8.5 7.4-16 8-16.7 1.1-1.4-5.2-2-13.8-1.5l-5.1.4-2.3 5.6c-1.3 3.2-3.6 8.4-5.1 11.7-6.5 14.6-7.7 17.1-8.3 19.2-.4 1.3-1.1 2.3-1.5 2.3-.4 0-.7-1-.8-2.3 0-1.8-.4-8.7-1.7-32.4-.1-1.7-.5-3.5-.9-3.9-1-1-13.8-.7-14.8.3-.3.4-4.4 9.4-9 20s-8.5 19.1-8.7 18.9c-.3-.4-.5-3.2-1.7-27.1-.3-6.5-.7-12-.8-12.2-.5-.4-11.1-.8-14.4-.5zM433.8 249.8l-3.6.3-1.7 8.7c-.9 4.8-1.9 10-2.1 11.7-.3 1.6-.9 4.6-1.4 6.5-2.8 10.8-3 22.2-.6 26.8 2.4 4.7 7.9 7.5 14.5 7.5 7.2 0 12.1-1.6 17.7-5.9l4.4-3.4-.6 4-.7 4h9.7c10.8 0 9.5 1.2 11.6-10.5.6-3.3 1.5-8 2.1-10.5 1.3-6.5 4.7-23.9 5.4-28 .3-1.9 1-5.2 1.4-7.3 1-4.1 1.7-3.8-8.9-3.8-10.5 0-9.5-.9-11.4 8.8-1 4.9-1.9 9.9-2.2 11.3-2.5 13.8-4.4 18.7-8.9 23.2-3.7 3.7-9.9 4.7-13.4 2-3.4-2.5-3.4-5.2.9-27 1.8-9.5 3.1-17.5 2.8-17.7-.6-.6-10.3-1.1-15-.7zM239.6 362.4c-.7.6-2.2 6.3-3.4 12.6-1.2 6.3-4.6 24.4-7.7 40.2-3 15.8-5.5 28.9-5.5 29.2 0 .3 4.2.6 9.4.6h9.4l1.1-4.8c1-4.7 3.2-15.7 3.5-17.9.5-3 1.9-1.6 10.7 10.2l9.3 12.5h10.8c5.9 0 10.8-.1 10.8-.3 0-.2-5.6-7.5-12.5-16.3-11.2-14.4-12.3-16-10.7-17.2 4.8-3.6 26.8-21.1 29.5-23.4l3.2-2.8H275.2l-12.3 10.4c-6.8 5.8-12.5 10.3-12.7 10.1-.3-.3 1.2-8.7 6.3-34.5.1-.8.6-3.3.9-5.6l.7-4h-8.6c-4.8 0-9.2.5-9.9 1zM156.8 364.8c-8.1.3-8.8.4-9.3 2.5-.3 1.2-2.3 11.6-4.6 23.2-2.2 11.5-4.3 21.9-4.5 23-.3 1.1-.5 4.9-.6 8.5-.2 13.7 6.7 21.6 20.7 23.8 10 1.6 23.1 0 30.3-3.7 11-5.7 16.2-14.9 20.2-36.2 1.2-6.3 2.4-12.3 2.6-13.4.2-1.1 1.5-7.6 2.8-14.5 1.4-6.8 2.4-12.5 2.3-12.6-.5-.5-3.8-.6-11.8-.5l-8.6.1-1.3 6.2c-.7 3.5-1.4 7.4-1.7 8.8-3.5 20-7.9 39.4-9.7 42.9-2.6 5.4-7.6 8.3-14.1 8.3-5.1 0-9.2-2.2-10.4-5.5-.8-2.1-.6-9.8.3-14.2 1-4.7 7.6-38.3 8.1-41.4.3-1.9.8-3.8 1-4.2.7-1.1-2.4-1.4-11.7-1.1zM416.1 385.2c-2.7 1-6.6 3.4-8.7 5.3-2.1 1.9-3.9 3.5-4.1 3.5-.1 0 .2-1.2.7-2.6 2.3-6.1 1.9-6.4-8.3-6.4h-9.4l-1.3 5.7c-.7 3.2-1.5 7.1-1.7 8.7-.3 1.7-2.4 12.6-4.7 24.3l-4.2 21.3H393.7l2.7-13.8c3.4-17.4 5.1-22.6 8.7-26.7 4.4-5 14.1-6.9 21-4.1 1.3.6 1.9-.8 3.2-7.6.9-4.5 1.4-8.4 1.1-8.7-1.2-1.3-9.7-.6-14.3 1.1zM458.8 383.5c-.2.2-2.8.5-5.8.8-12 1.3-11.7 1.1-13.4 8.8-.9 3.7-1.6 7-1.6 7.3 0 .3 1.7-.1 3.8-.9 10.3-4 26-4.2 29.8-.3 1.4 1.5 2.6 6.7 1.6 6.9-.4 0-5 .2-10.2.4-12 .3-16.1 1-21.9 3.6-6.4 2.8-10.9 7.5-12.5 13-4.1 13.6 3.1 23.2 17.3 23.2 7.1 0 12.1-1.9 18.1-6.9l3.2-2.8-.7 4.2-.7 4.2h9.6c9.1 0 9.6-.1 10-2.3.5-2.2 2.2-11 3-15.7.2-1.4.9-4.5 1.4-7 1.3-5.4 2.3-12.2 2.7-17 .6-8.9-4.6-15.9-13.7-18.1-4.4-1-19.2-2.1-20-1.4zm11.6 36.7c-2.1 6.9-4.8 10.5-9.4 12.5-8.9 3.8-17.4-3.4-12.5-10.5 2.1-2.8 6.3-4 15.3-4.1 7.2-.1 7.3 0 6.6 2.1zM530.8 383.6c-.2.1-2 .5-4.1.8-11.7 1.8-18.7 9.4-18.7 20.1 0 9.9 6.6 15.6 20.9 18 6.4 1.1 10.1 3.2 10.1 5.8 0 3.7-4 5.2-13.4 5.1-5.9-.1-9.9-.8-14.9-2.7-3.7-1.3-6.9-2.2-7.1-1.8-.8 1.3-2.7 13.3-2.2 13.8.5.6 7.3 2 13.6 3 7.6 1.1 20.8.5 26.3-1.2 6.2-1.9 12-6.2 14.2-10.5 3.7-7.1 2.5-16.1-2.5-20.3-3-2.5-12.3-6-19.3-7.2-9.3-1.5-11.4-5.4-4.7-8.8 4.3-2.2 14.5-1.6 22.9 1.4 3.1 1 5.8 1.9 6.2 1.9.6 0 1.3-3.3 2.6-11.6l.4-3.1-7.8-1.3c-6.9-1.1-21.8-2.1-22.5-1.4zM590.7 384.6c-8.7 1.4-10.8 2-10.5 3.1.1.4-.1 2.3-.5 4-.4 1.8-1 4.6-1.3 6.3l-.5 2.9 5.8-2c6.7-2.3 18.1-3.2 23.5-1.8 4.3 1.1 6.7 4 6.1 7.2-.4 2.2-.9 2.3-8.4 2.2-23.7-.2-36.1 7-37.6 21.7-1.7 17.1 19.3 24.4 35.3 12.2l4.4-3.4-.6 4-.7 4h19.1l.6-3.3c1.9-9 6.5-33.6 6.9-36.7.6-4.7-1.5-12.6-4-14.9-2.7-2.5-7-4.7-11.3-5.7-5.5-1.2-17.8-1.1-26.3.2zm19.8 35.6c-1.7 5.6-5.1 10.2-8.9 11.9-7 3.1-14.6.6-14.6-4.8 0-6.5 4.8-9.2 16.3-9.3 7.7 0 7.8 0 7.2 2.2zM306.7 387.2c-.4 1.3-1.7 8.4-3.1 15.8-1.4 7.4-2.8 14.6-3.1 16-1.9 9.1-1 18.6 2.3 22.4 6.4 7.1 21.2 6.6 31-1.3 4.4-3.4 5.2-2.8 3.2 2.3l-1 2.6h9.9c9.4 0 9.9-.1 10.4-2.3.3-1.2 2.4-11.9 4.7-23.7 2.2-11.8 4.7-24.3 5.4-27.8l1.4-6.2h-9.9c-7.2 0-9.9.3-10 1.2 0 .7-.2 2-.4 2.8-.2.8-1.5 7.4-2.9 14.7-3.5 18.1-5.9 23.3-12.6 26.8-3.5 1.8-9.7 1.2-11.5-1.1-1.6-2-1.5-8.1.4-16.5.6-2.4 1.2-5.9 1.6-7.7.3-1.8 1.2-6.4 2-10.3 2.3-10.6 2.8-9.9-7.9-9.9-8.9 0-9.4.1-9.9 2.2z"/></svg>