<?xml version="1.0" standalone="no"?>
<!DOCTYPE svg PUBLIC "-//W3C//DTD SVG 20010904//EN"
 "http://www.w3.org/TR/2001/REC-SVG-20010904/DTD/svg10.dtd">
<svg version="1.0" xmlns="http://www.w3.org/2000/svg"
 width="700.000000pt" height="700.000000pt" viewBox="0 0 700.000000 700.000000"
 preserveAspectRatio="xMidYMid meet">
<metadata>
Created by potrace 1.14, written by Peter Selinger 2001-2017
</metadata>
<g transform="translate(0.000000,700.000000) scale(0.100000,-0.100000)"
fill="#000000" stroke="none">
<path d="M3269 6996 c-2 -2 -40 -6 -84 -10 -44 -3 -89 -8 -100 -10 -11 -2 -47
-7 -80 -11 -32 -4 -68 -9 -80 -11 -11 -2 -45 -8 -75 -14 -91 -17 -100 -19
-184 -41 -45 -11 -88 -22 -96 -24 -190 -44 -570 -201 -789 -327 -46 -26 -88
-48 -92 -48 -5 0 -9 -8 -10 -17 0 -10 -2 -27 -3 -38 -2 -11 -6 -56 -10 -99 -4
-43 -9 -87 -11 -96 -2 -9 -6 -41 -10 -71 -10 -88 -43 -286 -65 -399 -12 -58
-23 -116 -26 -130 -3 -14 -10 -43 -16 -65 -6 -22 -11 -44 -12 -50 -9 -45 -23
-97 -52 -201 -228 -816 -599 -1547 -1128 -2219 -39 -49 -73 -92 -77 -95 -3 -3
-32 -36 -64 -75 -32 -38 -76 -88 -97 -110 -31 -32 -37 -45 -32 -65 3 -14 7
-32 9 -40 28 -133 110 -393 174 -554 50 -124 164 -352 233 -464 35 -57 68
-111 73 -120 40 -70 253 -349 320 -418 201 -211 285 -290 427 -405 155 -124
130 -117 255 -75 119 39 333 101 403 117 25 6 52 12 60 14 50 12 209 47 230
51 14 3 57 11 95 19 67 13 100 19 183 30 20 3 48 8 62 10 37 8 178 25 240 31
30 2 73 7 95 9 223 27 903 27 1130 0 17 -2 62 -6 100 -10 106 -10 125 -12 245
-30 41 -6 263 -44 290 -50 14 -3 37 -7 52 -10 165 -30 539 -131 716 -192 85
-29 68 -36 225 90 147 119 298 262 417 396 36 41 70 79 75 85 62 66 240 317
318 448 56 93 152 278 191 368 16 36 36 83 46 105 63 143 161 465 184 605 2 8
-29 51 -68 95 -257 290 -511 642 -705 980 -51 88 -99 171 -107 185 -35 60
-197 396 -248 517 -127 299 -234 620 -312 935 -36 146 -89 403 -99 478 -3 25
-8 52 -10 60 -2 8 -6 35 -9 60 -10 79 -15 124 -20 155 -3 17 -8 62 -12 100 -4
39 -8 81 -9 95 -2 14 -3 31 -4 37 -1 17 -62 54 -226 138 -333 169 -695 288
-1035 340 -25 4 -52 9 -60 10 -8 2 -44 6 -80 10 -36 4 -74 9 -85 12 -24 6
-560 14 -566 9z m327 -1167 c188 -3 406 -42 615 -108 896 -287 1526 -1077
1614 -2021 6 -72 7 -332 0 -395 -18 -183 -34 -264 -90 -475 -2 -8 -17 -53 -33
-100 -252 -727 -865 -1292 -1611 -1486 -52 -13 -108 -27 -124 -30 -17 -2 -33
-7 -36 -9 -4 -2 -35 -6 -71 -10 -35 -3 -67 -8 -70 -10 -25 -15 -369 -22 -495
-10 -541 51 -1045 285 -1435 667 -36 35 -87 90 -115 123 -27 33 -52 62 -55 65
-17 15 -105 136 -152 210 -202 314 -327 678 -363 1065 -6 60 -7 362 -1 390 2
11 7 52 11 90 11 110 53 296 96 429 49 152 72 207 132 326 259 507 660 885
1173 1105 95 41 299 110 354 120 14 3 35 7 48 10 51 12 61 14 93 19 19 3 61
10 94 16 33 6 114 13 180 16 66 4 122 8 124 10 2 2 7 2 10 -1 4 -2 52 -5 107
-6z"/>
<path d="M2294 4390 c-24 -9 -64 -56 -64 -75 0 -6 -6 -25 -14 -41 -8 -16 -32
-74 -54 -129 -46 -116 -133 -307 -138 -302 -4 4 -9 105 -19 348 -7 175 -22
207 -90 195 -51 -10 -82 -59 -144 -228 -61 -165 -56 -152 -114 -283 -72 -160
-90 -253 -53 -277 23 -16 73 -8 94 15 11 12 37 69 57 127 20 58 48 138 62 178
14 40 33 89 44 110 l18 37 1 -55 c3 -94 14 -235 26 -310 16 -99 50 -125 115
-85 34 21 152 240 219 407 13 32 25 57 26 55 1 -1 4 -92 7 -202 6 -217 8 -235
32 -271 15 -24 54 -32 90 -18 21 8 45 56 41 81 -2 10 -7 48 -11 83 -3 36 -8
79 -11 95 -2 17 -7 116 -10 220 -6 225 -11 285 -27 306 -15 20 -56 30 -83 19z"/>
<path d="M3120 3960 c-102 -18 -186 -134 -176 -243 6 -62 57 -103 137 -111 84
-8 189 39 189 85 0 27 -25 29 -85 8 -59 -20 -109 -18 -134 6 -12 12 -9 16 20
28 19 8 37 15 41 16 5 0 41 18 80 39 51 26 75 45 82 63 12 34 1 76 -23 88 -32
17 -94 27 -131 21z m6 -122 c-37 -16 -72 -28 -77 -26 -5 2 4 18 21 35 33 33
72 45 104 30 16 -8 8 -14 -48 -39z"/>
<path d="M3393 3962 c-19 -12 -40 -71 -48 -132 -4 -30 -9 -66 -11 -80 -7 -52
8 -111 32 -126 28 -19 99 -25 132 -13 19 7 29 5 43 -7 18 -17 49 -13 67 9 6 7
13 32 17 57 14 99 26 174 29 179 2 3 7 27 10 52 7 54 -7 74 -48 63 -21 -5 -29
-16 -41 -58 -7 -28 -16 -67 -19 -86 -19 -126 -16 -119 -51 -126 -18 -3 -43 -4
-56 -2 -21 3 -24 8 -23 43 1 49 8 95 24 158 10 37 10 50 0 62 -13 16 -38 19
-57 7z"/>
<path d="M3795 3955 c-52 -18 -85 -57 -85 -99 0 -40 22 -64 94 -102 35 -18 56
-35 56 -46 0 -10 -3 -18 -7 -19 -5 0 -17 -2 -28 -5 -11 -2 -46 2 -78 8 -50 9
-61 9 -74 -5 -27 -26 -3 -64 49 -77 114 -31 241 31 232 114 -4 37 -27 62 -91
98 -60 34 -71 47 -52 59 24 15 96 11 103 -6 8 -21 43 -19 56 4 14 26 13 64 -2
79 -16 16 -124 14 -173 -3z"/>
<path d="M2524 3935 c-14 -22 -16 -45 -11 -153 9 -229 51 -247 147 -64 23 46
44 81 45 80 2 -2 5 -41 8 -87 4 -67 9 -87 26 -105 37 -37 67 -9 133 124 32 63
65 134 75 158 15 40 15 44 0 60 -13 12 -23 14 -43 6 -21 -7 -34 -29 -67 -106
-22 -54 -43 -96 -45 -93 -2 2 -5 42 -6 90 -3 97 -16 122 -59 111 -19 -4 -35
-27 -71 -101 -25 -52 -47 -95 -49 -95 -1 0 -2 39 -1 88 0 48 -4 93 -9 100 -16
21 -55 14 -73 -13z"/>
<path d="M2644 3338 c-12 -5 -28 -25 -37 -43 -14 -30 -56 -228 -73 -349 -26
-185 7 -307 99 -360 42 -24 126 -45 163 -40 73 10 100 17 137 34 54 26 84 52
134 120 65 87 117 204 137 306 2 11 11 49 20 87 33 141 40 211 23 225 -30 25
-66 22 -101 -11 -29 -27 -35 -43 -46 -107 -42 -262 -115 -435 -208 -492 -73
-45 -185 -15 -211 57 -17 49 -13 139 14 291 43 236 45 253 19 278 -17 18 -39
19 -70 4z"/>
<path d="M3328 3093 c-9 -10 -19 -40 -22 -68 -4 -27 -11 -72 -16 -100 -5 -27
-11 -63 -13 -80 -3 -16 -15 -78 -27 -138 -18 -86 -20 -110 -10 -122 28 -34 80
-4 87 50 6 43 21 73 42 85 18 9 24 4 53 -42 19 -29 39 -65 46 -80 14 -33 50
-38 75 -10 22 25 15 52 -34 134 l-42 69 24 17 c65 45 100 85 97 111 -5 47 -45
39 -122 -24 -38 -30 -77 -60 -88 -66 -17 -9 -19 -8 -14 8 8 30 26 135 32 197
4 44 3 61 -7 67 -22 14 -45 10 -61 -8z"/>
<path d="M3674 2930 c-30 -12 -55 -98 -61 -212 -5 -94 -5 -97 20 -122 14 -14
36 -27 49 -27 13 -1 30 -2 38 -3 8 0 30 2 49 6 19 4 41 2 51 -4 9 -6 29 -8 43
-4 21 5 26 14 32 48 3 24 13 86 22 138 9 52 17 113 17 135 1 36 -2 40 -25 43
-31 4 -56 -22 -64 -68 -4 -19 -13 -71 -21 -114 -7 -43 -15 -81 -17 -83 -3 -2
-26 -5 -53 -6 l-49 -2 -3 46 c-2 26 4 77 13 113 8 37 15 76 15 86 0 25 -29 40
-56 30z"/>
<path d="M4785 2923 c-93 -26 -134 -105 -81 -158 13 -13 46 -35 74 -49 28 -14
53 -30 56 -35 18 -28 -86 -47 -131 -23 -35 19 -81 -17 -67 -52 13 -33 126 -53
191 -33 51 16 93 57 99 98 5 30 2 40 -22 64 -16 15 -51 40 -79 54 -65 34 -66
55 -2 59 32 2 52 -2 62 -12 36 -36 92 37 61 79 -16 21 -101 25 -161 8z"/>
<path d="M4028 2918 c-31 -11 -33 -16 -48 -113 -6 -38 -13 -81 -15 -95 -3 -14
-7 -50 -11 -81 -6 -52 -4 -58 14 -64 12 -3 30 -1 42 5 21 11 23 17 40 125 6
39 18 80 26 92 15 24 93 69 96 56 0 -5 2 -12 3 -18 2 -5 3 -20 4 -32 1 -18 7
-23 30 -23 38 0 51 18 58 78 7 66 -13 87 -75 78 -25 -3 -58 -13 -75 -21 -27
-13 -31 -13 -46 4 -13 15 -21 17 -43 9z"/>
<path d="M4401 2905 c-88 -42 -142 -122 -143 -214 0 -82 43 -124 126 -124 25
0 59 6 76 13 27 11 33 10 50 -5 17 -15 24 -16 46 -6 25 11 26 15 19 59 -3 26
-8 56 -9 67 -2 23 9 84 25 137 10 30 9 41 -2 54 -34 41 -121 50 -188 19z m91
-81 c-1 -11 -5 -51 -8 -90 -6 -65 -9 -71 -34 -81 -34 -13 -80 -8 -92 9 -15 22
-2 94 22 128 37 52 118 76 112 34z"/>
<path d="M5121 2910 c-60 -20 -116 -69 -139 -120 -22 -49 -24 -138 -4 -172 27
-47 101 -65 167 -42 36 12 44 12 72 -3 30 -16 33 -16 52 1 13 12 17 25 13 39
-12 41 -5 181 11 219 14 34 14 39 0 54 -39 39 -103 48 -172 24z m76 -89 c-3
-14 -9 -54 -13 -88 -8 -71 -19 -86 -72 -87 -31 -1 -39 3 -50 28 -12 23 -12 36
-2 69 13 45 59 94 93 99 45 7 49 6 44 -21z"/>
<path d="M1325 6243 c-544 -439 -934 -998 -1149 -1648 -33 -100 -80 -266 -91
-326 -3 -13 -12 -58 -20 -99 -8 -41 -17 -89 -19 -105 -3 -17 -7 -45 -11 -64
-3 -19 -8 -55 -10 -80 -3 -25 -8 -82 -12 -126 -14 -147 -7 -654 10 -671 1 -2
25 25 52 59 27 34 52 64 55 67 3 3 21 25 40 50 19 25 37 47 40 50 3 3 35 46
70 95 36 50 67 92 70 95 8 7 183 271 196 295 6 11 23 40 39 65 91 143 271 487
351 672 20 46 44 101 54 123 28 62 150 392 150 404 0 6 4 19 10 29 37 67 190
677 215 862 3 25 8 52 10 60 2 8 7 40 10 70 3 30 8 62 10 70 9 35 14 110 8
110 -5 0 -39 -26 -78 -57z"/>
<path d="M5595 6258 c3 -24 7 -54 10 -68 3 -14 7 -45 10 -70 3 -25 10 -70 15
-100 5 -30 12 -71 15 -90 3 -19 10 -53 15 -75 5 -22 11 -55 15 -72 3 -18 12
-63 21 -100 9 -38 17 -75 19 -84 44 -218 226 -759 336 -997 16 -35 29 -66 29
-69 0 -2 42 -89 93 -191 175 -349 367 -661 580 -942 79 -104 221 -279 224
-276 15 15 25 556 12 666 -4 36 -10 90 -13 120 -4 30 -8 66 -10 80 -2 14 -7
48 -11 75 -3 28 -8 58 -11 67 -5 18 -11 46 -20 93 -12 70 -66 270 -100 371
-205 618 -573 1160 -1080 1589 -79 67 -140 115 -148 115 -3 0 -4 -19 -1 -42z"/>
<path d="M3219 746 c-2 -2 -53 -7 -114 -10 -162 -10 -314 -25 -420 -42 -16 -3
-49 -7 -73 -10 -144 -15 -545 -104 -841 -188 l-45 -12 35 -21 c148 -90 435
-218 629 -281 115 -38 292 -88 344 -98 11 -2 32 -6 46 -9 51 -11 246 -44 290
-49 251 -32 698 -28 917 8 21 4 52 8 68 10 46 6 195 35 240 47 22 6 48 13 57
14 83 16 291 84 450 146 118 46 425 195 456 221 11 10 -7 18 -85 41 -54 15
-109 30 -123 33 -14 2 -36 9 -50 14 -45 17 -355 82 -545 115 -77 13 -294 39
-420 50 -33 3 -78 8 -100 11 -49 6 -711 15 -716 10z"/>
</g>
</svg>
