<svg version="1" xmlns="http://www.w3.org/2000/svg" width="933.333" height="933.333" viewBox="0 0 700.000000 700.000000"><path d="M331.8 6.5c-.2.2-4.6.6-9.8.9-9.5.7-11.2.9-20.5 2.2-5.4.7-6.5.9-14 2.4-2.7.5-6.1 1.2-7.5 1.4-25.1 4.8-59.9 17.2-86.3 30.9-12.1 6.3-13.6 7.3-12 8.4 1 .7 2.4 1.7 3 2.3.7.6 2.4 1.5 3.8 2s2.5 1.5 2.5 2.1c0 .7.3.9.7.6.3-.4 1.3-.1 2.1.6 1.3 1 1.4.9.8-.1-.5-.9-.1-1.5 1.3-1.9 1.2-.3 2.1-1 2.1-1.5s.4-.6 1-.3c.5.3 1 .1 1-.6 0-.8.5-.7 1.7.2 1.3 1.1 1.5 1.1.9.1-.5-.9-.1-1.5 1.3-1.9 1.2-.3 2.1-1 2.1-1.5s.5-.6 1-.3c.6.3 1.7-.1 2.6-.9.9-.9 2-1.4 2.5-1.1.5.4.9.2.9-.4 0-.5 1-1.3 2.3-1.7 1.2-.3 4.1-1.5 6.5-2.5 7.9-3.6 20-7.8 20.6-7.2.3.4.6.1.6-.6 0-.8.7-1.1 1.5-.7.8.3 1.5 0 1.5-.6s.3-.9.6-.5c.3.3 2.6-.3 5.1-1.4 2.4-1 5.5-1.9 6.8-1.9 1.3 0 2.6-.4 2.9-.9.6-.9 13.1-3.7 15.6-3.4.8.1 1.7-.2 2-.7.3-.5 1.9-1 3.5-1.2 2.3-.2 3 .1 2.9 1.4-.1 1 .2 1.5.7 1.2.5-.3.8-1.3.7-2.2-.3-1.8 2.3-2.4 3.4-.7.5.6.8.6.8-.2 0-.6 1.5-1.5 3.3-1.9 3.1-.7 4.5-.9 13.7-1.8 2.5-.3 4.5-.6 4.5-.6 0-.8 8.4-.5 9.4.3 1.2.9 1.3.9.7-.1-.5-.8.2-1.2 2.3-1.2 3.8 0 4.7.3 4.3 1.3-.1.5.2.6.8.2.6-.3.8-1 .5-1.5-.3-.5 1.5-.8 4-.6 2.5.1 4.7-.2 4.9-.8.3-.8.5-.7.5 0 .1 1 5.8 1 6.8 0 .3-.2 1.8 0 3.4.4 1.8.5 3.1.5 3.5-.2.4-.6 1-.5 1.5.3.6.9.9 1 .9.2s.9-.9 2.8-.5c1.5.4 6 .7 9.9.7 4 0 7.3.2 7.3.5s2.6.5 5.8.6c4.2.1 5.6.4 5.4 1.4-.2 1 0 1.1 1 .3 2-1.6 23.4 1.8 23 3.7-.2 1 0 1.1 1.1.2 1.4-1.2 2.2-1.1 6.5.4.9.4 2.7.8 4 1 5.6.7 13.1 2.8 12.7 3.5-.3.4.4.5 1.5.2s2-.1 2 .5.8.8 1.9.5c1-.3 2.2 0 2.5.6.4.5 1.3.8 2.1.4.8-.3 1.5.1 1.5.8 0 .7.3.9.7.6.3-.4 1.2-.2 2 .4.7.6 1.3.9 1.3.6 0-.8 9.1 1.9 12.4 3.7 1.4.7 2.3 1.6 1.9 2-.4.4.1.4 1 0 1.2-.4 2.3 0 3.3 1.2.9 1.1 1.3 1.3.9.6-.3-.6-.1-1.2.4-1.2.6 0 1.1.5 1.1 1.1 0 .5.3.8.8.6 1.2-.8 5.4 1.2 4.7 2.3-.3.5 0 .7.8.5 1.6-.7 8.7 2.1 8.7 3.4 0 .5.6.8 1.3.7 2.3-.2 16.9 7.6 15.6 8.4-.7.5-.1.7 1.4.7 1.5-.1 2.7-.7 2.7-1.2 0-.6.5-.3 1 .5.8 1.3 1 1.2 1-.4 0-1.3.5-1.6 1.7-1.2 1 .4 1.4.4 1 0-.4-.4 1.1-1.9 3.3-3.4 4.8-3.2 5.1-2.9-8-9.8-18.2-9.8-40.4-18.8-61-24.9-6.3-1.8-12.4-3.5-13.5-3.7-1.1-.2-3.8-.9-6-1.5-3.8-1-16-3.4-23-4.5-2.7-.4-9.6-1.4-24-3.2-4.8-.6-48.1-1.4-48.7-.9z"/><path d="M308 24c-.9.6-1 1-.3 1 .6 0 1.5-.5 1.8-1 .8-1.2.4-1.2-1.5 0zM341.6 27.9c-.3.5-4.5.9-9.3 1-4.9.2-9.9.4-11.3.6-1.4.2-5.2.6-8.5 1-5.6.6-7.4.9-15 2.1-8.6 1.3-24.8 4.8-31 6.5-3.8 1.2-9 2.6-11.5 3.3-6 1.7-21.4 7.3-26.7 9.7-2.4 1-4.5 1.9-4.9 1.9-1.4 0-26.8 13-34.9 17.9-4.9 2.9-10.2 6.1-11.7 7-5.5 3.3-20.9 14.3-24 17.2-1.8 1.6-3.5 2.9-3.8 2.9-1 0-10.8 9-24.5 22.5-12.1 11.9-24.1 25.8-32.5 37.7-1.8 2.6-3.6 4.5-4 4.3-.4-.2-.7.1-.7.8 0 .7-2.5 5-5.5 9.7-10.1 15.7-23.2 41-27.8 54-.7 1.9-1.9 4.8-2.6 6.5-3.2 7.4-10.7 32.8-12.1 41-.3 1.6-.8 3.2-1.1 3.5-.4.3-.7 1.3-.8 2.2-.3 6-.5 6.9-1.5 6.2-.8-.4-.8 0 0 1.5.7 1.1.8 2.1.4 2.1s-.8 1-.9 2.2c-.1 3-1.3 13.7-1.9 16.3-.2 1.1-.4 3.5-.4 5.3-.1 2.2-.5 3.1-1.3 2.6-.7-.5-.8-.3-.3.7 1.1 1.6 1.4 4.9.6 4.9-.9 0-.5 41.5.4 43 .6.9.4 1.1-.4.5-1-.6-1.1-.3-.3 1.1.5 1.1 1 4.3 1.1 7.3.1 2.9.3 5.6.5 6 .6.9 1.8 12 2 17.3 0 2.5.4 4.4.9 4.1.7-.4.9 1.1 1 6.4.1 1.3.5 2.3 1 2.3s.7 1.3.5 3c-.2 1.6 0 3.1.5 3.3.5.1 1.2 2 1.7 4.2.4 2.2 1.1 5.5 1.6 7.4.6 2.7.4 3.2-.6 2.6-.9-.5-1.1-.4-.6.4.4.6 1.1.9 1.6.6.5-.3 1.2.9 1.5 2.7.4 1.8 2.3 7.7 4.1 13.2 1.8 5.4 3.1 10.4 2.7 11-.3.6-.3.8.2.4 1-.9 3.5 3.7 3.7 6.9.1 1.2.6 2.3 1 2.3.7 0 2.3 4.1 2 5.2-.1.5.3.8.9.8.6 0 .9.9.6 2-.3 1.1-.1 1.8.4 1.4.5-.3.9.2.9 1 0 .9.5 1.6 1.1 1.6.5 0 .8.4.4.9-.3.5 0 1.3.6 1.6.5.4.8 1.4.5 2.2-.3.8-.1 1.1.4.8.6-.3 1.1-.1 1.1.4.1.6.2 1.5.3 2.1 0 .5.9 1.9 1.8 3 1 1.1 1.8 2.7 1.8 3.4 0 .8.5 1.6 1 1.8.6.2 1.2 1.3 1.3 2.5 0 1.2.3 2 .5 1.8.5-.5 7.2 10.3 7.2 11.5 0 .5.3 1 .8 1.2.8.4 6.7 9.2 6.3 9.6-.1.1.4.9 1.1 1.6.7.8 2.2 2.6 3.3 4.2 1.1 1.5 3.5 4.8 5.3 7.1 1.8 2.4 3 4.9 2.6 5.5-.4.6-.3.8.4.4 1.3-.8 5.4 4.3 4.5 5.7-.3.5-.1.7.4.4 1.1-.7 12 11 11.6 12.4-.2.5.3.8 1 .6.6-.1 1.1.4 1 1-.2.7.3 1.2 1 1 .6-.1 1.1.4 1 1-.2.7.3 1.2 1 1 .6-.1 1.1.4 1 1-.2.7.1 1.3.5 1.3 1.5 0 7.7 6.2 7.4 7.3-.2.7-.1.9.3.5.9-.8 4 2.1 4 3.6 0 .6.5 1.1 1 1.2 2.3.2 4.5 1.7 4.5 3.1 0 .8.4 1.2.9.9 1.2-.8 3.4 2.1 2.6 3.3-.3.6 0 .9.8.6.7-.3 2.4.4 3.8 1.6 1.3 1.2 3.4 2.8 4.6 3.6 1.3.8 2 2 1.6 2.6-.4.6 0 .8.9.4 2-.7 3.8 1.1 3.1 3.2-.4 1.3-.3 1.3.5.2s1.4-.9 3.1.8c1.1 1.1 2.2 2 2.4 1.9.8-.7 9.6 6.5 9.1 7.4-.4.7-.2.8.5.4 1.2-.8 10.1 4.3 10.1 5.7 0 .5.5.5 1 .2.6-.3 1-.1 1 .5s.4.8 1 .5c.5-.3 1-.3 1 .2 0 .4 1.8 1.7 4 2.7 2.2 1 3.7 2.2 3.5 2.6-.3.4.3.7 1.3.6.9 0 1.6.4 1.5 1.1-.2.8.4 1 1.4.6 1.2-.5 1.4-.3.8.7-.5.8-.4 1.1.3.6 1.2-.7 8.3 2.4 7.7 3.4-.2.3.8.7 2.2.8 1.5.1 3.5 1 4.6 2 1 .9 2 1.5 2.1 1.3 0-.2 1.9.4 4.1 1.3 6.3 2.8 7.8 3.4 10.3 4.1 2 .6 2.1.9 1 2.3-1.2 1.5-1.1 1.6.4.4 1.4-1.1 2.5-1 6.7.4 2.7 1 4.7 2.2 4.4 2.8-.4.5-.1.6.6.2.7-.5 2.4-.3 3.9.2 1.5.6 3.6 1.3 4.7 1.8 1.1.4 2.9.9 4 1.1 1 .2 2.2.8 2.6 1.4.4.8.8.7 1.1-.1.3-1 .7-.9 1.9.2.8.8 2 1.3 2.8 1 1-.3 1.1 0 .5.9-.6 1.2-.5 1.2.8.1 1.1-.9 1.8-1 2.3-.2.3.6 1.1.8 1.6.5.5-.4.9-.2.9.3 0 .6.9.8 2 .5 1.1-.3 2-.1 2 .5 0 .5.8.9 1.8.9 4.3 0 6.3.4 5.9 1-.3.5 1.4.9 3.6 1 3.8.1 9.2.9 9.2 1.3 0 .1 2.2.4 5 .7 2.7.2 5.3.9 5.6 1.5.4.6.8.5 1.2-.3.4-1.1.9-.9 2.2.6.9 1.1 1.4 1.4 1 .8-.9-1.9 7.7-1.2 9.3.7.8.8 1.1.9.7.2-.5-1 1.2-1.1 8.2-.6 9.5.7 32.1.7 36.6.1 1.5-.3 3 0 3.3.5.3.5 1.1.5 1.7 0 .7-.5 2.3-.9 3.7-1 1.4-.1 3.6-.4 4.8-.7 1.7-.4 2.2-.2 1.6.6-.5.8-.3.9.7.3.8-.4 1.9-.9 2.5-1 2.8-.4 13.1-1.7 15-1.9 1.1-.1 2.5-.5 3.2-.9.7-.4 1.2-.5 1.2-.2s1.2.1 2.6-.4c1.9-.8 2.3-.7 1.8.3-.5.8-.2.8.9-.2 1.4-1.1 2-1.1 3.3-.1 1.2 1.1 1.5 1.1 1.2 0-.2-.8.5-1.6 1.6-1.8 1.3-.3 1.6 0 1.1 1-.3.7.1.4.9-.6.9-1.1 1.6-1.7 1.6-1.3 0 .3 1.4.1 3-.5 2.3-.7 3.4-.7 4.5.2 1.3 1.1 1.4 1 .9-.3-.4-1.2.3-1.7 2.8-2.2 1.8-.3 4-.7 4.8-.9.8-.2 2.3-.7 3.4-1.1 1.1-.5 2.7-.3 4 .5 2 1.2 2 1.2.6-.5s-1.3-1.8.8-1.3c1.2.4 2.2.2 2.2-.2 0-1.1 6-3.1 7.1-2.4.5.3.9.1.9-.4s1.9-1.5 4.3-2.1c2.3-.7 4.8-1.8 5.6-2.5 1.2-.9 1.3-.8.6.4-.7 1.2-.6 1.3.7.3.8-.7 1.9-.9 2.3-.5.5.4.5.2.2-.4-.5-.8 6-4.1 7-3.6.2.1 3.6-1.6 7.8-3.8 4.1-2.1 7.5-3.7 7.5-3.4 0 .3 1.2-.3 2.8-1.4 1.5-1.1 5.4-3.4 8.7-5.1 6.5-3.4 6.3-3.2 18.2-10.8 4.6-2.9 8.3-5 8.3-4.8 0 .3.9-.3 1.9-1.3 4.1-3.7 5.2-4.3 6.3-3.6.7.4.8.3.4-.4-.3-.6.2-1.6 1.3-2.1 1.1-.6 2.1-.8 2.4-.3.2.4.2.1.1-.5-.4-1.4 3.5-3.9 5.1-3.4.6.1.7 0 .3-.4-1.1-1.1 2-3.7 3.3-2.9.7.4.9.3.6-.3-.8-1.3 2.9-4.7 4.2-3.8.7.3.8 0 .5-.9-.3-.9-.1-1.6.4-1.6.6 0 2.3-1.1 3.8-2.5 1.4-1.3 3.2-2.2 3.8-1.8.6.3.8.3.4-.2-1.1-1.1 1.2-3.6 2.5-2.8.5.3.7.2.4-.4-.7-1 8.3-9.9 9.6-9.5.4.1.7-.4.7-1.1 0-1.9 6.6-8 7.9-7.3.6.4.9.1.6-.6-.7-1.7 4.8-8.1 6-7 .4.4.5.2.1-.5-.3-.6.4-1.9 1.6-2.7 1.2-.9 1.9-1.6 1.4-1.6-.4 0 .5-1.5 2-3.4 4.1-4.7 5.6-6.6 8.2-10.4 1.3-1.8 2.7-3 3.2-2.7.4.3.7-.3.6-1.2 0-1 .4-1.8 1.1-1.8.6 0 1.5-.4 2-.9s.3-.6-.4-.2c-2.1 1.2-1.5-.3 2.6-5.9 2.1-3 4.2-5.1 4.6-4.7.5.4.5.2.1-.5-.3-.6 1.8-5.1 4.7-10 3-4.8 7.7-13.4 10.4-19 2.8-5.6 5.3-9.9 5.7-9.5.4.3.4-.2 0-1.2-.6-1.5-.4-1.7.6-1.1.8.5 1.1.4.7-.2-.4-.6.2-3.1 1.3-5.7 1.2-2.5 2-4.7 1.9-4.8-.1-.2.4-1.4 1.1-2.8.8-1.4 1.5-3 1.7-3.5.4-1.6 6.3-18.9 7-20.5.4-.8.7-2.2.8-3 .1-.8.6-2.6 1.1-4 1-3.1 1.1-3.6 1.3-5.6 0-.8.4-1.3.9-1.1.4.3.8-1.5.8-4 .1-2.5.6-4.8 1-5.2.5-.3 1-1.7 1.1-3.1.1-1.4.5-4.1.8-6 .3-1.9.6-4.3.6-5.3s.5-1.5 1.1-1.1c.6.4.8.2.4-.4-.6-1-.1-5.1 2.1-19.7.9-5.8.9-62.6 0-67-.3-1.7-.8-5.3-1.1-8-1.5-12.7-1.9-16-2.8-18.5-1.2-3.3-2.7-13.3-2.2-14.1.3-.5.1-.9-.4-.9s-1.5-2.6-2.2-5.8c-1.3-6.1-7.2-24.4-11.5-35.7-6.5-17.3-26.9-55-36.2-67-1.3-1.7-2.7-3.5-3.1-4-3.1-4.3-9.9-13.2-10.7-14.1-.5-.6-3.5-4-6.5-7.5-7.2-8.4-21.9-23.1-29.9-29.9-3.5-3-6.9-6-7.5-6.5-3.2-3-22.3-16.8-30.4-22-11.9-7.8-13.3-8.6-28.2-16-13.7-6.9-17.9-8.8-32.8-14.6-7.8-3-22.7-7.6-32.7-10-11.7-2.8-11.5-2.8-17.7-3.9-3.2-.6-7-1.2-8.5-1.5-1.6-.3-5-.8-7.8-1.1-2.7-.3-6.1-.7-7.5-1-4.7-.7-22.5-1.7-32.2-1.8-5.3 0-9.4-.4-9.2-.8.3-.4.3-.8 0-.8s-.7.4-1 .9zm9 31.7c-.5 1.4-.4 1.5.8.5 1.9-1.6 17.8-1.3 16.9.3-.4.6.1.5 1-.3.9-.7 1.7-1 1.7-.5s3.2 1 7.2 1.2c3.9.1 7.8.8 8.6 1.5 1.3 1 1.4.9.7-.2-.6-1.1-.4-1.3 1.1-.7 1 .4 2.8.9 3.9 1.1 1.1.2 5.4.9 9.5 1.5 4.1.7 8 1.5 8.5 1.9.6.4 2.6.8 4.5 1 1.9.2 4 1 4.8 1.9.7 1 1 1.1.6.3-.5-1-.1-1.1 1.7-.6 1.3.4 2.6 1 2.9 1.4.3.3 1 .6 1.5.7.6 0 2.7.4 4.8.8 3.2.7 3.6 1 2.5 2.4-1.2 1.3-1.1 1.4.8.2 2.5-1.5 5.9-.6 4.8 1.2-.5 1-.4 1 .6.1 1.5-1.4 4.3-.6 3.3 1-.3.6-.1.7.6.3 1.6-1 5.3.3 4.5 1.6-.4.7-.2.8.5.4 1.5-1 8.3 1.3 7.6 2.5-.4.5 0 .6.8.4 1.7-.7 6.9 1.9 5.9 3-.4.5-.1.5.6.1 1.6-.9 24.4 10.2 23.6 11.5-.3.5.2.6 1 .3.9-.3 1.8 0 2.1.8.3.8 1.2 1.5 1.9 1.5 2.1 0 13.7 7.4 13.1 8.3-.3.5 0 1.2.6 1.6.8.4.9.3.5-.4-1.2-2 .7-1.3 3.7 1.2 1.5 1.3 2.4 2.6 2 2.8-.4.3-.2.3.6.1 1.5-.4 14.1 8.9 20.3 14.9 2.1 2.1 3.8 3.4 3.8 3.1 0-.4 1.5.9 3.4 2.9s3.6 3.4 3.8 3.2c.3-.2 1.1.7 1.8 2.1.7 1.4 1.7 2.5 2.2 2.5.5 0 .6.5.2 1.2-.5.7-.3.8.5.4 1.9-1.2 4.2 2.5 2.8 4.4-.9 1.2-.9 1.3.3.2 1.9-1.6 3-1.5 3 .4 0 .8.5 1.2 1 .9.6-.3 1-.1 1 .5 0 .7 1.4 2.5 3.1 4.1 1.7 1.6 2.8 3.3 2.4 3.9-.3.6 0 .7.9.4.9-.3 1.6-.1 1.6.5s1.8 3 4 5.3c2.2 2.4 4 4.6 4 5 0 .4.8 1.5 1.8 2.5 3.7 3.8 7.3 9.4 6.6 10.5-.4.6-.3.8.3.5.6-.4 1.6 0 2.3.8.7.8.9 1.5.4 1.5-.4 0 0 .6.8 1.2 2.4 1.9 14.9 22.9 14.2 23.9-.3.5-.1.9.4.9 1 0 7.7 12.6 7.7 14.5 0 .5.6 1.6 1.3 2.3.7.8 1 1.7.7 2.2-.3.5-.2 1 .3 1.2 1.3.5 5.9 12.1 5.6 14.1-.1.9.1 1.5.6 1.2.8-.5 5.1 10.9 5.5 14.5.1.8.7 2.8 1.4 4.3.6 1.6.9 3.2.6 3.7-.3.5-.1 1 .5 1.2.5.1 1.1 1.9 1.2 3.8.2 1.9.7 3.8 1.1 4.1.5.4 1 2.4 1 4.7.1 2.2.5 3.8.8 3.6.4-.2.9 1.3 1.2 3.4.3 2 .8 4.8 1.1 6.2.3 1.4.7 4.2 1 6.4.4 2.1.9 4.2 1.2 4.7.3.5 0 .9-.7.9-.9 0-.9.3 0 1.4.7.8 1.3 4.9 1.4 9 .1 4.2.4 7.6.7 7.6.8 0 .5 5.4-.4 6.9-.6 1-.5 1.2.3.7.9-.6 1.2 3.1 1 15.6-.1 8.9-.5 17.1-1 18-.6 1-.5 1.9.1 2.3.6.4.8 1 .6 1.3-.2.4-.7 3.9-1.1 7.7-.3 3.9-.9 7.8-1.1 8.7-.3 1-.7 2.8-.9 4-.2 1.3-.7 4.5-1.1 7.3-.4 2.7-.8 5.2-.9 5.5 0 .3-.4 2.3-.9 4.5-.6 3.4-4.9 19.8-6 23-.2.5-.4 1.3-.5 1.7-.3 1.4-7 19.9-8.7 23.6-.8 2-2.2 5.2-3 7l-1.4 3.3-17.8-.5c-18.9-.6-19.9-.7-22.1-2-.9-.6-1.2-.5-.7.2.4.7-3.1 1-11.4 1-6.7-.1-12.3-.5-12.6-1-.3-.4-1.1-.5-1.7-.1-1.7 1-16.4.5-18.6-.7-1.1-.5-2.2-.5-2.7 0s-1-.2-1-1.8c-.3-5.7-.8-6.8-2.7-6.7-2.3.2-4.2 3.1-2.7 4 .6.4.7 1.2.4 1.8-.4.7-.4.9.1.5.8-.8 3.5.9 3.5 2.2 0 .4-4.2.6-9.2.4-5.1-.1-11-.3-13-.3-3.4-.1-3.8-.4-3.6-2.6.1-1.4.6-2.5 1-2.5s.8-.5.8-1.2c0-.6-.7-.4-1.8.5-1 1-2.2 1.4-2.7 1-.4-.5-.5-.2-.1.4.4.7.2 1.3-.4 1.3-.6 0-.8.5-.4 1.1.4.8.9.7 1.6-.2.8-1.1.9-1.1.5.1-.6 2.3-42.3 1.9-44.6-.4-.9-.9-1.1-1.6-.4-1.6.6 0 1.3.3 1.6.7.2.5.2.1-.1-.7-.3-.8-.6-3.1-.8-5-.1-1.9-.3-3.5-.4-3.5-.2 0-.8-3.2-1.5-8.5-.3-2.5-1-4.9-1.6-5.5-.5-.5-.9-1.9-.9-3.2 0-1.3-1-2.9-2.5-3.9-1.4-.9-2.5-2.3-2.5-3.1 0-.8-.5-1.1-1.1-.8-.6.4-1.3-.2-1.6-1.4-.3-1.2-1.3-2.1-2.2-2.2-.9 0-5.7-.2-10.6-.4-5-.2-10.9-.8-13-1.3-6.5-1.8-13.5-.4-18.1 3.5-3.2 2.7-5.7 7.1-5 8.8.3.9.2 1.4-.3 1.1-.5-.3-1.1 1-1.3 2.8-.2 1.9 0 3.2.4 3 .4-.3.8-1.2.8-2.1 0-.9.3-1.4.6-1.1.7.8 1.6 5.4 1.6 9.1.1 1.9.5 2.6 1.4 2.3.8-.3 1.4-.1 1.4.4 0 .6-.6 1-1.2 1-.8 0-1.3 1.2-1.3 2.9 0 1.6.3 2.7.8 2.4.4-.2.7.1.7.7s.5.8 1.3.4c.8-.5.8-.3-.2.9-1.1 1.4-1.1 1.8.5 2.4 1.1.3 2.3 1.1 2.7 1.7.5.7.7.3.4-.9-.2-1.1-.8-1.9-1.5-1.8-.7.2-.9-.4-.5-1.4.4-1.1.8-1.3 1.1-.5.5 1.6 2.2 1.6 2.2 0 0-.6 1-2.2 2.2-3.5 2-2.1 2.2-2.1 3.4-.5.8 1 1.3 1.2 1.4.4 0-.6.9-1.2 2.1-1.2 1.3 0 1.8.4 1.3 1.2-.6.9-.3.9.9-.1.9-.7 2.4-1.1 3.2-.7.9.3 1.4.2 1.1-.3-.3-.4.6-1.3 2.1-2 2.3-1.1 2.5-1 1.4.3-1 1.2-.9 1.4.6 1 1.5-.4 1.9 0 1.9 2 0 1.3-.4 2.2-.8 2-.5-.3-.5-1-.2-1.6.5-.7.2-.8-.5-.3-.7.4-1.1 1.8-.8 3.1.2 1.3 0 2.4-.4 2.4-.5 0-.9.4-.9 1 0 .5.8.7 1.8.4 1.6-.5 1.6-.5.1.8-1.9 1.5-20.4 1.9-22.8.4-.7-.5-1.6-.5-2 0-.3.5-11.2 1.1-24.1 1.3-12.9.2-29.8.4-37.5.6-7.7.1-14.4-.1-15-.4-1.5-.8-3.5-1-3.5-.3 0 .4-1.3.7-2.9.7-1.7 0-2.7-.4-2.3-1 .3-.6-.1-.5-.9.2-1.6 1.3-40.3 1.7-39.5.4.3-.4-.1-.8-.9-.8s-1.2.4-.9.9c.3.4-2.2.6-5.5.4-3.4-.2-6.1 0-6.1.3 0 .9-68.1.6-70.6-.2-1.5-.5-2.1-1.6-2.2-3.7 0-1.6-.5-3.8-1.1-4.9-1.5-2.7-1.4-4.4.2-3.5.8.6.8.3-.1-.9-1.9-2.2-.6-4.2 1.6-2.5 1.3 1.1 1.4 1.1.7-.1-.6-1-.4-1.2.4-.7.7.5 1 1.5.7 2.3-.4.9-.2 1.1.6.7.8-.5.9-.2.5 1-.5 1.1-.3 1.5.5 1s.9-.1.4 1.2c-.4 1-.4 1.5 0 1.2.3-.4 1.4.1 2.3 1.2 1.8 2.1 8.5 6 10.4 6 .7 0 2-.9 3-2 1-1.2 1.2-2 .5-2-.6 0-.8-.3-.4-.7.7-.7 2.3-1.1 6.2-1.5 1.5-.2 2-.7 1.6-2.1-.4-1.4-.7-1.6-1.3-.5-.7 1-.9 1-.9-.2-.1-1.1-.4-1-1.7.5-1.3 1.6-1.5 1.7-1 .2.5-1.2.1-1.7-1.3-1.7-1 0-2.2-.4-2.5-1-.3-.5 0-.7.8-.4 1 .3 2.1-.9 3.4-3.5 2.2-4.4 2-5-.9-2.4-2.3 2.1-5.5 2.4-6.2.6-.3-.7.2-1.3 1.2-1.4 1.6-.1 1.6-.2 0-.6-1-.2-1.8-.9-1.8-1.4 0-1.1-2.3-.7-3.2.6-.4.6-.8.2-.8-.9 0-1.6-.2-1.7-1.7-.5-1.6 1.2-1.7 1.2-.6-.2.7-.9 1.1-1.8.8-2.1-.3-.2.2-.5 1-.5s1.2.4.9.9c-.3.4 0 .8.5.8.6 0 1.1-.5 1.1-1.1 0-.5.5-.7 1-.4.6.3 1-.1 1-.9 0-1-.7-1.3-2.6-1-1.6.3-2.3.1-1.9-.6.6-.9-.8-1.4-2.8-1.1-.5.1-.6-.3-.2-.9 1-1.7-12.1-14-15.3-14.2-3.1-.2-7.8 0-10.7.6-1.1.2-2.8.4-3.8.5-1.1 0-1.5.6-1.1 1.3.5.7.3.8-.5.3-1.6-.9-16.2-.7-22.1.4-7.2 1.3-8.9 2.1-8.3 3.9.4.8.2 1.3-.3 1-.5-.3-2-.2-3.3.3-1.9.8-2.1 1.2-1.1 2.4.6.8.9 1.9.5 2.5-.4.6-.2 1.7.5 2.5.8.9.8 1.5 0 2-.6.4-.9.1-.8-.7.2-.7-.3-1.2-1-1-.8.1-1.1-.2-.7-.8.3-.5.2-1-.2-1-.5 0-.9 1.8-1 4 0 2.2.3 4 .8 4s.5-.7.2-1.7c-.4-1.1-.3-1.4.5-.9.7.4 1.2 2.1 1.2 3.7 0 1.7.4 2.8.8 2.5 1.4-.8.8 7.8-.6 9.3-.7.7-1.1 2-.7 2.8.4 1.1.1 1.3-1.2.8-7.5-3.1-16.5-4.4-27.5-4.2l-11.7.3-2.2-5.9c-1.2-3.3-2.2-6.6-2.2-7.3 0-.8-.4-1.4-.7-1.4-.4 0-1.3-1.9-1.9-4.3-.6-2.3-2-7.6-3.2-11.7-3.1-11.4-6.3-27-7.5-36-.3-3-.8-6.4-1-7.4-.2-1.1-.6-6.2-.9-11.5-.4-5.3-.8-10.2-1-10.9-.3-.6.1-1.2.8-1.2.7 0 .8-.3.2-.8-1.6-1.1-1.7-3.4-.3-4.3.8-.6.9-.9.2-.9s-1.2-1.5-1.2-3.5c0-2.2.4-3.3 1.1-2.8.6.4.7.1.1-.8-1.1-1.9-1.2-6-.2-8.2.5-.9.5-1.7.1-1.7-1.2 0-.2-8.4 1.1-9.2.8-.5.7-.8-.2-.8-.9 0-1.1-.7-.7-2.1.4-1.1.8-4.1 1-6.6.5-7.3 3.8-27.2 4.5-26.8.3.2.5-.9.4-2.3 0-1.5.5-4.4 1.2-6.5 1.4-4 1.4-3.9 1.4-6.3 0-.9.5-1.2 1.2-.8.7.4.8.3.4-.5-.7-1.1 4.1-18.9 5.4-20.1.3-.3.6-1.4.8-2.5.2-1.1 1-3.4 1.9-5 .8-1.7 1.6-3.8 1.8-4.9.3-1 1.9-4.8 3.6-8.5 1.8-3.6 3.3-6.8 3.3-7.1.2-1 5-10.5 5.5-11 .3-.3 2.1-3.4 4-7 4.3-8.1 14-23.4 15.2-23.8.5-.2.9-.8.9-1.3 0-1.5 7.2-10.4 8.2-10.1.5.1.7-.1.4-.6-.7-1.1 3.9-6.3 4.8-5.4.4.4.6.2.4-.4-.4-1.5 6.3-9.5 7.4-8.8.5.3.7.1.6-.4-.5-1.5 8.3-11.2 9.6-10.5.6.3.8.3.4-.2-1.1-1.1 1.2-3.6 2.5-2.8.5.3.7.1.4-.5-.4-.5 1.2-2.5 3.4-4.4 2.3-1.8 5.3-4.4 6.8-5.8 4.9-4.7 13.5-11.5 12.6-10-.5.8.6 0 2.3-1.8 1.9-2 3.6-3.1 4.3-2.6.7.4.9.3.6-.3-.8-1.3 10.9-9.7 12.3-8.8.5.3 1 0 1-.7 0-1.4 9.6-7.5 11.1-7.1.5.2.9-.1.9-.6 0-1.2 17.6-10.2 18.4-9.4.3.4.6.2.6-.4 0-1 5.1-3.5 7.5-3.7.6-.1 1.5-.8 2.2-1.6.7-.8 1.3-1.2 1.3-.8 0 .4 1.7-.1 3.8-1.1 2-1.1 4.6-2.1 5.7-2.3 1.1-.2 2.3-.7 2.6-1.1.3-.5 1.5-1 2.5-1.2 1-.2 2-.4 2.2-.4.1-.1.4 0 .5.1.2.2 1-.2 1.8-.8 1.8-1.6 11.6-4.4 12.3-3.7.3.4.6.1.6-.6 0-.6.6-1.1 1.3-1 .6.1 2.5-.3 4-.9 3.4-1.4 4-1.5 3.2-.3-.3.5-.1 1.3.5 1.6.6.4.9.1.8-.6-.3-1.5 6.1-4 10.9-4.2 1.8-.1 3.3-.5 3.3-.9 0-.5 8.1-1.8 14.5-2.3 1.1-.1 2.7-.4 3.5-.7 2.6-1 13.4-2.3 15.3-2 1.2.2 1.5.8 1 1.6-.4.6 0 .3 1-.8 1.4-1.5 2-1.7 2.6-.7.6 1 1 1 1.6.1.5-.8 1.3-.6 2.8.7 1.8 1.5 2 1.5.8.1-1.2-1.6-.6-1.7 8.6-2.1 5.4-.1 10-.4 10.2-.5.2-.1 0 .5-.3 1.4zM136.4 433.2c-1.4 2.1-1.2 6.9.2 7.5.8.3 1.4 1.5 1.3 2.7 0 2-.1 2-1-.3-.8-1.9-1.2-2.1-2.4-1.1-1 .9-1.5.9-1.5.1 0-.6.4-1.1.8-1.1 1.5 0 .8-6-.8-6.1-1 0-1.1-.2-.2-.6.6-.2 1-.9.7-1.4-.4-.5.1-.6.9-.3 1 .4 1.6.1 1.6-.7 0-.7.3-1 .6-.6.3.3.2 1.2-.2 1.9zm-10.4 6.3c0 1.2-1.9 1.2-2.3 0-.4-.9-.1-1.2.9-.8.7.3 1.4.7 1.4.8zm36 1.6c0 .5-.8.9-1.7.8-1.1 0-1.3-.3-.5-.6.6-.2.9-1 .6-1.5-.4-.7-.2-.8.4-.4.7.4 1.2 1.1 1.2 1.7zm16.5 2.6c.5 1.5.4 1.6-.6.5-1.5-1.4-3.3-1.6-2.5-.3.7 1.1-2.1.8-3.1-.4-.4-.4-.3-.5.4-.1.6.3 1.4.2 1.8-.4 1-1.6 3.2-1.2 4 .7zm-16.6.7c.9 1.1.9 1.6 0 2.2-.8.5-.9.3-.4-.6.6-.9.4-1.2-.7-.8-.9.4-1.5 0-1.5-.8 0-1.8 1.1-1.8 2.6 0zm9.5.2c.3.8.2 1.2-.4.9-.6-.3-1-1-1-1.6 0-1.4.7-1.1 1.4.7zm21.6-.6c-.8.5-1.9 1-2.5 1-.5 0-.3-.5.5-1s2-1 2.5-1c.6 0 .3.5-.5 1zm241.3 1.3c.4-.3.7-.1.7.4 0 .6-.6 1.4-1.2 1.6-.8.4-.7.6.4.6.9.1 2.3.4 3.2.7 1.1.4 1.6.1 1.6-1 0-.9.5-1.6 1-1.6.6 0 .9.3.8.7-.1.5 1.1 2.7 2.6 5.1 1.6 2.3 2.6 4.5 2.2 4.9-.3.3-.6.1-.6-.5 0-.7-.4-1.2-.9-1.2-.6 0-.4 1.5.4 3.4l1.5 3.5-7.1-.3c-7-.2-9.3-1.3-8.2-4.2.2-.6 0-1.4-.5-1.8-.5-.3-.6-2.8-.2-5.6.4-2.7.2-5-.2-5-.5 0-.6-.5-.3-1.1.5-.7 1.3-.5 2.4.5 1 .9 2.1 1.3 2.4.9zm-301.2 2c-1 .9-1.1.8-.5-.6.3-1 .9-1.5 1.2-1.2.3.3 0 1.1-.7 1.8zm5.5-.1c.4.7.3.8-.4.4s-1.2-.4-1.2-.1c0 .3 2.1 1.6 4.8 2.7 4.5 2.1 14.2 3.2 14.2 1.7 0-.8 3.5-2.2 6.2-2.4 1.4-.1 1.7.6 1.5 3.9-.2 3.2.1 4 1.3 3.8 1.2-.3 1.3-.1.3.9-1.6 1.6-1.7 3-.2 2.6.6-.1 1.4.5 1.6 1.3.4 1.3.3 1.3-.6 0-.7-1-1.1-1.1-1.1-.3 0 .7-.3 1.2-.7 1.2-.5-.1-1.2-.1-1.8.1-2 .3-19.8-.3-23.7-.9-.5 0-.8-.8-.8-1.6s-.5-1.5-1.1-1.5c-.5 0-.7-.5-.4-1 .3-.6.2-1-.3-1s-.9-.6-1-1.3c-.5-6.1-.3-8 .9-8.8 1.8-1.1 1.7-1.1 2.5.3zm31.8-.4c.3.5-.1.9-.9.9s-1.2-.4-.9-.9c.3-.4.7-.8.9-.8.2 0 .6.4.9.8zm14.3 1.4c-.3.8-.6.5-.6-.6-.1-1.1.2-1.7.5-1.3.3.3.4 1.2.1 1.9zm10.5 1.5c-.6.2-1 .9-.6 1.4.3.5 0 .9-.5.9-1.2 0-1.4-1.3-.4-2.3.3-.4 1.1-.7 1.7-.6.6 0 .5.3-.2.6zm-6.2 2.8c0 .8-.4 1.5-.8 1.5-.5 0-.9-.7-.9-1.5s.4-1.5.9-1.5c.4 0 .8.7.8 1.5zm-56.2 2c-.3.3-.9-.2-1.2-1.2-.6-1.4-.5-1.5.5-.6.7.7 1 1.5.7 1.8zm-2.8 0c.9 1.1.9 1.5.1 1.5-.9 0-.9.5-.1 2 .6 1.1.7 2 .3 2-.4 0-.1.5.7 1 1.2.8 1.2 1-.5 1-3.2 0-4.6-1.4-4.1-4.1.3-1.3.5-3 .5-3.7.1-1.6 1.6-1.5 3.1.3zm44.3 3.3c1.8 4.5.8 6.3-3.1 5.3-2.3-.6-2.6-1.2-2.7-4.8 0-3.1.3-3.9 1.4-3.5.9.3 1.2.1.7-.6-.4-.8-.2-1 .8-.6.8.3 2.1 2.2 2.9 4.2zm246.2-2.6c-.6 2.9-2.1 4.3-3 2.7-.5-.8-.4-1 .3-.5.7.4 1.3.2 1.3-.3.1-.6.3-1.6.4-2.1.1-.6.3-1.2.4-1.5.4-1.6.9-.1.6 1.7zm3.2.8c-.4 1.5 0 1.7 2 1.4 2.3-.4 2.4-.3.9 1.1-.9.9-1.6 2-1.6 2.4 0 .4-1.1.7-2.5.7-2.1 0-2.4-.3-1.8-2.6.3-1.4 1-3 1.4-3.6.5-.6.5-1.5.1-1.9-.4-.5-.1-.5.6 0 .8.4 1.2 1.5.9 2.5zm-342.2 1.2c.4 1.3.8 2.7.9 3.3.1.5.3 1.2.6 1.5.3.3 1.1 1.8 1.8 3.3l1.2 2.8-11-.2c-6.1-.1-11.4-.7-11.7-1.2-.4-.6-.1-.7.8-.2 1.1.6 1.2.5.2-.5-1-1.1-1-1.7 0-2.9s.9-1.3-.2-.6c-.8.5-1.2.4-.8-.1.9-1.5 9.6-5.6 12.2-5.8 1.3 0 2.1-.4 1.8-.9-.2-.4.5-.7 1.5-.7 1.1 0 2.3.9 2.7 2.2zm116.2.1c0 .9-.9 1.2-2.6.8l-2.6-.5 2.5-.7c1.4-.4 2.5-.7 2.6-.8 0-.1.1.5.1 1.2zm321-.7c-.3.3-1.2.4-1.9.1-.8-.3-.5-.6.6-.6 1.1-.1 1.7.2 1.3.5zm.8 2.5c1.2 1.9-.5 2.3-2.2.6-1.6-1.6-1.6-1.7-.1-1.7.9 0 2 .5 2.3 1.1zm-90.5 1.3c0 .3-.4.8-1 1.1-.5.3-1 .1-1-.4 0-.6.5-1.1 1-1.1.6 0 1 .2 1 .4zm204.2 7.9c1.3 2 .9 2.9-.8 2.3-1.4-.5-1.5-.4-.4.9 1.2 1.4 0 1.6-11.8 1.4-7.3 0-13.2-.5-13.2-1 0-.4.5-1.9 1.1-3.1 1-2.3 1.3-2.4 12.7-2 7.4.2 12 .8 12.4 1.5zm-544.2.9c0 .8.3.9.8.3 1-1.4 8.4-1.6 7.5-.2-.4.6-.1.7.8.1 1.8-1.1 8-1.4 7.4-.3-.3.4-.1 1.1.5 1.4.6.4.9.1.8-.6-.2-.9 2.7-1.3 11.9-1.3 6.8-.1 12.3.3 12.3.7 0 .4.9.3 2-.3s2-.7 2-.3c0 .4 18.2.7 40.5.7 27.8-.1 40.3.2 39.8.9-.4.6-.1.7.8.1 1.9-1.1 5.8-1.3 6.5-.2.3.4 1.1.5 1.7.1 2-1.3 6.8-1.2 6 .1-.5.8-.3.8.8 0 1.4-1.1 13.5-1.1 14.6 0 .3.3 1.2.1 2-.5.9-.9 1.3-.8 1.3 0s.6.9 1.8.2c2.7-1.4 3.3-1.4 4.8.6.9 1.2 1.2 1.3.9.3-.4-1.2.4-1.5 4-1.5 2.5 0 4.5.2 4.5.5s11 .5 24.5.4c17.2 0 24.2.3 23.8 1-.5.8-.2.8.8 0 2.2-1.7 33.2-1.2 35.6.7 1.6 1.2 1.7 1.2.6-.2s-.8-1.5 2.7-1.5c2.2.1 4 .5 4 .9 0 .5.6.5 1.2 0 1.8-1 7.1-.3 8 1.1.5.7.8.6.8-.4 0-1.3 2-1.4 13.2-1.2 8.7.3 13.5.8 14 1.5.6.9.8.9.8 0 0-.8 4-1.1 14.3-1 11.2.2 14.1.5 13.9 1.5-.1.8.2 1.1.8.7.6-.3.8-1.1.5-1.6-.4-.5.1-.9 1-.9 1 0 1.3.5.9 1.2-.5.8-.1.8 1-.1 1.5-1.3 1.9-1.3 2.7 0 .6 1 .9 1 .9.1 0-.6.5-1.2 1.1-1.2.5 0 .7.6.3 1.2-.5.8 0 .7 1.1-.2 1.5-1.2 1.9-1.3 2.3-.1.4 1.1.6 1.1 1.3 0 .7-1.2.9-1.1.9.1 0 1.3.2 1.3.9.1.8-1.2 1.2-1.2 2.4-.2 1.1.9 1.7.9 2.2 0 .6-.8 1-.7 1.6.2.5.8.9.9.9.4 0-.6 1.1-1.1 2.5-1.1 1.4-.1 2.3.2 2 .6-.6 1 1.5.8 3.2-.3.6-.4 1.5-.3 1.8.3.5.8 1.1.7 2.1-.1 1.1-.9 1.4-.8 1.4.2 0 1.1.2 1.1 1-.1.7-1.1 1-1.1 1-.2 0 .9.6 1 1.8.4.9-.4 4.2-.7 7.2-.6 8.1.3 8.2.3 7.4 1.6-.5.9-.2.8.9-.1 1.7-1.4 10.5-2.2 11.2-1 .3.3 1.9.4 3.7.3 8.8-.9 25.2-.3 26.6.9.9.6 1.3.7 1 .2-.4-.7 1.1-1.1 4.2-1.2 3.4 0 4.7.3 4.3 1.1-.4.6.1.5.9-.2 2-1.6 5.9-1.2 7.6.8 1 1.3 1.1 1.2.5-.5-.6-1.8-.5-1.9 1.2-.5 1 .8 1.6 1 1.2.4-.4-.7.5-1.1 2.4-1.2 2 0 2.7.3 2.3 1.1-.5.8-.3.8.7-.1 1.6-1.5 3.3-1.6 2.3 0-.5.7-.3.8.7.2 2.4-1.4 5.1-1.6 4.3-.2-.6 1-.4 1 .7.2 1.5-1.1 15.9-1.2 17.7 0 .7.4 1.2.4 1.2-.1 0-.4 4.3-.8 9.5-.8 7.9 0 9.4.2 9 1.4-.5 1.2-.3 1.2 1.2 0 2-1.7 5.7-1.4 4.7.4-.5.8-.2.8.7-.1.7-.6 2.7-1.2 4.5-1.2h3.2l-5.5 10.2c-20 36.9-48.6 69.6-83.4 95.3-22 16.1-49.2 30.4-76.6 39.9-10.6 3.6-29.4 8.8-37.3 10.2-2.5.4-4.7.8-5 .9-3.8.9-12.1 2.1-21 3-3 .4-7.3.8-9.5 1-5.2.6-35.8.6-41 0-2.2-.2-6.6-.7-9.9-1-3.2-.3-6.8-.7-8-1-1.1-.2-4.1-.7-6.6-1-2.5-.3-5.6-.8-7-1.1-1.4-.3-3.6-.7-5-1-31.3-6.3-66-20.2-94.2-37.7-9.4-5.8-25.4-17-26.8-18.7-.3-.3-1.5-1.3-2.6-2.1-7.9-5.3-27.3-24.5-40.9-40.2-11.6-13.5-25.4-34.5-34.6-52.9-4.2-8.3-4.4-8.8-2.9-8.8.6 0 1 .6 1 1.2z"/><path d="M315.6 62.2c.3.4 1.1.5 1.9.1 2.1-.7 1.9-1.2-.4-1-1.1 0-1.8.5-1.5.9zM383 63.4c0 .2.7.7 1.6 1 .8.3 1.2.2.9-.4-.6-1-2.5-1.4-2.5-.6zM401.6 65.8c-.3.4.4.9 1.5.9 2.3.2 2.5-.3.4-1-.8-.4-1.6-.3-1.9.1zM499.3 104.5c0 .8.4 1.2.9.9.5-.3.6-1 .3-1.5-.9-1.3-1.2-1.1-1.2.6zM185.5 110c.3.5.8 1 1.1 1 .2 0 .4-.5.4-1 0-.6-.5-1-1.1-1-.5 0-.7.4-.4 1zM342.7 146.6c-.3.4-3.2.8-6.4 1-14 .8-34.7 13.1-44.8 26.7-8.4 11.1-11.6 20.6-11.7 34.2 0 9.2 1.2 15.1 4.8 23.8 7 17.1 15.7 29.4 40.3 57.7 4.1 4.7 8.5 9.8 9.8 11.3 1.3 1.5 2.1 3.3 1.7 4-.4.7-.3.9.1.4.5-.4 1.9 1.2 3.2 3.5 1.3 2.3 3.3 4.8 4.4 5.5 2.5 1.9 2.6 6.3 0 6.3-1.5 0-2.4-1.5-4.1-7.1-1.2-3.9-2.4-6.9-2.6-6.6-.3.3.3 3.5 1.4 7.1 2 6.5 2 6.6.1 6.6-1.4 0-1.9-.7-1.9-2.8 0-1.6-.8-5.3-1.9-8.3-3.3-9.6-8.5-20-6.1-12.2.5 1.6 2.3 7.5 4.1 13.3 3.2 10.3 3.4 11.5 2.5 15.5-.2 1.1-.5 3-.5 4.2-.1 1.9-.7 2.3-3.1 2.3-3 0-3.4-.6-3-4.8.1-2-.7-2.6-2.7-2-.5.2-.8 1.6-.8 3.3 0 2.3-.5 3-2.5 3.5-2.4.6-2.5.9-2.6 8.5 0 4.4.1 8.5.3 9 .3 1.1 59.6 1.5 60.7.4.3-.3.6-3.4.7-7 .2-11.3.3-10.9-3.5-10.9-3 0-3.3-.3-2.9-2.1.5-1.7.2-2-1.8-1.7-1.6.2-2.4.9-2.3 2.1.1 1-.5 1.7-1.7 1.7-1.8 0-1.9-.4-3.5-9.2-.1-.9 1.5-7.4 3.8-14.4 2.2-7 4.1-13.6 4.3-14.6.2-1 5-7.2 10.7-13.9 13-15.3 20.5-26 26.2-37.4 7.1-14.3 8.7-20.3 9.3-34.1.7-14.6-.7-20.1-7.7-30.9-6.6-10-22-24.5-26.2-24.5-.7 0-3.4-1.1-6-2.5-2.8-1.5-6.4-2.5-8.8-2.5-2.3 0-5.1-.5-6.3-1.2-2.3-1.2-21.9-2.3-23-1.2zm14.7 31.5c5.2 1.4 12.3 8.2 13.5 12.8 1.5 5.7 1.8 9.4 1 12.1-.7 2.4-.7 2.3-.9-.8-.1-1.7-.3-3.5-.5-4-.1-.4-.5-2.3-.9-4.4-.7-3.3-3.6-7.6-5.4-7.9-.4-.1-2.5-.3-4.7-.5-5.2-.5-6.8-.8-8.2-1.7-.6-.4-2.2-.3-3.5.2-1.2.4-3.2.7-4.2.5-2.1-.3-8.6 2.1-8.6 3.1 0 .3.6.3 1.3-.1.8-.5.8-.3-.2.9-.7.9-1.8 1.4-2.3 1-.6-.3-.8 0-.6.8.3.8.1 2.3-.5 3.4-.5 1-1 3.2-.9 4.7 0 1.6-.5 2.8-1.2 2.8-1.3 0-1.3-3.4-.1-8.9.8-3.6 6-10.1 8-10.1.7 0 1.5-.5 1.7-1 .4-1.3 7.5-3.9 10.8-4 1.4 0 4.2.5 6.4 1.1zm-26.7 26.1c-.3.8-.6.5-.6-.6-.1-1.1.2-1.7.5-1.3.3.3.4 1.2.1 1.9zm14.4 5.2c3 .6 4.3 3.8 2.5 5.9-1.4 1.9-6.3 3-7.1 1.7-.3-.5.1-1 .9-1 1.6 0 3.1-1.8 2.2-2.7-.3-.3-1.2 0-2 .6-1 .8-1.6.9-2.1.1-.3-.5-1.1-1-1.6-1-.6 0-.8.4-.5.8.3.5-.1.9-.9.9-1.8 0-1.8-.2-.2-3 1.6-2.9 2.8-3.7 4.7-3.3.8.2 2.7.7 4.1 1zm20.6.2c-.4.4.1 1.6 1 2.7 1.7 1.9 1.7 2 .1 1.4-1-.3-2-.2-2.3.3-.4.6-1.7.7-3.1.4-1.4-.4-2.4-.2-2.4.5 0 .6.6 1.1 1.4 1.1.8 0 1.7.4 2.1.9.3.6-.4.8-1.7.6-4.2-.8-6.7-7-3-7.7 3.6-.8 8.6-.9 7.9-.2zM353.6 230c4.7 0 2.3 1.5-2.6 1.7-4.3.1-4.9-.1-3.9-1.3.7-.8 1.9-1.2 2.6-.9.8.3 2.6.5 3.9.5zm-14.6 7.4c0 .5-.7.1-1.5-1-.8-1-1.4-2.4-1.4-2.9 0-.6.6-.1 1.4.9.8 1.1 1.5 2.4 1.5 3zm5.4-2.5c.3.5 0 1.1-.8 1.4-1.5.6-2.6-.1-2.6-1.5 0-1.1 2.7-1 3.4.1zm9.2 6c-.3.5-1.5.7-2.6.4-2.8-.7-2.5-1.3.6-1.3 1.4 0 2.3.4 2 .9zm-4.5 2.8c3.2.1 6.9-.1 8.3-.7 2.8-1 3.2-.4 1.3 2.1-1.6 2-4.7 3.5-7.2 3.3-1.1 0-3-.2-4.2-.3-1.2 0-3.2-1.5-4.4-3.3-1.3-1.7-1.7-2.8-.9-2.3.7.4 3.9 1 7.1 1.2zm24.2 53c-.3 1-.9 2.2-1.3 2.8-1.5 2-6.1 16.1-6.2 18.7-.1 2.1-.6 2.8-2.1 2.8-1.3 0-1.7-.5-1.3-1.5.3-.8 1.7-5.2 3.1-9.7 1.4-4.6 3.7-9.8 5.2-11.6 3.1-3.7 3.5-3.9 2.6-1.5zm-11 17.7c-2.2 5.5-3 6.6-4.7 6.4-3.1-.4-2.1-3.5 2.7-8.9 2.3-2.5 4.3-4.5 4.4-4.4.2.1-.9 3.2-2.4 6.9zm3.2 11.5c.3 2 .8 4.4 1.1 5.4.5 1.6 0 1.8-3.3 1.5-3.6-.3-3.8-.4-3.5-3.6.3-2.7 0-3.2-1.8-3.2-1.6 0-2.1.6-2 2.2.4 4.6.2 4.8-5.9 4.8-5 0-5.9-.3-5.7-1.8.1-1.1-.6-1.7-1.9-1.7-1.3 0-2 .6-1.9 1.7.1 1.3-.6 1.8-2.3 1.8-2.4 0-2.5-.2-1.9-3.8 1.3-7.3.3-6.8 15-6.8h13.4l.7 3.5z"/><path d="M356 183c0 .5.5 1 1.1 1 .5 0 .7-.5.4-1-.3-.6-.8-1-1.1-1-.2 0-.4.4-.4 1zM183.6 250.7c-.2.3-2.5.6-5 .8-6.5.5-18.1 6.4-24 12.2-8.8 8.6-13 22-10.5 33.1 2.3 10.3 11.3 24.9 25 40.4 3 3.3 5.5 7.2 5.6 8.5.1 1.3 1.1 5 2.2 8.1 1.3 4 1.7 6.8 1.2 9.2-.8 4.3-3.5 4.7-3.9.7-.2-1.6-.8-2.6-1.5-2.4-.7.2-1 1.2-.9 2.3.2 1-.4 2.3-1.3 3-1.5 1.1-1.9 3.4-1.6 9.4l.1 2.5 18.7-.1 18.8-.1.3-5.6c.3-5.2.1-5.7-1.8-5.7-1.4 0-2-.6-2-2.1 0-1.2-.5-1.9-1.2-1.6-.7.2-1.2 1.1-1 2.1.2.9-.4 1.6-1.1 1.6-2.4 0-2.6-6.8-.4-13.5 1-3.3 2.1-7 2.2-8.3.4-2.5.1-2.2 10-13.8 13.4-15.8 19.5-28.8 19.8-42.4.1-7.7-.2-9.2-2.8-14.5-2.9-5.7-14.6-18.5-17-18.5-.5 0-2.3-.7-4-1.6-4.6-2.4-22.4-5.2-23.9-3.7zm-4.6 98.8c0 .6 1.3 2.5 3 4.1 3.1 3.1 3.8 5.3 1.8 5.5-.7.1.5.5 2.7.8 3.7.5 4 .9 4.3 3.9.3 3.3.3 3.3-3.5 3-3-.2-3.7-.7-3.5-2.1.2-1-.3-1.7-1.4-1.7-1.1 0-1.5.6-1.1 2 .4 1.4 0 2-1.3 2s-1.6-.6-1.2-2.8c.2-1.5 1.1-3.2 1.9-3.9 1.6-1.2 1-6.7-.8-7.8-.5-.4-.5.5.1 2 1.3 3.3 1.3 4.5 0 4.5-.5 0-1-.9-1-2 0-1-.9-4.3-2.1-7.2l-2-5.2 2 1.8c1.2 1.1 2.1 2.4 2.1 3.1zm19.5 2.8c-1.5 4.6-2.1 8.2-1.8 10.8.5 3.2.3 3.9-1.1 3.9-1.5 0-1.7-.5-2-3.8-.1-.7-.8-1.7-1.6-2.2-.8-.5-1-1-.5-1 .6 0 .4-.4-.4-.9-1-.7-.6-1.6 1.9-4.2 1.7-1.9 2.9-2.8 2.5-2.1-1.3 2.6-2.3 7.2-1.5 7.2.8 0 2.5-6.4 2.3-8.8 0-.6.3-1.2.8-1.2s.9-.6.9-1.3c0-1.2 2.1-4 2.6-3.4.1.1-.8 3.3-2.1 7zM491 251c-8.6 1.8-16.7 8-19.8 15-2.2 5.1-1.8 13.1 1.1 19.3 2.1 4.7 14.8 21.7 16.8 22.5.4.2.6.9.3 1.6-.3.7 0 2.3.6 3.7 1 2.3 1 2.3.5-.4-.4-1.9-.2-2.6.5-2.2.5.3 1 1.3 1 2.1s.7 1.7 1.5 2c.8.4 1.5 1.2 1.5 2 0 2.3 3.7 1.6 4.4-.9.5-1.7.8-1.9 1.5-.9.6 1 1 .6 1.5-1.4.4-1.6 1.4-3.6 2.2-4.4 4.9-5.1 13.7-17.2 16.1-21.9 3.8-7.8 4-18.9.4-24.1-6.7-9.7-18.6-14.4-30.1-12zM500 317.4c0 .2.7.6 1.5 1 .8.3 1.5.1 1.5-.4 0-.6-.7-1-1.5-1s-1.5.2-1.5.4zM499 320.3c0 1.7-2.7 3-3.5 1.7-.3-.5-2.2-.6-4.2-.3-2.6.4-3.4.3-2.9-.5.4-.7.3-1.2-.2-1.2-2.3 0-4.2 8.9-1.9 9.1 3.8.4 20.4.4 21.5.1.6-.2 1.2-1.9 1.2-3.7 0-3.8-1.1-4.5-5.9-3.7-2.3.3-3.2.2-2.7-.6.3-.6.2-1.3-.4-1.7-.5-.3-1 0-1 .8zM306 419.1c0 .3-1.1.4-2.4.2-1.7-.4-2.5 0-2.9 1.6-.4 1.5-1.2 2-3.1 1.9-1.4-.1-2.6-.6-2.6-1s-.7-.5-1.5-.2c-.8.4-1.5 1-1.5 1.5 0 .4.8.5 1.7.2 1.2-.5 1.5-.2 1.1.8-1 2.7 5.8 1.1 7.3-1.7.7-1.3 1.7-2.4 2.2-2.4.6 0 .7.3.4.7-.4.3-.2 1.2.4 1.9.8 1 .5 1.5-1.5 2-1.4.3-2.3 1-2 1.5.3.5 1.1.6 1.7.3.7-.4.9-.4.5.1-.9.9.9 3.5 2.4 3.5.5 0 .7-1 .3-2.3-.5-1.9-.4-2 .5-.4 1.5 2.3.4 3.8-2.5 3.3-1.8-.3-2.6.1-3 1.5-.4 1.2-.9 1.8-1.2 1.5-.3-.3.1-1.6 1-3 1.5-2.3 1.3-3.6-.5-3.6-.4 0-.7.3-.7.7.3 2.1-.2 3.3-1.2 2.7-.7-.4-.9 0-.5 1.4.6 1.7.3 2.1-1.3 1.9-1.6-.1-1.8-.4-.8-1.6.9-1.1.9-1.5 0-1.8-.7-.3-1.3-1-1.3-1.6-.1-1.1-4.4-6.7-5.2-6.7-.2 0-.4.9-.4 1.9 0 1.1.3 1.8.7 1.5.4-.2 1.2.3 1.9 1.1s.9 1.5.4 1.5-.2.5.6 1c1.3.8 1.2 1-.3 1-1 0-1.7-.6-1.5-1.4.2-.8 0-1.5-.4-1.5-2.3-.2-2.9 0-2.3.9.3.5.1 1-.4 1-1.4 0-1.4-.6-.1-3.1.6-1 .7-2 .3-2.1-2-.4-11.3-.8-16.3-.7-3 .1-6.2.1-7 .2-2.4 0-4.3 1.9-2.9 2.8.6.3-.1.6-1.7.6-1.6-.1-4.7.7-6.8 1.8-3.3 1.6-3.6 2-2 2.6 1 .3 2.2.5 2.6.3.4-.3 1 0 1.3.6.4.6.3.9-.2.8-.4-.2-.8.1-.8.7 0 .5.6.9 1.2.9.7-.1 1 .2.7.8-.3.5 0 1.7.8 2.6 1.1 1.5 1.1 1.5-.3.5-.9-.7-1.9-1.1-2.2-.8-.4.3-.5.2-.2-.2.8-1.1-1.6-3.3-2.9-2.6-.6.4-.4-.2.4-1.2 1.3-1.6 1.3-1.8 0-1.3-1.8.6-2 4.4-.2 4 1.8-.3 1.5 1.3-.8 3.3-1.4 1.3-1.8 2.5-1.4 3.9.6 1.8.5 1.9-1 .7-2.1-1.7-2.1.2 0 2.3.8.9 1.3 1.6.9 1.6-.3 0 0 .6.7 1.4.7.8 1.8 1.1 2.3.8.6-.3.3.3-.5 1.3-.9 1.1-1 1.6-.2 1.1.7-.4 1.2-.2 1.2.4 0 .6.5.8 1.2.4s.8-.3.4.4-1.4 1.2-2.3 1.2c-1.2 0-1.3.3-.4 1.4.9 1.1.9 1.5-.1 1.9-1.1.4-1 .6 0 .6.7.1 1 .5.7 1.1-.3.5 0 1 .7 1.1.7 0 2.3.2 3.6.5 1.2.2 2.2 0 2.2-.4 0-1.6-1.3-2.2-2.5-1.2-.8.7-1.5.3-2.3-1.5-1.2-2.7-.6-3.4 3.2-3.7 2.9-.3 3.4-1.3 1.1-2.2-.8-.3-1.5 0-1.5.7 0 .8-.4.6-1-.3-1.2-1.8-1.4-4-.2-2.5 1 1.4 3.2 1.7 3.2.5 0-.6-.7-1.3-1.5-1.6-.8-.4-1.2-1-.9-1.5.9-1.5 2.4-1 2.4.7 0 1.1.6 1.5 2 1.1 1.1-.3 2-.1 2 .4s-.7.9-1.5.9-1.5.5-1.5 1.1c0 .6.7.8 1.6.5 1-.4 1.3-.2.8.6s-.2.9 1 .5c1-.4 2.2-.7 2.7-.7s.9-.8 1-1.8c0-1.2.3-1 1.1.8.6 1.4 1 3 .9 3.7-.2 1.7 1.3 2.3 2.9 1.2 1-.6 1.1-.9.3-.9-2.1 0-1.5-1.6.6-1.7 1.3-.1 1.9.5 1.9 2.3 0 1.4-.5 2.1-1.2 1.7-.6-.3-.5 0 .3.8 1 1.1 1.5 1.1 1.8.1.3-.6.8-1 1.2-.8.4.3.8-.1.8-.9s-.4-1.2-.9-.9c-.4.3-.8 0-.8-.5 0-.6.6-1.1 1.3-1.1.7 0 1.3-1 1.4-2.3.2-2.1.1-2.1-1.3-.3-.8 1.1-1.4 1.5-1.4.9 0-.8-.9-.9-2.9-.3-2.7.7-4.1-.1-4.1-2.5 0-.7 6.6.1 7.1.9.4.4 1 .3 1.3-.3.4-.6.2-1.2-.3-1.2-.6-.1-1.5-.2-2-.3-.5 0-1.3-.5-1.8-1-.4-.5-.3-.6.4-.3.6.4 1.4.1 1.6-.5.4-1 .7-1 1.5 0 .7 1.1 1 1.1 1.5-.2.8-2.1 2.7-2 2.7.1 0 1.5-.2 1.6-1 .3-.8-1.2-1-1-1 .8 0 1.7.5 2.2 1.8 2 .9-.2 1.6-1.1 1.4-1.9-.2-1.1 0-1.1 1 .1 1.4 1.7 3.2 2 4.4.7.4-.4 0-.7-1-.7-.9 0-1.4-.5-1.1-1 .5-.8 1.1-.7 2.1.1 1.1.9 1.4.8 1.4-.4 0-.9.4-1.8.9-2.2.5-.3.8.7.7 2.2-.2 1.6-.9 2.8-1.6 2.8-.7 0-1.4.8-1.6 1.7-.1 1 .4 1.8 1.2 1.8.9 0 1.2-.5.8-1.3-.4-.6-.4-.9.1-.5.4.4 1.4.3 2.2-.4 1.7-1.4 2.8-.3 3.7 3.5.4 1.9.3 2.6-.4 2.2-.5-.3-1-1.8-1-3.2v-2.6l-2.5 2.7c-1.3 1.4-2.2 3.2-1.9 4 .8 2-3.4 2.8-4.5.8-.9-1.6-1.1-1.5-2.4.2-.9 1.2-1.9 1.6-2.8 1.1-1.1-.6-1.2-.5-.2.5.9 1 1.6 1 2.5.2.8-.6 1.9-.7 2.6-.3 1.6 1 6.2.2 6.2-1.1 0-.5.5-.6 1.1-.2.7.4 1 .1.7-.7-.3-.8-1.1-1.3-1.8-1.1-1.1.3-1.1 0 0-1.2 1.3-1.7 2.5-2.2 1.6-.7-1.1 1.7 2.3 3.4 5.5 2.7 2.1-.4 2.8-.2 2.3.6-.4.7-.3.8.5.4.6-.4.9-1.2.6-1.7-.4-.5.4-.8 1.6-.6 1.2.1 2.3-.4 2.5-1.1.1-.7 0-.8-.3-.2-.7 1.5-2 1.2-2-.4 0-1.3 2.8-2.6 6.2-3.1.6 0 .9-.7.7-1.4-.3-1.6 2-.9 2.6.7.2.7-.2 1.1-1 1-1.7-.4-1.8 3.3-.1 5 .7.8 1 1.9.6 2.5-.4.7.1.6 1-.2 1.5-1.2 1.7-1.1 1.7.3 0 1 .4 1.5.9 1.1.6-.3.8-1.4.6-2.5-.2-1.1.1-2 .7-2 .5 0 .8-.7.4-1.5-.6-1.8 1.9-2.1 3-.3.4.7.3.8-.4.4s-1.2-.2-1.2.3c0 1.9 1.9 1.2 3.1-1.2.7-1.2 1.7-2.5 2.3-2.9.7-.5.4-.8-.7-.8-1 0-1.6-.4-1.2-.9.3-.6 1.4-.8 2.5-.6 1.3.3 2-.2 2-1.2s.6-1.4 1.9-1c1.2.3 1.8-.1 1.7-1.2 0-.9.4-1.5 1-1.4.6.1 1-.9.8-2.3-.1-1.4 0-2.3.4-2 .3.3 1.7-.4 3-1.6 1.4-1.3 2.2-1.8 1.9-1.2-.4.7.5.9 2.4.6 2.7-.4 2.8-.5 1.2-1.7-1.7-1.3-1.7-1.3.2-1.2 1.4.2 1.9-.3 1.7-1.7-.2-1 .6-2.5 1.7-3.3 2.8-1.9 2.7-3.5-.1-3.1-1.3.2-2.2.9-2.1 1.5.2.7-.4 1-1.3.6-.8-.3-1.3-.8-1-1 .3-.3-.1-1.2-.9-1.9-.9-.9-2.7-1.2-5.2-.9-3 .4-3.4.3-2-.5.9-.6 2.2-.8 2.7-.5.6.4.7-.1.3-1.2-.6-1.6-.5-1.7 1.3-.4 1.8 1.4 1.8 1.3-.1-.6-2.2-2.4-8.9-3.9-8.2-2 .2.7.9 1.2 1.5 1.2.5 0 1.4.3 1.8.7.4.5 0 .8-.9.8s-1.9-.5-2.2-1c-.4-.6-1.1-.8-1.6-.5-.5.3-.6-.1-.3-.9.4-1.2 0-1.4-1.8-1-1.2.3-3.8.6-5.6.7-2.1.1-3.1.6-2.7 1.4.2.7 0 1.3-.5 1.3-.6 0-1-.9-1-1.9 0-1.5-.9-2-4.5-2.3-2.5-.2-4.5 0-4.5.3zm7.1 1.7c-1.1.4-1.1.6 0 1.4 1 .7.8.8-.8.5-1.3-.3-2.3-.1-2.3.4s.6.9 1.3 1c.8 0 .8.2-.2.6-.9.4-.5 1.2 1.5 3l2.9 2.5-3.2-2.2c-1.8-1.1-3.2-2.4-3.2-2.8.3-1.7-.2-3.2-.8-3.1-1.8.3-2.7-.2-1.6-.9.6-.4 2.6-.7 4.5-.8 1.8-.1 2.7.1 1.9.4zm11.1.9c-.6.2-.9.9-.6 1.5.4.7 0 .7-1.2 0-1.1-.5-2.6-.7-3.4-.5-1.1.3-1.1.2-.3-.4.7-.5 2.5-.9 4-1 1.5-.1 2.2.1 1.5.4zm5.1 5.1c-.1 1.8.2 3.2.8 3.2.5 0 .9-.6.9-1.3 0-.7 1.1-1.4 2.6-1.5 1.5-.1 2.3.2 1.9.8-.4.6-1.1.8-1.6.5-.5-.4-.9-.2-.9.3 0 1.3-2.7 2.3-4.4 1.6-1.5-.6-1.6-2.1-.3-4.2.5-.6.4-1.2-.2-1.2-1.8 0-3 3.4-1.9 5.4.5.9.7 2 .4 2.4-.4.3-.9-.3-1.2-1.5-.4-1.4-1.1-2-2.2-1.6-1.5.4-1.5.3-.2-.6.8-.6 1.1-1.1.7-1.1-.4 0-.3-.9.3-2s1.5-1.8 2.1-1.5c.5.4.9.1.9-.5 0-.7.6-1 1.3-.7.7.2 1.1 1.8 1 3.5zm-50.7-.7c.5 0 .9.6.9 1.3 0 .8.4 1.8.9 2.3.5.4.6-.6.3-2.4-.5-2.5-.3-3.1.8-2.7.8.3 1.2 1.5.9 2.9-.3 2-.1 2.2 1.8 1.7 2-.5 2.1-.3 1.1 1-.7.8-.9 1.9-.5 2.4s-.3 0-1.5-1c-2.3-1.9-2.3-1.9-2.3 0-.1 1.6-.3 1.5-1.4-.6-.8-1.4-1.2-2.8-1-3.2.2-.3-.5-.9-1.6-1.3s-1.7-1.1-1.4-1.7c.4-.7.9-.6 1.4.2.4.6 1.1 1.1 1.6 1.1zm8.4-1.1c0 .5-.8 1-1.7 1-1.5 0-1.6-.2-.3-1 1.9-1.2 2-1.2 2 0zm34.5 1.3c-1.1.6-2.1.5-2.8-.3-.9-.8-.7-.9.7-.4 1.3.5 1.7.4 1.2-.4s-.2-1 1-.5c1.5.6 1.5.7-.1 1.6zm-48.6-.3c-.7.5-1.7.6-2.2.3-.4-.3-1.8.3-3 1.4-1.4 1.2-1.8 1.3-.9.2.6-.9 1-1.8.7-2-.2-.3 1.2-.5 3.2-.6 2.2 0 3.1.2 2.2.7zm44.5 2.1c-.3.5-1 .7-1.5.3-.5-.3-.7-1-.3-1.5.3-.5 1-.7 1.5-.3.5.3.7 1 .3 1.5zm-40.4.2c0 .5-.7.7-1.5.4-.8-.4-1.7-.2-2 .3-.6 1 .7 1.4 3.3 1.1 1.4-.2 1.4.1.6 2.3-.8 2-2.4 2.1-2.4.1 0-.8-.7-1.5-1.5-1.5-1.7 0-1.7-.2-.9-2.3.6-1.6 4.4-1.9 4.4-.4zm-6.2 2.2c-.3.3-.9-.2-1.2-1.2-.6-1.4-.5-1.5.5-.6.7.7 1 1.5.7 1.8zm-3.8.2c1.1-.9 1.1-.7 0 .7-1.4 1.8-1.3 1.9.2 1.3 1-.3 2-.2 2.3.2.3.5-.1 1.1-.8 1.4-2 .7-2.7.7-2.8-.1 0-.4-.8-1.5-1.6-2.5-1.5-1.6-1.7-1.6-3.5 0-1.5 1.4-2.1 1.4-3.1.3-1-1-.9-1.2.5-.7.9.3 2.2-.1 2.9-.9 1-1.3 1.4-1.3 2.9.1 1.3 1.2 1.9 1.2 3 .2zm24.1.2c.3.1 1 1.1 1.6 2.4.9 1.9.8 2.3-.7 2.3-1.2 0-1.7-.6-1.5-1.8.2-1 0-2-.6-2.3-.5-.4-.9.3-.9 1.4 0 1.1-.5 2.3-1 2.6-1.6 1-.1 2.5 1.8 1.9 1.2-.4 1.4-.3.4.3-1.4 1.1-.3 2.4 2.8 3.6 1.3.5 1.3.6 0 .6-.8.1-2.8-1-4.3-2.4-2-1.9-2.7-2.2-2.7-1 0 .8-.5 1.5-1.1 1.5-.7 0-.5-1 .5-2.5.9-1.3 1.6-3.5 1.6-4.9 0-1.8.5-2.3 1.8-2.1.9.2 2 .4 2.3.4zm21.9.5c0 1.1-1.9 1.5-2.5.6-.3-.5.1-1 .9-1 .9 0 1.6.2 1.6.4zm-51.2 5.3c-1.5 1.6-2.4 2-2.9 1.2-.9-1.5-.1-3.9 1.3-3.9.6 0 .5.6-.2 1.5-.7.8-.8 1.5-.3 1.5 1.6 0 3.2-2.2 2.6-3.9-.4-1.4-.3-1.4.6-.1.7 1.1.5 2-1.1 3.7zm42.2-1.1c-.6 1.4-.8 3-.5 3.5.4.5.1 1.7-.5 2.6-.9 1.6-1 1.5-.5-.5.4-1.3.2-2.2-.4-2.2-1.1 0-1.4 1.1-1.2 4 0 1.1-.1 1.1-.5.2-.5-1-.9-1-2.2 0-1.2 1-1.2.7.2-1.5 1-1.5 1.4-2.7 1-2.8-.5 0 .1-.4 1.4-.9 1.2-.6 2.2-1.8 2.2-3 0-1.1.4-2 1-2s.6.9 0 2.6zm4.6.2c.1 1.2-.3 1.9-.7 1.6-.5-.3-1.3.5-1.8 1.8l-1 2.3v-2.3c-.1-1.2.5-2.2 1.2-2.2.8 0 .7-.4-.3-1.1-1.3-.9-1.2-1 .3-.5 1.8.6 2.4-.9.7-1.7-.6-.3-.5-.4.2-.3.7.1 1.4 1.2 1.4 2.4zm14.7-1.3c.4.8.3 1.6-.1 1.9-.4.3-.9-.4-.9-1.5-.2-2.3.3-2.5 1-.4zm-42.6 2.2c0 .7-.4 1.3-.8 1.3s-.9-.6-1.2-1.3c-.3-.8 0-1.4.7-1.4s1.3.6 1.3 1.4zm21.3-.6c0 .6-.6.9-1.4.6-.8-.3-1.7-.1-2 .6-.2.7-.5.4-.5-.6-.1-1.1.6-1.7 1.9-1.7 1.1 0 2 .5 2 1.1zm32-.7c0 .2-.7.9-1.5 1.6-1.3 1.1-1.4 1-.9-.4.5-1.4 2.4-2.3 2.4-1.2zm-61 1.2c0 .8-1.9 1.3-2.4.6-.3-.5.1-.9.9-.9s1.5.2 1.5.3zm48 .9c0 .8-.4 1.5-.8 1.5-.5 0-.9-.7-.9-1.5s.4-1.5.9-1.5c.4 0 .8.7.8 1.5zm-57.3.7c0 .7.4 2.1.8 3 .6 1.4.2 1.8-1.6 1.7-1.6-.1-1.9-.3-.7-.6 1-.2 1.5-1 1.1-1.9-.3-.7-1-1.1-1.7-.7-.6.4-.5-.1.3-1 1.6-2 1.8-2.1 1.8-.5zm2.8-.2c.3.5.1 1-.4 1-.6 0-1.1-.5-1.1-1 0-.6.2-1 .4-1 .3 0 .8.4 1.1 1zm10.6 1.3c-1 .9-1.1.8-.5-.6.3-1 .9-1.5 1.2-1.2.3.3 0 1.1-.7 1.8zm19.1-.4c-.4 1-.7 1.1-1 .3-.2-.7-.8-1.2-1.3-1.2-.6 0-.7.5-.3 1.2.4.7.3.8-.5.4-1.6-1-.5-2.5 1.8-2.3 1.2.1 1.7.6 1.3 1.6zm16.9.4c-1 .9-1.1.8-.5-.6.3-1 .9-1.5 1.2-1.2.3.3 0 1.1-.7 1.8zm4.1-1.6c-.6.2-.9 1-.6 1.5.4.7.2.8-.5.4-1.3-.9-.5-2.6 1.2-2.5.9 0 .8.2-.1.6zm-59.6 2.3c2.1 0 1.7 1.6-1 4.5-1.5 1.6-3 2.4-3.8 2-.7-.3-.4.1.6.9 1.1.9 1.5 1.6.9 1.6s-1.6-.7-2.3-1.6c-1.1-1.2-1-1.8.4-3.2 1.6-1.6 1.7-1.6 1 .1-.6 1.7-.5 1.8 1.4.6 3.5-2.2 3.7-4.2.5-3.6-1.6.4-2.2.4-1.4 0 1.1-.5 1.1-.7 0-1.5-1.1-.7-.9-.8.4-.4 1 .3 2.5.6 3.3.6zm39.2 1.9c-1.3 1.5-2.6 2.7-3 2.4-.8-.4 3.2-5 4.5-5.2.5-.1-.2 1.2-1.5 2.8zm-24.8-1.3c0 .8-1.9 1.3-2.4.6-.3-.5.1-.9.9-.9s1.5.2 1.5.3zm7.4.9c-.4.8-1.1 1.5-1.6 1.5-.6 0-.5-.6.2-1.5.7-.8 1.4-1.5 1.6-1.5.2 0 .1.7-.2 1.5zm4.6-.5c.8.5 1.2 1.1 1 1.4-.3.2-1.4-.2-2.4-1-2.2-1.5-1-1.9 1.4-.4zm-1.7 2.9c-.3 1.1 1.1 1.6 3.2 1.1.6-.1.6.2.2.6-.4.4-1.4.9-2.2 1-1.4.2-1.7-.3-1.4-2.2 0-.4-.5-1.1-1.3-1.6-1-.8-1-.9.2-.5.8.2 1.4 1 1.3 1.6zm5.7-.4c.7.9.8 1.5.2 1.5-.5 0-1.2-.7-1.6-1.5-.3-.8-.4-1.5-.2-1.5s.9.7 1.6 1.5zm-19.3 1.2c0 .8-.4 1-1.2.3-.7-.5-1.6-.6-2-.2-.5.4-.5.2-.2-.4.9-1.5 3.4-1.3 3.4.3zm39.8-.7c.3.5.1 1-.4 1-.6 0-1.1-.5-1.1-1 0-.6.2-1 .4-1 .3 0 .8.4 1.1 1zm-35.4 1.7c1.2 1.6 1.2 1.7-.2.6-.9-.7-2-.9-2.4-.5-.5.4-.5.1-.1-.6.9-1.6 1.1-1.5 2.7.5zm6.9-1.3c0 .2-.7.7-1.6 1-.8.3-1.2.2-.9-.4.6-1 2.5-1.4 2.5-.6zm25 .6c1.2.8.9.9-1.2.8-1.5-.1-2.4-.6-2.2-1 .7-1 1.6-1 3.4.2zm10.7.4c0 .8-.6 1.2-1.3.9-.9-.3-1.2.2-.9 1.7.3 1.7.1 1.9-.9 1.1-.7-.6-1.7-.7-2.1-.3-.5.4-.5.1-.1-.6.4-.6.2-1.2-.3-1.2-1 0-1.5 1.4-1.2 3.2.2 1.3-1.7.9-2.2-.5-.4-.9-.8-.9-1.5.2-.7.9-1.2 1-1.6.2-.4-.6-.2-1.1.5-1.1s1-.3.6-.6c-.3-.3-1.3-.2-2.2.4-1.6.8-1.5 1.1.6 2.7 1.8 1.3 1.9 1.6.5 1.1-1.5-.5-1.7-.2-1.3 1.5.3 1.1.3 1.8 0 1.5-.3-.3-1.2.1-2 .9-1.6 1.6-3.8 2-2.8.6.3-.5.1-1.2-.5-1.6-.5-.3-1-1.2-1-1.8 0-.7.4-.6 1 .3.7 1.2 1 .8 1-1.5 0-1.7-.4-2.5-.8-1.8-.5.8-1.3.6-2.9-.7-1.9-1.5-2-2-.9-2.9 1.1-.9 1.4-.8 1.2.5 0 .9.5 1.9 1.2 2.1.6.3 1-.1.9-.9-.2-.7-.2-.9.1-.4.2.4.9.2 1.4-.5.8-1.1.9-1.1.5.2-.3.9-.1 2.2.3 2.9.5.8.4 2.2-.1 3.2-.7 1.4-.6 1.6.6 1.2.9-.4 1.3-.9 1.1-1.2-.3-.3-.1-1.1.4-1.7.8-.9.6-1.4-.5-1.8-2.8-1.2-.5-3.6 3.1-3.2 1.9.2 3.4 0 3.4-.5 0-.4 1-.7 2.3-.6 1.2.1 3.1-.4 4.2-1.1 2.4-1.6 2.2-1.6 2.2.1zm-49.7 1.5c0 .4 1.2.6 2.6.3 1.9-.3 2.5-.1 2 .7-.4.6-1.6 1.1-2.7 1.1-1 0-1.9.7-1.9 1.5s-.5 1.5-1 1.5c-.7 0-.7-.6 0-1.9 1.1-2.2-.2-3.7-2.2-2.5-.7.4-.8.3-.4-.4.8-1.4 3.6-1.6 3.6-.3zm52 .6c0 .8-.7 1.5-1.5 1.5-1.3 0-1.4-.3-.3-1.5 1.6-1.8 1.8-1.8 1.8 0zm3 .2c0 1 .3 2.8.6 4 .5 1.8.3 2.1-1.5 1.6-1.1-.3-1.8-.9-1.5-1.4.3-.5 1-.6 1.6-.3.7.4.8.2.4-.4-.4-.6-1.4-.8-2.4-.5-1.4.5-1.4.3.2-.9 1-.8 1.6-2 1.2-2.6-.4-.7-.2-1.2.3-1.2.6 0 1.1.8 1.1 1.7zm-4.6 5.7c.2 1.5-.1 2.9-.6 3.2-.4.3-.6.9-.4 1.3.3.4-.1.8-.9.8s-1.5-.4-1.5-.9c0-.4.4-.8.9-.8.4 0 .8-1 .8-2.3.1-5.6 1.2-6.4 1.7-1.3zM564.8 420c-.7.3-3.1.6-5.3.6-2.2-.1-4.5.3-5.2.9-.7.5-1.9 1.6-2.8 2.3-.8.7-2 1-2.7.6-.7-.4-.8-.3-.4.4s.2 1.3-.3 1.3c-1.5.2-2.3.4-4.3 1.3-1.4.6-1.5 1.4-.9 4.5.1.2.8-.2 1.6-.9s1.2-1.6.9-2.1c-.3-.5.3-.6 1.2-.2 1.6.6 1.6.7 0 1.8-1.4 1.1-1.4 1.4-.1 2.5 1.2 1 1.6.9 2.1-.3.3-.9 1.2-1.8 2-2.1.8-.3 1.3-.2 1 .3-.3.5.1 1.4.8 2.1.8.6 1.4 2 1.3 3-.1 1.1-.3 1.7-.6 1.5-.2-.3-1.1.1-2 .7-1.2 1-1.2.8.2-.8.9-1.1 1.7-2.4 1.7-2.9 0-.4-.8-.1-1.7.6-1.6 1.3-1.7 1.2-.5-.3.7-.9.9-1.9.4-2.2-.9-.6-4.3 2.9-3.6 3.8.2.3.1.3-.3 0-.5-.3-.8-1.1-.8-1.7 0-.7-1-1.1-2.2-1.1-1.3.1-2-.2-1.8-.7.3-.4-.3-1.2-1.2-1.8-1.3-.7-1.4-1-.4-1.1.8 0 1.1-.3.8-.7-.4-.3-.2-1.2.3-1.8.8-.9.2-1.2-2.4-1.1-2 0-3.2.5-2.8 1.1.3.5-.1.5-.9-.1-1.7-1.4-10.7-1.5-11.6-.1-.3.6-.1.7.5.3 1.7-1 1.5-.1-.4 1.4-.8.8-1.4.9-1.3.4.4-2.2-.3-3-2.5-3-1.4 0-2.3.3-2 .8.3.4-.9.5-2.5.3-2.1-.2-3.8.4-5.7 2-1.6 1.3-3 2.2-3.3 1.9-.2-.2.4-1.1 1.5-2 1-.8 1.2-1.2.4-.8-2.2 1-5 3.6-5 4.5 0 .5.8.6 1.8.3 1.5-.5 1.5-.4.1.8-1.3 1.1-3 4.1-3.3 5.8-.2.7-4.9 8.4-5.6 9-1.4 1.2.5 5.4 2.1 4.4.5-.3.6-1 .3-1.6-.4-.7-.2-.8.4-.4.7.4 1.2.2 1.2-.4 0-.6.4-.8 1-.5.5.3 1.2-.6 1.6-2.1.5-1.9.9-2.2 1.5-1.2.5.7.9.9.9.4s.6-.3 1.4.3c1.1.9 1.6.9 2.2 0 .4-.8.3-.9-.4-.5s-1.2.1-1.2-.7c0-.8.7-1.8 1.6-2.1 2.3-.9 3.4-.7 3.4.5 0 .5-.5.7-1.2.3-.7-.4-.8-.3-.4.4s1.3 1.2 2.1 1.2 1.2 1.1 1.1 3.4c-.1 1.8.3 3.2.9 3.1.5-.2 2.3-.6 3.8-1 2.4-.5 2.7-.8 1.7-2-1-1.2-1-1.5.1-1.5s1.1-.2-.1-1c-1.3-.8-1.2-1 .3-1 .9 0 1.7-.4 1.7-1 0-.5-.8-1.4-1.7-2-1.5-.9-1.5-1.1-.2-.7.9.3 2.1.1 2.6-.4.6-.6 1.4-.4 2.3.6.7.8 2 1.5 2.9 1.5.9 0 2.3.6 3 1.2 1.2 1.1 1.3 1 .7-.6-.6-1.9-.6-1.9 1.2-.3 1 .9 2.4 1.7 3.2 1.7 2.9 0 5 4.2 4.6 9.2-.3 2.8-.1 4.8.5 4.8s.7-.5.4-1c-.3-.6-.2-1 .3-1 .6 0 .8-1 .4-2.2-.3-1.4-.1-1.9.6-1.4 1.4.9.7 4.4-1.5 7-1 1.1-1.1 1.6-.4.9.7-.6 1.9-.9 2.5-.7 1.6.6 1.4-6.9-.3-9-.9-1-1-1.6-.2-1.6.6 0 1.1.4 1.1 1 0 .5.5 1 1.1 1 .6 0 .9-.9.6-2-.3-1.1.3-2.9 1.4-4.1 1-1.2 1.6-2.5 1.4-3-.3-.4-.1-1 .4-1.3.5-.4.7.6.5 2.3-.4 2.3-.1 3 1.7 3.4 1.1.3 1.8 1 1.5 1.5-.3.5.8 1.5 2.5 2.2 2.1.9 2.8 1.8 2.4 2.9-.3.8-.3 1.2.1.8.4-.4 1.5 0 2.5.9s2.4 1.4 3.2 1.1c.8-.3 2-.1 2.8.5 1.1.8 1 .9-.3.4-2-.6-2.5 1.8-.6 3 .7.5.8.3.3-.6-.6-.9-.2-1 1.6-.5 1.3.4 2.8 1.1 3.4 1.6 1.8 1.7 2.5.9.8-.9-1-1-2.4-1.7-3.1-1.4-.7.2-1-.1-.7-1 .3-.8-.5-2.6-1.9-4.1-1.3-1.4-2.1-2.8-1.8-3.1.3-.3.1-.6-.5-.6s-1.4-.7-1.7-1.6c-.3-.8-.2-1.3.3-1 .5.3 1.1-.1 1.5-.9.3-.8.1-1.7-.5-2.1-.6-.3-.3-1.2.8-2 1.7-1.3 1.7-1.4-.2-.8-1.7.6-1.8.5-.7-.7s1.5-1.2 2.6.3c1.2 1.6 1.3 1.6 2.6-.2.8-1 1.7-1.7 2.1-1.5.4.3 1.2-.2 1.9-1.1 1.1-1.2 1.5-1.2 2.1-.2.6.9.9.9.9.1 0-.6.6-1.8 1.4-2.6 1.3-1.2 1.2-2-.7-5.8-1.1-2.4-2.5-4.7-3-5-.6-.4-.7-1.4-.4-2.2 1.2-3.1-4.9-6.5-8.5-4.7zm4 1.4c-.7.8-1.5 1.2-1.7 1.1-.5-.6 1-2.5 2-2.5.5 0 .4.6-.3 1.4zm-7.8.6c0 .5-.5 1-1.1 1-.5 0-.7-.5-.4-1 .3-.6.8-1 1.1-1 .2 0 .4.4.4 1zm.5 3.2c1.7 0 2.2.3 1.4.8-.6.5-1.9.6-2.7.2-.9-.3-1.3-.1-.9.5.3.5 0 1-.7 1-.8 0-1.2-.6-.9-1.4.4-1.1 0-1.1-2.1-.4-2.4 1-4.7-.2-3.2-1.6.3-.4.6-.2.6.4 0 .6.9.9 2 .6 1.1-.3 2-1 2-1.7 0-.6.4-.5.9.3.5.7 2.1 1.3 3.6 1.3zm-10.2 2.1c.3.8-.1 1.4-.8 1.4-.7 0-1.1-.6-.8-1.4.3-.7.6-1.3.8-1.3.2 0 .5.6.8 1.3zm-30 1c.3.8-.1 1.4-.9 1.4-1.5 0-1.8-.9-.7-2 .9-.9 1-.9 1.6.6zm8.5-.1c-.2.7.3 1.2 1 1 .8-.1 1.1.2.7.8-.4.7-1.2.7-2.6 0-2.2-1.2-2.5-.1-.6 2 1 1.2.9 1.2-.4.2-.9-.6-1.9-.9-2.2-.5-.4.3-.7.1-.7-.5s1-1.8 2.2-2.6c2.7-1.9 2.9-1.9 2.6-.4zm25.2.3c-.6.8-.8 2-.4 2.7.5 1 .4 1-.6.1-1.1-1-1.1-1.5 0-2.8.7-.8 1.5-1.5 1.7-1.5.3 0 0 .7-.7 1.5zm-38.4 2.3c-1.3 1.3-1.8 1.4-2.8.3-1.1-1-1-1.1.5-.5 1 .3 1.7.3 1.6-.2-.3-1.8.1-2.5 1.2-1.8.7.4.6 1.1-.5 2.2zm22.1-1.3c0 .8-.4 1.2-.9.9-.5-.3-.6-1-.3-1.5.9-1.3 1.2-1.1 1.2.6zm30.3.6c0 .5-.4.9-.8.9-.5 0-.9-.7-.9-1.5s.4-1.2.9-.9c.4.3.8.9.8 1.5zm-32 2.1c0 .5-.5.8-1.1.8-.5 0-.7.5-.3 1.2.4.7.3.8-.5.4-.6-.4-.9-1.2-.5-1.7.3-.5 0-1.7-.8-2.6-1.2-1.5-1.1-1.5 1-.2 1.2.8 2.2 1.7 2.2 2.1zm27.6-1c.4.7.3.8-.4.4s-2 .6-3.2 2.6c-1.4 2.3-2 2.7-1.8 1.3.2-1.1 1.2-2.8 2.3-3.7 2.4-2.1 2.2-2.1 3.1-.6zm10.9.8c-.3.5-.1 1.1.5 1.5 1.7 1 .1 2.4-2.3 2-2-.4-2.1-.3-.5.9 1.7 1.2 1.7 1.4-.1 3-1.8 1.7-1.9 1.6-1.9-1.8 0-2 .4-3.9.9-4.2.5-.3.9 0 .9.6s.4.9 1 .5c.5-.3.7-1.2.4-2-.4-.8-1.1-1.2-1.7-.8-.6.3-.7.1-.3-.5.4-.6 1.3-.9 2.1-.6.8.4 1.3 1 1 1.4zm-50.6 2.4c-.3.3-1.1-.5-1.8-1.7-1.3-2.1-1.2-2.1.5-.5 1 1 1.6 2 1.3 2.2zm-11.8 1.9c-1 .9-1.1.8-.5-.6.3-1 .9-1.5 1.2-1.2.3.3 0 1.1-.7 1.8zm9.9-2c0 .2-1 1.2-2.2 2.3l-2.3 1.9 1.9-2.3c1.8-2.1 2.6-2.7 2.6-1.9zm6 .1c0 .3-.4.8-1 1.1-.5.3-1 .1-1-.4 0-.6.5-1.1 1-1.1.6 0 1 .2 1 .4zm6.5 1.6c1.7.8 1.6.8-.7.7-1.6-.1-2.8-.5-2.8-.9 0-1 .9-.9 3.5.2zm7.5 0c0 .5-.2 1-.4 1-.3 0-.8-.5-1.1-1-.3-.6-.1-1 .4-1 .6 0 1.1.4 1.1 1zm-14 2c0 .5-.5 1-1.1 1-.5 0-.7-.5-.4-1 .3-.6.8-1 1.1-1 .2 0 .4.4.4 1zm-22 1.4c0 .2-.7.7-1.6 1-.8.3-1.2.2-.9-.4.6-1 2.5-1.4 2.5-.6zm28 .6c0 .5-.2 1-.4 1-.3 0-.8-.5-1.1-1-.3-.6-.1-1 .4-1 .6 0 1.1.4 1.1 1zm9-.6c0 .2-.7.7-1.6 1-.8.3-1.2.2-.9-.4.6-1 2.5-1.4 2.5-.6zm5.4.4c.2.4-.4.8-1.4.8-1 0-1.6-.4-1.4-.8.3-.4.9-.8 1.4-.8.5 0 1.1.4 1.4.8zm-46.3 4.5c-1 .9-1.1.8-.5-.6.3-1 .9-1.5 1.2-1.2.3.3 0 1.1-.7 1.8zm35.2.2c-.3.9-.8 1.4-1 1.1-.3-.3-.2-.9.2-1.5.9-1.6 1.5-1.3.8.4zm3.8.8c-1.4 1.4-1.4 3-.1 2.2.6-.4.9-.1.8.7-.2.7.3 1.2 1 1 .6-.1 1.2.2 1.2.8 0 1.5-1.6 1.2-3.1-.7-1.9-2.2-1.9-6.3-.1-5.6.9.4 1 .9.3 1.6zm13.4 2.7c.3.6-.1.7-.9.4-1.8-.7-2.1-1.4-.7-1.4.6 0 1.3.4 1.6 1zm5 .7c-.1 1 .5 2.7 1.4 3.8 1.6 1.9 1.5 2-.4.3-2.1-1.7-3.1-5.8-1.5-5.8.4 0 .7.8.5 1.7zm-2.1 2.9c.3.8.2 1.2-.4.9-.6-.3-1-1-1-1.6 0-1.4.7-1.1 1.4.7z"/><path d="M302.5 423c-.3.5-.1 1 .4 1 .6 0 1.1-.5 1.1-1 0-.6-.2-1-.4-1-.3 0-.8.4-1.1 1zM343 423.1c0 .5.4.7 1 .4.6-.3.7.1.4.9-.4 1-.1 1.6.9 1.6s1.3-.7 1-2c-.5-2.1-3.3-2.8-3.3-.9zM296.3 428.1c1.2 1.9 3.4 1.6 3.4-.4 0-.7-1-1.3-2.3-1.3-1.8 0-2 .3-1.1 1.7zM119.5 431c-.3.5-.1 1 .4 1 .6 0 1.1-.5 1.1-1 0-.6-.2-1-.4-1-.3 0-.8.4-1.1 1zM248.1 434.5c.1 1.1 0 2.2-.1 2.5-1.3 3.6-.2 5.2 1.9 2.6.8-1 .7-2-.4-4.2-1.2-2.2-1.6-2.4-1.4-.9zM196 440c0 .5.5 1 1.1 1 .5 0 .7-.5.4-1-.3-.6-.8-1-1.1-1-.2 0-.4.4-.4 1zM384 445.3c0 2.6.3 4.7.8 4.7.8 0 .7-7.8-.2-8.7-.3-.4-.6 1.5-.6 4zM118 444.1c0 .5.5.7 1 .4.6-.3 1-.8 1-1.1 0-.2-.4-.4-1-.4-.5 0-1 .5-1 1.1zM209 451c-.8.5-1.2 1.1-.9 1.4.3.3 1.4-.1 2.5-.9 2.1-1.6.8-2-1.6-.5zM282.3 452.5c.1.5.7 1.3 1.2 1.7.6.5.6.8-.2.8-.7 0-1.6-.7-2.1-1.6-.6-1-1.2-1.2-1.6-.6-.3.5.1 1.5.9 2.2.7.6 1.3 1.7 1.1 2.3-.1.7-.1.9.1.4.3-.4 1.1-.7 1.8-.7s1.5-1.3 1.7-2.8c.3-2.1 0-2.8-1.3-2.8-1 0-1.7.5-1.6 1.1zM383 452c0 .5.5 1 1 1 .6 0 1-.5 1-1 0-.6-.4-1-1-1-.5 0-1 .4-1 1zM490.2 453.7c-2.3 1.4-3.9 2.9-3.6 3.5.4.5 1.4.1 2.5-1.1 2.1-2.2 4.5-2.9 3.3-1-.4.7.2.7 1.7-.1 3.2-1.7 3.1-1.6 1.7-2.7-.9-.7-2.6-.2-5.6 1.4zM267 454c0 .6-.4.8-1 .5-1.2-.7-1.3 1.5-.2 3.2.5.8 1.1.3 1.9-1.3.6-1.4.7-2.6.2-3-.5-.3-.9 0-.9.6zM307.7 453.7c-1.2 1.2-.7 3.6 1.1 4.9 1.5 1.2 1.4 1.3-1.3.9-2.8-.4-2.9-.4-.7.7 1.7.9 2.6.8 3.5-.1.9-1 .8-1.5-.7-2.6-1.1-.8-1.6-2.1-1.3-3 .7-1.6.4-1.9-.6-.8zM384.9 453.7c-.1.5-.1 1.1 0 1.5.2 1.3-1.7.9-2.2-.5-.3-.6-.6-.8-.6-.2 0 .5.4 1.7.9 2.5.8 1.3 1.1 1.2 2.4-.5 1.8-2.3 2-3.5.6-3.5-.5 0-1.1.3-1.1.7zM256.5 456.7c-1.6 1.3-1.7 1.5-.2 1 .9-.4 1.7-.2 1.7.4 0 .6.5.7 1.2.3.6-.4.8-.3.5.2-.3.6-.2 1.6.4 2.4.6 1.2.9.9.9-1.1 0-1.4.5-3 1.2-3.7.9-.9.8-1.2-.5-1.2-.9 0-1.7.4-1.7 1 0 .5-.5 1-1.1 1-.5 0-.7-.5-.4-1 .9-1.4.3-1.2-2 .7zM286.3 457c-.1 1.1.3 2 .9 2 .6 0 .8-.3.5-.7-.4-.3-.2-1.2.4-2 .9-1 .8-1.3-.3-1.3-.7 0-1.4.9-1.5 2zM279 457.5c0 .8.2 1.5.4 1.5s.6-.7 1-1.5c.3-.8.1-1.5-.4-1.5-.6 0-1 .7-1 1.5zM388.1 456.9c-.9.6-1 1.4-.5 2.4.7 1.1 1.4 1.3 2.4.7 1.2-.8 1.2-1 .1-1-.7 0-1.1-.6-.7-1.5.6-1.7.6-1.8-1.3-.6zM263 458c0 .5.5 1 1 1 .6 0 1-.5 1-1 0-.6-.4-1-1-1-.5 0-1 .4-1 1zM172.9 471.7c-1.3 1.6-1.2 1.7.4.4.9-.7 1.7-1.5 1.7-1.7 0-.8-.8-.3-2.1 1.3zM191.9 472.7c-1.3 1.6-1.2 1.7.4.4.9-.7 1.7-1.5 1.7-1.7 0-.8-.8-.3-2.1 1.3zM417.5 473.9c-.3.5-.2 1.2.3 1.5.5.3.9-.1.9-.9 0-1.7-.3-1.9-1.2-.6zM469 473.4c0 .2.7.7 1.6 1 .8.3 1.2.2.9-.4-.6-1-2.5-1.4-2.5-.6zM497.5 474c-.3.5-.1 1 .4 1 .6 0 1.1-.5 1.1-1 0-.6-.2-1-.4-1-.3 0-.8.4-1.1 1zM508.5 474c-.3.6.1.7.9.4 1.8-.7 2.1-1.4.7-1.4-.6 0-1.3.4-1.6 1zM451 475.4c0 .2.7.7 1.6 1 .8.3 1.2.2.9-.4-.6-1-2.5-1.4-2.5-.6zM156.2 499.2c-3.3 10.1-6.8 20-7.6 22-2 4.6-2 4.8-.2 4.8 1.2 0 2.2-1.6 3.1-5 .1-.3.5-1.3.8-2.3.4-.9 1-2.5 1.4-3.5.8-2.1.7-2 1.7-5.9.4-1.8 1.2-3.6 1.8-4 .7-.4.9 0 .5 1-.3.9-.1 1.8.6 2.1.9.3.8.8-.3 1.6-1.3 1-1.3 1.1.2.7 1.8-.6 4.8 3 4.8 5.8 0 .8.5 1.5 1.1 1.5.6 0 .8.7.5 1.6-.3.8-.2 1.2.3.9.9-.5 2.7 3.2 2.3 4.8-.1.5.2.6.8.2.5-.3 1 0 1 .7.1.7 1.7-1.9 3.7-5.7 2.1-3.9 3.6-7.3 3.5-7.8-.1-.4.3-.7.8-.7s.9-.3.9-.8c-.3-1.9.2-3.3 1.1-2.7.6.4.7-.1.3-1.1-.5-1.3-.3-1.5.7-.9.9.5 1.1.4.6-.3-.4-.7-.4-1.7 0-2.4.9-1.4 3.6 7.1 2.9 9-.3.7 0 1 .5.7.8-.5 1.3.3.9 1.7 0 .2.7 2 1.6 4.1.9 2.1 1.3 4.2 1.1 4.6-1 1.6 4 2.7 10.3 2.5 3.5-.2 6.6-.6 6.9-.9.6-.6 0-2.4-8.3-26.5-3.2-9.1-6.1-16.9-6.6-17.4-.4-.5-3.6 4.9-7.1 11.9l-6.4 12.7-5.8-11.3c-3.2-6.3-6.4-12-7.1-12.7-1-1.1-2.4 2.2-7.3 17zM357.2 495.7c-.1 16.1.7 19.9 5 24.5 1.8 1.8 3.1 3.7 2.9 4.3-.1.5 0 .7.4.3.4-.3 2.3-.1 4.3.6 9.1 3.2 20.3-.9 24.4-8.7 1.9-3.7 2.2-6.1 2.6-19.5.3-12.7.1-15.2-1.1-15.2-1.2 0-1.5 2.5-1.5 14 0 12.7-.2 14.5-2.4 18.7-3.2 6.4-6.4 8.6-13 8.7l-5.3.1v-8.8c-.1-4.9.3-9.1.7-9.3.5-.3.5-1.1.1-1.7-1.3-2.1-1.4-4.9-.1-6.5 1-1.2 1-1.4.1-.8-.7.4-1.3.2-1.3-.3 0-.6.6-1.1 1.3-1.1.8 0 .7-.4-.3-1-1.3-.8-1.3-1.3-.2-3.1.8-1.1.9-1.8.3-1.4-.7.4-1.1-.8-1.1-3.4V482h-15.7l-.1 13.7zM296.8 497.7c-.5.9-.5 1.3.6 7 .8 4.4 3.6 6.1 3.6 2.2 0-1.1.3-1.8.8-1.6.4.3.7-1.4.7-3.6 0-3.8-.3-4.2-2.7-4.5-1.4-.2-2.8 0-3 .5zM404.8 504.9c-.2 4.2-.2 10.6 0 14.3l.3 6.6 4.3.4 4.4.3-.2-3.6c-.1-2 .1-4.5.5-5.5.7-1.7.8-1.6.8.4.1 1.3.8 3.1 1.7 3.9.8.9 1.4 2.3 1.1 3.2-.3 1.3.5 1.5 5 1.3 2.9-.2 5.1-.7 4.9-1-1.3-2.5-6.6-14.3-6.6-14.8 0-.4 1.2-1.8 2.6-3.1 4.5-4.1 1.8-3.7-3.7.6-2.8 2.3-5.4 4-5.6 3.7-.3-.2-.5-3.1-.5-6.3-.1-7.8-.4-8.2-4.8-8.1h-3.9l-.3 7.7zM207 506.1c.6 1.1.8 2.5.4 3.1-.4.6-.3.8.4.4 1.3-.8 2.6 2.9 1.6 4.5-.4.7-.3.9.3.6.6-.4 2 1.6 3.3 4.8 1.2 3 2.9 6 3.7 6.6.8.7 1.3.8 1.1.3-.3-1.1 4.3-11.4 5.2-11.4.3 0 1.8 2.5 3.3 5.5 2.4 5 2.9 5.4 4.6 4.3 1-.6 1.7-1.8 1.4-2.5-.3-.7-.1-1.9.4-2.6 1.9-2.3 6.6-14.7 5.9-15.4-.3-.4-1.6 1.7-2.8 4.5-1.2 2.9-2.4 5.2-2.7 5.2-.4 0-1.9-2.3-3.5-5.1l-2.9-5.2-2.3 3.9c-1.3 2.1-2.4 4.5-2.4 5.1 0 2.8-2.1 1.1-4.2-3.5-2.2-4.6-2.4-4.7-7-4.9-4.5-.1-4.7 0-3.8 1.8zM247.5 504.9c-5.1 2.2-8.4 9.9-6 14.5.7 1.3 1 2.8.7 3.1-.4.4 0 .5.8.3.9-.2 1.4.3 1.2 1.2-.2.8-.1 1.2.3.8.4-.3 2.3-.1 4.3.6 2.1.6 4.8 1 6.2.8 3-.4 7.8-3.8 6.7-4.8-.4-.4-1.6.1-2.6 1-4.2 3.8-9 2.4-8.6-2.4.4-4.7 2.8-6 5.3-3 1 1.3 1.1 1.2.6-.4-.6-1.5-.4-1.7 1.2-.8 1.1.5 2.8.6 4.1.1 3.1-1.1 2.3-5.6-1.6-9.1-3.2-2.9-8.3-3.6-12.6-1.9zm7 .9c.6.4 1.1 2.3 1.3 4.2.2 3.3 0 3.6-2.6 3.8-2.5.2-2.8-.1-2.7-3.1.1-4.8 1.6-6.7 4-4.9zM268.9 506.2c-.5 8.2 0 16.2 1 18.2 1.1 1.9 1.9 2.2 5.4 1.9 2.3-.2 4.6-.9 5.1-1.4 1.6-1.5 4.1-1.2 2.8.4-.8 1 0 1.1 4.1.7l5.2-.5V516c.1-5.2-.1-10.1-.3-10.8-.3-.8-1.9-1.2-4.6-1.1l-4.1.2v8.5c-.1 7.1-.4 8.6-2 9.8-3.3 2.4-4 1.1-4.1-8.2-.1-4.9-.2-9.1-.3-9.5 0-.3-1.9-.6-4.1-.7-3.5-.3-4 0-4.1 2zM308.7 506.1c-1.9 1.4-2.6 2.7-2.3 4.8.3 2.5 4.7 8.1 6.5 8.1 1.5 0 4.3 3.9 3.6 5-.3.5-1.1.8-1.6.4-.5-.3-.7-.9-.4-1.4.3-.5.1-1.1-.4-1.5-.6-.3-.8.3-.6 1.5.5 2.4.4 2.4-4 .6-2-.9-3.5-1.1-3.5-.5 0 1.6 5.1 3 10.1 2.7 2.6-.2 4.6-.5 4.4-.7-.2-.2.2-1 1-1.8 2.6-2.6 1.8-7-2-10.7-1.9-1.8-4.2-3.6-5-4-.9-.3-1.5-1.2-1.3-1.8.6-1.7 3.7-1.7 6.6-.1 1.2.8 2.2.9 2.2.4 0-3.4-9.5-4.1-13.3-1zM431.1 508.7c-.1 2.6-.4 5-.7 5.4-.2.4-.1 1 .4 1.3.5.3.7 1.9.4 3.5-.3 2.2.2 3.6 2 5.4 2.8 2.8 6.4 2.9 10.3.3 2.2-1.5 2.5-1.5 2.5-.1 0 1.1 1.2 1.5 4.8 1.5h4.7l-.2-7.7c-.1-4.3-.2-9.2-.3-10.9 0-2.9-.2-3.1-4-3.1-2.3 0-4.4.5-4.7 1.1-.4.5-.6 4.1-.5 8 .2 6.8-1 10.2-3.1 8.9-.6-.3-.7-.1-.3.5.4.7.1 1.2-.7 1.2-1.2 0-1.5-1.8-1.5-9 0-4.9-.3-9.3-.6-9.8s-2.2-.9-4.4-1l-3.8-.2-.3 4.7zM461.7 504.8c-.3.4-.5 5.3-.6 10.8v10.2l3.4.4c2 .2 4 .1 4.5-.2.6-.4 1.2-3.7 1.3-7.4.1-4.2.7-7 1.5-7.5s1.3-1.1 1.3-1.5c-.3-2.2.1-2.7 2.1-2.4 1.5.2 2.4-.3 2.6-1.5.6-3.1-3.6-2-5.8 1.5l-2 3.3v-3.1c0-2.9-.2-3.1-3.9-3.2-2.2-.1-4.2.2-4.4.6zM484.3 505c-2.7 1.1-3.1 3.2-.5 2.3.9-.3 2.2-.9 2.7-1.3.6-.4 2.4-.6 4-.6 2.5.1 3.1.6 3.3 2.9.3 2.7.2 2.8-3.5 2.3-3.9-.6-10.3 2.1-10.3 4.4 0 .6-.4.8-1 .5-.6-.4-.7.2-.1 1.7.4 1.3.6 2.8.4 3.4-.2.7.8 2.1 2.3 3.3 2.1 1.7 3.9 2.1 8.8 2 3.3-.1 6.6 0 7.1.1.6.1 2 .2 3.3.1 2.1-.1 2.2-.5 2.2-7.4 0-8.9-.6-10.9-3.2-12.6-2.7-1.7-12.6-2.4-15.5-1.1zm8.1 7.6c1.2.4 1.6 2 1.6 5.4 0 4.9-.5 5.8-3.8 6.5-1.5.3-1.7-.4-1.6-5.9.1-3.3.2-6.2.3-6.4.2-.4 1.9-.2 3.5.4zM511.3 505c-1.2.5-2.5 2-2.9 3.4-.7 2.8.3 6.6 1.7 6.6.5 0 .9.7.9 1.5s.3 1.4.8 1.3c1.3-.4 5.2 2.6 5.2 4 0 .8.5 1 1.3.6.9-.5.9-.4.1.5-1.7 1.8-4.6 2-7.6.4-2.3-1.1-2.8-1.1-2.8 0 0 2.2 5 3.4 10.3 2.4 2.6-.5 4.7-1.4 4.7-1.9s.3-.7.8-.5c.4.3.8-1.2 1-3.3.2-3.5-.2-4.2-5-8.4-5.8-5.1-5.8-7.5.1-5.5 3.9 1.4 5.5.4 1.7-1.1-3.3-1.2-7.3-1.2-10.3 0zM533.3 505.1c-1.3.4-2.3 1.3-2.3 1.9 0 1.3 1.7 1.3 2.5-.1.4-.5 1.2-.8 1.8-.6.7.2 2 0 2.9-.4 2.4-1.3 4.8 0 4.8 2.5 0 2-.5 2.2-5.1 2.2-4.4 0-5.5.3-7.6 2.8-1.9 2.3-2.3 3.6-1.9 6 .4 1.7.7 3.6.8 4.2.2 1.4.7 1.5 11.3 1.9 5 .3 9.8.6 10.7.9.9.2 1.5-.1 1.2-.8-.2-.6-.5-4.6-.7-8.9-.4-10.1-2.1-12.1-10.5-12.3-3.1-.1-6.7.2-7.9.7zm8.7 7.9c.5 0 .9 2.2.8 4.9 0 4.2-.3 5-2.4 6-1.3.6-2.4.7-2.5.3-.4-3.3-.5-10.9-.1-11.5.2-.5 1.1-.6 1.9-.3.8.3 1.9.6 2.3.6zM482.6 528.2c.3.5 1 .6 1.5.3 1.3-.9 1.1-1.2-.6-1.2-.8 0-1.2.4-.9.9zM353.8 552.4c-1 .7-1.8 1.8-1.8 2.5 0 .6-.4 1.1-1 1.1-.5 0-1 .6-1 1.3 0 .7-1.1 4-2.4 7.4-2.1 5.4-2.2 6-.6 5.6 1-.3 2.2-2.2 2.9-4.3 1.1-3.7 4.1-6.3 4.1-3.6 0 2.5-1.2 4.6-2.2 4-.5-.3-.4.3.4 1.5 1.5 2.4 2.9 2.6 4.6.9.9-.9 1.2-.9 1.2 0 0 1.6 3.7 1.6 4.2 0 .2-.6 1-.8 1.7-.4.9.6.9 1.1 0 2.2-.8 1-.4 1 2-.2 1.7-.9 3.1-2 3.1-2.5 0-.6-.4-.7-1-.4-1.3.8-1.3.1.4-4 1.2-2.8 1.2-3.5.2-3.5-.7 0-1.9 1.1-2.6 2.5-.7 1.3-1.8 2.1-2.4 1.8-.6-.4-.5.1.3 1 .8 1 1.1 2 .7 2.4-.3.3-.6.1-.6-.7 0-1-.3-1-1.4-.1-3 2.5-2.7-1 .3-4 2.9-2.8 2.9-3 .9-2.7-1.3.2-3.2 1.7-4.3 3.5-2.5 4-5 5.3-3.9 2 1.4-4.1 1-6.2-1.1-6.2-2.3 0-2.2-2.6.1-5.9 2-2.8 1.8-.1-.2 2.9-.9 1.4-1.4 2.5-1.1 2.5.9 0 4.6-6.4 4.1-7.2-.7-1.1-1.6-1-3.6.6zM386.5 555c-1.4 2.2-2.5 4.4-2.5 5 0 1-2.1 5.1-3 6-.3.3-.7 1.5-.7 2.7-.2 2.7 2 2.1 3.5-1 .8-1.6 1.1-1.8 1.1-.6.2 2.9 2.5 4 4.9 2.3 1.3-.9 2.2-1.1 2.2-.5 0 .6.9 1.1 2 1.1s2-.5 2-1c0-.6-.4-1-1-1-.5 0-.3-1.8.5-4.1 1.1-3 1.2-4 .2-3.6-.6.2-1.7 1.3-2.2 2.4-2.1 4.1-3.7 5.4-5.1 4.2-.8-.6-1.1-1.6-.7-2.2.4-.7 0-.8-1.2-.3-1.4.5-1.5.3-.7-.6.6-.7 1.1-1.6 1.1-2.1.1-.4.1-.8.2-1 0-.1.2-1.5.4-3 .2-1.6.9-3.5 1.6-4.3 1.9-2.4 2.2-.8.3 2-.9 1.5-1.4 2.9-1.1 3.2.8.9 3.9-5.5 3.2-6.6-1.1-1.8-2.5-1-5 3zM195 554.2c-4.4 3-7.5 8.9-6.4 12.6.4 1.5.7 3 .6 3.4-.1.4.6.4 1.5.1 1-.4 1.4-.2 1 .4-1.5 2.4 10.9-1.6 12.5-4.1 1.6-2.3.7-2.9-1.4-.9-3.4 3.1-6.2 4.3-8.6 3.6-2.4-.6-4.3-5.4-2.4-6.1.6-.2.8-1 .5-1.8-.6-1.6 6.2-8.8 7.6-8 .5.4 1.2.2 1.6-.4 1.1-1.8-3.2-1-6.5 1.2zM339.5 554.4c-1.7 2.6-1.2 5.2 1.7 7.7 2.2 2 2.4 5.7.3 6.5-.8.4-1.5 1.3-1.5 2.1 0 1.2.2 1.2 1.6-.1.8-.9 2-1.6 2.5-1.6s1.4-1.2 2-2.6c.7-2.1.6-3.1-.6-4.4-.8-.9-1.2-2-.8-2.5.5-.4.3-.5-.4-.1-1.5.8-3.7-3-2.9-5 .3-.8 1.5-1.4 2.6-1.4 1.7 0 1.9.4 1.4 2.5-.7 2.9-.2 3.1 2.1.9 1.2-1.2 1.3-1.9.4-3-1.9-2.3-6.6-1.7-8.4 1zM505.4 553.9c3.4 3.8-1.1 12.7-7.9 15.7-2 .9-2.4 1.3-1.1 1.4 2.9 0 9.7-6 11.6-10.3 2.1-4.7 1.4-7.9-2-8.4-2.3-.3-2.3-.3-.6 1.6z"/><path d="M203.5 553.9c.3.5-.5 1.7-1.7 2.5-2.6 1.9-2.1 2.7 1 1.5 2.2-.8 3.2-4.9 1.1-4.9-.5 0-.8.4-.4.9zM418.9 555.4c-3.4 2.3-6.9 7.8-7.6 11.8-.3 1.7 2.1 4.8 3.7 4.8.5 0 1.2-.5 1.5-1 .3-.6-.1-1-.9-1-1 0-1.6-.9-1.6-2.4 0-4.2 1.9-8 5.8-11.3 4.4-3.9 4-4.2-.9-.9zM246 556.5c-.8.9-.8 1.5-.2 1.5 1.2 0 2.6-1.9 1.9-2.6-.2-.2-1 .2-1.7 1.1zM281.5 556.1c-1.1 1.7.1 2.1 1.5.4.8-.9.8-1.5.2-1.5-.6 0-1.4.5-1.7 1.1zM473 556.6c0 .8.5 1.2 1 .9.6-.3 1-1 1-1.6 0-.5-.4-.9-1-.9-.5 0-1 .7-1 1.6zM238.8 558c-.7 1.1-2 2-2.8 2-1.1 0-1.2.2-.3.8.9.6.8 1.6-.7 4-2.7 4.4-4.4 4.1-2.5-.4.8-2 1.5-3.7 1.5-3.8 0-.1-1.8-.2-4-.3-3.7-.2-4.2.2-7 4.3-3 4.3-7 6-7 2.9 0-2.6 2.3-6.5 3.8-6.5 1.2 0 1.1.4-.4 2.1-1.9 2.1-1.9 2.1.1 1.8 2.8-.6 2.7-4.3-.1-4.7-2.1-.3-4 1.5-7 6.4-1.8 2.9-2.9.8-1.4-2.4.8-1.5 1.6-3.1 1.8-3.6.3-.4-.6-.5-1.8-.1-1.5.5-2.6.2-3.1-.6-1.3-2-2.8.6-2.1 3.5.5 1.8.7 1.8 1 .3.2-.9.8-1.7 1.3-1.7.8 0 .2 4.8-.7 5.9-.2.2.1 1 .8 1.8.9 1.1 1.4 1.1 3-.4 1.3-1.1 2.2-1.4 2.6-.6 1.3 1.9 4.8 2.4 6.2.8 1-1.2 1.6-1.3 2.6-.4.8.6 2 .9 2.9.6.8-.4 1.7-.2 2 .3.7 1.1 3.3.3 5.8-1.8 1.5-1.4 1.7-1.3 1.7.1 0 1.1.8 1.7 2.1 1.7 1.6 0 1.9-.4 1.4-1.8-.8-2.2-.8-2.3 0-5 .4-1.2 1.5-2.2 2.4-2.2 1.3 0 1.4-.2.2-.9-1.2-.8-1.2-1.2-.2-2.5.9-1.1 1-1.6.2-1.6-.6 0-1.6.9-2.3 2zm-8.8 4.4c0 .8-.7 2.1-1.5 3-1.7 1.7-2 3-.5 2.1.6-.3 1 .1 1 .9 0 1.4-.3 1.4-2 .4-2.4-1.5-2.5-2.2-.4-5.3 1.8-2.8 3.4-3.3 3.4-1.1zM284.6 560.9c-1.4 1.5-1.4 2-.1 3.7 1.9 2.5 1.9 4-.1 4.8-1.2.5-1.5.2-1.1-1.3.4-1.7.1-1.8-2.4-1.1-3.4 1-3.4 1-1.5-3.5.8-1.9 1.1-3.5.7-3.5-1.4 0-2.8 2.3-3.9 6.4l-1.1 3.8 3-.6c1.6-.3 3.8-.1 4.7.5 1.2.8 2.6.6 5.2-.5 1.9-.8 2.9-1.5 2.3-1.6-.7 0-1.3-.7-1.3-1.5 0-.9-.7-1.8-1.5-2.1-.8-.4-1.5-1.5-1.5-2.6 0-1 .5-1.6 1-1.3.6.4.8 1.1.5 1.6-.4.5-.2.9.4.9 1.9 0 2.1-1.9.3-2.9-1.5-.8-2.3-.6-3.6.8zM377.9 562.1c-3.2 3.5-3.5 4.7-1.6 7.3 1.2 1.6 1.4 1.6 2.6.2.8-.9.9-1.6.3-1.6-1.2 0-.4-3.7 1.6-6.8 2.1-3.2.5-2.7-2.9.9zM454.7 561.1c.6 2.2 2.3 2.6 2.3.5 0-.8-.6-1.6-1.4-1.9-1-.4-1.2 0-.9 1.4z"/><path d="M241.3 564c-1.2 2.2-1.7 4-1.2 4s.9.7.9 1.5c0 1.6 1.6 2 2.4.6.3-.5 1.4-.7 2.5-.4 1.4.3 2-.2 2.5-2.4.8-2.9 3.3-6.3 4.7-6.3.5 0 .4 1.2-.1 2.6-.6 1.4-1 3.6-1 5 0 2.2.3 2.3 2 1.4 1.1-.6 2-1.5 2-2.1 0-.6-.5-.7-1.2-.3-.8.5-.9.2-.5-1 2.3-5.9 2.1-6.5-2-6.4-3.6 0-4.1.4-5.2 3.3-.6 1.8-1.8 3.6-2.6 3.9-1.8.7-1.8.7 0-3.8 2.2-5.1-.3-4.8-3.2.4zM258.6 563.2c-1.9 2.4-2.2 3.6-1.5 5 1.1 2.1 3 2.3 4.7.6 1.6-1.6 1.5-.3-.3 3.2-.9 1.7-2.2 3-3.1 3-.8 0-1.2-.5-.9-1 .3-.6.2-1-.4-1-1.8 0-2.3 2-.6 2.6 3 1.2 6.5-1.4 8.6-6.4 1.1-2.6 2.4-5.5 2.9-6.4 1.3-2.3 1.3-2.8-.3-2.8-.7 0-2.1 1.5-3.1 3.4s-2.5 3.7-3.2 4c-2.3.9-1.6-2.3 1.1-4.9 2.2-2.2 2.2-2.5.5-2.5-1 0-3 1.4-4.4 3.2zM298.9 565.1c-2 6.2-.2 6.6 2.6.7 2.2-4.7 4.7-6.3 4-2.7-.3 1.2-.9 2.7-1.5 3.3-1.4 1.4-1.3 3.6.3 3.6.6-.1 2.1-1.9 3.2-4.2 2.6-5.5 4.8-6.4 3.3-1.4-.7 2-1.6 3.3-2.2 2.9-.6-.3-.3.2.6 1.2 1.9 2.1 5.7 1.3 4-.8-.7-.8-.7-1.8-.2-2.7 2.4-3.8 1.3-4.7-5.7-4.7h-6.8l-1.6 4.8zM316.3 564c-1.4 2.4-1.9 4.1-1.3 4.5.6.4.8 1.1.5 1.6-.4.5.2.6 1.2.2 3.1-1.1 3.5-1.5 2.2-2.4-1.1-.6-1-1.4.4-4.3 2.4-5.1-.1-4.8-3 .4z"/><path d="M321.9 564.2c-1.1 2.1-1.7 3.8-1.3 3.8.4 0 .1.6-.5 1.3-.6.8-.9 1.6-.6 1.9.3.3-.1 1.1-1 1.8-1.2 1-1.8 1-3 0-.9-.7-1.8-1-2.1-.7-1.1 1.1.6 2.5 3.6 2.9 1.6.3 2.8.3 2.6 0-.8-.8 1.9-3 2.9-2.4.6.3.7.2.3-.2-.7-.8 1.9-9.3 3.3-11.2.6-.7.3-1.1-.7-1.1-.8 0-2.4 1.8-3.5 3.9zM371.3 563.2c-2.2 3.8-1.9 6.8.6 6.8 1.3 0 1.7-.8 1.7-3.3 0-1.7.4-4 .8-5 1.4-3.1-1.1-1.8-3.1 1.5zM387.7 560.6c-.9.9 1.6 3.2 3 2.7.6-.3.9-1.1.6-1.9-.5-1.4-2.5-1.9-3.6-.8zM398.5 563.7c-2.2 3.3-2.3 3.9-1 5.3 1.8 1.7 4 .7 6.4-3.1l1.5-2.4-2.3 2.3c-3 3-3.6 2.3-1.7-2.2 2-4.7.4-4.6-2.9.1zM425.9 568.2c-3.2 8-3.4 9.3-1.1 7.9 1.2-.7 1.9-2.5 2.1-5.5.1-.4.8-.6 1.6-.2 1.8.7 7.5-1.3 7.5-2.6 0-.6-.6-.5-1.5.2-1.3 1.1-1.3.8 0-2.4 1.9-4.4 1.4-5.5-2.5-5.4-2.7.1-3.1.7-6.1 8zm5.7-1.7c-1.6 2.5-3.6 3.3-3.6 1.6 0-.4 1-2.1 2.2-3.6 2.6-3.3 3.8-1.6 1.4 2zM438.4 562.7c-1.4 1.5-2.2 3.3-1.9 4.1.3.7.5 2 .5 2.7 0 1.7 3.7.8 4.4-1 .3-1 0-1.2-1.1-.8-1.2.5-1.4.1-.8-1.8.9-2.7 2.9-4.9 4.4-4.9 1.5 0 1.4 1.6-.3 3.3-.8.8-1.2 2.4-.9 4.1.5 2.5.7 2.6 2.8 1.2 1.6-1.1 2.5-1.2 3.3-.4 1.5 1.5 7 1.7 7.6.3.2-.7-.2-2.3-1-3.6-.7-1.3-1.7-3.2-2-4.2-.9-2.5-2.4-2.1-2.4.8 0 1.4.5 2.5 1.1 2.5.6 0 .9.9.7 2-.2 1.2-.7 1.9-1.3 1.8-.5-.2-.9-.6-.7-1.1.1-.4-.3-.7-.9-.7-.6 0-.8-.8-.5-1.8.4-1.1-.1-.8-1.5.8l-2.1 2.5.5-2.5c.2-1.4.7-3.2 1.1-4.1.6-1.3 0-1.6-2.9-1.7-2.8-.1-4.2.5-6.1 2.5zM460.5 561c-.4.6.1 2.2 1 3.6s1.3 3.3 1 4.4c-.8 2.5-.2 2.5 3.2.3 2.6-1.7 2.7-1.7 2 .1-.6 1.5-.4 1.7 1 1.1 1-.4 2.4-.8 3.1-.8.9 0 .8-.5-.3-1.7-1.4-1.5-1.4-2-.1-4.6 1.9-3.5 1-4.7-1.2-1.7-3.4 4.5-5.3 6.8-4.8 5.7.3-.6-.3-2.2-1.4-3.4-1.1-1.2-1.7-2.7-1.4-3.1.3-.5.1-.9-.5-.9-.5 0-1.3.5-1.6 1z"/><path d="M464.3 561.5c0 .9.4 1.4.9 1.3.5-.2 1-.8 1-1.3s-.5-1.1-1-1.3c-.5-.1-.9.4-.9 1.3zM475.8 561.7c-3.1 3.7-3.7 5.6-2.1 7.2 2.2 2.2 3.9 2.2 5.9 0 2.3-2.5 4.8-2.5 4.1 0-.3 1.3-.1 1.8.8 1.5.7-.3 1.5-1.5 1.8-2.6.3-1.1 1-1.7 1.6-1.3.7.3.8 0 .5-1-.6-1.6 1.2-4.5 2.8-4.5.5 0 .7.8.4 1.7-1.7 5.8-1.8 7.3-.4 7.3 1.6 0 5.8-4.1 5.8-5.6 0-.5-1 .2-2.1 1.6l-2 2.5.6-4.2.7-4.2-4.1.2c-3 .1-4.1.5-4.1 1.7 0 1.7-1.9 4-3.3 4-.5 0-.7-.7-.3-1.5 1.5-4.1-3.6-6.2-6.6-2.8zm4.7 1.5c-.4 1.3-.9 3.1-1.1 4-.3 1-1.2 1.8-2.1 1.8-1.2 0-1.4-.6-.8-2.7.7-3.1 2.3-5.3 3.7-5.3.5 0 .6 1 .3 2.2zM290.6 565.7c-.6 1.4-.5 1.5.5.6.7-.7 1-1.5.7-1.8-.3-.3-.9.2-1.2 1.2zM334.6 566.5c-.5 1.5 1.8 4.5 3.5 4.5 1.2 0 1.2-1.7-.1-2.5-.5-.3-.7-1.2-.3-2 .3-.9-.1-1.5-1-1.5-.8 0-1.7.7-2.1 1.5zM457.5 566c-.6 1 1.5 5 2.7 5 1.3 0 .9-1.7-.7-3.3-.8-.8-1.1-1.7-.8-2.1.4-.3.4-.6 0-.6-.3 0-.8.4-1.2 1zM156.2 67c-25.1 17.2-53.5 43.2-68.3 62.5-1.3 1.6-2.6 3.2-2.9 3.5-2.4 2.2-16 20.9-19.8 27.2l-2.2 3.6 3.6 6.2 3.6 6.2 1.7-2.6c1-1.4 2.1-2.3 2.5-1.9.4.4.4 0 0-1-.3-.9-.1-1.7.4-1.7.6 0 1.4-.9 1.7-2 .4-1.1 1.1-1.8 1.6-1.5.5.3.6-.1.3-.9-.3-.9-.2-1.6.3-1.6.6 0 1.5-1.2 2.2-2.6.7-1.7 1.7-2.4 2.6-2 .8.3 1.5.1 1.5-.4 0-.6-.5-1-1-1-.6 0-.1-1.3 1.1-3 1.2-1.6 2.7-2.6 3.2-2.3.6.3.7.2.4-.4-.8-1.2 2.1-5.5 3.3-4.8.5.3 1.2 0 1.6-.6.4-.8.3-.9-.4-.5-1.6 1-1.5-.9.1-2.3 1-.8 1.7-.7 2.7.2 1.2 1 1.2.9.3-.3-.9-1.2-.5-2.4 1.8-5.4 1.6-2.2 2.9-3.5 2.9-3s.5.1 1.1-.9c.6-.9 1.5-1.4 2.1-1.1.7.4.8.2.4-.5-.9-1.4 5.3-8.3 6.7-7.4.6.3.7.1.3-.6-.8-1.2 11.8-14.4 12.8-13.4.3.4.6-.1.6-1 0-1.8 3.5-4.1 4.9-3.3.5.3.8-.2.7-1.2 0-.9.5-1.6 1.2-1.4.8.1 1.1-.2.7-.7-.6-1.1 3.4-3.7 5-3.2.5.1.7-.1.2-.5-.4-.4 0-1.6 1-2.6 1.8-2 3.8-2.5 2.7-.6-.5.7-.3.8.5.4.7-.5 1-1.1.7-1.4-.7-.7 3.3-5.2 4.6-5.2.5 0 .6.5.2 1.2-.4.7-.3.8.5.4.6-.4.9-1.1.6-1.6-.6-1 3.5-4.1 4.6-3.4.4.2 1.1-.1 1.5-.7.5-.8.3-.9-.7-.4-2.2 1.3-.8 0 4.4-3.9 4.9-3.7 6.3-4.4 5.1-2.4-.4.7-.3.8.5.4.6-.4.9-1.1.6-1.6-.3-.5.4-1.1 1.5-1.5 1.1-.3 2-1.1 2-1.6 0-.6.4-.8.9-.4.6.3 1.3-.1 1.8-.8 1.1-1.8 5.8-4.9 6.5-4.2.3.3.8-.1 1.1-.9.4-1.1-1.2-2.6-5.2-5.1-3.2-1.9-6.1-3.5-6.3-3.5-.3 0-5 3.1-10.6 7zM526.2 63.9l-6.4 3.9 7.3 4.7c3.9 2.5 7.8 5.3 8.6 6.1.8.8 1.8 1.4 2.2 1.4.5 0 1.9 1 3.3 2.2 2.6 2.4 4.3 3.6 9 6.6 1.6.9 2.8 2.3 2.8 2.9 0 .7.6 1.3 1.3 1.3 1.8 0 8.8 6.5 7.9 7.5-.4.4-.2.5.4.2 1.3-.7 13 9.9 12.6 11.4-.1.6.2.8.6.5.5-.3 2.8 1.5 5 3.9 2.2 2.5 4.6 4.5 5.1 4.5.6 0 1.1.4 1.1.8s1.5 2.4 3.4 4.4c1.9 2 3.2 3.9 2.9 4.2-.4.3.2.6 1.2.6s1.6.3 1.2.6c-.3.3.7 1.7 2.4 3.1 1.6 1.4 2.8 3.2 2.7 4.1-.2.9.2 1.7.7 1.7 2 .1 3.6 1.7 3.1 3.2-.3.8-.2 1.2.2.9.8-.5 4.2 2.8 4.2 3.9 0 .4 1.9 2.9 4.5 5.9 3 3.3 6.5 8.6 5.8 8.6-.4 0-.3.4.3.8 2 1.4 6.3 8.5 5.7 9.5-.3.6-.1.7.5.3 1.1-.7 1.6.5 1.3 2.9-.1.5.8-.1 1.9-1.5 1.1-1.4 2-2.9 2-3.3 0-.5.5-.5 1.2-.1s.8.3.4-.4c-.8-1.3.5-4.2 2.8-6.5 1.3-1.3.6-2.7-5.6-11.8-5.9-8.7-10.3-14.4-20.8-27.2-10.3-12.6-37.2-38.4-47.4-45.7-1.2-.8-3.1-2.3-4.4-3.4-3-2.7-23.4-16.6-24.1-16.6-.3.1-3.5 1.8-6.9 3.9zM50.1 185.4c-7.2 13-20.9 44.3-22.6 51.6-.2.8-1.5 5-2.9 9.2-1.4 4.3-2.8 9.4-3.2 11.3-.3 2-1 3.2-1.7 2.8-.5-.3-.7-.1-.4.4.8 1.3-.3 7.4-1.2 6.9-.3-.2-.6 1-.7 2.7 0 2.7-.5 5.3-1.8 10.2-.1.5-.8 5-1.6 10-.7 4.9-1.7 9.6-2.3 10.2-.6.9-.6 1.3.2 1.3.7 0 .9.4.6 1-.6 1-1.4 6.6-2 14-.1 2.5-.4 4.5-.5 4.5-.1 0-.3 4.7-.4 10.5-.2 5.8-.5 10.9-.6 11.5-.1.5-.2 1.2 0 1.5.1.3.3 5 .4 10.5.3 11 1.6 29.9 2.2 33 .9 4.3 1.8 12.2 1.9 15.2 0 1.7.3 2.9.7 2.6.5-.2.8.8.8 2.4.1 1.5.7 5.5 1.5 8.7.8 3.3 1.2 6.3.9 6.8-.3.4-.1.8.3.8.5 0 1.4 2.6 2.1 5.7 1.5 6.6 11.1 37.3 12.2 38.8.4.5 2.2 4.8 4 9.5 1.9 4.7 4.4 10.5 5.7 12.9 1.2 2.4 2 4.7 1.7 5.2-.3.5-.1.9.4.9 1.2 0 10.3 17.6 9.5 18.4-.4.3-.1.6.6.6.6 0 1.4-.7 1.7-1.5.4-.8 1-1.2 1.5-.9.5.3.6-.1.4-.8-.3-.8.4-2.4 1.5-3.6 1.1-1.2 1.8-2.2 1.5-2.2-.3 0 .2-1.1 1-2.4 1.5-2.3 1.4-2.8-2.9-11.2-7.9-15.7-11.7-24.7-11.2-26.1.3-.8.2-1.2-.3-.9-1.1.7-3.3-5.2-2.5-6.5.3-.5.1-.9-.4-.9-1.3 0-4.4-9.8-3.6-11.2.4-.6.3-.8-.3-.5-.8.5-3.4-6.9-5.8-16.3-.3-1.4-1.3-5-2.1-8-.9-3-1.8-6.6-2-8-.3-1.4-.9-5-1.5-8-2.2-11.5-3.9-23.4-4.4-31.1-.2-3.4-.6-6.4-.9-6.7-.3-.3-.1-1.1.5-1.9.7-.7.7-1.3.2-1.3-1.6 0-1.7-35.8-.1-37.8 1-1.2 1-1.4 0-.8-1.5.9-1.6-.8-.2-3.5.6-1.1.7-1.9.1-1.9-.5 0-.7-.8-.5-1.8.6-2.8 1.5-10.5 1.5-12.7 0-1 .5-2.6 1.2-3.4 1-1.2.9-1.3-.1-.7-1.3.8-1.1-1.2.6-6.9.3-1.1.5-3.1.3-4.4-.1-1.3.1-2.1.6-1.8.4.3.9-1.4 1-3.6.3-6.4 1.5-12.7 2.4-12.7.5 0 .5-.7.2-1.7-.5-1.2-.3-1.4.7-.8.9.5 1.1.4.6-.4-1.1-1.8.4-9.7 1.5-8 .6.9.7.1.2-2-.3-2-.2-3.2.3-2.9.5.3 1-1 1.1-3 .1-1.9.5-3.8 1-4.1.4-.3.8-1.1.8-1.6.1-2.7 1.8-7.5 2.5-7 .4.3.8-.1.7-.8-.1-3 .4-4.8 1.2-4.3.4.3.6-.6.3-1.9-.2-1.4 0-2.5.5-2.5s.9-.8 1-1.9c.1-1 .9-3.6 1.9-5.7.9-2.1 1.8-4.6 2-5.4.7-3 4.2-8.9 4.9-8.2.5.4.5.2.2-.5-.9-1.4.2-4.5 1.3-3.8.4.3.8-.1.7-.8-.1-3.4.4-4.8 1.5-4.1.6.4.8.3.4-.4-.3-.6.7-3.5 2.4-6.5 3.1-5.7 3.8-9.1 2-10.2-.6-.4-1.9-2.4-3-4.6-1.1-2.1-2.4-3.9-3-3.9-.5 0-2.7 3.3-4.9 7.4zM640.7 184.1c-3.6 5.9-4.2 9.9-1.6 11.5.5.3.9 1 .9 1.5 0 .6-.5.7-1.2.3-.7-.4-.8-.3-.4.5.4.6 1.1.9 1.6.6.7-.5 4.4 6.8 4.5 9 0 .5.5 1.4 1.1 2 1.9 1.8 8.6 19.4 7.8 20.6-.4.7-.3.9.3.6 1.2-.8 4.7 8.8 3.7 10.4-.4.7-.3.9.3.6.9-.6 5.3 11.9 5.7 16 0 1 .4 2 .8 2.3.4.3.9 2.1 1.2 4 .2 1.9.9 4.6 1.4 6 .5 1.4 1 2.8 1 3.3 0 .4.3 2 .6 3.5.4 1.5.8 4 1.1 5.7.2 1.6.9 5.8 1.5 9.3.6 3.5.8 6.8.4 7.4-.4.7-.3.8.4.4.8-.5 1.2.5 1.3 3.1 0 2.1.2 4.7.4 5.8 3 15.1 2 77.4-1.3 82.9-.3.6-.5 2.7-.5 4.8 0 2.1-.2 3.8-.6 3.8-.3 0-.7 1.7-.7 3.8-.3 6.7-9.4 41.6-13.5 51.7-.7 1.6-1.3 3.4-1.5 4-.2 1-4.4 11.3-6.7 16.7-.7 1.6-1.6 2.8-2 2.8-.5 0-.6.4-.3.9s-1.6 5.2-4.3 10.4c-6.4 12.6-6.3 12.2-4 15.1 1.1 1.4 1.7 3.1 1.3 3.7-.4.8-.3.9.4.5 1.1-.6 1.6.5 1 2-.2.3.5 1 1.5 1.5.9.6 1.5 1.4 1.2 2-.4.5 0 .9.8.9s2.2-1.6 3.3-3.5c1-1.9 2.2-3.5 2.6-3.5.5 0 .8-.3.7-.8-.2-1.5 1.4-5.2 2.2-5.2.5 0 .9-.7.9-1.5 0-1.8 3.5-7.7 4.2-7 .2.3.4-.5.4-1.8-.1-1.2.4-2.1 1-2 .8.1 1-.6.6-1.9-.4-1.6-.2-1.9.8-1.3.8.5 1.1.4.7-.3-.4-.5.2-3.2 1.4-5.9 4.6-10.6 4.5-10.4 4.8-12.4 0-.5.5-.7 1.1-.4.5.3.7 0 .4-.8-.3-.8.3-3.2 1.2-5.3.9-2.2 1.8-4.1 1.9-4.4 0-.3.7-2.8 1.5-5.7.7-2.9 1.7-5 2.1-4.7.4.2.5-.6.1-1.8-.3-1.4-.1-1.9.6-1.4.8.5 1 .2.6-.9-.4-.8-.1-2.1.5-2.9.6-.7.8-1.5.6-1.8-.3-.3-.1-1.8.6-3.4.6-1.6 1.3-4 1.5-5.4 1-6.2 2.6-11.4 3.8-12.2.8-.5.8-.8 0-.8-.6 0-.9-1.3-.6-3 .2-1.7.7-3 1.1-3 .3 0 .6-1 .7-2.3.1-2.7.9-9 2.3-18.3 1.1-7.4 1.8-15.2 2.3-24.7.2-3.1.7-5.7 1.3-5.7.7 0 .7-.3 0-.8-.6-.4-1-6.8-1.1-15.2 0-8-.4-19.2-.9-25-.4-5.8-.8-12-.9-13.7-.1-1.8-.3-3.3-.6-3.3s-.7-1.5-.8-3.3c-.1-1.7-.7-5.8-1.3-8.9-.5-3.2-1.2-7-1.5-8.5-.3-1.6-.7-3.6-1-4.5-.3-.9-.7-2.7-.9-4-.3-1.3-1-4.4-1.6-7-.6-2.6-.7-5.2-.3-5.9.4-.7.3-.9-.4-.5-.6.4-1.3-.7-1.7-2.6-1-4.3-5.8-20.1-8-25.8-2-5.3-2.3-6-6.6-16.5-4.3-10.3-17.3-35.8-18.5-36.2-.5-.1-2.6 2.5-4.7 5.8zM66.6 522.7c-3.8 6.6-3.9 6.8-2.2 9.6.9 1.6 1.3 3.3 1 3.8-.3.5-.2.8.3.7.4-.2 1 .1 1.3.7.2.5 1.2 1.9 2.2 3 2.9 3.2 9.8 12.4 9.8 13 0 .6.4 1.1 5.5 6.9 1.9 2.1 3.2 4.3 2.8 5-.3.6-.3.8.2.4.4-.4 1.7.2 2.7 1.5 1 1.2 4.7 5.3 8.1 9.1 3.4 3.8 6.1 7.3 5.9 7.8-.1.5.2.7.6.4 1.2-.7 4.4 2.8 3.5 3.8-.5.4-.1.6.7.4.8-.2 1.4.3 1.2 1-.1.6.2 1.1.6 1 1.1-.4 12.2 9.8 12.2 11.1 0 .6.6 1 1.3.8.6-.1 1.1.5.9 1.3-.2.8 0 1.2.3.8 1-1 7.6 4.2 6.9 5.3-.3.5-.2.9.3.8 2-.3 3.4.2 2.8 1.1-.3.5 0 1 .7 1s2.5 1 4 2.3c1.5 1.2 5.8 4.4 9.5 7.2 3.7 2.7 7.1 5.4 7.5 6 .5.7.8.7.8 0 0-.6.7-.1 1.5.9.8 1.1 1.5 1.6 1.5 1 0-.5.7 0 1.5 1 .8 1.1 1.5 1.6 1.5 1.2 0-.5.7-.3 1.5.4 1.2 1 1.5 1 1.5 0 0-.7.7-1 1.6-.6.8.3 1.2.2.9-.4-.3-.5 1.2-1.8 3.3-2.9 4-2 7.2-5.1 5.4-5.1-1 0-18.7-11.7-23.3-15.4-1.4-1.2-4-3.2-5.9-4.6-1.8-1.4-3.8-3-4.4-3.5-.6-.6-4.1-3.5-7.6-6.5-10.8-9.1-26.9-25.3-26.3-26.4.3-.6.3-.8-.2-.4-.9.8-1.3.4-9-8.7-3.2-3.9-6.1-7.2-6.5-7.5-.3-.3-1.7-2.1-3-4s-2.7-3.7-3-4c-.4-.3-3.5-4.8-7.1-10-3.5-5.2-6.6-9.7-6.9-10-.3-.3-1.5-2-2.6-3.7l-2-3.3-3.8 6.7zM626.4 518.9c-1 1.7-2.2 3.1-2.7 3.1-.4 0-.5.4-.2 1 .3.5.1 1-.4 1-.6 0-1.1.5-1.1 1 0 .6-.5 1.6-1 2.3-.6.7-3.3 4.5-6 8.4-2.8 4-5.5 7.3-6.1 7.3-.6 0-.8.4-.5.8.3.5-.5 1.9-1.7 3.3s-4.2 4.9-6.7 7.9c-9.5 11.7-27.3 29.9-36.5 37.5-2.7 2.2-5.3 4.5-5.9 5-3.3 3.2-16.4 13.1-25.1 19-12.6 8.6-12.1 8.1-10.1 10 .9.9 1.6 1.3 1.6.9s.8 0 1.8.8c.9.9 2.7 1.9 4 2.3 1.5.4 2.1 1.2 1.8 2.1-.5 1.2 0 1.2 2.9 0 1.9-.8 5.1-2.7 7-4.2 1.9-1.4 3.5-2.2 3.5-1.8 0 .5.7.1 1.5-1 .7-1 1.8-1.5 2.4-1.1.6.3 1.1 0 1.1-.7s2.7-3.3 6.1-5.8c3.3-2.4 7-5.2 8.1-6.2 1.7-1.5 2.4-1.6 3.7-.5 1.4 1 1.4 1 .3-.4-1-1.4-.7-2 2.2-4.2 1.8-1.4 3.7-2.3 4.1-1.9.3.4.5.2.3-.4-.4-1.5 5.1-6.6 6.3-5.9.5.3.6-.2.2-1.1-.4-1.2-.2-1.5.8-1.2.8.3 1.3 1.1 1.1 1.7-.1.7.3.9.9.6.8-.5.8-1 0-1.8s-.1-2.1 2.5-4.8c2-2.1 4.2-3.6 4.8-3.5.6.2.7.1.3-.2-.5-.2-.1-1.3.9-2.3 1.4-1.6 2-1.7 3.3-.6 1.4 1 1.4 1 .4-.3-.9-1.2-.6-2.1 1.8-4.8 1.6-1.7 3.3-3.2 3.9-3.2.5 0 1-.7 1-1.5 0-.7.6-1.8 1.3-2.2.6-.4 2.9-2.9 5-5.5s4.3-5.3 5-6c.7-.7 2.5-3 4-5.1 1.6-2 3.2-3.5 3.7-3.2.4.2.7-.3.6-1.3 0-.9.5-1.6 1.2-1.4.8.1 1.1-.2.7-.8-.6-.9 1.5-4.1 5.9-9.2.8-.9 1.7-2.6 2.1-3.7.4-1.3 1.1-1.9 1.8-1.5.7.4.9.3.4-.1-.4-.5-.1-1.8.6-2.9 1.2-1.9.9-2.9-2.9-9.4l-4.2-7.4-1.8 3.1z"/><path d="M567.3 576.5c0 .8.4 1.2.9.9.5-.3.6-1 .3-1.5-.9-1.3-1.2-1.1-1.2.6zM497.5 637.2c-4.4 2.3-12 5.9-17 8-4.9 2.1-9.9 4.3-11 4.8-1.1.5-7.2 2.7-13.5 4.9-26.5 8.9-57.2 15.3-80.2 16.6-4.3.2-8.1.5-8.5.8-2.4 1.1-50.4-.4-57.2-1.9-1.3-.3-4.5-.7-7-1-3.7-.4-24.9-4.5-36.8-7.1-1.3-.3-2-.9-1.7-1.4.3-.5-.1-.6-.9-.3-.7.2-5.1-.7-9.8-2.2-4.6-1.5-8.8-2.9-9.4-3-5.2-1.1-34.1-13.2-41.9-17.4-8.2-4.4-8.7-4.4-15.5-.4-3.3 2-6.1 4-6.1 4.4 0 .4 1.1 1.2 2.5 1.8 1.4.6 2.5 1.6 2.5 2.2 0 .5.3.9.8.8 1.1-.4 7.2 2.6 7.2 3.5 0 .5.4.6.9.2.5-.3 1.6.2 2.4 1 .9.8 2.3 1.5 3.2 1.5 1.2 0 1.5.5 1 1.7-.5 1.4-.3 1.5.6.6 1.3-1.3 6.2.3 5.4 1.8-.3.4 0 1.1.6 1.5.8.5.9.3.4-.6-.6-1-.4-1.2.9-.7 1 .4 2 .7 2.3.7.3 0-.1.8-.8 1.8-1.3 1.5-1.2 1.6.4.3 1.4-1.2 2.3-1.2 4.5-.1 5.7 2.6 8.9 3.9 16.2 6.6 4.1 1.5 8 3.1 8.6 3.5.6.5 1.3.6 1.6.4.3-.3 1.8 0 3.4.6 1.6.7 3.4 1.3 3.9 1.4.6.2 3.3.9 6 1.8 5.4 1.6 6 1.7 7.6 1.7.5 0 .8.4.5.9-.4.5.4.7 1.6.3 1.1-.3 1.9-.1 1.6.4-.3.5 1.4 1 3.7 1 2.4.1 5.2.5 6.2.9 2.5 1.1 2.9 1.2 5.9 1.4 1.5.1 2.3.5 1.8 1.2-.5.8-.1.8 1.3 0 1.1-.6 2.3-.7 2.7-.4.4.4 1.9.8 3.4 1 1.5.2 4.3.6 6.2 1 4.1.7 6.1 1 11.7 1.4 2.3.1 4 .6 3.7 1.1-.3.4 0 .8.5.8.6 0 1.1-.4 1.1-1 0-.5.7-.7 1.6-.3 2 .7 5.1 1.1 11.7 1.2 3.6.1 4.6.4 4.1 1.4-.6.9-.5.9.7 0 1.8-1.4 5.8-1.4 7.8.1 1.1.8 1.3.8.8 0s1.2-1.1 5.8-1c3.6 0 6.5.5 6.5 1.1 0 .5.5.3 1-.5.8-1.2 1.1-1.3 1.9-.1.7 1.1.9 1.1 1.4 0 .4-1.2.7-1.1 1.6.1.8 1.2 1.1 1.2 1.1.1 0-1.1.3-1.1 1.7 0 1.1 1 1.4 1 .9.2-.5-1 .8-1.3 5.6-1.3 3.5 0 7.3-.3 8.6-.6 1.9-.5 2.1-.3 1.6 1.2-.6 1.8-.6 1.8.8 0 .8-1 2-1.6 2.6-1.2.7.4 1.2.4 1.2-.1 0-.4 1.8-.9 4.1-1.1 3-.2 3.9.1 3.4 1-.4.7-.1.6.7-.2.7-.9 2-1.5 2.8-1.5.8.1 2.7-.2 4.3-.6 2-.6 2.5-.4 2 .4-.5.9-.3.9.8.1 2.3-1.8 8-2.5 9.6-1.3 1 .9 1.2.9.8-.2-.7-1.8 3.3-2.3 5.2-.7 1 .8 1.2.7.8-.4-.3-.8 0-1.5.7-1.6.7 0 2.4-.3 3.8-.6s3.6-.7 5-1c1.4-.3 4.9-1.2 7.9-2.1 2.9-.9 6-1.4 6.8-1.1.9.4 1.1.2.7-.6-.5-.7 0-.9 1.4-.6 1.2.3 2.2.2 2.4-.3.2-.5 1.7-1 3.5-1.2 1.7-.1 2.9-.5 2.6-1-.4-.6.2-.8 4-1.1.6-.1 1.4-.4 1.7-.7.9-1.1 10.2-3.9 11.1-3.3.5.3.9 0 .9-.6 0-.7.7-.9 1.6-.6.8.3 1.3.2.9-.3-.5-.9 9-4.7 11.3-4.5.6.1 1.2-.2 1.2-.7 0-1.2 7-4 8.1-3.3.5.3.9.1.9-.4 0-1.5 8.1-5.4 9.7-4.8.8.3 1.1.2.8-.4-.3-.5 1.1-1.7 3.2-2.7 8.3-4.1 11.4-6.4 10.2-7.9-.6-.8-1.5-1.4-2-1.4s-3-1.4-5.6-3c-2.6-1.7-4.9-3-5.2-3-.4.1-4.2 2-8.6 4.2z"/><path d="M419.6 656.7c-.6 1.4-.5 1.5.5.6.7-.7 1-1.5.7-1.8-.3-.3-.9.2-1.2 1.2zM345 689.5c0 .7 3 1.3 3.4.7.3-.4-.4-.9-1.5-.9-1-.1-1.9 0-1.9.2z"/></svg>