<?xml version="1.0" standalone="no"?>
<!DOCTYPE svg PUBLIC "-//W3C//DTD SVG 20010904//EN"
 "http://www.w3.org/TR/2001/REC-SVG-20010904/DTD/svg10.dtd">
<svg version="1.0" xmlns="http://www.w3.org/2000/svg"
 width="700.000000pt" height="700.000000pt" viewBox="0 0 700.000000 700.000000"
 preserveAspectRatio="xMidYMid meet">
<metadata>
Created by potrace 1.14, written by Peter Selinger 2001-2017
</metadata>
<g transform="translate(0.000000,700.000000) scale(0.100000,-0.100000)"
fill="#000000" stroke="none">
<path d="M3417 6954 c-1 -1 -56 -4 -122 -8 -66 -3 -138 -8 -160 -11 -22 -3
-60 -7 -85 -10 -89 -11 -117 -16 -235 -40 -783 -159 -1478 -574 -1990 -1190
-28 -33 -53 -62 -56 -65 -20 -18 -189 -267 -253 -373 -215 -357 -379 -802
-442 -1197 -2 -14 -6 -38 -9 -55 -35 -210 -47 -500 -32 -750 23 -371 109 -746
251 -1095 251 -611 687 -1156 1229 -1534 398 -277 840 -465 1317 -560 69 -14
150 -28 180 -32 30 -3 66 -8 80 -10 181 -26 670 -25 832 1 13 2 46 7 73 10 71
10 87 13 115 18 14 3 43 8 65 12 80 14 274 65 386 101 996 319 1794 1066 2176
2037 82 210 165 500 188 662 3 22 10 63 15 90 33 175 47 616 27 830 -47 497
-195 972 -442 1414 -74 132 -224 350 -325 471 -25 30 -54 65 -65 78 -131 158
-327 341 -570 530 -109 85 -342 227 -521 315 -336 168 -781 302 -1099 333 -33
3 -65 7 -72 9 -25 8 -447 26 -456 19z m701 -350 c12 -8 22 -25 22 -37 0 -33
-402 -827 -427 -844 -28 -18 -58 -9 -80 24 -16 25 -14 31 187 432 111 223 210
414 218 424 19 21 51 22 80 1z m-670 -130 c27 -19 29 -65 5 -86 -10 -8 -67
-36 -128 -62 -60 -27 -138 -61 -173 -77 -35 -16 -65 -29 -67 -29 -3 0 -33 -13
-67 -29 -35 -15 -69 -30 -77 -33 -8 -2 70 -42 175 -87 337 -149 344 -152 350
-177 9 -36 1 -58 -28 -72 -25 -12 -42 -6 -235 79 -114 50 -265 116 -335 146
-110 49 -128 60 -137 85 -19 54 -3 66 180 143 33 14 90 39 127 56 37 17 87 39
112 49 25 11 90 39 145 64 112 50 121 52 153 30z m1253 -125 c178 -78 330
-148 338 -155 19 -18 17 -63 -5 -83 -11 -10 -64 -37 -119 -61 -55 -23 -120
-52 -145 -63 -25 -11 -125 -55 -224 -98 -192 -83 -209 -86 -234 -35 -20 40 2
65 84 100 38 16 96 42 129 56 33 15 114 51 180 79 66 29 124 56 128 60 5 5 -9
15 -30 24 -21 8 -63 26 -93 40 -98 44 -310 137 -349 153 -41 16 -65 52 -54 81
9 23 33 42 54 43 9 0 162 -64 340 -141z m-2561 -835 c11 -13 -7 -55 -116 -274
-81 -163 -136 -262 -147 -266 -20 -6 -47 12 -47 32 0 15 234 489 252 512 14
17 43 15 58 -4z m-411 -86 c5 -13 7 -26 4 -30 -5 -9 -128 -67 -250 -118 -45
-19 -79 -38 -75 -41 4 -3 67 -32 141 -64 74 -31 145 -62 158 -68 30 -13 32
-62 4 -70 -21 -5 -421 167 -433 186 -21 33 -2 47 146 112 38 17 110 49 160 72
106 49 133 52 145 21z m752 -58 c239 -105 229 -99 229 -126 0 -27 -18 -38
-175 -104 -55 -23 -129 -56 -165 -73 -36 -16 -73 -30 -84 -31 -26 -1 -44 29
-31 50 9 14 120 67 295 140 l34 15 -24 12 c-14 7 -87 40 -163 72 -112 49 -139
64 -144 83 -6 24 9 42 33 42 7 0 94 -36 195 -80z m1834 -14 c223 -20 425 -93
538 -193 183 -161 228 -457 89 -588 -75 -72 -166 -96 -412 -110 -210 -12 -257
-16 -340 -31 -94 -16 -201 -84 -245 -154 -71 -112 -94 -309 -56 -474 70 -301
316 -565 592 -635 91 -23 253 -25 340 -5 183 43 323 167 377 334 20 61 23 85
37 238 20 225 177 398 405 445 320 66 623 -169 755 -583 15 -47 28 -94 31
-105 2 -11 8 -40 13 -65 41 -183 48 -555 16 -760 -20 -123 -29 -167 -56 -269
-30 -114 -60 -209 -84 -266 -7 -16 -23 -55 -35 -85 -36 -91 -118 -239 -187
-340 -287 -416 -682 -714 -1180 -889 -34 -12 -72 -24 -84 -26 -12 -2 -45 -11
-73 -19 -61 -17 -183 -43 -246 -51 -155 -20 -203 -22 -365 -20 -99 2 -202 6
-230 9 -70 8 -117 16 -135 21 -8 2 -33 6 -54 10 -62 9 -193 43 -291 76 -353
119 -658 310 -915 570 -96 98 -128 133 -171 189 -19 25 -37 47 -40 50 -3 3
-32 46 -66 95 -209 311 -333 637 -383 1010 -17 130 -21 491 -5 575 3 19 13 74
21 123 59 347 206 694 420 985 32 42 60 79 63 82 4 3 19 21 35 40 65 81 207
219 315 308 226 187 601 378 856 437 11 2 40 9 65 16 94 23 246 47 350 55 47
3 86 7 87 8 5 4 173 -2 248 -8z m-3389 -1080 c6 -15 -151 -336 -164 -336 -4 0
-13 5 -19 11 -9 9 7 50 64 163 41 83 80 157 85 164 14 16 27 15 34 -2z m-262
-42 c24 -9 3 -39 -41 -57 -21 -8 -65 -27 -97 -42 l-60 -26 95 -41 c108 -46
120 -54 112 -74 -7 -20 -15 -18 -106 22 -225 97 -221 88 -62 159 44 20 94 42
110 50 36 17 30 16 49 9z m401 -13 c6 -4 51 -24 100 -46 109 -46 126 -59 105
-79 -15 -15 -241 -116 -258 -116 -16 0 -22 28 -9 38 7 5 51 26 100 47 48 21
87 40 87 44 0 4 -35 22 -77 40 -101 43 -124 57 -117 76 6 15 44 12 69 -4z"/>
<path d="M2848 3632 c-26 -3 -28 -7 -29 -50 -2 -95 3 -144 17 -178 12 -29 19
-34 49 -34 32 0 35 3 45 41 12 45 19 44 36 -4 9 -27 16 -32 46 -35 34 -3 37
-1 49 35 7 21 14 80 14 131 l2 93 -41 -3 -40 -3 0 -69 c1 -65 0 -67 -13 -43
-19 37 -58 37 -71 0 -9 -24 -11 -17 -11 43 -1 77 -5 82 -53 76z"/>
<path d="M3378 3632 c-20 -4 -20 -2 -18 -126 1 -50 5 -98 11 -107 11 -21 58
-33 117 -31 85 4 94 19 96 168 1 102 5 94 -56 97 -22 1 -23 -2 -26 -96 l-3
-98 -27 3 c-29 3 -28 1 -31 149 -1 30 -5 37 -23 41 -13 2 -31 2 -40 0z"/>
<path d="M2514 3503 l1 -128 38 -3 c41 -4 40 -6 39 86 -1 44 12 57 21 22 7
-27 41 -26 60 3 15 21 16 19 16 -45 l1 -68 40 0 40 0 0 130 0 130 -45 0 c-25
0 -45 -4 -45 -10 0 -5 -9 -24 -19 -41 l-19 -32 -21 42 c-20 38 -24 41 -65 41
l-43 0 1 -127z"/>
<path d="M3125 3508 c1 -68 3 -127 3 -131 1 -4 44 -6 95 -5 l92 3 0 30 c0 29
-2 30 -54 35 -67 6 -80 28 -19 32 40 3 43 5 43 33 0 28 -3 30 -35 30 -33 -1
-54 11 -45 25 2 4 26 6 52 5 51 -2 63 6 63 43 0 21 -3 22 -98 22 l-99 0 2
-122z"/>
<path d="M3642 3605 c-14 -17 -18 -36 -16 -66 3 -44 24 -67 62 -70 42 -3 45
-4 49 -16 3 -8 -14 -13 -53 -15 -57 -3 -58 -3 -58 -33 l0 -30 81 -3 c78 -3 82
-2 102 24 16 20 21 38 18 65 -5 51 -19 66 -72 74 -25 3 -45 10 -45 16 0 10 1
11 59 13 43 1 44 2 46 34 l1 32 -77 0 c-70 0 -79 -2 -97 -25z"/>
<path d="M3833 2612 c-23 -3 -23 -5 -23 -177 0 -188 1 -185 -58 -185 -50 0
-51 5 -54 185 l-3 170 -75 0 -75 0 0 -200 c1 -226 6 -243 73 -266 52 -18 59
-19 134 -20 95 0 131 9 169 41 l34 28 5 153 c3 85 4 179 2 211 l-3 56 -52 4
c-29 1 -62 2 -74 0z m-203 -72 c0 -5 -5 -10 -11 -10 -5 0 -7 5 -4 10 3 6 8 10
11 10 2 0 4 -4 4 -10z m257 -122 c-2 -13 -4 -5 -4 17 -1 22 1 32 4 23 2 -10 2
-28 0 -40z m-259 -3 c-3 -3 -9 2 -12 12 -6 14 -5 15 5 6 7 -7 10 -15 7 -18z
m259 -47 c-3 -8 -6 -5 -6 6 -1 11 2 17 5 13 3 -3 4 -12 1 -19z m-257 -13 c0
-8 -2 -15 -4 -15 -2 0 -6 7 -10 15 -3 8 -1 15 4 15 6 0 10 -7 10 -15z m257
-42 c-3 -10 -5 -4 -5 12 0 17 2 24 5 18 2 -7 2 -21 0 -30z m-260 -5 c2 -17 0
-19 -7 -8 -5 8 -6 18 -4 22 8 12 10 10 11 -14z m260 -50 c-3 -7 -5 -2 -5 12 0
14 2 19 5 13 2 -7 2 -19 0 -25z m-217 -55 c30 -15 118 -17 157 -3 15 6 34 19
42 28 10 13 12 13 9 2 -15 -53 -182 -68 -233 -20 -14 13 -25 31 -25 39 0 10 5
6 13 -9 7 -13 24 -30 37 -37z"/>
<path d="M4115 2610 l-60 -5 -1 -227 c-1 -125 2 -232 6 -239 9 -13 114 -19
133 -7 7 4 12 33 13 71 1 35 4 68 7 74 6 10 95 9 105 -2 4 -4 7 -35 8 -69 0
-34 3 -67 6 -72 4 -5 26 -9 50 -7 23 1 55 2 71 2 l27 1 0 89 c0 108 -12 145
-51 161 -27 11 -28 14 -12 25 13 10 17 27 17 73 -1 68 -20 107 -61 123 -30 11
-171 16 -258 9z m100 -60 c-3 -5 -12 -10 -18 -10 -7 0 -6 4 3 10 19 12 23 12
15 0z m-35 -4 c0 -2 -13 -6 -29 -8 -17 -2 -28 -1 -25 4 5 8 54 12 54 4z m77
-2 c-3 -3 -12 -4 -19 -1 -8 3 -5 6 6 6 11 1 17 -2 13 -5z m75 -11 c10 -9 18
-21 18 -27 0 -6 -7 -1 -15 11 -8 12 -28 24 -43 26 -25 4 -25 4 -3 6 14 0 33
-6 43 -16z m-199 -48 c4 -8 3 -16 -1 -19 -4 -3 -9 4 -9 15 -2 23 3 25 10 4z
m148 -2 c6 -49 4 -65 -11 -73 -23 -13 -60 -8 -61 7 -7 73 -7 73 37 73 19 0 34
-3 35 -7z m76 -25 c-3 -7 -5 -2 -5 12 0 14 2 19 5 13 2 -7 2 -19 0 -25z m-217
-38 c0 -5 -5 -10 -11 -10 -5 0 -7 5 -4 10 3 6 8 10 11 10 2 0 4 -4 4 -10z
m207 -39 c-9 -18 -11 -31 -5 -33 6 -2 -10 -4 -33 -5 -44 -1 -44 -1 -11 9 24 6
36 17 44 39 6 16 13 28 15 25 3 -3 -2 -18 -10 -35z m-203 -34 c7 -6 6 -7 -4
-4 -8 2 -16 12 -17 23 -2 13 -1 15 4 4 3 -8 11 -19 17 -23z m93 -3 c-3 -3 -12
-4 -19 -1 -8 3 -5 6 6 6 11 1 17 -2 13 -5z m154 -21 c13 -17 13 -17 -6 -3 -11
8 -22 16 -24 17 -2 2 0 3 6 3 6 0 17 -8 24 -17z m-264 -15 c-3 -8 -6 -5 -6 6
-1 11 2 17 5 13 3 -3 4 -12 1 -19z m281 -39 c-3 -8 -7 -3 -11 10 -4 17 -3 21
5 13 5 -5 8 -16 6 -23z m-275 -29 c3 -11 1 -18 -4 -14 -5 3 -9 12 -9 20 0 20
7 17 13 -6z"/>
<path d="M5123 2602 c-62 -18 -84 -56 -82 -142 1 -36 6 -75 10 -87 13 -35 64
-60 134 -68 65 -7 98 -25 73 -42 -7 -4 -49 -9 -93 -9 -138 -3 -125 3 -125 -59
0 -42 4 -56 18 -63 9 -4 74 -7 143 -6 146 2 182 15 205 69 17 42 18 141 1 175
-16 33 -69 57 -142 65 -65 6 -84 17 -67 37 7 9 36 12 97 11 64 -1 88 2 91 12
11 27 10 107 -1 111 -28 11 -221 8 -262 -4z m57 -56 c0 -2 -9 -6 -20 -9 -11
-3 -18 -1 -14 4 5 9 34 13 34 5z m113 -3 c-7 -2 -21 -2 -30 0 -10 3 -4 5 12 5
17 0 24 -2 18 -5z m-163 -28 c0 -8 -4 -15 -10 -15 -5 0 -7 7 -4 15 4 8 8 15
10 15 2 0 4 -7 4 -15z m11 -122 c13 -16 12 -17 -3 -4 -10 7 -18 15 -18 17 0 8
8 3 21 -13z m82 -20 c-7 -2 -19 -2 -25 0 -7 3 -2 5 12 5 14 0 19 -2 13 -5z
m108 -30 c12 -16 12 -17 -1 -7 -8 6 -22 14 -30 17 -13 5 -12 6 1 6 9 1 23 -7
30 -16z m17 -48 c-3 -3 -9 2 -12 12 -6 14 -5 15 5 6 7 -7 10 -15 7 -18z m-23
-85 c-10 -11 -22 -20 -28 -20 -5 0 1 9 14 20 31 25 37 25 14 0z"/>
<path d="M2537 2603 c-4 -3 -7 -89 -7 -190 0 -207 8 -241 61 -268 38 -20 62
-24 150 -25 123 -2 191 32 204 101 3 19 5 113 3 209 l-3 175 -74 0 -74 0 0
-165 c0 -95 -4 -170 -10 -177 -12 -16 -83 -17 -93 -1 -4 6 -8 84 -9 172 -1 89
-3 164 -4 169 -1 9 -135 10 -144 0z m83 -143 c0 -5 -5 -10 -11 -10 -5 0 -7 5
-4 10 3 6 8 10 11 10 2 0 4 -4 4 -10z m-13 -62 c-3 -8 -6 -5 -6 6 -1 11 2 17
5 13 3 -3 4 -12 1 -19z m8 -57 c3 -5 2 -12 -3 -15 -5 -3 -9 1 -9 9 0 17 3 19
12 6z m262 -83 c-3 -8 -6 -5 -6 6 -1 11 2 17 5 13 3 -3 4 -12 1 -19z m-216
-57 c16 -5 29 -12 29 -15 0 -3 -14 0 -30 6 -28 9 -51 35 -49 55 0 4 5 -2 11
-14 6 -12 24 -26 39 -32z m183 4 c-10 -8 -23 -15 -28 -15 -6 0 -1 7 10 15 10
8 23 15 28 15 6 0 1 -7 -10 -15z m-117 -21 c-3 -3 -12 -4 -19 -1 -8 3 -5 6 6
6 11 1 17 -2 13 -5z m61 -1 c-10 -2 -26 -2 -35 0 -10 3 -2 5 17 5 19 0 27 -2
18 -5z"/>
<path d="M3047 2603 c-4 -3 -7 -109 -7 -234 0 -207 2 -229 18 -237 20 -10 119
-8 129 2 4 4 7 44 7 90 l0 83 47 -1 c26 -1 51 -4 55 -9 4 -4 8 -42 9 -84 1
-73 2 -77 26 -84 28 -7 103 -4 118 5 12 8 11 191 0 238 -7 26 -18 40 -39 50
-34 15 -34 19 11 116 33 73 32 74 -61 70 l-64 -3 -37 -85 c-50 -113 -65 -115
-66 -8 -1 46 -2 86 -2 91 -1 9 -135 10 -144 0z m289 -90 c-8 -15 -15 -25 -16
-21 0 12 23 58 27 54 3 -2 -2 -17 -11 -33z m-25 -60 c-12 -20 -14 -14 -5 12 4
9 9 14 11 11 3 -2 0 -13 -6 -23z m-188 -18 c-7 -21 -13 -19 -13 6 0 11 4 18
10 14 5 -3 7 -12 3 -20z m170 -20 c-3 -9 -8 -14 -10 -11 -3 3 -2 9 2 15 9 16
15 13 8 -4z m-163 -40 c5 3 11 1 14 -4 4 -5 -2 -8 -11 -7 -9 2 -18 8 -19 15
-1 6 0 7 3 1 2 -5 9 -8 13 -5z m154 0 c3 -8 1 -15 -4 -15 -6 0 -10 7 -10 15 0
8 2 15 4 15 2 0 6 -7 10 -15z m77 -15 c10 -6 19 -16 19 -23 0 -8 -3 -9 -8 -1
-4 6 -16 16 -27 22 -25 14 -11 16 16 2z m-238 -80 c3 -11 1 -20 -4 -20 -5 0
-9 9 -9 20 0 11 2 20 4 20 2 0 6 -9 9 -20z m0 -65 c4 -8 3 -16 -1 -19 -4 -3
-9 4 -9 15 -2 23 3 25 10 4z m264 -4 c0 -11 -5 -18 -9 -15 -4 3 -5 11 -1 19 7
21 12 19 10 -4z"/>
<path d="M4615 2543 c-61 -152 -66 -172 -66 -292 0 -63 2 -116 5 -118 8 -8
104 -9 124 -2 15 6 19 16 17 53 -2 25 2 50 9 55 6 5 33 8 61 7 l49 -1 1 -52
c1 -29 3 -55 7 -58 9 -9 104 -12 126 -4 19 7 20 15 18 126 -3 121 -6 137 -63
278 l-28 70 -116 3 -117 3 -27 -68z m105 0 c-8 -3 -22 -11 -30 -17 -13 -10
-13 -9 -1 7 7 9 21 17 30 16 13 0 14 -1 1 -6z m101 -10 c12 -16 12 -17 -1 -7
-8 7 -24 14 -35 17 -19 4 -19 5 1 6 12 0 28 -7 35 -16z m-150 -50 c-12 -20
-14 -14 -5 12 4 9 9 14 11 11 3 -2 0 -13 -6 -23z m184 -16 c8 -20 13 -37 10
-37 -5 0 -35 67 -35 78 0 11 10 -5 25 -41z m-64 -44 l18 -53 -53 0 -53 0 16
55 c21 74 46 73 72 -2z m-150 -20 c-12 -20 -14 -14 -5 12 4 9 9 14 11 11 3 -2
0 -13 -6 -23z m249 -18 c0 -5 -5 -3 -10 5 -5 8 -10 20 -10 25 0 6 5 3 10 -5 5
-8 10 -19 10 -25z m-263 -42 c-3 -10 -5 -4 -5 12 0 17 2 24 5 18 2 -7 2 -21 0
-30z m265 -35 c-8 -8 -9 -4 -5 13 4 13 8 18 11 10 2 -7 -1 -18 -6 -23z m-242
-4 c0 -2 -7 -4 -15 -4 -8 0 -15 4 -15 10 0 5 7 7 15 4 8 -4 15 -8 15 -10z m37
0 c-3 -3 -12 -4 -19 -1 -8 3 -5 6 6 6 11 1 17 -2 13 -5z m76 -1 c-7 -2 -19 -2
-25 0 -7 3 -2 5 12 5 14 0 19 -2 13 -5z m50 0 c-7 -2 -19 -2 -25 0 -7 3 -2 5
12 5 14 0 19 -2 13 -5z m50 0 c-7 -2 -19 -2 -25 0 -7 3 -2 5 12 5 14 0 19 -2
13 -5z m-236 -45 c-3 -7 -5 -2 -5 12 0 14 2 19 5 13 2 -7 2 -19 0 -25z m270
-20 c-3 -8 -6 -5 -6 6 -1 11 2 17 5 13 3 -3 4 -12 1 -19z m-270 -40 c-3 -7 -5
-2 -5 12 0 14 2 19 5 13 2 -7 2 -19 0 -25z m270 0 c-3 -8 -6 -5 -6 6 -1 11 2
17 5 13 3 -3 4 -12 1 -19z"/>
<path d="M5577 2603 c-3 -5 -24 -58 -48 -118 -40 -105 -42 -115 -43 -228 -2
-130 0 -134 59 -131 17 1 42 2 57 3 26 1 27 4 30 58 l3 57 58 1 57 1 0 -52 c0
-29 5 -56 11 -60 13 -8 124 -9 136 -1 5 3 8 56 7 119 -2 116 -10 152 -69 297
l-23 56 -115 3 c-64 1 -118 -1 -120 -5z m189 -78 c9 -14 14 -28 10 -32 -3 -3
-6 -1 -6 5 0 7 -9 21 -20 32 -11 11 -16 20 -10 20 5 0 17 -11 26 -25z m-145
-12 c-12 -20 -14 -14 -5 12 4 9 9 14 11 11 3 -2 0 -13 -6 -23z m-20 -50 c-12
-20 -14 -14 -5 12 4 9 9 14 11 11 3 -2 0 -13 -6 -23z m123 -30 c9 -26 16 -50
16 -55 0 -4 -23 -8 -51 -8 -40 0 -50 3 -46 14 3 8 11 32 18 55 17 57 42 55 63
-6z m84 -8 c-3 -3 -9 2 -12 12 -6 14 -5 15 5 6 7 -7 10 -15 7 -18z m-237 -42
c-12 -20 -14 -14 -5 12 4 9 9 14 11 11 3 -2 0 -13 -6 -23z m259 -17 c0 -26 -6
-18 -14 19 -5 22 -4 26 4 15 5 -8 10 -24 10 -34z m-264 -72 c1 -9 0 -13 -4
-10 -3 4 -7 14 -8 22 -1 9 0 13 4 10 3 -4 7 -14 8 -22z m41 10 c-3 -3 -12 -4
-19 -1 -8 3 -5 6 6 6 11 1 17 -2 13 -5z m46 -1 c-7 -2 -19 -2 -25 0 -7 3 -2 5
12 5 14 0 19 -2 13 -5z m70 0 c-7 -2 -19 -2 -25 0 -7 3 -2 5 12 5 14 0 19 -2
13 -5z m74 1 c-3 -3 -12 -4 -19 -1 -8 3 -5 6 6 6 11 1 17 -2 13 -5z m43 2 c0
-11 -19 -15 -25 -6 -3 5 1 10 9 10 9 0 16 -2 16 -4z m-5 -55 c3 -5 2 -12 -3
-15 -5 -3 -9 1 -9 9 0 17 3 19 12 6z m-270 -40 c3 -5 2 -12 -3 -15 -5 -3 -9 1
-9 9 0 17 3 19 12 6z"/>
</g>
</svg>
