<?xml version="1.0" standalone="no"?>
<!DOCTYPE svg PUBLIC "-//W3C//DTD SVG 20010904//EN"
 "http://www.w3.org/TR/2001/REC-SVG-20010904/DTD/svg10.dtd">
<svg version="1.0" xmlns="http://www.w3.org/2000/svg"
 width="700.000000pt" height="700.000000pt" viewBox="0 0 700.000000 700.000000"
 preserveAspectRatio="xMidYMid meet">
<metadata>
Created by potrace 1.14, written by Peter Selinger 2001-2017
</metadata>
<g transform="translate(0.000000,700.000000) scale(0.100000,-0.100000)"
fill="#000000" stroke="none">
<path d="M3278 6996 c-1 -2 -37 -6 -78 -9 -130 -11 -305 -36 -395 -57 -22 -5
-52 -11 -67 -15 -16 -3 -28 -9 -28 -13 0 -4 25 -34 54 -66 l54 -60 73 13 c41
8 81 15 90 16 9 2 38 6 65 9 27 4 65 9 84 11 227 29 682 23 835 -10 11 -2 43
-7 70 -10 28 -4 92 -15 144 -26 51 -10 97 -19 102 -19 15 0 119 114 111 121
-15 13 -250 64 -347 75 -27 3 -53 8 -56 9 -3 2 -35 7 -71 10 -35 4 -78 9 -94
11 -32 5 -540 14 -546 10z"/>
<path d="M2525 6863 c-43 -10 -235 -77 -327 -114 -157 -62 -367 -168 -523
-262 -66 -40 -253 -169 -325 -226 -510 -395 -906 -936 -1132 -1546 -44 -119
-83 -244 -76 -250 34 -29 119 -95 122 -95 2 0 21 53 41 118 166 528 440 978
834 1372 418 418 887 694 1458 860 l73 21 -51 64 c-28 36 -56 64 -62 64 -7 -1
-21 -3 -32 -6z"/>
<path d="M4486 6780 c-27 -34 -47 -62 -45 -64 2 -2 38 -14 79 -26 41 -13 77
-24 80 -25 3 -1 14 -5 25 -10 11 -4 61 -23 110 -42 122 -47 337 -151 454 -220
315 -184 628 -442 841 -693 30 -36 61 -72 69 -80 8 -8 53 -67 101 -130 217
-291 378 -602 494 -951 l52 -156 56 41 c31 22 57 46 57 53 2 24 -84 263 -146
408 -209 490 -571 977 -963 1295 -30 25 -57 48 -60 51 -3 3 -50 40 -106 81
-217 161 -458 299 -709 406 -126 53 -313 122 -332 122 -5 0 -30 -27 -57 -60z"/>
<path d="M3408 6765 c-2 -2 -50 -6 -108 -9 -58 -4 -121 -9 -140 -11 -19 -3
-53 -7 -75 -10 -36 -4 -96 -13 -135 -20 -219 -40 -380 -83 -566 -151 -553
-200 -1041 -548 -1419 -1011 -5 -7 -16 -20 -24 -29 -32 -37 -174 -241 -198
-283 -15 -25 -32 -53 -38 -61 -7 -8 -26 -40 -43 -70 -121 -222 -233 -486 -289
-685 -1 -5 -11 -40 -22 -78 -11 -37 -22 -80 -25 -95 -2 -15 -9 -49 -16 -77
-13 -57 -13 -53 -35 -200 -25 -173 -30 -245 -30 -480 0 -194 6 -311 19 -395 2
-14 7 -47 11 -73 7 -50 7 -55 25 -147 106 -543 355 -1063 709 -1480 92 -108
330 -341 436 -426 401 -323 866 -547 1355 -653 132 -29 152 -33 255 -46 28 -4
61 -9 75 -11 147 -23 648 -23 740 1 8 2 42 6 75 10 48 5 260 44 325 60 281 67
608 199 865 349 407 237 792 594 1054 981 167 246 299 510 393 785 27 80 81
267 92 321 3 13 8 35 11 49 3 14 7 39 10 55 3 17 8 44 12 60 3 17 7 37 8 45 9
69 18 138 21 155 10 48 18 243 18 400 -1 175 -5 230 -30 428 -34 277 -148 656
-282 937 -190 400 -493 797 -817 1071 -22 19 -42 36 -45 39 -13 15 -184 143
-256 192 -288 198 -704 383 -1034 462 -127 30 -196 44 -235 50 -23 4 -50 8
-60 10 -11 2 -49 7 -85 11 -36 4 -74 9 -85 11 -11 3 -101 7 -200 10 -99 3
-188 7 -197 8 -9 2 -18 2 -20 1z m987 -1591 c743 -98 1366 -549 1693 -1227 23
-48 49 -107 58 -130 33 -91 83 -250 89 -284 3 -19 7 -38 9 -42 3 -4 12 -47 20
-96 47 -270 40 -562 -18 -850 -23 -112 -92 -311 -159 -458 -161 -350 -473
-699 -818 -914 -251 -157 -567 -269 -874 -310 -118 -16 -512 -8 -615 12 -14 3
-52 10 -84 16 -92 16 -287 75 -384 114 -482 198 -868 548 -1110 1006 -169 319
-253 676 -246 1049 7 420 128 811 363 1165 53 80 47 72 144 190 190 230 435
421 717 558 179 87 401 160 555 182 22 4 47 8 55 10 8 3 44 7 80 11 36 3 66 7
68 9 10 9 371 1 457 -11z"/>
<path d="M4008 5115 c-2 -1 -37 -5 -78 -9 -41 -3 -86 -8 -100 -10 -98 -15
-165 -28 -172 -32 -4 -3 8 -22 27 -43 34 -37 37 -38 78 -30 41 8 85 14 217 28
105 11 353 3 442 -14 12 -3 40 -7 63 -10 22 -4 56 -10 75 -15 32 -9 37 -7 72
27 21 20 36 38 35 40 -3 2 -55 14 -172 39 -11 2 -42 6 -70 9 -27 3 -63 8 -79
11 -28 6 -333 14 -338 9z"/>
<path d="M3515 5028 c-275 -96 -470 -196 -655 -336 -220 -168 -369 -336 -548
-617 -50 -79 -150 -306 -188 -424 -14 -45 -14 -55 -3 -62 8 -4 25 -17 38 -28
13 -12 25 -21 27 -21 1 0 14 37 29 83 75 230 193 453 343 642 52 66 208 227
279 287 201 171 479 320 735 393 l58 16 -32 40 c-34 42 -37 43 -83 27z"/>
<path d="M4717 4984 c-21 -24 -25 -35 -15 -38 99 -34 232 -87 308 -124 493
-239 870 -673 1040 -1197 12 -38 24 -72 26 -73 1 -2 18 8 37 23 l34 27 -23 67
c-162 489 -496 902 -939 1163 -56 33 -180 95 -230 116 -112 45 -186 72 -198
71 -6 0 -25 -16 -40 -35z"/>
<path d="M2894 4031 c-26 -16 -40 -41 -84 -153 -57 -144 -151 -351 -157 -345
-3 4 -6 51 -18 335 -5 134 -13 159 -51 168 -64 16 -102 -34 -173 -228 -27 -75
-72 -188 -100 -251 -27 -63 -53 -132 -57 -153 -3 -22 -8 -46 -10 -56 -4 -25
19 -50 49 -53 49 -6 74 35 137 216 32 92 65 180 74 195 l15 29 1 -55 c2 -55 4
-85 15 -195 14 -144 22 -169 54 -180 31 -9 68 12 99 57 33 48 101 183 152 301
19 42 36 77 39 77 3 0 6 -57 7 -128 2 -258 9 -302 51 -321 29 -14 67 0 88 32
15 23 15 92 0 162 -11 53 -17 155 -20 315 -2 181 -10 221 -44 239 -26 15 -31
14 -67 -8z"/>
<path d="M6132 3487 l-33 -34 11 -64 c45 -239 46 -541 5 -729 -20 -88 -18
-108 11 -134 16 -13 32 -23 35 -21 9 6 33 125 44 215 3 25 8 56 11 70 4 14 7
97 9 185 3 182 -15 370 -48 498 l-12 48 -33 -34z"/>
<path d="M2066 3408 c-10 -57 -21 -125 -26 -153 -11 -67 -10 -428 2 -496 49
-281 44 -269 92 -225 28 27 36 41 31 56 -43 136 -54 543 -21 739 9 52 19 98
22 103 6 9 -61 78 -76 78 -4 0 -15 -46 -24 -102z"/>
<path d="M3097 3486 c-17 -17 -15 -152 2 -169 14 -14 35 5 56 49 19 41 25 39
30 -7 10 -76 42 -64 89 36 42 87 43 95 17 95 -14 0 -27 -16 -45 -52 -19 -40
-25 -47 -25 -28 3 67 -1 80 -21 80 -13 0 -27 -15 -44 -47 l-25 -48 -1 47 c0
52 -11 66 -33 44z"/>
<path d="M3370 3489 c-34 -13 -61 -53 -67 -99 -5 -32 -2 -40 18 -53 13 -9 35
-18 49 -20 33 -6 90 18 90 38 0 17 -18 19 -53 6 -17 -7 -30 -6 -42 3 -14 10
-9 15 39 35 30 12 58 31 61 40 8 26 -4 51 -25 51 -10 0 -24 2 -32 4 -7 3 -24
0 -38 -5z m40 -35 c0 -11 -34 -33 -50 -33 -10 0 -8 6 9 19 23 20 41 26 41 14z"/>
<path d="M3512 3468 c-17 -54 -20 -114 -7 -132 13 -17 104 -29 123 -17 9 6 32
119 32 159 0 26 -25 29 -39 5 -8 -16 -20 -78 -21 -110 0 -8 -13 -13 -30 -13
-30 0 -30 0 -24 48 3 26 6 56 7 67 4 35 -30 30 -41 -7z"/>
<path d="M3725 3490 c-25 -9 -42 -30 -39 -47 1 -7 2 -17 3 -21 0 -5 17 -17 36
-28 34 -18 45 -33 25 -35 -5 -1 -16 -2 -22 -3 -7 -1 -20 1 -28 4 -19 9 -40 2
-40 -14 0 -31 75 -40 121 -16 44 24 27 80 -30 102 -19 7 -22 11 -12 21 8 8 19
8 41 0 25 -10 30 -9 35 8 4 10 3 23 0 29 -7 12 -61 12 -90 0z"/>
<path d="M4115 3276 c-17 -12 -18 -34 -18 -280 0 -165 4 -271 11 -278 5 -5 20
-8 33 -6 l24 3 3 277 c2 262 1 278 -16 287 -14 7 -24 6 -37 -3z"/>
<path d="M3992 3248 c-6 -8 -10 -100 -11 -245 0 -248 4 -268 49 -256 24 6 22
-12 24 267 1 170 -2 223 -12 233 -17 16 -36 17 -50 1z"/>
<path d="M4227 3246 c-21 -21 -19 -482 2 -495 14 -9 50 -3 52 8 1 3 3 113 3
244 2 217 0 239 -15 248 -23 12 -25 12 -42 -5z"/>
<path d="M3880 3210 c-11 -7 -14 -44 -15 -205 0 -108 3 -205 7 -216 8 -21 40
-25 56 -6 13 16 15 392 2 418 -12 21 -27 24 -50 9z"/>
<path d="M4343 3213 c-10 -3 -13 -57 -13 -218 0 -188 2 -214 16 -219 9 -4 25
-4 35 -1 21 7 21 9 20 279 -1 164 -7 180 -58 159z"/>
<path d="M3773 3189 c-23 -8 -23 -11 -23 -182 0 -140 3 -177 15 -187 16 -13
55 -5 56 13 0 7 1 86 1 176 0 177 -6 197 -49 180z"/>
<path d="M4449 3178 c-5 -56 -3 -332 3 -348 8 -22 40 -27 55 -7 8 9 12 326 5
360 -3 12 -62 8 -63 -5z"/>
<path d="M3268 3105 c-32 -21 -52 -26 -130 -30 -487 -24 -477 -23 -503 -43
-21 -16 -45 -18 -235 -17 -116 0 -216 -3 -222 -6 -33 -21 17 -27 218 -27 174
-1 220 -4 239 -16 23 -15 53 -17 430 -31 151 -6 162 -8 200 -33 40 -26 41 -26
238 -27 l197 0 -1 127 0 128 -197 0 c-194 0 -198 0 -234 -25z"/>
<path d="M4581 3105 c-4 -5 -7 -62 -6 -125 l1 -115 194 -3 193 -2 41 27 c25
16 57 28 81 29 22 1 119 5 215 9 96 4 207 8 247 10 45 2 80 9 95 19 19 13 57
16 240 16 187 0 218 2 218 15 0 11 -12 15 -42 15 -412 5 -404 5 -422 23 -12
11 -34 17 -69 18 -29 1 -65 2 -82 4 -16 1 -102 5 -190 9 -230 10 -253 13 -288
38 -30 21 -41 23 -225 23 -121 0 -196 -3 -201 -10z"/>
<path d="M4288 2680 c-34 -26 -50 -73 -72 -210 -4 -19 -8 -45 -11 -57 -3 -13
-7 -33 -10 -45 -13 -60 -16 -206 -5 -248 30 -115 112 -173 237 -169 122 4 204
53 279 169 62 96 99 198 130 359 3 13 11 51 18 85 15 75 8 110 -23 114 -63 9
-103 -34 -115 -121 -10 -79 -56 -257 -81 -314 -49 -111 -112 -165 -192 -165
-53 0 -90 23 -112 68 -17 33 -22 121 -10 174 4 19 10 51 13 70 3 19 8 47 11
63 36 194 36 219 0 235 -32 15 -28 16 -57 -8z"/>
<path d="M4936 2671 c-3 -5 -8 -26 -12 -47 -3 -22 -12 -70 -20 -107 -8 -38
-14 -77 -14 -88 0 -34 30 -20 46 21 9 22 20 40 24 40 5 0 19 -18 31 -40 14
-25 29 -40 38 -38 24 5 25 35 2 67 -12 16 -21 32 -21 35 0 3 15 19 32 35 24
23 30 33 21 42 -12 12 -44 -1 -71 -28 -27 -27 -34 -14 -27 52 6 55 5 65 -8 65
-9 0 -18 -4 -21 -9z"/>
<path d="M5100 2555 c-12 -37 -16 -122 -5 -133 8 -9 113 -19 124 -13 8 5 31
128 31 165 0 22 -27 20 -38 -1 -5 -10 -12 -39 -16 -65 -7 -45 -19 -58 -53 -58
-12 0 -14 9 -10 43 3 23 8 54 12 70 6 23 4 27 -13 27 -15 0 -24 -10 -32 -35z"/>
<path d="M5295 2575 c-3 -8 -7 -22 -10 -30 -10 -34 -16 -133 -8 -138 17 -11
31 9 38 53 4 31 14 52 32 69 l27 23 8 -21 c4 -11 11 -21 16 -21 19 0 34 30 28
55 -7 26 -31 32 -71 16 -11 -5 -28 -4 -38 1 -13 6 -19 5 -22 -7z"/>
<path d="M5503 2575 c-35 -15 -73 -67 -73 -100 0 -11 7 -31 16 -43 13 -19 23
-22 80 -19 l65 2 3 78 c2 66 0 79 -15 87 -23 13 -37 12 -76 -5z m45 -67 c-3
-47 -12 -58 -45 -58 -34 0 -32 52 3 79 38 30 46 26 42 -21z"/>
<path d="M5683 2578 c-26 -12 -37 -47 -21 -66 6 -7 24 -20 40 -28 43 -23 35
-37 -18 -31 -34 3 -47 1 -51 -10 -14 -37 93 -47 127 -13 33 33 26 54 -27 85
-46 27 -41 39 12 32 43 -6 45 -5 45 18 0 23 -4 25 -42 24 -24 0 -53 -5 -65
-11z"/>
<path d="M5873 2576 c-40 -18 -63 -53 -65 -99 -2 -56 14 -67 91 -64 l66 3 -3
36 c-2 20 1 52 6 71 5 19 7 40 3 46 -12 18 -64 22 -98 7z m49 -57 c-8 -63 -8
-64 -38 -64 -39 0 -43 32 -9 69 30 32 51 30 47 -5z"/>
<path d="M2155 2447 l-41 -32 19 -55 c60 -178 150 -362 249 -509 38 -57 75
-110 81 -116 7 -7 28 -32 47 -56 120 -152 358 -357 530 -458 145 -85 270 -143
415 -192 l109 -37 27 36 26 35 -113 38 c-526 177 -946 545 -1184 1041 -61 129
-133 322 -123 332 16 16 -6 2 -42 -27z"/>
<path d="M6032 2347 c-69 -194 -170 -381 -291 -544 -58 -78 -267 -298 -329
-346 -207 -161 -399 -269 -619 -347 l-92 -32 25 -34 26 -33 86 30 c193 67 424
197 599 336 171 136 365 350 448 493 6 10 16 24 22 31 64 79 248 501 226 518
-4 4 -19 16 -33 28 l-25 21 -43 -121z"/>
<path d="M4480 1030 c-208 -40 -454 -41 -673 -4 l-98 16 -30 -33 -30 -34 28
-7 c40 -12 197 -37 268 -43 79 -7 308 -8 365 -1 25 4 68 9 95 12 28 3 57 7 65
9 8 2 34 7 58 10 23 3 62 12 87 19 24 8 47 11 51 7 14 -12 -9 24 -29 47 -24
26 -31 26 -157 2z"/>
<path d="M95 4311 c-3 -11 -8 -30 -10 -43 -14 -69 -38 -196 -41 -213 -31 -201
-39 -313 -39 -560 0 -194 7 -327 20 -406 2 -13 6 -46 10 -74 11 -86 16 -118
31 -195 23 -112 36 -164 45 -174 10 -11 133 109 125 123 -4 6 -13 45 -22 87
-44 231 -58 387 -58 639 0 146 10 338 19 375 2 8 6 41 10 73 6 53 25 171 40
242 6 27 1 35 -42 75 -78 73 -80 74 -88 51z"/>
<path d="M6849 4293 c-71 -61 -68 -56 -58 -99 5 -21 11 -55 14 -74 3 -19 10
-57 15 -85 5 -27 12 -72 15 -100 4 -27 8 -59 10 -70 23 -147 23 -550 0 -740
-9 -77 -19 -150 -20 -155 -1 -3 -5 -25 -9 -50 -5 -25 -10 -54 -12 -65 -25
-133 -25 -125 0 -148 60 -55 79 -68 87 -60 10 10 64 280 74 368 4 33 9 69 11
80 19 90 25 542 11 705 -10 110 -16 170 -22 195 -2 11 -7 43 -10 70 -4 28 -10
66 -15 85 -5 19 -12 51 -15 70 -7 42 -25 110 -29 110 -1 0 -22 -17 -47 -37z"/>
<path d="M240 2571 c-19 -18 -47 -39 -62 -48 -16 -10 -28 -23 -28 -29 0 -18
71 -224 115 -331 55 -138 172 -365 261 -508 249 -399 570 -739 963 -1019 67
-47 123 -86 126 -86 3 0 37 -21 77 -47 100 -63 378 -201 523 -259 105 -41 324
-114 345 -114 7 0 90 105 90 114 0 2 -14 8 -32 11 -17 4 -85 25 -152 47 -1003
330 -1804 1124 -2135 2115 -21 65 -43 133 -47 152 l-9 33 -35 -31z"/>
<path d="M6736 2568 c-20 -68 -103 -303 -118 -338 -11 -25 -27 -61 -36 -80
-283 -652 -784 -1210 -1410 -1571 -188 -108 -491 -241 -675 -296 l-48 -14 36
-41 c19 -23 35 -45 35 -49 0 -19 40 -17 109 7 594 205 1115 559 1536 1044 17
19 46 55 65 80 19 25 40 50 46 56 16 17 176 249 201 292 154 262 259 485 338
721 l38 114 -24 19 c-13 11 -33 27 -44 37 -34 29 -45 33 -49 19z"/>
<path d="M4255 219 c-22 -4 -51 -11 -65 -14 -55 -12 -187 -35 -225 -39 -189
-22 -282 -28 -425 -29 -142 -1 -350 9 -400 18 -8 1 -41 6 -73 9 -63 8 -197 30
-238 41 -23 6 -33 -1 -77 -52 l-51 -58 27 -8 c43 -12 198 -41 281 -53 25 -3
57 -8 71 -10 75 -11 250 -19 440 -19 217 1 341 9 470 30 19 3 50 7 67 10 81 9
332 65 337 74 5 8 -83 112 -93 110 -3 -1 -24 -5 -46 -10z"/>
</g>
</svg>
