<?xml version="1.0" standalone="no"?>
<!DOCTYPE svg PUBLIC "-//W3C//DTD SVG 20010904//EN"
 "http://www.w3.org/TR/2001/REC-SVG-20010904/DTD/svg10.dtd">
<svg version="1.0" xmlns="http://www.w3.org/2000/svg"
 width="700.000000pt" height="700.000000pt" viewBox="0 0 700.000000 700.000000"
 preserveAspectRatio="xMidYMid meet">
<metadata>
Created by potrace 1.14, written by Peter Selinger 2001-2017
</metadata>
<g transform="translate(0.000000,700.000000) scale(0.100000,-0.100000)"
fill="#000000" stroke="none">
<path d="M3269 6996 c-2 -2 -40 -6 -84 -10 -44 -3 -89 -8 -100 -10 -11 -2 -47
-7 -80 -11 -32 -4 -68 -9 -80 -11 -11 -2 -47 -9 -80 -15 -335 -60 -757 -215
-1064 -391 -46 -26 -88 -48 -92 -48 -5 0 -9 -10 -10 -22 0 -13 -2 -30 -3 -38
-2 -8 -7 -51 -11 -95 -4 -44 -8 -82 -10 -85 -1 -3 -6 -34 -10 -70 -3 -36 -8
-76 -10 -90 -2 -14 -7 -45 -10 -70 -6 -36 -43 -235 -71 -380 -18 -91 -112
-434 -160 -580 -69 -216 -213 -584 -263 -677 -5 -10 -41 -83 -80 -163 -186
-383 -420 -753 -705 -1115 -39 -49 -73 -92 -77 -95 -3 -3 -32 -36 -64 -75 -32
-38 -76 -88 -97 -110 -31 -32 -37 -45 -32 -65 3 -14 7 -32 9 -40 28 -133 110
-393 174 -554 50 -124 164 -352 233 -464 35 -57 68 -111 73 -120 40 -70 253
-349 320 -418 201 -211 285 -290 427 -405 155 -124 130 -117 255 -75 236 77
508 149 693 182 14 3 70 13 125 23 55 11 125 22 155 26 30 4 64 9 75 11 27 5
178 24 235 30 25 2 65 6 90 8 275 28 906 28 1125 1 17 -2 57 -6 90 -10 52 -5
160 -18 258 -31 34 -5 251 -42 287 -49 14 -3 37 -7 52 -10 165 -30 539 -131
716 -192 85 -29 68 -36 225 90 147 119 298 262 417 396 36 41 70 79 75 85 62
66 240 317 318 448 56 93 152 278 191 368 16 36 36 83 46 105 63 143 161 465
184 605 2 8 -29 51 -68 95 -537 606 -970 1355 -1231 2130 -8 22 -36 115 -64
206 -42 141 -59 204 -86 319 -2 8 -12 53 -23 100 -22 92 -57 271 -67 335 -3
22 -10 65 -15 95 -5 30 -12 80 -15 110 -3 30 -7 66 -10 80 -2 14 -7 54 -10 90
-12 120 -14 141 -20 150 -8 12 -204 120 -315 173 -88 41 -181 80 -290 122
-177 67 -459 141 -650 170 -25 4 -52 9 -60 10 -8 2 -44 6 -80 10 -36 4 -74 9
-85 12 -24 6 -560 14 -566 9z m327 -1167 c188 -3 406 -42 615 -108 896 -287
1526 -1077 1614 -2021 6 -72 7 -332 0 -395 -18 -183 -34 -264 -90 -475 -2 -8
-17 -53 -33 -100 -252 -727 -865 -1292 -1611 -1486 -52 -13 -108 -27 -124 -30
-17 -2 -33 -7 -36 -9 -4 -2 -35 -6 -71 -10 -35 -3 -67 -8 -70 -10 -25 -15
-369 -22 -495 -10 -541 51 -1045 285 -1435 667 -36 35 -87 90 -115 123 -27 33
-52 62 -55 65 -17 15 -105 136 -152 210 -202 314 -327 678 -363 1065 -6 60 -7
362 -1 390 2 11 7 52 11 90 16 159 87 430 158 605 35 87 134 276 191 364 301
466 743 804 1267 970 63 20 125 39 139 41 14 3 35 7 48 10 51 12 61 14 93 19
19 3 61 10 94 16 33 6 114 13 180 16 66 4 122 8 124 10 2 2 7 2 10 -1 4 -2 52
-5 107 -6z"/>
<path d="M1836 4485 c-14 -14 -16 -53 -16 -314 0 -218 3 -300 12 -309 20 -20
58 -14 66 9 5 12 8 113 7 226 0 112 2 208 5 213 3 5 41 -47 84 -116 87 -135
109 -164 131 -164 20 0 32 15 125 155 l85 128 5 -223 c5 -243 7 -250 63 -236
31 7 28 -29 29 354 1 227 -1 265 -15 279 -33 33 -58 9 -172 -163 -60 -91 -112
-167 -116 -169 -3 -3 -57 73 -120 168 -118 178 -138 197 -173 162z"/>
<path d="M3532 4201 c-6 -3 -13 -37 -17 -74 -4 -55 -2 -67 9 -67 10 0 22 23
33 63 10 34 18 66 18 71 0 11 -29 16 -43 7z"/>
<path d="M2537 4113 c-12 -11 -8 -29 34 -148 36 -100 44 -116 62 -113 15 2 25
20 43 71 12 38 24 71 26 73 2 2 16 -30 32 -71 40 -109 52 -104 108 44 31 82
42 125 36 135 -16 28 -43 1 -62 -61 -10 -32 -23 -69 -28 -83 l-9 -25 -14 30
c-8 17 -21 47 -29 68 -22 54 -43 45 -73 -30 -26 -66 -36 -71 -47 -26 -26 103
-57 158 -79 136z"/>
<path d="M2989 4105 c-74 -40 -89 -167 -27 -229 22 -21 84 -38 120 -31 46 9
83 38 75 59 -6 15 -9 15 -36 1 -62 -31 -130 -11 -146 43 -6 22 -5 22 94 22
l101 0 0 32 c0 86 -103 145 -181 103z m114 -53 c36 -31 21 -42 -58 -42 -77 0
-83 3 -62 31 31 39 81 44 120 11z"/>
<path d="M3236 4104 c-3 -9 -6 -56 -6 -105 0 -83 2 -91 28 -119 33 -36 79 -45
126 -26 54 22 69 54 71 152 2 88 -9 121 -34 105 -10 -6 -14 -34 -15 -99 -1
-102 -12 -122 -62 -122 -54 0 -64 19 -64 120 0 78 -3 91 -19 99 -15 8 -20 7
-25 -5z"/>
<path d="M3650 4091 c-17 -16 -27 -36 -25 -47 2 -10 4 -22 4 -26 2 -16 44 -46
72 -52 32 -6 79 -34 79 -46 0 -5 -7 -16 -17 -25 -19 -19 -76 -13 -101 11 -17
18 -47 14 -47 -5 0 -24 49 -52 96 -56 67 -5 108 24 109 77 0 35 -26 59 -90 82
-55 20 -70 37 -50 61 16 19 47 19 84 0 38 -20 46 -19 46 6 0 13 -11 25 -35 35
-54 22 -93 18 -125 -15z"/>
<path d="M2322 3698 c-9 -9 -12 -106 -12 -375 0 -341 1 -367 21 -425 45 -135
146 -230 282 -264 195 -51 400 55 478 246 22 53 23 66 24 428 2 396 2 402 -44
402 -43 0 -44 -14 -46 -393 l-1 -362 -28 -58 c-112 -232 -421 -246 -550 -24
-14 23 -28 56 -32 72 -3 17 -7 188 -8 381 -2 374 -3 384 -50 384 -12 0 -27 -5
-34 -12z"/>
<path d="M3317 3073 c-13 -12 -8 -418 5 -431 22 -22 48 5 46 48 -1 27 5 47 18
61 l18 20 67 -70 c46 -49 72 -69 83 -65 21 8 20 39 -1 63 -10 10 -37 38 -61
63 l-43 45 42 39 c75 71 80 76 68 91 -19 23 -34 15 -110 -56 -41 -38 -75 -68
-76 -67 -1 1 -3 55 -4 121 0 65 -3 125 -6 132 -5 14 -35 18 -46 6z"/>
<path d="M4093 2941 c-17 -11 -33 -25 -36 -33 -3 -7 -6 -3 -6 9 -1 22 -32 40
-51 28 -6 -4 -10 -64 -10 -149 0 -115 3 -146 15 -156 12 -10 18 -10 30 0 11
10 15 36 15 112 0 97 1 100 30 129 25 26 35 29 63 24 27 -5 36 -3 41 11 14 37
-44 53 -91 25z"/>
<path d="M4305 2946 c-127 -58 -114 -287 19 -311 45 -9 100 1 116 20 11 14 15
13 27 -5 11 -16 18 -18 34 -10 17 10 19 22 19 154 0 113 -3 146 -14 156 -12 9
-18 8 -32 -8 -15 -18 -20 -19 -38 -7 -32 22 -97 27 -131 11z m91 -46 c87 -32
91 -179 6 -211 -68 -26 -135 32 -130 111 2 44 39 96 73 103 11 3 20 5 21 6 1
0 14 -4 30 -9z"/>
<path d="M4650 2942 c-24 -12 -39 -28 -47 -52 -17 -53 9 -88 88 -117 66 -24
82 -34 85 -57 6 -42 -78 -53 -126 -17 -52 38 -92 13 -48 -29 30 -29 61 -40
109 -40 66 0 107 29 116 82 7 44 -23 81 -79 97 -73 22 -100 40 -96 64 2 16 13
24 39 31 31 7 43 5 74 -14 59 -36 79 7 21 45 -37 25 -96 28 -136 7z"/>
<path d="M4958 2938 c-46 -27 -69 -67 -73 -132 -7 -101 53 -176 140 -176 23 0
53 8 69 19 29 19 29 19 46 -2 15 -18 20 -19 34 -8 22 18 24 277 2 306 -12 16
-16 17 -30 6 -9 -7 -16 -20 -16 -28 0 -10 -6 -8 -22 7 -12 11 -27 20 -32 21
-70 7 -86 5 -118 -13z m121 -47 c34 -19 51 -53 51 -102 0 -40 -5 -53 -31 -78
-34 -35 -54 -38 -104 -16 -75 31 -76 163 -2 198 32 16 53 15 86 -2z"/>
<path d="M3646 2941 c-3 -5 -6 -56 -7 -114 -1 -78 3 -112 15 -136 47 -91 194
-77 236 23 13 30 17 64 15 129 -2 90 -11 114 -39 104 -18 -7 -17 -4 -19 -134
-2 -104 -10 -119 -67 -128 -67 -11 -88 28 -84 160 1 44 -3 86 -8 93 -12 14
-34 16 -42 3z"/>
<path d="M1325 6243 c-544 -439 -934 -998 -1149 -1648 -33 -100 -80 -266 -91
-326 -3 -13 -12 -58 -20 -99 -8 -41 -17 -89 -19 -105 -3 -17 -7 -45 -11 -64
-3 -19 -8 -55 -10 -80 -3 -25 -8 -82 -12 -126 -14 -147 -7 -654 10 -671 1 -2
25 25 52 59 27 34 52 64 55 67 3 3 21 25 40 50 19 25 37 47 40 50 3 3 35 46
70 95 36 50 67 92 70 95 8 7 183 271 196 295 6 11 22 38 36 60 91 144 286 516
358 685 18 41 40 93 50 115 28 62 150 392 150 404 0 6 4 19 10 29 37 67 190
677 215 862 3 25 8 52 10 60 2 8 7 40 10 70 3 30 8 62 10 70 9 35 14 110 8
110 -5 0 -39 -26 -78 -57z"/>
<path d="M5595 6258 c13 -103 38 -261 57 -358 11 -58 22 -116 24 -129 3 -12
12 -53 20 -90 9 -36 17 -73 19 -82 44 -218 226 -759 336 -997 16 -35 29 -66
29 -69 0 -2 42 -89 93 -191 175 -349 367 -661 580 -942 79 -104 221 -279 224
-276 15 15 26 557 12 666 -4 36 -10 90 -13 120 -4 30 -8 66 -10 80 -2 14 -7
48 -11 75 -3 28 -8 58 -11 67 -5 18 -11 46 -20 93 -12 70 -66 270 -100 371
-204 616 -568 1153 -1074 1584 -82 70 -146 120 -154 120 -3 0 -4 -19 -1 -42z"/>
<path d="M3219 746 c-2 -2 -53 -7 -114 -10 -162 -10 -314 -25 -420 -42 -16 -3
-49 -7 -73 -10 -144 -15 -545 -104 -841 -188 l-45 -12 35 -21 c239 -144 695
-322 972 -379 94 -19 291 -53 332 -58 292 -32 701 -28 922 8 21 4 52 8 68 10
199 25 568 131 810 232 117 49 388 188 392 201 3 9 -138 56 -207 69 -14 2 -36
9 -50 14 -45 17 -355 82 -545 115 -77 13 -294 39 -420 50 -33 3 -78 8 -100 11
-49 6 -711 15 -716 10z"/>
</g>
</svg>
