<svg xmlns="http://www.w3.org/2000/svg" xmlns:xlink="http://www.w3.org/1999/xlink" width="1506" height="350.538" viewBox="0 0 1506 350.538"><defs><style>.a{fill:url(#a);}.b{fill:url(#d);}.c{fill:url(#g);}.d{filter:url(#k);}.e{filter:url(#h);}.f{filter:url(#e);}.g{filter:url(#b);}</style><linearGradient id="a" x1="0.5" y1="0.735" x2="0.5" y2="1" gradientUnits="objectBoundingBox"><stop offset="0" stop-color="#f2bd81"/><stop offset="1" stop-color="#483a2b"/></linearGradient><filter id="b" x="0" y="0" width="1506" height="350.538" filterUnits="userSpaceOnUse"><feOffset dy="1" input="SourceAlpha"/><feGaussianBlur stdDeviation="1" result="c"/><feFlood flood-opacity="0.749"/><feComposite operator="in" in2="c"/><feComposite in="SourceGraphic"/></filter><linearGradient id="d" x1="0.5" x2="0.5" y2="1" gradientUnits="objectBoundingBox"><stop offset="0" stop-color="#c5ad90" stop-opacity="0.988"/><stop offset="1" stop-color="#14110e"/></linearGradient><filter id="e" x="1083.5" y="230.99" width="78" height="44" filterUnits="userSpaceOnUse"><feOffset dy="1" input="SourceAlpha"/><feGaussianBlur stdDeviation="1" result="f"/><feFlood flood-opacity="0.749"/><feComposite operator="in" in2="f"/><feComposite in="SourceGraphic"/></filter><linearGradient id="g" y1="1" y2="0.169" xlink:href="#d"/><filter id="h" x="1209.5" y="194.99" width="117" height="82" filterUnits="userSpaceOnUse"><feOffset dy="1" input="SourceAlpha"/><feGaussianBlur stdDeviation="1" result="i"/><feFlood flood-opacity="0.749"/><feComposite operator="in" in2="i"/><feComposite in="SourceGraphic"/></filter><filter id="k" x="1170.5" y="248.99" width="42" height="25" filterUnits="userSpaceOnUse"><feOffset dy="1" input="SourceAlpha"/><feGaussianBlur stdDeviation="1" result="l"/><feFlood flood-opacity="0.749"/><feComposite operator="in" in2="l"/><feComposite in="SourceGraphic"/></filter></defs><g transform="translate(440 -8742.01)"><g class="g" transform="matrix(1, 0, 0, 1, -440, 8742.01)"><path class="a" d="M0,344.526l2.343-9.366H0V264.9H30.444L0,262.563l86.649-2.343,4.683-4.683L96,260.22H201.1l-4.725-70.845,6.5-6.555h0l13.035-13.134V155.859c-6.546,4.218-13.035-2.577-19.539-18.987l6.5-19.218L222.435,150c-2.139,3.282-4.32,5.625-6.519,5.859v13.827l6.519,19.689L209.37,202.029l-4.449,58.2H798.546q4.686-9.363,9.369,0H990.572l9.366-4.683,4.683,4.683h243.546q4.686-9.363,23.421-4.683l4.686,4.683h222.468V281.3l-2.343,2.343H1234.121l-6.453,3.228a16.765,16.765,0,0,1,1.77,1.458l4.683-4.686h264.621q6.558,17.325-21.075,9.366-3.282-7.962-18.738-4.683l-4.683,4.683h-28.1q-4.683-9.372-9.366,0H1182.6l-4.686,4.686H1110q6.09,25.758-11.7,32.784-19.674,6.09-11.7-16.392l-4.683-11.7q-12.174,3.75-16.392-4.683H1042.1l-4.683,4.683q-22.011-6.087-28.1,4.683l-4.683-4.683H957.785l-4.683,4.683H925l-4.683,4.686q-4.677-9.363-9.366,0l-23.4,4.683q-4.686-9.363-9.372,0L845.4,321.108l-4.686-4.686H798.546l-4.686,4.686H728.295l-9.366,4.686-4.686-4.686h-79.62l-4.686,4.686h-145.2l-9.366,4.683L470.7,325.8H437.913l-9.366,4.683-4.683-4.683H386.4l-4.683,4.683H250.569l-4.683,4.686h-140.5l-4.686,4.683H49.179L44.5,344.538Zm170.952-14.052q2.34,0,4.683-4.683Zm0,0-4.686-4.674Q168.6,330.474,170.952,330.474ZM353.61,325.8Zm-79.623,0,9.366-3.12-4.683-1.563Zm-234.18,0q2.346,0,4.686-4.686Zm0,0-4.683-4.686q2.34,4.686,4.683,4.686Zm562.035-4.686q2.34,0,4.683-4.686Zm0,0-4.683-4.686q2.334,4.68,4.68,4.68ZM156.9,316.422l1.755-1.755-15.807,1.755-.453-.15Q147.381,318.8,156.9,316.422Zm531.585-2.34,81.963-2.34h-79.62Zm-566.7,0,9.828-1.4-2.808-.936Zm89.076-.216a60.52,60.52,0,0,1-11.808-2.124l-.432-.216a20.4,20.4,0,0,0,12.234,2.337Zm-36.237-.966a42.922,42.922,0,0,0,9.732-1.08Zm10.5-1.278a25.473,25.473,0,0,0,7.335-3.171l-2.778-1.392Zm182.535-4.56q-.707-.18-1.395-.342c.459.1.936.216,1.395.336Zm-2.31-.555h-.066Zm-11.058-1.425Zm433.881-1.548Zm-7.686-.993-.249-.06Zm200.724-11.1,4.683,1.56,4.683-4.683ZM653.361,293l-4.683-4.683q2.337,4.686,4.68,4.689Zm0,0q2.34,0,4.686-4.683l17.652-1.359a43.413,43.413,0,0,0-8.061-.843q-10.392.009-14.28,6.891Zm304.431-4.683-.3.3a10.889,10.889,0,0,1,1.2-.474c-.3.054-.6.117-.906.18Zm-231.834-1.173,2.34,1.173,4.683-4.686Zm238.95.228a38.242,38.242,0,0,1,6.561.864,16.5,16.5,0,0,0-5.7-.879l-.864.021Zm-281.508-1,35.517-2.733H686.142Zm159.633-7.413,14.049,4.683q28.107,4.677,42.153-4.683l-51.519-4.686Zm358.293,4.683a49.222,49.222,0,0,1,18.363-.177,17.814,17.814,0,0,0-7.434-1.383,45.83,45.83,0,0,0-10.92,1.557ZM796.2,276.615l-39.813-2.343ZM740.1,275.4a39,39,0,0,1-7.116-1.119l-1.38-.69a13.83,13.83,0,0,0,8.5,1.809Zm-23.505-2.292,2.343,1.173,7.026-3.513-2.34-1.173Zm35.127-3.513Zm-313.809-4.7,4.683,4.683h0l-4.683-4.683Zm-190.467,3.9,3.12.78,4.689-4.68h0Zm-18.492-59.736Zm-39.1,0Zm0-13.359Zm0-12.657Zm39.1-27.186Zm-26.073,0Zm-26.1,0Zm-26.073,0Zm-13.083,0Zm-52.134,0Zm104.355-12.189Zm-39.138,0Zm-26.1,0Zm52.182-13.359Zm-78.237,0ZM170.3,110.625,174.036,99.6a83.55,83.55,0,0,1-10.284,4.686c-9.8-6.795-9.8-12.654.03-19.218l-13.065,6.564-13.083-5.157-6.519-1.407c5.142,14.3,2.958,21.564-6.492,21.564a38.37,38.37,0,0,1-13.035-2.346L107.5,99.6a82.9,82.9,0,0,1-8.949,4.686c-8.364-4.92-9.567-11.484-3.648-16.4L92,85.068l45.63-45.7,6.576,6.33,6.5-6.33,58.653,6.33c-30.471,0-54.3,6.33-71.589,19.689,4.308,8.2,8.628,12.9,12.936,12.9-13.083-9.138-8.7-17.577,13.035-26.25l45.621,7.029L181,67.737c18.546,1.407,30.174-3.282,34.923-15.7h0l26.1,11.016h0l19.581,8.2-32.646,14.3-13.038,6.093L207.8,87.9a32.452,32.452,0,0,1-4.92,9.6q-6.5,10.548-13.026,7.032V112.5l6.522,10.782c-3.3,5.859-6.522,7.968-9.786,7.968-5.451,0-10.857-7.266-16.287-20.625Zm9.213-15L189.855,112.5v-7.971a19.2,19.2,0,0,1-6.516-7.029V91.641c-.8.7-2.1,2.109-3.825,3.984Zm3.822-10.548V80.625l-6.546-2.343a16.065,16.065,0,0,1,6.546,6.795ZM111.6,78.282a15.525,15.525,0,0,1,6.489,6.795l6.549-6.795L118.08,71.25Zm39.126,0a8.076,8.076,0,0,0,4.35-1.407Zm-26.1,0L136.347,66.33a53.187,53.187,0,0,0-11.721,11.952Zm91.29,39.375Zm-65.2,0-19.6-7.032,6.519-6.795h0L150.72,91.641l19.587,31.641ZM294.168,104.3Zm-169.542,2.346ZM111.6,104.295Zm-26.1,0h0l19.542,6.33L85.5,117.654ZM320.241,91.641ZM277.8,100.548a8.742,8.742,0,0,1-7.719,3.747c-3.4,0-6.843-2.343-10.326-6.09L242,104.295V91.641l16.551,4.923a29.7,29.7,0,0,0-3.516-4.923L235.5,85.077l19.539-6.795,7.839,2.58,5.2-16.4h0l6.549,20.622,6.489-20.622h0l6.522,20.622,6.531-6.795h0l13.083-13.827,6.5,6.795-32.64,33.042Zm-61.89-8.907L235.5,97.5l-19.587,6.795ZM202.881,97.5Zm26.073-11.952Zm-91.32.936ZM333.3,52.032Zm-39.126,0Zm-39.126,0Zm26.073-12.657Zm-52.161,0,19.554,6.33-19.554,6.33Zm65.208-13.827Zm-39.126,0Zm-65.187,0,19.5,7.5-19.5,6.327Zm-65.229,0Zm-26.073,0ZM268.08,12.9Zm-13.038,0Zm-39.126,0Zm-117.363,0ZM228.954,0ZM98.553,0Z" transform="translate(3 2)"/></g><g class="f" transform="matrix(1, 0, 0, 1, -440, 8742.01)"><path class="b" d="M66,38Zm-1,0Zm-5,0Zm-1,0Zm-2,0Zm-4,0Zm-1,0Zm-1,0Zm-3,0Zm-9,0Zm-8,0Zm-2,0Zm37-1Zm-1,0Zm-4,0Zm-2,0Zm-2,0Zm-9,0Zm-2,0Zm-1,0Zm-9,0Zm-3,0Zm-4,0Zm37-1Zm-1,0Zm-4,0Zm-1,0-.5-1.5L61,33l-.223.666a3.628,3.628,0,0,1,.834-.5Q61.125,32.583,62,32a5.512,5.512,0,0,1,1,.5h0q1.124.75,0,1.5h0q-.239-.1-.442-.191a.974.974,0,0,1-.453.617L62.5,36l-2-.5L61,35a1.417,1.417,0,0,1-.5-.5h0L60,36Zm-3,0Zm-5,0Zm-1,0Zm-1,0Zm-4,0Zm-1,0Zm-1,0Zm-2,0ZM31,36Zm37-1ZM56,35Zm-2,0Zm-3.5-1.5L52,34l-1.5-1.5L51,32l.5.5A1.414,1.414,0,0,1,52,32a5.512,5.512,0,0,1,1,.5h0q1.124.75,0,1.5l.5.5L54,32l.5,2.5L53,36ZM45,35Zm-1,0-1-1-1.5.5L42,34a5.541,5.541,0,0,1-1-.5h0q-1.01-.674-.2-1.348a7.074,7.074,0,0,1-.3-.651L41,30l.54.9.428-6.4H41.5L41,28l-.5-3.5L41,24h0l-.5-.5L41,23a1.417,1.417,0,0,1-.5-.5V20.022q-.735.763,0,3.477l-.441,1.028.411,3.706q.237-.117.529-.234,1.126.751,0,1.5h0a5.551,5.551,0,0,1-1,.5h0q-.751-.5-.5-1a1.418,1.418,0,0,1-.5-.5h0a5.552,5.552,0,0,1-.5-1l.389-.907L38,23.338h0L37.5,21.5l.462-.616L37.5,19.5a2.127,2.127,0,0,0,1-1L38,19a6.918,6.918,0,0,1-.687-.314L37,19h0l-.5.5L37,21l-2,1,2.5-1L37,23l-1-.333h0l-.5-.167-.371,1.108.87.248h0l.5.143L36,27l-3.5-3.5L33,23l1,.286-1.439-1.028q-.005.371-.562.742a5.513,5.513,0,0,1-1-.5h0q-1.124-.749,0-1.5.248.1.457.2-.317-2.439,1.171-3.073L31.5,18.5q.8-3.2-1-4L32,13l2,4q1.531-.656,1.537-1.342Q35.531,16.344,34,17l-2-4-1.5.5L31,11l-.5-.5,1.5-1L31,10q-1-2-2,0a6.673,6.673,0,0,1-1.208.3A6.675,6.675,0,0,0,29,10l1.5-.5L30,10l.5.5L30,11l.5,1.5L28,14l-.5-.5L27,14l-2.5-1.5.451-2.248L24.5,8H23L19.5,4.5,20,4l.5.5L21,4l-1.5-.5L23,3q.5,1,1,1h0q.5,0,1-1l1-.5h0L27,2q3.739-.689,4.477,1.432L31,2h0q2.6-.8,1.5,2.5L33,3l.5,1.5h-1l1,2a6.7,6.7,0,0,1-.35.751c.054.083.107.159.161.229L33.9,6.5h-.4L34,5l.286.858L34.5,5.5,34,4l1.382,2.763q.059-.125.118-.263L35,4l1.385,2.308L36,4l3,1h0l2-1h0a1.683,1.683,0,0,1,.428.382L42,4l3.5.5L42,5l5.5.5L42,6V5L39.125,7.156,40.5,7.5q-.083.209-.167.389L41,7.667h0l.5-.167L41,6l6.5.5-.428.714L47.5,8.5q-1,.5-1,1l1.219-1.22a.624.624,0,0,1-.084-.977A2.7,2.7,0,0,1,48,5l.617.925L49,4h0l1,1V4l1-.5h0L52,3l2.5.5a2.543,2.543,0,0,1-.256.581L55.5,4.5,54,5V4.411A2.22,2.22,0,0,1,53.1,5H58l1.5,1.5a3.726,3.726,0,0,1-1.292,1.1L60,7l2.5,2.5L62,10l.5.5L62,11v.794a3.3,3.3,0,0,1,1-.01h0q1.355.242.5,2.216L61,13l1,1,1.5.5-.2.6,1.2.4L63,16l1.5.5L63,17q-1-2-2,0l-.11-.028L61,17q1-2,2,0,2.6-.7,1.5,2-.266.108-.5.181h0a1.99,1.99,0,0,1-1.145.1L63.5,21h0v5.5h-1l1,3h-1a3.672,3.672,0,0,1-.452-.547L62,29h0l-2,2,1.5-.5-.5.832h0L60,33l-1-3,1,1-.5-1.5q2-1,0-2v-2L59,27l-.309-1.232a3.486,3.486,0,0,1-.193.732l1,2h-1l-.387-.581q-.053.04-.113.079-2.4-.959-1.114-1.919L56.5,25.5l.072-.071-1.607.357L55.5,26,54,29l-.5.25,1,.25a5.567,5.567,0,0,1-.5,1h0q-.75,1.123-1.5,0v-.752L52,30l-.307-1.23a3.49,3.49,0,0,1-.192.73,1.415,1.415,0,0,1-.5.5l1.5.5L51,31V30q-.5.25-1-.5h0a5.539,5.539,0,0,1-.5-1L50,28a2.794,2.794,0,0,1,1.1-.159L48,26.6h0l-1-.4h0l-.5-.2.5-3,2,2h4a6.016,6.016,0,0,0-4,0l-2.5-2.5h-1L45,21l-1.277.425a8.339,8.339,0,0,0-.179,1.031L45,21l.5,5.5h-1l-.972-3.886q-.018.19-.029.385h0q.415.363,0,1.5l1,2.5q-.233.1-.443.171L44.5,28.5h-1l.431-1.289a2.859,2.859,0,0,1-.508.108l.077.18v3a5.555,5.555,0,0,1-.5,1h0q-.381.571-.762.562l.263.438a2.235,2.235,0,0,1-.189.249.614.614,0,0,1,.19.751L43,33q.305.122.551.244L44,31l.5,2.5H44q1.125.749,0,1.5Zm7.5-7Zm10-.5.025.024c0-.033-.007-.067-.009-.1Zm-3-2.5Zm2,0h1V23l-.3.6.3.9h-.751Zm-18.1-.074c.03-.136.064-.278.1-.425h-.285ZM55,22l1.5-.75L56,21l-3,1A6.994,6.994,0,0,0,55,22Zm4.5-1.5.3-.9-.3-.1L58,22l-.382-.191Q58.587,22.629,59.5,20.5ZM53,22l-2.5-2.5A2.791,2.791,0,0,0,53,22Zm-10.5-.5,1-3-.25-.25-.75.25.285-.714L42,17h0l-.334-.334.828,3.31A1.955,1.955,0,0,1,42.5,21.5Zm1.344-.517L45.5,18.5l-.166-.056a6.174,6.174,0,0,0-1.49,2.539ZM46.831,20l.051-.077c-.019-.014-.038-.029-.056-.045C46.828,19.923,46.829,19.963,46.831,20Zm5.67-1H55q1,2,2,0h0q-1,2-2,0Zm-11.963.986a4.961,4.961,0,0,1,.825-.262H41.3a1.08,1.08,0,0,0-.763.262ZM61.5,19.5l.4-2h-.4l-.374,1.875Zm-11,0,1-1a5.005,5.005,0,0,0,0-2Zm-3.778-.372L47.7,17.5H46.5a7.7,7.7,0,0,1-.145-2.14L45.5,17.5a2.305,2.305,0,0,1,.352.217L46.5,17.5q-.257.166-.492.347a2.439,2.439,0,0,1,.715,1.281ZM56.4,18.84,56,19a.644.644,0,0,0,.4-.16ZM56,19l-.4-.16A.639.639,0,0,0,56,19Zm3.4-.264q-.668-1.848.643-1.879Q58.729,16.887,59.4,18.736ZM35.5,18l1.256.314Q36.014,17.657,37,17l1,1,.437-.146A3.9,3.9,0,0,0,36.5,16.5v-1l-.363.91L36.5,17.5h-.8Zm8.876.125L44,18l-.293.1a1.754,1.754,0,0,0,.67.026Zm13.835-.011a.868.868,0,0,0,.19-.076Zm4.174-.086A4.717,4.717,0,0,1,62.5,17.5h-.312ZM56.5,16.5,56,18l5-6a8.471,8.471,0,0,1,1-.207V11ZM50,11l3.5,2.5V18q1.3-5.5-2.5-7-.68-.125-1.181-.27Zm8.5,6.979q.653-.5.02-2.432a5.648,5.648,0,0,0-.025,2.432Zm-10.217-.145L48.5,17.5h-.335ZM38.5,17.5h2L41,14l.356,1.422A3.577,3.577,0,0,1,41.5,14.5h.608a4.975,4.975,0,0,1-.608-1L43,14l1.5-1.5v-1L43,14l.31-.93q-1.525.541-1.982-.336A2,2,0,0,1,41,13h0q-.323-.129-.58-.258L40,14h.5v3l-1.8-.449a8.12,8.12,0,0,1-.2.949ZM45,17l.05-.5H44.9Zm15.76-.059-.033-.007Zm-.3-.055a2.621,2.621,0,0,0-.373-.029,2.622,2.622,0,0,1,.373.028ZM51.5,16.5A1.926,1.926,0,0,0,50,15a2.4,2.4,0,0,1-1.109.2Zm-9.9-.1.16-.159a.627.627,0,0,1-.254-.219Zm-2.864-.136L39,16h0l.5-.5-.458-1.375a7.325,7.325,0,0,1-1.1.189l.562.187-.636.212q.992.087.867,1.551Zm4.733-.186L43.5,16ZM63,16ZM43.5,16Zm-7-.5V15q.265-.106.5-.174v-.521a2.487,2.487,0,0,1-1.888-1.119Zm22.039-.04L61,13a3.692,3.692,0,0,0-2.462,2.459ZM48.5,15Zm-4.4-.5L44,14a3.593,3.593,0,0,1-.323.5Zm-9.6,0L35,13Zm13.834-.164A3.593,3.593,0,0,1,48.5,13.5h-.376ZM55.5,14H57l1-.715ZM40,14l-.494-1.479A4.038,4.038,0,0,1,39.5,14Zm7.056-.393q.052-.056.108-.108H47.1ZM54.5,13.5l-3-3,.4-.4-1.4-.6L57,9H50v.817ZM30,10l-3,3H25.5Q28.8,13.5,30,10Zm19.5,3h0V11.5l-1.125-.75Zm-6.06-.321.06-.179a6.465,6.465,0,0,1-.042-1.746,4.971,4.971,0,0,0-.018,1.924ZM39.5,12.5l.217-.217Q39.039,11.641,40,11a6.924,6.924,0,0,1,.685.314L41,11,40,9h0l-1,1,1.5.5L39,11V10l-.5.5.16.48a2.874,2.874,0,0,1,.84,1.52Zm7.482-.126.025-.059a1.289,1.289,0,0,1-.2.016Zm12.642-.246L60.5,11.5a4.343,4.343,0,0,1-.116-.437ZM34,12l3-2q.229.084.438.179a4.2,4.2,0,0,1-.038-.607Zm0,0q-.835-1.668-1.667-.556Zm7.134-.4a6.746,6.746,0,0,1,.106-.958L41,11l-.138.414a2.9,2.9,0,0,1,.272.186ZM55.5,11Zm-8-.5q.063.234.1.437l.235-.548L46.5,9.5Q46.5,10,47.5,10.5Zm-20.1-.173Zm.079,0a1.438,1.438,0,0,0,.166-.01l-.166.009ZM62,10a2.356,2.356,0,0,0-2-2,1.926,1.926,0,0,1,1.5,1.5l-.241.337A3.455,3.455,0,0,1,62,10ZM50,9.816V9a7.3,7.3,0,0,1-.69-.247A2.087,2.087,0,0,1,49,9Zm-12.6-.34q.005-.215.028-.449a4.82,4.82,0,0,1-.811.252Zm11.381-.3A2.72,2.72,0,0,1,49,9q-.257-.1-.472-.206ZM39,9a1.422,1.422,0,0,1-.5-.5V7.625L38,8a2.228,2.228,0,0,1-.252-.192,3.428,3.428,0,0,1-.115.736ZM26.48,8.564,26.5,8.5ZM33.494,8.5H33.5ZM45.494,8.5Zm-19,0-.013-.05Zm29.9-.363A11.725,11.725,0,0,1,53,8a5.379,5.379,0,0,0,3.4.137ZM35.17,7.17,35,7,33.984,8.014Q34.588,8.177,35.17,7.17ZM50,8l.546-.273L49.331,7ZM33,8l.215-.358-.106-.316a2.353,2.353,0,0,1-.371.5ZM53,8q-.5-1-1-1A2.182,2.182,0,0,0,53,8Zm-1.5-.751L52,7a.72.72,0,0,0-.5.249ZM31.5,7V3.5l-.458,3.2Zm6,0a1.2,1.2,0,0,1,.337-.382l-.664.189A.8.8,0,0,1,37.5,7ZM23,7a6.8,6.8,0,0,1,1.068-.1A6.8,6.8,0,0,0,23,7Zm1.223-.1Zm12.165-.124.072-.01-.02-.121Zm-6.414-.769a3.7,3.7,0,0,0-2.453-.014q.506.659,2.453.015Zm.444.271a2.015,2.015,0,0,0-.3-.2Zm-2.932-.334-.143-.571a1.038,1.038,0,0,0,.143.572ZM26,5l1.155-.384L27,4l-2.251.75ZM31.5,3.5ZM42,35Zm-2,0Zm-5,0Zm-3,0Zm34-1Zm-7,0Zm-8,0Zm-1,0Zm-1,0Zm-3,0Zm-5,0Zm-1,0Zm-1,0Zm-1,0Zm-2,0Zm-5,0Zm34-1Zm-1,0Zm-4,0Zm-1,0Zm-2,0Zm-7,0Zm-1,0Zm-1,0Zm-8,0Zm-1,0Zm-2,0Zm-1,0Zm-5,0Zm-1,0Zm37-1Zm-2,0Zm-1,0Zm-3,0Zm-2,0Zm-1,0ZM48,32Zm-5,0Zm-4,0Zm-2,0Zm-1,0Zm-1,0Zm-6,0Zm10.5.5L40,31l.5,1.5Zm-2,0L38,31h0l.5,1.5ZM64,31Zm-1,0Zm-1,0Zm-3,0Zm-1,0Zm-4,0Zm-2,0,1.5.5L52,32Zm-1,0Zm-1,0Zm-1,0Zm-3,0Zm-7,0Zm-3.5.5L36,31q-.916-.609-.342-1.22L35,30v-.687q-.948-.146-.5-1.813L33,25.25h0l-.5-.749L33,24l3.5,3.5V29a5.489,5.489,0,0,1-.748.25l.423.141A6.33,6.33,0,0,1,37,29q1.071.712.107,1.426L37.5,32ZM35,31Zm-1,0Zm-2,0Zm35-1Zm-3,0Zm-1,0Zm-1,0ZM50,30Zm-6,0Zm-9,0Zm-1,0Zm-2,0Zm39-1Zm-2,0Zm-1,0Zm-1,0Zm-1,0Zm-7,0Zm-1,0Zm-3,0Zm-6,0Zm-5,0Zm-5,0ZM12,29ZM9,29ZM0,29Zm63.5.5L64,28h0l.5,1.5ZM71,28Zm-1,0Zm-1,0Zm-1,0Zm-1,0Zm-7,0Zm-2,0Zm-1,0Zm-2,0Zm-8,0Zm-2,0Zm-7,0Zm-1.5-1.5L38,25l-.5,1.5L37,29ZM34,28Zm-1,0Zm34-1ZM49,27Zm-3,0Zm-1,0Zm-7,0Zm-4,0Zm-2,0Zm-1,0ZM12,27Zm-2,0ZM5,27ZM3,27ZM1,27Zm69-1Zm-2,0Zm-1,0Zm-2,0Zm-9,0ZM46,26Zm-8,0Zm-5,0Zm-2,0Zm-1,0ZM13,26Zm-1,0Zm-1,0ZM9,26ZM8,26ZM7,26ZM2,26ZM1,26Zm68-1Zm-1,0ZM46,25ZM32,25Zm-3,0Zm-7,0Zm-5,0Zm-3,0Zm-1,0Zm-1,0Zm-1,0ZM9,25ZM8,25ZM6,25ZM1,25Zm35.5.5L37,24l.5,1.5ZM70,24ZM46,24Zm-8,0Zm-7,0ZM18,24Zm-1,.5a5.512,5.512,0,0,1-1,.5q-.937-.624-.312-1.25l-.041-.043A6.965,6.965,0,0,1,15,24a1.409,1.409,0,0,1-.5-.5L13,23a4.371,4.371,0,0,1-.684.105L13.5,23.5,12,24v-.893Q10.3,22.988,12,20h0l.683.955L13,20l.333,1L13,18a2.339,2.339,0,0,1,1.286,1L14,17l2,2,1.5-.5L17,19l.5,2-.5.2h0l-.512.2a.734.734,0,0,1-.212.81c.028.026.054.052.078.079q.315-.163.646-.294.936.624.312,1.249.625.625-.312,1.25h0Zm-2.5-1q-.277-.562.711-1.124l.175-.525L15,22l-.352-.353q-.051.405-.148.853h-.714Zm-1.051-1.47-.058-.526H13.07Zm1.237-.709L15,21l-.294-.294c0,.194-.006.394-.023.61ZM15,24Zm-1,0Zm-1,0Zm-1,0ZM6,24ZM5,24Zm66-1Zm-4,0ZM46,23Zm-9,0Zm-5,0Zm-2,0Zm-7,0ZM7,23ZM6,23ZM5,23ZM4,23Zm68-1Zm-5,0Zm-3,0ZM26,22Zm-6,0ZM9,22ZM8,22Zm-1,.5A5.551,5.551,0,0,1,6,23q-1.127-.749,0-1.5H6A5.522,5.522,0,0,1,7,21H7q1.126.749,0,1.5Zm-3,.1H4l-1-.4H3L2.5,22,2,20.752H2L1.5,19.5v-3l.628-.878L2.5,14.5l1.451-3.193L3.5,9.5,5,8l1.5.5L4.5,9l.164.738L5,9l.5,1.5-.494.776L5.5,13.5h-1l-.257-1.025L3.17,14.161,4,13l.5,1.5-.5.749H4L3.166,16.5l.333,1h-1l1,1L3,20a3.1,3.1,0,0,1,1-.168H4q1.087.05.5,1.667L5,23ZM3,20ZM2.5,17.5ZM1,22Zm71-1Zm-1,0Zm-4,0Zm-1,0Zm-1,0Zm-1,0ZM30,21Zm-1,0Zm-3,0Zm-2,0Zm-1,0Zm-4,0Zm-1,0Zm-7,0ZM9,21ZM5,21ZM2,21Zm65-1Zm-3,0ZM31,20Zm-1,0Zm-1,0Zm-1,0Zm-1,0Zm-3,0Zm-4,0Zm-9,0ZM8,20ZM6,20ZM1,20Zm64-1ZM31,19Zm-3,.572h0l-1-.428h0L22,17H19l-1.5.5,1.4-2.8-.244-.729a4.086,4.086,0,0,1-.157.53H17.166l.333,1a6.294,6.294,0,0,1-.391.826L17.5,17.5,16,19l-2.5-2.5a2.753,2.753,0,0,1-.165-1H12.5L13,14l.4,1.207a.643.643,0,0,1,.6-.373h0A2.758,2.758,0,0,1,15,15h0a1.409,1.409,0,0,1-.5-.5V13l2,.5L17,13l-3.36-.479q-.056.226-.141.479l-3-.5q2.3-1.2-.5-2.5l1.5,1.5L10,13q1.5,1-1,2-.888-.592-.373-1.186L7,13l-1.5.5L6,12l-.5-1.5.751-.751L6,9l.5.5L7,9l1,.5V9L5,8l-1.5.5A2.845,2.845,0,0,0,5.5,5Q8.1,5.8,9,4H9l2.5.5-1.818.728.6.2L11,5q1.078.721.088,1.439L11.5,8.5h-1l.385-1.928A6.013,6.013,0,0,1,10,7L8.73,6.577,9,7.25H9l.406,1.016Q9.667,8.133,10,8h0q1.5,1-1,2-.96-.64-.28-1.281L8.5,8.5,8,9v.5L9,10l2.5-1v1a1.228,1.228,0,0,1,.365-.4L11.5,8.5,13,7l.059.1L13.5,6a2.91,2.91,0,0,1-.262-1.414L12,5V4l1.273.424a.926.926,0,0,1,.328-.49L13,4V3l4.5.5-1.851.206A12.139,12.139,0,0,1,17,4l1-1,.5.5L18,4l4.5,3.5-.363.363L24.5,9.5,24,12l-.308-1.232a3.493,3.493,0,0,1-.192.732l1,2.5,4,.5L25,15q3.3.8,4-1a3.5,3.5,0,0,1,.566.307L30,13l.5,1.5h-.681q1.316,1.121.681,3.5l-.857.214.857.286-1.2.4,1.2.6L29,20Zm.5-1.072.5.25v-.375ZM16.572,14.714,16.7,14.5h-.2Zm2.109-1.4.489-.489Q18.122,11.014,17,13a3.112,3.112,0,0,1,1-.167h0a.637.637,0,0,1,.68.484Zm-4.994-1L14,12a.783.783,0,0,1-.26-.045,3.341,3.341,0,0,1-.054.358ZM9,12l.5-.5L10,10Zm2.5-1q.183-.061.351-.107A1.206,1.206,0,0,1,11.5,10.5Zm.741-.2a3.07,3.07,0,0,1,.392-.049c-.033-.061-.067-.125-.1-.19Zm3.259-.3L16,10h0l1.137-1.137a3.014,3.014,0,0,0-.941-.19Q15.007,8.673,15.5,10.5Zm8-.5ZM22,10a2.418,2.418,0,0,1,1.232-.134l-1.876-.938Zm-9.79-.629A6.474,6.474,0,0,1,13,9l-.5-.5ZM13,9l.318-.227L13.25,8.75Zm4.5-2.5L14.73,8.765,17,7l.4,1.6L19,7l-1.5.5V6l2.144,1.073L19,6q-2.4-.1-1-1l3.25,2.251L19,5a3.056,3.056,0,0,0-.893-.168Q16.968,4.83,17.5,6.5ZM14.45,7.965l.268-.191A3.864,3.864,0,0,0,15.5,6.5L13.985,8.014a.645.645,0,0,0,.464-.05ZM16.5,5.5,15.041,7.542,16.5,6.5,18,4ZM6.5,6.5Zm2-.5.161.4,1.264-.759ZM25,19l1.5.5L25,20Zm-1,0Zm-1,0Zm-1,0Zm-3,0Zm-1,0Zm-7,0Zm-1,0ZM8,19ZM0,19Zm65-1ZM24,18Zm-1,0Zm-1,0Zm-3,0h0l2.5.5L19,19Zm-1,0Zm-6,0ZM7,18ZM4,18ZM0,18Zm30.5.5L31,17h0l.5,1.5ZM69,17Zm-3,0ZM21,17l1.5.5L21,18Zm-8,0Zm-1,0Zm-1,0ZM8,17ZM7,17ZM5,17ZM4,17Zm68-1ZM13,16Zm-1,0Zm-2,0ZM9,16ZM8,16ZM7,16ZM6,16ZM5,16ZM4,16Zm68-1Zm-4,0Zm-3,0ZM31,15ZM18,15Zm-6,0Zm-2,0ZM9,15ZM8,15ZM5,15Zm59-1ZM12,14Zm-1,0ZM8,14ZM6,14l1.5.5L6,15ZM5,14ZM2,14ZM0,14Zm64-1ZM25,13ZM14,13Zm-1,0Zm-2,0,1.5.5L11,14ZM7,13ZM2,13Zm62-1ZM3,12ZM2,12Zm62-1ZM3,11ZM2,11Zm61-1ZM3,10ZM69,9ZM63,9ZM3,9ZM72,8ZM71,8ZM70,8ZM69,8ZM68,8ZM62,8ZM3,8ZM63,7ZM12,7ZM4,7ZM3,7ZM0,7ZM65,6ZM13,6ZM5,6ZM4,6ZM2,6ZM1,6Zm10.5.5L12,5l.5,1.5ZM72,5ZM60,5ZM13,5ZM5,5ZM68,4ZM67,4ZM60,4ZM48,4ZM47,4ZM46,4ZM8,4ZM7,4ZM6,4ZM5,4ZM1,4ZM66,3ZM65,3ZM64,3ZM57,3ZM55,3ZM50,3ZM44,3ZM43,3ZM42,3ZM35,3ZM34,3ZM19,3ZM10,3l1.5.5L10,4ZM8,3ZM6,3ZM3,3ZM70,2ZM66,2ZM65,2ZM62,2ZM61,2ZM60,2ZM59,2ZM53,2ZM52,2ZM42,2ZM34,2ZM33,2ZM25,2ZM21,2ZM20,2ZM19,2ZM18,2ZM17,2ZM15,2l1.5.5L15,3ZM14,2ZM12,2ZM11,2ZM69,1ZM68,1ZM66,1ZM62,1ZM61,1ZM52,1ZM43,1ZM27,1ZM25,1ZM16,1ZM13,1ZM62,0ZM53,0Z" transform="translate(1086.5 232.99)"/></g><g class="e" transform="matrix(1, 0, 0, 1, -440, 8742.01)"><path class="c" d="M109,1Zm-3,0Zm-1,0Zm-4,0ZM97,1ZM96,1ZM95,1ZM94,1ZM89,1ZM84,1ZM74,1ZM72,1ZM71,1ZM69,1ZM67,1ZM66,1ZM65,1ZM60,1ZM59,1ZM58,1ZM57,1ZM56,1ZM52,1ZM50,1ZM49,1ZM27,1ZM24,1ZM23,1ZM22,1ZM20,1ZM19,1ZM18,1ZM13,1ZM12,1ZM11,1ZM4,1ZM3,1ZM0,1ZM110,2Zm-1,0Zm-1,0Zm-3,0Zm-3,0Zm-1,0ZM98,2ZM96,2ZM93,2ZM90,2ZM87,2ZM83,2ZM74,2ZM73,2ZM72,2ZM67,2ZM66,2ZM59,2ZM58,2ZM57,2ZM55,2ZM53,2ZM51,2ZM49,2ZM45,2ZM34,2ZM31,2ZM23,2ZM22,2ZM20,2ZM19,2ZM18,2ZM17,2ZM11,2ZM6,2ZM4,2ZM0,2ZM105.5,4.5h.8L106,6l-.5,1.5.333.777L105,8q-2.5,1-1,2v1l1.5-.5L104,10l2.045-1.228L107,11l.5-2.5-.5-.835h0L106,6l1.222-2.035L108,7.337h0l.268,1.163H107.5L108,10l.363-1.09.136.591L108,11c.038-.015.075-.031.112-.048q-.059.082-.112.166h0A4.013,4.013,0,0,0,108,15h0l1.5-4.5h-.683q1.494-1.348.683-5L107,2a3.057,3.057,0,0,0-.873-.156Q104.614,1.844,105.5,4.5ZM107,3l.115.5h-.282Zm4,0Zm-7,0Zm-2,0ZM99,3ZM98,3ZM96,3ZM90,3ZM86,3ZM82,3ZM80,3ZM66,3ZM64,3ZM60,3ZM58,3ZM50,3ZM49,3ZM45,3ZM25,3ZM22,3ZM20,3ZM16,3ZM7,3ZM6,3ZM4,3ZM3,3Zm55.5-.5-.6,1.8L57,4V5l.749-.25-.25.75L59,7l.5-4.5Zm-2,0L56,5l1.5-2.5ZM109,4Zm-4,0Zm-1,0Zm-1,0ZM98,4ZM97,4ZM91,4ZM89,4ZM86,4ZM80,4ZM79,4ZM74,4ZM73,4ZM71,4ZM69,4ZM66,4ZM62,4a1.428,1.428,0,0,0-.5.494Q61.744,4,61,3.5h0A5.544,5.544,0,0,0,60,3q-1.124.749,0,1.5h0A5.545,5.545,0,0,0,61,5a1.426,1.426,0,0,0,.5-.494.615.615,0,0,0,.193.745A2.242,2.242,0,0,0,61.5,5.5L63,8v.5q-1.127.751,0,1.5v.887a4.814,4.814,0,0,0-1-.091V10l.5-2.5h-1L62,10v.8a3.234,3.234,0,0,0-.651.077A2.543,2.543,0,0,0,61.5,10.5L60.178,9.472,61.5,10,60,6h0L58.47,8.143l-.651-.506L58.5,6.5h-1l-.154.769L57,7l-.5.5.668.668L57,9l.374-.625.541.541L57.5,9.5,58,11l.6-1.2q.536,1.847-1.6,1.2v1l.5,1.5L58,15l1-1.669h0l.5-.833L57,12a6.873,6.873,0,0,0,2.727.059,3.654,3.654,0,0,0-.228.441L60,14l.5-2q3-1.3,2,2.5L62,16a3.2,3.2,0,0,0,1-.729V16l-.5,2.5.5.5-.5.5L62,22l-1-4,1,1h0l.5-2-1.255.313q.458-.406.257-.812l.5.5V14l-2.5.5.314.314A2.375,2.375,0,0,0,59,14.769h0a.8.8,0,0,0-.733.732H56.5L57,17h0l.5-1.5-.428,3L56,16l-.5,2.5.5,1.166h0L57,22h0l.5-2.5-.248-.578A1.924,1.924,0,0,0,58,18.45h0a2.31,2.31,0,0,0,.58-1.422q.222.071.421.12V18l-1.5,1.5L58,22l.5-2q2.7-1.1,2,1.5a3.916,3.916,0,0,0-.421.263L60.5,20.5h-1l.453,1.361q-.9.747.047,1.532h0a4.574,4.574,0,0,0,.816.516A6.1,6.1,0,0,0,60.1,26.05L60,26l.072.217Q60.021,26.6,60,27l-1-4-.5,7.5-1,2h1a1.793,1.793,0,0,0-1,1.013V29.5L56,28H54l-2-1.2h0l-2-1.2h0L49,25H46l1.5-.5L46,24v1H43l2.5-.5L43,24l1.5-.5L43,23v2H40l2.5-.5L40,24v1H36l-1-1-1,.5V24l2.5-.5L34,23v1.5L31,26q1.127-.75,0-1.5h0a5.52,5.52,0,0,0-1-.5h0l-.5-1H29V22q1.127-.749,0-1.5h0a5.586,5.586,0,0,0-1-.5q-1.124.749,0,1.5v.3L26,19l-.856,1.285L25.5,18.5h-.429A1.108,1.108,0,0,0,25,16.653h0A4.924,4.924,0,0,0,24,16l1.5-.5L24,15v1q-.488.9-.992.979L23.5,15.5h-1l.5,1.48q-.729.1-1.494-1.48L21,14l-1,1h0l-.5.5-.087.788A4.986,4.986,0,0,0,19,15.5V15l.5-2.5h-1A1.417,1.417,0,0,0,18,12a6.331,6.331,0,0,0-.825.391L16,12l.5-2.5h-1L16,12v1l.657-.219a.6.6,0,0,0-.156.719h-1L16,15l.5-1.5a.981.981,0,0,0,.187.248Q16.061,14.376,17,15a5.581,5.581,0,0,0,1-.5V15a1.406,1.406,0,0,0-.5.5V17l1.886-.473-.108.973H18.5L19,20l-1-3-.405,8.116q-.436-.67-2.094-.117a4.4,4.4,0,0,0-.247,1.152L15,26l-.5,2,3-.5-.565-.338Q17.2,27.1,17.5,27v2.5l-1,1L17,29l.5-.5L17,28l-1,1-1.5-.5V32l2-.5-.074.52L14.5,32.5l.5.5a1.412,1.412,0,0,0-.5.5L14,33l-.5.5,2,3v2h-.4l.4-2h-1l.4,2H14q1.126-.75,0-1.5h0a5.552,5.552,0,0,0-1,.5h0q-1.125.751,0,1.5.3-.121.546-.241a6.366,6.366,0,0,1-.035,2.766A1.361,1.361,0,0,0,13,41l.5-1.5h-1L13,41a5.547,5.547,0,0,0-1,.5h0q-1.124.75,0,1.5a5.2,5.2,0,0,0,1.076-.552A2.81,2.81,0,0,1,11.5,43.5L14,44l.367,1.1A2.181,2.181,0,0,0,13,44l-.75,1.249.25-.747h-1l.428,1.285L11.5,46.5q1,.5,1,1L11,47v1l1.5-.5q0,.5-1,1h-1L11,50h0l.5-1.5-1,6-1,1a4.506,4.506,0,0,0,.667,1.221L9.5,56.5l.45.55-.45.45L11,59h0l.5.5,2.8,3.6L14,63q-1.123.751,0,1.5h0a5.546,5.546,0,0,0,1,.5l6,5.251h0l1,.875h0L23,72h6l1-1h0l2,.667h0L33,72h5v1l5.5.5L38,73l-1-1H27.5q-.776,1.94.5,2.207h0a3.025,3.025,0,0,0,1,0h0A7.892,7.892,0,0,0,30,74a2.424,2.424,0,0,1,1-.989V74l5-.454V74H32v1h8l1-.428V75l3-.667h0l1-.222h0L45.5,74,45,72l1,2,1-1h0q.518.086,1,.136h0q3.423.354,5-1.135l3,1h0l2.407-1.445L59,72l2-1,2.5,1a4.364,4.364,0,0,0,.248-1.165A2.791,2.791,0,0,0,65,71.193h0A7.124,7.124,0,0,0,67,71l3-1,3,3,1.5-1q-.25.5.5,1l1-.6h0l1.5-.9L76,71h3l.714-.286L80,71h0l1,1h0l.5-2h-.006L83,69.4v.1q-1.124.75,0,1.5h0a5.588,5.588,0,0,0,1-.5h0a1.432,1.432,0,0,0,.5-.493q-.24.5.5.992a5.587,5.587,0,0,0,1-.5h0q.745-.5.5-.993A1.434,1.434,0,0,0,87,70q2.5-1,1-2l1-1h0l.5-.5L89,66l-1.5,1.5A1.411,1.411,0,0,0,87,67a4.467,4.467,0,0,0-.859-.142L88,65h0l.789-.789a8.191,8.191,0,0,0-.283,1.712l2-1.425V63a1.421,1.421,0,0,0,.5.5h0a5.554,5.554,0,0,0,1,.5l-1,1h0l-1.5,1.5.5.5,2-2h0l.5-.5L92,64q1.127-.75,0-1.5v-.186q.95-.146.5-1.813l.734-2.2.267,1.2L93,61a3.125,3.125,0,0,0,1,.167h0q1.089-.049.5-1.666a2.348,2.348,0,0,0,.622-.468L95,60l2.5-1.5Q96.8,56.2,99,57a5.553,5.553,0,0,0,1-.5h0q1.051-.7.138-1.4a3.49,3.49,0,0,0,.361-.6v-3l2.167-6.5L103,46l.5-1.5h-.667l.667-2h-.667l.667-1v-4l1-1,.182-1.454L105,36l.5-1.5h-.751l.751-6,1-1-1.332-.333.333-.667v-.717A5.5,5.5,0,0,0,106,27l1-2.33h0l.5-1.169v-6h-.429l.429-1v-3q-.436-.654-.872-.548L107.5,11.5h-3l.5.833V12.5a5.552,5.552,0,0,0-1-.5,1.415,1.415,0,0,0-.5.5h-1l.365,1.1q-.918.7.134,1.4a5.572,5.572,0,0,0,1-.5V15l1.5-.5-1.089-.362a.668.668,0,0,0,.146-.328A4.7,4.7,0,0,0,105,14q.548-.365.563-.73l.288.479a6.623,6.623,0,0,0-.349.75q.8,3.3-1,4l1.25,1.25a1.968,1.968,0,0,0-.75-.062h0q-.608.093-.642.813h-.429l.571-4q-.609-.914-1.219-.341l.22-.658h-1l.391,1.175a6.371,6.371,0,0,0-.391.825l.5,1h-.5L103,20l.3-.9.2.4-1,1v1h-1l-.5,1h0l-1,2h0l-.5,1,.391,1.173a6.35,6.35,0,0,0-.391.825l.25.75L99,27l-.778,1.168A2.316,2.316,0,0,0,98,28a5.553,5.553,0,0,0-1,.5h0q-1.127.75,0,1.5a3.938,3.938,0,0,0-1-.144h0q-1.408.031,0,2.144a3.533,3.533,0,0,0-1-.106h0q-.713.049-.827.606H93.5q1.709-.853.5-1.708h0a3.868,3.868,0,0,0-.5-.292L92,28h0l-.5.5L91,28l-.5.5L90,28l-2.5,2.5.5.5,1.251-1.25L87.5,31.5a3.522,3.522,0,0,1,.61.39l-.61.611.5.5.494-.165Q88.276,33.408,87,34l-1-1,.5-.5L86,32l.5-.5L86,31l-2,2h0l-1,1h0l-1.5,1.5.5.5,1-1h0l.5-.5.5.5.91-.909L83,36l-1.5.5.5.5a2.927,2.927,0,0,0-1-.149h0a.961.961,0,0,0-.96.855L80,37.6h0L79,35l-.5,3-5,2,5-2V30h-.026a.776.776,0,0,0,.124-.232L79,35l.5-6.5h-1l1-1v-7L80,25h0l.5-4.5H79q1.125-.749,0-1.5l-.143-.428L79.5,17.5v-.006L80,18l.421-4.21L82,16l-.5-1.5-1-2q1.8-.7,1-4h-.332l1.333-2v-2h-1q.7,2.6-2,1.5V9L79,8l-.936,1.56L78.5,6.5h-1l.463,3.228L77.5,10.5h1L78,11l-1.174-.392q-.121-.5-.327-1.108h-.835a9.692,9.692,0,0,0-.166-1A1.413,1.413,0,0,0,75,8l.5-.5L75,7,72.5,9.5l.5.5.5-.5,1,2L74,13a2.406,2.406,0,0,0,1.106-.748L75,13a2.9,2.9,0,0,0,1,.149h0a1.421,1.421,0,0,0,.2-.026,6.2,6.2,0,0,0,.637,1.576l-1.335.8.77.192L75.5,16l.5,2q-.5,0-1-1h0l-.5.5A1.414,1.414,0,0,0,74,17a4.148,4.148,0,0,0-.939-.145l.5-1.168L74,17l1-1.668h0l.5-.833q-.666-1-1.332-.222L74.5,13.5l-3-.5.928,2.476L71,15v1h0a1.409,1.409,0,0,0-.5.5l-.132.658Q70.2,17.08,70,17q-1.169.778.088,1.556L70,19l-1.5,4.5,1,1,.428,3.429L69,27l.5,1.5-.273.454L68.5,27.5l1-2-2.237-1.34a.744.744,0,0,0,.424-.471L69,25l-.5-1.5L68,21h0l-.325,1.627A5.979,5.979,0,0,0,67.5,22h-.016q.524-.615.016-2.494L67,19v-.632Q68.366,17.185,66,16l.5-1.5h-1L66,16v3a4.864,4.864,0,0,0,1-.632V19l-.5.5L65,19v1l1.5-.5L65,21h0l-1-1,.5-1.5-.333-.555L65.5,17.5,64,17v.666L63,16v-.729a2.863,2.863,0,0,0,.617-1.1A1.815,1.815,0,0,0,64,14.5h0a5.537,5.537,0,0,0,1,.5q.854-.571.413-1.139L66.5,13.5,65,13v.5a5.588,5.588,0,0,0-1-.5,2.41,2.41,0,0,0-.218.164c0-.077,0-.155,0-.235L65.5,12.5,64.163,9.382Q65.035,8.692,64,8h0a5.521,5.521,0,0,0-1,.5V8l.5-1.5a7.119,7.119,0,0,0-.3-.652Q64.311,4.926,62,4Zm1.932,5.544-.271,2.169Q63.6,11.37,63.5,11c-.171-.046-.338-.083-.5-.114V10a5.805,5.805,0,0,0,.932-.456ZM79.5,11.182V12.5l.165.231q-1.743-.378-1.164,1.77,2,1,0,2l.5.5a.582.582,0,0,0-.688.126l-.481-.96L78.5,15.5,78,15l-.386.154L78,14l-.5.3,2-2.8-.819.273a2.925,2.925,0,0,0,.819-.591ZM105,12.333l.178.3c-.054-.043-.113-.086-.178-.129Zm-1.555.337a.614.614,0,0,0,.168.5,4.116,4.116,0,0,0-.4.205Zm-84.886.13L19,15v.5q-.5-.75-1-.5v-.5q.939-.626.313-1.25a.762.762,0,0,0,.246-.45Zm53.885,2.72.5,1.339a.642.642,0,0,0-.6.291A4.609,4.609,0,0,0,72,16.5h0q-.418-.627-.836-.556Zm-11.757.168L61,16q-.133.053-.255.107a3.2,3.2,0,0,0-.059-.419Zm16.98.647.483.965a4.608,4.608,0,0,0-.65,1.2l.366,1.1a1,1,0,0,0-.417.549L77,17q-.5,1-1,1ZM21.5,17v3L21,18.5h0L20.5,17h1Zm37.5.146a3.945,3.945,0,0,0,.438.083q-.016.385.561.771a6.937,6.937,0,0,0,.686-.313L61,18q-1,2-2,0Zm13.316.463A4.268,4.268,0,0,0,73,19q.316-.126.568-.252Q74.138,21.046,71,20a5.512,5.512,0,0,0,1-.5h0q1.124-.749,0-1.5-.239.1-.441.191a.539.539,0,0,0-.025-.111Zm6.5,1.026L79,19q-.3.121-.543.241Zm-8.392.107q.089.045.185.089Q70.124,19.418,71,20a1.411,1.411,0,0,0-.5.5h0L70,19Zm36.074.091V23.5a2.5,2.5,0,0,0-.415.245L106.5,22.5h-1l1-2.5q-.228-.092-.431-.159Zm-81.92.067.345,1.718L24,22h0l-.438-2.189q.2.094.438.189.779-.518.48-1.037ZM77.5,20.5Zm26.875.38a4.44,4.44,0,0,0,.126.623l-.91,2.732A.954.954,0,0,0,103,24l.5-.5.3-2.1.2.6ZM28,21.5a5.545,5.545,0,0,0,1,.5v1H25.5l3-.5-.5-.7Zm45.5,0a6.451,6.451,0,0,1,1.244,4.071A6.412,6.412,0,0,0,73.489,21.5Zm-2.263.143a6.478,6.478,0,0,0,.726.341H71.9a.958.958,0,0,1-.668-.339ZM63,22l.5.5,1,2Zm42.5.5.451,1.354a1.565,1.565,0,0,0-.451.659ZM25.5,23Zm-2,0-.5.25V23Zm-2,0H23v.25l-.5.251-1-.334Zm81,.5-.314.942A4.625,4.625,0,0,0,101.5,25.5l-.158.788a.822.822,0,0,0-.585-.351Zm-80,0-1,.5v-.167Zm43,.5a3.393,3.393,0,0,0,1.5.231V25q-1.2.32-1,2h-.5Zm3.305,1.969A4.128,4.128,0,0,0,68.5,25a3.871,3.871,0,0,0-1.326-.044q1.84-.433,1.631,1.015Zm5.938-.375v.1c0-.032,0-.066,0-.094Zm0,.143v.071c0-.022,0-.045,0-.069Zm0,.14Zm29.216.007L104,26l-3.5,2.5-.214.643-.186-.31L101.2,27l-.2,1ZM62,27l-.474-.237A4.9,4.9,0,0,1,62.5,27q1,1-1,2-.057-.085-.11-.167Q63.373,27.917,62,27Zm1.3-.229a8.262,8.262,0,0,0,.2,1.73L65,28q3-.5,3.5,1.5L66,28q-1.5,1,1,2l-1.5-.5L65,28l-1.5.5a8.262,8.262,0,0,1-.2-1.729ZM38.5,27h1v2l-.3-.6.3-.9h-.75Zm-19,.5a2.133,2.133,0,0,0-1.247,2.042A2.133,2.133,0,0,1,19.5,27.5Zm55.069.555Zm-.022.146v.024Zm-.048.3c.009-.051.017-.1.025-.152L74.5,28.5ZM78.5,28.5Zm-56.941.271A4.209,4.209,0,0,0,20.5,29a1.233,1.233,0,0,1,1.059-.229Zm.887.212L22.5,29v.026c-.018-.015-.036-.026-.054-.043ZM99,29l1.2.4-.2.6ZM20.5,29q.5,1.5,0,2Q20,29.5,20.5,29Zm7.75,1,.25.5-1,1Zm40.314.062L68,31l-.5-.3Zm1.64.069.3,2.367a4.348,4.348,0,0,1-.3-2.367ZM20.5,34.5l-4-4,4.335,4.335a2.407,2.407,0,0,0-.148.237Q20.6,34.8,20.5,34.5Zm38.7-3.828Zm.324.029c.05.008.1.018.155.03-.058-.01-.11-.02-.16-.031Zm.221.045A5.423,5.423,0,0,1,60.5,31a5.422,5.422,0,0,0-.759-.252ZM44,31q3-.5,3.5,1.5L49,35l1-2,3.5,5.5L56,46l-2.5-7.5L50,33l-1,2-3-4-1.874.375Zm56,0,.125.5H99.9ZM20.5,31q-.5.5-2,0Zm82.2.058-.2.44a.674.674,0,0,1,.2-.439ZM27.5,41.5h0L29,44Zm75-10,.11.332a.6.6,0,0,1-.11-.332ZM97,32q1.877-.655,1.689.757L98.5,32l-2.248,1.123ZM24,32q2.5,1,1,2a8.458,8.458,0,0,0-1.57-.2l2.069-.3-3-1.5Zm34.438.248q.027.121.061.251-.035-.128-.062-.249Zm41.906.127.142.568a1.042,1.042,0,0,1-.143-.566ZM93.5,32.5,94,35l-.5,3.5Zm-4,0Zm-19,0,1,1a2.18,2.18,0,0,1-1-1Zm32.366.1L103,33q-1.968.656-2.477,0Zm-86.535.063-.139.973-.087-.068ZM99.1,33.5,99,34l-.126-.5ZM70,34l1.5-.5-3,2A1.925,1.925,0,0,1,70,34Zm24.3-.5A8.585,8.585,0,0,0,95,35l.287-.431a10.655,10.655,0,0,0-.155,1.932H94.5L95,38l.207-.623A3.254,3.254,0,0,0,97,40l-.9-.3L95,38.877h0l-.5-.376L94,35Zm6.2,1.5q1-2,2-1v4l-.466-.7.466-2.8L102,34l-1.3,1.3Zm-61-1Zm-2,0h1v1.5L38,34l-.295.413Zm20,3.5V34.785A5.519,5.519,0,0,0,58,36a5.239,5.239,0,0,0,.972-.464Zm39-2.5,3.6.9-.6.6h0ZM16,35ZM39.5,35.5Zm-17,0-1,4Zm-1,0-.573.573q-.045-.27-.121-.573Zm47,2a5,5,0,0,1,0-2l.889,2.667A2.285,2.285,0,0,0,68.5,37.5ZM87,36v1a6.269,6.269,0,0,0-.84.4Zm0,0,2.5,1H87Zm14.5.5Zm-17,1-2,3ZM46,38q3-.9,1.5,3.5V38l-2.1.842A2.521,2.521,0,0,0,46,38Zm-2,0a2.283,2.283,0,0,0,.669.891l-.87-.29ZM18,38a3.067,3.067,0,0,0,2.421.062,1.114,1.114,0,0,1-.82.266A5.324,5.324,0,0,1,18,38Zm83.5,0a.693.693,0,0,1-.336.149Zm-65.188.081Q37.126,39.013,35,40H33.94ZM69.5,38.5Zm16,0Zm8,0,2.168,2.167L94,40l1.5.5L94,39l-.5-.029Zm-25,1a2.51,2.51,0,0,0,.842-.6L68.5,41q1.414-.558,1.984.006a3.642,3.642,0,0,1-1.289.32Q68.007,41.328,68.5,39.5ZM45,39Zm54.5,0h1v2l-.237-.474L100.5,39.5h-.75Zm-80,0h1v2l-.3-.6.3-.9h-.75Zm82,1.5.177-1.063a3.043,3.043,0,0,1-1.836,2.914l.09-.39L100,42ZM93,41l1-1-1.591,2.5H91.5L90,45a2.95,2.95,0,0,1-1.5-1.5L90,45l2.5-4.5-.941.314Q91.61,40.408,91,40a7.038,7.038,0,0,0-.687.314L90,40a3.1,3.1,0,0,0-.919-.152Q92,39.177,93,41Zm3.779-.79,1.788.993q-.042.143-.076.291ZM21.5,41.5q1-.5,1-1Q22.5,41,21.5,41.5Zm65-1,.1.5-.268-.446Zm-27,0v2l-.858,1.43ZM18.5,40.5Zm65,4q-1.136-3.335.312-3.625L83.5,41v4.5L85,47l-.222-.667a3.269,3.269,0,0,0,.648.411L85,47l-1.5-.5L86,48q-2.4.1-1,1l2.5-1.5L86,48q1.5-2.5,3,1l.617-1.146L90,49l.3-.5-.8,2L90,49l-1.444,2.165a.977.977,0,0,0-.421-.57l.366-1.1h-1l1-1L88,48q-.329.165-.614.329A1.82,1.82,0,0,0,87,48q-2.218.886-1.289,1.774a1.357,1.357,0,0,0,0,1.454,2.146,2.146,0,0,0-.212.273l.375.624L84,54l-.5-.5-.25-.75L84,54l1.5-2.5-.375-.875L85.5,49.5h-.857l-2.142-5Zm-13-3.475a2.663,2.663,0,0,1,.277,2.214Zm27.987.477a5.247,5.247,0,0,0-.09.521l-1.355.339-.214-.533L97,42ZM86.5,42q-1.532-.51-2.022.022Q84.869,41.337,86.5,42ZM37,42h4l-4.332.482A2.433,2.433,0,0,0,37,42Zm61.372.319A9.185,9.185,0,0,0,99,46l.544-2.361q1,3.144-1.546,2.361v1H97v-.687q.948-.146.5-1.812L98,46l.5-1.5h-1ZM81.166,42.5ZM47,43a13.472,13.472,0,0,0-2.021-.413,4.733,4.733,0,0,1,2.193.462Zm-10.462-.385.161.484-1.2.4.332.167L33.5,43a4.666,4.666,0,0,1,.071.78A4.666,4.666,0,0,0,33.5,43a5.34,5.34,0,0,0,1.372.2,2.33,2.33,0,0,0,1.666-.583Zm63.231.053a2.489,2.489,0,0,1,1.034,1.817q-.116-.456-.3-.985h-.922Zm-11.457.238c.054.182.114.373.182.571a3.265,3.265,0,0,1-.183-.57Zm-20.222.025L68.5,43l.7,1.056a5.226,5.226,0,0,0-1.111-1.123ZM40,43a2.908,2.908,0,0,0,.5.749l-1-.5Zm41.5.5,1,3V51a1.338,1.338,0,0,0-.448-.465L82.5,46.5h-1Zm20,1,.665-1L101,47Zm-14.8-.869.272,2.182-.443.266a1.1,1.1,0,0,0-.4-.485L86.5,44.5h-1l.29.87A6.484,6.484,0,0,0,85,45l.5-.5-.313-.314a2.9,2.9,0,0,0,.565.063.859.859,0,0,0,.948-.616Zm10.205.1L97,44a4.715,4.715,0,0,0-.512-.11Zm-58.4.02A.721.721,0,0,1,38,44ZM77.5,44h1l-.376.376-.625-.209Zm-17,0,1.539.77L62,45l-1.5-.5ZM57,44l1.332.446L58,45l-1.286-.428ZM42.5,44l4,1-.375.375-3.75-1.25Zm44.75.25.25,1.25-.468.281Zm-50,.126.25.125-.832.166Zm57.964,0a1.735,1.735,0,0,0,.036.87L95,45a6.329,6.329,0,0,0-.826.391l-.854-.284ZM48.5,44.5ZM23,45l1.5-.5L24,45l-1.5.5A1.416,1.416,0,0,1,23,45Zm46.5-.5.454.681-.883,1.1L67.453,47.36ZM78,46l2.5-1.5A1.926,1.926,0,0,1,79,46l-3.5,2.5ZM65,45q1.974-.658,2.481.006a3.457,3.457,0,0,1-2.471.026ZM41.5,45l.251-.251-.126.376Zm36.249-.25L77.5,45v-.167ZM48.5,46.5a5.919,5.919,0,0,0,.081-1.51l.585,3.511L49,48ZM16.5,45,21,47h2l1.5,1.5,1,2-1-1L23,47H21Zm50.991.022A1.718,1.718,0,0,1,67.5,46.5l-.358,1.072L66.5,48l.667.667L66.5,49.5V50l-1.347.674H65.13a.9.9,0,0,0-.773.184l.137.137a1.179,1.179,0,0,0-.136.683q-.215-.571,0-.82l-.022-.021A2.425,2.425,0,0,0,65,50l1.5-.5-4-2L66,49ZM22.5,45.5a1.981,1.981,0,0,0,.676,1.108Q22.223,46.055,22.5,45.5Zm69.213.225a.626.626,0,0,0-.214.771q-.427-.64-.856-.548l.107-.2L91,46ZM45,46l.75-.25L45.5,46v1l-.125.125Zm-8.5,2q-1.1-2.7,1.5-2a2.576,2.576,0,0,0,.144.241A8.667,8.667,0,0,0,36.5,46q.871,2.137-.576,2.144Zm6.068-1.931a2.356,2.356,0,0,1,.866.866Zm50.885.06q-.106.436.547.872l2.5-.5-.248-.249a1.979,1.979,0,0,0,.75.063V47l-1,.5h0l-1.768.884-1-.43L95.5,47.5,93,47v.857l-1.842-.789L91.5,46.5a1.414,1.414,0,0,0,.5.5ZM29.5,49.5,32,47l1.427-.713ZM78,47h3.5v-.5l.441,3.962A5.817,5.817,0,0,0,81,50a1.408,1.408,0,0,0-.5.5,2.113,2.113,0,0,1,1-1q.481-1.6-.552-1.921L81.5,47.5,78,47q-1.5.666-1.488,1.361Q76.5,47.667,78,47Zm-50.5-.5a7.5,7.5,0,0,0-.227,1.138l-.167-1.006Zm-10.227.048L18.5,47.5q-.356,1.121.04,1.489L18.5,49ZM62.5,47.5l2.4-.8.1.3Zm-32.414-.644Zm.391.032c.067.01.138.022.21.037-.074-.013-.144-.025-.211-.035ZM14.7,46.925l.2,1.439-.4.136a9,9,0,0,0,.2-1.575Zm43.8.576q.781-1.17,1.559.091L60,48ZM24,47Zm32.5,0v1.165L56,47Zm-1,0H56l-.2.6Zm-14,0,.5,2a6.636,6.636,0,0,0-1-1.22v-.665Q41.241,47.071,41.5,47Zm-.5.115v.665a6.014,6.014,0,0,0-.708-.579A4.9,4.9,0,0,0,41,47.117Zm50,.216V48l2,1-2.42-.969ZM60.5,48a3.449,3.449,0,0,1,1.377-.325A6.214,6.214,0,0,0,60.5,48Zm-15.749-.25L44.5,48l-.125-.125ZM78,48l.5,1.5Zm-34.756.061A4.145,4.145,0,0,1,42,49q.622-1.244,1.245-.939Zm17.2.3.057.14,2,3a2.818,2.818,0,0,1-2.059-3.141ZM75.5,48.5q1,.5,1,1Zm-46.167.042.024.075c-.009-.025-.017-.05-.025-.075Zm.025.076.025.073ZM38.475,49H36Q37.963,48.347,38.475,49ZM62.5,49a3.413,3.413,0,0,0,.142-.32,3.063,3.063,0,0,1-.049.413Zm-17.52-.205a1.12,1.12,0,0,0-.159.008C44.877,48.8,44.93,48.795,44.98,48.795ZM45.5,50.5q.576-1.651-.451-1.7Q46.074,48.848,45.5,50.5ZM29.473,48.935,29.5,49Zm-1.979.035L27.52,49H27.5ZM99,49l1.2.4-.2.6-1.071-.356ZM53,49l.125.5H52.75ZM41.5,53,41,49l1,4,.172-.69q0,1.18,1.828.69l.5,1.5Zm-9-4Zm-10,0v2l-.4-.4.4-1.6-1.6.4-.4-.4Zm15.993.023A1.72,1.72,0,0,1,38.5,50.5l-.116.349a2.4,2.4,0,0,1,.108-1.824ZM68.5,49.5l-1,1.5-.251-.251Zm19,0,.29.87A6.482,6.482,0,0,0,87,50Zm-9,0-1.932,3.381a1.081,1.081,0,0,0,.065-.27Zm-2,2,1-2-.857,3A3.361,3.361,0,0,0,76.5,51.5Zm-19-2,1.409,2.537q-.7.223-1.409-1.538l-.428-1Zm19,0a.64.64,0,0,1-.159.4Zm-27.133.2.133.8-2,2ZM96,50q-1,2-2,0l-2,2-2.5-1.5L92,52l2-2q.5,1,1,1T96,50Zm-66.944.794H28.99Zm.048,0a2.393,2.393,0,0,1,.554.1A2.392,2.392,0,0,0,29.1,50.8Zm.752.156h0Zm.008,0L30,51ZM82.5,52.5q-1.755-.751-2-1.5A2.83,2.83,0,0,0,82,52a1.414,1.414,0,0,0,.5-.5h0l.45.75L82.5,54.5a2.106,2.106,0,0,1,1.246,2.226A12.428,12.428,0,0,0,83.5,55.5H81.9ZM56.5,51Zm-14,0L46,52Zm-31,0Zm3.973.066c-.024.06-.046.118-.067.175.021-.055.043-.113.067-.173Zm83.287.1A5.216,5.216,0,0,1,98.5,53.5Zm-83.362.1q-.668,1.848.644,1.88-1.312-.027-.642-1.875Zm47.1.236v6l-1,3,.5.9h0L64,65l2.5-.5a2.592,2.592,0,0,1-.924-.924L67,65l1.5-.5.5.5h0l-.5.5.5.5-1.5-.5v.838A2.256,2.256,0,0,0,67,66h0a3.709,3.709,0,0,0-1.666-.332L66.5,65.5,63,65l-.5-1.5L62,62l-.5,1.5a12.988,12.988,0,0,0-.378-2.372L61.5,60.5q-.386-.578-.772-.562a7.588,7.588,0,0,0-1.259-2.1l.2-.065L61,60l-.5-1.5-.6-.8.6-.2L61,59l.5-4,.5,3Zm-43.847.072.257,1.791-.41.137a10.1,10.1,0,0,0,.154-1.923ZM97.658,52q.412,1.472-.157,2a4.73,4.73,0,0,0,.157-2ZM88,52ZM60.5,52v2l-.3-.6.3-.9-.2-.5ZM55,52Zm-1.5,0,.441,1.765L53.5,54.5q.415-1.54-.364-1.781L53.5,52.5l-.681-.227Zm10.93.209q.029.138.07.29l-1,2.5Zm-35.967.165.021.072ZM70.5,52.5l.645-.064L71.5,53.5l.3.9-.3.1Zm15.562-.063.731,1.218q-.725.608.03,1.216L86.5,55v1.5a4.507,4.507,0,0,0-.667-1.222l.667.223ZM65.5,52.5h.113a5.61,5.61,0,0,1,.132,1.368A6.72,6.72,0,0,0,65.5,52.5ZM47.5,52.5Zm-19,0q-.443,1.773-2.848,1.582Zm-6,0,.589.295A.716.716,0,0,0,22.5,53Zm64.934.2q.265.151.566.3a6.41,6.41,0,0,0-.79.371ZM94,53a2.119,2.119,0,0,0,1.2,1.06L95,54l-1.667-.833ZM50.5,53a.532.532,0,0,0,0,.5h-1L49,57l-1-1,1.5-3ZM17,53l4.5,5.5v2h-.857l.857-2L17,53l-.131.034Zm-.209.052c-.063.015-.125.027-.184.039.059-.01.121-.023.184-.037Zm59.671.014L74.5,56.5q.814,1.223,1.629-.209L77,56q.167-.045.319-.076-.152.031-.319.076l-3,2.142V57l-.716.43L72,57l-1,.715v-.33l1.685-.907A6.4,6.4,0,0,1,70,56l-2.5-1,6,1-.346-1.385L73.5,54.5a1.855,1.855,0,0,1-.021,1.551L74.5,55.5,74,57l2.261-3.769a.627.627,0,0,0,.2-.163Zm-59.994.047a2.6,2.6,0,0,1-.381.031,2.6,2.6,0,0,0,.381-.029Zm75.9.295A3.28,3.28,0,0,0,91.5,54.5h-1V54H90ZM20.5,53.5v3l-.409-2.863Zm78,0A2.588,2.588,0,0,1,97,55l-2,1-2.5-1L95,56Zm-48,0a1.419,1.419,0,0,0,.5.5l-.4.6A6.728,6.728,0,0,0,50.5,53.5Zm1.244.05L53.5,57.5,51,54Zm37.527.084L90,54H89l-1,.4ZM33.5,54H34l-.333.333Zm64,0q-.543.5-1.972.148a3.1,3.1,0,0,0,.6.056A5.323,5.323,0,0,0,97.5,54Zm-7,.5q.652,1.961,0,2.475Zm-37,0,2.513,1.6H55.9a2.144,2.144,0,0,1-2.4-1.6ZM44.5,54.5ZM24.5,59l-2-4.5L25,59l.5-1.5V58l2.1-.841A2.517,2.517,0,0,0,27,58l-1.5.5.273.819Zm22.045-4.09L48,56l-.5.5ZM85,55ZM67.5,55a4.024,4.024,0,0,1,.083.815A4.024,4.024,0,0,0,67.5,55ZM63.5,55ZM37,55l.715.429-1.142-.286ZM13.5,55l-2.005.5.4.6-.4.4V55Zm21,.3V56l-.206-.412Zm43.414.556a2.692,2.692,0,0,0-.387.031,2.623,2.623,0,0,1,.391-.03Zm.023,0q1.408.017.591,2.078.821-2.061-.587-2.077Zm21.148.1A4.592,4.592,0,0,1,95.5,56a7.77,7.77,0,0,0,1.958.286,3.769,3.769,0,0,0,1.625-.326ZM46,56l1.5.5L47,57l-1.2-.4Zm-2.5,0h.219q-.053.108-.1.228ZM26,56l1.441.479L27,57l-1.2-.4Zm54.5.475V56.5l-.008.006ZM12.165,56.5l1.334,2v2Zm74.335,0V58l.395-.1-1.4.6,3,1L86,59l.5,1.5.3.9-.3.1L86,60l-.5,1.5L85,61l-.5.5a6.62,6.62,0,0,0-.356-.762l.569-1.024L85,60l-.167-.5L86,57.4h0ZM56,57l.876,3.5H56.5Zm0,0a5.87,5.87,0,0,1-3.448,2.587Zm-6.5,2.5L52,57l1.5.5L52,57ZM28,57Zm62.447.014a1.038,1.038,0,0,1-.572.143Zm-47.781.057Q42.97,58.6,41,58a4.494,4.494,0,0,0-1.222.666L40,58l-.265-.147,1.515-.3L42,58Zm1.835.1V58l-.227-.454Zm26.5.218v.33L68.5,59.5l.312-.939ZM79.5,60.5l2-3ZM72,58l.748-.249L71.5,58.5A2.948,2.948,0,0,0,73.008,60H73Q70.5,59,72,58Zm-61.373-.122L12.771,60.5H12.5Zm34.1.178L44.5,58.5l.208.417a2.544,2.544,0,0,0-1.954.833L42,60ZM65.5,58.5v4.941Q64.653,61.818,65.5,58.5Zm18.25.25.416.417-.127,1.4q-.413-.651-.825-.622a2.631,2.631,0,0,0,.536-1.189ZM66.5,59ZM28,59l.5,3L31,61l3,1,1-1,.5.5L34,62l-3-1-2.5,1ZM15.5,59h1v2l-.3-.6.3-.9h-.75Zm24,.5Zm31,.5-2-.5,2,.5a3.4,3.4,0,0,1,0,2.548A6.236,6.236,0,0,0,70.5,60Zm-21-.5,1.829.365A11.962,11.962,0,0,1,50,60Zm41.79.07q.091.45.21.929h0A1.41,1.41,0,0,0,91,60l-.625-.125ZM44.5,61.5l.666-1.668.333.667-.8,1.6ZM25.944,59.834,26,60l-2,1ZM89,60l.5.5L88,61ZM76.5,60v2Q76,61.5,76.5,60Zm13,.5.466,1.4a6.3,6.3,0,0,0-.6.9l-.236-1.18A3.476,3.476,0,0,0,89.5,60.5ZM82.5,60.5Zm-61,0V61L25,62l-3.5-1a3.7,3.7,0,0,0-.291,1.133A4.782,4.782,0,0,1,21.5,60.5ZM42,61Zm17.5,0h.22q-.053.108-.1.229Zm-21,0L38,63l-.715-1.428L37.5,61.5,38,63ZM26,61Zm.333.111.868.29L27,62a2.29,2.29,0,0,0-.668-.888ZM85.5,61.5,85,63a6.91,6.91,0,0,0,2.046-.007,5.848,5.848,0,0,1-3.133.1Zm-1,0-2,2,.5.5.556-.557Q83.763,65.988,81,67l-1.5.751A2.915,2.915,0,0,0,80,67l3.5-2.5L82,64l-.682.455L79.5,64l3-.5-2-.5,3-.5-.333-.666ZM46,62l3.334-.445L45,63l-.2-.6Zm32.5-.021V62l-.03.01ZM90.5,62q.171.07.328.125a1.176,1.176,0,0,0-.328.373ZM17,62l.357.214L17.1,62.3Zm59.5,0a4.581,4.581,0,0,0,.805.249H77.25A1.02,1.02,0,0,1,76.5,62Zm-16,.167V63l-.227-.454Zm31.5.146V62.5c-.088-.059-.186-.117-.294-.175h.1A1.288,1.288,0,0,0,92,62.314Zm-33.3.033.244,2.189q-.574.4-.5.8l-.355-1.064a3.036,3.036,0,0,0,.611-1.925ZM19.5,64.5l-.938-1.562.938.563L22,67l1-1,.5.5L22,67ZM24,63l.051.118Zm0,0a2.911,2.911,0,0,1-2.318.1,1.712,1.712,0,0,0,.774.15A6.126,6.126,0,0,0,24,63Zm.14.314q.053.113.1.218Q24.192,63.427,24.14,63.314Zm.106.22q.677,1.357,1.354,1.493Q24.923,64.891,24.246,63.534Zm-7.371.092L17,64l-.749-.25Zm11.868.128Zm.053,0a2.2,2.2,0,0,1,2.185,1.207A2.2,2.2,0,0,0,28.8,63.755Zm-.549.024q-.117.01-.24.027c.082-.01.162-.019.24-.026Zm41.684.154L70,64l-.449.448a4.51,4.51,0,0,0,.381-.515Zm-42.677.008-.053.012ZM68,64l.5.5-2-.5Zm-7,0,2,2-2.572-1.714Zm-5,0,1,1q-.5,0-1-1a2.841,2.841,0,0,1-2.345.083,2.018,2.018,0,0,0,.832.15A6.13,6.13,0,0,0,56,64Zm-29.03.052-.013.021Zm30.475.75A.673.673,0,0,1,57,65a2.786,2.786,0,0,0,.444-.2ZM74,65l.5,1.5Zm-2.5,0h1l-.374.375-.625-.208Zm-21,0a5.013,5.013,0,0,0-.28.882L50,65ZM44,66l1-1q-1.2,2.3-6,1Zm16-1a.643.643,0,0,1,.4.16ZM30,65l-.4.16A.643.643,0,0,1,30,65Zm0,0a.72.72,0,0,1,.5.249Zm30,0-.329.109A.6.6,0,0,1,60,65Zm-34.179.038h-.068ZM58.5,65.5Zm25,.5,1.313-.438-1.129.806Zm-21,0-.517-.207q1.111,0,.517,1.705L65,70Q62,68.9,62.5,66Zm-34.7-.119L27.5,66q.5,1.5,0,2-.78-1.911.3-2.118Zm25.452.076a.818.818,0,0,0-.085,0,.819.819,0,0,1,.082,0Zm.109.008q.678.1,1.356,1.423-.681-1.322-1.358-1.421ZM32.8,66.4l2.117.47q-.445.048-.921.127Zm52.7.1-1,1.5-.167-.334Zm-60,0a3.585,3.585,0,0,0-.144.924l-.2-.809Zm36,.5H57.054A10.123,10.123,0,0,1,61.5,67Zm-9.384-.186ZM78,67a2.287,2.287,0,0,0,.668.891l-1.811-.6ZM67,67ZM41,67l.5.5L40,68Zm15.937.032L55,68a5.577,5.577,0,0,1,1.936-.967Zm-2.168.464q.06.122.121.254-.061-.131-.122-.25ZM43.5,67.5a7.564,7.564,0,0,0-.257.956l-.137-.823ZM84,69l1.33-1.33A4.534,4.534,0,0,0,86,69a6.487,6.487,0,0,0-.789.371l.29-.871h-1l.365,1.1a1.238,1.238,0,0,0-.361.4q.24-.5-.5-.992a5.543,5.543,0,0,0-1,.5v-.1ZM54.893,67.76q.053.117.107.242Q54.947,67.877,54.893,67.76ZM79,68ZM74,68ZM59.5,68h1l-.375.375-.87-.29Zm-32,0a1.019,1.019,0,0,1-.747.249A5.444,5.444,0,0,0,27.5,68Zm59.187.684.033.034a.631.631,0,0,0-.223.774A1.426,1.426,0,0,0,86,69a6.926,6.926,0,0,0,.686-.313ZM75.5,69v1l-.125.125-.336-1.01ZM49,69h6l1.177.882L56,70l-1-1Zm25.916.146Q73.984,70.669,71.5,70Zm-15.667.1L58.5,70q-.143-.072-.26-.144ZM46.5,69.5a3.581,3.581,0,0,0-.144.926l-.2-.81Zm-3.006.471.028.021L43.5,70Zm5.246.07A1.158,1.158,0,0,1,48.5,71ZM48.5,71a1.017,1.017,0,0,1-.744.249A5.389,5.389,0,0,0,48.5,71Zm25.75.25L73.5,72l-.187-.187ZM36,73v.454L31.014,73Q32.608,72.154,36,73ZM58,4ZM56,4ZM53,4ZM50,4ZM37,4ZM34,4ZM31,4ZM25,4ZM23,4ZM22,4ZM21,4ZM20,4ZM17,4ZM9,4Zm67.5-.5L77,7l.5-3.5Zm-22,0L55,5l.5-1.5Zm20,1,.4.936A5.95,5.95,0,0,0,74,5l-1.5.5,1.668,1H73.5L73,9l1.412-2.353L75,7a1.727,1.727,0,0,0,.416-.366L76,8h0l.5-2.5a5.543,5.543,0,0,0-.5-1h0q-.375-.562-.75-.562T74.5,4.5ZM105,5Zm-1,0Zm-1,0Zm-3,0ZM98,5ZM97,5ZM95,5ZM90,5ZM89,5ZM80,5ZM79,5ZM78,5ZM73,5ZM72,5ZM71,5ZM65,5ZM30,5ZM27,5ZM21,5ZM18,5ZM11,5ZM8,5ZM3,5ZM2,5ZM107,6Zm-2,0Zm-1,0ZM95,6ZM93,6ZM91,6ZM90,6ZM89,6ZM86,6ZM83,6ZM80,6l1.5-.5L80,5ZM79,6ZM78,6ZM54.5,5.5l.5.833h0L56,8h0l1.5-3ZM51,6ZM41,6ZM30,6ZM28,6ZM21,6ZM8,6ZM6,6ZM5,6ZM2,6ZM0,6Zm60.5-.5L61,8l.5-2.5ZM111,7Zm-4,0Zm-2,0Zm-1,0Zm-2,0ZM96,7ZM94,7ZM90,7ZM89,7ZM79,7ZM73,7ZM72,7ZM70,7ZM64,7ZM44,7ZM30,7ZM29,7ZM20,7ZM6,7ZM2,7ZM1,7Zm19.5-.5L21,9l.5-2.5ZM110,8Zm-5,0Zm-1,0Zm-1,0Zm-1,0ZM96,8ZM93,8ZM92,8ZM90,8ZM89,8ZM88,8ZM79,8ZM77,8ZM73,8ZM69,8ZM67,8ZM55,8ZM53,8ZM52,8ZM47,8ZM44,8ZM32,8ZM29,8ZM27,8ZM25,8ZM24,8Zm-6.5-.5.5.7h0L20,11l.5-4ZM16,8ZM15,8ZM11,8ZM7,8Zm14.5-.5.365,1.1q-.818.626-.069,1.252a7.058,7.058,0,0,0-.3.651L22,12v.667L21,11h0l-.5,1.5.5.836h0L22,15l.5-1.5-.5-.833V12l.727-1.211A2.168,2.168,0,0,0,23,11q.323-.13.58-.259L24,12l.5-1.5H24q1.123-.75,0-1.5h0a7.077,7.077,0,0,0-.651.295l-.038-.044Q23.938,8.626,23,8a6.477,6.477,0,0,0-.792.372L22.5,7.5Zm-5,0L17,9l.5-1.5Zm-3,0L14,9,13,8l-.5.5,2,3L15,16l.5-5.5L14,9l.5-1.5ZM96,9ZM87,9ZM72,9ZM67,9ZM66,9ZM55,9ZM51,9ZM48,9ZM44,9ZM32,9ZM29,9ZM28,9ZM27,9ZM26,9ZM25,9ZM16,9ZM15,9ZM10,9ZM9,9ZM0,9Zm76.5-.5L77,10l.5-1.5ZM106,10Zm-4,0ZM92,10ZM68,10Zm-1,0Zm-1,0Zm-9,0ZM43,10ZM32,10Zm-3,0Zm-1,0Zm-3,0Zm-4,0Zm-4,0Zm-2,0Zm-4,0ZM9,10ZM7,10ZM6,10ZM2,10Zm53.5-.5L56,11v.5q-.5-.749-1-.5l.5-1.5h-1L55,11a1.415,1.415,0,0,0-.5.5L56,15h0l.5-2.5a5.56,5.56,0,0,0-.5-1V11l.5-1.5Zm-38,0L18,12l.5-2.5ZM106,11ZM92,11Zm-1,0Zm-2,0ZM73,11Zm-1,0ZM57,11Zm-6,0Zm-1,0ZM32,11Zm-3,0Zm-1,0Zm-3,0ZM12,11ZM9,11ZM6,11ZM4,11ZM2,11Zm100.5-.5L103,12l.5-1.5Zm-84,0L19,12l.5-1.5Zm-2,0L17,12l.5-1.5Zm-4,0-1,3.5q2.1.827,2.337-.814L14,14l.5-2.5h-.767q-.088-.462-.234-1ZM110,12Zm-6,0ZM92,12Zm-3,0Zm-5,0ZM74,12Zm-1,0Zm-1,0Zm-4,0Zm-2,0ZM33,12Zm-5,0Zm-3,0Zm-2,0ZM12,12ZM8,12Zm11.5-.5L20,14l.5-2.5ZM110,13ZM96,13Zm-6,0Zm-2,0Zm-3,0ZM73,13Zm-1,0Zm-4,0Zm-6,0Zm-1,0Zm-7,0Zm-7,0Zm-3,0ZM34,13ZM24,13Zm-1,0ZM10,13ZM8,13ZM4,13Zm64.5-.5L69,15l.5-2.5ZM109,14ZM96,14Zm-8,0Zm-6,0Zm-7,0ZM61,14Zm-6,0Zm-8,0Zm-3,0ZM34,14Zm-8,0Zm-1,0Zm-1,0ZM8,14ZM4,14Zm-2-.5H2Q.873,14.25,2,15q.324-.13.58-.26L3,16l.5-1.5H3q1.123-.75,0-1.5a5.588,5.588,0,0,0-1,.5Zm54.5,0L57,15l.5-1.5Zm-34,0L23,15l.5-1.5ZM4.5,14,5,16l1-.333H6l.5-.166L7,18l1-1.667H8l.5-.832a3.267,3.267,0,0,0-.5-.819H8a2.6,2.6,0,0,0-2.086-.888A5.521,5.521,0,0,0,4.5,14ZM101,15ZM89,15Zm-2,0ZM76,15Zm-5,0ZM55,15Zm-5,0Zm-3,0Zm-1,0ZM27,15Zm-1,0Zm-1,0Zm-1,0ZM11,15Zm2.5-.5L14,16v1l1.287-.43L15,18a2.756,2.756,0,0,0,1,.151v.35a5.537,5.537,0,0,0-.5,1l.5.5a1.413,1.413,0,0,0-.5.5V23q.266.108.5.181V24l1.5-.5-.545-.182q1-.113.545-1.818a6.11,6.11,0,0,0-.424-.88L17.5,18.5q-.749-1.124-1.5,0v-.35q1.348-.11.5-2.65h-1l-.187.937L14,16l.5-1.5Zm-10,0,.364,1.813q-.681-.835-1.363.187V18l2-.5a6.081,6.081,0,0,0-.424-.88L4.5,14.5ZM104,16ZM83,16Zm-4,0ZM64,16l1.5-.5L64,15ZM53,16Zm-7,0Zm-6,0ZM26,16Zm-4,0Zm-5,0Zm-4,0Zm-1,0Zm-2,0ZM9,16ZM0,16Zm104.5-.5L105,17h0l.5-1.5ZM108,17Zm-8,0ZM90,17Zm-3,0ZM70,17Zm-5,0Zm-1,0ZM50,17Zm-4,0Zm-6,0ZM28,17ZM17,17Zm-5,0Zm-2,0ZM9,17a1.413,1.413,0,0,0-.5.5l.219.658A.6.6,0,0,0,8,18H8a1.42,1.42,0,0,0-.5.5,3.084,3.084,0,0,1,.707.458Q7.6,19.208,7,18l-1.5.5,1.5.9H7L8,20q.207-.083.387-.166A2.291,2.291,0,0,1,7.5,20.5L8,21q-.5-.251-1,.5H7a5.544,5.544,0,0,0-.5,1L7,25v.119a3.854,3.854,0,0,0-.122,3.58,6.446,6.446,0,0,0-.378.8l.437,3.938L6.5,36.5,7,37a1.41,1.41,0,0,0-.5.5L7,41l.6-1L8,42l.5-2.5H7.9l.6-1a5.763,5.763,0,0,0-.473-.958L8.5,29.5h-1l1-1A1.42,1.42,0,0,0,8,28l.5-1.5H7.833l.667-2h-1a3.631,3.631,0,0,0-.5.618V25l1.5-3.5L9,22l.375-1.875L10,22l.5-3.5Q9.749,16.627,9,17ZM7.666,27,8,28a.6.6,0,0,0-.72.157ZM4.5,16.5,6,18l.5-2ZM0,17Zm108,1Zm-8,0Zm-6,0Zm-4,0Zm-7,0ZM46,18Zm-2,0ZM28,18Zm-2,0Zm-9,0Zm-6,0ZM5,18Zm21.5-.5L27,19l.5-1.5Zm-13,0L14,19h0l.5-1.5ZM111,19Zm-3,0Zm-6,0Zm-33-.5a5.555,5.555,0,0,0-1-.5q-1.126.749,0,1.5h0a5.55,5.55,0,0,0,1,.5q1.127-.749,0-1.5ZM65,19Zm-5,0ZM26,19ZM11,19ZM5,19ZM2,19l1.5-.5L2,18ZM0,19Zm79.5-.5L80,20l.5-1.5Zm-65,0L15,20l.5-1.5Zm-11,0L4,20H4l.5-1.5ZM111,20Zm-2,0Zm-1,0Zm-6,0Zm-1,0ZM73,20ZM55,20Zm-2,0Zm-3,0Zm-1,0Zm-3,0Zm-8,0Zm-5,0Zm-6,0ZM13,20Zm-1,0Zm-1,0ZM6,20ZM5,20ZM3,20Zm106,1Zm-7,0Zm-1,0ZM84,21ZM69,21Zm-7,0Zm-3,0Zm-4,0Zm-3,0Zm-1,0Zm-1,0Zm-1,0ZM38,21Zm-4,0ZM24,21ZM14,21Zm-1,0Zm-1,0Zm-1,0ZM7,21ZM6,21ZM5,21ZM1,21Zm13.5-.5.219.659q-.61-.573-1.22.342L15,24l.5-1.5a6.329,6.329,0,0,0-.391-.826L15.5,20.5ZM109,22Zm-8,0ZM84,22ZM62,22Zm-3,0Zm-5,0Zm-3,0Zm-8,0Zm-5,0Zm-6,0Zm-2,0ZM13,22Zm-2,0ZM5,22q-1.5,1,1,2,1.124-.749,0-1.5H6A5.545,5.545,0,0,0,5,22l1.5-.5L5,21ZM4,22ZM2,22Zm106,1Zm-8,0Zm-5,0Zm-7,0Zm-2,0Zm-2,0Zm-1,0ZM58,23l1.5-.5L58,22Zm-7,0Zm-3,0Zm-4,0Zm-1,0Zm-1,0Zm-4,0Zm-1,0Zm-1,0Zm-6,0ZM13,23Zm-3,0ZM9,23ZM4,23ZM2,23Zm98,1Zm-2,0Zm-3,0Zm-4,0Zm-4,0ZM52,24Zm-3,0Zm-1,0Zm-2,0,1.5-.5L46,23Zm-1,0Zm-5,0,2.5-.5L40,23Zm-7,0Zm-2,0ZM13,24Zm-3,0ZM9,24ZM8,24ZM2,24ZM1,24Zm56.5-.5L58,25v.5q-.749-1.125-1.5,0L57,27h0l1,3,.5-3.5a5.536,5.536,0,0,0-.5-1V25l.5-1.5Zm-44,0L14,28l.5-4.5ZM99,25Zm-1,0Zm-1,0Zm-1,0Zm-1,0Zm-1,0Zm-7,0Zm-6,0ZM60,25Zm-3,0Zm-1,0Zm-5,0Zm-1,0ZM33,25Zm-1,0ZM15,25h0l2.5-.5L15,24Zm-2,0Zm-1,0Zm-2,0ZM9,25ZM6,25ZM5,25ZM2,25Zm63.5-.5L66,26l.5-1.5ZM107,26Zm-8,0Zm-1,0Zm-5,0Zm-4,0Zm-2,0ZM60,26Zm-8,0Zm-1,0ZM13,26Zm-1,0Zm-2,0ZM6,26ZM4,26ZM1,26Zm110,1ZM99,27Zm-1,0Zm-3,0Zm-2,0Zm-1,0Zm-3,0Zm-6,0Zm-2,0Zm-1,0ZM55,27Zm-1,0Zm-1,0ZM6,27ZM1,27Zm11.5-.5L13,28h0l.5-1.5ZM109,28Zm-1,0Zm-1,0ZM97,28Zm-4,0Zm-2,0Zm-2,0Zm-4,0Zm-4,0Zm-1,0ZM11,28ZM9,28ZM6,28ZM0,28Zm107,1ZM93,29Zm-6,0Zm-3,0Zm-3,0Zm-1,0ZM57,29ZM16,29Zm-2,0Zm-2,0Zm-2,0ZM6,29Zm99.5-.5L106,30h0l.5-1.5ZM108,30ZM94,30Zm-9,0Zm-4,0ZM11,30Zm-1,0ZM6,30ZM1,30ZM0,30Zm13.5-.5L14,33l.5-3.5Zm-1,0L13,32h0l.5-2.5ZM95,31Zm-8,0Zm-6,0ZM58,31ZM12,31Zm-1,0Zm-1,0ZM5,31ZM2,31Zm105,1Zm-1,0ZM87,32Zm-4,0Zm-3,0ZM11,32Zm-1,0Zm98,1ZM11,33ZM3,33ZM2,33Zm84.5-.5L87,34l.5-1.5ZM109,34Zm-1,0Zm-3,0ZM12,34Zm-2,0ZM6,34ZM3,34Zm106,1Zm-2,0ZM80,35ZM11,35ZM6,35ZM5,35ZM4,35ZM3,35Zm104,1ZM95,36ZM81,36Zm-1,0ZM14,36Zm-1,0Zm-1,0Zm-1,0Zm-1,0ZM9,36ZM6,36ZM5,36ZM2,36Zm109,1Zm-2,0Zm-2,0Zm-2,0ZM80,37ZM13,37Zm-2,0Zm-1,0ZM5,37ZM4,37ZM2,37Zm108,1Zm-3,0Zm-3,0ZM5,38ZM4,38Zm105,1ZM9,39ZM4,39ZM3,39Zm100.5-.5L104,41h0l.5-2.5ZM111,40Zm-2,0Zm-1,0Zm-2,0ZM12,40ZM9,40ZM5,40ZM2,40Zm109,1Zm-5,0ZM12,41Zm-1,0Zm-1,0ZM3,41Zm103,1Zm-1,0ZM11,42Zm-1,0ZM9,42ZM2,42ZM1,42Zm5.5-.5L7,45H7l.5-3.5ZM111,43Zm-5,0Zm-2,0ZM11,43Zm-1,0ZM9,43ZM2,43Zm5.5-.5L8,45l.5-2.5ZM108,44Zm-4,0ZM11,44Zm-1,0ZM1,44Zm7.5-.5L9,45l.5-1.5ZM104,45ZM11,45Zm-1,0ZM6,45ZM5,45ZM2,45Zm102,1ZM11,46Zm-1,0ZM9,46ZM8,50l.407-.679a3.107,3.107,0,0,0,.371,1.846,1.5,1.5,0,0,0-.132.127A6.963,6.963,0,0,0,8,51H8q-1.127.749,0,1.5H8A5.581,5.581,0,0,0,9,53H9a1.941,1.941,0,0,0,.353-.293q.28.146.646.293,1.081-.721.088-1.44L10.5,49.5a5.544,5.544,0,0,0-.5-1h0q-.381-.571-.762-.562L9.5,47.5,9,46.668H9L8,45ZM6,46Zm99,1Zm-2,0ZM11,47Zm-1,0ZM7,47ZM6,47ZM1,47ZM0,47Zm109,1Zm-3,0Zm-3,0ZM10,48ZM6,48ZM1,48Zm5.5-.5L7,49H7l.5-1.5ZM102,49Zm7,1Zm-7,0ZM89,50ZM5,50Zm106,1Zm-2,0Zm-2,0Zm-5,0ZM7,51ZM6,51ZM0,51Zm111,1Zm-3,0Zm-7,0ZM7,52ZM2,52ZM1,52Zm110,1Zm-2,0Zm-1,0Zm-1,0Zm-6,0ZM7,53ZM2,53Zm104,1Zm-3,0Zm-2,0ZM10,54ZM8,54ZM7,54ZM4,54Zm107,1Zm-10,0ZM10,55ZM9,55ZM8,55ZM7,55Zm96,1ZM9,56ZM8,56ZM6,56ZM3,56Zm105,1Zm-4,0ZM9,57ZM6,57Zm66.684-.521a1.076,1.076,0,0,0,.794-.427ZM99,58Zm-1,0ZM9,58ZM6,58ZM5,58Zm102,1Zm-4,0ZM10,59ZM8,59ZM6,59ZM5,59Zm105,1Zm-9,0ZM9,60ZM6,60ZM5,60Zm104,1ZM95,61ZM85,61ZM10,61ZM6,61ZM5,61Zm102,1Zm-1,0Zm-1,0Zm-9,0Zm-3,0ZM11,62Zm-1,0ZM5,62Zm92,1Zm-3,0Zm-1,0ZM12,63Zm-2,0ZM7,63ZM5,63ZM0,63Zm110,1Zm-10,0Zm-7,0ZM13,64ZM1,64Zm102,1Zm-1,0Zm-1,0Zm-1,0Zm-2,0Zm-5,0ZM10,65ZM6,65Zm103,1Zm-1,0Zm-5,0Zm-2,0Zm-1,0Zm-1,0Zm-2,0Zm-2,0Zm-2,0Zm-3,0ZM11,66Zm77.345.039L88.5,66v-.076ZM108,67Zm-3,0Zm-2,0Zm-3,0Zm-1,0Zm-1,0Zm-2,0Zm-1,0ZM16,67ZM8,67ZM5,67ZM3,67Zm83.5-.5.5.5,1.345-.96ZM110,68Zm-5,0Zm-2,0Zm-3,0Zm-1,0ZM15,68ZM7,68Zm104,1Zm-1,0Zm-6,0Zm-1,0Zm-3,0ZM90,69ZM18,69Zm93,1Zm-1,0ZM99,70Zm-9,0Zm-1,0ZM14,70Zm-2,0ZM0,70Zm96,1Zm-2,0Zm-6,0Zm-6,0ZM20,71Zm-6,0Zm-3,0Zm86,1Zm-6,0Zm-3,0Zm-2,0Zm-1,0Zm-1,0Zm-2,0ZM64,72Zm-3,0ZM20,72ZM2,72Zm95,1Zm-1,0Zm-1,0Zm-4,0Zm-3,0Zm-2,0Zm-2,0Zm-2,0Zm-2,0Zm-3,0ZM67,73Zm-4,0Zm-1,0Zm-3,0ZM26,73Zm-2,0Zm-2,0Zm-2,0Zm-1,0Zm-5,0ZM6,73Zm85,1Zm-4,0Zm-6,0Zm-2,0Zm-5,0Zm-2,0Zm-9,0Zm-1,0Zm-2,0Zm-1,0ZM27,74Zm-1,0Zm-4,0Zm-3,0ZM9,74Zm88,1Zm-3,0Zm-7,0Zm-3,0Zm-2,0Zm-8,0Zm-1,0Zm-2,0Zm-1,0ZM60,75Zm-4,0Zm-4,0ZM27,75Zm-2,0ZM13,75Zm-2,0Zm86,1ZM87,76Zm-1,0Zm-4,0ZM51,76Zm-2,0Zm-1,0Zm-4,0ZM31,76Zm-1,0Zm-2,0ZM15,76Zm-2,0Zm-2,0Zm75,1Zm-4,0ZM49,77Zm-3,0Zm-1,0ZM34,77Zm-8,0Zm-1,0Zm-8,0Zm-6,0Z" transform="translate(1323.5 273.99) rotate(180)"/></g><g class="d" transform="matrix(1, 0, 0, 1, -440, 8742.01)"><path class="b" d="M32,19Zm-3,0ZM19,19Zm-6,0Zm23-1Zm-5,0ZM20,18Zm-7,0Zm-3,0ZM2,18Zm34-1Zm-1,0Zm-6,0Zm-7,0-.5-3,.5-.2V13q-2.4-.1-1-1v-.5a5.569,5.569,0,0,1-1,.5q-1.124-.749,0-1.5h-.5L20,9l.42,1.256c.17-.085.364-.172.581-.257q1.124.749,0,1.5V12l2.2,1.32L24,13l-.5-.5L24,12l1,.4V12l-.5-1.5.6-1h-.6L25,7H19.5L21,8h0l1.5-.5L22,8l-.5.5L22,10,17.5,6.5,18,6l1.5,1-.419-1.4L17.5,6V9.5L18,9l.5,2-2-.5,1-1h-1v-5L16,3l1.173.391L17,2l1.723,2.415L18,2a2.775,2.775,0,0,1,1-.151h0a.9.9,0,0,1,.494.172L19.5,2l2,.5L20.5,5,22,2h0l3,1V2l2.5.5L25,3l1.5.5L25,5h0l1-1,1.365,2.73A2.413,2.413,0,0,1,27.5,5.5L26.5,3H28l.5.5L29,3h0l2.5,2.5L31,6l1,1h0l.5.5-3,.5L29,10,25,7l.4,2L26,8l3,2,1-2,1,2h0l1-2,.5,1.5L32,10.75,31.5,12a4.408,4.408,0,0,1-.5.072,2.749,2.749,0,0,1-1.663-.345A1.974,1.974,0,0,1,29,12c-.19-.078-.362-.153-.519-.229l1.02.728-1.177.707L29.5,13.5a5.394,5.394,0,0,1-.5,1q-.5.749-1,.5h0a1.41,1.41,0,0,1-.5-.5v-.8L27,14a6.874,6.874,0,0,1-.674-.308L26,15l.5.5L26,16q-.9-1.7-3.5-1L22,17Zm0-3.2,1.09-.438L22,13Zm3-1.4.465.184A1.255,1.255,0,0,1,26,12h0l1-.333v-.418L25.5,10.5,26,10h-.5L25,12Zm2-.734.5-.168-.5-.25Zm.581-.539Q27.152,10.566,28,10H26ZM26.52,8q.622.5,2.478,0V7.584Zm-.02-.021V6Q25.912,7.47,26.5,7.979Zm1.77-.786.73.182V7a3.455,3.455,0,0,1-.731.193ZM27.5,7Zm-8-2.5.041.042-.029-.077ZM19,17Zm-8,0ZM9,17Zm25-1Zm-5.5.5L31,15.428h0L32,15q1.5,1-1,2ZM21,16Zm-1,0Zm-1,0Zm-1,0a1.414,1.414,0,0,1-.5-.5,1.413,1.413,0,0,1-.5.5,5.418,5.418,0,0,1-1-.5q-1.127-.749,0-1.5a2.848,2.848,0,0,1,1.5,1,.931.931,0,0,1,.149-.209L15.5,13.5,15,11l1.429,2.143L16,11q1.1,2,4.5,1L20,14l-.438-.221a.747.747,0,0,1-.25.471,1,1,0,0,1,.188.25L20,14l.5,2-1.644-.408A6.1,6.1,0,0,1,18,16Zm-1.363-2.544L17,14l1.5-.751L18,13ZM16,16ZM9,16ZM1,16Zm28-1Zm-2,0Zm-6,0Zm-5,.5ZM10,15ZM4,15Zm25.5.5L30,12l.5,3.5Zm1-1,.5-.833h0L32,12h0l.5,3Zm-1.5,0ZM27,14Zm-6,0ZM9,14ZM7,14Zm14-1Zm-6,0Zm-1,0ZM8,13ZM7,13ZM4,13ZM3,13Zm28-.927ZM23,12Zm-8,0Zm-1,0ZM4,12ZM3,12Zm19-2,1,.6h0l1.5.9-3,.5Zm-3,1Zm-2,0,1.5.5L17,12Zm-3,0Zm-1,0ZM9,11a5.543,5.543,0,0,1-1-.5Q6.874,9.751,8,9V8L7,9l-.5-.5L7,8H7L8,7H8L9,6H9l.5.5L9,7l.486,1.46A2.482,2.482,0,0,1,10,7V6l-.5-.5L10,5h0l2-2,.5.5L12,4,11,5,10,6V7l.354,1.425A3.577,3.577,0,0,1,10.5,7.5L11,7h0l1-1,.5,3a5.124,5.124,0,0,1-.881.279L12.5,9.5,11,10h0a3.9,3.9,0,0,1-.678-.324L9,11l2.5.5L9,12ZM8,8V9l1,1H9l1.2-.4a1.474,1.474,0,0,1-.713-1.1H8.5L9,7Zm0,3ZM4,11ZM3,11q-1.125-.75,0-1.5H3A5.5,5.5,0,0,1,4,9H4q1.124.749,0,1.5A5.636,5.636,0,0,1,3,11ZM2,11Zm31-1Zm-1,.751ZM24,10ZM16,11Zm0,0v-.831a2.132,2.132,0,0,1-1,.077,1,1,0,0,1-.769-.745H13.5L14,8V7l-.6-1.4.1.4-2-.5,1.3-1.3-.3-.7L14,4h0l1-1h0l1-1h0l.5.5L15,4l-.5.5L14,7V8l.143.428A9.975,9.975,0,0,1,14.5,6.5l.5-.833h0L16,4l.5,6a5.065,5.065,0,0,1-.5.168Zm-1,0Zm-1-1Zm-2,0Zm-2,0Zm-2,.5ZM6,10a5.543,5.543,0,0,1-1-.5Q3.875,8.749,5,8H5l1,.6H6l1.5.9L6,10l1.5.5L6,11ZM5,10Zm-1,.5ZM0,10Zm18.5.5L19,8l.5,2.5Zm-6,0L13,7h0l.5,3.5ZM5,9.5ZM0,9Zm23.5.5L24,8l.5,1.5Zm-1,0L23,8V7l1.5.5L23,8l.5,1.5ZM31,8ZM22,8ZM3,8Zm14.5.5L18,7l.5,1.5ZM35,7ZM33,7ZM6,7ZM4,7ZM2,7ZM36,6ZM34,6ZM33,6ZM7,6ZM33,5ZM32,5ZM11,5ZM8,5ZM31,4ZM15,4ZM12,4ZM9,4ZM34,3ZM32,3ZM30,3ZM10,3ZM9,3ZM5,3ZM32,2ZM14,2ZM11,2ZM2,2ZM33,1ZM28,1ZM24,1ZM23,1ZM11,1ZM2,1ZM33,0ZM26,0ZM25,0ZM19,0ZM18,0ZM17,0ZM15,0ZM8,0ZM6,0ZM4,0Z" transform="translate(1173.5 250.99)"/></g></g></svg>