<svg xmlns="http://www.w3.org/2000/svg" xmlns:xlink="http://www.w3.org/1999/xlink" width="506" height="120.842" viewBox="0 0 506 120.842"><defs><style>.a{fill:url(#a);}.b{fill:url(#d);}.c{fill:url(#g);}.d{filter:url(#k);}.e{filter:url(#h);}.f{filter:url(#e);}.g{filter:url(#b);}</style><linearGradient id="a" x1="0.5" y1="0.735" x2="0.5" y2="1" gradientUnits="objectBoundingBox"><stop offset="0" stop-color="#f2bd81"/><stop offset="1" stop-color="#483a2b"/></linearGradient><filter id="b" x="0" y="0" width="506" height="120.842" filterUnits="userSpaceOnUse"><feOffset dy="1" input="SourceAlpha"/><feGaussianBlur stdDeviation="1" result="c"/><feFlood flood-opacity="0.749"/><feComposite operator="in" in2="c"/><feComposite in="SourceGraphic"/></filter><linearGradient id="d" x1="0.5" x2="0.5" y2="1" gradientUnits="objectBoundingBox"><stop offset="0" stop-color="#c5ad90" stop-opacity="0.988"/><stop offset="1" stop-color="#14110e"/></linearGradient><filter id="e" x="243.501" y="53.992" width="78" height="45.001" filterUnits="userSpaceOnUse"><feOffset dy="1" input="SourceAlpha"/><feGaussianBlur stdDeviation="1" result="f"/><feFlood flood-opacity="0.749"/><feComposite operator="in" in2="f"/><feComposite in="SourceGraphic"/></filter><linearGradient id="g" y1="1" y2="0.169" xlink:href="#d"/><filter id="h" x="369.501" y="17.992" width="116.999" height="83.001" filterUnits="userSpaceOnUse"><feOffset dy="1" input="SourceAlpha"/><feGaussianBlur stdDeviation="1" result="i"/><feFlood flood-opacity="0.749"/><feComposite operator="in" in2="i"/><feComposite in="SourceGraphic"/></filter><filter id="k" x="330.5" y="71.992" width="42" height="26.001" filterUnits="userSpaceOnUse"><feOffset dy="1" input="SourceAlpha"/><feGaussianBlur stdDeviation="1" result="l"/><feFlood flood-opacity="0.749"/><feComposite operator="in" in2="l"/><feComposite in="SourceGraphic"/></filter></defs><g transform="translate(-400 -8742.008)"><g class="g" transform="matrix(1, 0, 0, 1, 400, 8742.01)"><path class="a" d="M0,114.842l.781-3.122H0V88.3H10.148L0,87.521l28.883-.781,1.561-1.561L32,86.74H67.034L65.459,63.125l2.168-2.185v0l4.345-4.378V51.953c-2.182,1.406-4.345-.859-6.513-6.329l2.168-6.406L74.145,50c-.713,1.094-1.44,1.875-2.173,1.953v4.609l2.173,6.563L69.79,67.343l-1.483,19.4H266.182q1.562-3.121,3.123,0h60.886l3.122-1.561,1.561,1.561h81.182q1.562-3.121,7.807-1.561l1.562,1.561h74.156v7.025l-.781.781H411.374l-2.151,1.076a5.583,5.583,0,0,1,.59.486l1.561-1.562h88.207q2.186,5.775-7.025,3.122-1.094-2.654-6.246-1.561l-1.561,1.561h-9.367q-1.561-3.124-3.122,0H394.2l-1.562,1.562H370q2.03,8.586-3.9,10.928-6.558,2.03-3.9-5.464l-1.561-3.9q-4.058,1.25-5.464-1.561h-7.807l-1.561,1.561q-7.337-2.029-9.368,1.561l-1.561-1.561H319.262l-1.561,1.561h-9.368l-1.561,1.562q-1.559-3.121-3.122,0l-7.8,1.561q-1.562-3.121-3.124,0L281.8,107.036l-1.562-1.562H266.182l-1.562,1.562H242.765l-3.122,1.562-1.562-1.562H211.541l-1.562,1.562h-48.4l-3.122,1.561L156.9,108.6H145.971l-3.122,1.561-1.561-1.561H128.8l-1.561,1.561H83.523l-1.561,1.562H35.127l-1.562,1.561H16.393l-1.561,1.562Zm56.984-4.684q.78,0,1.561-1.561Zm0,0L55.422,108.6Q56.2,110.158,56.984,110.158ZM117.87,108.6h0Zm-26.541,0,3.122-1.04-1.561-.521Zm-78.06,0q.782,0,1.562-1.562Zm0,0-1.561-1.562Q12.488,108.6,13.269,108.6Zm187.345-1.562q.78,0,1.561-1.562Zm0,0-1.561-1.562Q199.831,107.036,200.613,107.036ZM52.3,105.474l.585-.585-5.269.585-.151-.05Q49.127,106.268,52.3,105.474Zm177.195-.78,27.321-.78h-26.54Zm-188.9,0,3.276-.468-.936-.312Zm29.692-.072a20.175,20.175,0,0,1-3.936-.708l-.144-.072A6.8,6.8,0,0,0,70.285,104.621ZM58.208,104.3a14.307,14.307,0,0,0,3.244-.36Zm3.5-.426a8.491,8.491,0,0,0,2.445-1.057l-.926-.464Zm60.845-1.52c-.157-.04-.312-.078-.465-.114C122.241,102.273,122.4,102.312,122.553,102.352Zm-.77-.185-.022,0Zm-3.686-.475h0Zm144.627-.516h0Zm-2.562-.331-.083-.02Zm66.908-3.7,1.561.52,1.561-1.561Zm-109.283.52-1.561-1.561Q217.005,97.668,217.786,97.669Zm0,0q.78,0,1.562-1.561l5.884-.453a14.471,14.471,0,0,0-2.687-.281Q219.082,95.375,217.786,97.669Zm101.477-1.561-.1.1a3.628,3.628,0,0,1,.4-.158C319.463,96.066,319.363,96.087,319.262,96.108Zm-77.278-.391.78.391,1.561-1.562Zm79.65.076a12.748,12.748,0,0,1,2.187.288,5.5,5.5,0,0,0-1.9-.293Q321.78,95.789,321.635,95.793ZM227.8,95.458l11.839-.911H228.714Zm53.211-2.471,4.683,1.561q9.369,1.559,14.051-1.561l-17.173-1.562Zm119.431,1.561a16.407,16.407,0,0,1,6.121-.059,5.938,5.938,0,0,0-2.478-.461A15.277,15.277,0,0,0,400.445,94.547ZM265.4,92.205l-13.271-.781ZM246.7,91.8a13,13,0,0,1-2.372-.373l-.46-.23A4.61,4.61,0,0,0,246.7,91.8Zm-7.835-.764.781.391,2.342-1.171-.78-.391Zm11.709-1.171h0ZM145.971,88.3l1.561,1.561h0L145.971,88.3h0ZM82.482,89.6l1.04.26L85.085,88.3h0ZM76.318,69.688v0Zm-13.033,0v0Zm0-4.453v0Zm0-4.219v0Zm13.033-9.062v0Zm-8.691,0v0Zm-8.7,0v0Zm-8.691,0v0Zm-4.361,0v0Zm-17.378,0v0Zm34.785-4.063v0Zm-13.046,0v0Zm-8.7,0v0ZM58.93,43.438v0Zm-26.079,0v0Zm23.917-6.563L58.012,33.2a27.851,27.851,0,0,1-3.428,1.562c-3.266-2.265-3.266-4.218.01-6.406l-4.355,2.188-4.361-1.719-2.173-.469c1.714,4.766.986,7.188-2.164,7.188a12.79,12.79,0,0,1-4.345-.782L35.834,33.2a27.634,27.634,0,0,1-2.983,1.562c-2.788-1.64-3.189-3.828-1.216-5.468l-.967-.938,15.21-15.234,2.192,2.11,2.168-2.11,19.551,2.11c-10.157,0-18.1,2.11-23.863,6.563,1.436,2.734,2.876,4.3,4.312,4.3-4.361-3.046-2.9-5.859,4.345-8.75L69.79,19.688l-9.458,2.891c6.182.469,10.058-1.094,11.641-5.234v0l8.7,3.672v0L87.2,23.75,76.318,28.516l-4.346,2.031L69.267,29.3a10.817,10.817,0,0,1-1.64,3.2q-2.168,3.516-4.342,2.344V37.5l2.174,3.594c-1.1,1.953-2.174,2.656-3.262,2.656C60.38,43.75,58.578,41.328,56.768,36.875Zm3.071-5L63.285,37.5V34.843A6.4,6.4,0,0,1,61.113,32.5V30.547C60.845,30.781,60.414,31.25,59.838,31.875Zm1.274-3.516V26.875l-2.182-.781A5.355,5.355,0,0,1,61.113,28.359ZM37.2,26.094a5.175,5.175,0,0,1,2.163,2.265l2.183-2.265L39.36,23.75Zm13.042,0a2.692,2.692,0,0,0,1.45-.469Zm-8.7,0,3.907-3.984A17.729,17.729,0,0,0,41.542,26.094Zm30.43,13.125v0Zm-21.733,0-6.533-2.344,2.173-2.265v0l4.361-4.063,6.529,10.547Zm47.817-4.453v0Zm-56.514.782v0ZM37.2,34.765v0Zm-8.7,0v0l6.514,2.11L28.5,39.218Zm78.247-4.218v0ZM92.6,33.516a2.914,2.914,0,0,1-2.573,1.249c-1.133,0-2.281-.781-3.442-2.03l-5.918,2.03V30.547l5.517,1.641a9.9,9.9,0,0,0-1.172-1.641L78.5,28.359l6.513-2.265,2.613.86,1.733-5.468v0l2.183,6.874,2.163-6.874v0l2.174,6.874,2.177-2.265v0l4.361-4.609,2.168,2.265L93.705,34.765Zm-20.63-2.969L78.5,32.5l-6.529,2.265ZM67.627,32.5v0Zm8.691-3.984v0Zm-30.44.312v0ZM111.1,17.344v0Zm-13.042,0v0Zm-13.042,0v0Zm8.691-4.219v0Zm-17.387,0,6.518,2.11-6.518,2.11ZM98.056,8.516v0Zm-13.042,0v0Zm-21.729,0,6.5,2.5-6.5,2.109Zm-21.743,0v0Zm-8.691,0v0ZM89.36,4.3v0Zm-4.346,0v0Zm-13.042,0v0Zm-39.121,0v0ZM76.318,0V0ZM32.851,0V0Z" transform="translate(3 2)"/></g><g class="f" transform="matrix(1, 0, 0, 1, 400, 8742.01)"><path class="b" d="M66,38v0Zm-1,0v0Zm-5,0v0Zm-1,0v0Zm-2,0v0Zm-4,0v0Zm-1,0v0Zm-1,0v0Zm-3,0v0Zm-9,0v0Zm-8,0v0Zm-2,0v0Zm37-1v0Zm-1,0v0Zm-4,0v0Zm-2,0v0Zm-2,0v0Zm-9,0v0Zm-2,0v0Zm-1,0v0Zm-9,0v0Zm-3,0v0Zm-4,0v0Zm37-1v0Zm-1,0v0Zm-4,0v0Zm-1,0-.5-1.5L61,33l-.223.666a3.628,3.628,0,0,1,.834-.5Q61.125,32.583,62,32a5.512,5.512,0,0,1,1,.5v0q1.124.75,0,1.5v0q-.239-.1-.442-.191a.974.974,0,0,1-.453.617L62.5,36l-2-.5L61,35a1.417,1.417,0,0,1-.5-.5h0L60,36v0Zm-3,0v0Zm-5,0v0Zm-1,0v0Zm-1,0v0Zm-4,0v0Zm-1,0v0Zm-1,0v0Zm-2,0v0ZM31,36v0Zm37-1v0ZM56,35v0Zm-2,0v0Zm-3.5-1.5L52,34l-1.5-1.5L51,32l.5.5A1.414,1.414,0,0,1,52,32a5.512,5.512,0,0,1,1,.5v0q1.124.75,0,1.5l.5.5L54,32l.5,2.5L53,36ZM45,35v0Zm-1,0-1-1-1.5.5L42,34a5.541,5.541,0,0,1-1-.5v0q-1.01-.674-.2-1.348a7.074,7.074,0,0,1-.3-.651L41,30l.54.9.428-6.4H41.5L41,28l-.5-3.5L41,24h0l-.5-.5L41,23a1.417,1.417,0,0,1-.5-.5V20.022q-.735.763,0,3.477l-.441,1.028.411,3.706q.237-.117.529-.234,1.126.751,0,1.5v0a5.551,5.551,0,0,1-1,.5v0q-.751-.5-.5-1a1.418,1.418,0,0,1-.5-.5v0a5.552,5.552,0,0,1-.5-1l.389-.907L38,23.338v0L37.5,21.5l.462-.616L37.5,19.5a2.127,2.127,0,0,0,1-1L38,19a6.918,6.918,0,0,1-.687-.314L37,19v0l-.5.5L37,21l-2,1,2.5-1L37,23l-1-.333v0l-.5-.167-.371,1.108.87.248v0l.5.143L36,27l-3.5-3.5L33,23l1,.286-1.439-1.028q-.005.371-.562.742a5.513,5.513,0,0,1-1-.5v0q-1.124-.749,0-1.5.248.1.457.2-.317-2.439,1.171-3.073L31.5,18.5q.8-3.2-1-4L32,13l2,4q1.531-.656,1.537-1.342Q35.531,16.344,34,17l-2-4-1.5.5L31,11l-.5-.5,1.5-1L31,10q-1-2-2,0a6.673,6.673,0,0,1-1.208.3A6.675,6.675,0,0,0,29,10l1.5-.5L30,10l.5.5L30,11l.5,1.5L28,14l-.5-.5L27,14l-2.5-1.5.451-2.248L24.5,8H24V8H23L19.5,4.5,20,4l.5.5L21,4l-1.5-.5L23,3q.5,1,1,1V4q.5,0,1-1l1-.5v0L27,2q3.739-.689,4.477,1.432L31,2V2q2.6-.8,1.5,2.5L33,3l.5,1.5h-1l1,2a6.7,6.7,0,0,1-.35.751c.054.083.107.159.161.229L33.9,6.5h-.4L34,5l.286.858L34.5,5.5,34,4l1.382,2.763q.059-.125.118-.263L35,4l1.385,2.308L36,4l3,1V5l2-1V4a1.683,1.683,0,0,1,.428.382L42,4l3.5.5L42,5l5.5.5L42,6V5L39.125,7.156,40.5,7.5q-.083.209-.167.389L41,7.667v0l.5-.167L41,6l6.5.5-.428.714L47.5,8.5q-1,.5-1,1l1.219-1.22a.624.624,0,0,1-.084-.977A2.7,2.7,0,0,1,48,5l.617.925L49,4V4l1,1V4l1-.5v0L52,3l2.5.5a2.543,2.543,0,0,1-.256.581L55.5,4.5,54,5V4.411A2.22,2.22,0,0,1,53.1,5H56V5h1V5h1V5l1.5,1.5a3.726,3.726,0,0,1-1.292,1.1L60,7l2.5,2.5L62,10l.5.5L62,11v.794a3.3,3.3,0,0,1,1-.01v0q1.355.242.5,2.216L61,13l1,1,1.5.5-.2.6,1.2.4L63,16l1.5.5L63,17q-1-2-2,0l-.11-.028L61,17q1-2,2,0,2.6-.7,1.5,2-.266.108-.5.181v0a1.99,1.99,0,0,1-1.145.1L63.5,21h0v5.5h-1l1,3h-1a3.672,3.672,0,0,1-.452-.547L62,29v0l-2,2,1.5-.5-.5.832v0L60,33l-1-3,1,1-.5-1.5q2-1,0-2v-2L59,27l-.309-1.232a3.486,3.486,0,0,1-.193.732l1,2h-1l-.387-.581q-.053.04-.113.079-2.4-.959-1.114-1.919L56.5,25.5l.072-.071-1.607.357L55.5,26,54,29l-.5.25,1,.25a5.567,5.567,0,0,1-.5,1v0q-.75,1.123-1.5,0v-.752L52,30l-.307-1.23a3.49,3.49,0,0,1-.192.73,1.415,1.415,0,0,1-.5.5l1.5.5L51,31V30q-.5.25-1-.5v0a5.539,5.539,0,0,1-.5-1L50,28a2.794,2.794,0,0,1,1.1-.159L48,26.6v0l-1-.4v0l-.5-.2.5-3,2,2h4a6.016,6.016,0,0,0-4,0l-2.5-2.5h-1L45,21l-1.277.425a8.339,8.339,0,0,0-.179,1.031L45,21l.5,5.5h-1l-.972-3.886q-.018.19-.029.385h0q.415.363,0,1.5l1,2.5q-.233.1-.443.171L44.5,28.5h-1l.431-1.289a2.859,2.859,0,0,1-.508.108l.077.18v3a5.555,5.555,0,0,1-.5,1v0q-.381.571-.762.562l.263.438a2.235,2.235,0,0,1-.189.249.614.614,0,0,1,.19.751L43,33q.305.122.551.244L44,31l.5,2.5H44q1.125.749,0,1.5v0Zm7.5-7v0h0Zm10-.5.025.024c0-.033-.007-.067-.009-.1Zm-3-2.5h0Zm2,0h1V23l-.3.6.3.9h-.751Zm-18.1-.074c.03-.136.064-.278.1-.425h-.285ZM55,22l1.5-.75L56,21l-3,1A6.994,6.994,0,0,0,55,22Zm4.5-1.5.3-.9-.3-.1L58,22l-.382-.191Q58.587,22.629,59.5,20.5ZM53,22l-2.5-2.5A2.791,2.791,0,0,0,53,22Zm-10.5-.5,1-3-.25-.25-.75.25.285-.714L42,17v0l-.334-.334.828,3.31A1.955,1.955,0,0,1,42.5,21.5Zm1.344-.517L45.5,18.5l-.166-.056A6.174,6.174,0,0,0,43.844,20.983ZM46.831,20l.051-.077c-.019-.014-.038-.029-.056-.045C46.828,19.923,46.829,19.963,46.831,20Zm5.67-1H55q1,2,2,0h0q-1,2-2,0Zm-11.963.986a4.961,4.961,0,0,1,.825-.262H41.3A1.08,1.08,0,0,0,40.537,19.986ZM61.5,19.5l.4-2h-.4l-.374,1.875Zm-11,0,1-1a5.005,5.005,0,0,0,0-2Zm-3.778-.372L47.7,17.5H46.5a7.7,7.7,0,0,1-.145-2.14L45.5,17.5a2.305,2.305,0,0,1,.352.217L46.5,17.5q-.257.166-.492.347A2.439,2.439,0,0,1,46.723,19.128ZM56.4,18.84,56,19A.644.644,0,0,0,56.4,18.84ZM56,19l-.4-.16A.639.639,0,0,0,56,19Zm3.4-.264q-.668-1.848.643-1.879Q58.729,16.887,59.4,18.736ZM35.5,18l1.256.314Q36.014,17.657,37,17l1,1,.437-.146A3.9,3.9,0,0,0,36.5,16.5v-1l-.363.91L36.5,17.5h-.8Zm8.876.125L44,18l-.293.1A1.754,1.754,0,0,0,44.377,18.126Zm13.835-.011a.868.868,0,0,0,.19-.076Zm4.174-.086A4.717,4.717,0,0,1,62.5,17.5h-.312ZM56.5,16.5,56,18l5-6a8.471,8.471,0,0,1,1-.207V11ZM50,11l3.5,2.5V18q1.3-5.5-2.5-7-.68-.125-1.181-.27Zm8.5,6.979q.653-.5.02-2.432A5.648,5.648,0,0,0,58.495,17.979Zm-10.217-.145L48.5,17.5h-.335ZM38.5,17.5h2L41,14l.356,1.422A3.577,3.577,0,0,1,41.5,14.5h.608a4.975,4.975,0,0,1-.608-1L43,14l1.5-1.5v-1L43,14l.31-.93q-1.525.541-1.982-.336A2,2,0,0,1,41,13v0q-.323-.129-.58-.258L40,14h.5v3l-1.8-.449A8.12,8.12,0,0,1,38.5,17.5ZM45,17l.05-.5H44.9Zm15.76-.059-.033-.007Zm-.3-.055a2.621,2.621,0,0,0-.373-.029A2.622,2.622,0,0,1,60.46,16.885ZM51.5,16.5A1.926,1.926,0,0,0,50,15a2.4,2.4,0,0,1-1.109.2Zm-9.9-.1.16-.159a.627.627,0,0,1-.254-.219Zm-2.864-.136L39,16v0l.5-.5-.458-1.375a7.325,7.325,0,0,1-1.1.189l.562.187-.636.212Q38.86,14.8,38.735,16.264Zm4.733-.186L43.5,16ZM63,16ZM43.5,16Zm-7-.5V15q.265-.106.5-.174v-.521a2.487,2.487,0,0,1-1.888-1.119Zm22.039-.04L61,13A3.692,3.692,0,0,0,58.538,15.459ZM48.5,15h0l0,0Zm-4.4-.5L44,14a3.593,3.593,0,0,1-.323.5Zm-9.6,0L35,13Zm13.834-.164A3.593,3.593,0,0,1,48.5,13.5h-.376ZM55.5,14H57l1-.715ZM40,14l-.494-1.479A4.038,4.038,0,0,1,39.5,14Zm7.056-.393q.052-.056.108-.108H47.1ZM54.5,13.5l-3-3,.4-.4-1.4-.6L57,9H50v.817ZM30,10l-3,3H25.5Q28.8,13.5,30,10Zm19.5,3h0V11.5l-1.125-.75Zm-6.06-.321L43.5,12.5a6.465,6.465,0,0,1-.042-1.746A4.971,4.971,0,0,0,43.44,12.678ZM39.5,12.5l.217-.217Q39.039,11.641,40,11a6.924,6.924,0,0,1,.685.314L41,11,40,9V9l-1,1,1.5.5L39,11V10l-.5.5.16.48A2.874,2.874,0,0,1,39.5,12.5Zm7.482-.126.025-.059a1.289,1.289,0,0,1-.2.016Zm12.642-.246L60.5,11.5a4.343,4.343,0,0,1-.116-.437ZM34,12l3-2q.229.084.438.179a4.2,4.2,0,0,1-.038-.607Zm0,0q-.835-1.668-1.667-.556Zm7.134-.4a6.747,6.747,0,0,1,.106-.958L41,11l-.138.414A2.9,2.9,0,0,1,41.134,11.6ZM55.5,11Zm-8-.5q.063.234.1.437l.235-.548L46.5,9.5Q46.5,10,47.5,10.5Zm-20.1-.173h0Zm.079,0q.08,0,.166-.01Q27.559,10.323,27.479,10.326ZM62,10a2.356,2.356,0,0,0-2-2,1.926,1.926,0,0,1,1.5,1.5l-.241.337A3.455,3.455,0,0,1,62,10ZM50,9.816V9a7.3,7.3,0,0,1-.69-.247A2.087,2.087,0,0,1,49,9Zm-12.6-.34q.005-.215.028-.449a4.82,4.82,0,0,1-.811.252Zm11.381-.3A2.719,2.719,0,0,1,49,9q-.257-.1-.472-.206ZM39,9a1.422,1.422,0,0,1-.5-.5V7.625L38,8a2.227,2.227,0,0,1-.252-.192,3.428,3.428,0,0,1-.115.736ZM26.48,8.564,26.5,8.5ZM33.494,8.5l.006,0h0Zm12,0Zm-19,0-.013-.05Zm29.9-.363A11.725,11.725,0,0,1,53,8,5.379,5.379,0,0,0,56.4,8.137ZM35.17,7.17,35,7,33.984,8.014Q34.588,8.177,35.17,7.17ZM50,8l.546-.273L49.331,7ZM33,8l.215-.358-.106-.316a2.353,2.353,0,0,1-.371.5ZM53,8q-.5-1-1-1A2.182,2.182,0,0,0,53,8Zm-1.5-.751L52,7A.72.72,0,0,0,51.5,7.249ZM31.5,7V3.5L31.042,6.7Zm6,0a1.2,1.2,0,0,1,.337-.382l-.664.189A.8.8,0,0,1,37.5,7ZM23,7a6.8,6.8,0,0,1,1.068-.1A6.8,6.8,0,0,0,23,7Zm1.223-.1h0Zm12.165-.124.072-.01-.02-.121Zm-6.414-.769a3.7,3.7,0,0,0-2.453-.014Q28.027,6.652,29.974,6.008Zm.444.271a2.015,2.015,0,0,0-.3-.2Zm-2.932-.334-.143-.571A1.038,1.038,0,0,0,27.486,5.945ZM26,5l1.155-.384L27,4l-2.251.75Zm5.5-1.5ZM42,35v0Zm-2,0v0Zm-5,0v0Zm-3,0v0Zm34-1v0Zm-7,0v0Zm-8,0v0Zm-1,0v0Zm-1,0v0Zm-3,0v0Zm-5,0v0Zm-1,0v0Zm-1,0v0Zm-1,0v0Zm-2,0v0Zm-5,0v0Zm34-1v0Zm-1,0v0Zm-4,0v0Zm-1,0v0Zm-2,0v0Zm-7,0v0Zm-1,0v0Zm-1,0v0Zm-8,0v0Zm-1,0v0Zm-2,0v0Zm-1,0v0Zm-5,0v0Zm-1,0v0Zm37-1v0Zm-2,0v0Zm-1,0v0Zm-3,0v0Zm-2,0v0Zm-1,0v0ZM48,32v0Zm-5,0v0Zm-4,0v0Zm-2,0v0Zm-1,0v0Zm-1,0v0Zm-6,0v0Zm10.5.5L40,31l.5,1.5Zm-2,0L38,31v0l.5,1.5ZM64,31v0Zm-1,0v0Zm-1,0v0Zm-3,0v0Zm-1,0v0Zm-4,0v0Zm-2,0,1.5.5L52,32Zm-1,0v0Zm-1,0v0Zm-1,0v0Zm-3,0v0Zm-7,0v0Zm-3.5.5L36,31q-.916-.609-.342-1.22L35,30v-.687q-.948-.146-.5-1.813L33,25.25v0l-.5-.749L33,24l3.5,3.5V29a5.489,5.489,0,0,1-.748.25l.423.141A6.33,6.33,0,0,1,37,29q1.071.712.107,1.426L37.5,32ZM35,31v0Zm-1,0v0Zm-2,0v0Zm35-1v0Zm-3,0v0Zm-1,0v0Zm-1,0v0ZM50,30v0Zm-6,0v0Zm-9,0v0Zm-1,0v0Zm-2,0v0Zm39-1v0Zm-2,0v0Zm-1,0v0Zm-1,0v0Zm-1,0v0Zm-7,0v0Zm-1,0v0Zm-3,0v0Zm-6,0v0Zm-5,0v0Zm-5,0v0ZM12,29v0ZM9,29v0ZM0,29v0Zm63.5.5L64,28v0l.5,1.5ZM71,28v0Zm-1,0v0Zm-1,0v0Zm-1,0v0Zm-1,0v0Zm-7,0v0Zm-2,0v0Zm-1,0v0Zm-2,0v0Zm-8,0v0Zm-2,0v0Zm-7,0v0Zm-1.5-1.5L38,25l-.5,1.5L37,29ZM34,28v0Zm-1,0v0Zm34-1v0ZM49,27v0Zm-3,0v0Zm-1,0v0Zm-7,0v0Zm-4,0v0Zm-2,0v0Zm-1,0v0ZM12,27v0Zm-2,0v0ZM5,27v0ZM3,27v0ZM1,27v0Zm69-1v0Zm-2,0v0Zm-1,0v0Zm-2,0v0Zm-9,0v0ZM46,26v0Zm-8,0v0Zm-5,0v0Zm-2,0v0Zm-1,0v0ZM13,26v0Zm-1,0v0Zm-1,0v0ZM9,26v0ZM8,26v0ZM7,26v0ZM2,26v0ZM1,26v0Zm68-1v0Zm-1,0v0ZM46,25v0ZM32,25v0Zm-3,0v0Zm-7,0v0Zm-5,0v0Zm-3,0v0Zm-1,0v0Zm-1,0v0Zm-1,0v0ZM9,25v0ZM8,25v0ZM6,25v0ZM1,25v0Zm35.5.5L37,24l.5,1.5ZM70,24v0ZM46,24v0Zm-8,0v0Zm-7,0v0ZM18,24v0Zm-1,.5a5.512,5.512,0,0,1-1,.5q-.937-.624-.312-1.25l-.041-.043A6.965,6.965,0,0,1,15,24a1.409,1.409,0,0,1-.5-.5L13,23a4.371,4.371,0,0,1-.684.105L13.5,23.5,12,24v-.893Q10.3,22.988,12,20v0l.683.955L13,20l.333,1L13,18a2.339,2.339,0,0,1,1.286,1L14,17l2,2,1.5-.5L17,19l.5,2-.5.2v0l-.512.205a.734.734,0,0,1-.212.81c.028.026.054.052.078.079A7.1,7.1,0,0,1,17,22q.936.624.312,1.249.625.625-.312,1.25v0Zm-2.5-1q-.277-.562.711-1.124l.175-.525L15,22l-.352-.353q-.051.405-.148.853h-.714Zm-1.051-1.47-.058-.526H13.07Zm1.237-.709L15,21l-.294-.294C14.708,20.9,14.7,21.1,14.683,21.316ZM15,24v0Zm-1,0v0Zm-1,0v0Zm-1,0v0ZM6,24v0ZM5,24v0Zm66-1v0Zm-4,0v0ZM46,23v0Zm-9,0v0Zm-5,0v0Zm-2,0v0Zm-7,0v0ZM7,23v0ZM6,23v0ZM5,23v0ZM4,23v0Zm68-1v0Zm-5,0v0Zm-3,0v0ZM26,22v0Zm-6,0v0ZM9,22v0ZM8,22v0Zm-1,.5A5.551,5.551,0,0,1,6,23q-1.127-.749,0-1.5v0A5.522,5.522,0,0,1,7,21v0q1.126.749,0,1.5v0Zm-3,.1v0l-1-.4v0L2.5,22,2,20.752v0L1.5,19.5v-3l.628-.878L2.5,14.5l1.451-3.193L3.5,9.5,5,8l1.5.5L4.5,9l.164.738L5,9l.5,1.5-.494.776L5.5,13.5h-1l-.257-1.025L3.17,14.161,4,13l.5,1.5-.5.749v0L3.166,16.5l.333,1h-1l1,1L3,20a3.1,3.1,0,0,1,1-.168v0q1.087.05.5,1.667L5,23ZM3,20ZM2.5,17.5ZM1,22v0Zm71-1v0Zm-1,0v0Zm-4,0v0Zm-1,0v0Zm-1,0v0Zm-1,0v0ZM30,21v0Zm-1,0v0Zm-3,0v0Zm-2,0v0Zm-1,0v0Zm-4,0v0Zm-1,0v0Zm-7,0v0ZM9,21v0ZM5,21v0ZM2,21v0Zm65-1v0Zm-3,0v0ZM31,20v0Zm-1,0v0Zm-1,0v0Zm-1,0v0Zm-1,0v0Zm-3,0v0Zm-4,0v0Zm-9,0v0ZM8,20v0ZM6,20v0ZM1,20v0Zm64-1v0ZM31,19v0Zm-3,.572v0l-1-.428v0L22,17H20v0H19l-1.5.5,1.4-2.8-.244-.729a4.086,4.086,0,0,1-.157.53H17.166l.333,1a6.294,6.294,0,0,1-.391.826L17.5,17.5,16,19l-2.5-2.5a2.753,2.753,0,0,1-.165-1H12.5L13,14l.4,1.207a.643.643,0,0,1,.6-.373v0A2.758,2.758,0,0,1,15,15h0a1.409,1.409,0,0,1-.5-.5V13l2,.5L17,13l-3.36-.479q-.056.226-.141.479l-3-.5q2.3-1.2-.5-2.5l1.5,1.5L10,13q1.5,1-1,2-.888-.592-.373-1.186L7,13l-1.5.5L6,12l-.5-1.5.751-.751L6,9l.5.5L7,9l1,.5V9L5,8l-1.5.5A2.845,2.845,0,0,0,5.5,5Q8.1,5.8,9,4V4l2.5.5-1.818.728.6.2L11,5q1.078.721.088,1.439L11.5,8.5h-1l.385-1.928A6.013,6.013,0,0,1,10,7L8.73,6.577,9,7.25v0l.406,1.016Q9.667,8.133,10,8V8q1.5,1-1,2-.96-.64-.28-1.281L8.5,8.5,8,9v.5L9,10l2.5-1v1a1.228,1.228,0,0,1,.365-.4L11.5,8.5,13,7l.059.1L13.5,6a2.91,2.91,0,0,1-.262-1.414L12,5V4l1.273.424a.926.926,0,0,1,.328-.49L13,4V3l4.5.5-1.851.206A12.138,12.138,0,0,1,17,4l1-1,.5.5L18,4l4.5,3.5-.363.363L24.5,9.5,24,12l-.308-1.232a3.493,3.493,0,0,1-.192.732l1,2.5,4,.5L25,15q3.3.8,4-1a3.5,3.5,0,0,1,.566.307L30,13l.5,1.5h-.681q1.316,1.121.681,3.5l-.857.214.857.286-1.2.4,1.2.6L29,20Zm.5-1.072.5.25v-.375ZM16.572,14.714,16.7,14.5h-.2Zm2.109-1.4.489-.489Q18.122,11.014,17,13a3.112,3.112,0,0,1,1-.167v0A.637.637,0,0,1,18.68,13.317Zm-4.994-1L14,12a.783.783,0,0,1-.26-.045A3.341,3.341,0,0,1,13.686,12.313ZM9,12l.5-.5L10,10Zm2.5-1q.183-.061.351-.107A1.206,1.206,0,0,1,11.5,10.5Zm.741-.2a3.07,3.07,0,0,1,.392-.049c-.033-.061-.067-.125-.1-.19Zm3.259-.3L16,10v0l1.137-1.137a3.014,3.014,0,0,0-.941-.19Q15.007,8.673,15.5,10.5Zm8-.5v0l-.006,0ZM22,10a2.418,2.418,0,0,1,1.232-.134l-1.876-.938Zm-9.79-.629A6.474,6.474,0,0,1,13,9l-.5-.5ZM13,9l.318-.227-.068-.023Zm4.5-2.5L14.73,8.765,17,7l.4,1.6L19,7l-1.5.5V6l2.144,1.073L19,6q-2.4-.1-1-1L21.25,7.251,19,5a3.056,3.056,0,0,0-.893-.168Q16.968,4.83,17.5,6.5Zm-3.05,1.465.268-.191A3.864,3.864,0,0,0,15.5,6.5L13.985,8.014A.645.645,0,0,0,14.449,7.964ZM16.5,5.5,15.041,7.542,16.5,6.5,18,4ZM6.5,6.5Zm2-.5.161.4,1.264-.759ZM25,19l1.5.5L25,20Zm-1,0v0Zm-1,0v0Zm-1,0v0Zm-3,0v0Zm-1,0v0Zm-7,0v0Zm-1,0v0ZM8,19v0ZM0,19v0Zm65-1v0ZM24,18v0Zm-1,0v0Zm-1,0v0Zm-3,0v0l2.5.5L19,19Zm-1,0v0Zm-6,0v0ZM7,18v0ZM4,18v0ZM0,18v0Zm30.5.5L31,17v0l.5,1.5ZM69,17v0Zm-3,0v0ZM21,17l1.5.5L21,18Zm-8,0v0Zm-1,0v0Zm-1,0v0ZM8,17v0ZM7,17v0ZM5,17v0ZM4,17v0Zm68-1v0ZM13,16v0Zm-1,0v0Zm-2,0v0ZM9,16v0ZM8,16v0ZM7,16v0ZM6,16v0ZM5,16v0ZM4,16v0Zm68-1v0Zm-4,0v0Zm-3,0v0ZM31,15v0ZM18,15v0Zm-6,0v0Zm-2,0v0ZM9,15v0ZM8,15v0ZM5,15v0Zm59-1v0ZM12,14v0Zm-1,0v0ZM8,14v0ZM6,14l1.5.5L6,15ZM5,14v0ZM2,14v0ZM0,14v0Zm64-1v0ZM25,13v0ZM14,13v0Zm-1,0v0Zm-2,0,1.5.5L11,14ZM7,13v0ZM2,13v0Zm62-1v0ZM3,12v0ZM2,12v0Zm62-1v0ZM3,11v0ZM2,11v0Zm61-1v0ZM3,10v0ZM69,9V9ZM63,9V9ZM3,9V9ZM72,8V8ZM71,8V8ZM70,8V8ZM69,8V8ZM68,8V8ZM62,8V8ZM3,8V8ZM63,7V7ZM12,7V7ZM4,7V7ZM3,7V7ZM0,7V7ZM65,6V6ZM13,6V6ZM5,6V6ZM4,6V6ZM2,6V6ZM1,6V6Zm10.5.5L12,5l.5,1.5ZM72,5V5ZM60,5V5ZM13,5V5ZM5,5V5ZM68,4V4ZM67,4V4ZM60,4V4ZM48,4V4ZM47,4V4ZM46,4V4ZM8,4V4ZM7,4V4ZM6,4V4ZM5,4V4ZM1,4V4ZM66,3V3ZM65,3V3ZM64,3V3ZM57,3V3ZM55,3V3ZM50,3V3ZM44,3V3ZM43,3V3ZM42,3V3ZM35,3V3ZM34,3V3ZM19,3V3ZM10,3l1.5.5L10,4ZM8,3V3ZM6,3V3ZM3,3V3ZM70,2V2ZM66,2V2ZM65,2V2ZM62,2V2ZM61,2V2ZM60,2V2ZM59,2V2ZM53,2V2ZM52,2V2ZM42,2V2ZM34,2V2ZM33,2V2ZM25,2V2ZM21,2V2ZM20,2V2ZM19,2V2ZM18,2V2ZM17,2V2ZM15,2l1.5.5L15,3ZM14,2V2ZM12,2V2ZM11,2V2ZM69,1V1ZM68,1V1ZM66,1V1ZM62,1V1ZM61,1V1ZM52,1V1ZM43,1V1ZM27,1V1ZM25,1V1ZM16,1V1ZM13,1V1ZM62,0V0ZM53,0V0Z" transform="translate(246.5 55.99)"/></g><g class="e" transform="matrix(1, 0, 0, 1, 400, 8742.01)"><path class="c" d="M109,1V1Zm-3,0V1Zm-1,0V1Zm-4,0V1ZM97,1V1ZM96,1V1ZM95,1V1ZM94,1V1ZM89,1V1ZM84,1V1ZM74,1V1ZM72,1V1ZM71,1V1ZM69,1V1ZM67,1V1ZM66,1V1ZM65,1V1ZM60,1V1ZM59,1V1ZM58,1V1ZM57,1V1ZM56,1V1ZM52,1V1ZM50,1V1ZM49,1V1ZM27,1V1ZM24,1V1ZM23,1V1ZM22,1V1ZM20,1V1ZM19,1V1ZM18,1V1ZM13,1V1ZM12,1V1ZM11,1V1ZM4,1V1ZM3,1V1ZM0,1V1ZM110,2V2Zm-1,0V2Zm-1,0V2Zm-3,0V2Zm-3,0V2Zm-1,0V2ZM98,2V2ZM96,2V2ZM93,2V2ZM90,2V2ZM87,2V2ZM83,2V2ZM74,2V2ZM73,2V2ZM72,2V2ZM67,2V2ZM66,2V2ZM59,2V2ZM58,2V2ZM57,2V2ZM55,2V2ZM53,2V2ZM51,2V2ZM49,2V2ZM45,2V2ZM34,2V2ZM31,2V2ZM23,2V2ZM22,2V2ZM20,2V2ZM19,2V2ZM18,2V2ZM17,2V2ZM11,2V2ZM6,2V2ZM4,2V2ZM0,2V2ZM105.5,4.5h.8L106,6l-.5,1.5.333.777L105,8q-2.5,1-1,2v1l1.5-.5L104,10l2.045-1.228L107,11l.5-2.5-.5-.835v0L106,6l1.222-2.035L108,7.337v0l.268,1.163H107.5L108,10l.363-1.09.136.591L108,11c.038-.015.075-.031.112-.048q-.059.082-.112.166v0A4.013,4.013,0,0,0,108,15v0l1.5-4.5h-.683q1.494-1.348.683-5L107,2a3.057,3.057,0,0,0-.873-.156Q104.614,1.844,105.5,4.5ZM107,3l.115.5h-.282Zm4,0V3Zm-7,0V3Zm-2,0V3ZM99,3V3ZM98,3V3ZM96,3V3ZM90,3V3ZM86,3V3ZM82,3V3ZM80,3V3ZM66,3V3ZM64,3V3ZM60,3V3ZM58,3V3ZM50,3V3ZM49,3V3ZM45,3V3ZM25,3V3ZM22,3V3ZM20,3V3ZM16,3V3ZM7,3V3ZM6,3V3ZM4,3V3ZM3,3V3Zm55.5-.5-.6,1.8L57,4V5l.749-.25-.25.75L59,7l.5-4.5Zm-2,0L56,5l1.5-2.5ZM109,4V4Zm-4,0V4Zm-1,0V4Zm-1,0V4ZM98,4V4ZM97,4V4ZM91,4V4ZM89,4V4ZM86,4V4ZM80,4V4ZM79,4V4ZM74,4V4ZM73,4V4ZM71,4V4ZM69,4V4ZM66,4V4ZM62,4a1.428,1.428,0,0,0-.5.494Q61.744,4,61,3.5v0A5.544,5.544,0,0,0,60,3q-1.124.749,0,1.5v0A5.545,5.545,0,0,0,61,5a1.426,1.426,0,0,0,.5-.494.615.615,0,0,0,.193.745A2.242,2.242,0,0,0,61.5,5.5L63,8v.5q-1.127.751,0,1.5v.887a4.814,4.814,0,0,0-1-.091V10l.5-2.5h-1L62,10v.8a3.234,3.234,0,0,0-.651.077A2.543,2.543,0,0,0,61.5,10.5L60.178,9.472,61.5,10,60,6V6l-1.53,2.143-.651-.506L58.5,6.5h-1l-.154.769L57,7l-.5.5.668.668L57,9l.374-.625.541.541L57.5,9.5,58,11l.6-1.2q.536,1.847-1.6,1.2v1l.5,1.5L58,15l1-1.669v0l.5-.833L57,12a6.873,6.873,0,0,0,2.727.059,3.652,3.652,0,0,0-.228.441L60,14l.5-2q3-1.3,2,2.5L62,16a3.2,3.2,0,0,0,1-.729V16l-.5,2.5.5.5-.5.5L62,22l-1-4,1,1v0l.5-2-1.255.313q.458-.406.257-.812l.5.5V14l-2.5.5.314.314A2.375,2.375,0,0,0,59,14.769v0a.8.8,0,0,0-.733.732H56.5L57,17v0l.5-1.5-.428,3L56,16l-.5,2.5.5,1.166v0L57,22v0l.5-2.5-.248-.578A1.924,1.924,0,0,0,58,18.45v0a2.31,2.31,0,0,0,.58-1.422q.222.071.421.12V18l-1.5,1.5L58,22l.5-2q2.7-1.1,2,1.5a3.916,3.916,0,0,0-.421.263L60.5,20.5h-1l.453,1.361q-.9.747.047,1.532v0a4.574,4.574,0,0,0,.816.516A6.1,6.1,0,0,0,60.1,26.05L60,26l.072.217Q60.021,26.6,60,27l-1-4-.5,7.5-1,2h1a1.793,1.793,0,0,0-1,1.013V29.5L56,28v0H55v0H54v0l-2-1.2v0l-2-1.2v0L49,25v0H48v0H46l1.5-.5L46,24v1H43l2.5-.5L43,24l1.5-.5L43,23v2H40l2.5-.5L40,24v1H39v0H38v0H37v0H36v0l-1-1-1,.5V24l2.5-.5L34,23v1.5L31,26q1.127-.75,0-1.5v0a5.52,5.52,0,0,0-1-.5h0v0l-.5-1H29V22q1.127-.749,0-1.5v0a5.586,5.586,0,0,0-1-.5q-1.124.749,0,1.5v.3L26,19l-.856,1.285L25.5,18.5h-.429A1.108,1.108,0,0,0,25,16.653v0A4.924,4.924,0,0,0,24,16l1.5-.5L24,15v1q-.488.9-.992.979L23.5,15.5h-1l.495,1.48q-.729.105-1.494-1.48L21,14l-1,1v0l-.5.5-.087.788A4.986,4.986,0,0,0,19,15.5V15l.5-2.5h-1A1.417,1.417,0,0,0,18,12a6.331,6.331,0,0,0-.825.391L16,12l.5-2.5h-1L16,12v1l.657-.219a.6.6,0,0,0-.156.719h-1L16,15l.5-1.5a.981.981,0,0,0,.187.248Q16.061,14.376,17,15a5.581,5.581,0,0,0,1-.5V15a1.406,1.406,0,0,0-.5.5V17l1.886-.473-.108.973H18.5L19,20l-1-3-.405,8.116q-.436-.67-2.094-.117a4.4,4.4,0,0,0-.247,1.152L15,26l-.5,2,3-.5-.565-.338Q17.2,27.1,17.5,27v2.5l-1,1L17,29l.5-.5L17,28l-1,1-1.5-.5V32l2-.5-.074.52L14.5,32.5l.5.5a1.412,1.412,0,0,0-.5.5L14,33l-.5.5,2,3v2h-.4l.4-2h-1l.4,2H14q1.126-.75,0-1.5v0a5.552,5.552,0,0,0-1,.5v0q-1.125.751,0,1.5.3-.121.546-.241a6.366,6.366,0,0,1-.035,2.766A1.361,1.361,0,0,0,13,41l.5-1.5h-1L13,41a5.547,5.547,0,0,0-1,.5v0q-1.124.75,0,1.5a5.2,5.2,0,0,0,1.076-.552A2.81,2.81,0,0,1,11.5,43.5L14,44l.367,1.1A2.181,2.181,0,0,0,13,44l-.75,1.249.25-.747h-1l.428,1.285L11.5,46.5q1,.5,1,1L11,47v1l1.5-.5q0,.5-1,1h-1L11,50v0l.5-1.5-1,6-1,1a4.506,4.506,0,0,0,.667,1.221L9.5,56.5l.45.55L9.5,57.5,11,59v0l.5.5,2.8,3.6L14,63q-1.123.751,0,1.5v0a5.546,5.546,0,0,0,1,.5l6,5.251v0l1,.875v0L23,72v0h2v0h2v0h2l1-1v0l2,.667v0L33,72h5v1l5.5.5L38,73l-1-1H27.5q-.776,1.94.5,2.207v0a3.025,3.025,0,0,0,1,0v0A7.891,7.891,0,0,0,30,74a2.424,2.424,0,0,1,1-.989V74l5-.454V74H32v1h3v0h1v0h1v0h1v0h1v0h1v0l1-.428V75l3-.667v0l1-.222v0L45.5,74,45,72l1,2,1-1v0q.518.086,1,.136v0q3.423.354,5-1.135l3,1v0l2.407-1.445L59,72l2-1,2.5,1a4.364,4.364,0,0,0,.248-1.165A2.791,2.791,0,0,0,65,71.193v0A7.124,7.124,0,0,0,67,71l3-1,3,3,1.5-1q-.25.5.5,1l1-.6v0l1.5-.9L76,71h2v0h1v0l.714-.286L80,71v0l1,1v0l.5-2h-.006L83,69.4v.1q-1.124.75,0,1.5v0a5.588,5.588,0,0,0,1-.5v0a1.432,1.432,0,0,0,.5-.493q-.24.5.5.992a5.586,5.586,0,0,0,1-.5v0q.745-.5.5-.993A1.434,1.434,0,0,0,87,70q2.5-1,1-2l1-1v0l.5-.5L89,66l-1.5,1.5A1.411,1.411,0,0,0,87,67a4.468,4.468,0,0,0-.859-.142L88,65v0l.789-.789a8.191,8.191,0,0,0-.283,1.712l2-1.425V63a1.421,1.421,0,0,0,.5.5v0a5.555,5.555,0,0,0,1,.5l-1,1v0l-1.5,1.5.5.5,2-2v0l.5-.5L92,64q1.127-.75,0-1.5v-.186q.95-.146.5-1.813l.734-2.2.267,1.2L93,61a3.125,3.125,0,0,0,1,.167v0q1.089-.049.5-1.666a2.348,2.348,0,0,0,.622-.468L95,60l2.5-1.5Q96.8,56.2,99,57a5.553,5.553,0,0,0,1-.5v0q1.051-.7.138-1.4a3.49,3.49,0,0,0,.361-.6v-3l2.167-6.5L103,46l.5-1.5h-.667l.667-2h-.667l.667-1v-4l1-1,.182-1.454L105,36l.5-1.5h-.751l.751-6,1-1-1.332-.333.333-.667v-.717A5.5,5.5,0,0,0,106,27l1-2.33v0l.5-1.169v-6h-.429l.429-1v-3q-.436-.654-.872-.548L107.5,11.5H106v0h-1.5l.5.833V12.5a5.552,5.552,0,0,0-1-.5,1.415,1.415,0,0,0-.5.5h-1l.365,1.1q-.918.7.134,1.4a5.572,5.572,0,0,0,1-.5V15l1.5-.5-1.089-.362a.668.668,0,0,0,.146-.328q.2.1.441.191.548-.365.563-.73l.288.479a6.624,6.624,0,0,0-.349.75q.8,3.3-1,4l1.25,1.25a1.968,1.968,0,0,0-.75-.062v0q-.608.093-.642.813h-.429l.571-4q-.609-.914-1.219-.341l.22-.658h-1l.391,1.175a6.371,6.371,0,0,0-.391.825l.5,1h-.5L103,20l.3-.9.2.4-1,1v1h-1l-.5,1v0l-1,2v0l-.5,1,.391,1.173a6.349,6.349,0,0,0-.391.825l.25.75L99,27l-.778,1.168A2.315,2.315,0,0,0,98,28a5.553,5.553,0,0,0-1,.5v0q-1.127.75,0,1.5a3.938,3.938,0,0,0-1-.144v0q-1.408.031,0,2.144a3.533,3.533,0,0,0-1-.106v0q-.713.049-.827.606H93.5q1.709-.853.5-1.708v0a3.868,3.868,0,0,0-.5-.292L92,28v0l-.5.5L91,28l-.5.5L90,28l-2.5,2.5.5.5,1.251-1.25L87.5,31.5a3.522,3.522,0,0,1,.61.39l-.61.611.5.5.494-.165Q88.276,33.408,87,34l-1-1,.5-.5L86,32l.5-.5L86,31l-2,2v0l-1,1v0l-1.5,1.5.5.5,1-1v0l.5-.5.5.5.91-.909L83,36l-1.5.5.5.5a2.927,2.927,0,0,0-1-.149v0a.961.961,0,0,0-.96.855L80,37.6v0L79,35l-.5,3-5,2,5-2V30h-.026a.776.776,0,0,0,.124-.232L79,35l.5-6.5h-1l1-1v-7L80,25v0l.5-4.5H79q1.125-.749,0-1.5l-.143-.428L79.5,17.5l0-.006L80,18l.421-4.21L82,16l-.5-1.5-1-2q1.8-.7,1-4h-.332l1.333-2v-2h-1q.7,2.6-2,1.5V9L79,8l-.936,1.56L78.5,6.5h-1l.463,3.228L77.5,10.5h1L78,11l-1.174-.392q-.121-.5-.327-1.108h-.835a9.694,9.694,0,0,0-.166-1A1.413,1.413,0,0,0,75,8l.5-.5L75,7,72.5,9.5l.5.5.5-.5,1,2L74,13a2.406,2.406,0,0,0,1.106-.748L75,13a2.9,2.9,0,0,0,1,.149v0a1.421,1.421,0,0,0,.2-.026,6.2,6.2,0,0,0,.637,1.576l-1.335.8.77.192L75.5,16l.5,2q-.5,0-1-1v0l-.5.5A1.414,1.414,0,0,0,74,17a4.148,4.148,0,0,0-.939-.145l.5-1.168L74,17l1-1.668v0l.5-.833q-.666-1-1.332-.222L74.5,13.5l-3-.5.928,2.476L71,15v1h0a1.409,1.409,0,0,0-.5.5l-.132.658Q70.2,17.08,70,17q-1.169.778.088,1.556L70,19l-1.5,4.5,1,1,.428,3.429L69,27l.5,1.5-.273.454L68.5,27.5l1-2L67.263,24.16a.744.744,0,0,0,.424-.471L69,25l-.5-1.5L68,21v0l-.325,1.627A5.978,5.978,0,0,0,67.5,22L67.484,22q.524-.615.016-2.494L67,19v-.632Q68.366,17.185,66,16l.5-1.5h-1L66,16v3a4.864,4.864,0,0,0,1-.632V19l-.5.5L65,19v1l1.5-.5L65,21v0l-1-1,.5-1.5-.333-.555L65.5,17.5,64,17v.666L63,16v-.729a2.863,2.863,0,0,0,.617-1.1A1.815,1.815,0,0,0,64,14.5v0a5.537,5.537,0,0,0,1,.5q.854-.571.413-1.139L66.5,13.5,65,13v.5a5.588,5.588,0,0,0-1-.5,2.41,2.41,0,0,0-.218.164c0-.077,0-.155,0-.235L65.5,12.5,64.163,9.382Q65.035,8.692,64,8V8a5.521,5.521,0,0,0-1,.5V8l.5-1.5a7.12,7.12,0,0,0-.3-.652Q64.311,4.926,62,4V4Zm1.932,5.544-.271,2.169Q63.6,11.37,63.5,11c-.171-.046-.338-.083-.5-.114V10A5.805,5.805,0,0,0,63.932,9.544ZM79.5,11.182V12.5l.165.231q-1.743-.378-1.164,1.77,2,1,0,2l.5.5a.582.582,0,0,0-.688.126l-.481-.96L78.5,15.5,78,15l-.386.154L78,14l-.5.3,2-2.8-.819.273A2.925,2.925,0,0,0,79.5,11.182ZM105,12.333l.178.3c-.054-.043-.113-.086-.178-.129Zm-1.555.337a.614.614,0,0,0,.168.5q-.222.1-.4.205ZM18.559,12.8,19,15v.5q-.5-.75-1-.5v-.5q.939-.626.313-1.25A.762.762,0,0,0,18.559,12.8ZM72.444,15.52l.5,1.339a.642.642,0,0,0-.6.291A4.609,4.609,0,0,0,72,16.5v0q-.418-.627-.836-.556Zm-11.757.168L61,16q-.133.053-.255.107A3.2,3.2,0,0,0,60.686,15.688Zm16.98.647.483.965a4.608,4.608,0,0,0-.65,1.2l.366,1.1a1,1,0,0,0-.417.549L77,17q-.5,1-1,1ZM21.5,17v3L21,18.5v0L20.5,17H21v0Zm37.5.146a3.945,3.945,0,0,0,.438.083q-.016.385.561.771a6.937,6.937,0,0,0,.686-.313L61,18q-1,2-2,0Zm13.316.463A4.268,4.268,0,0,0,73,19q.316-.126.568-.252Q74.138,21.046,71,20a5.512,5.512,0,0,0,1-.5v0q1.124-.749,0-1.5-.239.1-.441.191a.539.539,0,0,0-.025-.111Zm6.5,1.026L79,19q-.3.121-.543.241Zm-8.392.107q.089.045.185.089Q70.124,19.418,71,20a1.411,1.411,0,0,0-.5.5h0L70,19Zm36.074.091V23.5a2.5,2.5,0,0,0-.415.245L106.5,22.5h-1l1-2.5q-.228-.092-.431-.159ZM24.578,18.9l.345,1.718L24,22v0l-.438-2.189q.2.094.438.189.779-.518.48-1.037ZM77.5,20.5v0h0Zm26.875.38a4.439,4.439,0,0,0,.126.623l-.91,2.732A.954.954,0,0,0,103,24l.5-.5.3-2.1.2.6ZM28,21.5a5.545,5.545,0,0,0,1,.5v1H25.5l3-.5-.5-.7Zm45.5,0a6.451,6.451,0,0,1,1.244,4.071A6.412,6.412,0,0,0,73.489,21.5Zm-2.263.143a6.477,6.477,0,0,0,.726.341l-.06,0A.958.958,0,0,1,71.235,21.645ZM63,22l.5.5,1,2Zm42.5.5.451,1.354a1.565,1.565,0,0,0-.451.659ZM25.5,23Zm-2,0-.5.25V23Zm-2,0H23v.25l-.5.251-1-.334Zm81,.5-.314.942A4.625,4.625,0,0,0,101.5,25.5l-.158.788a.822.822,0,0,0-.585-.351Zm-80,0-1,.5v-.167Zm43,.5a3.393,3.393,0,0,0,1.5.231V25Q65.8,25.32,66,27h-.5Zm3.305,1.969A4.128,4.128,0,0,0,68.5,25a3.871,3.871,0,0,0-1.326-.044Q69.014,24.523,68.805,25.971Zm5.938-.375c0,.033,0,.065,0,.1C74.744,25.662,74.744,25.628,74.743,25.6Zm0,.143c0,.023,0,.047,0,.071C74.745,25.786,74.745,25.763,74.745,25.739Zm0,.14v0Zm29.216.007L104,26l-3.5,2.5-.214.643-.186-.31L101.2,27l-.2,1ZM62,27l-.474-.237A4.9,4.9,0,0,1,62.5,27q1,1-1,2-.057-.085-.11-.167Q63.373,27.917,62,27Zm1.3-.229a8.262,8.262,0,0,0,.2,1.73L65,28q3-.5,3.5,1.5L66,28q-1.5,1,1,2l-1.5-.5L65,28l-1.5.5A8.262,8.262,0,0,1,63.3,26.771ZM38.5,27h1v2l-.3-.6.3-.9h-.75Zm-19,.5a2.133,2.133,0,0,0-1.247,2.042A2.133,2.133,0,0,1,19.5,27.5Zm55.069.555v0Zm-.022.146,0,.024Zm-.048.3c.009-.051.017-.1.025-.152C74.516,28.4,74.508,28.45,74.5,28.5Zm4,0Zm-56.941.271A4.209,4.209,0,0,0,20.5,29,1.233,1.233,0,0,1,21.559,28.771Zm.887.212L22.5,29v.026C22.482,29.011,22.464,29,22.446,28.983ZM99,29l1.2.4-.2.6ZM20.5,29q.5,1.5,0,2Q20,29.5,20.5,29Zm7.75,1,.25.5-1,1Zm40.314.062L68,31l-.5-.3Zm1.64.069.3,2.367A4.348,4.348,0,0,1,70.2,30.131ZM20.5,34.5l-4-4,4.335,4.335a2.407,2.407,0,0,0-.148.237Q20.6,34.8,20.5,34.5Zm38.7-3.828h0Zm.324.029c.05.008.1.018.155.03C59.621,30.721,59.569,30.711,59.519,30.7Zm.221.045A5.423,5.423,0,0,1,60.5,31,5.423,5.423,0,0,0,59.741,30.748ZM44,31q3-.5,3.5,1.5L49,35l1-2,3.5,5.5L56,46l-2.5-7.5L50,33l-1,2-3-4-1.874.375Zm56,0,.125.5H99.9ZM20.5,31q-.5.5-2,0Zm82.2.058-.2.44A.674.674,0,0,1,102.7,31.059ZM27.5,41.5v0L29,44Zm75-10,.11.332A.6.6,0,0,1,102.5,31.5ZM97,32q1.877-.655,1.689.757L98.5,32l-2.248,1.123ZM24,32q2.5,1,1,2a8.458,8.458,0,0,0-1.57-.205l2.069-.3-3-1.5Zm34.438.248q.027.121.061.251Q58.464,32.371,58.437,32.25Zm41.906.127.142.568A1.042,1.042,0,0,1,100.343,32.377ZM93.5,32.5,94,35l-.5,3.5Zm-4,0v0Zm-19,0,1,1A2.18,2.18,0,0,1,70.5,32.5Zm32.366.1L103,33q-1.968.656-2.477,0Zm-86.535.063-.139.973c-.028-.022-.057-.045-.087-.068ZM99.1,33.5,99,34l-.126-.5ZM70,34l1.5-.5-3,2A1.925,1.925,0,0,1,70,34Zm24.3-.5A8.585,8.585,0,0,0,95,35l.287-.431a10.655,10.655,0,0,0-.155,1.932H94.5L95,38l.207-.623A3.254,3.254,0,0,0,97,40l-.9-.3L95,38.877v0l-.5-.376L94,35Zm6.2,1.5q1-2,2-1v4l-.466-.7.466-2.8L102,34l-1.3,1.3Zm-61-1h0Zm-2,0h1v1.5L38,34l-.295.413Zm20,3.5V34.785A5.519,5.519,0,0,0,58,36a5.239,5.239,0,0,0,.972-.464Zm39-2.5,3.6.9-.6.6h0ZM16,35ZM39.5,35.5Zm-17,0-1,4Zm-1,0-.573.573c-.03-.18-.07-.371-.121-.573Zm47,2a5,5,0,0,1,0-2l.889,2.667A2.285,2.285,0,0,0,68.5,37.5ZM87,36v1a6.269,6.269,0,0,0-.84.4Zm0,0,2.5,1H87Zm14.5.5h0Zm-17,1-2,3ZM46,38q3-.9,1.5,3.5V38l-2.1.842A2.521,2.521,0,0,0,46,38Zm-2,0a2.283,2.283,0,0,0,.669.891l-.87-.29ZM18,38a3.067,3.067,0,0,0,2.421.062,1.114,1.114,0,0,1-.82.266A5.324,5.324,0,0,1,18,38Zm83.5,0a.693.693,0,0,1-.336.149Zm-65.188.081Q37.126,39.013,35,40H33.94ZM69.5,38.5h0Zm16,0h0Zm8,0,2.168,2.167L94,40l1.5.5L94,39l-.5-.029Zm-25,1a2.51,2.51,0,0,0,.842-.6L68.5,41q1.414-.558,1.984.006a3.642,3.642,0,0,1-1.289.32Q68.007,41.328,68.5,39.5ZM45,39h0Zm54.5,0h1v2l-.237-.474L100.5,39.5h-.75Zm-80,0h1v2l-.3-.6.3-.9h-.75Zm82,1.5.177-1.063a3.043,3.043,0,0,1-1.836,2.914l.09-.39L100,42ZM93,41l1-1-1.591,2.5H91.5L90,45a2.95,2.95,0,0,1-1.5-1.5L90,45l2.5-4.5-.941.314Q91.61,40.408,91,40a7.038,7.038,0,0,0-.687.314L90,40a3.1,3.1,0,0,0-.919-.152Q92,39.177,93,41Zm3.779-.79,1.788.993q-.042.143-.076.291ZM21.5,41.5q1-.5,1-1Q22.5,41,21.5,41.5Zm65-1,.1.5-.268-.446Zm-27,0v2l-.858,1.43ZM18.5,40.5Zm65,4q-1.136-3.335.312-3.625L83.5,41v4.5L85,47l-.222-.667a3.269,3.269,0,0,0,.648.411L85,47l-1.5-.5L86,48q-2.4.1-1,1l2.5-1.5L86,48q1.5-2.5,3,1l.617-1.146L90,49l.3-.5-.8,2L90,49l-1.444,2.165a.977.977,0,0,0-.421-.57l.366-1.1h-1l1-1L88,48q-.329.165-.614.329A1.82,1.82,0,0,0,87,48q-2.218.886-1.289,1.774a1.357,1.357,0,0,0,0,1.454,2.146,2.146,0,0,0-.212.273l.375.624L84,54l-.5-.5-.25-.75L84,54l1.5-2.5-.375-.875L85.5,49.5h-.857l-2.142-5Zm-13-3.475a2.663,2.663,0,0,1,.277,2.214Zm27.987.477a5.249,5.249,0,0,0-.09.521l-1.355.339-.214-.533L97,42ZM86.5,42q-1.532-.51-2.022.022Q84.869,41.337,86.5,42ZM37,42h4l-4.332.482A2.433,2.433,0,0,0,37,42Zm61.372.319A9.185,9.185,0,0,0,99,46l.544-2.361q1,3.144-1.546,2.361v1H97v-.687q.948-.146.5-1.812L98,46l.5-1.5h-1ZM81.166,42.5v0h0ZM47,43a13.473,13.473,0,0,0-2.021-.413,4.733,4.733,0,0,1,2.193.462C47.116,43.033,47.059,43.016,47,43Zm-10.462-.385.161.484-1.2.4.332.167L33.5,43a4.666,4.666,0,0,1,.071.78A4.666,4.666,0,0,0,33.5,43a5.34,5.34,0,0,0,1.372.2A2.33,2.33,0,0,0,36.538,42.617Zm63.231.053a2.489,2.489,0,0,1,1.034,1.817q-.116-.456-.3-.985h-.922Zm-11.457.238c.054.182.114.373.182.571A3.264,3.264,0,0,1,88.311,42.907Zm-20.222.025L68.5,43l.7,1.056A5.226,5.226,0,0,0,68.089,42.933ZM40,43a2.908,2.908,0,0,0,.5.749l-1-.5Zm41.5.5,1,3V51a1.338,1.338,0,0,0-.448-.465L82.5,46.5h-1Zm20,1,.665-1L101,47Zm-14.8-.869.272,2.182-.443.266a1.1,1.1,0,0,0-.4-.485L86.5,44.5h-1l.29.87A6.483,6.483,0,0,0,85,45l.5-.5-.313-.314a2.9,2.9,0,0,0,.565.063A.859.859,0,0,0,86.7,43.633Zm10.205.1L97,44a4.714,4.714,0,0,0-.512-.11ZM38.5,43.751A.721.721,0,0,1,38,44ZM77.5,44h1l-.376.376-.625-.209Zm-17,0,1.539.77L62,45l-1.5-.5ZM57,44l1.332.446L58,45l-1.286-.428ZM42.5,44l4,1-.375.375-3.75-1.25Zm44.75.25.25,1.25-.468.281Zm-50,.126.25.125-.832.166Zm57.964,0a1.735,1.735,0,0,0,.036.87L95,45a6.329,6.329,0,0,0-.826.391l-.854-.284ZM48.5,44.5h0ZM23,45l1.5-.5L24,45l-1.5.5A1.416,1.416,0,0,1,23,45Zm46.5-.5.454.681-.883,1.1-1.618,1.079ZM78,46l2.5-1.5A1.926,1.926,0,0,1,79,46l-3.5,2.5ZM65,45q1.974-.658,2.481.006a3.457,3.457,0,0,1-2.471.026ZM41.5,45l.251-.251-.126.376Zm36.249-.25L77.5,45v-.167ZM48.5,46.5a5.919,5.919,0,0,0,.081-1.51l.585,3.511L49,48ZM16.5,45,21,47h2l1.5,1.5,1,2-1-1L23,47H21Zm50.991.022A1.718,1.718,0,0,1,67.5,46.5l-.358,1.072L66.5,48l.667.667L66.5,49.5V50l-1.347.674h-.023a.9.9,0,0,0-.773.184l.137.137a1.179,1.179,0,0,0-.136.683q-.215-.571,0-.82l-.022-.021A2.425,2.425,0,0,0,65,50l1.5-.5-4-2L66,49ZM22.5,45.5a1.981,1.981,0,0,0,.676,1.108Q22.223,46.055,22.5,45.5Zm69.213.225a.626.626,0,0,0-.214.771q-.427-.64-.856-.548l.107-.2L91,46ZM45,46l.75-.25L45.5,46v1l-.125.125Zm-8.5,2q-1.1-2.7,1.5-2a2.576,2.576,0,0,0,.144.241A8.667,8.667,0,0,0,36.5,46q.871,2.137-.576,2.144Zm6.068-1.931a2.356,2.356,0,0,1,.866.866Zm50.885.06q-.106.436.547.872l2.5-.5-.248-.249a1.979,1.979,0,0,0,.75.063V47l-1,.5v0l-1.768.884-1.005-.43L95.5,47.5,93,47v.857l-1.842-.789L91.5,46.5a1.414,1.414,0,0,0,.5.5ZM29.5,49.5,32,47l1.427-.713ZM78,47h3.5v-.5l.441,3.962A5.816,5.816,0,0,0,81,50a1.408,1.408,0,0,0-.5.5,2.113,2.113,0,0,1,1-1q.481-1.6-.552-1.921L81.5,47.5,78,47q-1.5.666-1.488,1.361Q76.5,47.667,78,47Zm-50.5-.5a7.5,7.5,0,0,0-.227,1.138l-.167-1.006Zm-10.227.048L18.5,47.5q-.356,1.121.04,1.489L18.5,49ZM62.5,47.5l2.4-.8.1.3Zm-32.414-.644h0Zm.391.032c.067.01.138.022.21.037C30.613,46.912,30.543,46.9,30.476,46.89ZM14.7,46.925l.205,1.439L14.5,48.5A9,9,0,0,0,14.7,46.925Zm43.8.576q.781-1.17,1.559.091L60,48ZM24,47h0Zm32.5,0v1.165L56,47Zm-1,0H56l-.2.6Zm-14,0,.5,2a6.636,6.636,0,0,0-1-1.22v-.665Q41.241,47.071,41.5,47Zm-.5.115v.665a6.014,6.014,0,0,0-.708-.579A4.9,4.9,0,0,0,41,47.117Zm50,.216V48l2,1-2.42-.969ZM60.5,48a3.449,3.449,0,0,1,1.377-.325A6.214,6.214,0,0,0,60.5,48Zm-15.749-.25L44.5,48l-.125-.125ZM78,48l.5,1.5Zm-34.756.061A4.145,4.145,0,0,1,42,49Q42.622,47.756,43.245,48.061Zm17.2.3.057.14,2,3A2.818,2.818,0,0,1,60.442,48.36ZM75.5,48.5q1,.5,1,1Zm-46.167.042c.008.025.016.05.024.075C29.348,48.592,29.34,48.567,29.332,48.542Zm.025.076.025.073ZM38.475,49H36Q37.963,48.347,38.475,49ZM62.5,49a3.414,3.414,0,0,0,.142-.32,3.062,3.062,0,0,1-.049.413ZM44.98,48.795c-.05,0-.1,0-.159.008C44.877,48.8,44.93,48.795,44.98,48.795ZM45.5,50.5q.576-1.651-.451-1.7Q46.074,48.848,45.5,50.5ZM29.473,48.935,29.5,49Zm-1.979.035.026.031H27.5ZM99,49l1.2.4-.2.6-1.071-.356ZM53,49l.125.5H52.75ZM41.5,53,41,49l1,4,.172-.69q0,1.18,1.828.69l.5,1.5Zm-9-4v0Zm-10,0v2l-.4-.4.4-1.6-1.6.4-.4-.4Zm15.993.023A1.72,1.72,0,0,1,38.5,50.5l-.116.349A2.4,2.4,0,0,1,38.492,49.025ZM68.5,49.5l-1,1.5-.251-.251Zm19,0,.29.87A6.483,6.483,0,0,0,87,50Zm-9,0-1.932,3.381a1.081,1.081,0,0,0,.065-.27Zm-2,2,1-2-.857,3A3.361,3.361,0,0,0,76.5,51.5Zm-19-2,1.409,2.537q-.7.223-1.409-1.538l-.428-1Zm19,0a.64.64,0,0,1-.159.4Zm-27.133.2.133.8-2,2ZM96,50q-1,2-2,0l-2,2-2.5-1.5L92,52l2-2q.5,1,1,1T96,50Zm-66.944.794-.066,0Zm.048,0a2.393,2.393,0,0,1,.554.1A2.392,2.392,0,0,0,29.1,50.8Zm.752.156.005,0Zm.008,0L30,51ZM82.5,52.5q-1.755-.751-2-1.5A2.83,2.83,0,0,0,82,52a1.414,1.414,0,0,0,.5-.5h0l.45.75L82.5,54.5a2.106,2.106,0,0,1,1.246,2.226A12.43,12.43,0,0,0,83.5,55.5h-1v0h-.6ZM56.5,51Zm-14,0L46,52Zm-31,0h0Zm3.973.066c-.024.06-.046.118-.067.175C15.427,51.186,15.449,51.128,15.473,51.068Zm83.287.095A5.216,5.216,0,0,1,98.5,53.5Zm-83.362.1q-.668,1.848.644,1.88Q14.73,53.114,15.4,51.266Zm47.1.236v6l-1,3,.5.9v0L64,65l2.5-.5a2.592,2.592,0,0,1-.924-.924L67,65l1.5-.5.5.5,0,0-.5.5.5.5-1.5-.5v.838A2.256,2.256,0,0,0,67,66v0a3.709,3.709,0,0,0-1.666-.332L66.5,65.5,63,65l-.5-1.5L62,62l-.5,1.5a12.988,12.988,0,0,0-.378-2.372L61.5,60.5q-.386-.578-.772-.562a7.588,7.588,0,0,0-1.259-2.095l.2-.065L61,60l-.5-1.5-.6-.8.6-.2L61,59l.5-4,.5,3Zm-43.847.072.257,1.791-.41.137A10.1,10.1,0,0,0,18.652,51.574ZM97.658,52q.412,1.472-.157,2A4.73,4.73,0,0,0,97.658,52ZM88,52ZM60.5,52v2l-.3-.6.3-.9-.2-.5ZM55,52Zm-1.5,0,.441,1.765L53.5,54.5q.415-1.54-.364-1.781L53.5,52.5l-.681-.227Zm10.93.209q.029.138.07.29l-1,2.5Zm-35.967.165.021.072ZM70.5,52.5l.645-.064L71.5,53.5l.3.9-.3.1Zm15.562-.063.731,1.218q-.725.608.03,1.216L86.5,55v1.5a4.507,4.507,0,0,0-.667-1.222l.667.223ZM65.5,52.5h.113a5.61,5.61,0,0,1,.132,1.368A6.72,6.72,0,0,0,65.5,52.5ZM47.5,52.5Zm-19,0q-.443,1.773-2.848,1.582Zm-6,0,.589.295A.716.716,0,0,0,22.5,53Zm64.934.2q.265.151.566.3a6.409,6.409,0,0,0-.79.371ZM94,53a2.119,2.119,0,0,0,1.2,1.06L95,54l-1.667-.833ZM50.5,53a.532.532,0,0,0,0,.5h-1L49,57l-1-1,1.5-3ZM17,53l4.5,5.5v2h-.857l.857-2L17,53l-.131.034Zm-.209.052c-.063.015-.125.027-.184.039C16.666,53.081,16.728,53.068,16.791,53.054Zm59.671.014L74.5,56.5q.814,1.223,1.629-.209L77,56q.167-.045.319-.076-.152.031-.319.076l-3,2.142V57l-.716.43L72,57l-1,.715v-.33l1.685-.907A6.4,6.4,0,0,1,70,56l-2.5-1,6,1-.346-1.385L73.5,54.5a1.855,1.855,0,0,1-.021,1.551L74.5,55.5,74,57l2.261-3.769A.627.627,0,0,0,76.461,53.068Zm-59.994.047a2.6,2.6,0,0,1-.381.031A2.6,2.6,0,0,0,16.468,53.115Zm75.9.295A3.28,3.28,0,0,0,91.5,54.5v0h-1V54H90ZM20.5,53.5v3l-.409-2.863Zm78,0A2.588,2.588,0,0,1,97,55l-2,1-2.5-1L95,56Zm-48,0a1.419,1.419,0,0,0,.5.5l-.4.6A6.728,6.728,0,0,0,50.5,53.5Zm1.244.05L53.5,57.5,51,54Zm37.527.084L90,54H89l-1,.4ZM33.5,54H34l-.333.333Zm64,0q-.543.5-1.972.148a3.1,3.1,0,0,0,.6.056A5.323,5.323,0,0,0,97.5,54Zm-7,.5q.652,1.961,0,2.475Zm-37,0,2.513,1.6H55.9A2.144,2.144,0,0,1,53.5,54.5ZM44.5,54.5ZM24.5,59l-2-4.5L25,59l.5-1.5V58l2.1-.841A2.517,2.517,0,0,0,27,58l-1.5.5.273.819Zm22.045-4.09L48,56l-.5.5ZM85,55h0ZM67.5,55a4.024,4.024,0,0,1,.083.815A4.024,4.024,0,0,0,67.5,55Zm-4,0ZM37,55l.715.429-1.142-.286ZM13.5,55l-2.005.5.4.6-.4.4V55Zm20.995.3V56l-.206-.412Zm43.414.556a2.692,2.692,0,0,0-.387.031A2.623,2.623,0,0,1,77.913,55.857Zm.023,0q1.408.017.591,2.078Q79.344,55.873,77.936,55.857Zm21.148.1A4.592,4.592,0,0,1,95.5,56a7.77,7.77,0,0,0,1.958.286A3.769,3.769,0,0,0,99.083,55.96ZM46,56l1.5.5L47,57l-1.2-.4Zm-2.5,0h.219q-.053.108-.105.228ZM26,56l1.441.479L27,57l-1.2-.4Zm54.5.475V56.5l-.008.006ZM12.165,56.5l1.334,2v2Zm74.335,0V58l.395-.1-1.4.6,3,1L86,59l.5,1.5.3.9-.3.1L86,60l-.5,1.5L85,61l-.5.5a6.621,6.621,0,0,0-.356-.762l.569-1.024L85,60l-.167-.5L86,57.4v0ZM56,57l.876,3.5H56.5Zm0,0a5.87,5.87,0,0,1-3.448,2.587Zm-6.5,2.5L52,57l1.5.5L52,57ZM28,57h0Zm62.447.014a1.038,1.038,0,0,1-.572.143Zm-47.781.057Q42.97,58.6,41,58a4.494,4.494,0,0,0-1.222.666L40,58l-.265-.147,1.515-.3L42,58Zm1.835.1V58l-.227-.454Zm26.5.218v.33L68.5,59.5l.312-.939ZM79.5,60.5l2-3ZM72,58l.748-.249L71.5,58.5A2.948,2.948,0,0,0,73.008,60H73Q70.5,59,72,58Zm-61.373-.122L12.771,60.5H12.5Zm34.095.178L44.5,58.5l.208.417a2.544,2.544,0,0,0-1.954.833L42,60ZM65.5,58.5v4.941Q64.653,61.818,65.5,58.5Zm18.25.25.416.417-.127,1.395q-.413-.651-.825-.622A2.631,2.631,0,0,0,83.75,58.751ZM66.5,59ZM28,59l.5,3L31,61l3,1,1-1,.5.5L34,62l-3-1-2.5,1ZM15.5,59h1v2l-.3-.6.3-.9h-.75Zm24,.5h0Zm31,.5-2-.5,2,.5a3.4,3.4,0,0,1,0,2.548A6.236,6.236,0,0,0,70.5,60Zm-21-.5,1.829.365A11.962,11.962,0,0,1,50,60Zm41.79.07q.091.45.21.929h0A1.41,1.41,0,0,0,91,60l-.625-.125ZM44.5,61.5l.666-1.668.333.667-.8,1.6ZM25.944,59.834,26,60l-2,1ZM89,60l.5.5L88,61ZM76.5,60v2q-.5-.5,0-2Zm13,.5.466,1.4a6.3,6.3,0,0,0-.605.9l-.236-1.18A3.476,3.476,0,0,0,89.5,60.5ZM82.5,60.5Zm-61,0V61L25,62l-3.5-1a3.7,3.7,0,0,0-.291,1.133A4.782,4.782,0,0,1,21.5,60.5ZM42,61v0h-.006Zm17.5,0h.22q-.053.108-.105.229Zm-21,0L38,63l-.715-1.428L37.5,61.5,38,63ZM26,61h0Zm.333.111.868.29L27,62A2.29,2.29,0,0,0,26.332,61.112ZM85.5,61.5,85,63a6.91,6.91,0,0,0,2.046-.007,5.848,5.848,0,0,1-3.133.1Zm-1,0-2,2,.5.5.556-.557Q83.763,65.988,81,67l-1.5.751A2.915,2.915,0,0,0,80,67l3.5-2.5L82,64l-.682.455L79.5,64l3-.5-2-.5,3-.5-.333-.666ZM46,62l3.334-.445L45,63l-.2-.6Zm32.5-.021,0,.021-.03.01ZM90.5,62q.171.07.328.125a1.176,1.176,0,0,0-.328.373ZM17,62l.357.214L17.1,62.3Zm59.5,0a4.581,4.581,0,0,0,.805.249H77.25A1.02,1.02,0,0,1,76.5,62Zm-16,.167V63l-.227-.454Zm31.5.146V62.5c-.088-.059-.186-.117-.294-.175.034,0,.067,0,.1,0A1.288,1.288,0,0,0,92,62.314ZM58.7,62.346l.244,2.189q-.574.4-.5.8l-.355-1.064A3.036,3.036,0,0,0,58.7,62.346ZM19.5,64.5l-.938-1.562.938.563L22,67l1-1,.5.5L22,67ZM24,63l.051.118Zm0,0a2.911,2.911,0,0,1-2.318.1,1.712,1.712,0,0,0,.774.15A6.126,6.126,0,0,0,24,63Zm.14.314q.053.113.105.218Q24.192,63.427,24.14,63.314Zm.106.22q.677,1.357,1.354,1.493Q24.923,64.891,24.246,63.534Zm-7.371.092L17,64l-.749-.25Zm11.868.128h0Zm.053,0a2.2,2.2,0,0,1,2.185,1.207A2.2,2.2,0,0,0,28.8,63.755Zm-.549.024c-.078.007-.158.016-.24.027C28.089,63.795,28.169,63.786,28.247,63.779Zm41.684.154L70,64l-.449.448A4.51,4.51,0,0,0,69.932,63.933Zm-42.677.008-.053.012ZM68,64l.5.5-2-.5Zm-7,0,2,2-2.572-1.714Zm-5,0,1,1q-.5,0-1-1a2.841,2.841,0,0,1-2.345.083,2.018,2.018,0,0,0,.832.15A6.13,6.13,0,0,0,56,64Zm-29.03.052-.013.021Zm30.475.75A.673.673,0,0,1,57,65,2.787,2.787,0,0,0,57.444,64.8ZM74,65l.5,1.5Zm-2.5,0h1l-.374.375-.625-.208Zm-21,0a5.013,5.013,0,0,0-.28.882L50,65ZM44,66l1-1q-1.2,2.3-6,1Zm16-1a.643.643,0,0,1,.4.16ZM30,65l-.4.16A.643.643,0,0,1,30,65Zm0,0a.72.72,0,0,1,.5.249Zm30,0-.329.109A.6.6,0,0,1,60,65Zm-34.179.038-.068,0ZM58.5,65.5v0h0Zm25,.5,1.313-.438-1.129.806Zm-21,0-.517-.207q1.111,0,.517,1.705L65,70Q62,68.9,62.5,66Zm-34.7-.119L27.5,66q.5,1.5,0,2Q26.72,66.089,27.8,65.882Zm25.452.076a.819.819,0,0,0-.085,0A.819.819,0,0,1,53.249,65.958Zm.109.008q.678.1,1.356,1.423Q54.036,66.066,53.359,65.967ZM32.8,66.4l2.117.47q-.445.048-.921.127Zm52.7.1-1,1.5-.167-.334Zm-60,0a3.585,3.585,0,0,0-.144.924l-.2-.809Zm36,.5H57.054A10.123,10.123,0,0,1,61.5,67Zm-9.384-.186h0ZM78,67a2.287,2.287,0,0,0,.668.891l-1.811-.6ZM67,67ZM41,67l.5.5L40,68Zm15.937.032L55,68A5.577,5.577,0,0,1,56.936,67.033Zm-2.168.464q.06.122.121.254Q54.829,67.619,54.768,67.5ZM43.5,67.5a7.564,7.564,0,0,0-.257.956l-.137-.823ZM84,69,85.33,67.67A4.534,4.534,0,0,0,86,69a6.486,6.486,0,0,0-.789.371l.29-.871h-1l.365,1.1a1.238,1.238,0,0,0-.361.4q.24-.5-.5-.992a5.543,5.543,0,0,0-1,.5v-.1ZM54.893,67.76q.053.117.107.242Q54.947,67.877,54.893,67.76ZM79,68h0ZM74,68ZM59.5,68h1l-.375.375-.87-.29Q59.373,68.044,59.5,68Zm-32,0a1.019,1.019,0,0,1-.747.249A5.444,5.444,0,0,0,27.5,68Zm59.187.684.033.034a.631.631,0,0,0-.223.774A1.426,1.426,0,0,0,86,69,6.925,6.925,0,0,0,86.686,68.687ZM75.5,69v1l-.125.125-.336-1.01ZM49,69h6l1.177.882L56,70l-1-1Zm25.916.146Q73.984,70.669,71.5,70Zm-15.667.1L58.5,70q-.143-.072-.26-.144ZM46.5,69.5a3.581,3.581,0,0,0-.144.926l-.2-.81Zm-3.006.471.028.021L43.5,70Zm5.246.07A1.158,1.158,0,0,1,48.5,71ZM48.5,71a1.017,1.017,0,0,1-.744.249A5.39,5.39,0,0,0,48.5,71Zm25.75.25L73.5,72l-.187-.187ZM36,73v.454L31.014,73Q32.608,72.154,36,73ZM58,4V4ZM56,4V4ZM53,4V4ZM50,4V4ZM37,4V4ZM34,4V4ZM31,4V4ZM25,4V4ZM23,4V4ZM22,4V4ZM21,4V4ZM20,4V4ZM17,4V4ZM9,4V4Zm67.5-.5L77,7l.5-3.5Zm-22,0L55,5l.5-1.5Zm20,1,.4.936A5.95,5.95,0,0,0,74,5l-1.5.5,1.668,1H73.5L73,9l1.412-2.353L75,7a1.727,1.727,0,0,0,.416-.366L76,8V8l.5-2.5a5.542,5.542,0,0,0-.5-1v0q-.375-.562-.75-.562T74.5,4.5ZM105,5V5Zm-1,0V5Zm-1,0V5Zm-3,0V5ZM98,5V5ZM97,5V5ZM95,5V5ZM90,5V5ZM89,5V5ZM80,5V5ZM79,5V5ZM78,5V5ZM73,5V5ZM72,5V5ZM71,5V5ZM65,5V5ZM30,5V5ZM27,5V5ZM21,5V5ZM18,5V5ZM11,5V5ZM8,5V5ZM3,5V5ZM2,5V5ZM107,6V6Zm-2,0V6Zm-1,0V6ZM95,6V6ZM93,6V6ZM91,6V6ZM90,6V6ZM89,6V6ZM86,6V6ZM83,6V6ZM80,6l1.5-.5L80,5ZM79,6V6ZM78,6V6ZM54.5,5.5l.5.833v0L56,8V8l1.5-3ZM51,6V6ZM41,6V6ZM30,6V6ZM28,6V6ZM21,6V6ZM8,6V6ZM6,6V6ZM5,6V6ZM2,6V6ZM0,6V6Zm60.5-.5L61,8l.5-2.5ZM111,7V7Zm-4,0V7Zm-2,0V7Zm-1,0V7Zm-2,0V7ZM96,7V7ZM94,7V7ZM90,7V7ZM89,7V7ZM79,7V7ZM73,7V7ZM72,7V7ZM70,7V7ZM64,7V7ZM44,7V7ZM30,7V7ZM29,7V7ZM20,7V7ZM6,7V7ZM2,7V7ZM1,7V7Zm19.5-.5L21,9l.5-2.5ZM110,8V8Zm-5,0V8Zm-1,0V8Zm-1,0V8Zm-1,0V8ZM96,8V8ZM93,8V8ZM92,8V8ZM90,8V8ZM89,8V8ZM88,8V8ZM79,8V8ZM77,8V8ZM73,8V8ZM69,8V8ZM67,8V8ZM55,8V8ZM53,8V8ZM52,8V8ZM47,8V8ZM44,8V8ZM32,8V8ZM29,8V8ZM27,8V8ZM25,8V8ZM24,8V8Zm-6.5-.5.5.7v0L20,11l.5-4ZM16,8V8ZM15,8V8ZM11,8V8ZM7,8V8Zm14.5-.5.365,1.1q-.818.626-.069,1.252a7.058,7.058,0,0,0-.3.651L22,12v.667L21,11v0l-.5,1.5.5.836v0L22,15l.5-1.5-.5-.833V12l.727-1.211A2.168,2.168,0,0,0,23,11q.323-.13.58-.259L24,12l.5-1.5H24q1.123-.75,0-1.5V9a7.078,7.078,0,0,0-.651.295l-.038-.044Q23.938,8.626,23,8a6.477,6.477,0,0,0-.792.372L22.5,7.5Zm-5,0L17,9l.5-1.5Zm-3,0L14,9,13,8l-.5.5,2,3L15,16l.5-5.5L14,9l.5-1.5ZM96,9V9ZM87,9V9ZM72,9V9ZM67,9V9ZM66,9V9ZM55,9V9ZM51,9V9ZM48,9V9ZM44,9V9ZM32,9V9ZM29,9V9ZM28,9V9ZM27,9V9ZM26,9V9ZM25,9V9ZM16,9V9ZM15,9V9ZM10,9V9ZM9,9V9ZM0,9V9Zm76.5-.5L77,10l.5-1.5ZM106,10v0Zm-4,0v0ZM92,10v0ZM68,10v0Zm-1,0v0Zm-1,0v0Zm-9,0v0ZM43,10v0ZM32,10v0Zm-3,0v0Zm-1,0v0Zm-3,0v0Zm-4,0v0Zm-4,0v0Zm-2,0v0Zm-4,0v0ZM9,10v0ZM7,10v0ZM6,10v0ZM2,10v0Zm53.5-.5L56,11v.5q-.5-.749-1-.5l.5-1.5h-1L55,11a1.415,1.415,0,0,0-.5.5L56,15v0l.5-2.5a5.56,5.56,0,0,0-.5-1V11l.5-1.5Zm-38,0L18,12l.5-2.5ZM106,11v0ZM92,11v0Zm-1,0v0Zm-2,0v0ZM73,11v0Zm-1,0v0ZM57,11v0Zm-6,0v0Zm-1,0v0ZM32,11v0Zm-3,0v0Zm-1,0v0Zm-3,0v0ZM12,11v0ZM9,11v0ZM6,11v0ZM4,11v0ZM2,11v0Zm100.5-.5L103,12l.5-1.5Zm-84,0L19,12l.5-1.5Zm-2,0L17,12l.5-1.5Zm-4,0-1,3.5q2.1.827,2.337-.814L14,14l.5-2.5h-.767q-.088-.462-.234-1ZM110,12v0Zm-6,0v0ZM92,12v0Zm-3,0v0Zm-5,0v0ZM74,12v0Zm-1,0v0Zm-1,0v0Zm-4,0v0Zm-2,0v0ZM33,12v0Zm-5,0v0Zm-3,0v0Zm-2,0v0ZM12,12v0ZM8,12v0Zm11.5-.5L20,14l.5-2.5ZM110,13v0ZM96,13v0Zm-6,0v0Zm-2,0v0Zm-3,0v0ZM73,13v0Zm-1,0v0Zm-4,0v0Zm-6,0v0Zm-1,0v0Zm-7,0v0Zm-7,0v0Zm-3,0v0ZM34,13v0ZM24,13v0Zm-1,0v0ZM10,13v0ZM8,13v0ZM4,13v0Zm64.5-.5L69,15l.5-2.5ZM109,14v0ZM96,14v0Zm-8,0v0Zm-6,0v0Zm-7,0v0ZM61,14v0Zm-6,0v0Zm-8,0v0Zm-3,0v0ZM34,14v0Zm-8,0v0Zm-1,0v0Zm-1,0v0ZM8,14v0ZM4,14v0Zm-2-.5v0Q.873,14.25,2,15q.324-.13.58-.26L3,16l.5-1.5H3q1.123-.75,0-1.5A5.588,5.588,0,0,0,2,13.5Zm54.5,0L57,15l.5-1.5Zm-34,0L23,15l.5-1.5ZM4.5,14,5,16l1-.333v0l.5-.166L7,18l1-1.667v0l.5-.832a3.267,3.267,0,0,0-.5-.819v0a2.6,2.6,0,0,0-2.086-.888A5.521,5.521,0,0,0,4.5,14ZM101,15v0ZM89,15v0Zm-2,0v0ZM76,15v0Zm-5,0v0ZM55,15v0Zm-5,0v0Zm-3,0v0Zm-1,0v0ZM27,15v0Zm-1,0v0Zm-1,0v0Zm-1,0v0ZM11,15v0Zm2.5-.5L14,16v1l1.287-.43L15,18a2.756,2.756,0,0,0,1,.151v.35a5.537,5.537,0,0,0-.5,1l.5.5a1.413,1.413,0,0,0-.5.5V23q.266.108.5.181V24l1.5-.5-.545-.182q1-.113.545-1.818a6.11,6.11,0,0,0-.424-.88L17.5,18.5q-.749-1.124-1.5,0v-.35q1.348-.11.5-2.65h-1l-.187.937L14,16l.5-1.5Zm-10,0,.364,1.813q-.681-.835-1.363.187V18l2-.5a6.081,6.081,0,0,0-.424-.88L4.5,14.5ZM104,16v0ZM83,16v0Zm-4,0v0ZM64,16l1.5-.5L64,15ZM53,16v0Zm-7,0v0Zm-6,0v0ZM26,16v0Zm-4,0v0Zm-5,0v0Zm-4,0v0Zm-1,0v0Zm-2,0v0ZM9,16v0ZM0,16v0Zm104.5-.5L105,17v0l.5-1.5ZM108,17v0Zm-8,0v0ZM90,17v0Zm-3,0v0ZM70,17v0Zm-5,0v0Zm-1,0v0ZM50,17v0Zm-4,0v0Zm-6,0v0ZM28,17v0ZM17,17v0Zm-5,0v0Zm-2,0v0ZM9,17a1.413,1.413,0,0,0-.5.5l.219.658A.6.6,0,0,0,8,18v0a1.42,1.42,0,0,0-.5.5,3.084,3.084,0,0,1,.707.458Q7.6,19.208,7,18l-1.5.5,1.5.9v0L8,20q.207-.083.387-.166A2.291,2.291,0,0,1,7.5,20.5L8,21q-.5-.251-1,.5v0a5.544,5.544,0,0,0-.5,1L7,25v.119a3.854,3.854,0,0,0-.122,3.58,6.446,6.446,0,0,0-.378.8l.437,3.938L6.5,36.5,7,37a1.41,1.41,0,0,0-.5.5L7,41l.6-1L8,42l.5-2.5H7.9l.6-1a5.763,5.763,0,0,0-.473-.958L8.5,29.5h-1l1-1A1.42,1.42,0,0,0,8,28l.5-1.5H7.833l.667-2h-1a3.631,3.631,0,0,0-.5.618V25l1.5-3.5L9,22l.375-1.875L10,22l.5-3.5Q9.749,16.627,9,17v0ZM7.666,27,8,28a.6.6,0,0,0-.72.157ZM4.5,16.5,6,18l.5-2ZM0,17v0Zm108,1v0Zm-8,0v0Zm-6,0v0Zm-4,0v0Zm-7,0v0ZM46,18v0Zm-2,0v0ZM28,18v0Zm-2,0v0Zm-9,0v0Zm-6,0v0ZM5,18v0Zm21.5-.5L27,19l.5-1.5Zm-13,0L14,19v0l.5-1.5ZM111,19v0Zm-3,0v0Zm-6,0v0Zm-33-.5a5.555,5.555,0,0,0-1-.5q-1.126.749,0,1.5v0a5.55,5.55,0,0,0,1,.5q1.127-.749,0-1.5v0ZM65,19v0Zm-5,0v0ZM26,19v0ZM11,19v0ZM5,19v0ZM2,19l1.5-.5L2,18ZM0,19v0Zm79.5-.5L80,20l.5-1.5Zm-65,0L15,20l.5-1.5Zm-11,0L4,20v0l.5-1.5ZM111,20v0Zm-2,0v0Zm-1,0v0Zm-6,0v0Zm-1,0v0ZM73,20v0ZM55,20v0Zm-2,0v0Zm-3,0v0Zm-1,0v0Zm-3,0v0Zm-8,0v0Zm-5,0v0Zm-6,0v0ZM13,20v0Zm-1,0v0Zm-1,0v0ZM6,20v0ZM5,20v0ZM3,20v0Zm106,1v0Zm-7,0v0Zm-1,0v0ZM84,21v0ZM69,21v0Zm-7,0v0Zm-3,0v0Zm-4,0v0Zm-3,0v0Zm-1,0v0Zm-1,0v0Zm-1,0v0ZM38,21v0Zm-4,0v0ZM24,21v0ZM14,21v0Zm-1,0v0Zm-1,0v0Zm-1,0v0ZM7,21v0ZM6,21v0ZM5,21v0ZM1,21v0Zm13.5-.5.219.659q-.61-.573-1.22.342L15,24l.5-1.5a6.329,6.329,0,0,0-.391-.826L15.5,20.5ZM109,22v0Zm-8,0v0ZM84,22v0ZM62,22v0Zm-3,0v0Zm-5,0v0Zm-3,0v0Zm-8,0v0Zm-5,0v0Zm-6,0v0Zm-2,0v0ZM13,22v0Zm-2,0v0ZM5,22q-1.5,1,1,2,1.124-.749,0-1.5v0A5.545,5.545,0,0,0,5,22l1.5-.5L5,21ZM4,22v0ZM2,22v0Zm106,1v0Zm-8,0v0Zm-5,0v0Zm-7,0v0Zm-2,0v0Zm-2,0v0Zm-1,0v0ZM58,23l1.5-.5L58,22Zm-7,0v0Zm-3,0v0Zm-4,0v0Zm-1,0v0Zm-1,0v0Zm-4,0v0Zm-1,0v0Zm-1,0v0Zm-6,0v0ZM13,23v0Zm-3,0v0ZM9,23v0ZM4,23v0ZM2,23v0Zm98,1v0Zm-2,0v0Zm-3,0v0Zm-4,0v0Zm-4,0v0ZM52,24v0Zm-3,0v0Zm-1,0v0Zm-2,0,1.5-.5L46,23Zm-1,0v0Zm-5,0,2.5-.5L40,23Zm-7,0v0Zm-2,0v0ZM13,24v0Zm-3,0v0ZM9,24v0ZM8,24v0ZM2,24v0ZM1,24v0Zm56.5-.5L58,25v.5q-.749-1.125-1.5,0l.5,1.5v0l1,3,.5-3.5a5.536,5.536,0,0,0-.5-1V25l.5-1.5Zm-44,0L14,28l.5-4.5ZM99,25v0Zm-1,0v0Zm-1,0v0Zm-1,0v0Zm-1,0v0Zm-1,0v0Zm-7,0v0Zm-6,0v0ZM60,25v0Zm-3,0v0Zm-1,0v0Zm-5,0v0Zm-1,0v0ZM33,25v0Zm-1,0v0ZM15,25v0l2.5-.5L15,24Zm-2,0v0Zm-1,0v0Zm-2,0v0ZM9,25v0ZM6,25v0ZM5,25v0ZM2,25v0Zm63.5-.5L66,26l.5-1.5ZM107,26v0Zm-8,0v0Zm-1,0v0Zm-5,0v0Zm-4,0v0Zm-2,0v0ZM60,26v0Zm-8,0v0Zm-1,0v0ZM13,26v0Zm-1,0v0Zm-2,0v0ZM6,26v0ZM4,26v0ZM1,26v0Zm110,1v0ZM99,27v0Zm-1,0v0Zm-3,0v0Zm-2,0v0Zm-1,0v0Zm-3,0v0Zm-6,0v0Zm-2,0v0Zm-1,0v0ZM55,27v0Zm-1,0v0Zm-1,0v0ZM6,27v0ZM1,27v0Zm11.5-.5L13,28v0l.5-1.5ZM109,28v0Zm-1,0v0Zm-1,0v0ZM97,28v0Zm-4,0v0Zm-2,0v0Zm-2,0v0Zm-4,0v0Zm-4,0v0Zm-1,0v0ZM11,28v0ZM9,28v0ZM6,28v0ZM0,28v0Zm107,1v0ZM93,29v0Zm-6,0v0Zm-3,0v0Zm-3,0v0Zm-1,0v0ZM57,29v0ZM16,29v0Zm-2,0v0Zm-2,0v0Zm-2,0v0ZM6,29v0Zm99.5-.5L106,30v0l.5-1.5ZM108,30v0ZM94,30v0Zm-9,0v0Zm-4,0v0ZM11,30v0Zm-1,0v0ZM6,30v0ZM1,30v0ZM0,30v0Zm13.5-.5L14,33l.5-3.5Zm-1,0L13,32v0l.5-2.5ZM95,31v0Zm-8,0v0Zm-6,0v0ZM58,31v0ZM12,31v0Zm-1,0v0Zm-1,0v0ZM5,31v0ZM2,31v0Zm105,1v0Zm-1,0v0ZM87,32v0Zm-4,0v0Zm-3,0v0ZM11,32v0Zm-1,0v0Zm98,1v0ZM11,33v0ZM3,33v0ZM2,33v0Zm84.5-.5L87,34l.5-1.5ZM109,34v0Zm-1,0v0Zm-3,0v0ZM12,34v0Zm-2,0v0ZM6,34v0ZM3,34v0Zm106,1v0Zm-2,0v0ZM80,35v0ZM11,35v0ZM6,35v0ZM5,35v0ZM4,35v0ZM3,35v0Zm104,1v0ZM95,36v0ZM81,36v0Zm-1,0v0ZM14,36v0Zm-1,0v0Zm-1,0v0Zm-1,0v0Zm-1,0v0ZM9,36v0ZM6,36v0ZM5,36v0ZM2,36v0Zm109,1v0Zm-2,0v0Zm-2,0v0Zm-2,0v0ZM80,37v0ZM13,37v0Zm-2,0v0Zm-1,0v0ZM5,37v0ZM4,37v0ZM2,37v0Zm108,1v0Zm-3,0v0Zm-3,0v0ZM5,38v0ZM4,38v0Zm105,1v0ZM9,39v0ZM4,39v0ZM3,39v0Zm100.5-.5L104,41v0l.5-2.5ZM111,40v0Zm-2,0v0Zm-1,0v0Zm-2,0v0ZM12,40v0ZM9,40v0ZM5,40v0ZM2,40v0Zm109,1v0Zm-5,0v0ZM12,41v0Zm-1,0v0Zm-1,0v0ZM3,41v0Zm103,1v0Zm-1,0v0ZM11,42v0Zm-1,0v0ZM9,42v0ZM2,42v0ZM1,42v0Zm5.5-.5L7,45v0l.5-3.5ZM111,43v0Zm-5,0v0Zm-2,0v0ZM11,43v0Zm-1,0v0ZM9,43v0ZM2,43v0Zm5.5-.5L8,45l.5-2.5ZM108,44v0Zm-4,0v0ZM11,44v0Zm-1,0v0ZM1,44v0Zm7.5-.5L9,45l.5-1.5ZM104,45v0ZM11,45v0Zm-1,0v0ZM6,45v0ZM5,45v0ZM2,45v0Zm102,1v0ZM11,46v0Zm-1,0v0ZM9,46v0ZM8,50l.407-.679a3.107,3.107,0,0,0,.371,1.846,1.5,1.5,0,0,0-.132.127A6.962,6.962,0,0,0,8,51v0q-1.127.749,0,1.5v0A5.581,5.581,0,0,0,9,53v0a1.941,1.941,0,0,0,.353-.293q.28.146.646.293,1.081-.721.088-1.44L10.5,49.5a5.544,5.544,0,0,0-.5-1v0q-.381-.571-.762-.562L9.5,47.5,9,46.668v0L8,45ZM6,46v0Zm99,1v0Zm-2,0v0ZM11,47v0Zm-1,0v0ZM7,47v0ZM6,47v0ZM1,47v0ZM0,47v0Zm109,1v0Zm-3,0v0Zm-3,0v0ZM10,48v0ZM6,48v0ZM1,48v0Zm5.5-.5L7,49v0l.5-1.5ZM102,49v0Zm7,1v0Zm-7,0v0ZM89,50v0ZM5,50v0Zm106,1v0Zm-2,0v0Zm-2,0v0Zm-5,0v0ZM7,51v0ZM6,51v0ZM0,51v0Zm111,1v0Zm-3,0v0Zm-7,0v0ZM7,52v0ZM2,52v0ZM1,52v0Zm110,1v0Zm-2,0v0Zm-1,0v0Zm-1,0v0Zm-6,0v0ZM7,53v0ZM2,53v0Zm104,1v0Zm-3,0v0Zm-2,0v0ZM10,54v0ZM8,54v0ZM7,54v0ZM4,54v0Zm107,1v0Zm-10,0v0ZM10,55v0ZM9,55v0ZM8,55v0ZM7,55v0Zm96,1v0ZM9,56v0ZM8,56v0ZM6,56v0ZM3,56v0Zm105,1v0Zm-4,0v0ZM9,57v0ZM6,57v0Zm66.684-.521a1.076,1.076,0,0,0,.794-.427ZM99,58v0Zm-1,0v0ZM9,58v0ZM6,58v0ZM5,58v0Zm102,1v0Zm-4,0v0ZM10,59v0ZM8,59v0ZM6,59v0ZM5,59v0Zm105,1v0Zm-9,0v0ZM9,60v0ZM6,60v0ZM5,60v0Zm104,1v0ZM95,61v0ZM85,61v0ZM10,61v0ZM6,61v0ZM5,61v0Zm102,1v0Zm-1,0v0Zm-1,0v0Zm-9,0v0Zm-3,0v0ZM11,62v0Zm-1,0v0ZM5,62v0Zm92,1v0Zm-3,0v0Zm-1,0v0ZM12,63v0Zm-2,0v0ZM7,63v0ZM5,63v0ZM0,63v0Zm110,1v0Zm-10,0v0Zm-7,0v0ZM13,64v0ZM1,64v0Zm102,1v0Zm-1,0v0Zm-1,0v0Zm-1,0v0Zm-2,0v0Zm-5,0v0ZM10,65v0ZM6,65v0Zm103,1v0Zm-1,0v0Zm-5,0v0Zm-2,0v0Zm-1,0v0Zm-1,0v0Zm-2,0v0Zm-2,0v0Zm-2,0v0Zm-3,0v0ZM11,66v0Zm77.345.039L88.5,66c0-.025,0-.05,0-.076ZM108,67v0Zm-3,0v0Zm-2,0v0Zm-3,0v0Zm-1,0v0Zm-1,0v0Zm-2,0v0Zm-1,0v0ZM16,67v0ZM8,67v0ZM5,67v0ZM3,67v0Zm83.5-.5.5.5,1.345-.96ZM110,68v0Zm-5,0v0Zm-2,0v0Zm-3,0v0Zm-1,0v0ZM15,68v0ZM7,68v0Zm104,1v0Zm-1,0v0Zm-6,0v0Zm-1,0v0Zm-3,0v0ZM90,69v0ZM18,69v0Zm93,1v0Zm-1,0v0ZM99,70v0Zm-9,0v0Zm-1,0v0ZM14,70v0Zm-2,0v0ZM0,70v0Zm96,1v0Zm-2,0v0Zm-6,0v0Zm-6,0v0ZM20,71v0Zm-6,0v0Zm-3,0v0Zm86,1v0Zm-6,0v0Zm-3,0v0Zm-2,0v0Zm-1,0v0Zm-1,0v0Zm-2,0v0ZM64,72v0Zm-3,0v0ZM20,72v0ZM2,72v0Zm95,1v0Zm-1,0v0Zm-1,0v0Zm-4,0v0Zm-3,0v0Zm-2,0v0Zm-2,0v0Zm-2,0v0Zm-2,0v0Zm-3,0v0ZM67,73v0Zm-4,0v0Zm-1,0v0Zm-3,0v0ZM26,73v0Zm-2,0v0Zm-2,0v0Zm-2,0v0Zm-1,0v0Zm-5,0v0ZM6,73v0Zm85,1v0Zm-4,0v0Zm-6,0v0Zm-2,0v0Zm-5,0v0Zm-2,0v0Zm-9,0v0Zm-1,0v0Zm-2,0v0Zm-1,0v0ZM27,74v0Zm-1,0v0Zm-4,0v0Zm-3,0v0ZM9,74v0Zm88,1v0Zm-3,0v0Zm-7,0v0Zm-3,0v0Zm-2,0v0Zm-8,0v0Zm-1,0v0Zm-2,0v0Zm-1,0v0ZM60,75v0Zm-4,0v0Zm-4,0v0ZM27,75v0Zm-2,0v0ZM13,75v0Zm-2,0v0Zm86,1v0ZM87,76v0Zm-1,0v0Zm-4,0v0ZM51,76v0Zm-2,0v0Zm-1,0v0Zm-4,0v0ZM31,76v0Zm-1,0v0Zm-2,0v0ZM15,76v0Zm-2,0v0Zm-2,0v0Zm75,1v0Zm-4,0v0ZM49,77v0Zm-3,0v0Zm-1,0v0ZM34,77v0Zm-8,0v0Zm-1,0v0Zm-8,0v0Zm-6,0v0Z" transform="translate(483.5 96.99) rotate(180)"/></g><g class="d" transform="matrix(1, 0, 0, 1, 400, 8742.01)"><path class="b" d="M32,19v0Zm-3,0v0ZM19,19v0Zm-6,0v0Zm23-1v0Zm-5,0v0ZM20,18v0Zm-7,0v0Zm-3,0v0ZM2,18v0Zm34-1v0Zm-1,0v0Zm-6,0v0Zm-7,0-.5-3,.5-.2V13q-2.4-.1-1-1v-.5a5.569,5.569,0,0,1-1,.5q-1.124-.749,0-1.5h-.5L20,9l.42,1.256c.17-.085.364-.172.581-.257q1.124.749,0,1.5V12l2.2,1.32L24,13l-.5-.5L24,12l1,.4V12l-.5-1.5.6-1h-.6L25,7H19.5L21,8V8l1.5-.5L22,8l-.5.5L22,10,17.5,6.5,18,6l1.5,1L19.081,5.6,17.5,6V9.5L18,9l.5,2-2-.5,1-1h-1v-5L16,3l1.173.391L17,2l1.723,2.415L18,2a2.775,2.775,0,0,1,1-.151v0a.9.9,0,0,1,.494.172L19.5,2l2,.5L20.5,5,22,2V2l3,1V2l2.5.5L25,3l1.5.5L25,5h0l1-1,1.365,2.73A2.413,2.413,0,0,1,27.5,5.5L26.5,3H28V3l.5.5L29,3V3l2.5,2.5L31,6l1,1V7l.5.5-3,.5L29,10,25,7l.4,2L26,8l3,2,1-2,1,2v0l1-2,.5,1.5-.5,1.25L31.5,12a4.408,4.408,0,0,1-.5.072,2.749,2.749,0,0,1-1.663-.345A1.974,1.974,0,0,1,29,12c-.19-.078-.362-.153-.519-.229l1.02.728-1.177.707L29.5,13.5a5.394,5.394,0,0,1-.5,1q-.5.749-1,.5v0a1.41,1.41,0,0,1-.5-.5v-.8L27,14a6.875,6.875,0,0,1-.674-.308L26,15l.5.5L26,16q-.9-1.7-3.5-1L22,17v0Zm0-3.2,1.09-.438L22,13Zm3-1.4.465.184A1.255,1.255,0,0,1,26,12v0l1-.333v-.418L25.5,10.5,26,10h-.5L25,12Zm2-.734.5-.168-.5-.25Zm.581-.539Q27.152,10.566,28,10H26ZM26.52,8q.622.5,2.478,0V7.584ZM26.5,7.979V6Q25.912,7.47,26.5,7.979Zm1.77-.786.73.182V7A3.455,3.455,0,0,1,28.269,7.193ZM27.5,7h0s0,0-.006,0Zm-8-2.5.041.042-.029-.077ZM19,17v0Zm-8,0v0ZM9,17v0Zm25-1v0Zm-5.5.5L31,15.428v0L32,15q1.5,1-1,2ZM21,16v0Zm-1,0v0Zm-1,0v0Zm-1,0a1.414,1.414,0,0,1-.5-.5,1.413,1.413,0,0,1-.5.5,5.418,5.418,0,0,1-1-.5q-1.127-.749,0-1.5a2.848,2.848,0,0,1,1.5,1,.931.931,0,0,1,.149-.209L15.5,13.5,15,11l1.429,2.143L16,11q1.1,2,4.5,1L20,14l-.438-.221a.747.747,0,0,1-.25.471,1,1,0,0,1,.188.25L20,14l.5,2-1.644-.408A6.1,6.1,0,0,1,18,16v0Zm-1.363-2.544L17,14l1.5-.751L18,13ZM16,16v0ZM9,16v0ZM1,16v0Zm28-1v0Zm-2,0v0Zm-6,0v0Zm-5,.5v0ZM10,15v0ZM4,15v0Zm25.5.5L30,12l.5,3.5Zm1-1,.5-.833v0L32,12v0l.5,3Zm-1.5,0v0ZM27,14v0Zm-6,0v0ZM9,14v0ZM7,14v0Zm14-1v0Zm-6,0v0Zm-1,0v0ZM8,13v0ZM7,13v0ZM4,13v0ZM3,13v0Zm28-.927v0ZM23,12v0Zm-8,0v0Zm-1,0v0ZM4,12v0ZM3,12v0Zm19-2,1,.6v0l1.5.9-3,.5Zm-3,1v0Zm-2,0,1.5.5L17,12Zm-3,0v0Zm-1,0v0ZM9,11a5.543,5.543,0,0,1-1-.5Q6.874,9.751,8,9V8L7,9l-.5-.5L7,8V8L8,7V7L9,6V6l.5.5L9,7l.486,1.46A2.482,2.482,0,0,1,10,7V6l-.5-.5L10,5V5l2-2,.5.5L12,4,11,5,10,6V7l.354,1.425A3.577,3.577,0,0,1,10.5,7.5L11,7V7l1-1,.5,3a5.124,5.124,0,0,1-.881.279L12.5,9.5,11,10v0a3.9,3.9,0,0,1-.678-.324L9,11l2.5.5L9,12ZM8,8V9l1,1v0l1.2-.4a1.474,1.474,0,0,1-.713-1.1H8.5L9,7Zm0,3v0ZM4,11v0ZM3,11Q1.875,10.25,3,9.5v0A5.5,5.5,0,0,1,4,9V9q1.124.749,0,1.5A5.636,5.636,0,0,1,3,11v0ZM2,11v0Zm31-1v0Zm-1,.751v0ZM24,10v0Zm-8,1Zm0,0v-.831a2.132,2.132,0,0,1-1,.077,1,1,0,0,1-.769-.745H13.5L14,8V7l-.6-1.4.1.4-2-.5,1.3-1.3-.3-.7L14,4V4l1-1V3l1-1V2l.5.5L15,4l-.5.5L14,7V8l.143.428A9.975,9.975,0,0,1,14.5,6.5l.5-.833v0L16,4l.5,6a5.065,5.065,0,0,1-.5.168Zm-1,0v0Zm-1-1v0Zm-2,0v0Zm-2,0v0Zm-2,.5v0ZM6,10a5.543,5.543,0,0,1-1-.5Q3.875,8.749,5,8V8l1,.6v0l1.5.9L6,10l1.5.5L6,11ZM5,10v0Zm-1,.5v0ZM0,10v0Zm18.5.5L19,8l.5,2.5Zm-6,0L13,7V7l.5,3.5ZM5,9.5v0ZM0,9V9Zm23.5.5L24,8l.5,1.5Zm-1,0L23,8V7l1.5.5L23,8l.5,1.5ZM31,8V8ZM22,8V8ZM3,8V8Zm14.5.5L18,7l.5,1.5ZM35,7V7ZM33,7V7ZM6,7V7ZM4,7V7ZM2,7V7ZM36,6V6ZM34,6V6ZM33,6V6ZM7,6V6ZM33,5V5ZM32,5V5ZM11,5V5ZM8,5V5ZM31,4V4ZM15,4V4ZM12,4V4ZM9,4V4ZM34,3V3ZM32,3V3ZM30,3V3ZM10,3V3ZM9,3V3ZM5,3V3ZM32,2V2ZM14,2V2ZM11,2V2ZM2,2V2ZM33,1V1ZM28,1V1ZM24,1V1ZM23,1V1ZM11,1V1ZM2,1V1ZM33,0V0ZM26,0V0ZM25,0V0ZM19,0V0ZM18,0V0ZM17,0V0ZM15,0V0ZM8,0V0ZM6,0V0ZM4,0V0Z" transform="translate(333.5 73.99)"/></g></g></svg>