<svg xmlns="http://www.w3.org/2000/svg" xmlns:xlink="http://www.w3.org/1999/xlink" width="1506" height="88.178" viewBox="0 0 1506 88.178"><defs><style>.a{fill:url(#a);}.b{fill:url(#d);}.c{fill:url(#g);}.d{filter:url(#k);}.e{filter:url(#h);}.f{filter:url(#e);}.g{filter:url(#b);}</style><linearGradient id="a" x1="0.5" x2="0.5" y2="1" gradientUnits="objectBoundingBox"><stop offset="0" stop-color="#f2bd81"/><stop offset="1" stop-color="#795f41"/></linearGradient><filter id="b" x="0" y="73.165" width="1506" height="15.012" filterUnits="userSpaceOnUse"><feOffset dy="3" input="SourceAlpha"/><feGaussianBlur stdDeviation="1" result="c"/><feFlood flood-opacity="0.749"/><feComposite operator="in" in2="c"/><feComposite in="SourceGraphic"/></filter><linearGradient id="d" x1="0.5" y1="1" x2="0.5" gradientUnits="objectBoundingBox"><stop offset="0" stop-color="#c5ad90" stop-opacity="0.988"/><stop offset="1" stop-color="#14110e"/></linearGradient><filter id="e" x="378.49" y="36" width="78" height="44" filterUnits="userSpaceOnUse"><feOffset dy="1" input="SourceAlpha"/><feGaussianBlur stdDeviation="1" result="f"/><feFlood flood-opacity="0.749"/><feComposite operator="in" in2="f"/><feComposite in="SourceGraphic"/></filter><linearGradient id="g" y1="0" y2="0.831" xlink:href="#d"/><filter id="h" x="213.49" y="0" width="117.001" height="82" filterUnits="userSpaceOnUse"><feOffset dy="1" input="SourceAlpha"/><feGaussianBlur stdDeviation="1" result="i"/><feFlood flood-opacity="0.749"/><feComposite operator="in" in2="i"/><feComposite in="SourceGraphic"/></filter><filter id="k" x="327.49" y="54" width="42" height="25" filterUnits="userSpaceOnUse"><feOffset dy="1" input="SourceAlpha"/><feGaussianBlur stdDeviation="1" result="l"/><feFlood flood-opacity="0.749"/><feComposite operator="in" in2="l"/><feComposite in="SourceGraphic"/></filter></defs><g transform="translate(-2381.01 -3546.99)"><g class="g" transform="matrix(1, 0, 0, 1, 2381.01, 3546.99)"><path class="a" d="M2341.226,3599.662c-177.24,10.139,1486.784,0,1486.784,0S2518.467,3589.523,2341.226,3599.662Z" transform="translate(-2325.01 -3521.99)"/></g><g class="f" transform="matrix(1, 0, 0, 1, 2381.01, 3546.99)"><path class="b" d="M66,1ZM65,1ZM60,1ZM59,1ZM57,1ZM53,1ZM52,1ZM51,1ZM48,1ZM39,1ZM31,1ZM29,1ZM66,2ZM65,2ZM61,2ZM59,2ZM57,2ZM48,2ZM46,2ZM45,2ZM36,2ZM33,2ZM29,2ZM66,3ZM65,3ZM61,3ZM60,3l-.5,1.5L61,6l-.223-.666a3.628,3.628,0,0,0,.834.5Q61.125,6.418,62,7a5.512,5.512,0,0,0,1-.5h0q1.124-.75,0-1.5h0q-.239.1-.442.191a.974.974,0,0,0-.453-.617L62.5,3l-2,.5L61,4a1.417,1.417,0,0,0-.5.5h0L60,3ZM57,3ZM52,3ZM51,3ZM50,3ZM46,3ZM45,3ZM44,3ZM42,3ZM31,3ZM68,4ZM56,4ZM54,4ZM50.5,5.5,52,5,50.5,6.5,51,7l.5-.5A1.414,1.414,0,0,0,52,7a5.512,5.512,0,0,0,1-.5h0q1.124-.75,0-1.5l.5-.5L54,7l.5-2.5L53,3ZM45,4ZM44,4,43,5l-1.5-.5L42,5a5.541,5.541,0,0,0-1,.5h0q-1.01.674-.2,1.348a7.073,7.073,0,0,0-.3.651L41,9l.54-.9.428,6.4H41.5L41,11l-.5,3.5.5.5h0l-.5.5.5.5a1.417,1.417,0,0,0-.5.5v2.478q-.735-.763,0-3.477l-.441-1.028.411-3.706q.237.117.529.234,1.126-.751,0-1.5h0A5.551,5.551,0,0,0,40,9h0q-.751.5-.5,1a1.418,1.418,0,0,0-.5.5h0a5.552,5.552,0,0,0-.5,1l.389.907L38,15.663h0L37.5,17.5l.462.616L37.5,19.5a2.127,2.127,0,0,1,1,1L38,20a6.918,6.918,0,0,0-.687.314L37,20h0l-.5-.5L37,18l-2-1,2.5,1L37,16l-1,.333h0l-.5.167-.371-1.108.87-.248h0L36.5,15,36,12l-3.5,3.5.5.5,1-.286-1.439,1.028Q32.556,16.372,32,16a5.513,5.513,0,0,0-1,.5h0q-1.124.749,0,1.5.248-.1.457-.2-.317,2.439,1.171,3.073L31.5,20.5q.8,3.2-1,4L32,26l2-4q1.531.656,1.537,1.342Q35.531,22.657,34,22l-2,4-1.5-.5L31,28l-.5.5,1.5,1L31,29q-1,2-2,0a6.673,6.673,0,0,0-1.208-.3A6.675,6.675,0,0,1,29,29l1.5.5L30,29l.5-.5L30,28l.5-1.5L28,25l-.5.5L27,25l-2.5,1.5.451,2.248L24.5,31H23l-3.5,3.5.5.5.5-.5.5.5-1.5.5L23,36q.5-1,1-1h0q.5,0,1,1l1,.5h0l1,.5q3.739.689,4.477-1.432L31,37h0q2.6.8,1.5-2.5L33,36l.5-1.5h-1l1-2a6.7,6.7,0,0,0-.35-.751c.054-.083.107-.159.161-.229l.588.98h-.4L34,34l.286-.858.214.356L34,35l1.382-2.763q.059.125.118.263L35,35l1.385-2.308L36,35l3-1h0l2,1h0a1.683,1.683,0,0,0,.428-.382L42,35l3.5-.5L42,34l5.5-.5L42,33v1l-2.875-2.157L40.5,31.5q-.083-.209-.167-.389l.666.222h0l.5.167L41,33l6.5-.5-.428-.714L47.5,30.5q-1-.5-1-1l1.219,1.22a.624.624,0,0,0-.084.977A2.7,2.7,0,0,0,48,34l.617-.925L49,35h0l1-1v1l1,.5h0l1,.5,2.5-.5a2.543,2.543,0,0,0-.256-.581L55.5,34.5,54,34v.588A2.22,2.22,0,0,0,53.1,34H58l1.5-1.5a3.726,3.726,0,0,0-1.292-1.1L60,32l2.5-2.5L62,29l.5-.5L62,28v-.794a3.3,3.3,0,0,0,1,.01h0q1.355-.242.5-2.216L61,26l1-1,1.5-.5-.2-.6,1.2-.4L63,23l1.5-.5L63,22q-1,2-2,0l-.11.028L61,22q1,2,2,0,2.6.7,1.5-2-.266-.108-.5-.181h0a1.99,1.99,0,0,0-1.145-.1L63.5,18h0V12.5h-1l1-3h-1a3.672,3.672,0,0,0-.452.547L62,10h0L60,8l1.5.5L61,7.668h0L60,6,59,9l1-1-.5,1.5q2,1,0,2v2L59,12l-.309,1.232A3.486,3.486,0,0,0,58.5,12.5l1-2h-1l-.387.581L58,11q-2.4.959-1.114,1.919L56.5,13.5l.072.071-1.607-.357L55.5,13,54,10l-.5-.25,1-.25a5.567,5.567,0,0,0-.5-1h0q-.75-1.123-1.5,0v.752L52,9l-.307,1.23A3.49,3.49,0,0,0,51.5,9.5,1.415,1.415,0,0,0,51,9l1.5-.5L51,8V9q-.5-.25-1,.5h0a5.539,5.539,0,0,0-.5,1l.5.5a2.794,2.794,0,0,0,1.1.159L48,12.4h0l-1,.4h0l-.5.2.5,3,2-2h4a6.016,6.016,0,0,1-4,0l-2.5,2.5h-1L45,18l-1.277-.425a8.339,8.339,0,0,1-.179-1.031L45,18l.5-5.5h-1l-.972,3.886Q43.51,16.2,43.5,16h0q.415-.363,0-1.5l1-2.5q-.233-.1-.443-.171L44.5,10.5h-1l.431,1.289a2.859,2.859,0,0,0-.508-.108l.077-.18v-3a5.555,5.555,0,0,0-.5-1h0q-.381-.571-.762-.562L42.5,6.5a2.235,2.235,0,0,0-.189-.249A.614.614,0,0,0,42.5,5.5L43,6q.305-.122.551-.244L44,8l.5-2.5H44q1.125-.749,0-1.5Zm7.5,7Zm10,.5.025-.024c0,.033-.007.067-.009.1Zm-3,2.5Zm2,0h1v2l-.3-.6.3-.9h-.751Zm-18.1.074c.03.136.064.278.1.425h-.285ZM55,17l1.5.75L56,18l-3-1A6.994,6.994,0,0,1,55,17Zm4.5,1.5.3.9-.3.1L58,17l-.382.191Q58.587,16.372,59.5,18.5ZM53,17l-2.5,2.5A2.791,2.791,0,0,1,53,17Zm-10.5.5,1,3-.25.25-.75-.25.285.714L42,22h0l-.334.334.828-3.31A1.955,1.955,0,0,0,42.5,17.5Zm1.344.517L45.5,20.5l-.166.056a6.174,6.174,0,0,1-1.49-2.538ZM46.831,19l.051.077c-.019.014-.038.029-.056.045C46.828,19.078,46.829,19.038,46.831,19Zm5.67,1H55q1-2,2,0h0q-1-2-2,0Zm-11.963-.986a4.961,4.961,0,0,0,.825.262H41.3a1.08,1.08,0,0,1-.763-.261ZM61.5,19.5l.4,2h-.4l-.374-1.875Zm-11,0,1,1a5.005,5.005,0,0,1,0,2Zm-3.778.372L47.7,21.5H46.5a7.7,7.7,0,0,0-.145,2.14L45.5,21.5a2.3,2.3,0,0,0,.352-.217l.649.217q-.257-.166-.492-.347a2.439,2.439,0,0,0,.714-1.28Zm9.677.288L56,20a.644.644,0,0,1,.4.161ZM56,20l-.4.16A.639.639,0,0,1,56,20Zm3.4.264q-.668,1.848.643,1.879-1.314-.029-.643-1.878ZM35.5,21l1.256-.314Q36.014,21.344,37,22l1-1,.437.146A3.9,3.9,0,0,1,36.5,22.5v1l-.363-.91L36.5,21.5h-.8Zm8.876-.125L44,21l-.293-.1a1.754,1.754,0,0,1,.67-.025Zm13.835.011a.868.868,0,0,1,.19.076Zm4.174.086a4.718,4.718,0,0,0,.113.531h-.312ZM56.5,22.5,56,21l5,6a8.471,8.471,0,0,0,1,.207V28ZM50,28l3.5-2.5V21q1.3,5.5-2.5,7-.68.125-1.181.27Zm8.5-6.979q.653.5.02,2.432a5.648,5.648,0,0,1-.025-2.431Zm-10.217.145.223.334h-.335ZM38.5,21.5h2L41,25l.356-1.422a3.577,3.577,0,0,0,.144.922h.608a4.975,4.975,0,0,0-.608,1L43,25l1.5,1.5v1L43,25l.31.93q-1.525-.541-1.982.336A2,2,0,0,0,41,26h0q-.323.129-.58.258L40,25h.5V22l-1.8.449a8.12,8.12,0,0,0-.2-.949ZM45,22l.05.5H44.9Zm15.76.059-.033.007Zm-.3.055a2.621,2.621,0,0,1-.373.029,2.622,2.622,0,0,0,.373-.027ZM51.5,22.5A1.926,1.926,0,0,1,50,24a2.4,2.4,0,0,0-1.109-.2Zm-9.9.1.16.159a.627.627,0,0,0-.254.219Zm-2.864.136L39,23h0l.5.5-.458,1.375a7.325,7.325,0,0,0-1.1-.189L38.5,24.5l-.636-.212q1-.088.871-1.551Zm4.733.186L43.5,23ZM63,23ZM43.5,23Zm-7,.5V24q.265.106.5.174V24.7a2.487,2.487,0,0,0-1.888,1.119Zm22.039.04L61,26a3.692,3.692,0,0,1-2.462-2.458ZM48.5,24Zm-4.4.5L44,25a3.593,3.593,0,0,0-.323-.5Zm-9.6,0L35,26Zm13.834.164a3.593,3.593,0,0,0,.166.837h-.376ZM55.5,25H57l1,.715ZM40,25l-.494,1.479A4.038,4.038,0,0,0,39.5,25Zm7.056.393q.052.056.108.108H47.1ZM54.5,25.5l-3,3,.4.4-1.4.6L57,30H50v-.817ZM30,29l-3-3H25.5Q28.8,25.5,30,29Zm19.5-3h0v1.5l-1.125.75Zm-6.06.321.059.178a6.465,6.465,0,0,0-.042,1.746,4.971,4.971,0,0,1-.017-1.922ZM39.5,26.5l.217.217Q39.039,27.36,40,28a6.924,6.924,0,0,0,.685-.314L41,28l-1,2h0l-1-1,1.5-.5L39,28v1l-.5-.5.16-.48A2.874,2.874,0,0,0,39.5,26.5Zm7.482.126.025.059a1.289,1.289,0,0,0-.2-.016Zm12.642.246.874.625a4.344,4.344,0,0,0-.116.437ZM34,27l3,2q.229-.084.438-.179a4.2,4.2,0,0,0-.038.607Zm0,0q-.835,1.668-1.667.556Zm7.134.4a6.746,6.746,0,0,0,.106.958L41,28l-.138-.414a2.9,2.9,0,0,0,.272-.186ZM55.5,28Zm-8,.5q.063-.234.1-.437l.235.548L46.5,29.5Q46.5,29,47.5,28.5Zm-20.1.173Zm.079,0a1.438,1.438,0,0,1,.166.01l-.166-.008ZM62,29a2.356,2.356,0,0,1-2,2,1.926,1.926,0,0,0,1.5-1.5l-.241-.337A3.455,3.455,0,0,0,62,29Zm-12,.184V30a7.3,7.3,0,0,0-.69.247A2.087,2.087,0,0,0,49,30Zm-12.6.34q.005.215.028.449a4.82,4.82,0,0,0-.811-.252Zm11.381.3A2.721,2.721,0,0,0,49,30q-.257.1-.472.206ZM39,30a1.422,1.422,0,0,0-.5.5v.875L38,31a2.228,2.228,0,0,0-.252.192,3.428,3.428,0,0,0-.115-.736Zm-12.516.434.019.064ZM33.5,30.5h.006ZM45.5,30.5Zm-19,0-.013.05Zm29.9.363A11.725,11.725,0,0,0,53,31a5.379,5.379,0,0,1,3.4-.136Zm-21.231.967L35,32l-1.015-1.015q.6-.161,1.185.846ZM50,31l.546.273L49.331,32ZM33,31l.215.358-.106.316a2.353,2.353,0,0,0-.371-.5Zm20,0q-.5,1-1,1a2.182,2.182,0,0,1,1-1Zm-1.5.751L52,32a.72.72,0,0,1-.5-.248ZM31.5,32v3.5l-.458-3.195Zm6,0a1.2,1.2,0,0,0,.337.382l-.664-.189A.8.8,0,0,0,37.5,32ZM23,32a6.8,6.8,0,0,0,1.068.1A6.8,6.8,0,0,1,23,32Zm1.223.1Zm12.165.124.072.01-.02.121Zm-6.414.769a3.7,3.7,0,0,1-2.453.014Q28.027,32.349,29.974,32.993Zm.444-.271a2.015,2.015,0,0,1-.3.2Zm-2.932.334-.143.571a1.038,1.038,0,0,1,.143-.571ZM26,34l1.155.384L27,35l-2.251-.75ZM31.5,35.5ZM42,4ZM40,4ZM35,4ZM32,4ZM66,5ZM59,5ZM51,5ZM50,5ZM49,5ZM46,5ZM41,5ZM40,5ZM39,5ZM38,5ZM36,5ZM31,5ZM65,6ZM64,6ZM60,6ZM59,6ZM57,6ZM50,6ZM49,6ZM48,6ZM40,6ZM39,6ZM37,6ZM36,6ZM31,6ZM30,6ZM67,7ZM65,7ZM64,7ZM61,7ZM59,7ZM58,7ZM48,7ZM43,7ZM39,7ZM37,7ZM36,7ZM35,7ZM29,7Zm10.5-.5L40,8l.5-1.5Zm-2,0L38,8h0l.5-1.5ZM64,8ZM63,8ZM62,8ZM59,8ZM58,8ZM54,8ZM52,8l1.5-.5L52,7ZM51,8ZM50,8ZM49,8ZM46,8ZM39,8Zm-3.5-.5L36,8q-.916.609-.342,1.22L35,9v.687q-.948.146-.5,1.813L33,13.751h0l-.5.749.5.5,3.5-3.5V10a5.489,5.489,0,0,0-.748-.25l.423-.141A6.33,6.33,0,0,0,37,10q1.071-.712.107-1.426L37.5,7ZM35,8ZM34,8ZM32,8ZM67,9ZM64,9ZM63,9ZM62,9ZM50,9ZM44,9ZM35,9ZM34,9ZM32,9Zm39,1Zm-2,0Zm-1,0Zm-1,0Zm-1,0Zm-7,0Zm-1,0Zm-3,0Zm-6,0Zm-5,0Zm-5,0ZM12,10ZM9,10ZM0,10Zm63.5-.5L64,11h0l.5-1.5ZM71,11Zm-1,0Zm-1,0Zm-1,0Zm-1,0Zm-7,0Zm-2,0Zm-1,0Zm-2,0Zm-8,0Zm-2,0Zm-7,0Zm-1.5,1.5L38,14l-.5-1.5L37,10ZM34,11Zm-1,0Zm34,1ZM49,12Zm-3,0Zm-1,0Zm-7,0Zm-4,0Zm-2,0Zm-1,0ZM12,12Zm-2,0ZM5,12ZM3,12ZM1,12Zm69,1Zm-2,0Zm-1,0Zm-2,0Zm-9,0ZM46,13Zm-8,0Zm-5,0Zm-2,0Zm-1,0ZM13,13Zm-1,0Zm-1,0ZM9,13ZM8,13ZM7,13ZM2,13ZM1,13Zm68,1Zm-1,0ZM46,14ZM32,14Zm-3,0Zm-7,0Zm-5,0Zm-3,0Zm-1,0Zm-1,0Zm-1,0ZM9,14ZM8,14ZM6,14ZM1,14Zm35.5-.5L37,15l.5-1.5ZM70,15ZM46,15Zm-8,0Zm-7,0ZM18,15Zm-1-.5a5.512,5.512,0,0,0-1-.5q-.937.624-.312,1.25l-.041.043A6.965,6.965,0,0,0,15,15a1.409,1.409,0,0,0-.5.5L13,16a4.371,4.371,0,0,0-.684-.1l1.184-.4L12,15v.893q-1.7.12,0,3.107h0l.683-.955L13,19l.333-1L13,21a2.339,2.339,0,0,0,1.286-1L14,22l2-2,1.5.5L17,20l.5-2-.5-.2h0l-.512-.2a.734.734,0,0,0-.212-.81c.028-.026.054-.052.078-.079q.315.163.646.294.936-.624.312-1.249.625-.625-.312-1.25h0Zm-2.5,1q-.277.562.711,1.124l.175.525L15,17l-.352.353q-.051-.405-.148-.853h-.714Zm-1.051,1.47-.058.526H13.07Zm1.237.709L15,18l-.294.294c0-.194-.006-.394-.023-.609ZM15,15Zm-1,0Zm-1,0Zm-1,0ZM6,15ZM5,15Zm66,1Zm-4,0ZM46,16Zm-9,0Zm-5,0Zm-2,0Zm-7,0ZM7,16ZM6,16ZM5,16ZM4,16Zm68,1Zm-5,0Zm-3,0ZM26,17Zm-6,0ZM9,17ZM8,17Zm-1-.5A5.551,5.551,0,0,0,6,16q-1.127.749,0,1.5H6A5.522,5.522,0,0,0,7,18H7q1.126-.749,0-1.5Zm-3-.1H4l-1,.4H3l-.5.2L2,18.249H2L1.5,19.5v3l.628.878L2.5,24.5l1.451,3.193L3.5,29.5,5,31l1.5-.5-2-.5.164-.738L5,30l.5-1.5-.494-.776L5.5,25.5h-1l-.257,1.025L3.17,24.84,4,26l.5-1.5L4,23.752H4L3.166,22.5l.333-1h-1l1-1L3,19a3.1,3.1,0,0,0,1,.168H4q1.087-.05.5-1.667L5,16ZM3,19ZM2.5,21.5ZM1,17Zm71,1Zm-1,0Zm-4,0Zm-1,0Zm-1,0Zm-1,0ZM30,18Zm-1,0Zm-3,0Zm-2,0Zm-1,0Zm-4,0Zm-1,0Zm-7,0ZM9,18ZM5,18ZM2,18Zm65,1Zm-3,0ZM31,19Zm-1,0Zm-1,0Zm-1,0Zm-1,0Zm-3,0Zm-4,0Zm-9,0ZM8,19ZM6,19ZM1,19Zm64,1ZM31,20Zm-3-.572h0l-1,.428h0L22,22H19l-1.5-.5,1.4,2.8-.244.729a4.086,4.086,0,0,0-.157-.53H17.166l.333-1a6.294,6.294,0,0,0-.391-.826L17.5,21.5,16,20l-2.5,2.5a2.753,2.753,0,0,0-.165,1H12.5L13,25l.4-1.207a.643.643,0,0,0,.6.373h0A2.758,2.758,0,0,0,15,24h0a1.409,1.409,0,0,0-.5.5V26l2-.5.5.5-3.36.479q-.056-.226-.141-.479l-3,.5q2.3,1.2-.5,2.5l1.5-1.5L10,26q1.5-1-1-2-.888.592-.373,1.186L7,26l-1.5-.5L6,27l-.5,1.5.751.751L6,30l.5-.5L7,30l1-.5V30L5,31l-1.5-.5a2.845,2.845,0,0,1,2,3.5q2.6-.8,3.5,1H9l2.5-.5-1.818-.728.6-.2L11,34q1.078-.721.088-1.439L11.5,30.5h-1l.385,1.928A6.013,6.013,0,0,0,10,32l-1.268.422L9,31.751H9l.406-1.016q.261.133.593.266h0q1.5-1-1-2-.96.64-.28,1.281L8.5,30.5,8,30v-.5L9,29l2.5,1V29a1.228,1.228,0,0,0,.365.4L11.5,30.5,13,32l.059-.1L13.5,33a2.91,2.91,0,0,0-.262,1.414L12,34v1l1.273-.424a.926.926,0,0,0,.328.49L13,35v1l4.5-.5-1.851-.206A12.138,12.138,0,0,0,17,35l1,1,.5-.5L18,35l4.5-3.5-.363-.363L24.5,29.5,24,27l-.308,1.232A3.493,3.493,0,0,0,23.5,27.5l1-2.5,4-.5L25,24q3.3-.8,4,1a3.5,3.5,0,0,0,.566-.307L30,26l.5-1.5h-.681q1.316-1.121.681-3.5l-.857-.214L30.5,20.5l-1.2-.4,1.2-.6L29,19Zm.5,1.072.5-.25v.375ZM16.572,24.287l.128.214h-.2Zm2.109,1.4.489.489Q18.122,27.987,17,26a3.112,3.112,0,0,0,1,.167h0a.637.637,0,0,0,.68-.483Zm-4.994,1L14,27a.783.783,0,0,0-.26.045,3.341,3.341,0,0,0-.054-.357ZM9,27l.5.5L10,29Zm2.5,1q.183.061.351.107a1.206,1.206,0,0,0-.351.393Zm.741.2a3.07,3.07,0,0,0,.392.049c-.033.061-.067.125-.1.19Zm3.259.3.5.5h0l1.137,1.137a3.014,3.014,0,0,1-.941.19Q15.007,30.328,15.5,28.5Zm8,.5ZM22,29a2.418,2.418,0,0,0,1.232.134l-1.876.938Zm-9.79.629A6.475,6.475,0,0,0,13,30l-.5.5ZM13,30l.318.227-.068.023Zm4.5,2.5-2.77-2.264L17,32l.4-1.6L19,32l-1.5-.5V33l2.144-1.073L19,33q-2.4.1-1,1l3.25-2.25L19,34a3.056,3.056,0,0,1-.893.168Q16.968,34.171,17.5,32.5Zm-3.05-1.465.268.191A3.864,3.864,0,0,1,15.5,32.5l-1.515-1.515a.645.645,0,0,1,.464.052ZM16.5,33.5l-1.459-2.042L16.5,32.5,18,35ZM6.5,32.5Zm2,.5.161-.4,1.264.759ZM25,20l1.5-.5L25,19Zm-1,0Zm-1,0Zm-1,0Zm-3,0Zm-1,0Zm-7,0Zm-1,0ZM8,20ZM0,20Zm65,1ZM24,21Zm-1,0Zm-1,0Zm-3,0h0l2.5-.5L19,20Zm-1,0Zm-6,0ZM7,21ZM4,21ZM0,21Zm30.5-.5L31,22h0l.5-1.5ZM69,22Zm-3,0ZM21,22l1.5-.5L21,21Zm-8,0Zm-1,0Zm-1,0ZM8,22ZM7,22ZM5,22ZM4,22Zm68,1ZM13,23Zm-1,0Zm-2,0ZM9,23ZM8,23ZM7,23ZM6,23ZM5,23ZM4,23Zm68,1Zm-4,0Zm-3,0ZM31,24ZM18,24Zm-6,0Zm-2,0ZM9,24ZM8,24ZM5,24Zm59,1ZM12,25Zm-1,0ZM8,25ZM6,25l1.5-.5L6,24ZM5,25ZM2,25ZM0,25Zm64,1ZM25,26ZM14,26Zm-1,0Zm-2,0,1.5-.5L11,25ZM7,26ZM2,26Zm62,1ZM3,27ZM2,27Zm62,1ZM3,28ZM2,28Zm61,1ZM3,29Zm66,1Zm-6,0ZM3,30Zm69,1Zm-1,0Zm-1,0Zm-1,0Zm-1,0Zm-6,0ZM3,31Zm60,1ZM12,32ZM4,32ZM3,32ZM0,32Zm65,1ZM13,33ZM5,33ZM4,33ZM2,33ZM1,33Zm10.5-.5L12,34l.5-1.5ZM72,34ZM60,34ZM13,34ZM5,34Zm63,1Zm-1,0Zm-7,0ZM48,35Zm-1,0Zm-1,0ZM8,35ZM7,35ZM6,35ZM5,35ZM1,35Zm65,1Zm-1,0Zm-1,0Zm-7,0Zm-2,0Zm-5,0Zm-6,0Zm-1,0Zm-1,0Zm-7,0Zm-1,0ZM19,36Zm-9,0,1.5-.5L10,35ZM8,36ZM6,36ZM3,36Zm67,1Zm-4,0Zm-1,0Zm-3,0Zm-1,0Zm-1,0Zm-1,0Zm-6,0Zm-1,0ZM42,37Zm-8,0Zm-1,0Zm-8,0Zm-4,0Zm-1,0Zm-1,0Zm-1,0Zm-1,0Zm-2,0,1.5-.5L15,36Zm-1,0Zm-2,0Zm-1,0Zm58,1Zm-1,0Zm-2,0Zm-4,0Zm-1,0Zm-9,0Zm-9,0ZM27,38Zm-2,0Zm-9,0Zm-3,0Zm49,1Zm-9,0Z" transform="translate(453.49 77) rotate(180)"/></g><g class="e" transform="matrix(1, 0, 0, 1, 2381.01, 3546.99)"><path class="c" d="M-325-7639Zm-3,0Zm-1,0Zm-4,0Zm-4,0Zm-1,0Zm-1,0Zm-1,0Zm-5,0Zm-5,0Zm-10,0Zm-2,0Zm-1,0Zm-2,0Zm-2,0Zm-1,0Zm-1,0Zm-5,0Zm-1,0Zm-1,0Zm-1,0Zm-1,0Zm-4,0Zm-2,0Zm-1,0Zm-22,0Zm-3,0Zm-1,0Zm-1,0Zm-2,0Zm-1,0Zm-1,0Zm-5,0Zm-1,0Zm-1,0Zm-7,0Zm-1,0Zm-3,0Zm110-1Zm-1,0Zm-1,0Zm-3,0Zm-3,0Zm-1,0Zm-3,0Zm-2,0Zm-3,0Zm-3,0Zm-3,0Zm-4,0Zm-9,0Zm-1,0Zm-1,0Zm-5,0Zm-1,0Zm-7,0Zm-1,0Zm-1,0Zm-2,0Zm-2,0Zm-2,0Zm-2,0Zm-4,0Zm-11,0Zm-3,0Zm-8,0Zm-1,0Zm-2,0Zm-1,0Zm-1,0Zm-1,0Zm-6,0Zm-5,0Zm-2,0Zm-4,0Zm105.5-2.5h.8l-.3-1.5-.5-1.5.333-.777L-329-7646q-2.5-1-1-2v-1l1.5.5-1.5.5,2.045,1.228L-327-7649l.5,2.5-.5.835h0l-1,1.664,1.222,2.035.778-3.372h0l.268-1.163h-.768l.5-1.5.363,1.09.136-.591-.5-1.5c.038.015.075.031.112.048-.039-.055-.077-.11-.112-.166h0a4.014,4.014,0,0,1,0-3.883h0l1.5,4.5h-.683q1.494,1.348.683,5l-2.5,3.5a3.036,3.036,0,0,1-.873.157Q-329.386-7639.84-328.5-7642.5Zm1.5,1.5.115-.5h-.282Zm4,0Zm-7,0Zm-2,0Zm-3,0Zm-1,0Zm-2,0Zm-6,0Zm-4,0Zm-4,0Zm-2,0Zm-14,0Zm-2,0Zm-4,0Zm-2,0Zm-8,0Zm-1,0Zm-4,0Zm-20,0Zm-3,0Zm-2,0Zm-4,0Zm-9,0Zm-1,0Zm-2,0Zm-1,0Zm55.5.5-.6-1.8-.9.3v-1l.749.25-.25-.75,1.5-1.5.5,4.5Zm-2,0-.5-2.5,1.5,2.5Zm52.5-1.5Zm-4,0Zm-1,0Zm-1,0Zm-5,0Zm-1,0Zm-6,0Zm-2,0Zm-3,0Zm-6,0Zm-1,0Zm-5,0Zm-1,0Zm-2,0Zm-2,0Zm-3,0Zm-4,0a1.422,1.422,0,0,1-.5-.494q.241.5-.5.993h0a5.513,5.513,0,0,1-1,.5q-1.124-.749,0-1.5h0a5.538,5.538,0,0,1,1-.5,1.428,1.428,0,0,1,.5.495.615.615,0,0,1,.193-.745,2.255,2.255,0,0,1-.189-.25l1.5-2.5v-.5q-1.127-.751,0-1.5v-.887a4.84,4.84,0,0,1-1,.09v.8l.5,2.5h-1l.5-2.5v-.8a3.318,3.318,0,0,1-.651-.077,2.512,2.512,0,0,1,.151.373l-1.322,1.028,1.322-.528-1.5,4h0l-1.53-2.143-.651.506.681,1.135h-1l-.154-.769-.35.273-.5-.5.668-.668L-377-7647l.374.625.541-.541-.416-.583.5-1.5.6,1.2q.536-1.847-1.6-1.2v-1l.5-1.5.5-1.5,1,1.669h0l.5.833-2.5.5a6.875,6.875,0,0,1,2.727-.059,3.69,3.69,0,0,1-.228-.441l.5-1.5.5,2q3,1.3,2-2.5l-.5-1.5a3.2,3.2,0,0,1,1,.729V-7654l-.5-2.5.5-.5-.5-.5-.5-2.5-1,4,1-1h0l.5,2-1.255-.313q.458.406.257.813l.5-.5v3l-2.5-.5.314-.314a2.384,2.384,0,0,1-.813.045h0a.8.8,0,0,1-.733-.732H-377.5l.5-1.5h0l.5,1.5-.428-3L-378-7654l-.5-2.5.5-1.166h0l1-2.335h0l.5,2.5-.248.578a1.915,1.915,0,0,1,.747.473h0a2.312,2.312,0,0,1,.58,1.422q.222-.072.421-.121V-7656l-1.5-1.5.5-2.5.5,2q2.7,1.1,2-1.5a3.871,3.871,0,0,1-.421-.263l.421,1.264h-1l.453-1.361q-.9-.747.047-1.532h0a4.6,4.6,0,0,1,.816-.516,6.1,6.1,0,0,1-.719-2.141l-.1.047.072-.217q-.051-.376-.072-.782l-1,4-.5-7.5-1-2h1a1.8,1.8,0,0,1-1-1.013v4.014l-1.5,1.5h-2l-2,1.2h0l-2,1.2h0l-1,.6h-3l1.5.5-1.5.5v-1h-3l2.5.5-2.5.5,1.5.5-1.5.5v-2h-3l2.5.5-2.5.5v-1h-4l-1,1-1-.5v.5l2.5.5-2.5.5v-1.5l-3-1.5q1.127.75,0,1.5h0a5.575,5.575,0,0,1-1,.5h0l-.5,1h-.5v1q1.127.749,0,1.5h0a5.593,5.593,0,0,1-1,.5q-1.124-.749,0-1.5v-.3l-2,2.8-.856-1.285.357,1.784h-.429a1.109,1.109,0,0,1,.461.943,1.107,1.107,0,0,1-.532.9h0a4.9,4.9,0,0,1-1,.652l1.5.5-1.5.5v-1q-.488-.9-.992-.979l.492,1.479h-1l.495-1.48q-.729-.1-1.494,1.48l-.5,1.5-1-1h0l-.5-.5-.087-.788a4.956,4.956,0,0,1-.412.788v.5l.5,2.5h-1a1.416,1.416,0,0,1-.5.5,6.223,6.223,0,0,1-.825-.391L-418-7650l.5,2.5h-1l.5-2.5v-1l.657.219a.6.6,0,0,1-.156-.72h-1l.5-1.5.5,1.5a.987.987,0,0,1,.187-.248q-.626-.625.313-1.251a5.52,5.52,0,0,1,1,.5v-.5a1.409,1.409,0,0,1-.5-.5v-1.5l1.886.473-.108-.973h-.779l.5-2.5-1,3-.4-8.116q-.436.67-2.094.117a4.407,4.407,0,0,1-.247-1.152l-.254.15-.5-2,3,.5-.565.338q.262.06.565.161v-2.5l-1-1,.5,1.5.5.5-.5.5-1-1-1.5.5v-3.5l2,.5-.074-.52-1.926-.481.5-.5a1.41,1.41,0,0,1-.5-.5l-.5.5-.5-.5,2-3v-2h-.4l.4,2h-1l.4-2h-.9q1.126.75,0,1.5h0a5.512,5.512,0,0,1-1-.5h0q-1.125-.751,0-1.5.3.121.546.241a6.368,6.368,0,0,0-.035-2.767A1.362,1.362,0,0,1-421-7679l.5,1.5h-1l.5-1.5a5.581,5.581,0,0,1-1-.5h0q-1.124-.75,0-1.5a5.209,5.209,0,0,1,1.076.552,2.808,2.808,0,0,0-1.575-1.052l2.5-.5.367-1.1A2.181,2.181,0,0,1-421-7682l-.75-1.249.25.747h-1l.428-1.285-.428-.713q1-.5,1-1l-1.5.5v-1l1.5.5q0-.5-1-1h-1l.5-1.5h0l.5,1.5-1-6-1-1a4.5,4.5,0,0,1,.667-1.221l-.667.222.45-.55-.45-.451,1.5-1.5h0l.5-.5,2.8-3.6-.3.1q-1.123-.751,0-1.5h0a5.583,5.583,0,0,1,1-.5l6-5.251h0l1-.875h0l1-.876h6l1,1h0l2-.667h0l1-.333h5v-1l5.5-.5-5.5.5-1,1h-9.5q-.776-1.94.5-2.207h0a3.028,3.028,0,0,1,1,0h0a7.934,7.934,0,0,1,1,.21,2.421,2.421,0,0,0,1,.99V-7712l5,.454V-7712h-4v-1h8l1,.428V-7713l3,.667h0l1,.222h0l.5.111-.5,2,1-2,1,1h0q.518-.086,1-.136h0q3.423-.354,5,1.135l3-1h0l2.407,1.445L-375-7710l2,1,2.5-1a4.355,4.355,0,0,1,.248,1.165,2.8,2.8,0,0,1,1.251-.356h0a7.124,7.124,0,0,1,2,.191l3,1,3-3,1.5,1q-.25-.5.5-1l1,.6h0l1.5.9-1.5.5h3l.714.286L-354-7709h0l1-1h0l.5,2h-.006l1.507.6v-.1q-1.124-.75,0-1.5h0a5.512,5.512,0,0,1,1,.5h0a1.437,1.437,0,0,1,.5.493q-.24-.5.5-.992a5.554,5.554,0,0,1,1,.5h0q.745.5.5.993a1.429,1.429,0,0,1,.5-.493q2.5,1,1,2l1,1h0l.5.5-.5.5-1.5-1.5a1.414,1.414,0,0,1-.5.5,4.451,4.451,0,0,1-.859.143L-346-7703h0l.789.789a8.192,8.192,0,0,1-.283-1.712l2,1.425v1.5a1.421,1.421,0,0,1,.5-.5h0a5.577,5.577,0,0,1,1-.5l-1-1h0l-1.5-1.5.5-.5,2,2h0l.5.5-.5.5q1.127.75,0,1.5v.186q.95.146.5,1.813l.734,2.2.267-1.2-.5-1.5a3.1,3.1,0,0,1,1-.168h0q1.089.049.5,1.666a2.332,2.332,0,0,1,.622.467L-339-7698l2.5,1.5q-.7,2.3,1.5,1.5a5.579,5.579,0,0,1,1,.5h0q1.051.7.138,1.4a3.462,3.462,0,0,1,.361.6v3l2.167,6.5.333-1,.5,1.5h-.667l.667,2h-.667l.667,1v4l1,1,.182,1.454L-329-7674l.5,1.5h-.751l.751,6,1,1-1.332.333.333.667v.717A5.493,5.493,0,0,1-328-7665l1,2.33h0l.5,1.169v6h-.429l.429,1v3q-.436.654-.872.548l.872,1.452h-3l.5-.833v-.167a5.542,5.542,0,0,1-1,.5,1.416,1.416,0,0,1-.5-.5h-1l.365-1.1q-.918-.7.134-1.4a5.583,5.583,0,0,1,1,.5v-.5l1.5.5-1.089.362a.669.669,0,0,1,.146.328A4.618,4.618,0,0,1-329-7652q.548.365.563.73l.288-.479a6.612,6.612,0,0,1-.349-.75q.8-3.3-1-4l1.25-1.25a1.964,1.964,0,0,1-.75.062h0a.742.742,0,0,1-.642-.812h-.429l.571,4q-.609.914-1.219.341l.22.658h-1l.391-1.175a6.377,6.377,0,0,1-.391-.826l.5-1h-.5l.5-1.5.3.9.2-.4-1-1v-1h-1l-.5-1h0l-1-2h0l-.5-1,.391-1.173a6.345,6.345,0,0,1-.391-.826l.25-.75L-335-7665l-.778-1.168A2.35,2.35,0,0,1-336-7666a5.545,5.545,0,0,1-1-.5h0q-1.127-.75,0-1.5a3.957,3.957,0,0,1-1,.144h0q-1.408-.031,0-2.144a3.538,3.538,0,0,1-1,.106h0q-.713-.049-.827-.606h-.674q1.709.853.5,1.708h0a3.935,3.935,0,0,1-.5.292l-1.5,2.5h0l-.5-.5-.5.5-.5-.5-.5.5-2.5-2.5.5-.5,1.251,1.25-1.75-1.75a3.549,3.549,0,0,0,.61-.39l-.61-.611.5-.5.494.165q-.217-.572-1.493-1.166l-1,1,.5.5-.5.5.5.5-.5.5-2-2h0l-1-1h0l-1.5-1.5.5-.5,1,1h0l.5.5.5-.5.91.909L-351-7674l-1.5-.5.5-.5a2.922,2.922,0,0,1-1,.148h0a.96.96,0,0,1-.96-.854l-.039.1h0l-1,2.6-.5-3-5-2,5,2v8h-.026a.769.769,0,0,1,.124.231l.4-5.23.5,6.5h-1l1,1v7l.5-4.5h0l.5,4.5H-355q1.125.749,0,1.5l-.143.428.642,1.071v.006l.5-.5.421,4.21L-352-7654l-.5,1.5-1,2q1.8.7,1,4h-.332l1.333,2v2h-1q.7-2.6-2-1.5v-3l-.5,1-.936-1.56.437,3.058h-1l.463-3.228-.463-.771h1l-.5-.5-1.174.392q-.121.5-.327,1.108h-.835a9.7,9.7,0,0,1-.166,1,1.411,1.411,0,0,1-.5.5l.5.5-.5.5-2.5-2.5.5-.5.5.5,1-2-.5-1.5a2.4,2.4,0,0,1,1.106.748L-359-7651a2.921,2.921,0,0,1,1-.148h0a1.315,1.315,0,0,1,.2.026,6.21,6.21,0,0,1,.637-1.576l-1.335-.8.77-.192-.77-.308.5-2q-.5,0-1,1h0l-.5-.5a1.415,1.415,0,0,1-.5.5,4.1,4.1,0,0,1-.939.146l.5,1.167L-360-7655l1,1.668h0l.5.833q-.666,1-1.332.222l.333.777-3,.5.928-2.476L-363-7653v-1h0a1.409,1.409,0,0,1-.5-.5l-.132-.658q-.172.078-.368.157-1.169-.778.088-1.556L-364-7657l-1.5-4.5,1-1,.428-3.429-.93.93.5-1.5-.273-.454-.728,1.455,1,2-2.237,1.342a.746.746,0,0,1,.424.472L-365-7663l-.5,1.5-.5,2.5h0l-.325-1.627a6.011,6.011,0,0,1-.175.626l-.016,0q.524.615.016,2.494l-.5.5v.632q1.368,1.183-1,2.367l.5,1.5h-1l.5-1.5v-3a4.856,4.856,0,0,1,1,.632V-7657l-.5-.5-1.5.5v-1l1.5.5-1.5-1.5h0l-1,1,.5,1.5-.333.555,1.334.444-1.5.5v-.666l-1,1.667v.729a2.869,2.869,0,0,1,.617,1.1,1.809,1.809,0,0,1,.382-.327h0a5.513,5.513,0,0,1,1-.5q.854.57.413,1.139l1.087.362-1.5.5v-.5a5.609,5.609,0,0,1-1,.5,2.326,2.326,0,0,1-.218-.165c0,.077,0,.155,0,.235l1.715.43-1.337,3.118q.872.691-.163,1.382h0a5.507,5.507,0,0,1-1-.5v.5l.5,1.5a7.057,7.057,0,0,1-.3.652q1.107.924-1.2,1.849h0Zm1.932-5.544-.271-2.169q-.064.344-.161.712c-.171.046-.338.083-.5.114v.887a5.857,5.857,0,0,1,.932.46Zm15.567-1.638v-1.318l.165-.231q-1.743.378-1.164-1.77,2-1,0-2l.5-.5a.582.582,0,0,1-.688-.126l-.481.96.667.667-.5.5-.386-.154L-356-7652l-.5-.3,2,2.8-.819-.273a2.92,2.92,0,0,1,.819.592Zm25.5-1.151.178-.3c-.054.043-.113.086-.178.129Zm-1.555-.337a.613.613,0,0,1,.168-.5,4.224,4.224,0,0,1-.4-.205Zm-84.884-.134.441-2.2v-.5q-.5.75-1,.5v.5q.939.626.313,1.25a.76.76,0,0,1,.246.454Zm53.884-2.716.5-1.339a.642.642,0,0,1-.6-.291,4.617,4.617,0,0,1-.35.648h0q-.418.627-.836.556Zm-11.757-.168L-373-7654q-.133-.053-.255-.107a3.2,3.2,0,0,1-.058.417Zm16.98-.647.483-.965a4.6,4.6,0,0,1-.65-1.2l.366-1.1a1,1,0,0,1-.417-.549L-357-7655q-.5-1-1-1ZM-412.5-7655v-3l-.5,1.5h0l-.5,1.5h1Zm37.5-.146a3.929,3.929,0,0,1,.438-.083q-.016-.384.561-.771a7.059,7.059,0,0,1,.686.313L-373-7656q-1-2-2,0Zm13.316-.463A4.265,4.265,0,0,1-361-7657q.316.126.568.252.57-2.3-2.569-1.253a5.576,5.576,0,0,1,1,.5h0q1.124.749,0,1.5-.239-.1-.441-.191a.545.545,0,0,1-.025.111Zm6.5-1.026L-355-7657q-.3-.121-.543-.241Zm-8.392-.107c.059-.03.121-.06.185-.089q-.487-.584.388-1.167a1.421,1.421,0,0,1-.5-.5h0l-.5,1.5Zm36.074-.091v-4.666a2.454,2.454,0,0,1-.415-.245l.415,1.246h-1l1,2.5q-.228.092-.431.159Zm-81.921-.062.345-1.718L-410-7660h0l-.438,2.189q.2-.094.438-.189.779.518.48,1.037Zm52.92-1.6Zm26.875-.38a4.427,4.427,0,0,1,.126-.624l-.91-2.731a.956.956,0,0,1-.59.231l.5.5.3,2.1.2-.6ZM-406-7659.5a5.538,5.538,0,0,1,1-.5v-1h-3.5l3,.5-.5.7Zm45.5,0a6.455,6.455,0,0,0,1.244-4.071,6.412,6.412,0,0,1-1.254,4.067Zm-2.263-.143a6.631,6.631,0,0,1,.726-.34h-.06a.955.955,0,0,0-.667.344ZM-371-7660l.5-.5,1-2Zm42.5-.5.451-1.354a1.566,1.566,0,0,1-.451-.659ZM-408.5-7661Zm-2,0-.5-.25v.25Zm-2,0h1.5v-.25l-.5-.251-1,.334Zm81-.5-.314-.942a4.628,4.628,0,0,1-.685-1.058l-.158-.788a.824.824,0,0,1-.585.351Zm-80,0-1-.5v.167Zm43-.5a3.385,3.385,0,0,1,1.5-.23v-.763q-1.2-.324-1-2h-.5Zm3.3-1.969a4.131,4.131,0,0,1-.306.97,3.865,3.865,0,0,1-1.326.044q1.842.435,1.633-1.015Zm5.938.375v-.1c0,.034,0,.064,0,.094Zm0-.143v-.071a.378.378,0,0,1,0,.068Zm0-.14Zm29.216-.007L-330-7664l-3.5-2.5-.214-.643-.186.31,1.1,1.834-.2-1ZM-372-7665l-.474.237a4.879,4.879,0,0,0,.974-.237q1-1-1-2-.057.085-.11.167Q-370.627-7665.92-372-7665Zm1.3.229a8.26,8.26,0,0,1,.2-1.73l1.5.5q3,.5,3.5-1.5l-2.5,1.5q-1.5-1,1-2l-1.5.5-.5,1.5-1.5-.5a8.265,8.265,0,0,0-.2,1.731Zm-24.8-.229h1v-2l-.3.6.3.9h-.75Zm-19-.5a2.134,2.134,0,0,1-1.247-2.042,2.133,2.133,0,0,0,1.247,2.042Zm55.069-.555Zm-.022-.146v-.024Zm-.048-.3c.009.051.017.1.025.152q-.01-.076-.024-.151ZM-355.5-7666.5Zm-56.941-.271A4.22,4.22,0,0,1-413.5-7667a1.235,1.235,0,0,0,1.059.229Zm.887-.212.053-.017v-.026c-.016.017-.033.027-.052.047ZM-335-7667l1.2-.4-.2-.6Zm-78.5,0q.5-1.5,0-2Q-414-7667.5-413.5-7667Zm7.75-1,.25-.5-1-1Zm40.314-.062L-366-7669l-.5.3Zm1.64-.069.3-2.367a4.35,4.35,0,0,0-.3,2.369Zm-49.7-4.37-4,4,4.335-4.335a2.42,2.42,0,0,1-.148-.237l-.191.573Zm38.7,3.828Zm.324-.029c.05-.008.1-.018.155-.03l-.163.031Zm.221-.045a5.385,5.385,0,0,0,.758-.253,5.546,5.546,0,0,1-.766.249ZM-390-7669q3,.5,3.5-1.5l1.5-2.5,1,2,3.5-5.5,2.5-7.5-2.5,7.5-3.5,5.5-1-2-3,4-1.874-.375Zm56,0,.125-.5h-.225Zm-79.5,0q-.5-.5-2,0Zm82.2-.058-.2-.44a.675.675,0,0,0,.2.438Zm-75.2-10.442h0l1.5-2.5Zm75,10,.11-.332a.6.6,0,0,0-.11.332Zm-5.5-.5q1.877.655,1.689-.757l-.19.757-2.248-1.123Zm-73,0q2.5-1,1-2a8.5,8.5,0,0,1-1.57.206l2.069.3-3,1.5Zm34.438-.248c.018-.081.038-.165.061-.251q-.035.129-.061.249Zm41.906-.127.142-.568a1.043,1.043,0,0,0-.142.563Zm-6.844-.124.5-2.5-.5-3.5Zm-4,0Zm-19,0,1-1a2.177,2.177,0,0,0-1,1Zm32.366-.1.134-.4q-1.968-.656-2.477,0Zm-86.535-.063-.139-.973-.087.068Zm82.768-.831-.1-.5-.126.5Zm-29.1-.5,1.5.5-3-2A1.924,1.924,0,0,0-364-7672Zm24.3.5a8.587,8.587,0,0,1,.7-1.5l.287.431a10.67,10.67,0,0,1-.155-1.933h-.634l.5-1.5.207.623A3.254,3.254,0,0,1-337-7678l-.9.3-1.1.822h0l-.5.376-.5,3.5Zm6.2-1.5q1,2,2,1v-4l-.466.7.466,2.8-.5.5-1.3-1.3Zm-61,1Zm-2,0h1v-1.5l-.5,1.5-.3-.413Zm20-3.5v2.716A5.51,5.51,0,0,1-376-7674a5.233,5.233,0,0,1,.973.465Zm39,2.5,3.6-.9-.6-.6h0ZM-418-7672.993ZM-394.5-7673.5Zm-17,0-1-4Zm-1,0-.573-.573q-.045.27-.121.573Zm47-2a5,5,0,0,0,0,2l.889-2.667a2.279,2.279,0,0,1-.889.667Zm18.5,1.5v-1a6.285,6.285,0,0,1-.84-.4Zm0,0,2.5-1H-347Zm14.5-.5Zm-17-1-2-3Zm-38.5-.5q3,.9,1.5-3.5v3.5l-2.1-.842a2.51,2.51,0,0,1,.6.841Zm-2,0a2.284,2.284,0,0,1,.669-.89l-.87.289Zm-26,0a3.068,3.068,0,0,1,2.421-.062,1.113,1.113,0,0,0-.82-.265,5.316,5.316,0,0,0-1.6.328Zm83.5,0a.7.7,0,0,0-.336-.149Zm-65.188-.081q.817-.931-1.311-1.918h-1.059Zm33.19-.418Zm16,0Zm8,0,2.168-2.167L-340-7678l1.5-.5-1.5,1.5-.5.029Zm-25-1a2.511,2.511,0,0,1,.842.6l-.842-2.1q1.414.558,1.984-.006a3.648,3.648,0,0,0-1.289-.319q-1.19-.006-.7,1.824Zm-23.5.5Zm54.5,0h1v-2l-.237.474.237,1.027h-.75Zm-80,0h1v-2l-.3.6.3.9h-.75Zm82-1.5.177,1.063a3.043,3.043,0,0,0-1.836-2.914l.09.39.067-.04Zm-8.5-.5,1,1-1.591-2.5h-.909l-1.5-2.5a2.944,2.944,0,0,0-1.5,1.5l1.5-1.5,2.5,4.5-.941-.314q.053.407-.558.815a7.351,7.351,0,0,1-.687-.314L-344-7678a3.109,3.109,0,0,1-.919.151Q-342-7677.18-341-7679Zm3.779.79,1.788-.993q-.042-.143-.076-.291Zm-75.28-1.29q1,.5,1,1,0-.5-1-1Zm65,1,.1-.5-.268.446Zm-27,0v-2l-.858-1.43ZM-415.5-7678.5Zm65-4q-1.136,3.335.312,3.625l-.312-.125v-4.5l1.5-1.5-.222.667a3.3,3.3,0,0,1,.648-.411L-349-7685l-1.5.5,2.5-1.5q-2.4-.1-1-1l2.5,1.5-1.5-.5q1.5,2.5,3-1l.617,1.146L-344-7687l.3.5-.8-2,.5,1.5-1.444-2.165a.979.979,0,0,1-.421.57l.366,1.1h-1l1,1-.5.5q-.329-.165-.614-.329A1.816,1.816,0,0,1-347-7686q-2.218-.886-1.289-1.774a1.357,1.357,0,0,1,0-1.455,2.162,2.162,0,0,1-.212-.272l.375-.624L-350-7692l-.5.5-.25.75.75-1.25,1.5,2.5-.375.875.375,1.126h-.857l-2.142,5Zm-13,3.475a2.662,2.662,0,0,0,.277-2.214Zm27.987-.477a5.226,5.226,0,0,1-.09-.521l-1.355-.338-.214.533L-337-7680Zm-11.989-.5q-1.532.51-2.022-.022.393.684,2.024.024Zm-49.5,0h4l-4.332-.482A2.439,2.439,0,0,1-397-7680Zm61.372-.319A9.184,9.184,0,0,1-335-7684l.544,2.361q1-3.144-1.546-2.361v-1h-1v.688q.948.146.5,1.812l.5-1.5.5,1.5h-1Zm-17.2-.181ZM-387-7681a13.383,13.383,0,0,1-2.021.414,4.733,4.733,0,0,0,2.193-.462C-386.883-7681.03-386.941-7681.02-387-7681Zm-10.462.385.161-.484-1.2-.4.332-.167-2.332.666a4.649,4.649,0,0,0,.071-.78,4.66,4.66,0,0,1-.071.779,5.323,5.323,0,0,1,1.372-.2,2.331,2.331,0,0,1,1.667.58Zm63.231-.053a2.489,2.489,0,0,0,1.034-1.817q-.116.456-.3.985h-.922Zm-11.457-.238c.054-.182.114-.373.182-.571a3.267,3.267,0,0,0-.182.567Zm-20.222-.025.41-.069.7-1.056a5.207,5.207,0,0,1-1.111,1.126ZM-394-7681a2.915,2.915,0,0,1,.5-.749l-1,.5Zm41.5-.5,1-3v-4.5a1.342,1.342,0,0,1-.448.465l.448,4.037h-1Zm20-1,.665,1L-333-7685Zm-14.8.869.272-2.182-.443-.266a1.1,1.1,0,0,1-.4.485l.366,1.094h-1l.29-.87a6.46,6.46,0,0,1-.79.372l.5.5-.313.314a2.93,2.93,0,0,1,.565-.063.86.86,0,0,1,.953.619Zm10.2-.1.1-.269a4.7,4.7,0,0,1-.512.109Zm-58.409-.023a.718.718,0,0,0-.5-.25Zm39-.249h1l-.376-.376-.625.209Zm-17,0,1.539-.77L-372-7683l-1.5.5Zm-3.5,0,1.332-.446L-376-7683l-1.286.428Zm-14.5,0,4-1-.375-.375-3.75,1.25Zm44.75-.25.25-1.25-.468-.281Zm-50-.126.25-.125-.832-.166Zm57.964,0a1.736,1.736,0,0,1,.036-.871l-.246.25a6.23,6.23,0,0,1-.826-.39l-.854.283Zm-46.713-.121Zm-25.5-.5,1.5.5-.5-.5-1.5-.5a1.411,1.411,0,0,0,.5.5Zm46.5.5.454-.681-.883-1.1-1.618-1.079Zm8.5-1.5,2.5,1.5a1.926,1.926,0,0,0-1.5-1.5l-3.5-2.5Zm-13,1q1.974.658,2.481-.006a3.457,3.457,0,0,0-2.471-.026Zm-23.5,0,.251.251-.126-.376Zm36.249.25-.249-.25v.167Zm-29.246-1.75a5.919,5.919,0,0,1,.081,1.509l.585-3.511-.167.5Zm-32,1.5,4.5-2h2l1.5-1.5,1-2-1,1-1.5,2.5h-2Zm50.991-.022a1.718,1.718,0,0,0,.008-1.477l-.358-1.072-.643-.428.667-.667-.667-.833v-.5l-1.347-.674h-.023a.9.9,0,0,1-.773-.184l.137-.137a1.179,1.179,0,0,1-.136-.684q-.215.571,0,.82l-.022.021A2.432,2.432,0,0,1-369-7688l1.5.5-4,2,3.5-1.5Zm-44.993-.479a1.981,1.981,0,0,1,.676-1.108q-.951.559-.674,1.109Zm69.213-.225a.627.627,0,0,1-.214-.771q-.427.64-.856.548l.107.2.25-.25ZM-389-7684l.75.25-.25-.25v-1l-.125-.125Zm-8.5-2q-1.1,2.7,1.5,2a2.694,2.694,0,0,1,.144-.241,8.655,8.655,0,0,1-1.644.241q.871-2.137-.576-2.144Zm6.068,1.931a2.353,2.353,0,0,0,.866-.866Zm50.885-.06q-.106-.436.547-.872l2.5.5-.248.249a1.984,1.984,0,0,1,.75-.062V-7685l-1-.5h0l-1.768-.884-1.005.43,2.273.455-2.5.5v-.857l-1.842.789.341.569a1.412,1.412,0,0,1,.5-.5ZM-404.5-7687.5l2.5,2.5,1.427.713Zm48.5,2.5h3.5v.5l.441-3.962A5.735,5.735,0,0,1-353-7688a1.4,1.4,0,0,1-.5-.5,2.109,2.109,0,0,0,1,1q.481,1.6-.552,1.921l.552.079-3.5.5q-1.5-.666-1.488-1.361Q-357.5-7685.67-356-7685Zm-50.5.5a7.517,7.517,0,0,1-.227-1.139l-.167,1.006Zm-10.227-.048,1.225-.953q-.356-1.121.04-1.489l-.04-.011Zm45.226-.953,2.4.8.1-.3Zm-32.414.644Zm.391-.032c.067-.01.138-.022.21-.037-.072.016-.142.026-.209.036Zm-15.773-.035.2-1.439-.409-.136a9.009,9.009,0,0,1,.2,1.58Zm43.8-.576q.781,1.17,1.559-.091L-374-7686Zm-34.5.5Zm32.5,0v-1.165L-378-7685Zm-1,0h.5l-.2-.6Zm-14,0,.5-2a6.64,6.64,0,0,1-1,1.22v.666q.238.045.5.115Zm-.5-.115v-.665a6.029,6.029,0,0,1-.708.579,4.954,4.954,0,0,1,.7.082Zm50-.216V-7686l2-1-2.42.969Zm-30.5-.667a3.447,3.447,0,0,0,1.377.325,6.206,6.206,0,0,1-1.38-.326Zm-15.749.25-.25-.25-.125.125ZM-356-7686l.5-1.5Zm-34.756-.061A4.148,4.148,0,0,0-392-7687q.623,1.25,1.245.94Zm17.2-.3.057-.14,2-3a2.818,2.818,0,0,0-2.059,3.142Zm15.057-.14q1-.5,1-1Zm-46.167-.042.024-.075c-.01.028-.018.048-.026.078Zm.025-.076.025-.073Zm9.118-.383H-398q1.963.652,2.475,0Zm24.024,0a3.471,3.471,0,0,1,.142.32,3.051,3.051,0,0,0-.049-.413Zm-17.519.207a1.147,1.147,0,0,1-.159-.008c.055,0,.108.013.158.013Zm.519-1.706q.576,1.651-.451,1.7,1.025-.049.45-1.7Zm-16.026,1.565.027-.066Zm-1.979-.035.026-.031h-.021ZM-335-7687l1.2-.4-.2-.6-1.071.356Zm-46,0,.125-.5h-.375Zm-11.5-4-.5,4,1-4,.172.69q0-1.18,1.828-.69l.5-1.5Zm-9,4Zm-10,0v-2l-.4.4.4,1.6-1.6-.4-.4.4Zm15.993-.023a1.72,1.72,0,0,0,.008-1.477l-.116-.349a2.4,2.4,0,0,0,.108,1.828Zm30.01-.473-1-1.5-.251.251Zm19,0,.29-.87A6.478,6.478,0,0,1-347-7688Zm-9,0-1.932-3.381a1.091,1.091,0,0,1,.065.27Zm-2-2,1,2-.857-3a3.363,3.363,0,0,1-.146,1Zm-19,2,1.409-2.537q-.7-.223-1.409,1.538l-.428,1Zm19,0a.639.639,0,0,0-.159-.4Zm-27.133-.2.133-.8-2-2Zm46.63-.3q-1-2-2,0l-2-2-2.5,1.5,2.5-1.5,2,2q.5-1,1-1T-338-7688Zm-66.943-.794h-.066Zm.048,0a2.375,2.375,0,0,0,.554-.1,2.393,2.393,0,0,1-.559.1Zm.752-.156h.005Zm.008,0,.135-.05Zm52.637-1.546q-1.755.751-2,1.5a2.83,2.83,0,0,1,1.5-1,1.417,1.417,0,0,1,.5.5h0l.45-.75-.45-2.25a2.106,2.106,0,0,0,1.246-2.226,12.44,12.44,0,0,1-.247,1.225h-1.6ZM-377.5-7689Zm-14,0,3.5-1Zm-31,0Zm3.973-.066c-.024-.06-.046-.118-.067-.175.021.051.043.111.067.171Zm83.287-.1a5.215,5.215,0,0,0-.261-2.338Zm-83.362-.1q-.668-1.848.644-1.88-1.311.031-.642,1.871Zm47.1-.236v-6l-1-3,.5-.9h0l2-3.6,2.5.5a2.588,2.588,0,0,0-.924.923L-367-7703l1.5.5.5-.5h0l-.5-.5.5-.5-1.5.5v-.838a2.26,2.26,0,0,1-.5.339h0a3.722,3.722,0,0,1-1.666.332l1.166.167-3.5.5-.5,1.5-.5,1.5-.5-1.5a12.991,12.991,0,0,1-.378,2.372l.378.629q-.386.578-.772.562a7.58,7.58,0,0,1-1.259,2.1l.2.065L-373-7698l-.5,1.5-.6.8.6.2.5-1.5.5,4,.5-3Zm-43.847-.072.257-1.791-.41-.137a10.106,10.106,0,0,1,.155,1.927Zm79.005-.425q.412-1.472-.157-2a4.735,4.735,0,0,1,.159,1.994ZM-346-7689.994Zm-27.5,0v-2l-.3.6.3.9-.2.5ZM-379-7690Zm-1.5,0,.441-1.765-.441-.734q.415,1.54-.364,1.781l.364.219-.681.227Zm10.93-.209q.029-.138.07-.29l-1-2.5Zm-35.967-.165.021-.072Zm42.037-.125.645.064.356-1.065.3-.9-.3-.1Zm15.562.063.731-1.218q-.725-.608.03-1.216l-.323-.129v-1.5a4.5,4.5,0,0,1-.667,1.222l.667-.223Zm-20.561-.063h.113a5.609,5.609,0,0,0,.132-1.368,6.713,6.713,0,0,1-.246,1.367ZM-386.5-7690.5Zm-19,0q-.443-1.773-2.848-1.582Zm-6,0,.589-.295a.715.715,0,0,1-.589-.208Zm64.934-.2q.265-.151.566-.3a6.371,6.371,0,0,1-.79-.371Zm6.566-.3a2.118,2.118,0,0,1,1.2-1.061l-.2.062-1.667.833Zm-43.5,0a.532.532,0,0,1,0-.5h-1l-.5-3.5-1,1,1.5,3Zm-33.5,0,4.5-5.5v-2h-.857l.857,2-4.5,5.5-.131-.034Zm-.209-.052c-.063-.015-.125-.027-.184-.039a1.41,1.41,0,0,1,.184.041Zm59.671-.014-1.962-3.433q.814-1.223,1.629.209l.87.29q.167.045.319.076-.152-.031-.319-.076l-3-2.142V-7695l-.716-.43L-362-7695l-1-.715v.33l1.685.907A6.394,6.394,0,0,0-364-7694l-2.5,1,6-1-.346,1.385.346.115a1.854,1.854,0,0,0-.021-1.551l1.022.55-.5-1.5,2.261,3.769a.609.609,0,0,1,.2.162Zm-59.994-.047a2.689,2.689,0,0,0-.381-.03,2.692,2.692,0,0,1,.381.034Zm75.9-.295a3.279,3.279,0,0,1-.865-1.092h-1v.5h-.5Zm-71.866-.091v-3l-.409,2.863Zm78,0a2.587,2.587,0,0,0-1.5-1.5l-2-1-2.5,1,2.5-1Zm-48,0a1.419,1.419,0,0,1,.5-.5l-.4-.6a6.729,6.729,0,0,1-.1,1.1Zm1.244-.05,1.755-3.948-2.5,3.5Zm37.527-.084L-344-7692h-1l-1-.4ZM-400.5-7692h.5l-.333-.333Zm64,0q-.543-.5-1.972-.148a3.093,3.093,0,0,1,.6-.056,5.325,5.325,0,0,1,1.372.2Zm-7-.5q.652-1.961,0-2.475Zm-37,0,2.513-1.6h-.112a2.143,2.143,0,0,0-2.4,1.6ZM-389.5-7692.5Zm-20-4.5-2,4.5,2.5-4.5.5,1.5v-.5l2.1.841a2.511,2.511,0,0,1-.6-.84l-1.5-.5.273-.819Zm22.045,4.09L-386-7694l-.5-.5ZM-349-7693Zm-17.5,0a4.009,4.009,0,0,0,.083-.814,4.024,4.024,0,0,1-.083.815ZM-370.5-7693Zm-26.5,0,.715-.429-1.142.286Zm-23.495,0-2.005-.5.4-.6-.4-.4v1.5Zm20.995-.3v-.7l-.206.412Zm43.414-.556a2.635,2.635,0,0,1-.387-.03,2.7,2.7,0,0,0,.387.026Zm.023,0q1.408-.017.591-2.078.817,2.064-.592,2.074Zm21.148-.1A4.591,4.591,0,0,0-338.5-7694a7.81,7.81,0,0,1,1.958-.285,3.779,3.779,0,0,1,1.626.326ZM-388-7694l1.5-.5-.5-.5-1.2.4Zm-2.5,0h.219q-.053-.108-.105-.228Zm-17.5,0,1.441-.479-.44-.52-1.2.4Zm54.5-.475v-.025l-.008-.006Zm-68.335-.024,1.334-2v-2Zm74.335,0v-1.5l.395.1-1.4-.6,3-1-2.5.5.5-1.5.3-.9-.3-.1-.5,1.5-.5-1.5-.5.5-.5-.5a6.647,6.647,0,0,1-.356.762l.569,1.024L-349-7698l-.167.5,1.166,2.1h0Zm-30.5-.5.876-3.5h-.376Zm0,0a5.871,5.871,0,0,0-3.448-2.587Zm-6.5-2.5,2.5,2.5,1.5-.5-1.5.5ZM-406-7695Zm62.447-.014a1.036,1.036,0,0,0-.572-.143Zm-47.781-.057q.305-1.531-1.666-.931a4.494,4.494,0,0,1-1.222-.667l.223.667-.265.147,1.515.3.75-.45Zm1.835-.1V-7696l-.227.454Zm26.5-.218v-.33l-2.5-1.787.312.939Zm8.5-3.115,2,3Zm-7.5,2.5.748.249-1.247-.749a2.947,2.947,0,0,1,1.507-1.5H-361q-2.5,1-1,2Zm-61.373.122,2.145-2.622h-.271Zm34.1-.178-.222-.443.208-.417a2.549,2.549,0,0,1-1.954-.833L-392-7698Zm20.779-.443v-4.941q-.848,1.625,0,4.944Zm18.25-.25.416-.417-.127-1.4q-.413.651-.825.622a2.63,2.63,0,0,1,.534,1.193ZM-367.5-7697Zm-38.5,0,.5-3,2.5,1,3-1,1,1,.5-.5-1.5-.5-3,1-2.5-1Zm-12.5,0h1v-2l-.3.6.3.9h-.75Zm24-.5Zm31-.5-2,.5,2-.5a3.4,3.4,0,0,0,0-2.547,6.235,6.235,0,0,1,0,2.547Zm-21,.5,1.829-.365A12.25,12.25,0,0,0-384-7698Zm41.79-.07q.091-.45.21-.929h0a1.408,1.408,0,0,1-.5.5l-.625.125Zm-46.789-1.93.666,1.668.333-.667-.8-1.6Zm-18.556,1.667L-408-7698l-2-1ZM-345-7698l.5-.5-1.5-.5Zm-12.5,0v-2Q-358-7699.5-357.5-7698Zm13-.5.466-1.4a6.274,6.274,0,0,1-.605-.9l-.236,1.18a3.464,3.464,0,0,1,.375,1.12ZM-351.5-7698.5Zm-61,0v-.5l3.5-1-3.5,1a3.7,3.7,0,0,1-.291-1.133A4.782,4.782,0,0,0-412.5-7698.5Zm20.5-.5Zm17.5,0h.22c-.035-.072-.07-.148-.105-.229Zm-21,0-.5-2-.715,1.428.213.071.5-1.5Zm-12.5,0Zm.333-.111.868-.29-.2-.6a2.289,2.289,0,0,1-.668.891Zm59.166-.391-.5-1.5a6.94,6.94,0,0,1,2.046.007,5.847,5.847,0,0,0-3.133-.1Zm-1,0-2-2,.5-.5.556.557q.207-2.543-2.557-3.556l-1.5-.751a2.9,2.9,0,0,1,.5.751l3.5,2.5-1.5.5-.682-.455-1.82.455,3,.5-2,.5,3,.5-.333.666Zm-38.5-.5,3.334.445L-389-7701l-.2.6Zm32.5.021V-7700l-.03-.01Zm12-.021c.114-.046.223-.088.328-.125a1.182,1.182,0,0,1-.328-.373Zm-73.5,0,.357-.214-.257-.086Zm59.5,0a4.593,4.593,0,0,1,.8-.249h-.056a1.02,1.02,0,0,0-.748.251Zm-16-.167V-7701l-.227.454Zm31.5-.146v-.186a3.4,3.4,0,0,1-.294.175h.1a1.243,1.243,0,0,1,.195.017Zm-33.295-.032.244-2.189q-.574-.4-.5-.8l-.355,1.064a3.039,3.039,0,0,1,.607,1.922Zm-39.2-2.155-.938,1.562.938-.563,2.5-3.5,1,1,.5-.5-1.5-.5Zm4.5,1.5.051-.118Zm0,0a2.91,2.91,0,0,0-2.318-.1,1.7,1.7,0,0,1,.774-.15A6.124,6.124,0,0,1-410-7701Zm.14-.314q.053-.113.105-.218-.056.1-.109.224Zm.106-.22q.677-1.357,1.354-1.493-.681.139-1.358,1.5Zm-7.371-.092L-417-7702l-.749.25Zm11.868-.128Zm.053,0a2.2,2.2,0,0,0,2.185-1.207,2.2,2.2,0,0,1-2.185,1.212Zm-.549-.024c-.078-.007-.158-.016-.24-.027.079.017.159.017.237.027Zm41.684-.154L-364-7702l-.449-.448a4.571,4.571,0,0,1,.381.519Zm-42.677-.008-.053-.012ZM-366-7702l.5-.5-2,.5Zm-7,0,2-2-2.572,1.714Zm-5,0,1-1q-.5,0-1,1a2.839,2.839,0,0,0-2.345-.083,2.007,2.007,0,0,1,.832-.151A6.153,6.153,0,0,1-378-7702Zm-29.03-.052-.013-.021Zm30.475-.75a.673.673,0,0,0-.444-.2,2.823,2.823,0,0,1,.443.2ZM-360-7703l.5-1.5Zm-2.5,0h1l-.374-.375-.625.208Zm-21,0a5.034,5.034,0,0,1-.28-.882l-.22.882Zm-6.5-1,1,1q-1.2-2.3-6-1Zm16,1a.644.644,0,0,0,.4-.16Zm-30,0-.4-.16A.644.644,0,0,0-404-7703Zm0,0a.717.717,0,0,0,.5-.249Zm30,0-.329-.109A.6.6,0,0,0-374-7703Zm-34.179-.038h-.068Zm32.679-.458Zm25-.5,1.313.438-1.129-.806Zm-21,0-.517.207q1.111,0,.517-1.705l2.5-2.5q-3,1.094-2.5,3.994Zm-34.7.119-.3-.119q.5-1.5,0-2-.779,1.906.3,2.116Zm25.452-.076c-.028,0-.057,0-.085,0,.028,0,.055,0,.083-.007Zm.109-.008q.678-.1,1.356-1.423-.68,1.323-1.358,1.414Zm-20.555-.436,2.117-.47q-.445-.048-.921-.127Zm52.7-.1-1-1.5-.167.334Zm-60,0a3.579,3.579,0,0,1-.144-.924l-.2.809Zm36-.5h-4.446a10.115,10.115,0,0,0,4.44,0Zm-9.384.186ZM-356-7705a2.288,2.288,0,0,1,.668-.891l-1.811.6ZM-367-7705Zm-26,0,.5-.5-1.5-.5Zm15.936-.032L-379-7706a5.582,5.582,0,0,0,1.936.97Zm-2.168-.464q.06-.122.121-.254-.06.13-.12.25Zm-11.269,0a7.539,7.539,0,0,1-.257-.956l-.137.823Zm40.5-1.5,1.331,1.331A4.534,4.534,0,0,1-348-7707a6.529,6.529,0,0,1-.789-.372l.29.872h-1l.365-1.1a1.229,1.229,0,0,1-.361-.4q.24.5-.5.992a5.576,5.576,0,0,1-1-.5v.1Zm-29.106,1.241q.053-.117.107-.242-.053.117-.106.237ZM-355-7706ZM-360-7706Zm-14.5,0h1l-.375-.375-.87.29Q-374.627-7706.04-374.5-7706Zm-32,0a1.019,1.019,0,0,0-.747-.249A5.368,5.368,0,0,1-406.5-7706Zm59.187-.684.033-.034a.631.631,0,0,1-.223-.774,1.43,1.43,0,0,1-.5.493,6.959,6.959,0,0,1,.689.31ZM-358.5-7707v-1l-.125-.125-.336,1.01Zm-26.5,0h6l1.177-.882L-378-7708l-1,1Zm25.916-.146q-.932-1.523-3.416-.855Zm-15.667-.1-.75-.75q-.143.072-.26.144Zm-12.749-.249a3.57,3.57,0,0,1-.144-.926l-.2.81Zm-3.006-.471.028-.021-.023-.009Zm5.246-.07a1.158,1.158,0,0,0-.239-.958Zm-.241-.96a1.016,1.016,0,0,0-.744-.249,5.464,5.464,0,0,1,.745.245Zm25.75-.25-.75-.75-.187.188ZM-398-7711v-.454l-4.986.453Q-401.391-7710.15-398-7711Zm22,69Zm-2,0Zm-3,0Zm-3,0Zm-13,0Zm-3,0Zm-3,0Zm-6,0Zm-2,0Zm-1,0Zm-1,0Zm-1,0Zm-3,0Zm-8,0Zm67.5.5.5-3.5.5,3.5Zm-22,0,.5-1.5.5,1.5Zm20-1,.4-.936a5.924,5.924,0,0,1-.9.436l-1.5-.5,1.668-1h-.668l-.5-2.5,1.412,2.353L-359-7645a1.737,1.737,0,0,1,.416.366L-358-7646h0l.5,2.5a5.537,5.537,0,0,1-.5,1h0q-.375.563-.75.563T-359.5-7642.5Zm30.5-.5Zm-1,0Zm-1,0Zm-3,0Zm-2,0Zm-1,0Zm-2,0Zm-5,0Zm-1,0Zm-9,0Zm-1,0Zm-1,0Zm-5,0Zm-1,0Zm-1,0Zm-6,0Zm-35,0Zm-3,0Zm-6,0Zm-3,0Zm-7,0Zm-3,0Zm-5,0Zm-1,0Zm105-1Zm-2,0Zm-1,0Zm-9,0Zm-2,0Zm-2,0Zm-1,0Zm-1,0Zm-3,0Zm-3,0Zm-3,0,1.5.5-1.5.5Zm-1,0Zm-1,0Zm-23.5.5.5-.833h0l1-1.667h0l1.5,3Zm-3.5-.5Zm-10,0Zm-11,0Zm-2,0Zm-7,0Zm-13,0Zm-2,0Zm-1,0Zm-3,0Zm-2,0Zm60.5.5.5-2.5.5,2.5Zm50.5-1.5Zm-4,0Zm-2,0Zm-1,0Zm-2,0Zm-6,0Zm-2,0Zm-4,0Zm-1,0Zm-10,0Zm-6,0Zm-1,0Zm-2,0Zm-6,0Zm-20,0Zm-14,0Zm-1,0Zm-9,0Zm-14,0Zm-4,0Zm-1,0Zm19.5.5.5-2.5.5,2.5Zm89.5-1.5Zm-5,0Zm-1,0Zm-1,0Zm-1,0Zm-6,0Zm-3,0Zm-1,0Zm-2,0Zm-1,0Zm-1,0Zm-9,0Zm-2,0Zm-4,0Zm-4,0Zm-2,0Zm-12,0Zm-2,0Zm-1,0Zm-5,0Zm-3,0Zm-12,0Zm-3,0Zm-2,0Zm-2,0Zm-1,0Zm-6.5.5.5-.7h0l2-2.8.5,4Zm-1.5-.5Zm-1,0Zm-4,0Zm-4,0Zm14.5.5.365-1.1q-.818-.626-.069-1.252a7,7,0,0,1-.3-.651l.5-1.5v-.667l-1,1.667h0l-.5-1.5.5-.836h0l1-1.666.5,1.5-.5.833v.667l.727,1.211A2.173,2.173,0,0,1-411-7649q.323.13.58.259L-410-7650l.5,1.5h-.5q1.123.75,0,1.5h0a7.049,7.049,0,0,1-.651-.294l-.038.043q.628.626-.31,1.252a6.417,6.417,0,0,1-.792-.373l.29.872Zm-5,0,.5-1.5.5,1.5Zm-3,0,.5-1.5-1,1-.5-.5,2-3,.5-4.5.5,5.5-1.5,1.5.5,1.5Zm82.5-1.5Zm-9,0Zm-15,0Zm-5,0Zm-1,0Zm-11,0Zm-4,0Zm-3,0Zm-4,0Zm-12,0Zm-3,0Zm-1,0Zm-1,0Zm-1,0Zm-1,0Zm-9,0Zm-1,0Zm-5,0Zm-1,0Zm-9,0Zm76.5.5.5-1.5.5,1.5Zm29.5-1.5Zm-4,0Zm-10,0Zm-24,0Zm-1,0Zm-1,0Zm-9,0Zm-14,0Zm-11,0Zm-3,0Zm-1,0Zm-3,0Zm-4,0Zm-4,0Zm-2,0Zm-4,0Zm-2,0Zm-2,0Zm-1,0Zm-4,0Zm53.5.5.5-1.5v-.5q-.5.749-1,.5l.5,1.5h-1l.5-1.5a1.416,1.416,0,0,1-.5-.5l1.5-3.5h0l.5,2.5a5.568,5.568,0,0,1-.5,1v.5l.5,1.5Zm-38,0,.5-2.5.5,2.5Zm88.5-1.5Zm-14,0Zm-1,0Zm-2,0Zm-16,0Zm-1,0Zm-15,0Zm-6,0Zm-1,0Zm-18,0Zm-3,0Zm-1,0Zm-3,0Zm-13,0Zm-3,0Zm-3,0Zm-2,0Zm-2,0Zm100.5.5.5-1.5.5,1.5Zm-84,0,.5-1.5.5,1.5Zm-2,0,.5-1.5.5,1.5Zm-4,0-1-3.5q2.1-.827,2.337.814L-420-7652l.5,2.5h-.767q-.088.462-.234,1Zm97.5-1.5Zm-6,0Zm-12,0Zm-3,0Zm-5,0Zm-10,0Zm-1,0Zm-1,0Zm-4,0Zm-2,0Zm-33,0Zm-5,0Zm-3,0Zm-2,0Zm-11,0Zm-4,0Zm11.5.5.5-2.5.5,2.5Zm90.5-1.5Zm-14,0Zm-6,0Zm-2,0Zm-3,0Zm-12,0Zm-1,0Zm-4,0Zm-6,0Zm-1,0Zm-7,0Zm-7,0Zm-3,0Zm-10,0Zm-10,0Zm-1,0Zm-13,0Zm-2,0Zm-4,0Zm64.5.5.5-2.5.5,2.5Zm40.5-1.5Zm-13,0Zm-8,0Zm-6,0Zm-7,0Zm-14,0Zm-6,0Zm-8,0Zm-3,0Zm-10,0Zm-8,0Zm-1,0Zm-1,0Zm-16,0Zm-4,0Zm-2,.5h0q-1.127-.75,0-1.5.324.13.58.26l.42-1.26.5,1.5h-.5q1.123.75,0,1.5a5.58,5.58,0,0,1-1-.5Zm54.5,0,.5-1.5.5,1.5Zm-34,0,.5-1.5.5,1.5Zm-18-.5.5-2,1,.333h0l.5.166.5-2.5,1,1.667h0l.5.832a3.261,3.261,0,0,1-.5.818h0a2.6,2.6,0,0,1-2.086.888A5.5,5.5,0,0,1-429.5-7652Zm96.5-1Zm-12,0Zm-2,0Zm-11,0Zm-5,0Zm-16,0Zm-5,0Zm-3,0Zm-1,0Zm-19,0Zm-1,0Zm-1,0Zm-1,0Zm-13,0Zm2.5.5.5-1.5v-1l1.287.43L-419-7656a2.763,2.763,0,0,1,1-.151v-.35a5.523,5.523,0,0,1-.5-1l.5-.5a1.415,1.415,0,0,1-.5-.5v-2.5q.266-.108.5-.181v-.82l1.5.5-.545.182q1,.113.545,1.818a6.116,6.116,0,0,1-.424.88l.424,2.121q-.749,1.124-1.5,0v.35q1.348.11.5,2.65h-1l-.187-.937L-420-7654l.5,1.5Zm-10,0,.364-1.813q-.681.835-1.363-.187v-1.5l2,.5a6.081,6.081,0,0,1-.424.88l.424,2.121ZM-330-7654Zm-21,0Zm-4,0Zm-15,0,1.5.5-1.5.5Zm-11,0Zm-7,0Zm-6,0Zm-14,0Zm-4,0Zm-5,0Zm-4,0Zm-1,0Zm-2,0Zm-1,0Zm-9,0Zm104.5.5.5-1.5h0l.5,1.5Zm3.5-1.5Zm-8,0Zm-10,0Zm-3,0Zm-17,0Zm-5,0Zm-1,0Zm-14,0Zm-4,0Zm-6,0Zm-12,0Zm-11,0Zm-5,0Zm-2,0Zm-1,0a1.418,1.418,0,0,1-.5-.5l.219-.658A.6.6,0,0,1-426-7656h0a1.42,1.42,0,0,1-.5-.5,3.09,3.09,0,0,0,.707-.459q-.6-.248-1.207.958l-1.5-.5,1.5-.9h0l1-.6c.138.055.267.111.387.166a2.289,2.289,0,0,0-.889-.667l.5-.5q-.5.251-1-.5h0a5.525,5.525,0,0,1-.5-1l.5-2.5v-.119a3.854,3.854,0,0,1-.122-3.58,6.377,6.377,0,0,1-.378-.8l.437-3.938-.437-3.063.5-.5a1.41,1.41,0,0,1-.5-.5l.5-3.5.6,1,.4-2,.5,2.5h-.6l.6,1a5.771,5.771,0,0,1-.473.958l.473,8.043h-1l1,1a1.421,1.421,0,0,1-.5.5l.5,1.5h-.667l.667,2h-1a3.639,3.639,0,0,1-.5-.618v.119l1.5,3.5.5-.5.375,1.875L-424-7660l.5,3.5q-.752,1.874-1.5,1.5Zm-1.333-10,.334-1a.6.6,0,0,1-.72-.157Zm-3.166,10.5,1.5-1.5.5,2Zm-4.5-.5Zm108-1Zm-8,0Zm-6,0Zm-4,0Zm-7,0Zm-37,0Zm-2,0Zm-16,0Zm-2,0Zm-9,0Zm-6,0Zm-6,0Zm21.5.5.5-1.5.5,1.5Zm-13,0,.5-1.5h0l.5,1.5Zm97.5-1.5Zm-3,0Zm-6,0Zm-33,.5a5.589,5.589,0,0,1-1,.5q-1.126-.749,0-1.5h0a5.549,5.549,0,0,1,1-.5q1.127.75,0,1.5Zm-4-.5Zm-5,0Zm-34,0Zm-15,0Zm-6,0Zm-3,0,1.5.5-1.5.5Zm-2,0Zm79.5.5.5-1.5.5,1.5Zm-65,0,.5-1.5.5,1.5Zm-11,0,.5-1.5h0l.5,1.5ZM-323-7658Zm-2,0Zm-1,0Zm-6,0Zm-1,0Zm-28,0Zm-18,0Zm-2,0Zm-3,0Zm-1,0Zm-3,0Zm-8,0Zm-5,0Zm-6,0Zm-14,0Zm-1,0Zm-1,0Zm-5,0Zm-1,0Zm-2,0Zm106-1Zm-7,0Zm-1,0Zm-17,0Zm-15,0Zm-7,0Zm-3,0Zm-4,0Zm-3,0Zm-1,0Zm-1,0Zm-1,0Zm-11,0Zm-4,0Zm-10,0Zm-10,0Zm-1,0Zm-1,0Zm-1,0Zm-4,0Zm-1,0Zm-1,0Zm-4,0Zm13.5.5.219-.659q-.61.573-1.22-.342l1.5-2.5.5,1.5a6.321,6.321,0,0,1-.391.826l.391,1.175Zm94.5-1.5Zm-8,0Zm-17,0Zm-22,0Zm-3,0Zm-5,0Zm-3,0Zm-8,0Zm-5,0Zm-6,0Zm-2,0Zm-17,0Zm-2,0Zm-6,0q-1.5-1,1-2,1.124.749,0,1.5h0a5.513,5.513,0,0,1-1,.5l1.5.5-1.5.5Zm-1,0Zm-2,0Zm106-1Zm-8,0Zm-5,0Zm-7,0Zm-2,0Zm-2,0Zm-1,0Zm-25,0,1.5.5-1.5.5Zm-7,0Zm-3,0Zm-4,0Zm-1,0Zm-1,0Zm-4,0Zm-1,0Zm-1,0Zm-6,0Zm-17,0Zm-3,0Zm-1,0Zm-5,0Zm-2,0Zm98-1Zm-2,0Zm-3,0Zm-4,0Zm-4,0Zm-35,0Zm-3,0Zm-1,0Zm-2,0,1.5.5-1.5.5Zm-1,0Zm-5,0,2.5.5-2.5.5Zm-7,0Zm-2,0Zm-18,0Zm-3,0Zm-1,0Zm-1,0Zm-6,0Zm-1,0Zm56.5.5.5-1.5v-.5q-.749,1.125-1.5,0l.5-1.5h0l1-3,.5,3.5a5.535,5.535,0,0,1-.5,1v.5l.5,1.5Zm-44,0,.5-4.5.5,4.5Zm85.5-1.5Zm-1,0Zm-1,0Zm-1,0Zm-1,0Zm-1,0Zm-7,0Zm-6,0Zm-21,0Zm-3,0Zm-1,0Zm-5,0Zm-1,0Zm-17,0Zm-1,0Zm-17,0h0l2.5.5-2.5.5Zm-2,0Zm-1,0Zm-2,0Zm-1,0Zm-3,0Zm-1,0Zm-3,0Zm63.5.5.5-1.5.5,1.5Zm41.5-1.5Zm-8,0Zm-1,0Zm-5,0Zm-4,0Zm-2,0Zm-27,0Zm-8,0Zm-1,0Zm-38,0Zm-1,0Zm-2,0Zm-4,0Zm-2,0Zm-3,0Zm110-1Zm-12,0Zm-1,0Zm-3,0Zm-2,0Zm-1,0Zm-3,0Zm-6,0Zm-2,0Zm-1,0Zm-25,0Zm-1,0Zm-1,0Zm-47,0Zm-5,0Zm11.5.5.5-1.5h0l.5,1.5Zm96.5-1.5Zm-1,0Zm-1,0Zm-10,0Zm-4,0Zm-2,0Zm-2,0Zm-4,0Zm-4,0Zm-1,0Zm-69,0Zm-2,0Zm-3,0Zm-6,0Zm107-1Zm-14,0Zm-6,0Zm-3,0Zm-3,0Zm-1,0Zm-23,0Zm-41,0Zm-2,0Zm-2,0Zm-2,0Zm-4,0Zm99.5.5.5-1.5h0l.5,1.5Zm2.5-1.5Zm-14,0Zm-9,0Zm-4,0Zm-70,0Zm-1,0Zm-4,0Zm-5,0Zm-1,0Zm13.5.5.5-3.5.5,3.5Zm-1,0,.5-2.5h0l.5,2.5Zm82.5-1.5Zm-8,0Zm-6,0Zm-23,0Zm-46,0Zm-1,0Zm-1,0Zm-5,0Zm-3,0Zm105-1Zm-1,0Zm-19,0Zm-4,0Zm-3,0Zm-69,0Zm-1,0Zm98-1Zm-97,0Zm-8,0Zm-1,0Zm84.5.5.5-1.5.5,1.5Zm22.5-1.5Zm-1,0Zm-3,0Zm-93,0Zm-2,0Zm-4,0Zm-3,0Zm106-1Zm-2,0Zm-27,0Zm-69,0Zm-5,0Zm-1,0Zm-1,0Zm-1,0Zm104-1Zm-12,0Zm-14,0Zm-1,0Zm-66,0Zm-1,0Zm-1,0Zm-1,0Zm-1,0Zm-1,0Zm-3,0Zm-1,0Zm-3,0Zm109-1Zm-2,0Zm-2,0Zm-2,0Zm-25,0Zm-67,0Zm-2,0Zm-1,0Zm-5,0Zm-1,0Zm-2,0Zm108-1Zm-3,0Zm-3,0Zm-99,0Zm-1,0Zm105-1Zm-100,0Zm-5,0Zm-1,0Zm100.5.5.5-2.5h0l.5,2.5Zm7.5-1.5Zm-2,0Zm-1,0Zm-2,0Zm-94,0Zm-3,0Zm-4,0Zm-3,0Zm109-1Zm-5,0Zm-94,0Zm-1,0Zm-1,0Zm-7,0Zm103-1Zm-1,0Zm-94,0Zm-1,0Zm-1,0Zm-7,0Zm-1,0Zm5.5.5.5-3.5h0l.5,3.5ZM-323-7681Zm-5,0Zm-2,0Zm-93,0Zm-1,0Zm-1,0Zm-7,0Zm5.5.5.5-2.5.5,2.5ZM-326-7682Zm-4,0Zm-93,0Zm-1,0Zm-9,0Zm7.5.5.5-1.5.5,1.5Zm95.5-1.5Zm-93,0Zm-1,0Zm-4,0Zm-1,0Zm-3,0Zm102-1Zm-93,0Zm-1,0Zm-1,0Zm-1-4,.407.679a3.108,3.108,0,0,1,.371-1.846,1.5,1.5,0,0,1-.132-.127,6.674,6.674,0,0,1-.646.3h0q-1.127-.749,0-1.5h0a5.557,5.557,0,0,1,1-.5h0a1.945,1.945,0,0,1,.353.293q.28-.146.646-.293,1.081.721.088,1.44l.413,2.061a5.538,5.538,0,0,1-.5,1h0q-.381.571-.762.562l.262.438-.5.833h0l-1,1.667Zm-2,4Zm99-1Zm-2,0Zm-92,0Zm-1,0Zm-3,0Zm-1,0Zm-5,0Zm-1,0Zm109-1Zm-3,0Zm-3,0Zm-93,0Zm-4,0Zm-5,0Zm5.5.5.5-1.5h0l.5,1.5Zm95.5-1.5Zm7-1Zm-7,0Zm-13,0Zm-84,0Zm106-1Zm-2,0Zm-2,0Zm-5,0Zm-95,0Zm-1,0Zm-6,0Zm111-1Zm-3,0Zm-7,0Zm-94,0Zm-5,0Zm-1,0Zm110-1Zm-2,0Zm-1,0Zm-1,0Zm-6,0Zm-94,0Zm-5,0Zm104-1Zm-3,0Zm-2,0Zm-91,0Zm-2,0Zm-1,0Zm-3,0Zm107-1Zm-10,0Zm-91,0Zm-1,0Zm-1,0Zm-1,0Zm96-1Zm-94,0Zm-1,0Zm-2,0Zm-3,0Zm105-1Zm-4,0Zm-95,0Zm-3,0Zm66.684.521a1.076,1.076,0,0,1,.794.426ZM-335-7696Zm-1,0Zm-89,0Zm-3,0Zm-1,0Zm102-1Zm-4,0Zm-93,0Zm-2,0Zm-2,0Zm-1,0Zm105-1Zm-9,0Zm-92,0Zm-3,0Zm-1,0Zm104-1Zm-14,0Zm-10,0Zm-75,0Zm-4,0Zm-1,0Zm102-1Zm-1,0Zm-1,0Zm-9,0Zm-3,0Zm-82,0Zm-1,0Zm-5,0Zm92-1Zm-3,0Zm-1,0Zm-81,0Zm-2,0Zm-3,0Zm-2,0Zm-5,0Zm110-1Zm-10,0Zm-7,0Zm-80,0Zm-12,0Zm102-1Zm-1,0Zm-1,0Zm-1,0Zm-2,0Zm-5,0Zm-83,0Zm-4,0Zm103-1Zm-1,0Zm-5,0Zm-2,0Zm-1,0Zm-1,0Zm-2,0Zm-2,0Zm-2,0Zm-3,0Zm-79,0Zm77.345-.039.156.039v.076ZM-326-7705Zm-3,0Zm-2,0Zm-3,0Zm-1,0Zm-1,0Zm-2,0Zm-1,0Zm-79,0Zm-8,0Zm-3,0Zm-2,0Zm83.5.5.5-.5,1.345.96Zm23.5-1.5Zm-5,0Zm-2,0Zm-3,0Zm-1,0Zm-84,0Zm-8,0Zm104-1Zm-1,0Zm-6,0Zm-1,0Zm-3,0Zm-10,0Zm-72,0Zm93-1Zm-1,0Zm-11,0Zm-9,0Zm-1,0Zm-75,0Zm-2,0Zm-12,0Zm96-1Zm-2,0Zm-6,0Zm-6,0Zm-62,0Zm-6,0Zm-3,0Zm86-1Zm-6,0Zm-3,0Zm-2,0Zm-1,0Zm-1,0Zm-2,0Zm-18,0Zm-3,0Zm-41,0Zm-18,0Zm95-1Zm-1,0Zm-1,0Zm-4,0Zm-3,0Zm-2,0Zm-2,0Zm-2,0Zm-2,0Zm-3,0Zm-10,0Zm-4,0Zm-1,0Zm-3,0Zm-33,0Zm-2,0Zm-2,0Zm-2,0Zm-1,0Zm-5,0Zm-8,0Zm85-1Zm-4,0Zm-6,0Zm-2,0Zm-5,0Zm-2,0Zm-9,0Zm-1,0Zm-2,0Zm-1,0Zm-32,0Zm-1,0Zm-4,0Zm-3,0Zm-10,0Zm88-1Zm-3,0Zm-7,0Zm-3,0Zm-2,0Zm-8,0Zm-1,0Zm-2,0Zm-1,0Zm-10,0Zm-4,0Zm-4,0Zm-25,0Zm-2,0Zm-12,0Zm-2,0Zm86-1Zm-10,0Zm-1,0Zm-4,0Zm-31,0Zm-2,0Zm-1,0Zm-4,0Zm-13,0Zm-1,0Zm-2,0Zm-13,0Zm-2,0Zm-2,0Zm75-1Zm-4,0Zm-33,0Zm-3,0Zm-1,0Zm-11,0Zm-8,0Zm-1,0Zm-8,0Zm-6,0Z" transform="translate(650.49 7717)"/></g><g class="d" transform="matrix(1, 0, 0, 1, 2381.01, 3546.99)"><path class="b" d="M32,1ZM29,1ZM19,1ZM13,1ZM36,2ZM31,2ZM20,2ZM13,2ZM10,2ZM2,2ZM36,3ZM35,3ZM29,3ZM22,3l-.5,3,.5.2V7q-2.4.1-1,1v.5A5.569,5.569,0,0,0,20,8q-1.124.749,0,1.5h-.5L20,11l.42-1.256c.17.085.364.172.581.257q1.124-.749,0-1.5V8l2.2-1.32L24,7l-.5.5L24,8l1-.4V8l-.5,1.5.6,1h-.6L25,13H19.5L21,12h0l1.5.5L22,12l-.5-.5L22,10l-4.5,3.5.5.5,1.5-1-.419,1.4L17.5,14V10.5l.5.5.5-2-2,.5,1,1h-1v5L16,17l1.173-.391L17,18l1.723-2.415L18,18a2.775,2.775,0,0,0,1,.151h0a.9.9,0,0,0,.494-.172L19.5,18l2-.5-1-2.5L22,18h0l3-1v1l2.5-.5L25,17l1.5-.5L25,15h0l1,1,1.365-2.73A2.413,2.413,0,0,0,27.5,14.5l-1,2.5H28l.5-.5.5.5h0l2.5-2.5L31,14l1-1h0l.5-.5-3-.5L29,10l-4,3,.4-2,.6,1,3-2,1,2,1-2h0l1,2,.5-1.5L32,9.25,31.5,8a4.408,4.408,0,0,0-.5-.072,2.749,2.749,0,0,0-1.663.345A1.974,1.974,0,0,0,29,8c-.19.078-.362.153-.519.229L29.5,7.5l-1.177-.707L29.5,6.5a5.394,5.394,0,0,0-.5-1q-.5-.749-1-.5h0a1.41,1.41,0,0,0-.5.5v.8L27,6a6.875,6.875,0,0,0-.674.308L26,5l.5-.5L26,4q-.9,1.7-3.5,1L22,3Zm0,3.2,1.09.438L22,7Zm3,1.4.465-.184A1.255,1.255,0,0,0,26,8h0l1,.333v.418L25.5,9.5l.5.5h-.5L25,8Zm2,.734.5.168-.5.25Zm.581.539Q27.152,9.435,28,10H26ZM26.52,12q.622-.5,2.478,0v.416Zm-.021.018V14q-.587-1.469,0-1.978Zm1.77.786.73-.182V13a3.455,3.455,0,0,0-.73-.192ZM27.5,13Zm-8,2.5.041-.042-.029.077ZM19,3ZM11,3ZM9,3ZM34,4Zm-5.5-.5L31,4.573h0L32,5q1.5-1-1-2ZM21,4ZM20,4ZM19,4ZM18,4a1.414,1.414,0,0,0-.5.5A1.413,1.413,0,0,0,17,4a5.418,5.418,0,0,0-1,.5q-1.127.749,0,1.5a2.848,2.848,0,0,0,1.5-1,.931.931,0,0,0,.149.209L15.5,6.5,15,9l1.429-2.143L16,9q1.1-2,4.5-1L20,6l-.438.221a.747.747,0,0,0-.25-.471A1,1,0,0,0,19.5,5.5L20,6l.5-2-1.644.408A6.1,6.1,0,0,0,18,4ZM16.636,6.546,17,6l1.5.751L18,7ZM16,4ZM9,4ZM1,4ZM29,5ZM27,5ZM21,5Zm-5-.5ZM10,5ZM4,5Zm25.5-.5L30,8l.5-3.5Zm1,1,.5.833h0L32,8h0l.5-3ZM29,5.5ZM27,6ZM21,6ZM9,6ZM7,6ZM21,7ZM15,7ZM14,7ZM8,7ZM7,7ZM4,7ZM3,7Zm28,.927ZM23,8ZM15,8ZM14,8ZM4,8ZM3,8Zm19,2,1-.6h0l1.5-.9-3-.5ZM19,9ZM17,9l1.5-.5L17,8ZM14,9ZM13,9ZM9,9a5.543,5.543,0,0,0-1,.5q-1.126.75,0,1.5v1L7,11l-.5.5L7,12H7l1,1H8l1,1H9l.5-.5L9,13l.486-1.46A2.482,2.482,0,0,0,10,13v1l-.5.5.5.5h0l2,2,.5-.5L12,16l-1-1-1-1V13l.354-1.425a3.577,3.577,0,0,0,.143.924l.5.5h0l1,1,.5-3a5.124,5.124,0,0,0-.881-.279l.884-.22L11,10h0a3.9,3.9,0,0,0-.678.324L9,9l2.5-.5L9,8ZM8,12V11l1-1H9l1.2.4a1.474,1.474,0,0,0-.713,1.1H8.5L9,13ZM8,9ZM4,9ZM3,9q-1.124.749,0,1.5H3A5.5,5.5,0,0,0,4,11H4q1.124-.749,0-1.5A5.636,5.636,0,0,0,3,9ZM2,9Zm31,1Zm-1-.75ZM24,10ZM16,9Zm0,0v.831a2.132,2.132,0,0,0-1-.077,1,1,0,0,0-.769.745H13.5L14,12v1l-.6,1.4.1-.4-2,.5,1.3,1.3-.3.7L14,16h0l1,1h0l1,1h0l.5-.5L15,16l-.5-.5L14,13V12l.143-.428A9.975,9.975,0,0,0,14.5,13.5l.5.833h0L16,16l.5-6a5.065,5.065,0,0,0-.5-.168ZM15,9Zm-1,1Zm-2,0Zm-2,0ZM8,9.5ZM6,10a5.543,5.543,0,0,0-1,.5q-1.124.752,0,1.5H5l1-.6H6l1.5-.9L6,10l1.5-.5L6,9ZM5,10ZM4,9.5ZM0,10Zm18.5-.5L19,12l.5-2.5Zm-6,0L13,13h0l.5-3.5ZM5,10.5ZM0,11Zm23.5-.5L24,12l.5-1.5Zm-1,0L23,12v1l1.5-.5L23,12l.5-1.5ZM31,12Zm-9,0ZM3,12Zm14.5-.5L18,13l.5-1.5ZM35,13Zm-2,0ZM6,13ZM4,13ZM2,13Zm34,1Zm-2,0Zm-1,0ZM7,14Zm26,1Zm-1,0ZM11,15ZM8,15Zm23,1ZM15,16Zm-3,0ZM9,16Zm25,1Zm-2,0Zm-2,0ZM10,17ZM9,17ZM5,17Zm27,1ZM14,18Zm-3,0ZM2,18Zm31,1Zm-5,0Zm-4,0Zm-1,0ZM11,19ZM2,19Zm31,1Zm-7,0Zm-1,0Zm-6,0Zm-1,0Zm-1,0Zm-2,0ZM8,20ZM6,20ZM4,20Z" transform="translate(366.49 76) rotate(180)"/></g></g></svg>