<svg xmlns="http://www.w3.org/2000/svg" xmlns:xlink="http://www.w3.org/1999/xlink" width="507.15" height="121.342" viewBox="0 0 507.15 121.342"><defs><style>.a{fill:url(#a);}.b{fill:url(#d);}.c{stroke:rgba(0,0,0,0);stroke-miterlimit:10;fill:url(#j);}.d{filter:url(#k);}.e{filter:url(#h);}.f{filter:url(#e);}.g{filter:url(#b);}</style><linearGradient id="a" x1="0.5" y1="1" x2="0.5" gradientUnits="objectBoundingBox"><stop offset="0" stop-color="#c5ad90" stop-opacity="0.988"/><stop offset="1" stop-color="#14110e"/></linearGradient><filter id="b" x="279.141" y="53.992" width="78" height="45.001" filterUnits="userSpaceOnUse"><feOffset dy="1" input="SourceAlpha"/><feGaussianBlur stdDeviation="1" result="c"/><feFlood flood-opacity="0.749"/><feComposite operator="in" in2="c"/><feComposite in="SourceGraphic"/></filter><linearGradient id="d" y1="0" y2="0.831" xlink:href="#a"/><filter id="e" x="114.141" y="17.992" width="116.999" height="83.001" filterUnits="userSpaceOnUse"><feOffset dy="1" input="SourceAlpha"/><feGaussianBlur stdDeviation="1" result="f"/><feFlood flood-opacity="0.749"/><feComposite operator="in" in2="f"/><feComposite in="SourceGraphic"/></filter><filter id="h" x="228.141" y="71.992" width="42" height="26.001" filterUnits="userSpaceOnUse"><feOffset dy="1" input="SourceAlpha"/><feGaussianBlur stdDeviation="1" result="i"/><feFlood flood-opacity="0.749"/><feComposite operator="in" in2="i"/><feComposite in="SourceGraphic"/></filter><linearGradient id="j" x1="0.5" y1="0.735" x2="0.5" y2="1" gradientUnits="objectBoundingBox"><stop offset="0" stop-color="#f2bd81"/><stop offset="1" stop-color="#483a2b"/></linearGradient><filter id="k" x="0" y="0" width="507.15" height="121.342" filterUnits="userSpaceOnUse"><feOffset dy="1" input="SourceAlpha"/><feGaussianBlur stdDeviation="1" result="l"/><feFlood flood-opacity="0.749"/><feComposite operator="in" in2="l"/><feComposite in="SourceGraphic"/></filter></defs><g transform="translate(-399.359 -8512.008)"><g class="g" transform="matrix(1, 0, 0, 1, 399.36, 8512.01)"><path class="a" d="M66,1V1ZM65,1V1ZM60,1V1ZM59,1V1ZM57,1V1ZM53,1V1ZM52,1V1ZM51,1V1ZM48,1V1ZM39,1V1ZM31,1V1ZM29,1V1ZM66,2V2ZM65,2V2ZM61,2V2ZM59,2V2ZM57,2V2ZM48,2V2ZM46,2V2ZM45,2V2ZM36,2V2ZM33,2V2ZM29,2V2ZM66,3V3ZM65,3V3ZM61,3V3ZM60,3l-.5,1.5L61,6l-.223-.666a3.628,3.628,0,0,0,.834.5Q61.125,6.418,62,7a5.512,5.512,0,0,0,1-.5v0q1.124-.75,0-1.5V5q-.239.1-.442.191a.974.974,0,0,0-.453-.617L62.5,3l-2,.5L61,4a1.417,1.417,0,0,0-.5.5h0L60,3V3ZM57,3V3ZM52,3V3ZM51,3V3ZM50,3V3ZM46,3V3ZM45,3V3ZM44,3V3ZM42,3V3ZM31,3V3ZM68,4V4ZM56,4V4ZM54,4V4ZM50.5,5.5,52,5,50.5,6.5,51,7l.5-.5A1.414,1.414,0,0,0,52,7a5.512,5.512,0,0,0,1-.5v0q1.124-.75,0-1.5l.5-.5L54,7l.5-2.5L53,3ZM45,4V4ZM44,4,43,5l-1.5-.5L42,5a5.541,5.541,0,0,0-1,.5v0q-1.01.674-.2,1.348a7.074,7.074,0,0,0-.3.651L41,9l.54-.9.428,6.4H41.5L41,11l-.5,3.5.5.5h0l-.5.5.5.5a1.417,1.417,0,0,0-.5.5v2.478q-.735-.763,0-3.477l-.441-1.028.411-3.706q.237.117.529.234,1.126-.751,0-1.5v0A5.551,5.551,0,0,0,40,9V9q-.751.5-.5,1a1.418,1.418,0,0,0-.5.5v0a5.552,5.552,0,0,0-.5,1l.389.907L38,15.663v0L37.5,17.5l.462.616L37.5,19.5a2.127,2.127,0,0,1,1,1L38,20a6.918,6.918,0,0,0-.687.314L37,20v0l-.5-.5L37,18l-2-1,2.5,1L37,16l-1,.333v0l-.5.167-.371-1.108.87-.248v0L36.5,15,36,12l-3.5,3.5.5.5,1-.286-1.439,1.028Q32.556,16.372,32,16a5.513,5.513,0,0,0-1,.5v0q-1.124.749,0,1.5.248-.1.457-.2-.317,2.439,1.171,3.073L31.5,20.5q.8,3.2-1,4L32,26l2-4q1.531.656,1.537,1.342Q35.531,22.657,34,22l-2,4-1.5-.5L31,28l-.5.5,1.5,1L31,29q-1,2-2,0a6.673,6.673,0,0,0-1.208-.3A6.675,6.675,0,0,1,29,29l1.5.5L30,29l.5-.5L30,28l.5-1.5L28,25l-.5.5L27,25l-2.5,1.5.451,2.248L24.5,31H24v0H23l-3.5,3.5.5.5.5-.5.5.5-1.5.5L23,36q.5-1,1-1v0q.5,0,1,1l1,.5v0l1,.5q3.739.689,4.477-1.432L31,37v0q2.6.8,1.5-2.5L33,36l.5-1.5h-1l1-2a6.7,6.7,0,0,0-.35-.751c.054-.083.107-.159.161-.229l.588.98h-.4L34,34l.286-.858.214.356L34,35l1.382-2.763q.059.125.118.263L35,35l1.385-2.308L36,35l3-1v0l2,1v0a1.683,1.683,0,0,0,.428-.382L42,35l3.5-.5L42,34l5.5-.5L42,33v1l-2.875-2.157L40.5,31.5q-.083-.209-.167-.389l.666.222v0l.5.167L41,33l6.5-.5-.428-.714L47.5,30.5q-1-.5-1-1l1.219,1.22a.624.624,0,0,0-.084.977A2.7,2.7,0,0,0,48,34l.617-.925L49,35v0l1-1v1l1,.5v0l1,.5,2.5-.5a2.543,2.543,0,0,0-.256-.581L55.5,34.5,54,34v.588A2.22,2.22,0,0,0,53.1,34H56v0h1v0h1v0l1.5-1.5a3.726,3.726,0,0,0-1.292-1.1L60,32l2.5-2.5L62,29l.5-.5L62,28v-.794a3.3,3.3,0,0,0,1,.01v0q1.355-.242.5-2.216L61,26l1-1,1.5-.5-.2-.6,1.2-.4L63,23l1.5-.5L63,22q-1,2-2,0l-.11.028L61,22q1,2,2,0,2.6.7,1.5-2-.266-.108-.5-.181v0a1.99,1.99,0,0,0-1.145-.1L63.5,18h0V12.5h-1l1-3h-1a3.672,3.672,0,0,0-.452.547L62,10v0L60,8l1.5.5L61,7.668v0L60,6,59,9l1-1-.5,1.5q2,1,0,2v2L59,12l-.309,1.232A3.486,3.486,0,0,0,58.5,12.5l1-2h-1l-.387.581Q58.059,11.041,58,11q-2.4.959-1.114,1.919L56.5,13.5l.072.071-1.607-.357L55.5,13,54,10l-.5-.25,1-.25a5.567,5.567,0,0,0-.5-1v0q-.75-1.123-1.5,0v.752L52,9l-.307,1.23A3.49,3.49,0,0,0,51.5,9.5,1.415,1.415,0,0,0,51,9l1.5-.5L51,8V9q-.5-.25-1,.5v0a5.539,5.539,0,0,0-.5,1l.5.5a2.794,2.794,0,0,0,1.1.159L48,12.4v0l-1,.4v0l-.5.2.5,3,2-2h4a6.016,6.016,0,0,1-4,0l-2.5,2.5h-1L45,18l-1.277-.425a8.339,8.339,0,0,1-.179-1.031L45,18l.5-5.5h-1l-.972,3.886Q43.51,16.2,43.5,16h0q.415-.363,0-1.5l1-2.5q-.233-.1-.443-.171L44.5,10.5h-1l.431,1.289a2.859,2.859,0,0,0-.508-.108l.077-.18v-3a5.555,5.555,0,0,0-.5-1v0q-.381-.571-.762-.562L42.5,6.5a2.235,2.235,0,0,0-.189-.249A.614.614,0,0,0,42.5,5.5L43,6q.305-.122.551-.244L44,8l.5-2.5H44q1.125-.749,0-1.5V4Zm7.5,7v0h0Zm10,.5.025-.024c0,.033-.007.067-.009.1Zm-3,2.5h0Zm2,0h1v2l-.3-.6.3-.9h-.751Zm-18.1.074c.03.136.064.278.1.425h-.285ZM55,17l1.5.75L56,18l-3-1A6.994,6.994,0,0,1,55,17Zm4.5,1.5.3.9-.3.1L58,17l-.382.191Q58.587,16.372,59.5,18.5ZM53,17l-2.5,2.5A2.791,2.791,0,0,1,53,17Zm-10.5.5,1,3-.25.25-.75-.25.285.714L42,22v0l-.334.334.828-3.31A1.955,1.955,0,0,0,42.5,17.5Zm1.344.517L45.5,20.5l-.166.056A6.174,6.174,0,0,1,43.844,18.018ZM46.831,19l.051.077c-.019.014-.038.029-.056.045C46.828,19.078,46.829,19.038,46.831,19Zm5.67,1H55q1-2,2,0h0q-1-2-2,0Zm-11.963-.986a4.961,4.961,0,0,0,.825.262H41.3A1.08,1.08,0,0,1,40.537,19.015ZM61.5,19.5l.4,2h-.4l-.374-1.875Zm-11,0,1,1a5.005,5.005,0,0,1,0,2Zm-3.778.372L47.7,21.5H46.5a7.7,7.7,0,0,0-.145,2.14L45.5,21.5a2.305,2.305,0,0,0,.352-.217l.649.217q-.257-.166-.492-.347A2.439,2.439,0,0,0,46.723,19.873Zm9.677.288L56,20A.644.644,0,0,1,56.4,20.161ZM56,20l-.4.16A.639.639,0,0,1,56,20Zm3.4.264q-.668,1.848.643,1.879Q58.729,22.114,59.4,20.265ZM35.5,21l1.256-.314Q36.014,21.344,37,22l1-1,.437.146A3.9,3.9,0,0,1,36.5,22.5v1l-.363-.91L36.5,21.5h-.8Zm8.876-.125L44,21l-.293-.1A1.754,1.754,0,0,1,44.377,20.875Zm13.835.011a.868.868,0,0,1,.19.076Zm4.174.086a4.717,4.717,0,0,0,.113.531h-.312ZM56.5,22.5,56,21l5,6a8.471,8.471,0,0,0,1,.207V28ZM50,28l3.5-2.5V21q1.3,5.5-2.5,7-.68.125-1.181.27Zm8.5-6.979q.653.5.02,2.432A5.648,5.648,0,0,1,58.495,21.022Zm-10.217.145.223.334h-.335ZM38.5,21.5h2L41,25l.356-1.422a3.577,3.577,0,0,0,.144.922h.608a4.975,4.975,0,0,0-.608,1L43,25l1.5,1.5v1L43,25l.31.93q-1.525-.541-1.982.336A2,2,0,0,0,41,26v0q-.323.129-.58.258L40,25h.5V22l-1.8.449A8.12,8.12,0,0,0,38.5,21.5ZM45,22l.05.5H44.9Zm15.76.059-.033.007Zm-.3.055a2.621,2.621,0,0,1-.373.029A2.622,2.622,0,0,0,60.46,22.116ZM51.5,22.5A1.926,1.926,0,0,1,50,24a2.4,2.4,0,0,0-1.109-.2Zm-9.9.1.16.159a.627.627,0,0,0-.254.219Zm-2.864.136L39,23v0l.5.5-.458,1.375a7.325,7.325,0,0,0-1.1-.189L38.5,24.5l-.636-.212Q38.86,24.2,38.735,22.737Zm4.733.186L43.5,23ZM63,23ZM43.5,23Zm-7,.5V24q.265.106.5.174V24.7a2.487,2.487,0,0,0-1.888,1.119Zm22.039.04L61,26A3.692,3.692,0,0,1,58.538,23.542ZM48.5,24h0l0,0Zm-4.4.5L44,25a3.593,3.593,0,0,0-.323-.5Zm-9.6,0L35,26Zm13.834.164a3.593,3.593,0,0,0,.166.837h-.376ZM55.5,25H57l1,.715ZM40,25l-.494,1.479A4.038,4.038,0,0,0,39.5,25Zm7.056.393q.052.056.108.108H47.1ZM54.5,25.5l-3,3,.4.4-1.4.6L57,30H50v-.817ZM30,29l-3-3H25.5Q28.8,25.5,30,29Zm19.5-3h0v1.5l-1.125.75Zm-6.06.321.059.178a6.465,6.465,0,0,0-.042,1.746A4.971,4.971,0,0,1,43.44,26.323ZM39.5,26.5l.217.217Q39.039,27.36,40,28a6.924,6.924,0,0,0,.685-.314L41,28l-1,2v0l-1-1,1.5-.5L39,28v1l-.5-.5.16-.48A2.874,2.874,0,0,0,39.5,26.5Zm7.482.126.025.059a1.289,1.289,0,0,0-.2-.016Zm12.642.246.874.625a4.343,4.343,0,0,0-.116.437ZM34,27l3,2q.229-.084.438-.179a4.2,4.2,0,0,0-.038.607Zm0,0q-.835,1.668-1.667.556Zm7.134.4a6.747,6.747,0,0,0,.106.958L41,28l-.138-.414A2.9,2.9,0,0,0,41.134,27.4ZM55.5,28Zm-8,.5q.063-.234.1-.437l.235.548L46.5,29.5Q46.5,29,47.5,28.5Zm-20.1.173h0Zm.079,0q.08,0,.166.01Q27.559,28.678,27.479,28.675ZM62,29a2.356,2.356,0,0,1-2,2,1.926,1.926,0,0,0,1.5-1.5l-.241-.337A3.455,3.455,0,0,0,62,29Zm-12,.184V30a7.3,7.3,0,0,0-.69.247A2.087,2.087,0,0,0,49,30Zm-12.6.34q.005.215.028.449a4.82,4.82,0,0,0-.811-.252Zm11.381.3A2.719,2.719,0,0,0,49,30q-.257.1-.472.206ZM39,30a1.422,1.422,0,0,0-.5.5v.875L38,31a2.227,2.227,0,0,0-.252.192,3.428,3.428,0,0,0-.115-.736Zm-12.516.434.019.064Zm7.015.061.006,0h0Zm12,0Zm-19,0-.013.05Zm29.9.363A11.725,11.725,0,0,0,53,31,5.379,5.379,0,0,1,56.4,30.864Zm-21.231.967L35,32l-1.015-1.015Q34.588,30.824,35.17,31.831ZM50,31l.546.273L49.331,32ZM33,31l.215.358-.106.316a2.353,2.353,0,0,0-.371-.5Zm20,0q-.5,1-1,1A2.182,2.182,0,0,1,53,31Zm-1.5.751L52,32A.72.72,0,0,1,51.5,31.752ZM31.5,32v3.5l-.458-3.195Zm6,0a1.2,1.2,0,0,0,.337.382l-.664-.189A.8.8,0,0,0,37.5,32ZM23,32a6.8,6.8,0,0,0,1.068.1A6.8,6.8,0,0,1,23,32Zm1.223.1h0Zm12.165.124.072.01-.02.121Zm-6.414.769a3.7,3.7,0,0,1-2.453.014Q28.027,32.349,29.974,32.993Zm.444-.271a2.015,2.015,0,0,1-.3.2Zm-2.932.334-.143.571A1.038,1.038,0,0,1,27.486,33.056ZM26,34l1.155.384L27,35l-2.251-.75Zm5.5,1.5ZM42,4V4ZM40,4V4ZM35,4V4ZM32,4V4ZM66,5V5ZM59,5V5ZM51,5V5ZM50,5V5ZM49,5V5ZM46,5V5ZM41,5V5ZM40,5V5ZM39,5V5ZM38,5V5ZM36,5V5ZM31,5V5ZM65,6V6ZM64,6V6ZM60,6V6ZM59,6V6ZM57,6V6ZM50,6V6ZM49,6V6ZM48,6V6ZM40,6V6ZM39,6V6ZM37,6V6ZM36,6V6ZM31,6V6ZM30,6V6ZM67,7V7ZM65,7V7ZM64,7V7ZM61,7V7ZM59,7V7ZM58,7V7ZM48,7V7ZM43,7V7ZM39,7V7ZM37,7V7ZM36,7V7ZM35,7V7ZM29,7V7Zm10.5-.5L40,8l.5-1.5Zm-2,0L38,8V8l.5-1.5ZM64,8V8ZM63,8V8ZM62,8V8ZM59,8V8ZM58,8V8ZM54,8V8ZM52,8l1.5-.5L52,7ZM51,8V8ZM50,8V8ZM49,8V8ZM46,8V8ZM39,8V8Zm-3.5-.5L36,8q-.916.609-.342,1.22L35,9v.687q-.948.146-.5,1.813L33,13.751v0l-.5.749.5.5,3.5-3.5V10a5.489,5.489,0,0,0-.748-.25l.423-.141A6.33,6.33,0,0,0,37,10q1.071-.712.107-1.426L37.5,7ZM35,8V8ZM34,8V8ZM32,8V8ZM67,9V9ZM64,9V9ZM63,9V9ZM62,9V9ZM50,9V9ZM44,9V9ZM35,9V9ZM34,9V9ZM32,9V9Zm39,1v0Zm-2,0v0Zm-1,0v0Zm-1,0v0Zm-1,0v0Zm-7,0v0Zm-1,0v0Zm-3,0v0Zm-6,0v0Zm-5,0v0Zm-5,0v0ZM12,10v0ZM9,10v0ZM0,10v0Zm63.5-.5L64,11v0l.5-1.5ZM71,11v0Zm-1,0v0Zm-1,0v0Zm-1,0v0Zm-1,0v0Zm-7,0v0Zm-2,0v0Zm-1,0v0Zm-2,0v0Zm-8,0v0Zm-2,0v0Zm-7,0v0Zm-1.5,1.5L38,14l-.5-1.5L37,10ZM34,11v0Zm-1,0v0Zm34,1v0ZM49,12v0Zm-3,0v0Zm-1,0v0Zm-7,0v0Zm-4,0v0Zm-2,0v0Zm-1,0v0ZM12,12v0Zm-2,0v0ZM5,12v0ZM3,12v0ZM1,12v0Zm69,1v0Zm-2,0v0Zm-1,0v0Zm-2,0v0Zm-9,0v0ZM46,13v0Zm-8,0v0Zm-5,0v0Zm-2,0v0Zm-1,0v0ZM13,13v0Zm-1,0v0Zm-1,0v0ZM9,13v0ZM8,13v0ZM7,13v0ZM2,13v0ZM1,13v0Zm68,1v0Zm-1,0v0ZM46,14v0ZM32,14v0Zm-3,0v0Zm-7,0v0Zm-5,0v0Zm-3,0v0Zm-1,0v0Zm-1,0v0Zm-1,0v0ZM9,14v0ZM8,14v0ZM6,14v0ZM1,14v0Zm35.5-.5L37,15l.5-1.5ZM70,15v0ZM46,15v0Zm-8,0v0Zm-7,0v0ZM18,15v0Zm-1-.5a5.512,5.512,0,0,0-1-.5q-.937.624-.312,1.25l-.041.043A6.965,6.965,0,0,0,15,15a1.409,1.409,0,0,0-.5.5L13,16a4.371,4.371,0,0,0-.684-.105L13.5,15.5,12,15v.893Q10.3,16.013,12,19v0l.683-.955L13,19l.333-1L13,21a2.339,2.339,0,0,0,1.286-1L14,22l2-2,1.5.5L17,20l.5-2-.5-.2v0l-.512-.205a.734.734,0,0,0-.212-.81c.028-.026.054-.052.078-.079A7.1,7.1,0,0,0,17,17q.936-.624.312-1.249.625-.625-.312-1.25v0Zm-2.5,1q-.277.562.711,1.124l.175.525L15,17l-.352.353q-.051-.405-.148-.853h-.714Zm-1.051,1.47-.058.526H13.07Zm1.237.709L15,18l-.294.294C14.708,18.1,14.7,17.9,14.683,17.685ZM15,15v0Zm-1,0v0Zm-1,0v0Zm-1,0v0ZM6,15v0ZM5,15v0Zm66,1v0Zm-4,0v0ZM46,16v0Zm-9,0v0Zm-5,0v0Zm-2,0v0Zm-7,0v0ZM7,16v0ZM6,16v0ZM5,16v0ZM4,16v0Zm68,1v0Zm-5,0v0Zm-3,0v0ZM26,17v0Zm-6,0v0ZM9,17v0ZM8,17v0Zm-1-.5A5.551,5.551,0,0,0,6,16q-1.127.749,0,1.5v0A5.522,5.522,0,0,0,7,18v0q1.126-.749,0-1.5v0Zm-3-.1v0l-1,.4v0l-.5.2L2,18.249v0L1.5,19.5v3l.628.878L2.5,24.5l1.451,3.193L3.5,29.5,5,31l1.5-.5-2-.5.164-.738L5,30l.5-1.5-.494-.776L5.5,25.5h-1l-.257,1.025L3.17,24.84,4,26l.5-1.5L4,23.752v0L3.166,22.5l.333-1h-1l1-1L3,19a3.1,3.1,0,0,0,1,.168v0q1.087-.05.5-1.667L5,16ZM3,19ZM2.5,21.5ZM1,17v0Zm71,1v0Zm-1,0v0Zm-4,0v0Zm-1,0v0Zm-1,0v0Zm-1,0v0ZM30,18v0Zm-1,0v0Zm-3,0v0Zm-2,0v0Zm-1,0v0Zm-4,0v0Zm-1,0v0Zm-7,0v0ZM9,18v0ZM5,18v0ZM2,18v0Zm65,1v0Zm-3,0v0ZM31,19v0Zm-1,0v0Zm-1,0v0Zm-1,0v0Zm-1,0v0Zm-3,0v0Zm-4,0v0Zm-9,0v0ZM8,19v0ZM6,19v0ZM1,19v0Zm64,1v0ZM31,20v0Zm-3-.572v0l-1,.428v0L22,22H20v0H19l-1.5-.5,1.4,2.8-.244.729a4.086,4.086,0,0,0-.157-.53H17.166l.333-1a6.294,6.294,0,0,0-.391-.826L17.5,21.5,16,20l-2.5,2.5a2.753,2.753,0,0,0-.165,1H12.5L13,25l.4-1.207a.643.643,0,0,0,.6.373v0A2.758,2.758,0,0,0,15,24h0a1.409,1.409,0,0,0-.5.5V26l2-.5.5.5-3.36.479q-.056-.226-.141-.479l-3,.5q2.3,1.2-.5,2.5l1.5-1.5L10,26q1.5-1-1-2-.888.592-.373,1.186L7,26l-1.5-.5L6,27l-.5,1.5.751.751L6,30l.5-.5L7,30l1-.5V30L5,31l-1.5-.5a2.845,2.845,0,0,1,2,3.5q2.6-.8,3.5,1v0l2.5-.5-1.818-.728.6-.2L11,34q1.078-.721.088-1.439L11.5,30.5h-1l.385,1.928A6.013,6.013,0,0,0,10,32l-1.268.422L9,31.751v0l.406-1.016q.261.133.593.266v0q1.5-1-1-2-.96.64-.28,1.281L8.5,30.5,8,30v-.5L9,29l2.5,1V29a1.228,1.228,0,0,0,.365.4L11.5,30.5,13,32l.059-.1L13.5,33a2.91,2.91,0,0,0-.262,1.414L12,34v1l1.273-.424a.926.926,0,0,0,.328.49L13,35v1l4.5-.5-1.851-.206A12.138,12.138,0,0,0,17,35l1,1,.5-.5L18,35l4.5-3.5-.363-.363L24.5,29.5,24,27l-.308,1.232A3.493,3.493,0,0,0,23.5,27.5l1-2.5,4-.5L25,24q3.3-.8,4,1a3.5,3.5,0,0,0,.566-.307L30,26l.5-1.5h-.681q1.316-1.121.681-3.5l-.857-.214L30.5,20.5l-1.2-.4,1.2-.6L29,19Zm.5,1.072.5-.25v.375ZM16.572,24.287l.128.214h-.2Zm2.109,1.4.489.489Q18.122,27.987,17,26a3.112,3.112,0,0,0,1,.167v0A.637.637,0,0,0,18.68,25.684Zm-4.994,1L14,27a.783.783,0,0,0-.26.045A3.341,3.341,0,0,0,13.686,26.688ZM9,27l.5.5L10,29Zm2.5,1q.183.061.351.107a1.206,1.206,0,0,0-.351.393Zm.741.2a3.07,3.07,0,0,0,.392.049c-.033.061-.067.125-.1.19Zm3.259.3.5.5v0l1.137,1.137a3.014,3.014,0,0,1-.941.19Q15.007,30.328,15.5,28.5Zm8,.5v0l-.006,0ZM22,29a2.418,2.418,0,0,0,1.232.134l-1.876.938Zm-9.79.629A6.474,6.474,0,0,0,13,30l-.5.5ZM13,30l.318.227-.068.023Zm4.5,2.5L14.73,30.236,17,32l.4-1.6L19,32l-1.5-.5V33l2.144-1.073L19,33q-2.4.1-1,1L21.25,31.75,19,34a3.056,3.056,0,0,1-.893.168Q16.968,34.171,17.5,32.5Zm-3.05-1.465.268.191A3.864,3.864,0,0,1,15.5,32.5l-1.515-1.515A.645.645,0,0,1,14.449,31.037ZM16.5,33.5l-1.459-2.042L16.5,32.5,18,35ZM6.5,32.5Zm2,.5.161-.4,1.264.759ZM25,20l1.5-.5L25,19Zm-1,0v0Zm-1,0v0Zm-1,0v0Zm-3,0v0Zm-1,0v0Zm-7,0v0Zm-1,0v0ZM8,20v0ZM0,20v0Zm65,1v0ZM24,21v0Zm-1,0v0Zm-1,0v0Zm-3,0v0l2.5-.5L19,20Zm-1,0v0Zm-6,0v0ZM7,21v0ZM4,21v0ZM0,21v0Zm30.5-.5L31,22v0l.5-1.5ZM69,22v0Zm-3,0v0ZM21,22l1.5-.5L21,21Zm-8,0v0Zm-1,0v0Zm-1,0v0ZM8,22v0ZM7,22v0ZM5,22v0ZM4,22v0Zm68,1v0ZM13,23v0Zm-1,0v0Zm-2,0v0ZM9,23v0ZM8,23v0ZM7,23v0ZM6,23v0ZM5,23v0ZM4,23v0Zm68,1v0Zm-4,0v0Zm-3,0v0ZM31,24v0ZM18,24v0Zm-6,0v0Zm-2,0v0ZM9,24v0ZM8,24v0ZM5,24v0Zm59,1v0ZM12,25v0Zm-1,0v0ZM8,25v0ZM6,25l1.5-.5L6,24ZM5,25v0ZM2,25v0ZM0,25v0Zm64,1v0ZM25,26v0ZM14,26v0Zm-1,0v0Zm-2,0,1.5-.5L11,25ZM7,26v0ZM2,26v0Zm62,1v0ZM3,27v0ZM2,27v0Zm62,1v0ZM3,28v0ZM2,28v0Zm61,1v0ZM3,29v0Zm66,1v0Zm-6,0v0ZM3,30v0Zm69,1v0Zm-1,0v0Zm-1,0v0Zm-1,0v0Zm-1,0v0Zm-6,0v0ZM3,31v0Zm60,1v0ZM12,32v0ZM4,32v0ZM3,32v0ZM0,32v0Zm65,1v0ZM13,33v0ZM5,33v0ZM4,33v0ZM2,33v0ZM1,33v0Zm10.5-.5L12,34l.5-1.5ZM72,34v0ZM60,34v0ZM13,34v0ZM5,34v0Zm63,1v0Zm-1,0v0Zm-7,0v0ZM48,35v0Zm-1,0v0Zm-1,0v0ZM8,35v0ZM7,35v0ZM6,35v0ZM5,35v0ZM1,35v0Zm65,1v0Zm-1,0v0Zm-1,0v0Zm-7,0v0Zm-2,0v0Zm-5,0v0Zm-6,0v0Zm-1,0v0Zm-1,0v0Zm-7,0v0Zm-1,0v0ZM19,36v0Zm-9,0,1.5-.5L10,35ZM8,36v0ZM6,36v0ZM3,36v0Zm67,1v0Zm-4,0v0Zm-1,0v0Zm-3,0v0Zm-1,0v0Zm-1,0v0Zm-1,0v0Zm-6,0v0Zm-1,0v0ZM42,37v0Zm-8,0v0Zm-1,0v0Zm-8,0v0Zm-4,0v0Zm-1,0v0Zm-1,0v0Zm-1,0v0Zm-1,0v0Zm-2,0,1.5-.5L15,36Zm-1,0v0Zm-2,0v0Zm-1,0v0Zm58,1v0Zm-1,0v0Zm-2,0v0Zm-4,0v0Zm-1,0v0Zm-9,0v0Zm-9,0v0ZM27,38v0Zm-2,0v0Zm-9,0v0Zm-3,0v0Zm49,1v0Zm-9,0v0Z" transform="translate(354.14 94.99) rotate(180)"/></g><g class="f" transform="matrix(1, 0, 0, 1, 399.36, 8512.01)"><path class="b" d="M-325-7639v0Zm-3,0v0Zm-1,0v0Zm-4,0v0Zm-4,0v0Zm-1,0v0Zm-1,0v0Zm-1,0v0Zm-5,0v0Zm-5,0v0Zm-10,0v0Zm-2,0v0Zm-1,0v0Zm-2,0v0Zm-2,0v0Zm-1,0v0Zm-1,0v0Zm-5,0v0Zm-1,0v0Zm-1,0v0Zm-1,0v0Zm-1,0v0Zm-4,0v0Zm-2,0v0Zm-1,0v0Zm-22,0v0Zm-3,0v0Zm-1,0v0Zm-1,0v0Zm-2,0v0Zm-1,0v0Zm-1,0v0Zm-5,0v0Zm-1,0v0Zm-1,0v0Zm-7,0v0Zm-1,0v0Zm-3,0v0Zm110-1v0Zm-1,0v0Zm-1,0v0Zm-3,0v0Zm-3,0v0Zm-1,0v0Zm-3,0v0Zm-2,0v0Zm-3,0v0Zm-3,0v0Zm-3,0v0Zm-4,0v0Zm-9,0v0Zm-1,0v0Zm-1,0v0Zm-5,0v0Zm-1,0v0Zm-7,0v0Zm-1,0v0Zm-1,0v0Zm-2,0v0Zm-2,0v0Zm-2,0v0Zm-2,0v0Zm-4,0v0Zm-11,0v0Zm-3,0v0Zm-8,0v0Zm-1,0v0Zm-2,0v0Zm-1,0v0Zm-1,0v0Zm-1,0v0Zm-6,0v0Zm-5,0v0Zm-2,0v0Zm-4,0v0Zm105.5-2.5h.8l-.3-1.5-.5-1.5.333-.777L-329-7646q-2.5-1-1-2v-1l1.5.5-1.5.5,2.045,1.228L-327-7649l.5,2.5-.5.835v0l-1,1.664,1.222,2.035.778-3.372v0l.268-1.163h-.768l.5-1.5.363,1.09.136-.591-.5-1.5c.038.015.075.031.112.048q-.059-.082-.112-.166v0a4.013,4.013,0,0,1,0-3.883v0l1.5,4.5h-.683q1.494,1.348.683,5l-2.5,3.5a3.057,3.057,0,0,1-.873.156Q-329.386-7639.843-328.5-7642.5Zm1.5,1.5.115-.5h-.282Zm4,0v0Zm-7,0v0Zm-2,0v0Zm-3,0v0Zm-1,0v0Zm-2,0v0Zm-6,0v0Zm-4,0v0Zm-4,0v0Zm-2,0v0Zm-14,0v0Zm-2,0v0Zm-4,0v0Zm-2,0v0Zm-8,0v0Zm-1,0v0Zm-4,0v0Zm-20,0v0Zm-3,0v0Zm-2,0v0Zm-4,0v0Zm-9,0v0Zm-1,0v0Zm-2,0v0Zm-1,0v0Zm55.5.5-.6-1.8-.9.3v-1l.749.25-.25-.75,1.5-1.5.5,4.5Zm-2,0-.5-2.5,1.5,2.5Zm52.5-1.5v0Zm-4,0v0Zm-1,0v0Zm-1,0v0Zm-5,0v0Zm-1,0v0Zm-6,0v0Zm-2,0v0Zm-3,0v0Zm-6,0v0Zm-1,0v0Zm-5,0v0Zm-1,0v0Zm-2,0v0Zm-2,0v0Zm-3,0v0Zm-4,0a1.428,1.428,0,0,1-.5-.494q.241.5-.5.993v0a5.544,5.544,0,0,1-1,.5q-1.124-.749,0-1.5v0a5.545,5.545,0,0,1,1-.5,1.426,1.426,0,0,1,.5.494.615.615,0,0,1,.193-.745,2.242,2.242,0,0,1-.189-.249l1.5-2.5v-.5q-1.127-.751,0-1.5v-.887a4.814,4.814,0,0,1-1,.091v.8l.5,2.5h-1l.5-2.5v-.8a3.234,3.234,0,0,1-.651-.077,2.543,2.543,0,0,1,.151.373l-1.322,1.028,1.322-.528-1.5,4v0l-1.53-2.143-.651.506.681,1.135h-1l-.154-.769L-377-7645l-.5-.5.668-.668L-377-7647l.374.625.541-.541-.416-.583.5-1.5.6,1.2q.536-1.847-1.6-1.2v-1l.5-1.5.5-1.5,1,1.669v0l.5.833-2.5.5a6.873,6.873,0,0,1,2.727-.059,3.652,3.652,0,0,1-.228-.441l.5-1.5.5,2q3,1.3,2-2.5l-.5-1.5a3.2,3.2,0,0,1,1,.729V-7654l-.5-2.5.5-.5-.5-.5-.5-2.5-1,4,1-1v0l.5,2-1.255-.313q.458.406.257.813l.5-.5v3l-2.5-.5.314-.314a2.375,2.375,0,0,1-.813.045v0a.8.8,0,0,1-.733-.732H-377.5l.5-1.5v0l.5,1.5-.428-3L-378-7654l-.5-2.5.5-1.166v0l1-2.335v0l.5,2.5-.248.578a1.924,1.924,0,0,1,.747.473v0a2.31,2.31,0,0,1,.58,1.422q.222-.071.421-.12V-7656l-1.5-1.5.5-2.5.5,2q2.7,1.1,2-1.5a3.916,3.916,0,0,1-.421-.263l.421,1.264h-1l.453-1.361q-.9-.747.047-1.532v0a4.574,4.574,0,0,1,.816-.516,6.1,6.1,0,0,1-.719-2.141l-.1.048.072-.217q-.051-.376-.072-.782l-1,4-.5-7.5-1-2h1a1.793,1.793,0,0,1-1-1.013v4.014l-1.5,1.5v0h-1v0h-1v0l-2,1.2v0l-2,1.2v0l-1,.6v0h-1v0h-2l1.5.5-1.5.5v-1h-3l2.5.5-2.5.5,1.5.5-1.5.5v-2h-3l2.5.5-2.5.5v-1h-1v0h-1v0h-1v0h-1v0l-1,1-1-.5v.5l2.5.5-2.5.5v-1.5l-3-1.5q1.127.75,0,1.5v0a5.52,5.52,0,0,1-1,.5h0v0l-.5,1h-.5v1q1.127.749,0,1.5v0a5.586,5.586,0,0,1-1,.5q-1.124-.749,0-1.5v-.3l-2,2.8-.856-1.285.357,1.784h-.429a1.108,1.108,0,0,1-.071,1.847v0a4.924,4.924,0,0,1-1,.652l1.5.5-1.5.5v-1q-.488-.9-.992-.979l.492,1.479h-1l.495-1.48q-.729-.105-1.494,1.48l-.5,1.5-1-1v0l-.5-.5-.087-.788a4.986,4.986,0,0,1-.412.788v.5l.5,2.5h-1a1.417,1.417,0,0,1-.5.5,6.331,6.331,0,0,1-.825-.391L-418-7650l.5,2.5h-1l.5-2.5v-1l.657.219a.6.6,0,0,1-.156-.719h-1l.5-1.5.5,1.5a.981.981,0,0,1,.187-.248q-.626-.625.313-1.251a5.581,5.581,0,0,1,1,.5v-.5a1.406,1.406,0,0,1-.5-.5v-1.5l1.886.473-.108-.973h-.779l.5-2.5-1,3-.405-8.116q-.436.67-2.094.117a4.4,4.4,0,0,1-.247-1.152L-419-7664l-.5-2,3,.5-.565.338q.262.06.565.161v-2.5l-1-1,.5,1.5.5.5-.5.5-1-1-1.5.5v-3.5l2,.5-.074-.52-1.926-.481.5-.5a1.412,1.412,0,0,1-.5-.5l-.5.5-.5-.5,2-3v-2h-.4l.4,2h-1l.4-2h-.9q1.126.75,0,1.5v0a5.552,5.552,0,0,1-1-.5v0q-1.125-.751,0-1.5.3.121.546.241a6.366,6.366,0,0,0-.035-2.766A1.361,1.361,0,0,1-421-7679l.5,1.5h-1l.5-1.5a5.547,5.547,0,0,1-1-.5v0q-1.124-.75,0-1.5a5.2,5.2,0,0,1,1.076.552,2.81,2.81,0,0,0-1.575-1.052l2.5-.5.367-1.1A2.181,2.181,0,0,1-421-7682l-.75-1.249.25.747h-1l.428-1.285-.428-.713q1-.5,1-1l-1.5.5v-1l1.5.5q0-.5-1-1h-1l.5-1.5v0l.5,1.5-1-6-1-1a4.506,4.506,0,0,1,.667-1.221l-.667.222.45-.55-.45-.451,1.5-1.5v0l.5-.5,2.8-3.6-.3.1q-1.123-.751,0-1.5v0a5.546,5.546,0,0,1,1-.5l6-5.251v0l1-.875v0l1-.876v0h2v0h2v0h2l1,1v0l2-.667v0l1-.333h5v-1l5.5-.5-5.5.5-1,1h-9.5q-.776-1.94.5-2.207v0a3.025,3.025,0,0,1,1,0v0a7.891,7.891,0,0,1,1,.21,2.424,2.424,0,0,0,1,.989V-7712l5,.454V-7712h-4v-1h3v0h1v0h1v0h1v0h1v0h1v0l1,.428V-7713l3,.667v0l1,.222v0l.5.111-.5,2,1-2,1,1v0q.518-.086,1-.136v0q3.423-.354,5,1.135l3-1v0l2.407,1.445L-375-7710l2,1,2.5-1a4.364,4.364,0,0,1,.248,1.165,2.791,2.791,0,0,1,1.251-.356v0a7.124,7.124,0,0,1,2,.192l3,1,3-3,1.5,1q-.25-.5.5-1l1,.6v0l1.5.9-1.5.5h2v0h1v0l.714.286L-354-7709v0l1-1v0l.5,2h-.006l1.507.6v-.1q-1.124-.75,0-1.5v0a5.588,5.588,0,0,1,1,.5v0a1.432,1.432,0,0,1,.5.493q-.24-.5.5-.992a5.586,5.586,0,0,1,1,.5v0q.745.5.5.993a1.434,1.434,0,0,1,.5-.493q2.5,1,1,2l1,1v0l.5.5-.5.5-1.5-1.5a1.411,1.411,0,0,1-.5.5,4.468,4.468,0,0,1-.859.142L-346-7703v0l.789.789a8.191,8.191,0,0,1-.283-1.712l2,1.425v1.5a1.421,1.421,0,0,1,.5-.5v0a5.555,5.555,0,0,1,1-.5l-1-1v0l-1.5-1.5.5-.5,2,2v0l.5.5-.5.5q1.127.75,0,1.5v.186q.95.146.5,1.813l.734,2.2.267-1.2-.5-1.5a3.125,3.125,0,0,1,1-.167v0q1.089.049.5,1.666a2.348,2.348,0,0,1,.622.468L-339-7698l2.5,1.5q-.7,2.3,1.5,1.5a5.553,5.553,0,0,1,1,.5v0q1.051.7.138,1.4a3.49,3.49,0,0,1,.361.6v3l2.167,6.5.333-1,.5,1.5h-.667l.667,2h-.667l.667,1v4l1,1,.182,1.454L-329-7674l.5,1.5h-.751l.751,6,1,1-1.332.333.333.667v.717A5.5,5.5,0,0,1-328-7665l1,2.33v0l.5,1.169v6h-.429l.429,1v3q-.436.654-.872.548l.872,1.452H-328v0h-1.5l.5-.833v-.167a5.552,5.552,0,0,1-1,.5,1.415,1.415,0,0,1-.5-.5h-1l.365-1.1q-.918-.7.134-1.4a5.572,5.572,0,0,1,1,.5v-.5l1.5.5-1.089.362a.668.668,0,0,1,.146.328q.2-.1.441-.191.548.365.563.73l.288-.479a6.624,6.624,0,0,1-.349-.75q.8-3.3-1-4l1.25-1.25a1.968,1.968,0,0,1-.75.062v0q-.608-.093-.642-.812h-.429l.571,4q-.609.914-1.219.341l.22.658h-1l.391-1.175a6.371,6.371,0,0,1-.391-.825l.5-1h-.5l.5-1.5.3.9.2-.4-1-1v-1h-1l-.5-1v0l-1-2v0l-.5-1,.391-1.173a6.349,6.349,0,0,1-.391-.825l.25-.75L-335-7665l-.778-1.168A2.315,2.315,0,0,1-336-7666a5.553,5.553,0,0,1-1-.5v0q-1.127-.75,0-1.5a3.938,3.938,0,0,1-1,.144v0q-1.408-.031,0-2.144a3.533,3.533,0,0,1-1,.106v0q-.713-.049-.827-.606h-.674q1.709.853.5,1.708v0a3.868,3.868,0,0,1-.5.292l-1.5,2.5v0l-.5-.5-.5.5-.5-.5-.5.5-2.5-2.5.5-.5,1.251,1.25-1.75-1.75a3.522,3.522,0,0,0,.61-.39l-.61-.611.5-.5.494.165q-.217-.572-1.493-1.166l-1,1,.5.5-.5.5.5.5-.5.5-2-2v0l-1-1v0l-1.5-1.5.5-.5,1,1v0l.5.5.5-.5.91.909L-351-7674l-1.5-.5.5-.5a2.927,2.927,0,0,1-1,.149v0a.961.961,0,0,1-.96-.855l-.039.1v0l-1,2.6-.5-3-5-2,5,2v8h-.026a.776.776,0,0,1,.124.232l.4-5.231.5,6.5h-1l1,1v7l.5-4.5v0l.5,4.5H-355q1.125.749,0,1.5l-.143.428.642,1.071,0,.006L-354-7656l.421,4.21L-352-7654l-.5,1.5-1,2q1.8.7,1,4h-.332l1.333,2v2h-1q.7-2.6-2-1.5v-3l-.5,1-.936-1.56.437,3.058h-1l.463-3.228-.463-.771h1l-.5-.5-1.174.392q-.121.5-.327,1.108h-.835a9.694,9.694,0,0,1-.166,1,1.413,1.413,0,0,1-.5.5l.5.5-.5.5-2.5-2.5.5-.5.5.5,1-2-.5-1.5a2.406,2.406,0,0,1,1.106.748L-359-7651a2.9,2.9,0,0,1,1-.149v0a1.421,1.421,0,0,1,.2.026,6.2,6.2,0,0,1,.637-1.576l-1.335-.8.77-.192-.77-.308.5-2q-.5,0-1,1v0l-.5-.5a1.414,1.414,0,0,1-.5.5,4.148,4.148,0,0,1-.939.145l.5,1.168L-360-7655l1,1.668v0l.5.833q-.666,1-1.332.222l.333.777-3,.5.928-2.476L-363-7653v-1h0a1.409,1.409,0,0,1-.5-.5l-.132-.658q-.172.078-.368.157-1.169-.778.088-1.556L-364-7657l-1.5-4.5,1-1,.428-3.429-.93.93.5-1.5-.273-.454-.728,1.455,1,2-2.237,1.342a.744.744,0,0,1,.424.471L-365-7663l-.5,1.5-.5,2.5v0l-.325-1.627a5.978,5.978,0,0,1-.175.626l-.016.005q.524.615.016,2.494l-.5.5v.632q1.368,1.183-1,2.367l.5,1.5h-1l.5-1.5v-3a4.864,4.864,0,0,1,1,.632V-7657l-.5-.5-1.5.5v-1l1.5.5-1.5-1.5v0l-1,1,.5,1.5-.333.555,1.334.444-1.5.5v-.666l-1,1.667v.729a2.863,2.863,0,0,1,.617,1.1,1.815,1.815,0,0,1,.382-.326v0a5.537,5.537,0,0,1,1-.5q.854.571.413,1.139l1.087.362-1.5.5v-.5a5.588,5.588,0,0,1-1,.5,2.41,2.41,0,0,1-.218-.164c0,.077,0,.155,0,.235l1.715.43-1.337,3.118q.872.691-.163,1.382v0a5.521,5.521,0,0,1-1-.5v.5l.5,1.5a7.12,7.12,0,0,1-.3.652q1.107.924-1.2,1.849v0Zm1.932-5.544-.271-2.169q-.064.344-.161.712c-.171.046-.338.083-.5.114v.887A5.805,5.805,0,0,1-370.068-7647.543Zm15.567-1.638v-1.318l.165-.231q-1.743.378-1.164-1.77,2-1,0-2l.5-.5a.582.582,0,0,1-.688-.126l-.481.96.667.667-.5.5-.386-.154L-356-7652l-.5-.3,2,2.8-.819-.273A2.925,2.925,0,0,1-354.5-7649.181Zm25.5-1.151.178-.3c-.054.043-.113.086-.178.129Zm-1.555-.337a.614.614,0,0,1,.168-.5q-.222-.1-.4-.205Zm-84.884-.134.441-2.2v-.5q-.5.75-1,.5v.5q.939.626.313,1.25A.762.762,0,0,1-415.44-7650.8Zm53.884-2.716.5-1.339a.642.642,0,0,1-.6-.291,4.609,4.609,0,0,1-.35.648v0q-.418.627-.836.556Zm-11.757-.168L-373-7654q-.133-.053-.255-.107A3.2,3.2,0,0,1-373.313-7653.687Zm16.98-.647.483-.965a4.608,4.608,0,0,1-.65-1.2l.366-1.1a1,1,0,0,1-.417-.549L-357-7655q-.5-1-1-1ZM-412.5-7655v-3l-.5,1.5v0l-.5,1.5h.5v0Zm37.5-.146a3.945,3.945,0,0,1,.438-.083q-.016-.385.561-.771a6.937,6.937,0,0,1,.686.313L-373-7656q-1-2-2,0Zm13.316-.463A4.268,4.268,0,0,1-361-7657q.316.126.568.252.57-2.3-2.569-1.253a5.512,5.512,0,0,1,1,.5v0q1.124.749,0,1.5-.239-.1-.441-.191a.539.539,0,0,1-.025.111Zm6.5-1.026L-355-7657q-.3-.121-.543-.241Zm-8.392-.107q.089-.045.185-.089-.487-.584.388-1.167a1.411,1.411,0,0,1-.5-.5h0l-.5,1.5Zm36.074-.091v-4.666a2.5,2.5,0,0,1-.415-.245l.415,1.246h-1l1,2.5q-.228.092-.431.159Zm-81.921-.062.345-1.718L-410-7660v0l-.438,2.189q.2-.094.438-.189.779.518.48,1.037Zm52.92-1.6v0h0Zm26.875-.38a4.439,4.439,0,0,1,.126-.623l-.91-2.732a.954.954,0,0,1-.59.231l.5.5.3,2.1.2-.6ZM-406-7659.5a5.545,5.545,0,0,1,1-.5v-1h-3.5l3,.5-.5.7Zm45.5,0a6.451,6.451,0,0,0,1.244-4.071,6.412,6.412,0,0,1-1.254,4.067Zm-2.263-.143a6.477,6.477,0,0,1,.726-.341l-.06,0A.958.958,0,0,0-362.764-7659.644ZM-371-7660l.5-.5,1-2Zm42.5-.5.451-1.354a1.565,1.565,0,0,1-.451-.659ZM-408.5-7661Zm-2,0-.5-.25v.25Zm-2,0h1.5v-.25l-.5-.251-1,.334Zm81-.5-.314-.942a4.625,4.625,0,0,1-.685-1.058l-.158-.788a.822.822,0,0,1-.585.351Zm-80,0-1-.5v.167Zm43-.5a3.393,3.393,0,0,1,1.5-.231v-.762q-1.2-.324-1-2.005h-.5Zm3.305-1.969a4.128,4.128,0,0,1-.306.97,3.871,3.871,0,0,1-1.326.044Q-364.985-7662.522-365.194-7663.97Zm5.938.375c0-.033,0-.065,0-.1C-359.255-7663.661-359.255-7663.627-359.256-7663.595Zm0-.143c0-.023,0-.047,0-.071C-359.254-7663.785-359.254-7663.762-359.255-7663.738Zm0-.14v0Zm29.216-.007L-330-7664l-3.5-2.5-.214-.643-.186.31,1.1,1.834-.2-1ZM-372-7665l-.474.237a4.9,4.9,0,0,0,.974-.237q1-1-1-2-.057.085-.11.167Q-370.627-7665.916-372-7665Zm1.3.229a8.262,8.262,0,0,1,.2-1.73l1.5.5q3,.5,3.5-1.5l-2.5,1.5q-1.5-1,1-2l-1.5.5-.5,1.5-1.5-.5A8.262,8.262,0,0,0-370.7-7664.77Zm-24.8-.229h1v-2l-.3.6.3.9h-.75Zm-19-.5a2.133,2.133,0,0,1-1.247-2.042A2.133,2.133,0,0,0-414.5-7665.5Zm55.069-.555v0Zm-.022-.146,0-.024Zm-.048-.3c.009.051.017.1.025.152C-359.483-7666.4-359.491-7666.449-359.5-7666.5Zm4,0Zm-56.941-.271A4.209,4.209,0,0,1-413.5-7667,1.233,1.233,0,0,0-412.441-7666.771Zm.887-.212.053-.017v-.026C-411.518-7667.01-411.535-7667-411.554-7666.982ZM-335-7667l1.2-.4-.2-.6Zm-78.5,0q.5-1.5,0-2Q-414-7667.5-413.5-7667Zm7.75-1,.25-.5-1-1Zm40.314-.062L-366-7669l-.5.3Zm1.64-.069.3-2.367A4.348,4.348,0,0,0-363.8-7668.13Zm-49.7-4.37-4,4,4.335-4.335a2.407,2.407,0,0,1-.148-.237Q-413.4-7672.8-413.5-7672.5Zm38.7,3.828h0Zm.324-.029c.05-.008.1-.018.155-.03C-374.379-7668.72-374.43-7668.71-374.48-7668.7Zm.221-.045a5.423,5.423,0,0,0,.758-.253A5.423,5.423,0,0,1-374.259-7668.747ZM-390-7669q3,.5,3.5-1.5l1.5-2.5,1,2,3.5-5.5,2.5-7.5-2.5,7.5-3.5,5.5-1-2-3,4-1.874-.375Zm56,0,.125-.5h-.225Zm-79.5,0q-.5-.5-2,0Zm82.2-.058-.2-.44A.674.674,0,0,0-331.3-7669.058Zm-75.2-10.442v0l1.5-2.5Zm75,10,.11-.332A.6.6,0,0,0-331.5-7669.5Zm-5.5-.5q1.877.655,1.689-.757l-.19.757-2.248-1.123Zm-73,0q2.5-1,1-2a8.458,8.458,0,0,1-1.57.205l2.069.3-3,1.5Zm34.438-.248q.027-.121.061-.251Q-375.536-7670.37-375.562-7670.249Zm41.906-.127.142-.568A1.042,1.042,0,0,0-333.656-7670.376Zm-6.844-.124.5-2.5-.5-3.5Zm-4,0v0Zm-19,0,1-1A2.18,2.18,0,0,0-363.5-7670.5Zm32.366-.1L-331-7671q-1.968-.656-2.477,0Zm-86.535-.063-.139-.973c-.028.022-.057.045-.087.068Zm82.768-.831-.1-.5-.126.5Zm-29.1-.5,1.5.5-3-2A1.925,1.925,0,0,0-364-7672Zm24.3.5a8.585,8.585,0,0,1,.7-1.5l.287.431a10.655,10.655,0,0,1-.155-1.932h-.634l.5-1.5.207.623A3.254,3.254,0,0,1-337-7678l-.9.3-1.1.822v0l-.5.376-.5,3.5Zm6.2-1.5q1,2,2,1v-4l-.466.7.466,2.8-.5.5-1.3-1.3Zm-61,1h0Zm-2,0h1v-1.5l-.5,1.5-.295-.413Zm20-3.5v2.716A5.519,5.519,0,0,1-376-7674a5.239,5.239,0,0,1,.972.464Zm39,2.5,3.6-.9-.6-.6h0Zm-80.5,0ZM-394.5-7673.5Zm-17,0-1-4Zm-1,0-.573-.573c-.03.18-.07.371-.121.573Zm47-2a5,5,0,0,0,0,2l.889-2.667A2.285,2.285,0,0,1-365.5-7675.5Zm18.5,1.5v-1a6.269,6.269,0,0,1-.84-.4Zm0,0,2.5-1H-347Zm14.5-.5h0Zm-17-1-2-3Zm-38.5-.5q3,.9,1.5-3.5v3.5l-2.1-.842A2.521,2.521,0,0,1-388-7676Zm-2,0a2.283,2.283,0,0,1,.669-.891l-.87.29Zm-26,0a3.067,3.067,0,0,1,2.421-.062,1.114,1.114,0,0,0-.82-.266A5.324,5.324,0,0,0-416-7676Zm83.5,0a.693.693,0,0,0-.336-.149Zm-65.188-.081q.817-.931-1.311-1.918h-1.059Zm33.19-.418h0Zm16,0h0Zm8,0,2.168-2.167L-340-7678l1.5-.5-1.5,1.5-.5.029Zm-25-1a2.51,2.51,0,0,1,.842.6l-.842-2.1q1.414.558,1.984-.006a3.642,3.642,0,0,0-1.289-.32Q-365.993-7679.327-365.5-7677.5Zm-23.5.5h0Zm54.5,0h1v-2l-.237.474.237,1.027h-.75Zm-80,0h1v-2l-.3.6.3.9h-.75Zm82-1.5.177,1.063a3.043,3.043,0,0,0-1.836-2.914l.09.39L-334-7680Zm-8.5-.5,1,1-1.591-2.5h-.909l-1.5-2.5a2.95,2.95,0,0,0-1.5,1.5l1.5-1.5,2.5,4.5-.941-.314q.053.407-.558.815a7.038,7.038,0,0,1-.687-.314L-344-7678a3.1,3.1,0,0,1-.919.152Q-342-7677.176-341-7679Zm3.779.79,1.788-.993q-.042-.143-.076-.291Zm-75.28-1.29q1,.5,1,1Q-411.5-7679-412.5-7679.5Zm65,1,.1-.5-.268.446Zm-27,0v-2l-.858-1.43ZM-415.5-7678.5Zm65-4q-1.136,3.335.312,3.625l-.312-.125v-4.5l1.5-1.5-.222.667a3.269,3.269,0,0,1,.648-.411L-349-7685l-1.5.5,2.5-1.5q-2.4-.1-1-1l2.5,1.5-1.5-.5q1.5,2.5,3-1l.617,1.146L-344-7687l.3.5-.8-2,.5,1.5-1.444-2.165a.977.977,0,0,1-.421.57l.366,1.1h-1l1,1-.5.5q-.329-.165-.614-.329A1.82,1.82,0,0,1-347-7686q-2.218-.886-1.289-1.774a1.357,1.357,0,0,1,0-1.454,2.146,2.146,0,0,1-.212-.273l.375-.624L-350-7692l-.5.5-.25.75L-350-7692l1.5,2.5-.375.875.375,1.126h-.857l-2.142,5Zm-13,3.475a2.663,2.663,0,0,0,.277-2.214Zm27.987-.477a5.249,5.249,0,0,1-.09-.521l-1.355-.339-.214.533L-337-7680Zm-11.989-.5q-1.532.51-2.022-.022Q-349.131-7679.336-347.5-7680Zm-49.5,0h4l-4.332-.482A2.433,2.433,0,0,1-397-7680Zm61.372-.319A9.185,9.185,0,0,1-335-7684l.544,2.361q1-3.144-1.546-2.361v-1h-1v.688q.948.146.5,1.812l.5-1.5.5,1.5h-1Zm-17.205-.181v0h0ZM-387-7681a13.473,13.473,0,0,1-2.021.413,4.733,4.733,0,0,0,2.193-.462C-386.883-7681.032-386.941-7681.015-387-7681Zm-10.462.385.161-.484-1.2-.4.332-.167-2.332.666a4.666,4.666,0,0,0,.071-.78,4.666,4.666,0,0,1-.071.78,5.34,5.34,0,0,1,1.372-.2A2.33,2.33,0,0,1-397.462-7680.616Zm63.231-.053a2.489,2.489,0,0,0,1.034-1.817q-.116.456-.3.985h-.922Zm-11.457-.238c.054-.182.114-.373.182-.571A3.264,3.264,0,0,0-345.688-7680.906Zm-20.222-.025.41-.069.7-1.056A5.226,5.226,0,0,1-365.911-7680.932ZM-394-7681a2.908,2.908,0,0,1,.5-.749l-1,.5Zm41.5-.5,1-3v-4.5a1.338,1.338,0,0,1-.448.465l.448,4.037h-1Zm20-1,.665,1L-333-7685Zm-14.8.869.272-2.182-.443-.266a1.1,1.1,0,0,1-.4.485l.366,1.094h-1l.29-.87a6.483,6.483,0,0,1-.79.371l.5.5-.313.314a2.9,2.9,0,0,1,.565-.063A.859.859,0,0,1-347.3-7681.632Zm10.205-.1L-337-7682a4.714,4.714,0,0,1-.512.11Zm-58.409-.023a.721.721,0,0,0-.5-.25Zm39-.249h1l-.376-.376-.625.209Zm-17,0,1.539-.77L-372-7683l-1.5.5Zm-3.5,0,1.332-.446L-376-7683l-1.286.428Zm-14.5,0,4-1-.375-.375-3.75,1.25Zm44.75-.25.25-1.25-.468-.281Zm-50-.126.25-.125-.832-.166Zm57.964,0a1.735,1.735,0,0,1,.036-.87L-339-7683a6.329,6.329,0,0,1-.826-.391l-.854.284Zm-46.713-.121h0Zm-25.5-.5,1.5.5-.5-.5-1.5-.5A1.416,1.416,0,0,0-411-7683Zm46.5.5.454-.681-.883-1.1-1.618-1.079Zm8.5-1.5,2.5,1.5a1.926,1.926,0,0,0-1.5-1.5l-3.5-2.5Zm-13,1q1.974.658,2.481-.006a3.457,3.457,0,0,0-2.471-.026Zm-23.5,0,.251.251-.126-.376Zm36.249.25-.249-.25v.167ZM-385.5-7684.5a5.919,5.919,0,0,1,.081,1.51l.585-3.511-.167.5Zm-32,1.5,4.5-2h2l1.5-1.5,1-2-1,1-1.5,2.5h-2Zm50.991-.022a1.718,1.718,0,0,0,.008-1.477l-.358-1.072-.643-.428.667-.667-.667-.833v-.5l-1.347-.674h-.023a.9.9,0,0,1-.773-.184l.137-.137a1.179,1.179,0,0,1-.136-.683q-.215.571,0,.82l-.022.021A2.425,2.425,0,0,1-369-7688l1.5.5-4,2,3.5-1.5Zm-44.993-.479a1.981,1.981,0,0,1,.676-1.108Q-411.777-7684.054-411.5-7683.5Zm69.213-.225a.626.626,0,0,1-.214-.771q-.427.64-.856.548l.107.2.25-.25ZM-389-7684l.75.25-.25-.25v-1l-.125-.125Zm-8.5-2q-1.1,2.7,1.5,2a2.576,2.576,0,0,1,.144-.241,8.667,8.667,0,0,1-1.644.241q.871-2.137-.576-2.144Zm6.068,1.931a2.356,2.356,0,0,0,.866-.866Zm50.885-.06q-.106-.436.547-.872l2.5.5-.248.249a1.979,1.979,0,0,1,.75-.062V-7685l-1-.5v0l-1.768-.884-1.005.43,2.273.455-2.5.5v-.857l-1.842.789.341.569a1.414,1.414,0,0,1,.5-.5ZM-404.5-7687.5l2.5,2.5,1.427.713Zm48.5,2.5h3.5v.5l.441-3.962A5.816,5.816,0,0,1-353-7688a1.408,1.408,0,0,1-.5-.5,2.113,2.113,0,0,0,1,1q.481,1.6-.552,1.921l.552.079-3.5.5q-1.5-.666-1.488-1.361Q-357.5-7685.666-356-7685Zm-50.5.5a7.5,7.5,0,0,1-.227-1.138l-.167,1.006Zm-10.227-.048,1.225-.953q-.356-1.121.04-1.489l-.04-.011Zm45.226-.953,2.4.8.1-.3Zm-32.414.644h0Zm.391-.032c.067-.01.138-.022.21-.037C-403.386-7684.911-403.456-7684.9-403.523-7684.889Zm-15.773-.035.205-1.439-.409-.136A9,9,0,0,1-419.3-7684.924Zm43.8-.576q.781,1.17,1.559-.091L-374-7686Zm-34.5.5h0Zm32.5,0v-1.165L-378-7685Zm-1,0h.5l-.2-.6Zm-14,0,.5-2a6.636,6.636,0,0,1-1,1.22v.665Q-392.759-7685.07-392.5-7685Zm-.5-.115v-.665a6.014,6.014,0,0,1-.708.579A4.9,4.9,0,0,1-393-7685.116Zm50-.216V-7686l2-1-2.42.969Zm-30.5-.667a3.449,3.449,0,0,0,1.377.325A6.214,6.214,0,0,1-373.5-7686Zm-15.749.25-.25-.25-.125.125ZM-356-7686l.5-1.5Zm-34.756-.061A4.145,4.145,0,0,0-392-7687Q-391.377-7685.755-390.755-7686.06Zm17.2-.3.057-.14,2-3A2.818,2.818,0,0,0-373.558-7686.359Zm15.057-.14q1-.5,1-1Zm-46.167-.042c.008-.025.016-.05.024-.075C-404.652-7686.591-404.66-7686.566-404.668-7686.541Zm.025-.076.025-.073Zm9.118-.383H-398Q-396.037-7686.346-395.525-7687Zm24.024,0a3.414,3.414,0,0,1,.142.32,3.062,3.062,0,0,0-.049-.413Zm-17.519.207c-.05,0-.1,0-.159-.008C-389.122-7686.8-389.069-7686.794-389.019-7686.794Zm.519-1.706q.576,1.651-.451,1.7Q-387.925-7686.847-388.5-7688.5Zm-16.026,1.565.027-.066Zm-1.979-.035.026-.031h-.021ZM-335-7687l1.2-.4-.2-.6-1.071.356Zm-46,0,.125-.5h-.375Zm-11.5-4-.5,4,1-4,.172.69q0-1.18,1.828-.69l.5-1.5Zm-9,4v0Zm-10,0v-2l-.4.4.4,1.6-1.6-.4-.4.4Zm15.993-.023a1.72,1.72,0,0,0,.008-1.476l-.116-.349A2.4,2.4,0,0,0-395.507-7687.024Zm30.01-.473-1-1.5-.251.251Zm19,0,.29-.87A6.483,6.483,0,0,1-347-7688Zm-9,0-1.932-3.381a1.081,1.081,0,0,1,.065.27Zm-2-2,1,2-.857-3A3.361,3.361,0,0,1-357.5-7689.5Zm-19,2,1.409-2.537q-.7-.223-1.409,1.538l-.428,1Zm19,0a.64.64,0,0,0-.159-.4Zm-27.133-.2.133-.8-2-2ZM-338-7688q-1-2-2,0l-2-2-2.5,1.5,2.5-1.5,2,2q.5-1,1-1T-338-7688Zm-66.943-.794-.066,0Zm.048,0a2.393,2.393,0,0,0,.554-.1A2.392,2.392,0,0,1-404.9-7688.794Zm.752-.156.005,0Zm.008,0L-404-7689Zm52.637-1.546q-1.755.751-2,1.5a2.83,2.83,0,0,1,1.5-1,1.414,1.414,0,0,1,.5.5h0l.45-.75-.45-2.25a2.106,2.106,0,0,0,1.246-2.226,12.43,12.43,0,0,1-.247,1.225h-1v0h-.6ZM-377.5-7689Zm-14,0,3.5-1Zm-31,0h0Zm3.973-.066c-.024-.06-.046-.118-.067-.175C-418.573-7689.185-418.551-7689.127-418.527-7689.067Zm83.287-.095a5.216,5.216,0,0,0-.261-2.338Zm-83.362-.1q-.668-1.848.644-1.88Q-419.269-7691.113-418.6-7689.265Zm47.1-.236v-6l-1-3,.5-.9v0l2-3.6,2.5.5a2.592,2.592,0,0,0-.924.924L-367-7703l1.5.5.5-.5,0,0-.5-.5.5-.5-1.5.5v-.838a2.256,2.256,0,0,1-.5.339v0a3.709,3.709,0,0,1-1.666.332l1.166.167-3.5.5-.5,1.5-.5,1.5-.5-1.5a12.988,12.988,0,0,1-.378,2.372l.378.629q-.386.578-.772.562a7.588,7.588,0,0,1-1.259,2.095l.2.065L-373-7698l-.5,1.5-.6.8.6.2.5-1.5.5,4,.5-3Zm-43.847-.072.257-1.791-.41-.137A10.1,10.1,0,0,1-415.347-7689.573Zm79.005-.425q.412-1.472-.157-2A4.73,4.73,0,0,1-336.342-7690Zm-9.659,0Zm-27.5,0v-2l-.3.6.3.9-.2.5ZM-379-7690Zm-1.5,0,.441-1.765-.441-.734q.415,1.54-.364,1.781l.364.219-.681.227Zm10.93-.209q.029-.138.07-.29l-1-2.5Zm-35.967-.165.021-.072Zm42.037-.125.645.064.356-1.065.3-.9-.3-.1Zm15.562.063.731-1.218q-.725-.608.03-1.216l-.323-.129v-1.5a4.507,4.507,0,0,1-.667,1.222l.667-.223Zm-20.561-.063h.113a5.61,5.61,0,0,0,.132-1.368A6.72,6.72,0,0,1-368.5-7690.5ZM-386.5-7690.5Zm-19,0q-.443-1.773-2.848-1.582Zm-6,0,.589-.295a.716.716,0,0,1-.589-.208Zm64.934-.2q.265-.151.566-.3a6.409,6.409,0,0,1-.79-.371Zm6.566-.3a2.119,2.119,0,0,1,1.2-1.06l-.2.061-1.667.833Zm-43.5,0a.532.532,0,0,1,0-.5h-1l-.5-3.5-1,1,1.5,3Zm-33.5,0,4.5-5.5v-2h-.857l.857,2-4.5,5.5-.131-.034Zm-.209-.052c-.063-.015-.125-.027-.184-.039C-417.333-7691.08-417.272-7691.067-417.209-7691.053Zm59.671-.014-1.962-3.433q.814-1.223,1.629.209l.87.29q.167.045.319.076-.152-.031-.319-.076l-3-2.142V-7695l-.716-.43L-362-7695l-1-.715v.33l1.685.907A6.4,6.4,0,0,0-364-7694l-2.5,1,6-1-.346,1.385.346.115a1.855,1.855,0,0,0-.021-1.551l1.022.55-.5-1.5,2.261,3.769A.627.627,0,0,1-357.538-7691.067Zm-59.994-.047a2.6,2.6,0,0,0-.381-.031A2.6,2.6,0,0,1-417.532-7691.114Zm75.9-.295a3.28,3.28,0,0,1-.865-1.092v0h-1v.5h-.5Zm-71.866-.091v-3l-.409,2.863Zm78,0a2.588,2.588,0,0,0-1.5-1.5l-2-1-2.5,1,2.5-1Zm-48,0a1.419,1.419,0,0,1,.5-.5l-.4-.6A6.728,6.728,0,0,1-383.5-7691.5Zm1.244-.05,1.755-3.948-2.5,3.5Zm37.527-.084L-344-7692h-1l-1-.4ZM-400.5-7692h.5l-.333-.333Zm64,0q-.543-.5-1.972-.148a3.1,3.1,0,0,1,.6-.056A5.323,5.323,0,0,1-336.5-7692Zm-7-.5q.652-1.961,0-2.475Zm-37,0,2.513-1.6h-.112A2.144,2.144,0,0,0-380.5-7692.5ZM-389.5-7692.5Zm-20-4.5-2,4.5,2.5-4.5.5,1.5v-.5l2.1.841a2.517,2.517,0,0,1-.6-.841l-1.5-.5.273-.819Zm22.045,4.09L-386-7694l-.5-.5ZM-349-7693h0Zm-17.5,0a4.024,4.024,0,0,0,.083-.815A4.024,4.024,0,0,1-366.5-7693Zm-4,0Zm-26.5,0,.715-.429-1.142.286Zm-23.495,0-2.005-.5.4-.6-.4-.4v1.5Zm20.995-.3v-.7l-.206.412Zm43.414-.556a2.692,2.692,0,0,1-.387-.031A2.623,2.623,0,0,0-356.086-7693.856Zm.023,0q1.408-.017.591-2.078Q-354.655-7693.872-356.064-7693.856Zm21.148-.1A4.592,4.592,0,0,0-338.5-7694a7.77,7.77,0,0,1,1.958-.286A3.769,3.769,0,0,1-334.916-7693.959ZM-388-7694l1.5-.5-.5-.5-1.2.4Zm-2.5,0h.219q-.053-.108-.105-.228Zm-17.5,0,1.441-.479-.44-.52-1.2.4Zm54.5-.475v-.025l-.008-.006Zm-68.335-.024,1.334-2v-2Zm74.335,0v-1.5l.395.1-1.4-.6,3-1-2.5.5.5-1.5.3-.9-.3-.1-.5,1.5-.5-1.5-.5.5-.5-.5a6.621,6.621,0,0,1-.356.762l.569,1.024L-349-7698l-.167.5,1.166,2.1v0Zm-30.5-.5.876-3.5h-.376Zm0,0a5.87,5.87,0,0,0-3.448-2.587Zm-6.5-2.5,2.5,2.5,1.5-.5-1.5.5ZM-406-7695h0Zm62.447-.014a1.038,1.038,0,0,0-.572-.143Zm-47.781-.057q.305-1.531-1.666-.931a4.494,4.494,0,0,1-1.222-.666l.223.666-.265.147,1.515.3.75-.45Zm1.835-.1V-7696l-.227.454Zm26.5-.218v-.33l-2.5-1.787.312.939Zm8.5-3.115,2,3Zm-7.5,2.5.748.249-1.247-.749a2.948,2.948,0,0,1,1.507-1.5H-361Q-363.5-7697-362-7696Zm-61.373.122,2.145-2.622h-.271Zm34.095-.178-.222-.443.208-.417a2.544,2.544,0,0,1-1.954-.833L-392-7698Zm20.779-.443v-4.941Q-369.346-7699.817-368.5-7696.5Zm18.25-.25.416-.417-.127-1.395q-.413.651-.825.622A2.631,2.631,0,0,1-350.25-7696.75ZM-367.5-7697Zm-38.5,0,.5-3,2.5,1,3-1,1,1,.5-.5-1.5-.5-3,1-2.5-1Zm-12.5,0h1v-2l-.3.6.3.9h-.75Zm24-.5h0Zm31-.5-2,.5,2-.5a3.4,3.4,0,0,0,0-2.548A6.236,6.236,0,0,1-363.5-7698Zm-21,.5,1.829-.365A11.962,11.962,0,0,0-384-7698Zm41.79-.07q.091-.45.21-.929h0a1.41,1.41,0,0,1-.5.5l-.625.125Zm-46.789-1.93.666,1.668.333-.667-.8-1.6Zm-18.556,1.667L-408-7698l-2-1ZM-345-7698l.5-.5-1.5-.5Zm-12.5,0v-2q-.5.5,0,2Zm13-.5.466-1.4a6.3,6.3,0,0,1-.605-.9l-.236,1.18A3.476,3.476,0,0,1-344.5-7698.5ZM-351.5-7698.5Zm-61,0v-.5l3.5-1-3.5,1a3.7,3.7,0,0,1-.291-1.133A4.782,4.782,0,0,0-412.5-7698.5Zm20.5-.5v0h-.006Zm17.5,0h.22q-.053-.108-.105-.229Zm-21,0-.5-2-.715,1.428.213.071.5-1.5Zm-12.5,0h0Zm.333-.111.868-.29-.2-.6A2.29,2.29,0,0,1-407.667-7699.111Zm59.166-.391-.5-1.5a6.91,6.91,0,0,1,2.046.007,5.848,5.848,0,0,0-3.133-.1Zm-1,0-2-2,.5-.5.556.557q.207-2.543-2.557-3.556l-1.5-.751a2.915,2.915,0,0,1,.5.751l3.5,2.5-1.5.5-.682-.455-1.82.455,3,.5-2,.5,3,.5-.333.666Zm-38.5-.5,3.334.445L-389-7701l-.2.6Zm32.5.021,0-.021-.03-.01Zm12-.021q.171-.07.328-.125a1.176,1.176,0,0,1-.328-.373Zm-73.5,0,.357-.214-.257-.086Zm59.5,0a4.581,4.581,0,0,1,.805-.249h-.056A1.02,1.02,0,0,0-357.5-7700Zm-16-.167V-7701l-.227.454Zm31.5-.146v-.186c-.088.059-.186.117-.294.175.034,0,.067,0,.1,0A1.288,1.288,0,0,1-342-7700.313Zm-33.295-.032.244-2.189q-.574-.4-.5-.8l-.355,1.064A3.036,3.036,0,0,1-375.3-7700.345Zm-39.2-2.155-.938,1.562.938-.563,2.5-3.5,1,1,.5-.5-1.5-.5Zm4.5,1.5.051-.118Zm0,0a2.911,2.911,0,0,0-2.318-.1,1.712,1.712,0,0,1,.774-.15A6.126,6.126,0,0,1-410-7701Zm.14-.314q.053-.113.105-.218Q-409.807-7701.426-409.86-7701.313Zm.106-.22q.677-1.357,1.354-1.493Q-409.077-7702.89-409.754-7701.533Zm-7.371-.092L-417-7702l-.749.25Zm11.868-.128h0Zm.053,0a2.2,2.2,0,0,0,2.185-1.207A2.2,2.2,0,0,1-405.2-7701.754Zm-.549-.024c-.078-.007-.158-.016-.24-.027C-405.91-7701.794-405.83-7701.785-405.752-7701.778Zm41.684-.154L-364-7702l-.449-.448A4.51,4.51,0,0,1-364.068-7701.932Zm-42.677-.008-.053-.012ZM-366-7702l.5-.5-2,.5Zm-7,0,2-2-2.572,1.714Zm-5,0,1-1q-.5,0-1,1a2.841,2.841,0,0,0-2.345-.083,2.018,2.018,0,0,1,.832-.15A6.13,6.13,0,0,1-378-7702Zm-29.03-.052-.013-.021Zm30.475-.75a.673.673,0,0,0-.444-.2A2.787,2.787,0,0,1-376.556-7702.8ZM-360-7703l.5-1.5Zm-2.5,0h1l-.374-.375-.625.208Zm-21,0a5.013,5.013,0,0,1-.28-.882L-384-7703Zm-6.5-1,1,1q-1.2-2.3-6-1Zm16,1a.643.643,0,0,0,.4-.16Zm-30,0-.4-.16A.643.643,0,0,0-404-7703Zm0,0a.72.72,0,0,0,.5-.249Zm30,0-.329-.109A.6.6,0,0,0-374-7703Zm-34.179-.038-.068,0Zm32.679-.458v0h0Zm25-.5,1.313.438-1.129-.806Zm-21,0-.517.207q1.111,0,.517-1.705l2.5-2.5Q-372-7706.9-371.5-7704Zm-34.7.119-.3-.119q.5-1.5,0-2Q-407.279-7704.088-406.2-7703.881Zm25.452-.076a.819.819,0,0,1-.085,0A.819.819,0,0,0-380.75-7703.958Zm.109-.008q.678-.1,1.356-1.423Q-379.963-7704.065-380.641-7703.966Zm-20.555-.436,2.117-.47q-.445-.048-.921-.127Zm52.7-.1-1-1.5-.167.334Zm-60,0a3.585,3.585,0,0,1-.144-.924l-.2.809Zm36-.5h-4.446A10.123,10.123,0,0,0-372.5-7705Zm-9.384.186h0ZM-356-7705a2.287,2.287,0,0,1,.668-.891l-1.811.6ZM-367-7705Zm-26,0,.5-.5-1.5-.5Zm15.936-.032L-379-7706A5.577,5.577,0,0,0-377.064-7705.032Zm-2.168-.464q.06-.122.121-.254Q-379.171-7705.618-379.231-7705.5Zm-11.269,0a7.564,7.564,0,0,1-.257-.956l-.137.823Zm40.5-1.5,1.331,1.331A4.534,4.534,0,0,1-348-7707a6.486,6.486,0,0,1-.789-.371l.29.871h-1l.365-1.1a1.238,1.238,0,0,1-.361-.4q.24.5-.5.992a5.543,5.543,0,0,1-1-.5v.1Zm-29.106,1.241q.053-.117.107-.242Q-379.053-7705.876-379.106-7705.759ZM-355-7706h0ZM-360-7706Zm-14.5,0h1l-.375-.375-.87.29Q-374.627-7706.043-374.5-7706Zm-32,0a1.019,1.019,0,0,0-.747-.249A5.444,5.444,0,0,1-406.5-7706Zm59.187-.684.033-.034a.631.631,0,0,1-.223-.774,1.426,1.426,0,0,1-.5.493A6.925,6.925,0,0,1-347.314-7706.686ZM-358.5-7707v-1l-.125-.125-.336,1.01Zm-26.5,0h6l1.177-.882L-378-7708l-1,1Zm25.916-.146q-.932-1.523-3.416-.855Zm-15.667-.1-.75-.75q-.143.072-.26.144Zm-12.749-.249a3.581,3.581,0,0,1-.144-.926l-.2.81Zm-3.006-.471.028-.021-.023-.009Zm5.246-.07a1.158,1.158,0,0,0-.239-.958Zm-.241-.96a1.017,1.017,0,0,0-.744-.249A5.39,5.39,0,0,1-385.5-7709Zm25.75-.25-.75-.75-.187.188ZM-398-7711v-.454l-4.986.453Q-401.391-7710.153-398-7711Zm22,69v0Zm-2,0v0Zm-3,0v0Zm-3,0v0Zm-13,0v0Zm-3,0v0Zm-3,0v0Zm-6,0v0Zm-2,0v0Zm-1,0v0Zm-1,0v0Zm-1,0v0Zm-3,0v0Zm-8,0v0Zm67.5.5.5-3.5.5,3.5Zm-22,0,.5-1.5.5,1.5Zm20-1,.4-.936a5.95,5.95,0,0,1-.9.436l-1.5-.5,1.668-1h-.668l-.5-2.5,1.412,2.353L-359-7645a1.727,1.727,0,0,1,.416.366L-358-7646v0l.5,2.5a5.542,5.542,0,0,1-.5,1v0q-.375.563-.75.563T-359.5-7642.5Zm30.5-.5v0Zm-1,0v0Zm-1,0v0Zm-3,0v0Zm-2,0v0Zm-1,0v0Zm-2,0v0Zm-5,0v0Zm-1,0v0Zm-9,0v0Zm-1,0v0Zm-1,0v0Zm-5,0v0Zm-1,0v0Zm-1,0v0Zm-6,0v0Zm-35,0v0Zm-3,0v0Zm-6,0v0Zm-3,0v0Zm-7,0v0Zm-3,0v0Zm-5,0v0Zm-1,0v0Zm105-1v0Zm-2,0v0Zm-1,0v0Zm-9,0v0Zm-2,0v0Zm-2,0v0Zm-1,0v0Zm-1,0v0Zm-3,0v0Zm-3,0v0Zm-3,0,1.5.5-1.5.5Zm-1,0v0Zm-1,0v0Zm-23.5.5.5-.833v0l1-1.667v0l1.5,3Zm-3.5-.5v0Zm-10,0v0Zm-11,0v0Zm-2,0v0Zm-7,0v0Zm-13,0v0Zm-2,0v0Zm-1,0v0Zm-3,0v0Zm-2,0v0Zm60.5.5.5-2.5.5,2.5Zm50.5-1.5v0Zm-4,0v0Zm-2,0v0Zm-1,0v0Zm-2,0v0Zm-6,0v0Zm-2,0v0Zm-4,0v0Zm-1,0v0Zm-10,0v0Zm-6,0v0Zm-1,0v0Zm-2,0v0Zm-6,0v0Zm-20,0v0Zm-14,0v0Zm-1,0v0Zm-9,0v0Zm-14,0v0Zm-4,0v0Zm-1,0v0Zm19.5.5.5-2.5.5,2.5Zm89.5-1.5v0Zm-5,0v0Zm-1,0v0Zm-1,0v0Zm-1,0v0Zm-6,0v0Zm-3,0v0Zm-1,0v0Zm-2,0v0Zm-1,0v0Zm-1,0v0Zm-9,0v0Zm-2,0v0Zm-4,0v0Zm-4,0v0Zm-2,0v0Zm-12,0v0Zm-2,0v0Zm-1,0v0Zm-5,0v0Zm-3,0v0Zm-12,0v0Zm-3,0v0Zm-2,0v0Zm-2,0v0Zm-1,0v0Zm-6.5.5.5-.7v0l2-2.8.5,4Zm-1.5-.5v0Zm-1,0v0Zm-4,0v0Zm-4,0v0Zm14.5.5.365-1.1q-.818-.626-.069-1.252a7.058,7.058,0,0,1-.3-.651l.5-1.5v-.667l-1,1.667v0l-.5-1.5.5-.836v0l1-1.666.5,1.5-.5.833v.667l.727,1.211A2.168,2.168,0,0,1-411-7649q.323.13.58.259L-410-7650l.5,1.5h-.5q1.123.75,0,1.5v0a7.078,7.078,0,0,1-.651-.295l-.038.044q.628.626-.31,1.252a6.477,6.477,0,0,1-.792-.372l.29.871Zm-5,0,.5-1.5.5,1.5Zm-3,0,.5-1.5-1,1-.5-.5,2-3,.5-4.5.5,5.5-1.5,1.5.5,1.5Zm82.5-1.5v0Zm-9,0v0Zm-15,0v0Zm-5,0v0Zm-1,0v0Zm-11,0v0Zm-4,0v0Zm-3,0v0Zm-4,0v0Zm-12,0v0Zm-3,0v0Zm-1,0v0Zm-1,0v0Zm-1,0v0Zm-1,0v0Zm-9,0v0Zm-1,0v0Zm-5,0v0Zm-1,0v0Zm-9,0v0Zm76.5.5.5-1.5.5,1.5Zm29.5-1.5v0Zm-4,0v0Zm-10,0v0Zm-24,0v0Zm-1,0v0Zm-1,0v0Zm-9,0v0Zm-14,0v0Zm-11,0v0Zm-3,0v0Zm-1,0v0Zm-3,0v0Zm-4,0v0Zm-4,0v0Zm-2,0v0Zm-4,0v0Zm-2,0v0Zm-2,0v0Zm-1,0v0Zm-4,0v0Zm53.5.5.5-1.5v-.5q-.5.749-1,.5l.5,1.5h-1l.5-1.5a1.415,1.415,0,0,1-.5-.5l1.5-3.5v0l.5,2.5a5.56,5.56,0,0,1-.5,1v.5l.5,1.5Zm-38,0,.5-2.5.5,2.5Zm88.5-1.5v0Zm-14,0v0Zm-1,0v0Zm-2,0v0Zm-16,0v0Zm-1,0v0Zm-15,0v0Zm-6,0v0Zm-1,0v0Zm-18,0v0Zm-3,0v0Zm-1,0v0Zm-3,0v0Zm-13,0v0Zm-3,0v0Zm-3,0v0Zm-2,0v0Zm-2,0v0Zm100.5.5.5-1.5.5,1.5Zm-84,0,.5-1.5.5,1.5Zm-2,0,.5-1.5.5,1.5Zm-4,0-1-3.5q2.1-.827,2.337.814L-420-7652l.5,2.5h-.767q-.088.462-.234,1Zm97.5-1.5v0Zm-6,0v0Zm-12,0v0Zm-3,0v0Zm-5,0v0Zm-10,0v0Zm-1,0v0Zm-1,0v0Zm-4,0v0Zm-2,0v0Zm-33,0v0Zm-5,0v0Zm-3,0v0Zm-2,0v0Zm-11,0v0Zm-4,0v0Zm11.5.5.5-2.5.5,2.5Zm90.5-1.5v0Zm-14,0v0Zm-6,0v0Zm-2,0v0Zm-3,0v0Zm-12,0v0Zm-1,0v0Zm-4,0v0Zm-6,0v0Zm-1,0v0Zm-7,0v0Zm-7,0v0Zm-3,0v0Zm-10,0v0Zm-10,0v0Zm-1,0v0Zm-13,0v0Zm-2,0v0Zm-4,0v0Zm64.5.5.5-2.5.5,2.5Zm40.5-1.5v0Zm-13,0v0Zm-8,0v0Zm-6,0v0Zm-7,0v0Zm-14,0v0Zm-6,0v0Zm-8,0v0Zm-3,0v0Zm-10,0v0Zm-8,0v0Zm-1,0v0Zm-1,0v0Zm-16,0v0Zm-4,0v0Zm-2,.5v0q-1.127-.75,0-1.5.324.13.58.26L-431-7654l.5,1.5h-.5q1.123.75,0,1.5A5.588,5.588,0,0,1-432-7651.5Zm54.5,0,.5-1.5.5,1.5Zm-34,0,.5-1.5.5,1.5Zm-18-.5.5-2,1,.333v0l.5.166.5-2.5,1,1.667v0l.5.832a3.267,3.267,0,0,1-.5.819v0a2.6,2.6,0,0,1-2.086.888A5.521,5.521,0,0,1-429.5-7652Zm96.5-1v0Zm-12,0v0Zm-2,0v0Zm-11,0v0Zm-5,0v0Zm-16,0v0Zm-5,0v0Zm-3,0v0Zm-1,0v0Zm-19,0v0Zm-1,0v0Zm-1,0v0Zm-1,0v0Zm-13,0v0Zm2.5.5.5-1.5v-1l1.287.43L-419-7656a2.756,2.756,0,0,1,1-.151v-.35a5.537,5.537,0,0,1-.5-1l.5-.5a1.413,1.413,0,0,1-.5-.5v-2.5q.266-.108.5-.181v-.82l1.5.5-.545.182q1,.113.545,1.818a6.11,6.11,0,0,1-.424.88l.424,2.121q-.749,1.124-1.5,0v.35q1.348.11.5,2.65h-1l-.187-.937L-420-7654l.5,1.5Zm-10,0,.364-1.813q-.681.835-1.363-.187v-1.5l2,.5a6.081,6.081,0,0,1-.424.88l.424,2.121ZM-330-7654v0Zm-21,0v0Zm-4,0v0Zm-15,0,1.5.5-1.5.5Zm-11,0v0Zm-7,0v0Zm-6,0v0Zm-14,0v0Zm-4,0v0Zm-5,0v0Zm-4,0v0Zm-1,0v0Zm-2,0v0Zm-1,0v0Zm-9,0v0Zm104.5.5.5-1.5v0l.5,1.5Zm3.5-1.5v0Zm-8,0v0Zm-10,0v0Zm-3,0v0Zm-17,0v0Zm-5,0v0Zm-1,0v0Zm-14,0v0Zm-4,0v0Zm-6,0v0Zm-12,0v0Zm-11,0v0Zm-5,0v0Zm-2,0v0Zm-1,0a1.413,1.413,0,0,1-.5-.5l.219-.658A.6.6,0,0,1-426-7656v0a1.42,1.42,0,0,1-.5-.5,3.084,3.084,0,0,0,.707-.458q-.6-.249-1.207.958l-1.5-.5,1.5-.9v0l1-.6q.207.083.387.166a2.291,2.291,0,0,0-.889-.666l.5-.5q-.5.251-1-.5v0a5.544,5.544,0,0,1-.5-1l.5-2.5v-.119a3.854,3.854,0,0,1-.122-3.58,6.446,6.446,0,0,1-.378-.8l.437-3.938-.437-3.063.5-.5a1.41,1.41,0,0,1-.5-.5l.5-3.5.6,1,.4-2,.5,2.5h-.6l.6,1a5.763,5.763,0,0,1-.473.958l.473,8.044h-1l1,1a1.42,1.42,0,0,1-.5.5l.5,1.5h-.667l.667,2h-1a3.631,3.631,0,0,1-.5-.618v.119l1.5,3.5.5-.5.375,1.875L-424-7660l.5,3.5q-.752,1.874-1.5,1.5v0Zm-1.333-10,.334-1a.6.6,0,0,1-.72-.157Zm-3.166,10.5,1.5-1.5.5,2Zm-4.5-.5v0Zm108-1v0Zm-8,0v0Zm-6,0v0Zm-4,0v0Zm-7,0v0Zm-37,0v0Zm-2,0v0Zm-16,0v0Zm-2,0v0Zm-9,0v0Zm-6,0v0Zm-6,0v0Zm21.5.5.5-1.5.5,1.5Zm-13,0,.5-1.5v0l.5,1.5Zm97.5-1.5v0Zm-3,0v0Zm-6,0v0Zm-33,.5a5.555,5.555,0,0,1-1,.5q-1.126-.749,0-1.5v0a5.55,5.55,0,0,1,1-.5q1.127.749,0,1.5v0Zm-4-.5v0Zm-5,0v0Zm-34,0v0Zm-15,0v0Zm-6,0v0Zm-3,0,1.5.5-1.5.5Zm-2,0v0Zm79.5.5.5-1.5.5,1.5Zm-65,0,.5-1.5.5,1.5Zm-11,0,.5-1.5v0l.5,1.5ZM-323-7658v0Zm-2,0v0Zm-1,0v0Zm-6,0v0Zm-1,0v0Zm-28,0v0Zm-18,0v0Zm-2,0v0Zm-3,0v0Zm-1,0v0Zm-3,0v0Zm-8,0v0Zm-5,0v0Zm-6,0v0Zm-14,0v0Zm-1,0v0Zm-1,0v0Zm-5,0v0Zm-1,0v0Zm-2,0v0Zm106-1v0Zm-7,0v0Zm-1,0v0Zm-17,0v0Zm-15,0v0Zm-7,0v0Zm-3,0v0Zm-4,0v0Zm-3,0v0Zm-1,0v0Zm-1,0v0Zm-1,0v0Zm-11,0v0Zm-4,0v0Zm-10,0v0Zm-10,0v0Zm-1,0v0Zm-1,0v0Zm-1,0v0Zm-4,0v0Zm-1,0v0Zm-1,0v0Zm-4,0v0Zm13.5.5.219-.659q-.61.573-1.22-.342l1.5-2.5.5,1.5a6.329,6.329,0,0,1-.391.826l.391,1.175Zm94.5-1.5v0Zm-8,0v0Zm-17,0v0Zm-22,0v0Zm-3,0v0Zm-5,0v0Zm-3,0v0Zm-8,0v0Zm-5,0v0Zm-6,0v0Zm-2,0v0Zm-17,0v0Zm-2,0v0Zm-6,0q-1.5-1,1-2,1.124.749,0,1.5v0a5.545,5.545,0,0,1-1,.5l1.5.5-1.5.5Zm-1,0v0Zm-2,0v0Zm106-1v0Zm-8,0v0Zm-5,0v0Zm-7,0v0Zm-2,0v0Zm-2,0v0Zm-1,0v0Zm-25,0,1.5.5-1.5.5Zm-7,0v0Zm-3,0v0Zm-4,0v0Zm-1,0v0Zm-1,0v0Zm-4,0v0Zm-1,0v0Zm-1,0v0Zm-6,0v0Zm-17,0v0Zm-3,0v0Zm-1,0v0Zm-5,0v0Zm-2,0v0Zm98-1v0Zm-2,0v0Zm-3,0v0Zm-4,0v0Zm-4,0v0Zm-35,0v0Zm-3,0v0Zm-1,0v0Zm-2,0,1.5.5-1.5.5Zm-1,0v0Zm-5,0,2.5.5-2.5.5Zm-7,0v0Zm-2,0v0Zm-18,0v0Zm-3,0v0Zm-1,0v0Zm-1,0v0Zm-6,0v0Zm-1,0v0Zm56.5.5.5-1.5v-.5q-.749,1.125-1.5,0l.5-1.5v0l1-3,.5,3.5a5.536,5.536,0,0,1-.5,1v.5l.5,1.5Zm-44,0,.5-4.5.5,4.5Zm85.5-1.5v0Zm-1,0v0Zm-1,0v0Zm-1,0v0Zm-1,0v0Zm-1,0v0Zm-7,0v0Zm-6,0v0Zm-21,0v0Zm-3,0v0Zm-1,0v0Zm-5,0v0Zm-1,0v0Zm-17,0v0Zm-1,0v0Zm-17,0v0l2.5.5-2.5.5Zm-2,0v0Zm-1,0v0Zm-2,0v0Zm-1,0v0Zm-3,0v0Zm-1,0v0Zm-3,0v0Zm63.5.5.5-1.5.5,1.5Zm41.5-1.5v0Zm-8,0v0Zm-1,0v0Zm-5,0v0Zm-4,0v0Zm-2,0v0Zm-27,0v0Zm-8,0v0Zm-1,0v0Zm-38,0v0Zm-1,0v0Zm-2,0v0Zm-4,0v0Zm-2,0v0Zm-3,0v0Zm110-1v0Zm-12,0v0Zm-1,0v0Zm-3,0v0Zm-2,0v0Zm-1,0v0Zm-3,0v0Zm-6,0v0Zm-2,0v0Zm-1,0v0Zm-25,0v0Zm-1,0v0Zm-1,0v0Zm-47,0v0Zm-5,0v0Zm11.5.5.5-1.5v0l.5,1.5Zm96.5-1.5v0Zm-1,0v0Zm-1,0v0Zm-10,0v0Zm-4,0v0Zm-2,0v0Zm-2,0v0Zm-4,0v0Zm-4,0v0Zm-1,0v0Zm-69,0v0Zm-2,0v0Zm-3,0v0Zm-6,0v0Zm107-1v0Zm-14,0v0Zm-6,0v0Zm-3,0v0Zm-3,0v0Zm-1,0v0Zm-23,0v0Zm-41,0v0Zm-2,0v0Zm-2,0v0Zm-2,0v0Zm-4,0v0Zm99.5.5.5-1.5v0l.5,1.5Zm2.5-1.5v0Zm-14,0v0Zm-9,0v0Zm-4,0v0Zm-70,0v0Zm-1,0v0Zm-4,0v0Zm-5,0v0Zm-1,0v0Zm13.5.5.5-3.5.5,3.5Zm-1,0,.5-2.5v0l.5,2.5Zm82.5-1.5v0Zm-8,0v0Zm-6,0v0Zm-23,0v0Zm-46,0v0Zm-1,0v0Zm-1,0v0Zm-5,0v0Zm-3,0v0Zm105-1v0Zm-1,0v0Zm-19,0v0Zm-4,0v0Zm-3,0v0Zm-69,0v0Zm-1,0v0Zm98-1v0Zm-97,0v0Zm-8,0v0Zm-1,0v0Zm84.5.5.5-1.5.5,1.5Zm22.5-1.5v0Zm-1,0v0Zm-3,0v0Zm-93,0v0Zm-2,0v0Zm-4,0v0Zm-3,0v0Zm106-1v0Zm-2,0v0Zm-27,0v0Zm-69,0v0Zm-5,0v0Zm-1,0v0Zm-1,0v0Zm-1,0v0Zm104-1v0Zm-12,0v0Zm-14,0v0Zm-1,0v0Zm-66,0v0Zm-1,0v0Zm-1,0v0Zm-1,0v0Zm-1,0v0Zm-1,0v0Zm-3,0v0Zm-1,0v0Zm-3,0v0Zm109-1v0Zm-2,0v0Zm-2,0v0Zm-2,0v0Zm-25,0v0Zm-67,0v0Zm-2,0v0Zm-1,0v0Zm-5,0v0Zm-1,0v0Zm-2,0v0Zm108-1v0Zm-3,0v0Zm-3,0v0Zm-99,0v0Zm-1,0v0Zm105-1v0Zm-100,0v0Zm-5,0v0Zm-1,0v0Zm100.5.5.5-2.5v0l.5,2.5Zm7.5-1.5v0Zm-2,0v0Zm-1,0v0Zm-2,0v0Zm-94,0v0Zm-3,0v0Zm-4,0v0Zm-3,0v0Zm109-1v0Zm-5,0v0Zm-94,0v0Zm-1,0v0Zm-1,0v0Zm-7,0v0Zm103-1v0Zm-1,0v0Zm-94,0v0Zm-1,0v0Zm-1,0v0Zm-7,0v0Zm-1,0v0Zm5.5.5.5-3.5v0l.5,3.5ZM-323-7681v0Zm-5,0v0Zm-2,0v0Zm-93,0v0Zm-1,0v0Zm-1,0v0Zm-7,0v0Zm5.5.5.5-2.5.5,2.5ZM-326-7682v0Zm-4,0v0Zm-93,0v0Zm-1,0v0Zm-9,0v0Zm7.5.5.5-1.5.5,1.5Zm95.5-1.5v0Zm-93,0v0Zm-1,0v0Zm-4,0v0Zm-1,0v0Zm-3,0v0Zm102-1v0Zm-93,0v0Zm-1,0v0Zm-1,0v0Zm-1-4,.407.679a3.107,3.107,0,0,1,.371-1.846,1.5,1.5,0,0,1-.132-.127A6.962,6.962,0,0,1-426-7689v0q-1.127-.749,0-1.5v0a5.581,5.581,0,0,1,1-.5v0a1.941,1.941,0,0,1,.353.293q.28-.146.646-.293,1.081.721.088,1.44l.413,2.061a5.544,5.544,0,0,1-.5,1v0q-.381.571-.762.562l.262.438-.5.833v0l-1,1.667Zm-2,4v0Zm99-1v0Zm-2,0v0Zm-92,0v0Zm-1,0v0Zm-3,0v0Zm-1,0v0Zm-5,0v0Zm-1,0v0Zm109-1v0Zm-3,0v0Zm-3,0v0Zm-93,0v0Zm-4,0v0Zm-5,0v0Zm5.5.5.5-1.5v0l.5,1.5Zm95.5-1.5v0Zm7-1v0Zm-7,0v0Zm-13,0v0Zm-84,0v0Zm106-1v0Zm-2,0v0Zm-2,0v0Zm-5,0v0Zm-95,0v0Zm-1,0v0Zm-6,0v0Zm111-1v0Zm-3,0v0Zm-7,0v0Zm-94,0v0Zm-5,0v0Zm-1,0v0Zm110-1v0Zm-2,0v0Zm-1,0v0Zm-1,0v0Zm-6,0v0Zm-94,0v0Zm-5,0v0Zm104-1v0Zm-3,0v0Zm-2,0v0Zm-91,0v0Zm-2,0v0Zm-1,0v0Zm-3,0v0Zm107-1v0Zm-10,0v0Zm-91,0v0Zm-1,0v0Zm-1,0v0Zm-1,0v0Zm96-1v0Zm-94,0v0Zm-1,0v0Zm-2,0v0Zm-3,0v0Zm105-1v0Zm-4,0v0Zm-95,0v0Zm-3,0v0Zm66.684.521a1.076,1.076,0,0,1,.794.427ZM-335-7696v0Zm-1,0v0Zm-89,0v0Zm-3,0v0Zm-1,0v0Zm102-1v0Zm-4,0v0Zm-93,0v0Zm-2,0v0Zm-2,0v0Zm-1,0v0Zm105-1v0Zm-9,0v0Zm-92,0v0Zm-3,0v0Zm-1,0v0Zm104-1v0Zm-14,0v0Zm-10,0v0Zm-75,0v0Zm-4,0v0Zm-1,0v0Zm102-1v0Zm-1,0v0Zm-1,0v0Zm-9,0v0Zm-3,0v0Zm-82,0v0Zm-1,0v0Zm-5,0v0Zm92-1v0Zm-3,0v0Zm-1,0v0Zm-81,0v0Zm-2,0v0Zm-3,0v0Zm-2,0v0Zm-5,0v0Zm110-1v0Zm-10,0v0Zm-7,0v0Zm-80,0v0Zm-12,0v0Zm102-1v0Zm-1,0v0Zm-1,0v0Zm-1,0v0Zm-2,0v0Zm-5,0v0Zm-83,0v0Zm-4,0v0Zm103-1v0Zm-1,0v0Zm-5,0v0Zm-2,0v0Zm-1,0v0Zm-1,0v0Zm-2,0v0Zm-2,0v0Zm-2,0v0Zm-3,0v0Zm-79,0v0Zm77.345-.039.156.039c0,.025,0,.05,0,.076ZM-326-7705v0Zm-3,0v0Zm-2,0v0Zm-3,0v0Zm-1,0v0Zm-1,0v0Zm-2,0v0Zm-1,0v0Zm-79,0v0Zm-8,0v0Zm-3,0v0Zm-2,0v0Zm83.5.5.5-.5,1.345.96Zm23.5-1.5v0Zm-5,0v0Zm-2,0v0Zm-3,0v0Zm-1,0v0Zm-84,0v0Zm-8,0v0Zm104-1v0Zm-1,0v0Zm-6,0v0Zm-1,0v0Zm-3,0v0Zm-10,0v0Zm-72,0v0Zm93-1v0Zm-1,0v0Zm-11,0v0Zm-9,0v0Zm-1,0v0Zm-75,0v0Zm-2,0v0Zm-12,0v0Zm96-1v0Zm-2,0v0Zm-6,0v0Zm-6,0v0Zm-62,0v0Zm-6,0v0Zm-3,0v0Zm86-1v0Zm-6,0v0Zm-3,0v0Zm-2,0v0Zm-1,0v0Zm-1,0v0Zm-2,0v0Zm-18,0v0Zm-3,0v0Zm-41,0v0Zm-18,0v0Zm95-1v0Zm-1,0v0Zm-1,0v0Zm-4,0v0Zm-3,0v0Zm-2,0v0Zm-2,0v0Zm-2,0v0Zm-2,0v0Zm-3,0v0Zm-10,0v0Zm-4,0v0Zm-1,0v0Zm-3,0v0Zm-33,0v0Zm-2,0v0Zm-2,0v0Zm-2,0v0Zm-1,0v0Zm-5,0v0Zm-8,0v0Zm85-1v0Zm-4,0v0Zm-6,0v0Zm-2,0v0Zm-5,0v0Zm-2,0v0Zm-9,0v0Zm-1,0v0Zm-2,0v0Zm-1,0v0Zm-32,0v0Zm-1,0v0Zm-4,0v0Zm-3,0v0Zm-10,0v0Zm88-1v0Zm-3,0v0Zm-7,0v0Zm-3,0v0Zm-2,0v0Zm-8,0v0Zm-1,0v0Zm-2,0v0Zm-1,0v0Zm-10,0v0Zm-4,0v0Zm-4,0v0Zm-25,0v0Zm-2,0v0Zm-12,0v0Zm-2,0v0Zm86-1v0Zm-10,0v0Zm-1,0v0Zm-4,0v0Zm-31,0v0Zm-2,0v0Zm-1,0v0Zm-4,0v0Zm-13,0v0Zm-1,0v0Zm-2,0v0Zm-13,0v0Zm-2,0v0Zm-2,0v0Zm75-1v0Zm-4,0v0Zm-33,0v0Zm-3,0v0Zm-1,0v0Zm-11,0v0Zm-8,0v0Zm-1,0v0Zm-8,0v0Zm-6,0v0Z" transform="translate(551.14 7734.99)"/></g><g class="e" transform="matrix(1, 0, 0, 1, 399.36, 8512.01)"><path class="a" d="M32,1V1ZM29,1V1ZM19,1V1ZM13,1V1ZM36,2V2ZM31,2V2ZM20,2V2ZM13,2V2ZM10,2V2ZM2,2V2ZM36,3V3ZM35,3V3ZM29,3V3ZM22,3l-.5,3,.5.2V7q-2.4.1-1,1v.5A5.569,5.569,0,0,0,20,8q-1.124.749,0,1.5h-.5L20,11l.42-1.256c.17.085.364.172.581.257q1.124-.749,0-1.5V8l2.2-1.32L24,7l-.5.5L24,8l1-.4V8l-.5,1.5.6,1h-.6L25,13H19.5L21,12v0l1.5.5L22,12l-.5-.5L22,10l-4.5,3.5.5.5,1.5-1L19.081,14.4,17.5,14V10.5l.5.5.5-2-2,.5,1,1h-1v5L16,17l1.173-.391L17,18l1.723-2.415L18,18a2.775,2.775,0,0,0,1,.151v0a.9.9,0,0,0,.494-.172L19.5,18l2-.5-1-2.5L22,18v0l3-1v1l2.5-.5L25,17l1.5-.5L25,15h0l1,1,1.365-2.73A2.413,2.413,0,0,0,27.5,14.5l-1,2.5H28v0l.5-.5.5.5v0l2.5-2.5L31,14l1-1v0l.5-.5-3-.5L29,10l-4,3,.4-2,.6,1,3-2,1,2,1-2v0l1,2,.5-1.5L32,9.25,31.5,8a4.408,4.408,0,0,0-.5-.072,2.749,2.749,0,0,0-1.663.345A1.974,1.974,0,0,0,29,8c-.19.078-.362.153-.519.229L29.5,7.5l-1.177-.707L29.5,6.5a5.394,5.394,0,0,0-.5-1q-.5-.749-1-.5V5a1.41,1.41,0,0,0-.5.5v.8L27,6a6.875,6.875,0,0,0-.674.308L26,5l.5-.5L26,4q-.9,1.7-3.5,1L22,3V3Zm0,3.2,1.09.438L22,7Zm3,1.4.465-.184A1.255,1.255,0,0,0,26,8V8l1,.333v.418L25.5,9.5l.5.5h-.5L25,8Zm2,.734.5.168-.5.25Zm.581.539Q27.152,9.435,28,10H26ZM26.52,12q.622-.5,2.478,0v.416Zm-.021.018V14Q25.912,12.531,26.5,12.022Zm1.77.786.73-.182V13A3.455,3.455,0,0,0,28.269,12.808ZM27.5,13h0s0,0-.006,0Zm-8,2.5.041-.042-.029.077ZM19,3V3ZM11,3V3ZM9,3V3ZM34,4V4Zm-5.5-.5L31,4.573v0L32,5q1.5-1-1-2ZM21,4V4ZM20,4V4ZM19,4V4ZM18,4a1.414,1.414,0,0,0-.5.5A1.413,1.413,0,0,0,17,4a5.418,5.418,0,0,0-1,.5q-1.127.749,0,1.5a2.848,2.848,0,0,0,1.5-1,.931.931,0,0,0,.149.209L15.5,6.5,15,9l1.429-2.143L16,9q1.1-2,4.5-1L20,6l-.438.221a.747.747,0,0,0-.25-.471A1,1,0,0,0,19.5,5.5L20,6l.5-2-1.644.408A6.1,6.1,0,0,0,18,4V4ZM16.636,6.546,17,6l1.5.751L18,7ZM16,4V4ZM9,4V4ZM1,4V4ZM29,5V5ZM27,5V5ZM21,5V5Zm-5-.5v0ZM10,5V5ZM4,5V5Zm25.5-.5L30,8l.5-3.5Zm1,1,.5.833v0L32,8V8l.5-3ZM29,5.5v0ZM27,6V6ZM21,6V6ZM9,6V6ZM7,6V6ZM21,7V7ZM15,7V7ZM14,7V7ZM8,7V7ZM7,7V7ZM4,7V7ZM3,7V7Zm28,.927v0ZM23,8V8ZM15,8V8ZM14,8V8ZM4,8V8ZM3,8V8Zm19,2,1-.6v0l1.5-.9-3-.5ZM19,9V9ZM17,9l1.5-.5L17,8ZM14,9V9ZM13,9V9ZM9,9a5.543,5.543,0,0,0-1,.5Q6.874,10.25,8,11v1L7,11l-.5.5L7,12v0l1,1v0l1,1v0l.5-.5L9,13l.486-1.46A2.482,2.482,0,0,0,10,13v1l-.5.5.5.5v0l2,2,.5-.5L12,16l-1-1-1-1V13l.354-1.425a3.577,3.577,0,0,0,.143.924l.5.5v0l1,1,.5-3a5.124,5.124,0,0,0-.881-.279L12.5,10.5,11,10v0a3.9,3.9,0,0,0-.678.324L9,9l2.5-.5L9,8ZM8,12V11l1-1v0l1.2.4a1.474,1.474,0,0,0-.713,1.1H8.5L9,13ZM8,9V9ZM4,9V9ZM3,9q-1.124.749,0,1.5v0A5.5,5.5,0,0,0,4,11v0q1.124-.749,0-1.5A5.636,5.636,0,0,0,3,9V9ZM2,9V9Zm31,1v0ZM32,9.25v0ZM24,10v0ZM16,9Zm0,0v.831a2.132,2.132,0,0,0-1-.077,1,1,0,0,0-.769.745H13.5L14,12v1l-.6,1.4.1-.4-2,.5,1.3,1.3-.3.7L14,16v0l1,1v0l1,1v0l.5-.5L15,16l-.5-.5L14,13V12l.143-.428A9.975,9.975,0,0,0,14.5,13.5l.5.833v0L16,16l.5-6a5.065,5.065,0,0,0-.5-.168ZM15,9V9Zm-1,1v0Zm-2,0v0Zm-2,0v0ZM8,9.5v0ZM6,10a5.543,5.543,0,0,0-1,.5q-1.124.752,0,1.5v0l1-.6v0l1.5-.9L6,10l1.5-.5L6,9ZM5,10v0ZM4,9.5v0ZM0,10v0Zm18.5-.5L19,12l.5-2.5Zm-6,0L13,13v0l.5-3.5ZM5,10.5v0ZM0,11v0Zm23.5-.5L24,12l.5-1.5Zm-1,0L23,12v1l1.5-.5L23,12l.5-1.5ZM31,12v0Zm-9,0v0ZM3,12v0Zm14.5-.5L18,13l.5-1.5ZM35,13v0Zm-2,0v0ZM6,13v0ZM4,13v0ZM2,13v0Zm34,1v0Zm-2,0v0Zm-1,0v0ZM7,14v0Zm26,1v0Zm-1,0v0ZM11,15v0ZM8,15v0Zm23,1v0ZM15,16v0Zm-3,0v0ZM9,16v0Zm25,1v0Zm-2,0v0Zm-2,0v0ZM10,17v0ZM9,17v0ZM5,17v0Zm27,1v0ZM14,18v0Zm-3,0v0ZM2,18v0Zm31,1v0Zm-5,0v0Zm-4,0v0Zm-1,0v0ZM11,19v0ZM2,19v0Zm31,1v0Zm-7,0v0Zm-1,0v0Zm-6,0v0Zm-1,0v0Zm-1,0v0Zm-2,0v0ZM8,20v0ZM6,20v0ZM4,20v0Z" transform="translate(267.14 93.99) rotate(180)"/></g><g class="d" transform="matrix(1, 0, 0, 1, 399.36, 8512.01)"><path class="c" d="M0,114.842l.781-3.122H0V88.3H10.148L0,87.521l28.883-.781,1.561-1.561L32,86.74H67.034L65.459,63.125l2.168-2.185v0l4.345-4.378V51.953c-2.182,1.406-4.345-.859-6.513-6.329l2.168-6.406L74.145,50c-.713,1.094-1.44,1.875-2.173,1.953v4.609l2.173,6.563L69.79,67.343l-1.483,19.4H266.182q1.562-3.121,3.123,0h60.886l3.122-1.561,1.561,1.561h81.182q1.562-3.121,7.807-1.561l1.562,1.561h74.156v7.025l-.781.781H411.374l-2.151,1.076a5.583,5.583,0,0,1,.59.486l1.561-1.562h88.207q2.186,5.775-7.025,3.122-1.094-2.654-6.246-1.561l-1.561,1.561h-9.367q-1.561-3.124-3.122,0H394.2l-1.562,1.562H370q2.03,8.586-3.9,10.928-6.558,2.03-3.9-5.464l-1.561-3.9q-4.058,1.25-5.464-1.561h-7.807l-1.561,1.561q-7.337-2.029-9.368,1.561l-1.561-1.561H319.262l-1.561,1.561h-9.368l-1.561,1.562q-1.559-3.121-3.122,0l-7.8,1.561q-1.562-3.121-3.124,0L281.8,107.036l-1.562-1.562H266.182l-1.562,1.562H242.765l-3.122,1.562-1.562-1.562H211.541l-1.562,1.562h-48.4l-3.122,1.561L156.9,108.6H145.971l-3.122,1.561-1.561-1.561H128.8l-1.561,1.561H83.523l-1.561,1.562H35.127l-1.562,1.561H16.393l-1.561,1.562Zm56.984-4.684q.78,0,1.561-1.561Zm0,0L55.422,108.6Q56.2,110.158,56.984,110.158ZM117.87,108.6h0Zm-26.541,0,3.122-1.04-1.561-.521Zm-78.06,0q.782,0,1.562-1.562Zm0,0-1.561-1.562Q12.488,108.6,13.269,108.6Zm187.345-1.562q.78,0,1.561-1.562Zm0,0-1.561-1.562Q199.831,107.036,200.613,107.036ZM52.3,105.474l.585-.585-5.269.585-.151-.05Q49.127,106.268,52.3,105.474Zm177.195-.78,27.321-.78h-26.54Zm-188.9,0,3.276-.468-.936-.312Zm29.692-.072a20.175,20.175,0,0,1-3.936-.708l-.144-.072A6.8,6.8,0,0,0,70.285,104.621ZM58.208,104.3a14.307,14.307,0,0,0,3.244-.36Zm3.5-.426a8.491,8.491,0,0,0,2.445-1.057l-.926-.464Zm60.845-1.52c-.157-.04-.312-.078-.465-.114C122.241,102.273,122.4,102.312,122.553,102.352Zm-.77-.185-.022,0Zm-3.686-.475h0Zm144.627-.516h0Zm-2.562-.331-.083-.02Zm66.908-3.7,1.561.52,1.561-1.561Zm-109.283.52-1.561-1.561Q217.005,97.668,217.786,97.669Zm0,0q.78,0,1.562-1.561l5.884-.453a14.471,14.471,0,0,0-2.687-.281Q219.082,95.375,217.786,97.669Zm101.477-1.561-.1.1a3.628,3.628,0,0,1,.4-.158C319.463,96.066,319.363,96.087,319.262,96.108Zm-77.278-.391.78.391,1.561-1.562Zm79.65.076a12.748,12.748,0,0,1,2.187.288,5.5,5.5,0,0,0-1.9-.293Q321.78,95.789,321.635,95.793ZM227.8,95.458l11.839-.911H228.714Zm53.211-2.471,4.683,1.561q9.369,1.559,14.051-1.561l-17.173-1.562Zm119.431,1.561a16.407,16.407,0,0,1,6.121-.059,5.938,5.938,0,0,0-2.478-.461A15.277,15.277,0,0,0,400.445,94.547ZM265.4,92.205l-13.271-.781ZM246.7,91.8a13,13,0,0,1-2.372-.373l-.46-.23A4.61,4.61,0,0,0,246.7,91.8Zm-7.835-.764.781.391,2.342-1.171-.78-.391Zm11.709-1.171h0ZM145.971,88.3l1.561,1.561h0L145.971,88.3h0ZM82.482,89.6l1.04.26L85.085,88.3h0ZM76.318,69.688v0Zm-13.033,0v0Zm0-4.453v0Zm0-4.219v0Zm13.033-9.062v0Zm-8.691,0v0Zm-8.7,0v0Zm-8.691,0v0Zm-4.361,0v0Zm-17.378,0v0Zm34.785-4.063v0Zm-13.046,0v0Zm-8.7,0v0ZM58.93,43.438v0Zm-26.079,0v0Zm23.917-6.563L58.012,33.2a27.851,27.851,0,0,1-3.428,1.562c-3.266-2.265-3.266-4.218.01-6.406l-4.355,2.188-4.361-1.719-2.173-.469c1.714,4.766.986,7.188-2.164,7.188a12.79,12.79,0,0,1-4.345-.782L35.834,33.2a27.634,27.634,0,0,1-2.983,1.562c-2.788-1.64-3.189-3.828-1.216-5.468l-.967-.938,15.21-15.234,2.192,2.11,2.168-2.11,19.551,2.11c-10.157,0-18.1,2.11-23.863,6.563,1.436,2.734,2.876,4.3,4.312,4.3-4.361-3.046-2.9-5.859,4.345-8.75L69.79,19.688l-9.458,2.891c6.182.469,10.058-1.094,11.641-5.234v0l8.7,3.672v0L87.2,23.75,76.318,28.516l-4.346,2.031L69.267,29.3a10.817,10.817,0,0,1-1.64,3.2q-2.168,3.516-4.342,2.344V37.5l2.174,3.594c-1.1,1.953-2.174,2.656-3.262,2.656C60.38,43.75,58.578,41.328,56.768,36.875Zm3.071-5L63.285,37.5V34.843A6.4,6.4,0,0,1,61.113,32.5V30.547C60.845,30.781,60.414,31.25,59.838,31.875Zm1.274-3.516V26.875l-2.182-.781A5.355,5.355,0,0,1,61.113,28.359ZM37.2,26.094a5.175,5.175,0,0,1,2.163,2.265l2.183-2.265L39.36,23.75Zm13.042,0a2.692,2.692,0,0,0,1.45-.469Zm-8.7,0,3.907-3.984A17.729,17.729,0,0,0,41.542,26.094Zm30.43,13.125v0Zm-21.733,0-6.533-2.344,2.173-2.265v0l4.361-4.063,6.529,10.547Zm47.817-4.453v0Zm-56.514.782v0ZM37.2,34.765v0Zm-8.7,0v0l6.514,2.11L28.5,39.218Zm78.247-4.218v0ZM92.6,33.516a2.914,2.914,0,0,1-2.573,1.249c-1.133,0-2.281-.781-3.442-2.03l-5.918,2.03V30.547l5.517,1.641a9.9,9.9,0,0,0-1.172-1.641L78.5,28.359l6.513-2.265,2.613.86,1.733-5.468v0l2.183,6.874,2.163-6.874v0l2.174,6.874,2.177-2.265v0l4.361-4.609,2.168,2.265L93.705,34.765Zm-20.63-2.969L78.5,32.5l-6.529,2.265ZM67.627,32.5v0Zm8.691-3.984v0Zm-30.44.312v0ZM111.1,17.344v0Zm-13.042,0v0Zm-13.042,0v0Zm8.691-4.219v0Zm-17.387,0,6.518,2.11-6.518,2.11ZM98.056,8.516v0Zm-13.042,0v0Zm-21.729,0,6.5,2.5-6.5,2.109Zm-21.743,0v0Zm-8.691,0v0ZM89.36,4.3v0Zm-4.346,0v0Zm-13.042,0v0Zm-39.121,0v0ZM76.318,0V0ZM32.851,0V0Z" transform="translate(3.64 2)"/></g></g></svg>