<svg width="15396" height="8276" viewBox="0 0 15396 8276" fill="none" xmlns="http://www.w3.org/2000/svg">
<g id="Group">
<g id="train">
<g id="Group_2">
<path id="Vector" d="M6745 8003.5H7335C7389.37 8003.5 7441.51 8025.1 7479.96 8063.54C7518.4 8101.99 7540 8154.13 7540 8208.5V8230.39C7540 8242.32 7535.26 8253.77 7526.82 8262.21C7518.38 8270.65 7506.93 8275.39 7495 8275.39H6585C6573.07 8275.39 6561.62 8270.65 6553.18 8262.21C6544.74 8253.77 6540 8242.32 6540 8230.39V8208.5C6540 8154.13 6561.6 8101.99 6600.04 8063.54C6638.49 8025.1 6690.63 8003.5 6745 8003.5V8003.5Z" fill="white"/>
<path id="Vector_2" d="M5520 8003.5H6380C6398.57 8003.5 6416.37 8010.87 6429.5 8024C6442.63 8037.13 6450 8054.93 6450 8073.5V8260.39C6450 8264.37 6448.42 8268.18 6445.61 8270.99C6442.79 8273.81 6438.98 8275.39 6435 8275.39H5465C5461.02 8275.39 5457.21 8273.81 5454.39 8270.99C5451.58 8268.18 5450 8264.37 5450 8260.39V8073.5C5450 8054.93 5457.37 8037.13 5470.5 8024C5483.63 8010.87 5501.43 8003.5 5520 8003.5V8003.5Z" fill="white"/>
<path id="Vector_3" d="M4430 8003.5H5290C5308.57 8003.5 5326.37 8010.87 5339.5 8024C5352.63 8037.13 5360 8054.93 5360 8073.5V8260.39C5360 8264.37 5358.42 8268.18 5355.61 8270.99C5352.79 8273.81 5348.98 8275.39 5345 8275.39H4375C4371.02 8275.39 4367.21 8273.81 4364.39 8270.99C4361.58 8268.18 4360 8264.37 4360 8260.39V8073.5C4360 8054.93 4367.37 8037.13 4380.5 8024C4393.63 8010.87 4411.43 8003.5 4430 8003.5V8003.5Z" fill="white"/>
<path id="Vector_4" d="M3340 8003.5H4200C4218.57 8003.5 4236.37 8010.87 4249.5 8024C4262.63 8037.13 4270 8054.93 4270 8073.5V8260.39C4270 8264.37 4268.42 8268.18 4265.61 8270.99C4262.79 8273.81 4258.98 8275.39 4255 8275.39H3285C3281.02 8275.39 3277.21 8273.81 3274.39 8270.99C3271.58 8268.18 3270 8264.37 3270 8260.39V8073.5C3270 8054.93 3277.37 8037.13 3290.5 8024C3303.63 8010.87 3321.43 8003.5 3340 8003.5V8003.5Z" fill="white"/>
<path id="Vector_5" d="M2250 8003.5H3110C3128.57 8003.5 3146.37 8010.87 3159.5 8024C3172.63 8037.13 3180 8054.93 3180 8073.5V8260.39C3180 8264.37 3178.42 8268.18 3175.61 8270.99C3172.79 8273.81 3168.98 8275.39 3165 8275.39H2195C2191.02 8275.39 2187.21 8273.81 2184.39 8270.99C2181.58 8268.18 2180 8264.37 2180 8260.39V8073.5C2180 8054.93 2187.37 8037.13 2200.5 8024C2213.63 8010.87 2231.43 8003.5 2250 8003.5V8003.5Z" fill="white"/>
<path id="Vector_6" d="M1160 8003.5H2020C2038.57 8003.5 2056.37 8010.87 2069.5 8024C2082.63 8037.13 2090 8054.93 2090 8073.5V8260.39C2090 8264.37 2088.42 8268.18 2085.61 8270.99C2082.79 8273.81 2078.98 8275.39 2075 8275.39H1105C1101.02 8275.39 1097.21 8273.81 1094.39 8270.99C1091.58 8268.18 1090 8264.37 1090 8260.39V8073.5C1090 8054.93 1097.37 8037.13 1110.5 8024C1123.63 8010.87 1141.43 8003.5 1160 8003.5V8003.5Z" fill="white"/>
<path id="Vector_7" d="M3473 8064.5H3433C3430.24 8064.5 3428 8066.74 3428 8069.5V8109.5C3428 8112.26 3430.24 8114.5 3433 8114.5H3473C3475.76 8114.5 3478 8112.26 3478 8109.5V8069.5C3478 8066.74 3475.76 8064.5 3473 8064.5Z" fill="#4A4661"/>
<path id="Vector_8" d="M3543 8064.5H3503C3500.24 8064.5 3498 8066.74 3498 8069.5V8109.5C3498 8112.26 3500.24 8114.5 3503 8114.5H3543C3545.76 8114.5 3548 8112.26 3548 8109.5V8069.5C3548 8066.74 3545.76 8064.5 3543 8064.5Z" fill="#4A4661"/>
<path id="Vector_9" d="M3683 8064.5H3643C3640.24 8064.5 3638 8066.74 3638 8069.5V8109.5C3638 8112.26 3640.24 8114.5 3643 8114.5H3683C3685.76 8114.5 3688 8112.26 3688 8109.5V8069.5C3688 8066.74 3685.76 8064.5 3683 8064.5Z" fill="#4A4661"/>
<path id="Vector_10" d="M3753 8064.5H3713C3710.24 8064.5 3708 8066.74 3708 8069.5V8109.5C3708 8112.26 3710.24 8114.5 3713 8114.5H3753C3755.76 8114.5 3758 8112.26 3758 8109.5V8069.5C3758 8066.74 3755.76 8064.5 3753 8064.5Z" fill="#4A4661"/>
<path id="Vector_11" d="M3893 8064.5H3853C3850.24 8064.5 3848 8066.74 3848 8069.5V8109.5C3848 8112.26 3850.24 8114.5 3853 8114.5H3893C3895.76 8114.5 3898 8112.26 3898 8109.5V8069.5C3898 8066.74 3895.76 8064.5 3893 8064.5Z" fill="#4A4661"/>
<path id="Vector_12" d="M3963 8064.5H3923C3920.24 8064.5 3918 8066.74 3918 8069.5V8109.5C3918 8112.26 3920.24 8114.5 3923 8114.5H3963C3965.76 8114.5 3968 8112.26 3968 8109.5V8069.5C3968 8066.74 3965.76 8064.5 3963 8064.5Z" fill="#4A4661"/>
<path id="Vector_13" d="M4103 8064.5H4063C4060.24 8064.5 4058 8066.74 4058 8069.5V8109.5C4058 8112.26 4060.24 8114.5 4063 8114.5H4103C4105.76 8114.5 4108 8112.26 4108 8109.5V8069.5C4108 8066.74 4105.76 8064.5 4103 8064.5Z" fill="#4A4661"/>
<g id="Group_3">
<path id="Vector_14" d="M3403 8064.5H3363C3360.24 8064.5 3358 8066.74 3358 8069.5V8109.5C3358 8112.26 3360.24 8114.5 3363 8114.5H3403C3405.76 8114.5 3408 8112.26 3408 8109.5V8069.5C3408 8066.74 3405.76 8064.5 3403 8064.5Z" fill="#4A4661"/>
<path id="Vector_15" d="M3363 8064.5H3403C3404.33 8064.5 3405.6 8065.03 3406.54 8065.96C3407.47 8066.9 3408 8068.17 3408 8069.5V8074.5H3358V8069.5C3358 8068.17 3358.53 8066.9 3359.46 8065.96C3360.4 8065.03 3361.67 8064.5 3363 8064.5V8064.5Z" fill="#F4F4F4"/>
</g>
<g id="Group_4">
<path id="Vector_16" d="M3613 8064.5H3573C3570.24 8064.5 3568 8066.74 3568 8069.5V8109.5C3568 8112.26 3570.24 8114.5 3573 8114.5H3613C3615.76 8114.5 3618 8112.26 3618 8109.5V8069.5C3618 8066.74 3615.76 8064.5 3613 8064.5Z" fill="#4A4661"/>
<path id="Vector_17" d="M3573 8064.5H3613C3614.33 8064.5 3615.6 8065.03 3616.54 8065.96C3617.47 8066.9 3618 8068.17 3618 8069.5V8074.5H3568V8069.5C3568 8068.17 3568.53 8066.9 3569.46 8065.96C3570.4 8065.03 3571.67 8064.5 3573 8064.5V8064.5Z" fill="#F4F4F4"/>
</g>
<g id="Group_5">
<path id="Vector_18" d="M3823 8064.5H3783C3780.24 8064.5 3778 8066.74 3778 8069.5V8109.5C3778 8112.26 3780.24 8114.5 3783 8114.5H3823C3825.76 8114.5 3828 8112.26 3828 8109.5V8069.5C3828 8066.74 3825.76 8064.5 3823 8064.5Z" fill="#4A4661"/>
<path id="Vector_19" d="M3783 8064.5H3823C3824.33 8064.5 3825.6 8065.03 3826.54 8065.96C3827.47 8066.9 3828 8068.17 3828 8069.5V8074.5H3778V8069.5C3778 8068.17 3778.53 8066.9 3779.46 8065.96C3780.4 8065.03 3781.67 8064.5 3783 8064.5V8064.5Z" fill="#F4F4F4"/>
</g>
<g id="Group_6">
<path id="Vector_20" d="M4033 8064.5H3993C3990.24 8064.5 3988 8066.74 3988 8069.5V8109.5C3988 8112.26 3990.24 8114.5 3993 8114.5H4033C4035.76 8114.5 4038 8112.26 4038 8109.5V8069.5C4038 8066.74 4035.76 8064.5 4033 8064.5Z" fill="#4A4661"/>
<path id="Vector_21" d="M3993 8064.5H4033C4034.33 8064.5 4035.6 8065.03 4036.54 8065.96C4037.47 8066.9 4038 8068.17 4038 8069.5V8074.5H3988V8069.5C3988 8068.17 3988.53 8066.9 3989.46 8065.96C3990.4 8065.03 3991.67 8064.5 3993 8064.5V8064.5Z" fill="#F4F4F4"/>
</g>
<g id="Group_7">
<path id="Vector_22" d="M4173 8064.5H4133C4130.24 8064.5 4128 8066.74 4128 8069.5V8109.5C4128 8112.26 4130.24 8114.5 4133 8114.5H4173C4175.76 8114.5 4178 8112.26 4178 8109.5V8069.5C4178 8066.74 4175.76 8064.5 4173 8064.5Z" fill="#4A4661"/>
<path id="Vector_23" d="M4133 8064.5H4173C4174.33 8064.5 4175.6 8065.03 4176.54 8065.96C4177.47 8066.9 4178 8068.17 4178 8069.5V8074.5H4128V8069.5C4128 8068.17 4128.53 8066.9 4129.46 8065.96C4130.4 8065.03 4131.67 8064.5 4133 8064.5V8064.5Z" fill="#F4F4F4"/>
</g>
<path id="Vector_24" d="M7387 8045.5H7394C7414.69 8045.5 7434.53 8053.72 7449.15 8068.35C7463.78 8082.97 7472 8102.81 7472 8123.5V8130.5C7472 8131.83 7471.47 8133.1 7470.54 8134.04C7469.6 8134.97 7468.33 8135.5 7467 8135.5H7396C7392.29 8135.5 7388.73 8134.03 7386.1 8131.4C7383.47 8128.77 7382 8125.21 7382 8121.5V8050.5C7382 8049.17 7382.53 8047.9 7383.46 8046.96C7384.4 8046.03 7385.67 8045.5 7387 8045.5V8045.5Z" fill="#4A4661"/>
<path id="Vector_25" d="M7242 8047.5H7222C7219.24 8047.5 7217 8049.74 7217 8052.5V8072.5C7217 8075.26 7219.24 8077.5 7222 8077.5H7242C7244.76 8077.5 7247 8075.26 7247 8072.5V8052.5C7247 8049.74 7244.76 8047.5 7242 8047.5Z" fill="#4A4661"/>
<path id="Vector_26" d="M7133 8047.5H7113C7110.24 8047.5 7108 8049.74 7108 8052.5V8072.5C7108 8075.26 7110.24 8077.5 7113 8077.5H7133C7135.76 8077.5 7138 8075.26 7138 8072.5V8052.5C7138 8049.74 7135.76 8047.5 7133 8047.5Z" fill="#4A4661"/>
<path id="Vector_27" d="M6993 8045.5H6973C6970.24 8045.5 6968 8047.74 6968 8050.5V8070.5C6968 8073.26 6970.24 8075.5 6973 8075.5H6993C6995.76 8075.5 6998 8073.26 6998 8070.5V8050.5C6998 8047.74 6995.76 8045.5 6993 8045.5Z" fill="#4A4661"/>
<path id="Vector_28" d="M6931 8045.5H6911C6908.24 8045.5 6906 8047.74 6906 8050.5V8070.5C6906 8073.26 6908.24 8075.5 6911 8075.5H6931C6933.76 8075.5 6936 8073.26 6936 8070.5V8050.5C6936 8047.74 6933.76 8045.5 6931 8045.5Z" fill="#4A4661"/>
<path id="Vector_29" d="M6838 8045.5H6818C6815.24 8045.5 6813 8047.74 6813 8050.5V8070.5C6813 8073.26 6815.24 8075.5 6818 8075.5H6838C6840.76 8075.5 6843 8073.26 6843 8070.5V8050.5C6843 8047.74 6840.76 8045.5 6838 8045.5Z" fill="#4A4661"/>
<path id="Vector_30" d="M7342 8045.5H7312C7306.48 8045.5 7302 8049.98 7302 8055.5V8185.5C7302 8191.02 7306.48 8195.5 7312 8195.5H7342C7347.52 8195.5 7352 8191.02 7352 8185.5V8055.5C7352 8049.98 7347.52 8045.5 7342 8045.5Z" fill="#494346"/>
<path id="Vector_31" d="M7346 8139.5C7345.47 8139.5 7344.96 8139.29 7344.59 8138.91C7344.21 8138.54 7344 8138.03 7344 8137.5V8130.5H7330.5C7330.1 8130.5 7329.72 8130.34 7329.44 8130.06C7329.16 8129.78 7329 8129.4 7329 8129C7329 8128.6 7329.16 8128.22 7329.44 8127.94C7329.72 8127.66 7330.1 8127.5 7330.5 8127.5H7344V8121.5C7344 8120.97 7344.21 8120.46 7344.59 8120.09C7344.96 8119.71 7345.47 8119.5 7346 8119.5H7348C7348.53 8119.5 7349.04 8119.71 7349.41 8120.09C7349.79 8120.46 7350 8120.97 7350 8121.5V8137.5C7350 8138.03 7349.79 8138.54 7349.41 8138.91C7349.04 8139.29 7348.53 8139.5 7348 8139.5H7346Z" fill="white"/>
<path id="Vector_32" d="M6680 8045.5H6687C6688.33 8045.5 6689.6 8046.03 6690.54 8046.96C6691.47 8047.9 6692 8049.17 6692 8050.5V8121.5C6692 8125.21 6690.53 8128.77 6687.9 8131.4C6685.27 8134.03 6681.71 8135.5 6678 8135.5H6607C6605.67 8135.5 6604.4 8134.97 6603.46 8134.04C6602.53 8133.1 6602 8131.83 6602 8130.5V8123.5C6602 8102.81 6610.22 8082.97 6624.85 8068.35C6639.47 8053.72 6659.31 8045.5 6680 8045.5V8045.5Z" fill="#4A4661"/>
<path id="Vector_33" d="M6763 8045.5H6733C6727.48 8045.5 6723 8049.98 6723 8055.5V8185.5C6723 8191.02 6727.48 8195.5 6733 8195.5H6763C6768.52 8195.5 6773 8191.02 6773 8185.5V8055.5C6773 8049.98 6768.52 8045.5 6763 8045.5Z" fill="#494346"/>
<path id="Vector_34" d="M6729 8119.5C6729.53 8119.5 6730.04 8119.71 6730.41 8120.09C6730.79 8120.46 6731 8120.97 6731 8121.5V8127.5H6744.5C6744.9 8127.5 6745.28 8127.66 6745.56 8127.94C6745.84 8128.22 6746 8128.6 6746 8129C6746 8129.4 6745.84 8129.78 6745.56 8130.06C6745.28 8130.34 6744.9 8130.5 6744.5 8130.5H6731V8137.5C6731 8138.03 6730.79 8138.54 6730.41 8138.91C6730.04 8139.29 6729.53 8139.5 6729 8139.5H6727C6726.47 8139.5 6725.96 8139.29 6725.59 8138.91C6725.21 8138.54 6725 8138.03 6725 8137.5V8121.5C6725 8120.97 6725.21 8120.46 6725.59 8120.09C6725.96 8119.71 6726.47 8119.5 6727 8119.5H6729Z" fill="white"/>
<g id="Group_8" filter="url(#filter0_d)">
<path id="Vector_35" d="M6787 8048C6787 8046.62 6785.88 8045.5 6784.5 8045.5C6783.12 8045.5 6782 8046.62 6782 8048V8193C6782 8194.38 6783.12 8195.5 6784.5 8195.5C6785.88 8195.5 6787 8194.38 6787 8193V8048Z" fill="#AFADB0"/>
</g>
<g id="Group_9" filter="url(#filter1_d)">
<path id="Vector_36" d="M6717 8048C6717 8046.62 6715.88 8045.5 6714.5 8045.5C6713.12 8045.5 6712 8046.62 6712 8048V8193C6712 8194.38 6713.12 8195.5 6714.5 8195.5C6715.88 8195.5 6717 8194.38 6717 8193V8048Z" fill="#AFADB0"/>
</g>
<g id="Group_10" filter="url(#filter2_d)">
<path id="Vector_37" d="M7296 8048C7296 8046.62 7294.88 8045.5 7293.5 8045.5C7292.12 8045.5 7291 8046.62 7291 8048V8193C7291 8194.38 7292.12 8195.5 7293.5 8195.5C7294.88 8195.5 7296 8194.38 7296 8193V8048Z" fill="#AFADB0"/>
</g>
<g id="Group_11" filter="url(#filter3_d)">
<path id="Vector_38" d="M7362 8048C7362 8046.62 7360.88 8045.5 7359.5 8045.5C7358.12 8045.5 7357 8046.62 7357 8048V8193C7357 8194.38 7358.12 8195.5 7359.5 8195.5C7360.88 8195.5 7362 8194.38 7362 8193V8048Z" fill="#AFADB0"/>
</g>
<path id="Vector_39" d="M7271.17 8220.5H6540V8210.5H7264.95L7271.17 8220.5Z" fill="#F6D044"/>
<path id="Vector_40" d="M7291.34 8237.5H6540V8227.5H7285.04L7291.34 8237.5H7291.34Z" fill="#F08F38"/>
<path id="Vector_41" d="M6450 8210.5H5450V8220.5H6450V8210.5Z" fill="#F6D044"/>
<path id="Vector_42" d="M6450 8227.5H5450V8237.5H6450V8227.5Z" fill="#F08F38"/>
<path id="Vector_43" d="M4563 8064.5H4523C4520.24 8064.5 4518 8066.74 4518 8069.5V8109.5C4518 8112.26 4520.24 8114.5 4523 8114.5H4563C4565.76 8114.5 4568 8112.26 4568 8109.5V8069.5C4568 8066.74 4565.76 8064.5 4563 8064.5Z" fill="#4A4661"/>
<path id="Vector_44" d="M4633 8064.5H4593C4590.24 8064.5 4588 8066.74 4588 8069.5V8109.5C4588 8112.26 4590.24 8114.5 4593 8114.5H4633C4635.76 8114.5 4638 8112.26 4638 8109.5V8069.5C4638 8066.74 4635.76 8064.5 4633 8064.5Z" fill="#4A4661"/>
<path id="Vector_45" d="M4773 8064.5H4733C4730.24 8064.5 4728 8066.74 4728 8069.5V8109.5C4728 8112.26 4730.24 8114.5 4733 8114.5H4773C4775.76 8114.5 4778 8112.26 4778 8109.5V8069.5C4778 8066.74 4775.76 8064.5 4773 8064.5Z" fill="#4A4661"/>
<path id="Vector_46" d="M4843 8064.5H4803C4800.24 8064.5 4798 8066.74 4798 8069.5V8109.5C4798 8112.26 4800.24 8114.5 4803 8114.5H4843C4845.76 8114.5 4848 8112.26 4848 8109.5V8069.5C4848 8066.74 4845.76 8064.5 4843 8064.5Z" fill="#4A4661"/>
<path id="Vector_47" d="M4983 8064.5H4943C4940.24 8064.5 4938 8066.74 4938 8069.5V8109.5C4938 8112.26 4940.24 8114.5 4943 8114.5H4983C4985.76 8114.5 4988 8112.26 4988 8109.5V8069.5C4988 8066.74 4985.76 8064.5 4983 8064.5Z" fill="#4A4661"/>
<path id="Vector_48" d="M5053 8064.5H5013C5010.24 8064.5 5008 8066.74 5008 8069.5V8109.5C5008 8112.26 5010.24 8114.5 5013 8114.5H5053C5055.76 8114.5 5058 8112.26 5058 8109.5V8069.5C5058 8066.74 5055.76 8064.5 5053 8064.5Z" fill="#4A4661"/>
<path id="Vector_49" d="M5193 8064.5H5153C5150.24 8064.5 5148 8066.74 5148 8069.5V8109.5C5148 8112.26 5150.24 8114.5 5153 8114.5H5193C5195.76 8114.5 5198 8112.26 5198 8109.5V8069.5C5198 8066.74 5195.76 8064.5 5193 8064.5Z" fill="#4A4661"/>
<g id="Group_12">
<path id="Vector_50" d="M4493 8064.5H4453C4450.24 8064.5 4448 8066.74 4448 8069.5V8109.5C4448 8112.26 4450.24 8114.5 4453 8114.5H4493C4495.76 8114.5 4498 8112.26 4498 8109.5V8069.5C4498 8066.74 4495.76 8064.5 4493 8064.5Z" fill="#4A4661"/>
<path id="Vector_51" d="M4453 8064.5H4493C4494.33 8064.5 4495.6 8065.03 4496.54 8065.96C4497.47 8066.9 4498 8068.17 4498 8069.5V8074.5H4448V8069.5C4448 8068.17 4448.53 8066.9 4449.46 8065.96C4450.4 8065.03 4451.67 8064.5 4453 8064.5V8064.5Z" fill="#F4F4F4"/>
</g>
<g id="Group_13">
<path id="Vector_52" d="M4703 8064.5H4663C4660.24 8064.5 4658 8066.74 4658 8069.5V8109.5C4658 8112.26 4660.24 8114.5 4663 8114.5H4703C4705.76 8114.5 4708 8112.26 4708 8109.5V8069.5C4708 8066.74 4705.76 8064.5 4703 8064.5Z" fill="#4A4661"/>
<path id="Vector_53" d="M4663 8064.5H4703C4704.33 8064.5 4705.6 8065.03 4706.54 8065.96C4707.47 8066.9 4708 8068.17 4708 8069.5V8074.5H4658V8069.5C4658 8068.17 4658.53 8066.9 4659.46 8065.96C4660.4 8065.03 4661.67 8064.5 4663 8064.5V8064.5Z" fill="#F4F4F4"/>
</g>
<g id="Group_14">
<path id="Vector_54" d="M4913 8064.5H4873C4870.24 8064.5 4868 8066.74 4868 8069.5V8109.5C4868 8112.26 4870.24 8114.5 4873 8114.5H4913C4915.76 8114.5 4918 8112.26 4918 8109.5V8069.5C4918 8066.74 4915.76 8064.5 4913 8064.5Z" fill="#4A4661"/>
<path id="Vector_55" d="M4873 8064.5H4913C4914.33 8064.5 4915.6 8065.03 4916.54 8065.96C4917.47 8066.9 4918 8068.17 4918 8069.5V8074.5H4868V8069.5C4868 8068.17 4868.53 8066.9 4869.46 8065.96C4870.4 8065.03 4871.67 8064.5 4873 8064.5V8064.5Z" fill="#F4F4F4"/>
</g>
<g id="Group_15">
<path id="Vector_56" d="M5123 8064.5H5083C5080.24 8064.5 5078 8066.74 5078 8069.5V8109.5C5078 8112.26 5080.24 8114.5 5083 8114.5H5123C5125.76 8114.5 5128 8112.26 5128 8109.5V8069.5C5128 8066.74 5125.76 8064.5 5123 8064.5Z" fill="#4A4661"/>
<path id="Vector_57" d="M5083 8064.5H5123C5124.33 8064.5 5125.6 8065.03 5126.54 8065.96C5127.47 8066.9 5128 8068.17 5128 8069.5V8074.5H5078V8069.5C5078 8068.17 5078.53 8066.9 5079.46 8065.96C5080.4 8065.03 5081.67 8064.5 5083 8064.5V8064.5Z" fill="#F4F4F4"/>
</g>
<g id="Group_16">
<path id="Vector_58" d="M5263 8064.5H5223C5220.24 8064.5 5218 8066.74 5218 8069.5V8109.5C5218 8112.26 5220.24 8114.5 5223 8114.5H5263C5265.76 8114.5 5268 8112.26 5268 8109.5V8069.5C5268 8066.74 5265.76 8064.5 5263 8064.5Z" fill="#4A4661"/>
<path id="Vector_59" d="M5223 8064.5H5263C5264.33 8064.5 5265.6 8065.03 5266.54 8065.96C5267.47 8066.9 5268 8068.17 5268 8069.5V8074.5H5218V8069.5C5218 8068.17 5218.53 8066.9 5219.46 8065.96C5220.4 8065.03 5221.67 8064.5 5223 8064.5V8064.5Z" fill="#F4F4F4"/>
</g>
<path id="Vector_60" d="M2383 8064.5H2343C2340.24 8064.5 2338 8066.74 2338 8069.5V8109.5C2338 8112.26 2340.24 8114.5 2343 8114.5H2383C2385.76 8114.5 2388 8112.26 2388 8109.5V8069.5C2388 8066.74 2385.76 8064.5 2383 8064.5Z" fill="#4A4661"/>
<path id="Vector_61" d="M2453 8064.5H2413C2410.24 8064.5 2408 8066.74 2408 8069.5V8109.5C2408 8112.26 2410.24 8114.5 2413 8114.5H2453C2455.76 8114.5 2458 8112.26 2458 8109.5V8069.5C2458 8066.74 2455.76 8064.5 2453 8064.5Z" fill="#4A4661"/>
<path id="Vector_62" d="M2593 8064.5H2553C2550.24 8064.5 2548 8066.74 2548 8069.5V8109.5C2548 8112.26 2550.24 8114.5 2553 8114.5H2593C2595.76 8114.5 2598 8112.26 2598 8109.5V8069.5C2598 8066.74 2595.76 8064.5 2593 8064.5Z" fill="#4A4661"/>
<path id="Vector_63" d="M2663 8064.5H2623C2620.24 8064.5 2618 8066.74 2618 8069.5V8109.5C2618 8112.26 2620.24 8114.5 2623 8114.5H2663C2665.76 8114.5 2668 8112.26 2668 8109.5V8069.5C2668 8066.74 2665.76 8064.5 2663 8064.5Z" fill="#4A4661"/>
<path id="Vector_64" d="M2803 8064.5H2763C2760.24 8064.5 2758 8066.74 2758 8069.5V8109.5C2758 8112.26 2760.24 8114.5 2763 8114.5H2803C2805.76 8114.5 2808 8112.26 2808 8109.5V8069.5C2808 8066.74 2805.76 8064.5 2803 8064.5Z" fill="#4A4661"/>
<path id="Vector_65" d="M2873 8064.5H2833C2830.24 8064.5 2828 8066.74 2828 8069.5V8109.5C2828 8112.26 2830.24 8114.5 2833 8114.5H2873C2875.76 8114.5 2878 8112.26 2878 8109.5V8069.5C2878 8066.74 2875.76 8064.5 2873 8064.5Z" fill="#4A4661"/>
<path id="Vector_66" d="M3013 8064.5H2973C2970.24 8064.5 2968 8066.74 2968 8069.5V8109.5C2968 8112.26 2970.24 8114.5 2973 8114.5H3013C3015.76 8114.5 3018 8112.26 3018 8109.5V8069.5C3018 8066.74 3015.76 8064.5 3013 8064.5Z" fill="#4A4661"/>
<g id="Group_17">
<path id="Vector_67" d="M2313 8064.5H2273C2270.24 8064.5 2268 8066.74 2268 8069.5V8109.5C2268 8112.26 2270.24 8114.5 2273 8114.5H2313C2315.76 8114.5 2318 8112.26 2318 8109.5V8069.5C2318 8066.74 2315.76 8064.5 2313 8064.5Z" fill="#4A4661"/>
<path id="Vector_68" d="M2273 8064.5H2313C2314.33 8064.5 2315.6 8065.03 2316.54 8065.96C2317.47 8066.9 2318 8068.17 2318 8069.5V8074.5H2268V8069.5C2268 8068.17 2268.53 8066.9 2269.46 8065.96C2270.4 8065.03 2271.67 8064.5 2273 8064.5V8064.5Z" fill="#F4F4F4"/>
</g>
<g id="Group_18">
<path id="Vector_69" d="M2523 8064.5H2483C2480.24 8064.5 2478 8066.74 2478 8069.5V8109.5C2478 8112.26 2480.24 8114.5 2483 8114.5H2523C2525.76 8114.5 2528 8112.26 2528 8109.5V8069.5C2528 8066.74 2525.76 8064.5 2523 8064.5Z" fill="#4A4661"/>
<path id="Vector_70" d="M2483 8064.5H2523C2524.33 8064.5 2525.6 8065.03 2526.54 8065.96C2527.47 8066.9 2528 8068.17 2528 8069.5V8074.5H2478V8069.5C2478 8068.17 2478.53 8066.9 2479.46 8065.96C2480.4 8065.03 2481.67 8064.5 2483 8064.5V8064.5Z" fill="#F4F4F4"/>
</g>
<g id="Group_19">
<path id="Vector_71" d="M2733 8064.5H2693C2690.24 8064.5 2688 8066.74 2688 8069.5V8109.5C2688 8112.26 2690.24 8114.5 2693 8114.5H2733C2735.76 8114.5 2738 8112.26 2738 8109.5V8069.5C2738 8066.74 2735.76 8064.5 2733 8064.5Z" fill="#4A4661"/>
<path id="Vector_72" d="M2693 8064.5H2733C2734.33 8064.5 2735.6 8065.03 2736.54 8065.96C2737.47 8066.9 2738 8068.17 2738 8069.5V8074.5H2688V8069.5C2688 8068.17 2688.53 8066.9 2689.46 8065.96C2690.4 8065.03 2691.67 8064.5 2693 8064.5V8064.5Z" fill="#F4F4F4"/>
</g>
<g id="Group_20">
<path id="Vector_73" d="M2943 8064.5H2903C2900.24 8064.5 2898 8066.74 2898 8069.5V8109.5C2898 8112.26 2900.24 8114.5 2903 8114.5H2943C2945.76 8114.5 2948 8112.26 2948 8109.5V8069.5C2948 8066.74 2945.76 8064.5 2943 8064.5Z" fill="#4A4661"/>
<path id="Vector_74" d="M2903 8064.5H2943C2944.33 8064.5 2945.6 8065.03 2946.54 8065.96C2947.47 8066.9 2948 8068.17 2948 8069.5V8074.5H2898V8069.5C2898 8068.17 2898.53 8066.9 2899.46 8065.96C2900.4 8065.03 2901.67 8064.5 2903 8064.5V8064.5Z" fill="#F4F4F4"/>
</g>
<g id="Group_21">
<path id="Vector_75" d="M3083 8064.5H3043C3040.24 8064.5 3038 8066.74 3038 8069.5V8109.5C3038 8112.26 3040.24 8114.5 3043 8114.5H3083C3085.76 8114.5 3088 8112.26 3088 8109.5V8069.5C3088 8066.74 3085.76 8064.5 3083 8064.5Z" fill="#4A4661"/>
<path id="Vector_76" d="M3043 8064.5H3083C3084.33 8064.5 3085.6 8065.03 3086.54 8065.96C3087.47 8066.9 3088 8068.17 3088 8069.5V8074.5H3038V8069.5C3038 8068.17 3038.53 8066.9 3039.46 8065.96C3040.4 8065.03 3041.67 8064.5 3043 8064.5V8064.5Z" fill="#F4F4F4"/>
</g>
<path id="Vector_77" d="M1293 8064.5H1253C1250.24 8064.5 1248 8066.74 1248 8069.5V8109.5C1248 8112.26 1250.24 8114.5 1253 8114.5H1293C1295.76 8114.5 1298 8112.26 1298 8109.5V8069.5C1298 8066.74 1295.76 8064.5 1293 8064.5Z" fill="#4A4661"/>
<path id="Vector_78" d="M1363 8064.5H1323C1320.24 8064.5 1318 8066.74 1318 8069.5V8109.5C1318 8112.26 1320.24 8114.5 1323 8114.5H1363C1365.76 8114.5 1368 8112.26 1368 8109.5V8069.5C1368 8066.74 1365.76 8064.5 1363 8064.5Z" fill="#4A4661"/>
<path id="Vector_79" d="M1503 8064.5H1463C1460.24 8064.5 1458 8066.74 1458 8069.5V8109.5C1458 8112.26 1460.24 8114.5 1463 8114.5H1503C1505.76 8114.5 1508 8112.26 1508 8109.5V8069.5C1508 8066.74 1505.76 8064.5 1503 8064.5Z" fill="#4A4661"/>
<path id="Vector_80" d="M1573 8064.5H1533C1530.24 8064.5 1528 8066.74 1528 8069.5V8109.5C1528 8112.26 1530.24 8114.5 1533 8114.5H1573C1575.76 8114.5 1578 8112.26 1578 8109.5V8069.5C1578 8066.74 1575.76 8064.5 1573 8064.5Z" fill="#4A4661"/>
<path id="Vector_81" d="M1713 8064.5H1673C1670.24 8064.5 1668 8066.74 1668 8069.5V8109.5C1668 8112.26 1670.24 8114.5 1673 8114.5H1713C1715.76 8114.5 1718 8112.26 1718 8109.5V8069.5C1718 8066.74 1715.76 8064.5 1713 8064.5Z" fill="#4A4661"/>
<path id="Vector_82" d="M1783 8064.5H1743C1740.24 8064.5 1738 8066.74 1738 8069.5V8109.5C1738 8112.26 1740.24 8114.5 1743 8114.5H1783C1785.76 8114.5 1788 8112.26 1788 8109.5V8069.5C1788 8066.74 1785.76 8064.5 1783 8064.5Z" fill="#4A4661"/>
<path id="Vector_83" d="M1923 8064.5H1883C1880.24 8064.5 1878 8066.74 1878 8069.5V8109.5C1878 8112.26 1880.24 8114.5 1883 8114.5H1923C1925.76 8114.5 1928 8112.26 1928 8109.5V8069.5C1928 8066.74 1925.76 8064.5 1923 8064.5Z" fill="#4A4661"/>
<g id="Group_22">
<path id="Vector_84" d="M1223 8064.5H1183C1180.24 8064.5 1178 8066.74 1178 8069.5V8109.5C1178 8112.26 1180.24 8114.5 1183 8114.5H1223C1225.76 8114.5 1228 8112.26 1228 8109.5V8069.5C1228 8066.74 1225.76 8064.5 1223 8064.5Z" fill="#4A4661"/>
<path id="Vector_85" d="M1183 8064.5H1223C1224.33 8064.5 1225.6 8065.03 1226.54 8065.96C1227.47 8066.9 1228 8068.17 1228 8069.5V8074.5H1178V8069.5C1178 8068.17 1178.53 8066.9 1179.46 8065.96C1180.4 8065.03 1181.67 8064.5 1183 8064.5V8064.5Z" fill="#F4F4F4"/>
</g>
<g id="Group_23">
<path id="Vector_86" d="M1433 8064.5H1393C1390.24 8064.5 1388 8066.74 1388 8069.5V8109.5C1388 8112.26 1390.24 8114.5 1393 8114.5H1433C1435.76 8114.5 1438 8112.26 1438 8109.5V8069.5C1438 8066.74 1435.76 8064.5 1433 8064.5Z" fill="#4A4661"/>
<path id="Vector_87" d="M1393 8064.5H1433C1434.33 8064.5 1435.6 8065.03 1436.54 8065.96C1437.47 8066.9 1438 8068.17 1438 8069.5V8074.5H1388V8069.5C1388 8068.17 1388.53 8066.9 1389.46 8065.96C1390.4 8065.03 1391.67 8064.5 1393 8064.5V8064.5Z" fill="#F4F4F4"/>
</g>
<g id="Group_24">
<path id="Vector_88" d="M1643 8064.5H1603C1600.24 8064.5 1598 8066.74 1598 8069.5V8109.5C1598 8112.26 1600.24 8114.5 1603 8114.5H1643C1645.76 8114.5 1648 8112.26 1648 8109.5V8069.5C1648 8066.74 1645.76 8064.5 1643 8064.5Z" fill="#4A4661"/>
<path id="Vector_89" d="M1603 8064.5H1643C1644.33 8064.5 1645.6 8065.03 1646.54 8065.96C1647.47 8066.9 1648 8068.17 1648 8069.5V8074.5H1598V8069.5C1598 8068.17 1598.53 8066.9 1599.46 8065.96C1600.4 8065.03 1601.67 8064.5 1603 8064.5V8064.5Z" fill="#F4F4F4"/>
</g>
<g id="Group_25">
<path id="Vector_90" d="M1853 8064.5H1813C1810.24 8064.5 1808 8066.74 1808 8069.5V8109.5C1808 8112.26 1810.24 8114.5 1813 8114.5H1853C1855.76 8114.5 1858 8112.26 1858 8109.5V8069.5C1858 8066.74 1855.76 8064.5 1853 8064.5Z" fill="#4A4661"/>
<path id="Vector_91" d="M1813 8064.5H1853C1854.33 8064.5 1855.6 8065.03 1856.54 8065.96C1857.47 8066.9 1858 8068.17 1858 8069.5V8074.5H1808V8069.5C1808 8068.17 1808.53 8066.9 1809.46 8065.96C1810.4 8065.03 1811.67 8064.5 1813 8064.5V8064.5Z" fill="#F4F4F4"/>
</g>
<g id="Group_26">
<path id="Vector_92" d="M1993 8064.5H1953C1950.24 8064.5 1948 8066.74 1948 8069.5V8109.5C1948 8112.26 1950.24 8114.5 1953 8114.5H1993C1995.76 8114.5 1998 8112.26 1998 8109.5V8069.5C1998 8066.74 1995.76 8064.5 1993 8064.5Z" fill="#4A4661"/>
<path id="Vector_93" d="M1953 8064.5H1993C1994.33 8064.5 1995.6 8065.03 1996.54 8065.96C1997.47 8066.9 1998 8068.17 1998 8069.5V8074.5H1948V8069.5C1948 8068.17 1948.53 8066.9 1949.46 8065.96C1950.4 8065.03 1951.67 8064.5 1953 8064.5V8064.5Z" fill="#F4F4F4"/>
</g>
<path id="Vector_94" d="M5360 8210.5H4360V8220.5H5360V8210.5Z" fill="#F6D044"/>
<path id="Vector_95" d="M5360 8227.5H4360V8237.5H5360V8227.5Z" fill="#F08F38"/>
<path id="Vector_96" d="M4270 8210.5H3270V8220.5H4270V8210.5Z" fill="#F6D044"/>
<path id="Vector_97" d="M4270 8227.5H3270V8237.5H4270V8227.5Z" fill="#F08F38"/>
<path id="Vector_98" d="M3180 8210.5H2180V8220.5H3180V8210.5Z" fill="#F6D044"/>
<path id="Vector_99" d="M3180 8227.5H2180V8237.5H3180V8227.5Z" fill="#F08F38"/>
<path id="Vector_100" d="M5655 8064.5H5615C5612.24 8064.5 5610 8066.74 5610 8069.5V8109.5C5610 8112.26 5612.24 8114.5 5615 8114.5H5655C5657.76 8114.5 5660 8112.26 5660 8109.5V8069.5C5660 8066.74 5657.76 8064.5 5655 8064.5Z" fill="#4A4661"/>
<path id="Vector_101" d="M5725 8064.5H5685C5682.24 8064.5 5680 8066.74 5680 8069.5V8109.5C5680 8112.26 5682.24 8114.5 5685 8114.5H5725C5727.76 8114.5 5730 8112.26 5730 8109.5V8069.5C5730 8066.74 5727.76 8064.5 5725 8064.5Z" fill="#4A4661"/>
<path id="Vector_102" d="M5865 8064.5H5825C5822.24 8064.5 5820 8066.74 5820 8069.5V8109.5C5820 8112.26 5822.24 8114.5 5825 8114.5H5865C5867.76 8114.5 5870 8112.26 5870 8109.5V8069.5C5870 8066.74 5867.76 8064.5 5865 8064.5Z" fill="#4A4661"/>
<path id="Vector_103" d="M5935 8064.5H5895C5892.24 8064.5 5890 8066.74 5890 8069.5V8109.5C5890 8112.26 5892.24 8114.5 5895 8114.5H5935C5937.76 8114.5 5940 8112.26 5940 8109.5V8069.5C5940 8066.74 5937.76 8064.5 5935 8064.5Z" fill="#4A4661"/>
<path id="Vector_104" d="M6075 8064.5H6035C6032.24 8064.5 6030 8066.74 6030 8069.5V8109.5C6030 8112.26 6032.24 8114.5 6035 8114.5H6075C6077.76 8114.5 6080 8112.26 6080 8109.5V8069.5C6080 8066.74 6077.76 8064.5 6075 8064.5Z" fill="#4A4661"/>
<path id="Vector_105" d="M6145 8064.5H6105C6102.24 8064.5 6100 8066.74 6100 8069.5V8109.5C6100 8112.26 6102.24 8114.5 6105 8114.5H6145C6147.76 8114.5 6150 8112.26 6150 8109.5V8069.5C6150 8066.74 6147.76 8064.5 6145 8064.5Z" fill="#4A4661"/>
<path id="Vector_106" d="M6285 8064.5H6245C6242.24 8064.5 6240 8066.74 6240 8069.5V8109.5C6240 8112.26 6242.24 8114.5 6245 8114.5H6285C6287.76 8114.5 6290 8112.26 6290 8109.5V8069.5C6290 8066.74 6287.76 8064.5 6285 8064.5Z" fill="#4A4661"/>
<g id="Group_27">
<path id="Vector_107" d="M5585 8064.5H5545C5542.24 8064.5 5540 8066.74 5540 8069.5V8109.5C5540 8112.26 5542.24 8114.5 5545 8114.5H5585C5587.76 8114.5 5590 8112.26 5590 8109.5V8069.5C5590 8066.74 5587.76 8064.5 5585 8064.5Z" fill="#4A4661"/>
<path id="Vector_108" d="M5545 8064.5H5585C5586.33 8064.5 5587.6 8065.03 5588.54 8065.96C5589.47 8066.9 5590 8068.17 5590 8069.5V8074.5H5540V8069.5C5540 8068.17 5540.53 8066.9 5541.46 8065.96C5542.4 8065.03 5543.67 8064.5 5545 8064.5V8064.5Z" fill="#F4F4F4"/>
</g>
<g id="Group_28">
<path id="Vector_109" d="M5795 8064.5H5755C5752.24 8064.5 5750 8066.74 5750 8069.5V8109.5C5750 8112.26 5752.24 8114.5 5755 8114.5H5795C5797.76 8114.5 5800 8112.26 5800 8109.5V8069.5C5800 8066.74 5797.76 8064.5 5795 8064.5Z" fill="#4A4661"/>
<path id="Vector_110" d="M5755 8064.5H5795C5796.33 8064.5 5797.6 8065.03 5798.54 8065.96C5799.47 8066.9 5800 8068.17 5800 8069.5V8074.5H5750V8069.5C5750 8068.17 5750.53 8066.9 5751.46 8065.96C5752.4 8065.03 5753.67 8064.5 5755 8064.5V8064.5Z" fill="#F4F4F4"/>
</g>
<g id="Group_29">
<path id="Vector_111" d="M6005 8064.5H5965C5962.24 8064.5 5960 8066.74 5960 8069.5V8109.5C5960 8112.26 5962.24 8114.5 5965 8114.5H6005C6007.76 8114.5 6010 8112.26 6010 8109.5V8069.5C6010 8066.74 6007.76 8064.5 6005 8064.5Z" fill="#4A4661"/>
<path id="Vector_112" d="M5965 8064.5H6005C6006.33 8064.5 6007.6 8065.03 6008.54 8065.96C6009.47 8066.9 6010 8068.17 6010 8069.5V8074.5H5960V8069.5C5960 8068.17 5960.53 8066.9 5961.46 8065.96C5962.4 8065.03 5963.67 8064.5 5965 8064.5V8064.5Z" fill="#F4F4F4"/>
</g>
<g id="Group_30">
<path id="Vector_113" d="M6215 8064.5H6175C6172.24 8064.5 6170 8066.74 6170 8069.5V8109.5C6170 8112.26 6172.24 8114.5 6175 8114.5H6215C6217.76 8114.5 6220 8112.26 6220 8109.5V8069.5C6220 8066.74 6217.76 8064.5 6215 8064.5Z" fill="#4A4661"/>
<path id="Vector_114" d="M6175 8064.5H6215C6216.33 8064.5 6217.6 8065.03 6218.54 8065.96C6219.47 8066.9 6220 8068.17 6220 8069.5V8074.5H6170V8069.5C6170 8068.17 6170.53 8066.9 6171.46 8065.96C6172.4 8065.03 6173.67 8064.5 6175 8064.5V8064.5Z" fill="#F4F4F4"/>
</g>
<g id="Group_31">
<path id="Vector_115" d="M6355 8064.5H6315C6312.24 8064.5 6310 8066.74 6310 8069.5V8109.5C6310 8112.26 6312.24 8114.5 6315 8114.5H6355C6357.76 8114.5 6360 8112.26 6360 8109.5V8069.5C6360 8066.74 6357.76 8064.5 6355 8064.5Z" fill="#4A4661"/>
<path id="Vector_116" d="M6315 8064.5H6355C6356.33 8064.5 6357.6 8065.03 6358.54 8065.96C6359.47 8066.9 6360 8068.17 6360 8069.5V8074.5H6310V8069.5C6310 8068.17 6310.53 8066.9 6311.46 8065.96C6312.4 8065.03 6313.67 8064.5 6315 8064.5V8064.5Z" fill="#F4F4F4"/>
</g>
<path id="Vector_117" d="M2090 8210.5H1090V8220.5H2090V8210.5Z" fill="#F6D044"/>
<path id="Vector_118" d="M2090 8227.5H1090V8237.5H2090V8227.5Z" fill="#F08F38"/>
<path id="Vector_119" d="M205 8003.5H795C849.369 8003.5 901.512 8025.1 939.957 8063.54C978.402 8101.99 1000 8154.13 1000 8208.5V8230.39C1000 8242.32 995.259 8253.77 986.82 8262.21C978.381 8270.65 966.935 8275.39 955 8275.39H45C33.0653 8275.39 21.6193 8270.65 13.1802 8262.21C4.74106 8253.77 0 8242.32 0 8230.39L0 8208.5C0 8154.13 21.5982 8101.99 60.0431 8063.54C98.4881 8025.1 150.631 8003.5 205 8003.5V8003.5Z" fill="white"/>
<path id="Vector_120" d="M847 8045.5H854C874.687 8045.5 894.526 8053.72 909.154 8068.35C923.782 8082.97 932 8102.81 932 8123.5V8130.5C932 8131.83 931.473 8133.1 930.536 8134.04C929.598 8134.97 928.326 8135.5 927 8135.5H856C852.287 8135.5 848.726 8134.03 846.101 8131.4C843.475 8128.77 842 8125.21 842 8121.5V8050.5C842 8049.17 842.527 8047.9 843.464 8046.96C844.402 8046.03 845.674 8045.5 847 8045.5V8045.5Z" fill="#4A4661"/>
<path id="Vector_121" d="M702 8047.5H682C679.239 8047.5 677 8049.74 677 8052.5V8072.5C677 8075.26 679.239 8077.5 682 8077.5H702C704.761 8077.5 707 8075.26 707 8072.5V8052.5C707 8049.74 704.761 8047.5 702 8047.5Z" fill="#4A4661"/>
<path id="Vector_122" d="M593 8047.5H573C570.239 8047.5 568 8049.74 568 8052.5V8072.5C568 8075.26 570.239 8077.5 573 8077.5H593C595.761 8077.5 598 8075.26 598 8072.5V8052.5C598 8049.74 595.761 8047.5 593 8047.5Z" fill="#4A4661"/>
<path id="Vector_123" d="M453 8045.5H433C430.239 8045.5 428 8047.74 428 8050.5V8070.5C428 8073.26 430.239 8075.5 433 8075.5H453C455.761 8075.5 458 8073.26 458 8070.5V8050.5C458 8047.74 455.761 8045.5 453 8045.5Z" fill="#4A4661"/>
<path id="Vector_124" d="M391 8045.5H371C368.239 8045.5 366 8047.74 366 8050.5V8070.5C366 8073.26 368.239 8075.5 371 8075.5H391C393.761 8075.5 396 8073.26 396 8070.5V8050.5C396 8047.74 393.761 8045.5 391 8045.5Z" fill="#4A4661"/>
<path id="Vector_125" d="M298 8045.5H278C275.239 8045.5 273 8047.74 273 8050.5V8070.5C273 8073.26 275.239 8075.5 278 8075.5H298C300.761 8075.5 303 8073.26 303 8070.5V8050.5C303 8047.74 300.761 8045.5 298 8045.5Z" fill="#4A4661"/>
<path id="Vector_126" d="M802 8045.5H772C766.477 8045.5 762 8049.98 762 8055.5V8185.5C762 8191.02 766.477 8195.5 772 8195.5H802C807.523 8195.5 812 8191.02 812 8185.5V8055.5C812 8049.98 807.523 8045.5 802 8045.5Z" fill="#494346"/>
<path id="Vector_127" d="M806 8139.5C805.47 8139.5 804.961 8139.29 804.586 8138.91C804.211 8138.54 804 8138.03 804 8137.5V8130.5H790.5C790.102 8130.5 789.721 8130.34 789.439 8130.06C789.158 8129.78 789 8129.4 789 8129C789 8128.6 789.158 8128.22 789.439 8127.94C789.721 8127.66 790.102 8127.5 790.5 8127.5H804V8121.5C804 8120.97 804.211 8120.46 804.586 8120.09C804.961 8119.71 805.47 8119.5 806 8119.5H808C808.53 8119.5 809.039 8119.71 809.414 8120.09C809.789 8120.46 810 8120.97 810 8121.5V8137.5C810 8138.03 809.789 8138.54 809.414 8138.91C809.039 8139.29 808.53 8139.5 808 8139.5H806Z" fill="white"/>
<path id="Vector_128" d="M140 8045.5H147C148.326 8045.5 149.598 8046.03 150.536 8046.96C151.473 8047.9 152 8049.17 152 8050.5V8121.5C152 8125.21 150.525 8128.77 147.899 8131.4C145.274 8134.03 141.713 8135.5 138 8135.5H67C65.6739 8135.5 64.4021 8134.97 63.4645 8134.04C62.5268 8133.1 62 8131.83 62 8130.5V8123.5C62 8102.81 70.2178 8082.97 84.8457 8068.35C99.4735 8053.72 119.313 8045.5 140 8045.5V8045.5Z" fill="#4A4661"/>
<path id="Vector_129" d="M223 8045.5H193C187.477 8045.5 183 8049.98 183 8055.5V8185.5C183 8191.02 187.477 8195.5 193 8195.5H223C228.523 8195.5 233 8191.02 233 8185.5V8055.5C233 8049.98 228.523 8045.5 223 8045.5Z" fill="#494346"/>
<path id="Vector_130" d="M189 8119.5C189.53 8119.5 190.039 8119.71 190.414 8120.09C190.789 8120.46 191 8120.97 191 8121.5V8127.5H204.5C204.898 8127.5 205.279 8127.66 205.561 8127.94C205.842 8128.22 206 8128.6 206 8129C206 8129.4 205.842 8129.78 205.561 8130.06C205.279 8130.34 204.898 8130.5 204.5 8130.5H191V8137.5C191 8138.03 190.789 8138.54 190.414 8138.91C190.039 8139.29 189.53 8139.5 189 8139.5H187C186.47 8139.5 185.961 8139.29 185.586 8138.91C185.211 8138.54 185 8138.03 185 8137.5V8121.5C185 8120.97 185.211 8120.46 185.586 8120.09C185.961 8119.71 186.47 8119.5 187 8119.5H189Z" fill="white"/>
<g id="Group_32" filter="url(#filter4_d)">
<path id="Vector_131" d="M247 8048C247 8046.62 245.881 8045.5 244.5 8045.5C243.119 8045.5 242 8046.62 242 8048V8193C242 8194.38 243.119 8195.5 244.5 8195.5C245.881 8195.5 247 8194.38 247 8193V8048Z" fill="#AFADB0"/>
</g>
<g id="Group_33" filter="url(#filter5_d)">
<path id="Vector_132" d="M177 8048C177 8046.62 175.881 8045.5 174.5 8045.5C173.119 8045.5 172 8046.62 172 8048V8193C172 8194.38 173.119 8195.5 174.5 8195.5C175.881 8195.5 177 8194.38 177 8193V8048Z" fill="#AFADB0"/>
</g>
<g id="Group_34" filter="url(#filter6_d)">
<path id="Vector_133" d="M756 8048C756 8046.62 754.881 8045.5 753.5 8045.5C752.119 8045.5 751 8046.62 751 8048V8193C751 8194.38 752.119 8195.5 753.5 8195.5C754.881 8195.5 756 8194.38 756 8193V8048Z" fill="#AFADB0"/>
</g>
<g id="Group_35" filter="url(#filter7_d)">
<path id="Vector_134" d="M822 8048C822 8046.62 820.881 8045.5 819.5 8045.5C818.119 8045.5 817 8046.62 817 8048V8193C817 8194.38 818.119 8195.5 819.5 8195.5C820.881 8195.5 822 8194.38 822 8193V8048Z" fill="#AFADB0"/>
</g>
<path id="Vector_135" d="M269.167 8220.5H1000.34V8210.5H275.384L269.167 8220.5Z" fill="#F6D044"/>
<path id="Vector_136" d="M249 8237.5H1000.34V8227.5H255.296L248.996 8237.5H249Z" fill="#F08F38"/>
</g>
<path id="Vector_137" d="M6579 8241.5H6409V8256.5H6579V8241.5Z" fill="white"/>
<path id="Vector_138" d="M4399 8241.5H4229V8256.5H4399V8241.5Z" fill="white"/>
<path id="Vector_139" d="M1129 8241.5H959V8256.5H1129V8241.5Z" fill="white"/>
<path id="Vector_140" d="M3309 8241.5H3139V8256.5H3309V8241.5Z" fill="white"/>
<path id="Vector_141" d="M5489 8241.5H5319V8256.5H5489V8241.5Z" fill="white"/>
<path id="Vector_142" d="M2219 8241.5H2049V8256.5H2219V8241.5Z" fill="white"/>
</g>
<g id="moon" filter="url(#filter8_d)">
<path id="Vector_143" d="M15222 1329.5C15263.4 1329.5 15297 1295.92 15297 1254.5C15297 1213.08 15263.4 1179.5 15222 1179.5C15180.6 1179.5 15147 1213.08 15147 1254.5C15147 1295.92 15180.6 1329.5 15222 1329.5Z" fill="#F4F4F4"/>
</g>
<g id="sun" filter="url(#filter9_d)">
<path id="Vector_144" d="M15077 249.5C15118.4 249.5 15152 215.921 15152 174.5C15152 133.079 15118.4 99.5 15077 99.5C15035.6 99.5 15002 133.079 15002 174.5C15002 215.921 15035.6 249.5 15077 249.5Z" fill="url(#paint0_radial)"/>
</g>
</g>
<defs>
<filter id="filter0_d" x="6780" y="8043.5" width="9" height="154" filterUnits="userSpaceOnUse" color-interpolation-filters="sRGB">
<feFlood flood-opacity="0" result="BackgroundImageFix"/>
<feColorMatrix in="SourceAlpha" type="matrix" values="0 0 0 0 0 0 0 0 0 0 0 0 0 0 0 0 0 0 127 0"/>
<feOffset/>
<feGaussianBlur stdDeviation="1"/>
<feColorMatrix type="matrix" values="0 0 0 0 0 0 0 0 0 0 0 0 0 0 0 0 0 0 0.749 0"/>
<feBlend mode="normal" in2="BackgroundImageFix" result="effect1_dropShadow"/>
<feBlend mode="normal" in="SourceGraphic" in2="effect1_dropShadow" result="shape"/>
</filter>
<filter id="filter1_d" x="6710" y="8043.5" width="9" height="154" filterUnits="userSpaceOnUse" color-interpolation-filters="sRGB">
<feFlood flood-opacity="0" result="BackgroundImageFix"/>
<feColorMatrix in="SourceAlpha" type="matrix" values="0 0 0 0 0 0 0 0 0 0 0 0 0 0 0 0 0 0 127 0"/>
<feOffset/>
<feGaussianBlur stdDeviation="1"/>
<feColorMatrix type="matrix" values="0 0 0 0 0 0 0 0 0 0 0 0 0 0 0 0 0 0 0.749 0"/>
<feBlend mode="normal" in2="BackgroundImageFix" result="effect1_dropShadow"/>
<feBlend mode="normal" in="SourceGraphic" in2="effect1_dropShadow" result="shape"/>
</filter>
<filter id="filter2_d" x="7289" y="8043.5" width="9" height="154" filterUnits="userSpaceOnUse" color-interpolation-filters="sRGB">
<feFlood flood-opacity="0" result="BackgroundImageFix"/>
<feColorMatrix in="SourceAlpha" type="matrix" values="0 0 0 0 0 0 0 0 0 0 0 0 0 0 0 0 0 0 127 0"/>
<feOffset/>
<feGaussianBlur stdDeviation="1"/>
<feColorMatrix type="matrix" values="0 0 0 0 0 0 0 0 0 0 0 0 0 0 0 0 0 0 0.749 0"/>
<feBlend mode="normal" in2="BackgroundImageFix" result="effect1_dropShadow"/>
<feBlend mode="normal" in="SourceGraphic" in2="effect1_dropShadow" result="shape"/>
</filter>
<filter id="filter3_d" x="7355" y="8043.5" width="9" height="154" filterUnits="userSpaceOnUse" color-interpolation-filters="sRGB">
<feFlood flood-opacity="0" result="BackgroundImageFix"/>
<feColorMatrix in="SourceAlpha" type="matrix" values="0 0 0 0 0 0 0 0 0 0 0 0 0 0 0 0 0 0 127 0"/>
<feOffset/>
<feGaussianBlur stdDeviation="1"/>
<feColorMatrix type="matrix" values="0 0 0 0 0 0 0 0 0 0 0 0 0 0 0 0 0 0 0.749 0"/>
<feBlend mode="normal" in2="BackgroundImageFix" result="effect1_dropShadow"/>
<feBlend mode="normal" in="SourceGraphic" in2="effect1_dropShadow" result="shape"/>
</filter>
<filter id="filter4_d" x="240" y="8043.5" width="9" height="154" filterUnits="userSpaceOnUse" color-interpolation-filters="sRGB">
<feFlood flood-opacity="0" result="BackgroundImageFix"/>
<feColorMatrix in="SourceAlpha" type="matrix" values="0 0 0 0 0 0 0 0 0 0 0 0 0 0 0 0 0 0 127 0"/>
<feOffset/>
<feGaussianBlur stdDeviation="1"/>
<feColorMatrix type="matrix" values="0 0 0 0 0 0 0 0 0 0 0 0 0 0 0 0 0 0 0.749 0"/>
<feBlend mode="normal" in2="BackgroundImageFix" result="effect1_dropShadow"/>
<feBlend mode="normal" in="SourceGraphic" in2="effect1_dropShadow" result="shape"/>
</filter>
<filter id="filter5_d" x="170" y="8043.5" width="9" height="154" filterUnits="userSpaceOnUse" color-interpolation-filters="sRGB">
<feFlood flood-opacity="0" result="BackgroundImageFix"/>
<feColorMatrix in="SourceAlpha" type="matrix" values="0 0 0 0 0 0 0 0 0 0 0 0 0 0 0 0 0 0 127 0"/>
<feOffset/>
<feGaussianBlur stdDeviation="1"/>
<feColorMatrix type="matrix" values="0 0 0 0 0 0 0 0 0 0 0 0 0 0 0 0 0 0 0.749 0"/>
<feBlend mode="normal" in2="BackgroundImageFix" result="effect1_dropShadow"/>
<feBlend mode="normal" in="SourceGraphic" in2="effect1_dropShadow" result="shape"/>
</filter>
<filter id="filter6_d" x="749" y="8043.5" width="9" height="154" filterUnits="userSpaceOnUse" color-interpolation-filters="sRGB">
<feFlood flood-opacity="0" result="BackgroundImageFix"/>
<feColorMatrix in="SourceAlpha" type="matrix" values="0 0 0 0 0 0 0 0 0 0 0 0 0 0 0 0 0 0 127 0"/>
<feOffset/>
<feGaussianBlur stdDeviation="1"/>
<feColorMatrix type="matrix" values="0 0 0 0 0 0 0 0 0 0 0 0 0 0 0 0 0 0 0.749 0"/>
<feBlend mode="normal" in2="BackgroundImageFix" result="effect1_dropShadow"/>
<feBlend mode="normal" in="SourceGraphic" in2="effect1_dropShadow" result="shape"/>
</filter>
<filter id="filter7_d" x="815" y="8043.5" width="9" height="154" filterUnits="userSpaceOnUse" color-interpolation-filters="sRGB">
<feFlood flood-opacity="0" result="BackgroundImageFix"/>
<feColorMatrix in="SourceAlpha" type="matrix" values="0 0 0 0 0 0 0 0 0 0 0 0 0 0 0 0 0 0 127 0"/>
<feOffset/>
<feGaussianBlur stdDeviation="1"/>
<feColorMatrix type="matrix" values="0 0 0 0 0 0 0 0 0 0 0 0 0 0 0 0 0 0 0.749 0"/>
<feBlend mode="normal" in2="BackgroundImageFix" result="effect1_dropShadow"/>
<feBlend mode="normal" in="SourceGraphic" in2="effect1_dropShadow" result="shape"/>
</filter>
<filter id="filter8_d" x="15048" y="1080.5" width="348" height="348" filterUnits="userSpaceOnUse" color-interpolation-filters="sRGB">
<feFlood flood-opacity="0" result="BackgroundImageFix"/>
<feColorMatrix in="SourceAlpha" type="matrix" values="0 0 0 0 0 0 0 0 0 0 0 0 0 0 0 0 0 0 127 0"/>
<feOffset/>
<feGaussianBlur stdDeviation="49.5"/>
<feColorMatrix type="matrix" values="0 0 0 0 0.956863 0 0 0 0 0.956863 0 0 0 0 0.956863 0 0 0 1 0"/>
<feBlend mode="normal" in2="BackgroundImageFix" result="effect1_dropShadow"/>
<feBlend mode="normal" in="SourceGraphic" in2="effect1_dropShadow" result="shape"/>
</filter>
<filter id="filter9_d" x="14903" y="0.5" width="348" height="348" filterUnits="userSpaceOnUse" color-interpolation-filters="sRGB">
<feFlood flood-opacity="0" result="BackgroundImageFix"/>
<feColorMatrix in="SourceAlpha" type="matrix" values="0 0 0 0 0 0 0 0 0 0 0 0 0 0 0 0 0 0 127 0"/>
<feOffset/>
<feGaussianBlur stdDeviation="49.5"/>
<feColorMatrix type="matrix" values="0 0 0 0 0.976471 0 0 0 0 0.843137 0 0 0 0 0.109804 0 0 0 1 0"/>
<feBlend mode="normal" in2="BackgroundImageFix" result="effect1_dropShadow"/>
<feBlend mode="normal" in="SourceGraphic" in2="effect1_dropShadow" result="shape"/>
</filter>
<radialGradient id="paint0_radial" cx="0" cy="0" r="1" gradientUnits="userSpaceOnUse" gradientTransform="translate(15077 174.5) scale(91.5)">
<stop stop-color="#EF8E38"/>
<stop offset="1" stop-color="#F9D71C"/>
</radialGradient>
</defs>
</svg>
