<svg xmlns="http://www.w3.org/2000/svg" width="561.366" height="659" viewBox="0 0 561.366 659"><defs><style>.a{fill:#9c5e23;stroke:rgba(0,0,0,0);stroke-miterlimit:10;}</style></defs><path class="a" d="M371.5,658,324,623.5V622h2.5L354,612l6-15.5-6-3.5,1.5-3,6,2,4-8h14l1.5,1.5,1,5-1,2,3,4v4l1.5,1.5h2l6.5,6.5,2,3V618h2.5l3.5,4.5-5,10-1,8.5h-3v1.5l-3.5,6.5-1-1-4.5,4.5,1,4.5h-5v-3h-2.5l-4.5,2.5V658ZM272,586.5l-3.5-9.5-8.5-1.5,1-3-1-2,5-3.5v-3h1.5l1.5-1.5-1-1V557h1.5l1-1h5l1,1,1.5-1.5v-5l2-3v-7l1-5,2-2V529h2.5l13-7,5.5,3.5L319.5,543l1-1h5l11,5,8,1,15-3,4,3,3-2,3,3H372l-2,13.5-8,26-1.5,1.5-6-2-2.5,4.5,6,3.5-5,14-31.5,12Zm124,21-4.5-4.5-6.5-3.5,1-5.5-3-1.5,1-4-1-4.5h-2l-.5-2h-14l-.5-2.5,6-18,2-13L419.5,495,439,522.5l2,6-1,1V541h1.5l-1.5,2.5-1,6-3,3V561h-1.5l-5,3-3-2-2.5,5.5,1,2L418.5,584l-6-3-1.5,1.5,1,1,2.5,3.5H418v4.5L412,607l-4-.5,1-2.5h-2.5l-3.5,3.5V609h-3.5l-2,3ZM266,555v-3.5l-2-8.5L147,477.5l1-9v-8l-2-3,3-8-1-2,3-5-3-6,19-20,2-3v-3l-1-3.5,12,5-2,10,9.5,1,10,7h7l1.5,1.5-1,4,2.5.5,4.5-1-1,5.5L223.5,455H225v3.5l-1,2,3,7.5h3.5l3.5,2.5,1.5,2.5,6,1,17,10,5.5,1-2,3.5V492h-2.5l-2.5,2.5,17,20,6,9,1,7-3,5v6l-1,1v5l-2,2V555Zm103.5-8-3-3-3.5,1-30-41.5,5-2.5v-2h1.5l4.5-3.5,12-25,1-8-3-11,3-3v-2l-1-14-1-1-1-28-37-67,7-4,.5-1.5,6,3,8,1,4-1,1,1h5l2,2h4l3-2h5l6,5,2-2H373l1.5,3,3-2h3l8,4,9.5,8,1,7.5,2,3v4l2,3.5,4,1v3h2.5l4.5,3,4,10.5,1,8,2,3-1,4,3,3,5,10v2l2,4,1,15,6,8v8l1,2-1,5,3,8-1,3,3,7,2,10V501l8.5,1,2-2h3l4,3,13.5,3.5-1.5,1.5h-4l-4-2-11,3-9.5,6-4.5,7-21-29L379,539.5l-5,7.5Zm-28-1-1-1h-5l-7-4h-3l-6.5-5.5-2-4-1-8L306,501l-4-1-1.5-4-5.5-2-5-11-4.5-1-1.5.5-1-2,1-5-3-6v-4l-5-10,1-2L267,437h2.5l4.5-4.5-1-3-7-7v-2l-6.5-9.5H258v-3l8.5-1,5,4,5.5-11.5-2-2-1-6,2.5-3.5H278v-2.5l2-2v-3l-1-4,1-3-2-2v-4l6-9v-4l2.5-4.5h8l3.5-3.5,1-6,3.5-4.5,2,1,2-2,2,1h2l2,1,2.5-1,37,67.5,3,45-3,3,1,1,3,14L342,496l-3.5,1-4,4H330l2,4.5,28,37L346.5,546Zm-42-26L282,527v-4.5l-23-28,4-2,3-8-1.5-1.5-9-2-12-8-7.5-1-3.5-5-5.5-2.5-1-6,5-3-1-1v-7l2.5-1.5,4,6h4l3.5-2v-2.5l-3-3v-4l1.5-1.5,4,1,4-1,9.5,5.5,1.5,2.5,2.5-1,.5-2,2.5,1v-2h1.5l6.5,11.5-1,3,5,8v4l3,6v7l1,2.5,4.5-1,2.5,2.5,1,5.5h2v1.5l1,2.5h3.5l3.5,3.5,1.5,2.5,2.5,1.5,10,22,1,8,5,7-1.5.5Zm171-16-9-3-2-2H446V488.5l-3-13,15.5-8.5,8-1,27-13,6-2,11-1,1,1h5l1-1h11l1-1,5.5.5L522,466h-5.5l-.5-2h-3v4h-4.5l-1-1-3,3-5.5,2,2-10-4,1.5-1,2v2l-.5,6.5-1.5-4.5-3.5-3.5-2.5,1.5,1,2-1,1,1.5,1.5H491v3.5l2,4V485h-3.5l-5,5-1-1-1.5,1.5,2.5,4.5H486v1.5l-3,4.5-6.5,3ZM506,477l-3.5,2h-4l1-2,7-4,2.5,1-2.5,5ZM86.5,445,54,425.5,52,415l-4-2.5-3-10,2.5-3.5,11-1,14-4h4l14,10,6-4h3l3.5-2,1-5h2v-1.5l1-2.5,5-2.5-9-7-1-3,12-3.5v3.5l3.5,3.5,3.5-2.5,3-9.5h4v-1.5l1-2.5h2v2h1.5l7.5,5.5,1,3.5-7-1v2.5l4.5,4.5,10-4,7.5,9.5-2,4,1,4,2.5,2.5,4.5-1,5,10.5v7l-20,22v3l2,4-3,5,1,4-3,7,2,2v6l-1,9.5ZM441,469.5v-7l-2-4v-15l-6-8-2-15,.5-1.5H430v-2.5l-1-3-7-14,1-2-2-3-3-14-3.5-5.5H413v-1.5l-5-2,1-2-6-4v-4L397.5,349l-4.5-3.5-1.5-2.5-9-5-6.5-1v2h-2l-.5-2h-6l-6-4h-4l-6.5,3v-2h-1.5l-9.5-2-1-3.5v-10l1-1v-5l-4-11v-4l-2-3,7.5-.5,6-6,5-2h4l1.5-1.5V283h4.5l7.5-4.5,4-8,4.5-4.5,8-5,2.5,1.5,6.5,14.5,1-1,2.5,2.5,7,10v2l-1,1,3.5,3.5,6,3,7,1h2l15.5,8.5-1,2,7.5,6.5,7,1,3-1,1,1h7L494,296.5V295h1.5l2.5-1v95.5l38,49,2,4V447l-25.5,2-3-1-1,1h-10l-2,2-5,1-20,10-7,2h-2L442,473Zm65.5.5H509v2ZM226,456v-1.5l-6-5-7-9v-4l1-1-2-2-1-4.5h-2v-1.5l1-2.5h2.5l2-2H221v-2h2v-1.5l3-1.5,3-6.5-1-2,3.5-2.5h4l4,3,5.5-7.5-7-6-3.5-5.5-1.5-.5,1.5-3.5,4,4,8,1,3,3h3l8-5,1,1,2.5-2.5V386h3v1.5l3.5,1.5,3.5-1-2,5.5,3,6-3,8.5-3.5-2h-11l-1.5,3.5,1,2.5h2v1.5l8.5,13.5,3.5,2.5,1,3-2.5,2.5h-4l-1.5,1.5,3,4-1.5,2.5-2-1-2.5,1.5-2.5-3.5-11-3-4,1-2.5-1-2,3.5v3l1,3.5,3,1.5-2.5,1.5h-4l-3-6-4.5,1-1,2.5v7l.5,1.5Zm-22.5-28h-7l-4.5-3.5,1-4.5,8.5-4,2,1,2-2H208v2h1.5l1,1h6l2-1,2.5,1-1.5,3-5-1-2.5,1v2h-1.5l-3.5,3.5v2l1.5,2.5Zm-153-4L10,400.5l2-.5v-6.5l4-4V387H13v-2l3.5-1,3,4,6,4,6-3,4.5,2,2.5-7H40v-1.5l2-5.5h4v5.5l-1,1v12l1,3-3,5,2,2,2,8,4,4,1,7Zm136-2-6.5-2,2-7.5,4-6,1-8-2-5,2-2V389l5.5-4,1.5,3,13.5,7,10,9,9,1,7-2,1,2h-4l-3.5,2-1,2.5,1,3-3.5,4.5-6-2-4,2-3.5-1,1-4-3.5-1-6,4-2-1-8.5,6.5V422ZM167,403.5l-4-9.5-4.5,1-2.5-5.5,1-5-6-7V375l-11.5,4-2-3,3,1,2.5-2.5-1-1-2-5.5h-3v-2h-1.5l-3.5-2.5V362h-1.5l-2.5-1-2.5,6-3.5,1.5-1,5-3.5,4.5L113,367.5l-10-16,7.5-2.5,3.5,2.5.5-1.5,2,1,2.5-2.5,2-6-2.5-3.5-2.5-.5,2.5-4.5,4.5,5.5v4l1.5,1.5,4.5-2.5,1-4.5,3-1.5,2.5-3.5,1.5,3h2v-1.5l4.5-6.5,7,3,3.5-6.5V316l4.5-1,3.5,4.5v3l-2,3,1,4-1,1v5l-3,3v3l2,6-1,1v5l4,1.5v3h4.5l3.5,1.5,1,10,1.5,1.5H175v3h1.5l2,1,1.5-.5,1,4-1,3,2,5v8l3,4v6l-4.5,6.5Zm71.5,2.5-7-5-7,3-3-2h-4l-9-8L196,386.5l-2-11v-2l1.5-2.5h5l7,3,4-2h5l5,4h4l3,3H231l2,7.5-3,4,7,6,2.5,4.5,3.5,2.5-2.5,2.5ZM75,391.5l3-2,2-4-2-3v-5l-1-12,5.5-2.5,3,2,3.5-1v-4h3l-1,4.5,2,3.5,4-1,1.5-4,5.5-2.5.5-3.5,7.5,13.5-12,5,2,6.5,3,1.5V385h1.5l2.5,1.5-3,1.5-5.5,9-11,5Zm-28-9,1-1v-7l1.5-1.5,2.5-1.5V370h1.5l6-3H63v4l-3,1.5,1,2L58,376v3h1.5l9.5,6.5,4,6L60.5,396,47,397ZM245.5,390l-7-1-1.5-1.5-2-3,1.5-.5,5,1,8.5-3.5-1-1v-5l1-2-1-3-4-7,1-2L239.5,345l11,10,8,3,5,4,6,1,7-6,2,3,1.5.5-4,7v3l2,5-1,3,2,3-3.5,5.5-4-1-2,1-3-3h-2l-4,5-11,4ZM184,391.5v-5l-2-6,1-2-1-4-2.5-2.5-2,1-1.5-3h-3v-5.5l-3-8.5h-5.5l-4.5-3.5-1-2,2-2v-3l-3-6,4-1.5v-6.5l1-2.5,4.5-1h2l4.5-1-1-2.5,4.5-2.5,1.5,4,4.5-1,1.5,4.5-3,3v3l7,4,2,3-5,8v6l4,7-1,3,4,8,1,9-1.5-.5-3.5,1.5-2.5,3.5H185v3.5ZM68.5,383,61,378.5l2-4-.5-1.5,2,1,.5-4.5L64,365l3-1.5-2.5-.5-9,5h-3L47,372.5,45.5,375l-4,1L39,378.5v3L33.5,389l-2-2H29v2H26.5l-1,1-3-3H20v-1.5L15.5,382l-2,2H8L6,373.5l3-3V367l5-1v-4.5l2.5-2.5h2l3,3,5,1,3.5-2.5V366h2.5l6.5-5.5L37,357l-3-1.5,1-3.5,4.5-1,6,2h9l1-1,1.5,1.5,2,3,11,4-3,2,1.5.5,5-3,1.5,3.5-.5,1.5,1.5.5-1,3,2,9-1,5,2,4L73.5,390Zm167-1-1.5.5-2-5.5-5-1,1-3.5-3-3,1-1,1-5,4-6,5.5-14.5,7.5,18.5v5l4,5v3l-1,5,.5,1.5-10,2Zm-13-8-7-4h-4l-3,2h-4l-4-3h-5l-3,2-1.5-2.5-1-9-3-4,1-3,5-11-1-1,1.5-1.5,7-2,3.5,5h-2v3.5l1,2.5,10.5,3,1.5-1.5,2-9-3-3V334l5.5-4,3.5,1,1.5,3,10.5,6.5L228,360h-2v3.5l-2,3v4l2,3.5ZM93,363.5l1-4.5-4.5-1L87,360.5V363l-6.5-2-4,3-.5-1.5v-2l-2-3v-4l5.5-9.5H81v-1.5l1.5-1.5,1,1h3l5,5,3,1,2.5-1v-4.5L95.5,341,91,337.5l3.5-1.5,2,2h3l3.5-2-1-5.5,2.5-2.5,12.5,4.5-3,7,5,3-2,6.5-2.5-1h-2l-3-1-8.5,3,3,5.5-2,2V361H98.5L96,363.5,94.5,366ZM252.5,354,239,342.5l2.5-.5,8,2h7l5,2,8-4,2.5,1v-2h1.5l3.5-4.5-1-4.5,9.5-7,3,3H292v-2h1.5l12.5,6.5-1,2.5h-3.5l-2.5,2.5L294.5,348h-8l-2.5,1-2,5.5,1,2-1,2.5-3-1.5-1-2,1-1-1.5-1.5-2.5,1.5-1.5,3.5-3,2-5,1Zm-184,4-3-2-2,1L58,354l-1-4.5,2.5,1.5,3.5-1v-4H61v-1.5L59,340l-5-3.5,1-3.5-2.5,1-3-1-6,4-1-1-2,2-3,2L32,338v-4h1.5l6-3,3,2,1.5-3h3.5l3,2,8-4-.5,1.5,1.5,2.5h7l1,1,4-1,2,2h4l3-3,1,1H87v2.5l5.5,7.5H95v1.5l1,2.5H93.5l-6-6H80l-1.5,3L76,344.5v3l-4,6V358ZM20,350.5l1-1L20,343l-4-1.5V340H11.5l-2-3H13v-2.5L12,331l-7,1,3-12,2-.5v-6l3.5-4.5,2,2,2-2,2-1h8l.5,1.5,1,2L28,317l2.5-1,.5,3h2v1.5l4,2.5v-2h1.5l1.5-.5v6l-2,2,.5,1.5-6,2L30,334.5l1,5-1.5-.5L25,340l1,5,3,1.5V348H27v2H25.5l-4,2ZM204,346v-2.5l2-2-1-3.5h-2v-1.5l-2.5-1.5-10,4-2-3h-4l-1.5-1.5,2.5-3.5h3l1.5-1.5-4-3-2.5-3.5-3.5,1-1.5-3h-3l-4.5,3.5-1.5,2.5-5,1-2.5-1,2-3.5v-4l-6-8.5h3.5l1.5-1.5-2-4,1-5-2-2,1-1,3-7v-4l-1-2.5,3.5-1,5.5-5.5,4.5-6.5,1,1h14l4.5-1v-2h1.5l1-1H200v1.5l5.5,8.5,1-1,1.5,1.5L203,289l36,4-1,3.5,1,2v2l2,3v5l-2,2-1,5.5h-3v1.5l-5,3.5v2h-1.5l-3,2h-3l-7.5,6.5V333h-1.5l-1.5,1.5v4l3,1.5v4.5l-2,4.5Zm52.5-4h-9l-10-2L223,329.5l-1-2,7.5-2.5,5.5-4.5,2.5-3.5,2.5-1.5,1-5.5,5.5-1,6,2,1.5-4,5-3.5-4-5v-2L286.5,284H289v1.5l4,9,3,12.5h2v6.5l1.5.5,5.5,4.5,5.5,11.5H312v1.5l1,3-1.5-.5-6-4H302v-2h-1.5l-8-4-4,2-2-2h-3l-7,6H274l1,6.5-5.5,4.5-1-1-3,3-6,1ZM125,339.5l-4-7.5-4.5-1-2-2H111l1.5-4H114v-3.5l1-3.5h4.5l4.5-3.5-1-7,1-4.5-4-2.5-1-5-3-4-1-7,3-6-1-3,1-1v-7l-1-3,1-2-1-2,6-15-2-10,1-3-1-2,7.5-17.5,22,34h5l.5,1.5,9.5,11.5,3.5,1,1,4,6,3.5L166.5,281l-4.5,1-1,3.5,2,3-5,10,2,2v4l-1,3,.5,1.5-2.5,1.5-2.5,4.5H153v1.5l-1,1V324h-2v4.5l-1.5-.5-3.5-1-1.5-3-4-2-1.5,2.5,3,4-2,4.5-4.5-2-4,5H128v4.5l-3,2ZM91.5,335,89,336v-4.5L87.5,330l-4,1-2-2H79l-1.5,3H74l-.5-2h-7l-6.5-.5,3-5v-3l2.5-2.5H67v-1.5l2-4.5h2v-3.5l-2-5,1-1v-5L68,294H66v-1.5L64.5,290h11l7.5,2.5-2,3,7,13,5.5,5.5,2.5,1.5L95,320l4,1,3,6.5-1,1v6L99.5,336ZM311,327.5,304,314l-4-1v-6.5l-1.5-.5L290,282l-36,12-1,3.5,3,7.5h-3v1.5l-1,2.5-9-2v-3.5l-3-4v-4l1-3.5-3.5-1L206,288l4-12h6.5l5-2,2,2,7,1,2-1,8,12,5,1,3-1,1,1h6l9-7,2,1,7.5-2,1.5-3,4,1,6-5H291l-2-3.5-1-19-6-8V240l4.5-2L310,219.5l3-12.5h2v-1.5L352.5,182,364,197.5l3,8,6.5,7.5,11.5,8.5L375,225l12,31.5-1.5,3.5L373,268.5l-3,7-4.5,4.5-7,1-1.5,1.5V284h-4.5l-5,2-7,6h-7l-2.5,1.5,3,3,1,8,3,7v7l-1,1v8l1,4.5h-7.5l-3-2h-4l-3,3-4,1Zm-309,0v-2l-2-4,2-2,1-8,8-9v-4l-1-1,2-2,2-11,1.5-1.5,5-1,2.5-2.5,3.5-5.5,2.5,1,1,7-3,1.5v6l2,3-4,7,4,3L26.5,307h-6L18,306v2H14.5l-2-1L8,313.5v4l.5,1.5L6,320.5v4L2.5,330Zm40-4,2.5-2.5,11-1,9-5,1.5,1.5L63.5,319H62v1.5L59.5,326l-6,3h-6l-4-1L41,329.5Zm61,3.5-4.5-8H97v-3h2v-1.5l-8-5-8-14,2-5.5-17-2.5,4.5-2.5,2.5,1,.5-2,3,1,5.5-2-1-14H81v-5h7.5l1-1,4,3,6-3,6.5,4-1,3.5,2,4-1,3.5h-4.5l-1.5,1.5,5,7v4l-1,1v10l3,4v5l-1,2,2,3.5h3.5l1.5,1.5V322h-1.5l-2.5,6Zm-63.5-9-1,1H36v-2H33v-1.5l1-2.5-3.5,1-.5-2.5v-2l-1-3,2-5L28,300l1.5-4,5,1,1-1,2,2,4.5-1v2h1.5l2-2,1,1,7.5-5v-2h2v-1.5l3-1.5,2.5-4,1.5,3.5-2,3,4,2.5,3,5.5v4l-1,3,2,6L66.5,314l-7,1-4,3-9,1-4,2Zm75-2-2-2-1.5.5V312h-3v-1.5l1-5-3-3v-13l1-3-4-6,5-.5v-9.5l-1-1,1-2-2-3.5-4-1.5V261H97v-2.5l1-3.5-9-3-5-6.5,1.5-.5,10,5,8.5-6v-2h1.5l3.5-2v-2h5.5l4-3,1.5.5v8l1,3-5,9-1,12,1,1v7l-1,2,1,2-3,5,2,3-1,4,4,6v4l1.5,1.5,2.5,1.5v10l-1.5,1.5Zm342-1-4-1-4,1-8.5-5.5V305h-1.5l-16-9-2,2-1-1-5-1-7.5-4.5,1-3L397.5,274l-1.5.5L390,259l-2-.5,1-2L377,226l10-3.5-5.5-6.5-9.5-6-6-12.5-10-13-1-4.5h2v-1.5l-4-6v-15l-3-5,2-3-1-2.5h5.5l2.5-2.5,4-10v-9l2.5-2.5H367v-1.5l1-2.5,7.5-2,5.5-4.5,1-4-3-1.5V97.5L377,91h2V87.5l2-2V82l11,1,1.5,3H399V83.5l2-5.5,4.5-3,1.5,5.5v14l1.5,1.5,14,6,19,19,12.5,8.5,4,20L468,167l11.5,4,6,6,6.5,3,1.5,3,4-7,.5,115.5-6,2.5v3h-1.5l-16,10-5,5-7,3Zm-411-20-4,1-2-1L37,296v-2H34.5l-4,1,.5-1.5-3-7,4-7-1-1,2-2L31.5,274,25,272.5l7-4v-2l3-3,1-9,2-4.5,9,2.5v2l7.5,9.5H56v2.5l2,5.5,5.5-1,6-4,7-1,3.5,2.5,2,3V282l-8.5,2h-2l-5,2L64,285v-2H60.5L49,293.5,47.5,296Zm202-9-5,1-2.5-1-4-10-4.5-2-1,1h-5l-3-3h-3l-3,2L205,276l-3-9-3.5-1-5,4h-14l-1.5-3-4-1v-2h-1.5l-1-2h2l3.5-3.5-2-3v-8l-1-1,1-1-1.5-1.5H172v-1.5l1.5-2.5,1,1,1.5-1.5-1-4.5-2-.5,4-4-1-1V228h-2.5l-8.5-5.5V219h1.5l1-1,2,2,3.5-2.5,1-3.5,3-1.5,4-9v-4l-1-4,2-7v-2l1-7,2-4-2,1-4,12,1,4-2,4,1,1v6L170.5,218l-.5-4-3,1.5V217h-1.5l-2.5,2.5V225h2.5l9.5,5.5-5,5,1,1-1,4V246l3,.5v7l2,4-2.5,3.5-6-3-4.5-4.5-6.5-8.5h-5l-.5-1.5L127.5,209l-10-6-9-1-2.5-2.5-1.5-3.5-3.5-2.5-2-3,1-5-3-6-5-20,1-5-4-8v-3L82.5,136,80,137.5l-1,10L76.5,151,75,147l-3,.5,1,4.5H70v-3.5L65.5,140l-2,1L60,136.5l-1-9L56.5,123l-5-2-2,1L48,119l-3-1.5-1-11L42,103l-6-1V93.5l-4-8,2-3L32.5,80,36,77.5l1-11-5-4L30.5,60h-6l-3-3h-3L16,58V55h4V51.5L18.5,50H12l1-4.5-4-5,1-4-2-2v-5L7,27l-2-.5L19.5,11l12-11h108l.5,1.5-1,1v6l-2,3,1,1v22l-4,7-1,8,1,1v7l-2,2v10l2,4.5,3,1.5-1,3,4,1.5-1,2.5v7l1,2.5h3v1.5l2,3.5,8,3.5,1,7-2,6,1,2.5h4.5l4.5,2.5,1.5,2.5,7.5,4v2.5l4,6-1,1v5l1,2.5,5,3.5,1,6-1,2,6.5,7.5,6.5,3-1,5.5-2.5,2.5-4.5,1v2h2.5l5.5-3.5,2-7-9-5.5.5-2,2,1,3.5-2,3.5-7L206,170.5l3,13,1.5,1.5,8,3H224v3.5l1.5,1.5,7.5,5.5,1,3,5.5,5.5,2.5,1.5L255,234l8.5-3,11-1,3-3,5.5,4.5v6l-2,2v6l6,9v15l1,2.5h-2.5l-7,5-3-1-4,4-8,1-6,5-7,1ZM58,263.5,56.5,262,49,255.5l-1-2,1-2.5-4-1,1.5-4,3.5-1.5V243h1.5l1-1h8l1.5-1.5,1.5-2.5.5,2,5.5,1,2-1,4,6,6-1,4,5H87v1.5l8,5,1,2L93.5,264l-3-3h-2l-2,2h-6l-2,2-5-1L59,270ZM82.5,242,75,244v-2.5L71.5,238,66,239l-1.5-3L62,237v-3.5l-2-2,1-2-.5-1.5h2l2.5-2.5,1-7.5,6-3.5,2-4v-16l2-5-3-3v-5l1-4-5-11v-3l-3-4V156l7.5-2,1.5.5V153h2.5l2.5-3.5L81,139l6,4.5v3l5,10-2,6,4,9,4,17-1,2,7,8,2,4.5,11.5,2,6.5,3.5V210l2,.5v5l-7,16,1,1-1.5,1.5-5,2h-4l-15,12ZM284,229.5l-1.5-1.5-5-3-3,3-10,1-8.5,3-11-21.5-5.5-6.5-3.5-2.5-1-3-6.5-6.5-3.5-1v-4h-2.5l-8-2-4.5-3.5-2-11-13-26-1-10,1-4-1-4,1-2-1.5-3.5-3-1-2,1-3-1h-3l-9.5-7.5-1-7L164.5,95,162,93.5l-1-3,1-1v-5l-3-8,1-4v-5l3-3,1-5-2-2-1-7-3-4,3-5v-5l2-5L162,29l-2-.5v-8l-2-2,1-1,1-5.5,2.5,1h43l8,4h3l5.5,4.5,1.5,2.5L288,65.5l1.5,3.5,7,3,1-1h6l1,1,14,1,6-4,.5,2h4.5l10,5,8,2h17l5,3,7,1,2.5-1-2,8h-2v2.5l2,5,1,11.5h2v2.5l-6.5,5.5-6.5,2-5,6.5-1,11-4,9.5h-6.5l-1.5,1.5,1,3-2,4,1,2.5h2v2.5l1,5-1,1v7l4,7L329.5,195,314,203v3h-1.5l-1.5,1.5-2,10-3.5,3.5-21,16ZM477.5,168l-8.5-3.5-8-12-4-12-1-11-1-2.5-12.5-7L429,106.5l-4.5-5.5L409,93.5l-1-21,7-7L420.5,53l24-12,11-3,5-4,15-6h3l6-4,5.5,3.5,3.5,5.5,7.5,3.5,7.5,9.5,2,1h11l22-3,3,1,2-2h4l7.5,3L527,95.5,510.5,113,498,124.5v46l-4.5,9.5Z" transform="translate(0.608 0.5)"/></svg>