<svg xmlns="http://www.w3.org/2000/svg" width="140" height="140" viewBox="0 0 140 140"><defs><style>.a,.b,.d{fill:#fafad2;}.b{font-size:22px;font-family:JosefinSans-BoldItalic, Josefin Sans;font-weight:700;font-style:italic;}.c,.d{stroke:none;}</style></defs><g transform="translate(157 -382)"><g class="a" transform="translate(-157 382)"><path class="c" d="M 64.99980163574219 137.5003967285156 C 56.56129837036133 137.5003967285156 48.37653732299805 135.8482513427734 40.67287826538086 132.5898742675781 C 33.23077774047852 129.4420928955078 26.54651832580566 124.9352416992188 20.8057975769043 119.1944961547852 C 15.06511878967285 113.4537811279297 10.55829811096191 106.7694396972656 7.410538196563721 99.32717895507813 C 4.152138233184814 91.62335968017578 2.499998331069946 83.43841552734375 2.499998331069946 74.99971771240234 C 2.499998331069946 70.161376953125 3.05439829826355 65.34278106689453 4.147798538208008 60.67779922485352 C 5.210518360137939 56.14365768432617 6.789478302001953 51.72193908691406 8.840798377990723 47.53547668457031 C 9.525310516357422 46.13849639892578 10.26317119598389 44.76601028442383 11.05201244354248 43.42170715332031 C 8.719708442687988 50.336181640625 7.499918460845947 57.63051986694336 7.499918460845947 64.99980163574219 C 7.499918460845947 102.2193145751953 37.78019714355469 132.4996032714844 74.99971771240234 132.4996032714844 C 82.369140625 132.4996032714844 89.66541290283203 131.2792205810547 96.57994842529297 128.9469604492188 C 95.23514556884766 129.7361602783203 93.8616943359375 130.4745788574219 92.46415710449219 131.1593780517578 C 88.27785491943359 133.210693359375 83.85611724853516 134.7897186279297 79.32173919677734 135.8525543212891 C 74.65679931640625 136.9459838867188 69.83819580078125 137.5003967285156 64.99980163574219 137.5003967285156 Z M 128.9470672607422 96.57976531982422 C 131.2795562744141 89.66488647460938 132.4996032714844 82.36953735351563 132.4996032714844 74.99971771240234 C 132.4996032714844 37.78019714355469 102.2193145751953 7.499918460845947 64.99980163574219 7.499918460845947 C 57.63051986694336 7.499918460845947 50.336181640625 8.719709396362305 43.42170333862305 11.0520133972168 C 44.76600646972656 10.2631721496582 46.13849639892578 9.525310516357422 47.53547668457031 8.840798377990723 C 51.72193908691406 6.789478302001953 56.14365768432617 5.210518360137939 60.67779922485352 4.147798538208008 C 65.34278106689453 3.05439829826355 70.161376953125 2.499998331069946 74.99971771240234 2.499998331069946 C 83.43841552734375 2.499998331069946 91.62335968017578 4.152138233184814 99.32717895507813 7.410538196563721 C 106.7694396972656 10.55829811096191 113.4537811279297 15.06511878967285 119.1944961547852 20.80581855773926 C 124.9352416992188 26.54651832580566 129.4420928955078 33.23077774047852 132.5898742675781 40.67287826538086 C 135.8482513427734 48.37653732299805 137.5003967285156 56.56129837036133 137.5003967285156 64.99980163574219 C 137.5003967285156 69.83819580078125 136.9459838867188 74.65679931640625 135.8525390625 79.32173919677734 C 134.7897186279297 83.85611724853516 133.210693359375 88.27785491943359 131.1593933105469 92.46414184570313 C 130.4745941162109 93.86168670654297 129.7362670898438 95.23496246337891 128.9470672607422 96.57976531982422 Z"/><path class="d" d="M 64.99980926513672 135.0003967285156 C 66.60900115966797 135.0003967285156 68.21537780761719 134.9365997314453 69.81443023681641 134.8095397949219 C 35.34160995483398 132.2742767333984 7.729026794433594 104.6626586914063 5.1903977394104 70.19075775146484 C 5.063667774200439 71.78784942626953 5.000002861022949 73.39256286621094 5.000002861022949 74.99971771240234 C 5.000002861022949 83.10202789306641 6.585698127746582 90.95928192138672 9.713046073913574 98.35328674316406 C 12.73478507995605 105.4975433349609 17.06169891357422 111.9147872924805 22.57356834411621 117.4267196655273 C 28.08550262451172 122.9386749267578 34.50265502929688 127.2656326293945 41.64676284790039 130.287353515625 C 49.04061126708984 133.4147033691406 56.89769744873047 135.0003967285156 64.99980926513672 135.0003967285156 M 134.8095397949219 69.81443023681641 C 134.9365997314453 68.21537780761719 135.0003967285156 66.60900115966797 135.0003967285156 64.99980926513672 C 135.0003967285156 56.89769744873047 133.4147033691406 49.04061126708984 130.287353515625 41.64676284790039 C 127.2656326293945 34.50265502929688 122.9386749267578 28.08550262451172 117.4267196655273 22.57356834411621 C 111.9147872924805 17.06169891357422 105.4975433349609 12.73478507995605 98.35328674316406 9.713046073913574 C 90.95928192138672 6.585698127746582 83.10202789306641 5.000002861022949 74.99971771240234 5.000002861022949 C 73.39256286621094 5.000002861022949 71.78784942626953 5.063667774200439 70.19075775146484 5.1903977394104 C 104.6626586914063 7.729026794433594 132.2742767333984 35.34160995483398 134.8095397949219 69.81443023681641 M 64.99980926513672 140.0003967285156 C 56.22491455078125 140.0003967285156 47.71248245239258 138.2818145751953 39.69900131225586 134.8923797607422 C 31.9588508605957 131.6185455322266 25.00750350952148 126.9317626953125 19.03802490234375 120.9622421264648 C 13.06854629516602 114.9926986694336 8.381829261779785 108.0412673950195 5.108024597167969 100.301025390625 C 1.718589663505554 92.28739166259766 2.71208386948274e-06 83.77481079101563 2.71208386948274e-06 74.99971771240234 C 2.71208386948274e-06 69.96952819824219 0.5766113996505737 64.95899963378906 1.71376359462738 60.10730743408203 C 2.819350481033325 55.39032745361328 4.461915969848633 50.79043579101563 6.595829010009766 46.43545913696289 C 8.691415786743164 42.15863418579102 11.2690896987915 38.10026168823242 14.25724220275879 34.37311172485352 C 17.22667694091797 30.66924095153809 20.60861206054688 27.28326416015625 24.30915451049805 24.30915451049805 C 15.08219814300537 35.78985214233398 9.999916076660156 50.24024200439453 9.999916076660156 64.99980926513672 C 9.999916076660156 100.8408279418945 39.15869903564453 129.9996185302734 74.99971771240234 129.9996185302734 C 89.75846099853516 129.9996185302734 104.2094802856445 124.9179153442383 115.690673828125 115.690673828125 C 112.7146987915039 119.3936080932617 109.3282165527344 122.7751312255859 105.6266784667969 125.7427444458008 C 101.8995895385742 128.7308959960938 97.84117889404297 131.3086395263672 93.56420135498047 133.4043579101563 C 89.20924377441406 135.5382995605469 84.60935211181641 137.180908203125 79.89224243164063 138.2865753173828 C 75.04058837890625 139.4237823486328 70.03004455566406 140.0003967285156 64.99980926513672 140.0003967285156 Z M 115.6978073120117 115.6849365234375 L 115.6963958740234 115.6835479736328 C 124.9199600219727 104.2039794921875 129.9996185302734 89.75550079345703 129.9996185302734 74.99971771240234 C 129.9996185302734 39.15869903564453 100.8408279418945 9.999916076660156 64.99980926513672 9.999916076660156 C 50.24135208129883 9.999916076660156 35.79048156738281 15.08169841766357 24.30915451049805 24.30915451049805 C 27.28515434265137 20.60624122619629 30.67163276672363 17.22474098205566 34.37311172485352 14.25724220275879 C 38.10026168823242 11.2690896987915 42.15863418579102 8.691415786743164 46.43545913696289 6.595829010009766 C 50.79043579101563 4.461915969848633 55.39032745361328 2.819350481033325 60.10730743408203 1.71376359462738 C 64.95899963378906 0.5766113996505737 69.96952819824219 2.71208386948274e-06 74.99971771240234 2.71208386948274e-06 C 83.77481079101563 2.71208386948274e-06 92.28739166259766 1.718589663505554 100.301025390625 5.108024597167969 C 108.0412673950195 8.381829261779785 114.9926986694336 13.06854629516602 120.9622421264648 19.03802490234375 C 126.9317626953125 25.00750350952148 131.6185455322266 31.9588508605957 134.8923797607422 39.69900131225586 C 138.2818145751953 47.71248245239258 140.0003967285156 56.22491455078125 140.0003967285156 64.99980926513672 C 140.0003967285156 70.03004455566406 139.4237823486328 75.04058837890625 138.2865753173828 79.89224243164063 C 137.180908203125 84.60935211181641 135.5382995605469 89.20924377441406 133.4043579101563 93.56420135498047 C 131.3086395263672 97.84117889404297 128.7308959960938 101.8995895385742 125.7427444458008 105.6266784667969 C 122.775260925293 109.3280715942383 119.3956527709961 112.712158203125 115.6978073120117 115.6849365234375 Z"/></g><text class="b" transform="translate(-131 444)"><tspan x="0" y="0">Mweu&apos;s</tspan><tspan x="0" y="27">Ukurasa</tspan></text></g></svg>