<svg xmlns="http://www.w3.org/2000/svg" xmlns:xlink="http://www.w3.org/1999/xlink" width="139.613" height="139.654" viewBox="0 0 139.613 139.654"><defs><style>.a{fill:url(#a);}.b{filter:url(#b);}</style><radialGradient id="a" cx="0.5" cy="0.5" r="0.5" gradientUnits="objectBoundingBox"><stop offset="0" stop-color="#f4f4b3"/><stop offset="1" stop-color="#fafad2"/></radialGradient><filter id="b" x="0" y="0" width="139.613" height="139.654" filterUnits="userSpaceOnUse"><feOffset dy="1" input="SourceAlpha"/><feGaussianBlur stdDeviation="0.5" result="c"/><feFlood flood-opacity="0.161"/><feComposite operator="in" in2="c"/><feComposite in="SourceGraphic"/></filter></defs><g class="b" transform="matrix(1, 0, 0, 1, 0, 0)"><path class="a" d="M88.425,187.282a49.5,49.5,0,0,1-45.143-52.833,50.021,50.021,0,0,0,13.667,25.079,50.941,50.941,0,0,0,7.771,6.371,50.94,50.94,0,0,0,6.371,7.771,50.043,50.043,0,0,0,25.074,13.667q-1.753.124-3.514.124Q90.535,187.462,88.425,187.282Zm24.593-7.512a64.309,64.309,0,0,1-37.69-13.805,10.422,10.422,0,0,0,3.221-2.057q.147-.138.293-.284a60.419,60.419,0,0,0,69.4,2.423q.134.157.272.3a10.4,10.4,0,0,0,3.07,2.277A64.291,64.291,0,0,1,115.3,179.809Q114.159,179.809,113.018,179.77Zm11.452-11.327q0-.158-.005-.319a54.013,54.013,0,0,0,43.841-43.841c.107,0,.214.005.319.005a9.356,9.356,0,0,0,3.291-.59,57.531,57.531,0,0,1-48.035,48.035A9.36,9.36,0,0,0,124.47,168.443Zm-35.282-2.152A57.531,57.531,0,0,1,58.163,123.7a9.351,9.351,0,0,0,3.29.59q.158,0,.319-.005a54.016,54.016,0,0,0,43.842,43.841q-.005.161-.005.319a9.36,9.36,0,0,0,.59,3.291A57.087,57.087,0,0,1,89.188,166.291Zm10.643-3.546a49.542,49.542,0,0,1-13.7-7.038,8.186,8.186,0,0,0,2.3-1.627c.052-.052.1-.105.156-.159a47.042,47.042,0,0,0,53.9,0c.051.054.1.107.156.159a8.193,8.193,0,0,0,2.3,1.627,50.069,50.069,0,0,1-45.116,7.038Zm64.039-10.716q-.138-.147-.284-.292a60.419,60.419,0,0,0,2.423-69.4c.1-.09.205-.181.3-.272A10.4,10.4,0,0,0,168.589,79a64.474,64.474,0,0,1-2.663,76.252A10.412,10.412,0,0,0,163.869,152.029Zm-110.516-18.6A64.473,64.473,0,0,1,64.614,75.367a10.4,10.4,0,0,0,2.057,3.222q.138.147.284.292a60.422,60.422,0,0,0-2.425,69.4q-.155.134-.3.272a10.4,10.4,0,0,0-2.277,3.07A63.951,63.951,0,0,1,53.353,133.431Zm100.979,8.959c-.051-.051-.105-.1-.159-.155a47.042,47.042,0,0,0,0-53.9c.054-.051.107-.1.159-.156a8.176,8.176,0,0,0,1.627-2.3,49.965,49.965,0,0,1,0,58.815A8.2,8.2,0,0,0,154.332,142.39ZM68.081,131A49.963,49.963,0,0,1,75.118,85.88a8.2,8.2,0,0,0,1.627,2.3c.052.052.105.1.16.156a47.04,47.04,0,0,0,0,53.9c-.054.051-.108.1-.159.155a8.219,8.219,0,0,0-1.628,2.3A49.564,49.564,0,0,1,68.081,131Zm42.971.033a2.062,2.062,0,0,1-.549-1.7l.72-5.886h2.52l-.612,4.95a1.505,1.505,0,0,0,.171.837.8.8,0,0,0,.747.315,1.563,1.563,0,0,0,1.017-.378,2.9,2.9,0,0,0,.765-1.035,4.727,4.727,0,0,0,.4-1.485l.4-3.2h2.52l-.972,7.866h-2.286l-.014-1.205a3.783,3.783,0,0,1-.751.791,3.638,3.638,0,0,1-1.071.585,3.922,3.922,0,0,1-1.3.207A2.262,2.262,0,0,1,111.053,131.029Zm39.519.459a2.746,2.746,0,0,1-1.512-.432,3.436,3.436,0,0,1-1.215-1.314,4.254,4.254,0,0,1-.477-2.088,4.586,4.586,0,0,1,.324-1.7,4.838,4.838,0,0,1,.918-1.476,4.472,4.472,0,0,1,1.4-1.044,4.076,4.076,0,0,1,1.782-.387,3.847,3.847,0,0,1,1.287.18,2.382,2.382,0,0,1,.8.459,3.338,3.338,0,0,1,.5.563l.26-.806h2.34l-.954,7.866h-2.52l.114-.986a.306.306,0,0,1-.024.023,4.672,4.672,0,0,1-.621.477,4.388,4.388,0,0,1-1.008.477,3.944,3.944,0,0,1-1.272.191Zm.648-6.174a2.131,2.131,0,0,0-.711.558,2.236,2.236,0,0,0-.4.729,2.483,2.483,0,0,0,.126,1.872,1.79,1.79,0,0,0,.711.738,2.1,2.1,0,0,0,1.053.261,1.831,1.831,0,0,0,.693-.135,2.363,2.363,0,0,0,.639-.4,2.6,2.6,0,0,0,.54-.657l.234-1.926a1.486,1.486,0,0,0-.342-.675,1.682,1.682,0,0,0-.63-.432,2.578,2.578,0,0,0-1.908.063ZM131.2,131.488a2.746,2.746,0,0,1-1.512-.432,3.436,3.436,0,0,1-1.215-1.314,4.254,4.254,0,0,1-.477-2.088,4.586,4.586,0,0,1,.324-1.7,4.838,4.838,0,0,1,.918-1.476,4.472,4.472,0,0,1,1.4-1.044,4.076,4.076,0,0,1,1.782-.387,3.847,3.847,0,0,1,1.287.18,2.381,2.381,0,0,1,.8.459,3.338,3.338,0,0,1,.5.563l.26-.806h2.34l-.954,7.866h-2.52l.114-.986a.3.3,0,0,1-.024.023,4.67,4.67,0,0,1-.621.477,4.388,4.388,0,0,1-1.008.477,3.944,3.944,0,0,1-1.272.191Zm.648-6.174a2.131,2.131,0,0,0-.711.558,2.236,2.236,0,0,0-.4.729,2.483,2.483,0,0,0,.126,1.872,1.79,1.79,0,0,0,.711.738,2.1,2.1,0,0,0,1.053.261,1.831,1.831,0,0,0,.693-.135,2.363,2.363,0,0,0,.639-.4,2.6,2.6,0,0,0,.54-.657l.234-1.926a1.486,1.486,0,0,0-.342-.675,1.682,1.682,0,0,0-.63-.432,2.578,2.578,0,0,0-1.908.063Zm9.342,6.057a4.515,4.515,0,0,1-1.251-.423,3.277,3.277,0,0,1-1.161-.99l1.206-1.314a3.982,3.982,0,0,0,.882.774,1.988,1.988,0,0,0,.711.279,3.826,3.826,0,0,0,.513.045q.558,0,.72-.234a.774.774,0,0,0,.162-.432.532.532,0,0,0-.225-.441,2.138,2.138,0,0,0-.576-.3q-.351-.126-.729-.27a2.757,2.757,0,0,1-1.341-.954,2.254,2.254,0,0,1-.4-1.3,2.939,2.939,0,0,1,.135-.819,2.711,2.711,0,0,1,.468-.891,2.519,2.519,0,0,1,.936-.72,3.627,3.627,0,0,1,1.557-.288,7.455,7.455,0,0,1,1.089.081,4.411,4.411,0,0,1,1.08.306,3.946,3.946,0,0,1,1.017.639l-1.134,1.422a2.955,2.955,0,0,0-.783-.576,1.959,1.959,0,0,0-.873-.2,1.223,1.223,0,0,0-.54.1.641.641,0,0,0-.288.261.692.692,0,0,0-.09.342.542.542,0,0,0,.27.468,2.669,2.669,0,0,0,.657.306c.257.084.513.18.765.288a3.254,3.254,0,0,1,.918.54,1.905,1.905,0,0,1,.549.765,2.143,2.143,0,0,1,.1,1.035,2.728,2.728,0,0,1-.306,1,2.841,2.841,0,0,1-.675.837,3.009,3.009,0,0,1-1.035.558,4.556,4.556,0,0,1-1.4.2A6.042,6.042,0,0,1,141.194,131.371Zm-52.065-.558a4.158,4.158,0,0,1-1.719-1.764,4.366,4.366,0,0,1-.4-2.583l1.026-8.406h2.7l-1.026,8.352a2.145,2.145,0,0,0,.207,1.206,2.275,2.275,0,0,0,.837.936,2.334,2.334,0,0,0,1.3.36,2.808,2.808,0,0,0,1.386-.36,3.492,3.492,0,0,0,1.089-.936,2.434,2.434,0,0,0,.513-1.206l1.026-8.352h2.7l-1.026,8.406a5.212,5.212,0,0,1-1.044,2.583,6.067,6.067,0,0,1-2.16,1.764,6.229,6.229,0,0,1-2.79.639A5.275,5.275,0,0,1,89.129,130.813Zm31.743.495.954-7.866h2.268l-.072,1.746a4.467,4.467,0,0,1,1.035-1.179,4.8,4.8,0,0,1,1.224-.72,2.994,2.994,0,0,1,1.053-.243l-.432,2.52a2.411,2.411,0,0,0-1.548.288,3.149,3.149,0,0,0-1.1,1.044,3.234,3.234,0,0,0-.5,1.332l-.378,3.078Zm-15.39,0-1.524-3.275-.77.531-.334,2.744h-2.52l1.728-14.2h2.52L103.5,126l4.088-2.754,1.35,1.35-3.039,2.1,2.517,4.615Zm9.765-23.279a2.06,2.06,0,0,1-.549-1.7l.72-5.886h2.52l-.612,4.95a1.505,1.505,0,0,0,.171.837.8.8,0,0,0,.747.315,1.563,1.563,0,0,0,1.017-.378,2.9,2.9,0,0,0,.765-1.035,4.713,4.713,0,0,0,.4-1.485l.4-3.2h2.52l-.972,7.866H120.08l-.014-1.205a3.783,3.783,0,0,1-.751.791,3.638,3.638,0,0,1-1.071.585,3.9,3.9,0,0,1-1.3.207A2.262,2.262,0,0,1,115.247,108.029Zm-8.946.036a3.3,3.3,0,0,1-1.5-1.35,4.394,4.394,0,0,1-.54-2.277,4.551,4.551,0,0,1,1.071-2.871,4.085,4.085,0,0,1,1.44-1.071,5.083,5.083,0,0,1,2.151-.414,5.546,5.546,0,0,1,1.359.171,3.356,3.356,0,0,1,1.242.612,3.619,3.619,0,0,1,.972,1.233,6.313,6.313,0,0,1,.567,2.052l-5.9,1.458a1.675,1.675,0,0,0,.759.594,2.56,2.56,0,0,0,.909.18,1.933,1.933,0,0,0,.693-.126,5.98,5.98,0,0,0,.675-.306l.882,1.944a6.31,6.31,0,0,1-1.251.45,5.3,5.3,0,0,1-1.269.162A5.376,5.376,0,0,1,106.3,108.065Zm1.341-5.715a1.787,1.787,0,0,0-.657.792,2.539,2.539,0,0,0-.207,1.008c0,.015,0,.031,0,.045l3.59-.93a1.533,1.533,0,0,0-1.539-1.221A2.08,2.08,0,0,0,107.642,102.35Zm-8.28,6.138-1.836-5.076-2.844,5.058h-.144l-2.52-8.028h2.448l1.055,3.218,1.393-2.318-.306-.9H98.75l1.069,3.361,1.7-3.361h2.448l-4.464,8.046Zm30.78-.117a4.515,4.515,0,0,1-1.251-.423,3.268,3.268,0,0,1-1.161-.99l1.206-1.314a3.982,3.982,0,0,0,.882.774,1.971,1.971,0,0,0,.711.279,3.681,3.681,0,0,0,.513.045c.372,0,.612-.077.72-.234a.774.774,0,0,0,.162-.432.532.532,0,0,0-.225-.441,2.19,2.19,0,0,0-.576-.3q-.351-.126-.729-.27a2.751,2.751,0,0,1-1.341-.954,2.253,2.253,0,0,1-.405-1.3,2.945,2.945,0,0,1,.135-.819,2.711,2.711,0,0,1,.468-.891,2.528,2.528,0,0,1,.936-.72,3.627,3.627,0,0,1,1.557-.288,7.456,7.456,0,0,1,1.089.081,4.451,4.451,0,0,1,1.08.306,3.971,3.971,0,0,1,1.017.639l-1.134,1.422a2.956,2.956,0,0,0-.783-.576,1.971,1.971,0,0,0-.873-.2,1.223,1.223,0,0,0-.54.1.646.646,0,0,0-.288.261.692.692,0,0,0-.09.342.541.541,0,0,0,.27.468,2.637,2.637,0,0,0,.657.306c.257.085.513.18.765.288a3.253,3.253,0,0,1,.918.54,1.911,1.911,0,0,1,.549.765,2.143,2.143,0,0,1,.1,1.035,2.728,2.728,0,0,1-.306,1,2.819,2.819,0,0,1-.675.837,2.994,2.994,0,0,1-1.035.558,4.556,4.556,0,0,1-1.4.2A5.928,5.928,0,0,1,130.142,108.371Zm-43.686-.063.778-6.316-5.08,6.136h-.036l-3.449-5.759-.727,5.939h-2.52L77.114,94.52h.018l5.556,9.534,8.034-9.534h.036l-1.692,13.788Zm82.168-2.881c-.1,0-.212,0-.319.005a54.011,54.011,0,0,0-43.841-43.841c0-.108.005-.214.005-.319a9.346,9.346,0,0,0-.59-3.29,57.529,57.529,0,0,1,48.035,48.034A9.359,9.359,0,0,0,168.624,105.427ZM63.607,89.006A57.533,57.533,0,0,1,106.2,57.983a9.366,9.366,0,0,0-.589,3.29c0,.105,0,.211.005.319a54.013,54.013,0,0,0-43.842,43.841c-.107,0-.214-.005-.319-.005a9.351,9.351,0,0,0-3.29.59A57.069,57.069,0,0,1,63.607,89.006ZM125.8,99.65l.558-4.554h2.232q-.144,1.134-.315,2.268t-.315,2.286Zm-37.212-23c-.052-.054-.1-.107-.156-.159a8.193,8.193,0,0,0-2.3-1.627,49.96,49.96,0,0,1,58.815,0,8.193,8.193,0,0,0-2.3,1.627c-.052.052-.1.105-.155.159A47.04,47.04,0,0,0,88.591,76.653ZM82.3,64.57c-.09-.1-.181-.205-.272-.3a10.415,10.415,0,0,0-3.071-2.277,64.479,64.479,0,0,1,76.253,2.663,10.423,10.423,0,0,0-3.222,2.057q-.147.138-.292.284A60.419,60.419,0,0,0,82.3,64.57Z" transform="translate(-41.66 -50.31)"/></g></svg>