<svg version="1" xmlns="http://www.w3.org/2000/svg" width="933.333" height="933.333" viewBox="0 0 700.000000 700.000000"><path d="M357.7 2.6c-.1.1-5.4.4-11.7.8-6.3.3-12.4.8-13.5 1-2.5.5-12.3 1.9-15 2.2-10.2 1-37.2 7.9-55 13.9-21.9 7.4-50.9 21.7-69.2 34-6.3 4.2-6.3 4.2-3.8 5.5 1.3.7 2.2 1.7 1.9 2.1-.3.5.1.6.8.4 1.5-.6 9.5 6.2 9 7.7-.1.5.2.7.7.4.5-.4 1.2-.2 1.6.4.4.6 1.5.2 2.8-1 1.2-1.1 2.7-1.8 3.4-1.6.7.3 1.3.1 1.3-.4 0-1.4 10.2-7 11.4-6.3.6.3.7.2.3-.2-.4-.5 1.8-2.2 4.9-3.7 4.7-2.4 5.9-2.6 7.3-1.6 1.4 1.2 1.4 1.1.2-.4-1.1-1.5-1.1-1.9.2-2.4.9-.3 2.1-.2 2.8.2.7.4.9.3.6-.3-.8-1.3 4-3.6 5.6-2.7.7.4.9.4.5-.1-1-1.1 7.1-4.7 8.5-3.8.5.3.7.2.4-.4-.8-1.2 8.8-4.7 10.4-3.7.8.4.9.3.5-.4s-.1-1.3.6-1.4c2.7-.3 3.4-.5 7.3-2.2 6.3-2.7 20.3-6.5 22.5-6.1 1.3.3 1.8 0 1.4-.7-.5-.7.2-.9 1.9-.6 1.6.3 2.4.1 2-.5-.4-.6.4-.8 2.1-.5 1.4.3 2.6.2 2.6-.2 0-.8 9.1-2.8 16.8-3.7 2.6-.3 6.6-.9 8.9-1.3 2.7-.5 4.6-.3 5.4.4.9.8 1 .8.4-.2-.5-1 0-1.3 2.1-1.2 1.6.1 3.1.1 3.4 0 2-.7 4.1-.7 4.6.1.3.6 1.1.6 2-.1 2.1-1.8 41.3-1.7 42.5.1.5.8.9.9.9.3 0-.6.7-1.1 1.5-1.1s1.5.3 1.5.6 2.1.6 4.8.6c2.6-.1 9.3.7 14.9 1.6 5.5 1 11.8 2 14 2.4 2.1.3 5.6 1 7.8 1.6 3.9 1.1 5.1 1.4 9.6 2.4 2.4.5 8.6 2.3 10.9 3.2.8.3 2 .7 2.7.9 3.1.6 8.9 2.8 10.1 3.7.6.5 1.2.7 1.2.4 0-.3 2.8.5 6.2 1.9 9.5 3.7 11.8 4.8 11.8 5.7 0 .5.4.5 1 .2.5-.3 2 0 3.2.7 1.3.7 2.5 1.3 2.8 1.4 2.2.5 3.9 1.8 3.4 2.5-.3.5.2.6 1 .3 2-.8 7.8 2.4 7 3.8-.4.6-.3.8.4.4 1.1-.7 6.2 1.3 6.2 2.4 0 .4.6.7 1.3.7 1.3.1 21.7 12.1 21.7 12.9 0 .3-.5.2-1.2-.2s-.8-.3-.4.5c.4.6 1.2.9 1.7.6 1.1-.7 6.1 2.9 5.4 3.9-.3.3-.2.4.1.1.9-.6 6.4 2.7 6.4 3.7 0 .5 1.3.7 2.9.6 1.6-.1 2.8-.5 2.6-.8-.5-.8 2.2-3 2.9-2.3.3.4.6.1.6-.5s2.5-2.5 5.5-4.2l5.5-3.1-2.8-2.3c-16.7-14-52.1-34.1-78.5-44.5C470.7 18.3 446 11 432 8.6c-1.9-.3-4.4-.8-5.5-1-2.1-.4-15.7-2.4-21-3.1-10.8-1.3-46.7-2.8-47.8-1.9z"/><path d="M318 39.2c-44.5 9.3-77.3 22.5-109.3 43.8-18.5 12.3-28 20.2-44.8 37-25 25-42.4 49.6-56.6 79.8-3 6.5-5.8 12.6-6.4 13.7-3.8 8.2-12.6 36.4-14.9 48-.5 2.7-1.1 5.9-1.4 7-1.7 8.7-1.8 10.8-.3 10.2 2.1-.8 7.3-1.7 12.1-2.1 3.9-.4 5.5-1.7 5.7-4.9.1-.9.2-2 .3-2.5.1-.4.6-2.7 1-5.2.5-2.5 1.1-5 1.4-5.5.4-.6.7-1.5.7-2 .3-3.1 1.8-8.5 2.5-8.5.5 0 .6-1 .2-2.2-.4-1.6-.2-1.9.8-1.3.9.5 1.1.4.6-.3-.7-1.2 1.3-9.2 2.3-9.2.4 0 .7-.8.8-1.9.1-1.5 1.9-6.3 6.2-16.6 3.6-8.5 12.5-25.5 13.3-25.5.6 0 .8-.3.5-.6-1.2-1.2 1.4-4.6 3-4 1.2.5 1.3.3.5-.7-.9-1 .2-3.5 4.8-10.6 3.3-5.1 6.4-8.9 7-8.6.5.3.8 0 .5-.7-.6-1.7 2.1-5.2 3.4-4.3.7.4.8 0 .4-1-.3-1-.2-2 .3-2.4.5-.3 2.8-2.8 4.9-5.5 2.2-2.7 5.6-6.6 7.5-8.6 1.9-2 4.6-5 6-6.7 1.4-1.6 3.6-3.7 5-4.6 1.4-1 2.4-2 2.2-2.2-.1-.3.9-1.7 2.3-3.1 1.4-1.4 2.5-2.3 2.5-2 0 .2 2.6-2 5.8-5.1 3.1-3 10.2-8.8 15.7-12.9s10.6-7.9 11.3-8.5c.7-.5 1.8-.7 2.5-.3.6.4.9.4.5-.1-1.1-1.1 6-5.8 7.4-4.9.6.4.8.3.5-.3-.4-.5.6-1.6 2.1-2.4 1.5-.7 3.9-2.2 5.5-3.2 1.5-1 2.7-1.5 2.7-1 0 .4.4.3.8-.3.4-.7 3.4-2.5 6.7-4.2 4.3-2.2 6.2-2.8 6.7-1.9.5.8.8.7.8-.4 0-1.9 5.3-4.4 7.1-3.3.7.4 1 .3.6-.3-.8-1.2 16.9-8.7 18.3-7.8.4.3 1 .1 1.2-.5.1-.5 1.4-1.1 2.8-1.2 1.4-.2 2.8-.7 3.1-1.1.3-.4 1.7-.9 3-1.1 1.3-.2 3.7-.8 5.2-1.5 1.6-.6 3.2-.9 3.7-.6.5.3 1 .2 1.2-.3.5-1.1 14.2-4.2 16.7-3.7 1.2.2 1.9 0 1.6-.6-.4-.5.5-.9 1.9-.9 2.4 0 2.6-.3 2.7-4.8 0-2.6.2-5.4.4-6.2 1.2-5.4 1.7-8 1.4-7.9-.2.1-2.4.5-4.9 1.1zM412.4 39.9c1.2 1.9 2.4 8.5 2.5 14.7.1 2.1 2.2 3 9.6 3.9 6.4.9 37.2 10.1 39.3 11.7.6.6 1.2.7 1.2.3 0-.4 1.1 0 2.5.9 1.3.9 2.9 1.6 3.4 1.6 2.2 0 17.1 7.7 16.4 8.5-.4.4-.2.5.4.1 1.4-.7 13.3 5.2 13.3 6.7 0 .4.4.6.8.3.5-.3 3.2 1 6.1 2.9 2.9 1.9 5.7 3.5 6.2 3.5s.9.4.9 1c0 .5.7 1 1.5 1s1.5.4 1.5 1c0 .5.5 1 1 1 1.6 0 15 10 15 11.2 0 .6.3.8.7.5.7-.8 9.2 6.1 17.2 14 2.9 2.9 5.7 5.3 6.2 5.3s.9.5.9 1c0 .6 1.8 2.6 4 4.6 2.2 2 3.7 4.1 3.3 4.7-.3.5-.2.7.3.4 1.1-.6 11 10.1 10.6 11.5-.1.4.2.8.7.8.9 0 8.7 9.9 8.9 11.3 0 .5.8 1.4 1.8 2.1.9.7 1.4 1.8 1 2.5-.4.6-.3 1 .4.9 1.5-.4 14.3 19.9 13.4 21.4-.4.6-.3.8.3.5 1-.6 7.9 11.9 7.7 14-.1.7.1 1.1.5.9.4-.3 1.3 1 2 2.7.7 1.8 1.9 4.5 2.6 6.2 1.1 2.6 3.6 8.8 6.6 16.3.5 1.3.7 2.7.4 3.2-.3.5-.1 1 .4 1.2.8.3 5.6 14.9 6.7 20.8.3 1.4 1.3 5.7 2.3 9.5 1 3.9 1.7 7.7 1.6 8.5-.2 1.1.8 1.5 3.4 1.7 5.1.2 10.4 1 13.1 1.8 2.2.7 2.2.5 1.5-3.1-.4-2.2-.9-5-1.2-6.4-.2-1.4-1.5-7-2.8-12.5-12.5-52.3-38.4-98.6-76.9-137-37.7-37.6-80.9-62.1-133.1-75.5-16.8-4.3-27.2-6-26.1-4.1z"/><path d="M353.8 75.5c-.2.2-3.4.6-7.3.9-38.4 3.4-75.8 16.2-109.5 37.2-4.7 3-9.6 6.3-11 7.4-2.4 1.9-2.4 2.1-.6 3.1 1 .6 2.7 2 3.7 3 1.1 1.1 2.2 1.9 2.5 1.9.4 0 1.5 1 2.5 2.2 1.1 1.1 1.9 1.6 1.9.9 0-.7.4-1 .9-.7.5.3 1.2-.1 1.5-1 .3-.8 1-1.2 1.6-.9.5.3 1 .3 1-.2 0-.9 6.7-5.7 7.2-5.1.2.1 1.4-.7 2.7-1.9 1.3-1.2 2.8-2 3.2-1.7.4.2 1 0 1.4-.6.3-.6 2.4-1.9 4.6-3.1 3.4-1.7 4.3-1.8 5.7-.7 1.5 1.1 1.5 1.1.5-.3-1.1-1.3-.4-2 4.9-4.4 3.4-1.6 6.7-2.8 7.5-2.8.7 0 1.3-.3 1.3-.7 0-.4 1.9-1.3 4.3-2 2.3-.8 4.7-1.7 5.2-2 .6-.4 4.4-1.7 8.5-2.9s8.7-2.6 10.3-3.1c1.5-.5 2.7-.7 2.7-.4 0 .3.8 0 1.8-.5 1.5-.8 5.2-1.6 11.7-2.6 1.1-.2 2-.4 2-.5 0-.2 1.9-.5 8.5-1.6 2.5-.4 5-.8 5.5-.9 1.4-.3 18.3-1.7 22.8-1.9 2 0 3.7.3 3.7.9 0 .5.4.4.9-.4.6-.9 1-1 1.6-.2.5.9 1.1.9 2.2-.1 1.7-1.3 2-1.3 4 .3.7.7 1.4.6 1.8-.1.3-.6.9-.8 1.3-.6.4.2 2.7.5 5.2.7 2.5.1 4.8.4 5.2.6.4.2 4.4.5 8.9.7 4.5.2 8.4.8 8.8 1.2.3.5 2 .9 3.6 1 4.1.1 11.5 1.3 12.6 2 .5.3 2.2.8 3.7 1 6 1.1 13.2 3.6 12.7 4.5-.3.5.1.6 1 .3 2.3-.9 6.7.4 5.9 1.8-.4.7-.3.8.5.4 1.1-.7 7.7 1.1 9.6 2.6.5.4 1.7.8 2.6.8 1 0 2.4.7 3.3 1.5.8.9 1.7 1.5 1.8 1.5 1-.4 5.8 1.4 5.8 2.1 0 .5.4.8.8.6 1.6-.4 11.1 4.6 10.5 5.6-.3.6-.1.7.5.3 1.3-.8 22.1 11.5 23 13.6.2.4 1.4-.3 2.6-1.5 1.2-1.2 3.9-3.3 5.9-4.7 2-1.4 3.7-2.8 3.7-3.1 0-1.6-26.6-17.7-37.5-22.8-21.2-9.9-45.4-17.9-63-20.7-2.2-.3-4.7-.8-5.5-.9-.8-.2-3.7-.6-6.5-1-2.7-.3-6.3-.9-8-1.1-3.3-.6-42.2-1.3-42.7-.9z"/><path d="M251.6 123.8c-.3.5.1.9.9.9s1.2-.4.9-.9c-.3-.4-.7-.8-.9-.8-.2 0-.6.4-.9.8zM108.8 133.8c-36.5 49.8-57.9 108.1-62.4 169.8-1.9 25.4-.4 53.8 4.2 79.1.8 4.6 1.3 8.7 1 9.2-.4.5-.3 1.1.1 1.3.5.1 2.2 5.7 4 12.3 1.7 6.6 4.1 15.1 5.3 19 1.3 3.8 2.3 8 2.4 9.2 0 1.1.4 1.9.9 1.6.4-.2.8.1.8.6.2 1.8.5 2.4 2.2 6.4.9 2.1 1.8 4.5 1.9 5.5.2.9.7 2 1.2 2.4.5.3.9 2 .9 3.8 0 1.7.3 2.6.7 2 .4-.6 1.4.8 2.3 3.1.9 2.3 1.4 4.6 1 5.2-.3.6-.2.7.4.4 1.2-.8 4.6 6.1 3.7 7.5-.4.6-.3.8.3.5 1.3-.8 3.6 4.1 2.7 5.5-.4.6-.3.8.3.5.5-.3 1.7.7 2.7 2.4.9 1.6 1.4 2.9 1.1 2.9-.4 0 .1.7.9 1.6.9.8 1.6 2.2 1.6 3 0 .8.5 1.4 1.1 1.4.6 0 .8.7.5 1.7-.4 1-.4 1.4 0 1 .4-.4 3.1 3 5.9 7.4 3.9 6.1 5.4 7.7 5.8 6.4.4-.9 1.2-1.3 1.8-.9.8.4.9.3.5-.5-.9-1.4 6.2-11.3 7.5-10.5.5.3.9.2.8-.3-.1-.4.1-1.5.5-2.4.4-1-1.5-5.2-5.5-12C97.6 462.7 88.4 442.3 80 418c-1.5-4.3-4.9-16.4-5.4-19.2-.2-1.5-.7-3.1-.9-3.5-.3-.5-.8-2.4-1.1-4.3-.3-1.9-1-6-1.6-9-.6-3-1.3-6.9-1.5-8.5-.7-5.3-1.6-11.6-2-13.6-.6-2.8-1.8-25.4-1.8-32.9 0-10.7 1.5-35.3 2.6-41.5.3-1.7.9-5 1.2-7.5.6-4.1 1.8-10.6 2.9-15.5 1.2-5.8 2.8-12.2 3.3-13.5.4-.8.7-2 .7-2.5.4-3.2 3.1-11.5 3.8-11.5.4 0 .7-.3.6-.8-.4-1.3 2.4-11.2 3.1-11.2.4 0 .7-.8.8-1.8.1-1.9 5.7-15.8 9-22.5 1.1-2.1 2.3-3.4 2.8-3 .4.4.5.3.2-.4-.9-1.5.2-4.5 1.4-3.7.5.3.6-.2.2-1.1-.3-1-.2-2 .3-2.4.5-.3 2.9-4.4 5.4-9.1 5.6-10.7 8.5-15.1 9.5-14.2.5.4.5.1.1-.6-.7-1.1 3.8-8.3 11-17.7l2.3-3.1-2.2-2.4c-1.3-1.4-4-5.3-6.1-8.8-2.2-3.4-3.9-6.2-4-6.2-.1.1-2.6 3.5-5.8 7.8zM633.6 148.6c-1.5 2.4-4.4 6-6.3 8-2.6 2.7-3.2 4-2.7 5.7.4 1.2 1 2.4 1.4 2.7 1.7 1.2 8.9 15.3 8.3 16.2-.3.6-.2.8.4.5 2-1.2 22.3 43.9 20.8 46.3-.4.6-.2 1 .3 1 .7 0 5.7 15 6.6 20 .1.8.8 3.3 1.4 5.5.6 2.2 1.3 5.1 1.6 6.5.3 1.4.8 3.6 1.1 5 .5 2.2 2.6 16 4 25.5 2.3 17 2.4 55.6 0 68.5-.2 1.4-.7 4.5-.9 7-.6 5.6-4.1 24.6-5.2 28.2-.3.9-.6 2.5-.8 3.5-.2 1-1.6 5.9-3 11-8.6 30.4-24.7 64.1-43.2 90.1-3 4.2-5.4 8.2-5.4 8.8 0 .5.9 2 2 3.2 1.1 1.2 1.9 2.7 1.8 3.4-.2.7.3 1.2.9 1.1.7-.2 2.4 2 3.9 4.8 2.5 5 2.6 5.1 4 3 .9-1.2 2-1.8 2.6-1.5.7.4.8.2.4-.5-.4-.6.4-2.6 1.8-4.4 1.5-1.7 3-3.7 3.5-4.3.4-.5 1.3-2 2-3.1.6-1.2 1.7-2.7 2.3-3.5.7-.7 1.9-2.5 2.7-4 .8-1.5 1.8-2.5 2.3-2.2.5.3.8.2.7-.3-.3-1.7.1-3.2 1.4-4.5.6-.7 2.1-3 3.1-5 1-2.1 2.3-3.5 2.7-3.2.5.3.6-.1.4-.8-.3-.8.2-2.3 1.2-3.4s1.9-2.5 2.1-3.2c.6-3.1 6.9-14.1 7.7-13.5.4.5.5.2.1-.4-.4-.7 0-2.5.8-4 1.7-3.1 6-12.5 6-13.3.1-.3 1.3-3.7 2.8-7.5 3.1-8.1 4-10.6 4.4-12 .1-.6 1.4-4.6 2.8-9s2.6-8.8 2.6-9.7c0-1 .4-1.8.9-1.8.6 0 .9-.8.9-1.8-.2-1.6 1.8-11.2 2.9-14.2.3-.8.7-3.3.9-5.5.3-2.1.8-4.1 1.2-4.5.4-.3.7-1.9.8-3.5 0-3.4 1.4-15 2.1-18 .2-1.1.6-6.7.9-12.5.3-6.4 1-10.8 1.7-11.2.7-.4.8-.8.2-.8-.6 0-1.1-6.4-1.2-16.8-.2-9.2-.5-18.9-.7-21.7-.9-9.1-2.7-23-3.6-26.5-.5-1.9-1.1-5.3-1.4-7.5-1.8-13.5-12-47.2-19-63-.8-1.7-2.6-5.9-4.2-9.5-5.8-13.1-21.9-42.1-26.3-47.2-.4-.4-1.9 1.3-3.5 3.8z"/><path d="M160.5 188.8c-13.1 20.3-22.9 41.5-29.9 64.4-2 6.5-3.8 12.8-4 14-.2 1.3-.9 4.3-1.5 6.8-1.2 5.5-2.4 12.7-3.6 22-1.5 11-2.1 30.3-1.5 41.6.2 2.8 0 5.6-.4 6.2-.4.7-.3 1.2.2 1.2s.9 1.6 1 3.7c.2 4.5.9 9.5 2.7 19.8 2.2 12.2 2.2 12.4 4.5 20.8 1.1 4.3 1.7 8.3 1.4 8.9-.5.7-.2.8.6.3 1-.6 1.2-.4.7.8-.3.9-.1 1.9.4 2.3.6.3.9 1.5.6 2.5-.3 1.1-.2 1.7.3 1.4.4-.3 1.5 1.9 2.4 4.8 1 2.8 2.4 6.8 3.2 8.7.9 1.9 1.9 4.4 2.3 5.5 2.8 6.8 10.4 21.5 15.8 30.4 3.5 5.7 6.3 10.7 6.3 11.1 0 .5.3 1 .8 1.2.4.1 1.7 1.6 2.9 3.1l2.2 2.8 1.2-2.2c1.2-2.4 1.4-2.6 5.2-7.3l2.4-3-5.4-8.2c-13.4-20.6-26.1-50.7-30.8-72.9-.3-1.1-.8-3.4-1.2-5-.4-1.7-.7-3.2-.8-3.5-.1-.6-1.7-10.7-2.1-13.5-1-7-1.8-21.7-1.8-32 0-15.5 1.6-35.4 3.1-37.8.3-.5.7-2.6.8-4.6.3-5.3 4.6-22.2 5.5-21.6.5.3.6-.3.3-1.3-.9-3.5 13.5-39.6 17.9-44.9.6-.7.7-1.3.3-1.3-.5 0-.1-.8.7-1.8.8-.9 1.8-2.5 2.1-3.5.4-1.1 1.2-1.5 1.8-1.1.7.4.9.3.5-.4-.9-1.5 5.3-11.4 6.6-10.5.6.3.8.1.4-.5-.3-.6-.1-2.2.5-3.6 1-2.2.8-2.9-1.7-6-1.6-1.9-3.6-4.5-4.5-5.8-1.6-2.3-1.7-2.2-8.4 8zM570.1 183.3c-1.6 2.4-3.6 4.9-4.5 5.6-1.4 1.2-1.4 1.6.1 4.5.9 1.7 1.9 3.3 2.3 3.6 1 .7 7 10.5 7 11.4 0 .4-.6.4-1.2 0-.8-.4-1-.3-.5.2s1.3.9 1.8.9c1.3 0 8 13.6 7.2 14.8-.3.5-.1.7.4.4.9-.6 3.5 4.3 3 5.5-.1.1 0 .2.2 0 .8-.5 8.2 18.9 7.6 19.9-.4.5-.2.9.3.9 1.5 0 8.5 27.1 9.6 37.3.3 2.7.8 5.2 1 5.5 2.2 3.7 2.4 58.3.2 62.1-.2.3-.7 3.3-1.1 6.6-.8 7-4.4 22.6-7.8 34-5.3 17.4-15 38.1-25.6 55l-5.8 9.2 2.8 3.4c1.6 1.9 2.6 4 2.4 4.7-.3.7-.1 1 .5.7 1.1-.7 3.2 2.9 2.3 3.9-.3.3-.4.6-.1.6.7 0 13.5-19.1 14.4-21.4.3-.9 1.1-1.3 1.7-.9.6.3.7.1.3-.5-.4-.6.5-2.9 1.9-5.1 1.4-2.3 2.5-4.5 2.5-5.1 0-.5.5-1 1.2-1 .6 0 .8-.3.5-.6-.6-.6 1.8-5.9 3.3-7.4.3-.3.6-1.2.8-2 .2-.8 1.2-3.4 2.2-5.7 1.1-2.4 2-4.7 2-5.3 0-.5.5-1 1.2-1 .6 0 .9-.3.6-.6-.4-.3.7-4.5 2.4-9.2 1.6-4.8 3.1-9.4 3.3-10.2.2-.8.8-2.7 1.3-4.1.6-1.5.8-3 .5-3.3-.4-.3-.1-.6.6-.6s1-.4.7-.8c-.3-.5.1-3.3.9-6.3s1.7-7.2 2.1-9.4c.3-2.2.7-4.2.9-4.5.2-.3.6-3 .9-6 .4-3 .9-6.9 1.2-8.5.8-4.5 1-48.1.2-55-.5-4.9-2.5-17.9-3.2-22-.1-.6-.5-1.9-.9-3-.3-1.1-.8-3.1-1.1-4.5-3.1-17.5-13.6-45.2-24.4-64.5-5.2-9.4-16-26.5-16.8-26.5-.2 0-1.6 1.9-3.3 4.3z"/><path d="M177.1 227.1c-.1 2.9-.4 5.5-.6 5.8-.1.3-.6 3.1-.9 6.1-.4 3-.9 7.1-1.1 9-.3 1.9-.7 5.5-1 8-.3 2.5-.8 6.1-1 8-1 7.1-2.7 21.3-2.9 24.5-.1 1.8.6 2 6.2 2.3 3.4.2 6.2-.1 6.3-.5.2-3.4 1.1-10.1 1.6-11.3.6-1.7 1.2-8.7 1.3-14v-3.5l1.8 2.4c.9 1.3 2.6 3.8 3.7 5.6 1.1 1.9 3.9 6.5 6.3 10.3 2.3 3.9 4.2 7.5 4.2 8 0 2.1 2.5 1.8 4.3-.5 1-1.3 2.3-2 2.9-1.7.7.4.8.2.4-.5-.8-1.2 5.2-8.8 6.6-8.3.4.1.7-.2.6-.7-.5-1.5 4.3-7.2 5.4-6.5.7.4.8.3.4-.4s.4-2.3 1.8-3.7c1.4-1.4 3-3.3 3.6-4.2 1-1.7.9-.6-.5 12.7-.2 1.4-.7 5.8-1.1 9.9l-.7 7.3 5.6-.3c4.5-.3 5.7-.1 5.8 1.1.1 2.3 1.7-2.4 2.3-6.7.6-4.5 1.6-12.5 2.1-17.3.3-1.9.7-5.3.9-7.5 1-7.1 1.7-12.9 2.1-16.5.2-1.9.6-5.5 1-7.9.3-2.4.7-6.7 1-9.5l.5-5.1-3.3 4c-1.7 2.1-7.5 8.9-12.7 15.1-5.2 6.1-12.8 15-16.9 19.8-5.4 6.4-7.6 8.4-8.2 7.4-.5-.7-6.2-10.4-12.6-21.5-6.4-11.1-12.4-21.2-13.3-22.3-1.6-2.1-1.6-2-1.9 3.1zM425 225c-.4.3-1 3.3-1.3 6.7-.3 3.3-.9 8.4-1.3 11.1l-.6 4.9 3.7-.4c3.5-.4 3.7-.3 2.4 1.4-1.3 1.7-1.3 1.7.7 0 1.1-.9 2.6-1.7 3.2-1.7.7 0 1.2-.6 1.2-1.3 0-1.4 1.7-13.6 2.5-18.2l.5-3.1-5.1.1c-2.8 0-5.4.2-5.9.5zM331.5 250c-13 2.9-20.3 15.6-16.5 29 1.8 6.1 8.6 12 14.1 12 1.3 0 1.8.4 1.3 1.2-.6 1-.4 1 .8 0 1.1-.9 1.8-1 2.3-.2.4.7 1.2.7 2.6 0 1.4-.8 1.9-.7 1.9.2 0 .8.3.9.8.3.4-.6 2.6-1.7 5-2.3 2.3-.7 4.2-1.5 4.2-1.7 0-.3-1-2.5-2.2-5-1.9-3.8-2.5-4.4-4.3-3.8-3.4 1.3-9.4.8-11.2-.9-1.5-1.6-1.4-1.7 1.3-2.3 10.4-2.4 26.4-6.9 26.4-7.4 0-.4-.7-3-1.5-5.7-1.7-5.5-4.8-9.5-9.2-11.7-3.4-1.8-11.5-2.6-15.8-1.7zm10.8 11.8c1 .8 1.6 2 1.4 2.5-.3 1-6 3.1-12.4 4.5-4.1 1-4.3.9-4.3-1.5 0-3.2 4.5-7.7 7.1-7 1.2.3 1.7.1 1.3-.5-1-1.6 4.7 0 6.9 2zM447.3 250.1c-1.8.3-4.3 1.3-5.6 2.2-2.6 1.7-5.7 7.4-5.7 10.5 0 2.5 2 8.2 2.9 8.2.4 0 1.8 1 3.1 2.2 1.4 1.3 2.6 2.2 2.7 2 .9-.8 2.3 0 1.7 1-.4.7-.3.8.5.4 1.5-1 5.3.3 4.6 1.5-.4.5 0 .9.7.9.9 0 .9.3-.2 1-.8.5-1 1-.5 1 .6 0 .3.5-.5 1-2.5 1.6-5.5 1.1-9.4-1.5-2-1.4-3.8-2.5-4-2.5-.2 0-1.7 1.3-3.4 3l-3.1 2.9 3.4 3c1.8 1.6 3.2 3.1 3 3.3-.3.3 5.8 1 10.8 1.1 1.5.1 2.7.6 2.7 1.2 0 .5.4.4.9-.4s2.2-1.4 3.9-1.5c1.7 0 2.8-.3 2.6-.5-.2-.2.5-1.1 1.6-1.8 4.8-3.4 6.7-12.1 3.6-16.8-.9-1.4-4.6-3.9-8.1-5.6-6.5-3-7.6-4.4-5.3-6.7 1.8-1.8 5.9-1.4 9.2.8l3 1.9 2.4-3.6 2.5-3.6-2.4-1.8c-3.4-2.6-12.2-4-17.6-2.8zM253 252.4c0 .7.8 3.9 1.9 7.2 5.4 17 6.1 19.6 5.5 20.6-.4.6-.3.8.4.4.6-.3 1.4.7 1.8 2.6 1 4.2.9 3.9 2.1 6.8 1 2.2 1.2 2.3 1.8.8.4-1 1.2-1.5 1.8-1.1.6.3.7.1.3-.6-.6-1 1.2-4.8 7.7-15.6.9-1.7 2-3.8 2.3-4.8.9-2.4 2.1-2.1 2.7.5 1.2 5.3 7.3 21.2 8.2 21.5.6.2 2.1-1.7 3.4-4.2 1.3-2.4 2.8-4.2 3.4-3.8.6.3.7.1.3-.6-.4-.6.4-3.1 1.7-5.4 1.4-2.3 3.3-5.8 4.4-7.7 1.1-1.9 3.6-6.5 5.6-10.1 2-3.6 3.7-6.8 3.7-7.1 0-.3-2.6-.6-5.9-.7l-5.9-.1-3.8 7.6c-2.1 4.1-4.1 7.7-4.5 8-.4.2-1.8-3.1-3.1-7.4l-2.4-7.7-5.3-.3c-5.2-.3-5.3-.2-4.8 2 .6 2.3-4.4 12.8-6.1 12.8-.4 0-1.7-3.3-3-7.4l-2.2-7.4-6-.1c-4.2 0-6 .4-6 1.3zM369.6 253.7c-.3 1.6-.8 5.2-1.1 8.2-.4 3-.8 6.1-1 7-1.1 6.2-1.4 15.1-.6 17.4 1.5 4 6.7 6.8 11.6 6.3 4.8-.5 6.8-.9 7.5-1.6.3-.3 2-1.5 3.8-2.8l3.2-2.3v2.6c0 2.4.2 2.5 6 2.5 5.5 0 6-.2 6.1-2.3 0-1.2.2-3.1.4-4.2.1-1.1.6-4.9 1-8.5.4-3.6 1.2-7.1 1.7-7.8.7-.8.7-1.2-.1-1.2-.7 0-1-.4-.7-.8.2-.4.8-3.5 1.1-6.7.4-3.3.8-6.5.9-7 0-.6-2.7-1.1-6.1-1.2-6.9-.3-6.5-.9-7.8 10.6-1.3 11.2-3.3 16-7.6 18.5-3 1.8-8.6 1.5-7.4-.4.3-.5.1-1.2-.5-1.5-.6-.4-.9-1.4-.6-2.3.3-1 .8-4.4 1.1-7.7 1.2-12.1 1.7-16 2.1-16.6.2-.4-2.5-.7-6-.8-6.3-.1-6.5 0-7 2.6zM302.5 337.2c-.4 1.9-2.4 18.2-4 32.8-.2 1.9-.6 5.1-.9 7-.2 1.9-.7 5.7-1 8.5-.4 2.7-1 8.4-1.6 12.5-.5 4.1-.8 7.6-.6 7.7.2.3 9.4.6 11.3.4.9-.1 2.4-6.9 2.7-12.5.1-.5 1.1-1.5 2.2-2.3 2-1.3 2.2-1.1 3.4 1.9.7 1.8 2.3 5.4 3.6 7.9 1.3 2.5 2.2 4.8 2 5-.3.2 2.7.3 6.6.2 3.8-.1 7.2-.4 7.5-.7.6-.5-8.6-18.4-10.6-20.5-1.5-1.6-1.4-1.7 6.4-7.1 8.3-5.7 7.9-5.1 4.6-8.8-1.6-1.7-3.3-3.2-3.6-3.2-.3 0-4.5 2.6-9.3 5.8-4.8 3.2-9.2 6.2-9.9 6.5-1.1.7-1.1-.2.2-8.6.3-1.7.7-5.5 1-8.2.2-2.8.7-7 .9-9.5.3-2.5.9-7.3 1.2-10.8l.6-6.2h-6.1c-5.5 0-6.1.2-6.6 2.2zM233 340.5c-.5.6-1.2 3.8-1.5 7.1-.3 3.2-.8 7-1 8.4-.3 1.4-.7 5.2-1 8.5-.4 3.3-.9 6.9-1.2 8-.3 1.1-.7 6-.8 10.9-.2 7.6.1 9.3 1.6 11 1.1 1.1 1.9 2.6 1.9 3.3 0 .7.5 1.3 1.1 1.3.5 0 .7.5.3 1.2-.4.6-.3.8.3.5.5-.3 2.1.5 3.6 1.9s2.7 2.2 2.7 1.9c0-.3 1.5.1 3.4.9 4.9 2 15 1.5 21-1.2 2.6-1.2 5.2-1.9 5.7-1.6.5.3.8.1.7-.4-.2-.5 1.3-2.6 3.3-4.5 4.5-4.4 7.5-10.6 8.4-17.2.3-2.8.8-5.9.9-7 .2-1.1.4-3.9.5-6.3.1-2.9.5-4.1 1.2-3.6.8.5.9.2.2-1.1-.6-1.1-.7-3.2-.2-5.4.5-2 1.2-6.8 1.5-10.6l.6-7.1-6.4.2c-3.5.1-6.6.2-6.9.3-.3.1-.6 2.2-.8 4.8-.1 2.6-.4 4.9-.6 5.3-.2.3-.6 3.7-1 7.5-.4 3.9-.9 7.8-1 8.7-.2.9-.7 4.8-1.1 8.5-.8 8-1.8 11-4.7 14.1-6.7 7.2-17.3 6.7-21.3-1-1.4-2.8-1.5-4.4-.4-14.2 1.3-11.9 1.7-14.8 2.6-21.1.3-2.2.7-6 .7-8.5l.2-4.4-5.8-.1c-3.2-.1-6.2.4-6.7 1zM449.6 365.5c-6.6 1.7-11.4 5.9-14.7 13-3.1 6.7-2 19 2 22.1.9.7 1.1 1.6.6 2.5-.5.8-.5 1.1 0 .7.4-.4 2.6.2 4.8 1.4 5.1 2.6 12.5 2 18.2-1.3l3.8-2.3-.5 2.2c-.5 1.8-.2 2.2 2 2.3 1.5 0 4.2.1 6 .2 4.4.3 4.8-.4 5.7-9.3.2-2.5.6-5.9.9-7.5.6-3.9 1.9-16.2 2-19.9.1-2.9-.1-3-4.8-3.1-3.6-.1-5.3.3-6.6 1.7-1.6 1.7-1.8 1.7-3.1.2-2.9-3.5-9.3-4.7-16.3-2.9zm12.7 10.7c2.6 1.3 4.5 4.2 4.1 6.5-.1.7-.2 2.6-.3 4.3 0 1.7-1.3 4.3-2.9 6.1-5 5.6-14 4.1-16.2-2.7-3.3-10 5.9-18.5 15.3-14.2zM549.5 364.7c-11.6 2.2-19 11.1-19 22.8 0 8.7.3 9.4 5.5 15.4 2.4 2.7 7.5 4.3 12.7 3.9 2.6-.1 5-.5 5.3-.8.3-.3 2-1.3 3.8-2.3 3.1-1.8 3.2-1.8 3.2.1 0 1.3.8 2.1 2.3 2.3 3.4.6 10.2-.5 10.4-1.6 0-.6.4-3.3.7-6 .6-5.4 1.4-11.2 2-16 .2-1.7.7-5.9 1-9.5l.7-6.6-5.6.1c-4.3 0-5.9.4-6.6 1.8-1 1.6-1.2 1.6-4-.8-1.7-1.4-4-2.5-5.2-2.6-1.2 0-2.9-.2-3.7-.3-.8-.1-2.4-.1-3.5.1zm8.5 11.4c0 .5.4.8.9.5 1.5-.9 4.3 1.9 4.3 4.5.3 9.6-2.7 14.5-9.4 15.5-2.9.5-4.1.1-6.8-2.3-5.4-4.8-4.7-13.4 1.3-17.2 3.4-2.2 9.7-2.8 9.7-1zM422.5 366.7c-1.6.8-4.5 2.9-6.3 4.7-2.9 2.7-3.3 2.8-3.2 1.1.6-5.8.3-6.2-4.9-6.1-2.8.1-5.2.4-5.6.7-.7.8-1.1 2.8-1.9 10.4-.4 3.3-.9 7.1-1.1 8.5-.2 1.4-.6 4.7-.9 7.5-.4 2.7-.9 6.7-1.2 8.7l-.6 3.8h6.6c5.6 0 6.6-.3 6.7-1.8 0-.9.2-2.4.3-3.2.2-.8.6-4.2 1-7.5.8-6.9 4.1-12.7 8.6-15 1.6-.8 3.2-1.5 3.5-1.5 4.1.1 4.2 0 5.2-6 .9-5.7.9-6-1.1-6-1.2.1-3.4.8-5.1 1.7zM497.9 367.3c-5.4 3.6-7.8 10.8-5.3 15.8.7 1.5 1 3 .6 3.4-.4.5-.2.5.4.2.7-.4 1.7 0 2.4.8s2.9 2 4.9 2.6c5.3 1.6 7.1 3.2 6.4 5.7-.8 3.2-6.6 3-11.1-.5l-3.5-2.7-2.9 3.4c-1.5 1.9-2.8 3.7-2.8 4 0 .3 1.3 1.4 2.9 2.5 1.6 1 2.8 2.2 2.5 2.6-.2.4.6.5 1.8.1 1.2-.3 1.9-.1 1.5.5-.6.9 13.2 1.2 16.2.2 4.3-1.3 9.1-9 9.1-14.5 0-3.5-4.4-7.9-10.5-10.4-4.5-1.8-5.5-2.7-5.5-4.6 0-1.3.6-2.4 1.3-2.5.6 0 2.3-.2 3.6-.3 1.3-.2 3.2.4 4.1 1.3 2.7 2.6 3.8 2.3 6.5-1.7l2.6-3.7-4.8-2.2c-6.7-3.2-15.7-3.1-20.4 0zM348.6 368c-.3.8-.8 4.9-1.1 9-.4 4.1-.8 7.7-1 8-.2.3-.6 3.9-1 8.1-.6 7.1-.5 7.7 1.9 10.6 3.4 4.1 9.1 5.6 14.1 3.9 3.6-1.3 8-3.9 9.2-5.5 1.1-1.4 1.2-1.2 1.3 1.1 0 2.5.3 2.6 6 3 5.8.3 6 .2 6.1-2.2 0-1.4.2-3.4.4-4.5s.7-4.5 1-7.5c.4-3 .8-6.6 1-8 .1-1.4.6-5.4 1-9 .4-3.6.9-6.8 1.2-7.3.5-.8.5-.8-6.9-1.1-3.4-.1-5.9.3-5.9.9-1.6 13.1-3 20.8-4 22.8-1.9 3.6-6 6.7-9.1 6.7-4 0-5.1-3.5-3.6-11.5.4-2.2 1-6.9 1.3-10.4.3-3.5.8-6.8 1.1-7.2.6-1-.3-1.1-7.9-1.3-3.4-.1-4.8.3-5.1 1.4zM83.4 372.2c.7 4.8.8 5.1 2.5 13 .7 3.2.9 6.3.5 6.9-.4.7-.3.9.3.6.7-.4 1.4.8 1.8 3.1.3 2 2.9 10.5 5.7 18.9 2.7 8.4 4.9 15.5 4.8 15.9-.1.4.2 1 .7 1.3 1.6 1.1 4.5 8.9 3.8 10-.3.7-.1 1 .6.9.7-.2 1.4.1 1.4.7.3 2.9 14.1 28 20.6 37.7 2.2 3.1 3.9 6.2 3.9 6.7 0 .6.5 1.1 1.1 1.1.6 0 .8.7.5 1.6-.3.8-.2 1.3.3.9.5-.3 2 .9 3.2 2.7 6.7 9.6 17.3 22 28.4 33.1 4.4 4.3 7.9 8.3 7.7 8.8-.1.5.1.8.5.7.7-.2 1.7.5 7.6 5.6 1.2 1 3.2 2.5 4.4 3.3 1.3.8 2 1.9 1.7 2.4-.3.5 0 .8.8.7.7-.2 1.2.3 1 1-.1.8.2 1.1.8.7 1.4-.9 4.2 1.4 3.3 2.8-.3.6-.1.7.5.3 1.2-.7 10.9 6.2 10.5 7.5-.2.5.4.6 1.2.3.8-.4 1.5-.2 1.5.4 0 .5.9 1.2 2.1 1.5 1.2.3 1.8 1 1.4 1.6-.3.7 0 .8.9.5.9-.3 1.6-.1 1.6.6 0 .6.5.8 1 .5.6-.3 1.3.1 1.6.9.3.9 1.1 1.6 1.6 1.6.6 0 3.8 1.7 7.2 3.8 3.4 2 9.6 5.5 13.8 7.6 4.3 2.1 7.5 4.3 7.1 4.9-.4.6-.1.7.6.3 1.5-.9 7.1 1.2 7.1 2.7 0 .6.3.8.6.4.8-.7 8.6 2.3 9.6 3.7.4.6.8.8.8.4 0-.8 8.1 2.1 9 3.1.3.3 1.1.6 1.8.7 3.9.3 4.3.5 3.6 1.6-.4.6-.3.8.4.4 1.5-.9 10.2 1.6 9.5 2.7-.3.6-.1.7.4.4.6-.4 6.4.7 12.9 2.3 6.6 1.6 13 3 14.3 3 1.8 0 2.2.4 1.7 1.7-.5 1.6-.5 1.6.6.2 1-1.1 2.1-1.4 4.2-.8 2.8.8 2.8.7 2.1-2.4-.4-1.8-1-5.9-1.4-9.1l-.6-6-8.5-1.8c-13.7-3-29.7-7.7-42-12.5-11.6-4.4-35.1-15.8-40.1-19.4-1.5-1-3-1.9-3.3-1.9-1.1 0-19.8-13.1-27.6-19.4-44.9-36-76.9-84.3-91.9-138.8-2.2-7.9-4.5-16.9-5.1-20.1-1.1-5.7-2-6.4-7.1-5.9-.3.1-3-.5-6-1.3s-5.5-1.5-5.7-1.5c-.2 0-.1 1.9.2 4.2zM648.5 369.1c-1.6.5-5.2 1.1-7.8 1.4-2.7.2-5.1.6-5.3.8-.3.3-1.6 5.4-3 11.3-3.2 13.8-2.8 12.5-5.7 21.9-18.7 61.2-61.3 115.9-116.7 150-12.1 7.5-34.3 18.3-46.8 22.9-10.3 3.7-31.3 10-37.2 11-1.9.4-5.1 1-7 1.4l-3.4.8-1.3 8.4c-1.5 10.5-1.5 10.2-.4 9.6.5-.3 2.4-.8 4.2-1 8.3-1.1 21.3-4 25.9-5.7 1.4-.5 3.4-1.1 4.5-1.4 1.1-.2 3.8-.9 6-1.5s4.6-1.2 5.3-1.2c.6-.1 1.2-.4 1.2-.8 0-1.1 7.9-3.2 9.2-2.4.6.4.8.3.5-.3-.3-.5 1.1-1.5 3.1-2.2 2-.8 5.7-2.3 8.2-3.4 2.5-1.2 4.7-2.1 5-2.2.3 0 1.1-.4 1.8-.9.7-.4 2-.2 3 .6 1.5 1.1 1.5 1.1.5-.3-1.1-1.3-.1-2 6.7-5.2 4.3-2 8.2-4.2 8.5-4.7.4-.6 1.1-.8 1.6-.5.5.4.9.2.9-.3 0-1.2 4.9-3.4 6.1-2.6.5.3.8 0 .7-.8-.2-.8.6-1.2 2.2-1 1.7.1 2.1-.1 1.1-.7-1.7-1.1.3-2.6 2.1-1.5.7.4.8.3.4-.4-.7-1.1.6-1.7 2.7-1.3.5.1.6-.2.3-.7-.3-.5.7-1.5 2.2-2.3 1.5-.8 3.3-2 4-2.7.8-.6 2.3-1.7 3.4-2.3 1.1-.6 3.1-2 4.5-3.2 1.3-1.2 2.6-2.1 2.8-2 .3.1 2.6-1.8 5.2-4.2 2.6-2.4 4.8-4.3 5-4.1.1.1 4.2-3.5 9-8s9.1-8 9.5-7.8c.5.3.8.2.7-.3-.4-2.1.2-2.4 1.9-1.2 1.5 1.2 1.6 1.2.5-.1-1-1.3-.4-2.4 3.4-6.3 2.4-2.6 4.9-4.5 5.3-4.2.5.3 1.2 0 1.6-.6.4-.8.3-.9-.4-.5-2.4 1.5-1.1-.7 3.9-6.5 2.9-3.2 5.6-5.6 6.2-5.2.6.3.7.1.3-.5-.6-.9 3.5-7.3 6.4-10.2.3-.3 1.8-2.4 3.3-4.8 1.5-2.3 3.2-4.2 3.7-4.2.6 0 1-.7 1-1.5 0-2.4 3.1-6.6 4.3-5.8.6.4.7.1.3-.6-.5-.7-.1-2 .7-2.9.7-.9 1.7-2.5 2-3.5.4-1.1 1.2-1.5 1.8-1.1.7.4.9.3.5-.4-.5-.9 9-20.8 11.6-24 .6-.6.7-1.2.3-1.2-.4 0-.1-1 .7-2.3.8-1.2 1.8-3.5 2.2-5 .3-1.5 1-2.6 1.4-2.3.4.2.8-.3.9-1.2.1-2.1 9.5-29.5 10.2-30.2.4-.3.7-1.8.8-3.4.1-1.6.5-3.7.9-4.5 1-2.1.9-1.9 1.8-7.9.4-2.8 1.1-5.2 1.4-5.2.4 0 .7-1.2.8-2.8 0-1.5.4-4.6.7-7 .4-2.3.3-4.2-.1-4.1-.4 0-2 .5-3.7 1zM7.9 426c-1 8.3 0 34.1 1.6 46 .7 4.7 1.6 10.5 2.2 13 .3 1.4.6 3.7.6 5.2.1 1.6.5 2.8.8 2.8.3 0 .6.6.7 1.2 0 .7.3 2.4.6 3.8s.8 3.4 1 4.5c2 8.6 8.3 26.3 13.5 37.8 1.7 3.8 2.8 7.4 2.4 7.9-.3.6-.2.8.4.5.5-.3 2.2 2 3.7 5.1 3.1 6.3 13 22.7 15.3 25.4.8.9 1.2 2.2.8 2.8-.3.6-.3.9.2.8.4-.2.9 0 1 .5.2.4 1.3 1.8 2.5 3.1 3.5 3.7 7.6 9 7.6 9.9.1.5 1.2 1.7 2.7 2.8 1.4 1.2 2.2 2.5 1.9 3.1-.4.6-.3.8.3.5 1.1-.7 7 6.1 6.5 7.6-.1.5.1.6.6.3 1.2-.7 7.4 5.8 6.5 6.8-.5.4-.1.6.7.4.8-.2 1.4.3 1.2 1-.1.8.2 1.1.6.8.5-.3 1.8.4 2.8 1.5 1.1 1.2 4.7 4.4 8.2 7.2 4.8 3.7 6 5.2 5 5.9-.9.6-.6.7 1 .3 1.2-.4 2.2-.2 2.2.4 0 .5.9 1.3 2 1.6 1.1.4 1.8 1.1 1.5 1.6-.4.5-.1.9.5.9 1 0 6.8 3.7 8 5.1.3.3 3.3 2.3 6.7 4.3 3.5 2.1 6 4.3 5.6 4.9-.3.6-.1.7.5.3 1.1-.6 14.2 5.8 15.3 7.6.3.5.9 1 1.2 1 1.7 0 4.7 1.1 4.7 1.7 0 .4.6.8 1.3.8 2.7.2 17.7 7 17 7.8-.5.4-.3.5.3.2.7-.4 3.8.3 7 1.4 3.3 1.1 6.6 2.2 7.5 2.4.8.2 4 1.1 7 2 3 .9 6.8 1.9 8.4 2.2 1.7.3 3.2.8 3.5 1.1.3.4 1.9.8 3.5.8 1.7.1 4.4.5 6 .8 1.7.4 5.5 1 8.5 1.3 3 .3 5.7.8 6 1.2.5.6 2.1.7 16.2 1.2 4.3.1 6.5.6 6.1 1.2-.4.6-.1.7.8.1 2.1-1.3 8.9-1.4 8.9 0 0 .8.2.8.8 0 .4-.7 1.8-1.2 3.2-1.2 1.4 0 4.5-.1 7-.2l4.5-.2-3.5-.9c-35.5-9.4-59.1-19.8-85.5-37.8-22.9-15.6-48.5-40.8-63.9-63.1-2.1-3-6.1-7.1-8.9-9-14.4-9.9-41.1-34.4-49.4-45.3-1.7-2.3-4-5.1-5-6.2-1-1.1-3.9-4.9-6.4-8.5-18.6-26.4-31.8-54.6-39.4-84.5-1.9-7.7-2.3-8.5-2.6-5.5z"/><path d="M231.5 522.6c-2.2 2-5.1 4-6.4 4.5l-2.4 1 3.4 2.5c1.9 1.4 3.3 3 3.1 3.5-.1.6.2.8.7.5.5-.4 2.9.7 5.3 2.2 7.2 4.8 10.8 6.8 22.8 12.8 6.3 3.2 11.7 6.1 11.8 6.6.2.4.7.6 1.2.3.4-.3 3.3.6 6.4 2 3.1 1.4 6.3 2.5 7.1 2.5.8 0 1.5.5 1.5 1.2 0 .6.3.9.6.5.4-.3 2.3 0 4.3.7 2 .8 7.4 2.4 12.1 3.6 4.7 1.2 9.2 2.4 10 2.7.8.3 2.6.7 4 .9 1.4.2 3.6.6 5 1 1.4.3 3.5.8 4.7.9 1.3.2 4.2.7 6.5 1.1 4.6.8 8.6 1.2 13.2 1.3 2.6.1 2.7.3 1.5 1.8-1.3 1.7-1.2 1.7.4.4 2-1.6 5.5-2.2 6.2-1.1.2.3 2.4.5 4.9.4 3-.1 4.4.2 3.9.9-.4.6-.1.7.8.1.8-.5 3.7-1 6.4-1 2.8-.1 7.4-.3 10.2-.5 2.9-.1 5.5 0 5.9.4.4.3 1.5.2 2.5-.4 1.8-.9 2.3-.5 2 1.4-.1.5.3.6.9.2.6-.3.8-1.1.5-1.6-.6-.9 1.5-1.1 10.9-1.3 2.4-.1 4.2-.4 3.9-.9-.2-.4.8-.7 2.4-.7 1.5 0 4.3-.4 6.1-.9 2.3-.7 3.2-.6 3.2.2s.3.8.9-.1c.4-.7 2.3-1.4 4.2-1.5 1.9-.1 3.6-.4 3.9-.7 1.1-1.2 14.9-4.2 16.1-3.4.7.4 1 .3.5-.4-.5-.9 3.7-2.9 7.7-3.6 2.1-.4 13.1-4.6 15.7-6 1.4-.8 3-1.5 3.5-1.6 1.4-.3 16.8-8 18.1-9.1.6-.5 1.4-.6 1.7-.2.4.3.7.1.7-.6s.5-.9 1-.6c.6.3 1 .2 1-.4 0-.8 2.2-1.9 5-2.5.2-.1 1.5-1.1 2.9-2.4 1.4-1.3 3.1-2 4-1.7.8.3 1.2.3.8-.1-.4-.4.3-1.4 1.6-2.3 1.2-.9 2.2-1.4 2.2-1.1 0 .2 1.3-.8 2.9-2.3 1.6-1.5 3.4-2.7 4-2.7.6 0-.4-.9-2.2-2-1.9-1.2-4.6-3.2-6-4.5-1.5-1.4-3.1-2.5-3.6-2.5s-4.3 2.2-8.5 4.8c-24.3 15.5-51.4 26.4-80.1 32.2-18 3.6-23.2 4.1-44.5 4.5-17.9.2-24.8-.3-43.5-3.5-10.6-1.7-33.8-7.8-38.5-10-1.1-.5-6-2.5-11-4.5-13.1-5.3-36.5-18-42.5-23.1-1.2-1-2.2-.6-5.5 2.2z"/><path d="M181.4 572.2c-2.7 2.1-6.6 4.6-8.7 5.5l-3.8 1.7 2.8 2.6c1.5 1.4 5.1 4.1 8 6 2.8 1.9 4.9 3.9 4.5 4.4-.3.5 0 .6.6.2.6-.3 1.4-.1 1.7.4.4.6 1.8 1.5 3.2 2.1 1.4.5 2.1 1.4 1.7 2.1-.4.7-.3.8.4.4.6-.3 4.4 1.5 8.4 4.1 4 2.5 14.1 8.1 22.5 12.4 8.3 4.2 14.9 8 14.5 8.5-.4.4-.2.4.5.1 1.7-1 6.6 1.1 5.7 2.5-.4.7-.3.8.4.4 1.5-.9 9.2 1.4 9.2 2.7 0 .6.3.8.6.4.4-.3 1.9 0 3.5.9 1.6.8 3 1.4 3.1 1.3.3-.2 6.9 1.7 9.8 2.8.8.3 2.2.7 3 .9.8.2 1.6.7 1.8 1.3.2.5 1 .7 1.8.4.8-.3 2.6.3 4 1.2 1.5.9 2.4 1.3 2.1.8-.6-1 7.3.6 8.3 1.7.3.3 1.9.6 3.5.8 1.7.2 5.4 1 8.4 1.7 3 .8 5.8 1.2 6.3.9.4-.3.8-.1.8.5s.7.8 1.5.5c.8-.4 2.3 0 3.2.7.9.8 1.4.9 1 .2-.5-.7 0-.9 1.3-.6 1.1.3 1.7 1 1.3 1.7-.5.8-.3.8.8.1 1.7-1.3 16.5.5 15.2 1.9-.4.5.2.4 1.3-.2 1.2-.6 2.3-.9 2.5-.7 1.3 1.2 42.7 2.1 51.7 1.1 1.9-.2 3.2.1 3.2.8 0 .8.2.8.8 0 .4-.7 3.9-1.5 7.7-1.8 3.9-.4 8.3-.9 9.9-1.2 1.5-.3 3.5.1 4.3.7 1.1 1 1.3 1 1.1 0-.2-.8.8-1.5 2.2-1.7 1.4-.2 3.9-.6 5.5-.9 1.7-.3 3.9-.7 5-.9 1.1-.2 3.5-.6 5.3-1 2.2-.5 3.8-.3 5 .6 1.5 1.2 1.6 1.1.3-.5-1.2-1.5-1.1-1.7 1.3-1.8 2.8-.2 3.3-.3 5.6-1.2 1.2-.4 4.9-1.4 8-2.2 5.9-1.3 14.8-4.1 15.8-4.8.7-.5 1.5-.7 1.9-.4.3.4 1.8 0 3.2-.8 3.2-1.8 19.2-8 20.6-8 .6 0 .9.6.7 1.3-.1.8.2 1.1.7.7.6-.3.8-1.1.5-1.8-.4-1.2 17.9-10.3 20.3-10.1.7.1 1-.3.6-.9-.4-.6 0-.8 1-.4s1.6.2 1.4-.6c-.1-.7.6-1.1 1.5-1.1 1 .1 1.6-.2 1.3-.5-.6-1.1 6.4-4.2 7.7-3.5.6.4.8.2.5-.3-.8-1.3 4-4.6 5.3-3.8.6.3 1 .2 1-.3s2.7-2.7 6-4.9l5.9-4.1-5.5-3.6c-3-2-6.4-4.8-7.6-6.1-1.2-1.4-2.8-2.5-3.5-2.5-.8 0-5.8 2.7-11.1 5.9-9.8 5.9-27.4 14.7-38.7 19.4-7.4 3-23.3 8.7-26 9.3-1.1.2-3.1.8-4.5 1.4-9 3.5-35.1 8.6-55 10.7-9.3 1-52.4 1-60.5 0-10.2-1.2-16.6-2.2-21.5-3.2-1.3-.2-4.1-.7-6.1-1-20.3-3-60.3-17-81.4-28.5-15.1-8.1-17.4-9.5-30.1-17.9l-13-8.7-5 3.8z"/><path d="M239 586.1c0 .5.5.7 1 .4.6-.3 1-.8 1-1.1 0-.2-.4-.4-1-.4-.5 0-1 .5-1 1.1zM418.5 612c-.3.6.1.7.9.4 1.8-.7 2.1-1.4.7-1.4-.6 0-1.3.4-1.6 1zM263.3 635.5c0 .8.4 1.2.9.9.5-.3.6-1 .3-1.5-.9-1.3-1.2-1.1-1.2.6z"/></svg>